<svg xmlns="http://www.w3.org/2000/svg" xmlns:xlink="http://www.w3.org/1999/xlink" viewBox="0 0 51.77 51.77"><defs><style>.cls-1,.cls-2{isolation:isolate;}.cls-1{fill:url(#Gradiente_sem_nome_13);}.cls-3{fill:#fff;}</style><linearGradient id="Gradiente_sem_nome_13" x1="5.68" y1="42.07" x2="46.09" y2="9.7" gradientUnits="userSpaceOnUse"><stop offset="0" stop-color="#47b5c3"/><stop offset="0.16" stop-color="#67b8bb"/><stop offset="0.56" stop-color="#b6bea7"/><stop offset="0.85" stop-color="#e7c29b"/><stop offset="0.99" stop-color="#fac496"/></linearGradient></defs><g id="Camada_2" data-name="Camada 2"><g id="Layer_1" data-name="Layer 1"><circle class="cls-1" cx="25.88" cy="25.88" r="25.88"/><g class="cls-2"><path class="cls-3" d="M11.54,42H33.27a.84.84,0,0,0,.84-.83V12.51a.84.84,0,0,0-.84-.83H27.7V10.56a.83.83,0,0,0-.83-.83H18a.84.84,0,0,0-.84.83v1.12H11.54a.83.83,0,0,0-.83.83v28.7A.83.83,0,0,0,11.54,42ZM18.79,11.4H26v3.34H18.79Zm-6.41,1.95h4.74v2.23a.83.83,0,0,0,.83.83h8.92a.83.83,0,0,0,.83-.83V13.35h4.74v27H12.38Z"/><path class="cls-3" d="M19.59,18.61l-3.17,3.18L15.86,21a.84.84,0,1,0-1.39.93l1.11,1.67a.83.83,0,0,0,.62.37h.08a.83.83,0,0,0,.59-.25l3.9-3.9a.83.83,0,0,0,0-1.16.84.84,0,0,0-1.16,0Z"/><path class="cls-3" d="M29.09,21.15H22.41a.84.84,0,1,0,0,1.67h6.68a.84.84,0,1,0,0-1.67Z"/><path class="cls-3" d="M19.66,26.41a.83.83,0,0,0-1.19,0l-1.36,1.36-1.35-1.36a.84.84,0,0,0-1.19,1.18L15.93,29l-1.36,1.36a.85.85,0,0,0-.24.59.87.87,0,0,0,.24.59.84.84,0,0,0,1.19,0l1.35-1.36,1.36,1.36a.84.84,0,0,0,1.19,0,.87.87,0,0,0,.24-.59.85.85,0,0,0-.24-.59L18.3,29l1.36-1.36h0A.87.87,0,0,0,19.9,27a.85.85,0,0,0-.24-.59Z"/><path class="cls-3" d="M29.09,27.83H22.41a.84.84,0,0,0,0,1.68h6.68a.84.84,0,1,0,0-1.68Z"/><path class="cls-3" d="M37.59,41.41a.84.84,0,0,0,.69.35.83.83,0,0,0,.68-.35l1.95-2.79a.83.83,0,0,0,.15-.48V22.54a.83.83,0,0,0-.83-.83h-3.9a.83.83,0,0,0-.84.83v15.6a.83.83,0,0,0,.15.48Zm.69-1.94-1.12-1.59V26.74h2.23V37.88Zm1.11-16.09v1.67H37.16V23.38Z"/></g></g></g></svg>