<svg xmlns="http://www.w3.org/2000/svg" xmlns:xlink="http://www.w3.org/1999/xlink" viewBox="0 0 51.77 51.77"><defs><style>.cls-1,.cls-2{isolation:isolate;}.cls-1{fill:url(#Gradiente_sem_nome_13);}.cls-3{fill:#fff;}</style><linearGradient id="Gradiente_sem_nome_13" x1="5.68" y1="42.07" x2="46.09" y2="9.7" gradientUnits="userSpaceOnUse"><stop offset="0" stop-color="#47b5c3"/><stop offset="0.16" stop-color="#67b8bb"/><stop offset="0.56" stop-color="#b6bea7"/><stop offset="0.85" stop-color="#e7c29b"/><stop offset="0.99" stop-color="#fac496"/></linearGradient></defs><g id="Camada_2" data-name="Camada 2"><g id="Layer_1" data-name="Layer 1"><circle class="cls-1" cx="25.88" cy="25.88" r="25.88"/><g class="cls-2"><path class="cls-3" d="M16.28,23.54A9.62,9.62,0,0,0,20,32.47,4.47,4.47,0,0,1,21.59,36v1.7a4.31,4.31,0,1,0,8.61,0v-1.9a4.22,4.22,0,0,1,1.59-3.34,9.69,9.69,0,1,0-15.51-9Zm9.61,16.35a2.16,2.16,0,0,1-2.16-2.16H28A2.16,2.16,0,0,1,25.89,39.89ZM25,17.32a8.88,8.88,0,0,1,.9-.05,7.42,7.42,0,0,1,5,1.91,7.52,7.52,0,0,1-.43,11.61,6.35,6.35,0,0,0-2.41,4.79H23.71a6.61,6.61,0,0,0-2.44-4.82A7.53,7.53,0,0,1,25,17.32Z"/><path class="cls-3" d="M25.88,14A1.08,1.08,0,0,0,27,13V10.8a1.08,1.08,0,0,0-2.15,0V13A1.08,1.08,0,0,0,25.88,14Z"/><path class="cls-3" d="M19,15.08a1.1,1.1,0,0,0,.94.54,1.06,1.06,0,0,0,.54-.14A1.09,1.09,0,0,0,20.9,14l-1.08-1.86A1.08,1.08,0,1,0,18,13.22Z"/><path class="cls-3" d="M13.22,18.74l1.86,1.08a1.06,1.06,0,0,0,.54.14,1.08,1.08,0,0,0,.54-2l-1.87-1.07a1.08,1.08,0,1,0-1.07,1.87Z"/><path class="cls-3" d="M11.88,25.88H14a1.08,1.08,0,0,0,0-2.15H11.88a1.08,1.08,0,1,0,0,2.15Z"/><path class="cls-3" d="M31.27,15.48a1.17,1.17,0,0,0,.54.14,1.1,1.1,0,0,0,.94-.54l1.07-1.86A1.08,1.08,0,1,0,32,12.14L30.87,14a1.09,1.09,0,0,0,.4,1.48Z"/><path class="cls-3" d="M36.15,20a1.06,1.06,0,0,0,.54-.14l1.86-1.08a1.08,1.08,0,0,0-1.07-1.87L35.61,18a1.08,1.08,0,0,0,.54,2Z"/><path class="cls-3" d="M36.66,24.81a1.07,1.07,0,0,0,1.07,1.07h2.16a1.08,1.08,0,1,0,0-2.15H37.73A1.07,1.07,0,0,0,36.66,24.81Z"/></g></g></g></svg>