<?xml version="1.0" encoding="UTF-8"?><svg xmlns="http://www.w3.org/2000/svg" viewBox="0 0 30.79 39.53"><defs><style>.d{fill:#08536a;}</style></defs><g id="a"/><g id="b"><g id="c"><g><path class="d" d="M30.79,39.53H0V0H22.04l8.75,8v31.53Zm-28.99-1.8H28.99V8.79L21.34,1.8H1.8V37.73Z"/><path class="d" d="M5.76,27.76H22.7v1.8H5.76v-1.8Z"/><path class="d" d="M6.52,17.69c.42-.07,.96-.12,1.64-.12,.84,0,1.47,.2,1.87,.55,.36,.31,.58,.8,.58,1.39s-.18,1.08-.52,1.42c-.45,.48-1.19,.73-2.02,.73-.26,0-.49-.01-.69-.06v2.67h-.85v-6.58h-.01Zm.85,3.21c.19,.04,.43,.07,.71,.07,1.03,0,1.66-.51,1.66-1.42s-.62-1.3-1.56-1.3c-.37,0-.66,.03-.81,.07v2.59Z"/><path class="d" d="M7.77,24.66h-1.64v-7.29l.33-.06c.53-.09,1.1-.13,1.71-.13,.93,0,1.64,.22,2.13,.65,.46,.39,.71,.99,.71,1.69s-.21,1.27-.62,1.7c-.52,.54-1.34,.84-2.32,.84-.1,0-.19,0-.29-.01v2.61Zm-.85-.79h.07v-5.84s-.04,.01-.07,.01v5.83Zm2.72-5.56c.33,.29,.51,.71,.51,1.24,0,.48-.15,.89-.42,1.19l.08-.08c.27-.28,.4-.66,.4-1.15s-.16-.84-.45-1.09c-.03-.04-.08-.08-.12-.11h0Zm-1.87,2.25c.09,.01,.2,.01,.31,.01,.58,0,1.27-.18,1.27-1.02,0-.22,0-.91-1.17-.91-.17,0-.3,.01-.42,.01v1.91Z"/><path class="d" d="M13.05,17.71c.52-.08,1.15-.13,1.82-.13,1.24,0,2.11,.28,2.69,.83,.6,.54,.93,1.32,.93,2.38s-.34,1.97-.96,2.59-1.64,.96-2.94,.96c-.61,0-1.12-.03-1.55-.08v-6.55Zm.85,5.87c.21,.04,.53,.04,.87,.04,1.83,0,2.82-1.02,2.82-2.82,.01-1.56-.88-2.56-2.69-2.56-.44,0-.78,.04-1,.09v5.25Z"/><path class="d" d="M14.6,24.71c-.58,0-1.12-.02-1.6-.08l-.35-.04v-7.22l.34-.06c.63-.09,1.26-.15,1.88-.15,1.32,0,2.28,.3,2.96,.93,.71,.64,1.06,1.54,1.06,2.68s-.37,2.17-1.07,2.87-1.81,1.07-3.22,1.07h0Zm-1.16-.83h.07v-5.85s-.04,0-.07,.01v5.84Zm.85-.65c.16,.01,.34,.01,.47,.01,1.6,0,2.43-.84,2.43-2.43,0-.69-.18-1.21-.54-1.59-.38-.39-.98-.58-1.75-.58-.25,0-.46,.01-.61,.03v4.56Zm2.59-4.84c.12,.09,.24,.18,.35,.29,.51,.51,.78,1.25,.76,2.14,0,1.05-.3,1.87-.89,2.41,.06-.04,.1-.09,.16-.13,.55-.54,.84-1.34,.84-2.31,0-.91-.27-1.6-.81-2.09-.12-.12-.27-.22-.42-.3h0Z"/><path class="d" d="M20.89,17.62h3.58v.72h-2.72v2.2h2.51v.71h-2.51v3h-.85v-6.64Z"/><path class="d" d="M22.15,24.66h-1.64v-7.44h4.36v1.51h-2.72v1.42h2.51v1.5h-2.51v3.01Zm-.87-.79h.07v-5.86h-.07v5.86Z"/><path class="d" d="M29.89,9.29h-8.2c-.49,0-.9-.4-.9-.9V.9c0-.36,.21-.67,.54-.82s.71-.08,.97,.16l8.2,7.49c.27,.25,.37,.64,.24,.99-.15,.34-.47,.57-.84,.57h0Zm-7.3-1.8h4.98l-4.98-4.56V7.49Z"/></g></g></g></svg>