<svg xmlns="http://www.w3.org/2000/svg" xmlns:xlink="http://www.w3.org/1999/xlink" viewBox="0 0 51.77 51.77"><defs><style>.cls-1,.cls-2{isolation:isolate;}.cls-1{fill:url(#Gradiente_sem_nome_13);}.cls-3{fill:#fff;}</style><linearGradient id="Gradiente_sem_nome_13" x1="5.68" y1="42.07" x2="46.09" y2="9.7" gradientUnits="userSpaceOnUse"><stop offset="0" stop-color="#47b5c3"/><stop offset="0.16" stop-color="#67b8bb"/><stop offset="0.56" stop-color="#b6bea7"/><stop offset="0.85" stop-color="#e7c29b"/><stop offset="0.99" stop-color="#fac496"/></linearGradient></defs><g id="Camada_2" data-name="Camada 2"><g id="Layer_1" data-name="Layer 1"><circle class="cls-1" cx="25.88" cy="25.88" r="25.88"/><g class="cls-2"><path class="cls-3" d="M38,10.55H20.87a4.1,4.1,0,0,0-4.1,4.1v6H13.33a3.6,3.6,0,0,0-3.6,3.61V34.76a3.6,3.6,0,0,0,3.6,3.6H14.6V42.2a.85.85,0,0,0,1.45.6l4.42-4.44H24.6a3.57,3.57,0,0,0,2.56-1,3.65,3.65,0,0,0,1.07-2.55V32.55h1l5.27,5.27a.83.83,0,0,0,.92.19.85.85,0,0,0,.53-.79V32.55h2A4.1,4.1,0,0,0,42,28.46V14.65A4.08,4.08,0,0,0,38,10.55ZM26.53,34.76a1.91,1.91,0,0,1-1.91,1.91H20.14a.84.84,0,0,0-.6.25l-3.25,3.24V37.52a.87.87,0,0,0-.24-.6.86.86,0,0,0-.6-.25H13.34a1.91,1.91,0,0,1-1.92-1.91V24.26a1.91,1.91,0,0,1,1.92-1.91h3.43v6.12a4.1,4.1,0,0,0,4.1,4.08h5.66Zm13.83-6.29a2.39,2.39,0,0,1-2.4,2.4H35.07a.85.85,0,0,0-.85.85v3.47l-4.06-4.07h0a.87.87,0,0,0-.61-.26H20.87a2.4,2.4,0,0,1-1.7-.7,2.43,2.43,0,0,1-.71-1.7V14.65a2.42,2.42,0,0,1,2.41-2.41H38a2.41,2.41,0,0,1,2.4,2.41Z"/><path class="cls-3" d="M29.41,19.27a1.27,1.27,0,0,0-.9.38,1.25,1.25,0,0,0-.37.9V26.5a1.28,1.28,0,0,0,1.27,1.28,1.3,1.3,0,0,0,.91-.38,1.28,1.28,0,0,0,.37-.9V20.55a1.26,1.26,0,0,0-.38-.9,1.27,1.27,0,0,0-.9-.38Z"/><path class="cls-3" d="M29.17,17.55a1.28,1.28,0,0,0,1-.27,1.25,1.25,0,0,0,.47-1,1,1,0,0,0,0-.25,1.13,1.13,0,0,0-.08-.24.76.76,0,0,0-.11-.22,1,1,0,0,0-.16-.19,1.27,1.27,0,0,0-.9-.38,1,1,0,0,0-.24,0l-.24.07a.94.94,0,0,0-.22.12,1,1,0,0,0-.2.16,1.26,1.26,0,0,0-.37.9,1.94,1.94,0,0,0,0,.24.85.85,0,0,0,.08.24.91.91,0,0,0,.11.22,1.16,1.16,0,0,0,.36.36.91.91,0,0,0,.22.11,1.35,1.35,0,0,0,.24.08Z"/></g></g></g></svg>