<svg xmlns="http://www.w3.org/2000/svg" xmlns:xlink="http://www.w3.org/1999/xlink" viewBox="0 0 51.77 51.77"><defs><style>.cls-1{isolation:isolate;fill:url(#Gradiente_sem_nome_13);}.cls-2{fill:#fff;}</style><linearGradient id="Gradiente_sem_nome_13" x1="5.68" y1="42.07" x2="46.09" y2="9.7" gradientUnits="userSpaceOnUse"><stop offset="0" stop-color="#47b5c3"/><stop offset="0.16" stop-color="#67b8bb"/><stop offset="0.56" stop-color="#b6bea7"/><stop offset="0.85" stop-color="#e7c29b"/><stop offset="0.99" stop-color="#fac496"/></linearGradient></defs><g id="Camada_2" data-name="Camada 2"><g id="Layer_1" data-name="Layer 1"><circle class="cls-1" cx="25.88" cy="25.88" r="25.88"/><path class="cls-2" d="M39.28,32,29.21,14.2a3.82,3.82,0,0,0-6.65,0L12.49,32a3.82,3.82,0,0,0,3.32,5.71H36A3.82,3.82,0,0,0,39.28,32ZM37.06,34.5a1.32,1.32,0,0,1-.47.47,1.26,1.26,0,0,1-.63.16H15.81a1.27,1.27,0,0,1-1.11-1.9L24.78,15.46a1.27,1.27,0,0,1,2.21,0L37.07,33.23a1.27,1.27,0,0,1,.17.63,1.4,1.4,0,0,1-.18.64Z"/><path class="cls-2" d="M26,28.33a1.28,1.28,0,0,0,.9-.37,1.26,1.26,0,0,0,.37-.9V21.11a1.29,1.29,0,0,0-.37-.91,1.26,1.26,0,0,0-.9-.37,1.26,1.26,0,0,0-1.28,1.28v5.95A1.31,1.31,0,0,0,25,28a1.29,1.29,0,0,0,.91.37Z"/><path class="cls-2" d="M25.7,30.06a1.09,1.09,0,0,0-.24.07.94.94,0,0,0-.22.12,1.4,1.4,0,0,0-.2.16,1.46,1.46,0,0,0-.16.19l-.11.22a1.09,1.09,0,0,0-.07.24,1,1,0,0,0,0,.25,1.31,1.31,0,0,0,.37.9l.2.16.22.12.24.07.25,0a1.28,1.28,0,0,0,.9-.37A1.56,1.56,0,0,0,27,32a1.51,1.51,0,0,0,.11-.22.84.84,0,0,0,.07-.24,1,1,0,0,0,0-.24,1.29,1.29,0,0,0-.47-1,1.24,1.24,0,0,0-1.05-.26Z"/></g></g></svg>