<svg xmlns="http://www.w3.org/2000/svg" xmlns:xlink="http://www.w3.org/1999/xlink" viewBox="0 0 51.77 51.77"><defs><style>.cls-1{isolation:isolate;fill:url(#Gradiente_sem_nome_13);}.cls-2{fill:#fff;}</style><linearGradient id="Gradiente_sem_nome_13" x1="5.68" y1="42.07" x2="46.09" y2="9.7" gradientUnits="userSpaceOnUse"><stop offset="0" stop-color="#47b5c3"/><stop offset="0.16" stop-color="#67b8bb"/><stop offset="0.56" stop-color="#b6bea7"/><stop offset="0.85" stop-color="#e7c29b"/><stop offset="0.99" stop-color="#fac496"/></linearGradient></defs><g id="Camada_2" data-name="Camada 2"><g id="Layer_1" data-name="Layer 1"><circle class="cls-1" cx="25.88" cy="25.88" r="25.88"/><path class="cls-2" d="M35.54,29.08a.92.92,0,0,0-.25-.83L22.4,15.36a1,1,0,0,0-1-.18.93.93,0,0,0-.54.83V34.25a1,1,0,0,0,.4.76.91.91,0,0,0,.83.07l4-1.62,3.33,8a.86.86,0,0,0,.83.54,1.34,1.34,0,0,0,.36-.07l3.37-1.4a.91.91,0,0,0,.51-1.18l-3.34-8L35,29.73a.93.93,0,0,0,.5-.65Zm-6,1a1,1,0,0,0-.5.5.74.74,0,0,0,0,.68l3.34,8.05L30.66,40l-3.34-8a1,1,0,0,0-.5-.5,1,1,0,0,0-.36-.07.92.92,0,0,0-.36.07l-3.52,1.47V18.2L33,28.61Z"/><path class="cls-2" d="M21.75,13.32a.9.9,0,0,0,.9-.9v-1.8a.9.9,0,0,0-1.8,0v1.8A.9.9,0,0,0,21.75,13.32Z"/><path class="cls-2" d="M19.1,13.42l-1.55-.89a.89.89,0,1,0-.9,1.54l1.55.9a1,1,0,0,0,.43.11.9.9,0,0,0,.47-1.66Z"/><path class="cls-2" d="M24.88,15.11a.79.79,0,0,0,.43-.11l1.54-.89a.88.88,0,0,0,.32-1.22A.89.89,0,0,0,26,12.56l-1.54.9a.88.88,0,0,0-.32,1.22.89.89,0,0,0,.79.43Z"/><path class="cls-2" d="M18.2,17l-1.55.89a.89.89,0,0,0-.32,1.22.94.94,0,0,0,.79.47.79.79,0,0,0,.43-.11l1.55-.89a.9.9,0,0,0,.32-1.23A.89.89,0,0,0,18.2,17Z"/></g></g></svg>