<svg xmlns="http://www.w3.org/2000/svg" xmlns:xlink="http://www.w3.org/1999/xlink" width="71" height="71" viewBox="0 0 71 71"><defs><style>.a{fill:url(#a);}.b{fill:#fff;}</style><linearGradient id="a" x1="0.11" y1="0.813" x2="0.89" y2="0.187" gradientUnits="objectBoundingBox"><stop offset="0" stop-color="#47b4c2"/><stop offset="0.15" stop-color="#65b6ba"/><stop offset="0.56" stop-color="#b4bda6"/><stop offset="0.85" stop-color="#e5c199"/><stop offset="0.99" stop-color="#f9c395"/></linearGradient></defs><g transform="translate(-796 -237)"><g transform="translate(796.25 237)"><circle class="a" cx="35.5" cy="35.5" r="35.5" transform="translate(-0.25)"/></g><path class="b" d="M-855.189,353.265a1.225,1.225,0,0,0-.842-.874l-3.626-1.03-1.03-3.626a1.222,1.222,0,0,0-1.317-.877h0a1.216,1.216,0,0,0-.725.343l-5.5,5.5a1.223,1.223,0,0,0-.363.878v4.98l-.706.706a20.065,20.065,0,0,0-13.341-5.076A20.165,20.165,0,0,0-902.7,372.62h0c-.046.509-.067,1.023-.074,1.539,0,.059-.009.118-.009.177,0,.014.009.025.01.037a19.7,19.7,0,0,0,.273,3.44c.1.572.232,1.128.381,1.677.005.019,0,.038.005.057a20.173,20.173,0,0,0,19.484,14.943,20.172,20.172,0,0,0,20.154-20.154,20.079,20.079,0,0,0-5.077-13.359l.687-.687h5a1.219,1.219,0,0,0,.858-.362l5.5-5.5A1.222,1.222,0,0,0-855.189,353.265Zm-9.736,21.073a17.691,17.691,0,0,1-17.71,17.71A17.725,17.725,0,0,1-899.754,378.9a.37.37,0,0,0-.02-.038c-.127-.478-.239-.964-.324-1.46a17.573,17.573,0,0,1-.239-3.25c.005-.424.03-.841.064-1.257.016-.2.028-.4.052-.6a17.686,17.686,0,0,1,17.585-15.67,17.65,17.65,0,0,1,11.623,4.351l-1.736,1.736a15.211,15.211,0,0,0-9.886-3.645A15.287,15.287,0,0,0-897.9,374.338a15.287,15.287,0,0,0,15.268,15.268,15.287,15.287,0,0,0,15.268-15.268,15.23,15.23,0,0,0-3.645-9.9l1.736-1.736A17.658,17.658,0,0,1-864.926,374.338Zm-14.789-4.637a5.444,5.444,0,0,0-2.921-.86,5.516,5.516,0,0,0-5.5,5.5,5.516,5.516,0,0,0,5.5,5.5,5.516,5.516,0,0,0,5.5-5.5,5.455,5.455,0,0,0-.858-2.921l1.775-1.774a7.924,7.924,0,0,1,1.526,4.694,7.92,7.92,0,0,1-7.939,7.939,7.92,7.92,0,0,1-7.938-7.939,7.92,7.92,0,0,1,7.938-7.939h0a7.908,7.908,0,0,1,4.676,1.527Zm.134,4.637a3.035,3.035,0,0,1-3.054,3.053,3.035,3.035,0,0,1-3.053-3.053,3.035,3.035,0,0,1,3.053-3.053A3.035,3.035,0,0,1-879.581,374.338Zm3.359-8.13a10.331,10.331,0,0,0-6.413-2.252,10.4,10.4,0,0,0-10.381,10.382,10.4,10.4,0,0,0,10.381,10.382,10.4,10.4,0,0,0,10.383-10.382,10.326,10.326,0,0,0-2.253-6.412l1.776-1.756a12.794,12.794,0,0,1,2.919,8.168,12.808,12.808,0,0,1-12.825,12.825,12.807,12.807,0,0,1-12.824-12.825,12.807,12.807,0,0,1,12.824-12.825,12.789,12.789,0,0,1,8.168,2.921Zm13.836-8.359h-3.76V354.07l3.665-3.664.649,2.271a1.22,1.22,0,0,0,.84.839l2.29.649Z" transform="translate(1710.298 -97.99)"/></g></svg>