<?xml version="1.0" encoding="UTF-8"?><svg xmlns="http://www.w3.org/2000/svg" xmlns:xlink="http://www.w3.org/1999/xlink" viewBox="0 0 55 55"><defs><style>.e{fill:#fff;}.f,.g{isolation:isolate;}.g{fill:url(#d);}</style><linearGradient id="d" x1="6.04" y1="44.69" x2="48.96" y2="10.31" gradientTransform="matrix(1, 0, 0, 1, 0, 0)" gradientUnits="userSpaceOnUse"><stop offset="0" stop-color="#47b5c3"/><stop offset=".16" stop-color="#66b7ba"/><stop offset=".56" stop-color="#b5bea7"/><stop offset=".85" stop-color="#e6c29a"/><stop offset=".99" stop-color="#fac496"/></linearGradient></defs><g id="a"/><g id="b"><g id="c"><g><circle class="g" cx="27.5" cy="27.5" r="27.5"/><g class="f"><path class="e" d="M11.29,44.98h24.16c.53,0,.95-.43,.95-.95V10.97c0-.53-.43-.95-.95-.95H11.29c-.53,0-.95,.43-.95,.95V44.03c0,.53,.43,.95,.95,.95Zm23.21-1.91H12.24v-1.27h22.25v1.27ZM12.24,11.92h22.25v27.98H17.33V14.78c0-.53-.43-.95-.95-.95s-.95,.43-.95,.95v25.11h-3.18V11.92Z"/><path class="e" d="M20.82,25.27h10.17c.53,0,.95-.43,.95-.95v-6.36c0-.53-.43-.95-.95-.95h-10.17c-.53,0-.95,.43-.95,.95v6.36c0,.53,.43,.95,.95,.95Zm.95-6.36h8.27v4.45h-8.27v-4.45Z"/><path class="e" d="M40.71,44.58c.18,.26,.47,.41,.78,.41s.6-.15,.78-.41l2.23-3.18c.11-.16,.17-.35,.17-.55V23.05c0-.53-.43-.95-.95-.95h-4.45c-.53,0-.95,.43-.95,.95v17.8c0,.2,.06,.39,.17,.55l2.23,3.18Zm.78-2.21l-1.27-1.81v-12.72h2.54v12.72l-1.27,1.81Zm1.27-18.36v1.91h-2.54v-1.91h2.54Z"/></g></g></g></g></svg>