<?xml version="1.0" encoding="UTF-8"?><svg xmlns="http://www.w3.org/2000/svg" xmlns:xlink="http://www.w3.org/1999/xlink" viewBox="0 0 32.92 32.23"><defs><style>.g{isolation:isolate;}.h{fill:url(#f);}.i{fill:url(#d);}.j{fill:url(#e);}</style><linearGradient id="d" x1="-4.71" y1="28.53" x2="34.27" y2="-2.7" gradientTransform="matrix(1, 0, 0, 1, 0, 0)" gradientUnits="userSpaceOnUse"><stop offset="0" stop-color="#ffac5a"/><stop offset=".34" stop-color="#a48e76"/><stop offset=".66" stop-color="#547390"/><stop offset=".88" stop-color="#23639f"/><stop offset=".99" stop-color="#105da6"/></linearGradient><linearGradient id="e" x1="-5.62" y1="27.39" x2="33.36" y2="-3.84" xlink:href="#d"/><linearGradient id="f" x1="3.61" y1="38.91" x2="42.59" y2="7.68" xlink:href="#d"/></defs><g id="a"/><g id="b"><g id="c"><g class="g"><path class="i" d="M27.49,0H5.4C2.42,0,0,2.42,0,5.4v12.32c0,2.98,2.42,5.4,5.4,5.4H27.52c2.98,0,5.4-2.42,5.4-5.4V5.4c-.03-2.98-2.46-5.4-5.44-5.4h0Zm3.15,17.73c0,1.73-1.42,3.15-3.15,3.15H5.4c-1.73,0-3.15-1.42-3.15-3.15V5.4c0-1.73,1.42-3.15,3.15-3.15H27.52c1.73,0,3.15,1.42,3.15,3.15v12.32h-.03Z"/><path class="j" d="M21.36,9.9l-6.68-4.47c-.62-.42-1.38-.45-2.04-.1-.66,.35-1.04,1-1.04,1.77v8.93c0,.73,.42,1.42,1.04,1.77,.31,.17,.62,.24,.93,.24,.38,0,.76-.1,1.11-.35l6.72-4.47c.55-.38,.9-1,.9-1.66-.04-.66-.38-1.28-.94-1.66h0Zm-7.55,5.64V7.58l5.95,3.98-5.95,3.98Z"/><path class="h" d="M30.64,27.49H13.16c-.48-1.42-1.8-2.46-3.39-2.46s-2.91,1.04-3.39,2.46H2.25c-.62,0-1.14,.52-1.14,1.14s.52,1.14,1.14,1.14H6.37c.48,1.42,1.8,2.46,3.39,2.46s2.91-1.04,3.39-2.46H30.64c.62,0,1.14-.52,1.14-1.14,0-.62-.52-1.14-1.14-1.14h0Zm-20.88,2.46c-.73,0-1.32-.59-1.32-1.32s.59-1.32,1.32-1.32,1.32,.59,1.32,1.32c0,.73-.59,1.32-1.32,1.32Z"/></g></g></g></svg>