<svg xmlns="http://www.w3.org/2000/svg" xmlns:xlink="http://www.w3.org/1999/xlink" viewBox="0 0 51.77 51.77"><defs><style>.cls-1,.cls-2{isolation:isolate;}.cls-1{fill:url(#Gradiente_sem_nome_13);}.cls-3{fill:#fff;}</style><linearGradient id="Gradiente_sem_nome_13" x1="5.68" y1="42.07" x2="46.09" y2="9.7" gradientUnits="userSpaceOnUse"><stop offset="0" stop-color="#47b5c3"/><stop offset="0.16" stop-color="#67b8bb"/><stop offset="0.56" stop-color="#b6bea7"/><stop offset="0.85" stop-color="#e7c29b"/><stop offset="0.99" stop-color="#fac496"/></linearGradient></defs><g id="Camada_2" data-name="Camada 2"><g id="Layer_1" data-name="Layer 1"><circle class="cls-1" cx="25.88" cy="25.88" r="25.88"/><g class="cls-2"><path class="cls-3" d="M21.06,9.84a11.34,11.34,0,1,0,7.26,20l1.25,1.25-.92.92h0a1,1,0,0,0,0,1.43l8.17,8.17a1,1,0,0,0,1.42,0l3.51-3.5a1,1,0,0,0,.29-.72,1,1,0,0,0-.29-.71l-8.17-8.17a.94.94,0,0,0-.73-.29,1,1,0,0,0-.7.29L31,29.68l-1.25-1.25a11.22,11.22,0,0,0,2.64-7.25A11.35,11.35,0,0,0,21.06,9.84Zm0,2a9.32,9.32,0,1,1-9.31,9.32,9.3,9.3,0,0,1,9.31-9.32Zm0,4.43a1,1,0,0,0-.7.31,1,1,0,0,0-.29.71v2.88H17.19a1,1,0,0,0-.78.26,1,1,0,0,0,0,1.49,1,1,0,0,0,.78.26h2.87v2.88a1,1,0,0,0,.29.72,1,1,0,0,0,.72.3,1,1,0,0,0,.72-.3,1,1,0,0,0,.29-.72V22.2H25a1,1,0,0,0,.7-1.74,1,1,0,0,0-.71-.28H22.08V17.31a1,1,0,0,0-.3-.73,1,1,0,0,0-.73-.29ZM32.87,30.67l6.74,6.74-2.07,2.07L30.8,32.74Z"/></g></g></g></svg>