<?xml version="1.0" encoding="utf-8"?>
<!-- Generator: Adobe Illustrator 27.1.1, SVG Export Plug-In . SVG Version: 6.00 Build 0)  -->
<svg version="1.1" id="Camada_1" xmlns="http://www.w3.org/2000/svg" xmlns:xlink="http://www.w3.org/1999/xlink" x="0px" y="0px"
	 viewBox="0 0 515.9 64.2" style="enable-background:new 0 0 515.9 64.2;" xml:space="preserve">
<style type="text/css">
	.st0{fill:#44AAB9;}
	.st1{fill:#94CFD3;}
	.st2{enable-background:new    ;}
	.st3{fill:#FFFFFF;}
</style>
<path class="st0" d="M49.6,4.1h438.3c15.5,0,28,12.5,28,28v0c0,15.5-12.5,28-28,28H49.6c-15.5,0-28-12.5-28-28v0
	C21.5,16.6,34.1,4.1,49.6,4.1z"/>
<path class="st1" d="M97.3,10.9h385.3c11.7,0,21.3,9.5,21.3,21.3l0,0c0,11.7-9.5,21.3-21.3,21.3H97.3C85.5,53.4,76,43.9,76,32.1l0,0
	C76,20.4,85.5,10.9,97.3,10.9z"/>
<ellipse class="st1" cx="34.7" cy="32.1" rx="34.7" ry="32.1"/>
<g transform="translate(10.798 8.008)">
	<g class="st2">
		<path class="st3" d="M6.5,13L3.6,5.4h0C3.6,6,3.7,6.7,3.7,7.6V13H2.8V4.4h1.5L7,11.5h0l2.7-7.1h1.5V13h-1V7.5c0-0.6,0-1.3,0.1-2.1
			h0L7.3,13H6.5z"/>
		<path class="st3" d="M19,9.8c0,1-0.3,1.9-0.8,2.5s-1.3,0.9-2.2,0.9c-0.6,0-1.1-0.1-1.5-0.4s-0.8-0.7-1-1.2s-0.4-1.1-0.4-1.8
			c0-1,0.3-1.9,0.8-2.4s1.2-0.9,2.2-0.9c0.9,0,1.6,0.3,2.1,0.9S19,8.8,19,9.8z M14.1,9.8c0,0.8,0.2,1.4,0.5,1.9s0.8,0.6,1.4,0.6
			s1.1-0.2,1.5-0.6S18,10.6,18,9.8c0-0.8-0.2-1.4-0.5-1.9c-0.3-0.4-0.8-0.6-1.5-0.6c-0.6,0-1.1,0.2-1.4,0.6
			C14.3,8.3,14.1,9,14.1,9.8z M15.2,5.6c0.2-0.2,0.4-0.5,0.6-0.9s0.4-0.6,0.5-0.9h1.2v0.1c-0.2,0.3-0.4,0.6-0.8,0.9
			s-0.6,0.7-0.9,0.9h-0.7V5.6z"/>
		<path class="st3" d="M25.1,12.1L25.1,12.1c-0.5,0.7-1.2,1-2.1,1c-0.8,0-1.5-0.3-2-0.9s-0.7-1.4-0.7-2.4s0.2-1.9,0.7-2.5
			s1.1-0.9,2-0.9c0.9,0,1.5,0.3,2,0.9h0.1l0-0.5l0-0.5V3.9h1V13h-0.8L25.1,12.1z M23.1,12.3c0.7,0,1.1-0.2,1.4-0.5S25,10.8,25,10
			V9.8c0-0.9-0.2-1.6-0.5-1.9c-0.3-0.4-0.8-0.6-1.5-0.6c-0.6,0-1,0.2-1.3,0.7c-0.3,0.4-0.5,1.1-0.5,1.9c0,0.8,0.2,1.4,0.5,1.9
			S22.5,12.3,23.1,12.3z"/>
		<path class="st3" d="M29,6.6v4.2c0,0.5,0.1,0.9,0.4,1.2s0.6,0.4,1.1,0.4c0.7,0,1.2-0.2,1.5-0.6s0.5-1,0.5-1.8V6.6h1V13h-0.8
			l-0.1-0.9h-0.1c-0.2,0.3-0.5,0.6-0.8,0.7s-0.8,0.3-1.2,0.3c-0.8,0-1.4-0.2-1.8-0.6s-0.6-1-0.6-1.8V6.6H29z"/>
		<path class="st3" d="M36.4,13h-1V3.9h1V13z"/>
		<path class="st3" d="M44,9.8c0,1-0.3,1.9-0.8,2.5s-1.3,0.9-2.2,0.9c-0.6,0-1.1-0.1-1.5-0.4s-0.8-0.7-1-1.2s-0.4-1.1-0.4-1.8
			c0-1,0.3-1.9,0.8-2.4s1.2-0.9,2.2-0.9c0.9,0,1.6,0.3,2.1,0.9S44,8.8,44,9.8z M39.1,9.8c0,0.8,0.2,1.4,0.5,1.9s0.8,0.6,1.4,0.6
			s1.1-0.2,1.5-0.6S43,10.6,43,9.8c0-0.8-0.2-1.4-0.5-1.9c-0.3-0.4-0.8-0.6-1.5-0.6c-0.6,0-1.1,0.2-1.4,0.6
			C39.3,8.3,39.1,9,39.1,9.8z"/>
	</g>
	<g class="st2">
		<path class="st3" d="M19.9,31.4c0,4.2-0.7,7.4-2.1,9.4c-1.4,2-3.5,3.1-6.4,3.1c-2.8,0-4.9-1.1-6.3-3.2c-1.4-2.1-2.1-5.2-2.1-9.3
			c0-4.3,0.7-7.4,2.1-9.5c1.4-2,3.5-3,6.4-3c2.8,0,4.9,1.1,6.4,3.2C19.2,24.2,19.9,27.3,19.9,31.4z M8,31.4c0,3,0.3,5.1,0.8,6.4
			c0.5,1.3,1.4,1.9,2.6,1.9c1.2,0,2.1-0.7,2.6-2s0.8-3.4,0.8-6.4c0-3-0.3-5.1-0.8-6.4c-0.5-1.3-1.4-2-2.6-2c-1.2,0-2.1,0.7-2.6,2
			C8.3,26.2,8,28.4,8,31.4z"/>
		<path class="st3" d="M24.9,43.5L34,23.6H22v-4.3h17.4v3.2l-9.2,21H24.9z"/>
	</g>
</g>
<g class="st2">
	<path class="st3" d="M105.8,26.9l-1.4-3.6h-4.6l-1.4,3.6H97l4.5-11.5h1.1l4.5,11.5H105.8z M103.9,22l-1.3-3.5
		c-0.2-0.4-0.3-1-0.5-1.6c-0.1,0.5-0.3,1-0.5,1.6l-1.3,3.5H103.9z"/>
	<path class="st3" d="M117.6,26.9h-1.5l-6.2-9.6h-0.1c0.1,1.1,0.1,2.2,0.1,3.1v6.5h-1.2V15.4h1.5l6.2,9.5h0.1c0-0.1,0-0.6-0.1-1.4
		c0-0.8,0-1.3,0-1.6v-6.6h1.2V26.9z"/>
	<path class="st3" d="M127.9,26.9l-1.4-3.6h-4.6l-1.4,3.6h-1.3l4.5-11.5h1.1l4.5,11.5H127.9z M126.1,22l-1.3-3.5
		c-0.2-0.4-0.3-1-0.5-1.6c-0.1,0.5-0.3,1-0.5,1.6l-1.3,3.5H126.1z M123.3,14.3c0.2-0.3,0.5-0.7,0.8-1.2s0.5-0.9,0.7-1.2h1.6v0.2
		c-0.2,0.3-0.6,0.8-1,1.2s-0.8,0.9-1.2,1.1h-0.9V14.3z"/>
	<path class="st3" d="M130.9,26.9V15.4h1.3v10.2h5v1.2H130.9z"/>
	<path class="st3" d="M139.2,26.9V15.4h1.3v11.4H139.2z"/>
	<path class="st3" d="M150.1,23.8c0,1-0.4,1.8-1.1,2.4c-0.7,0.6-1.7,0.8-3,0.8c-1.4,0-2.4-0.2-3.1-0.5v-1.3c0.5,0.2,1,0.4,1.5,0.5
		c0.6,0.1,1.1,0.2,1.6,0.2c0.9,0,1.6-0.2,2-0.5c0.4-0.3,0.7-0.8,0.7-1.4c0-0.4-0.1-0.7-0.2-1c-0.2-0.3-0.4-0.5-0.8-0.7
		c-0.4-0.2-0.9-0.5-1.7-0.7c-1.1-0.4-1.8-0.8-2.3-1.4c-0.5-0.5-0.7-1.2-0.7-2c0-0.9,0.3-1.6,1-2.1c0.7-0.5,1.5-0.8,2.6-0.8
		c1.1,0,2.2,0.2,3.1,0.6l-0.4,1.2c-0.9-0.4-1.9-0.6-2.8-0.6c-0.7,0-1.3,0.2-1.6,0.5c-0.4,0.3-0.6,0.7-0.6,1.3c0,0.4,0.1,0.7,0.2,1
		c0.1,0.3,0.4,0.5,0.7,0.7c0.3,0.2,0.9,0.4,1.6,0.7c1.2,0.4,2,0.9,2.5,1.4C149.9,22.4,150.1,23,150.1,23.8z"/>
	<path class="st3" d="M158.8,26.9h-6.4V15.4h6.4v1.2h-5v3.7h4.7v1.2h-4.7v4.2h5V26.9z"/>
	<path class="st3" d="M171.9,26.9h-6.4V15.4h6.4v1.2h-5v3.7h4.7v1.2h-4.7v4.2h5V26.9z"/>
	<path class="st3" d="M185.8,18.8c0,1.2-0.4,2-1.2,2.7s-1.9,0.9-3.4,0.9h-1.3v4.5h-1.3V15.4h3C184.4,15.4,185.8,16.6,185.8,18.8z
		 M179.9,21.2h1.2c1.2,0,2-0.2,2.6-0.6c0.5-0.4,0.8-1,0.8-1.8c0-0.8-0.2-1.3-0.7-1.7c-0.5-0.4-1.3-0.6-2.3-0.6h-1.5V21.2z"/>
	<path class="st3" d="M188.2,26.9V15.4h1.3v10.2h5v1.2H188.2z"/>
	<path class="st3" d="M203.7,26.9l-1.4-3.6h-4.6l-1.4,3.6h-1.3l4.5-11.5h1.1l4.5,11.5H203.7z M201.8,22l-1.3-3.5
		c-0.2-0.4-0.3-1-0.5-1.6c-0.1,0.5-0.3,1-0.5,1.6l-1.3,3.5H201.8z"/>
	<path class="st3" d="M215.5,26.9H214l-6.2-9.6h-0.1c0.1,1.1,0.1,2.2,0.1,3.1v6.5h-1.2V15.4h1.5l6.2,9.5h0.1c0-0.1,0-0.6-0.1-1.4
		c0-0.8,0-1.3,0-1.6v-6.6h1.2V26.9z"/>
	<path class="st3" d="M225,26.9h-6.4V15.4h6.4v1.2h-5v3.7h4.7v1.2H220v4.2h5V26.9z"/>
	<path class="st3" d="M225.9,29.9c-0.5,0-0.9-0.1-1.2-0.2v-1.1c0.4,0.1,0.8,0.2,1.2,0.2c0.5,0,0.9-0.2,1.2-0.5
		c0.3-0.3,0.4-0.8,0.4-1.4V15.4h1.3v11.3c0,1-0.2,1.8-0.8,2.3S226.8,29.9,225.9,29.9z"/>
	<path class="st3" d="M239,26.9l-1.4-3.6H233l-1.4,3.6h-1.3l4.5-11.5h1.1l4.5,11.5H239z M237.2,22l-1.3-3.5c-0.2-0.4-0.3-1-0.5-1.6
		c-0.1,0.5-0.3,1-0.5,1.6l-1.3,3.5H237.2z"/>
	<path class="st3" d="M247,26.9l-3.9-10.1h-0.1c0.1,0.8,0.1,1.8,0.1,2.9v7.3H242V15.4h2l3.6,9.4h0.1l3.6-9.4h2v11.4h-1.3v-7.4
		c0-0.8,0-1.8,0.1-2.8H252l-3.9,10.1H247z"/>
	<path class="st3" d="M262.8,26.9h-6.4V15.4h6.4v1.2h-5v3.7h4.7v1.2h-4.7v4.2h5V26.9z"/>
	<path class="st3" d="M274.2,26.9h-1.5l-6.2-9.6h-0.1c0.1,1.1,0.1,2.2,0.1,3.1v6.5h-1.2V15.4h1.5L273,25h0.1c0-0.1,0-0.6-0.1-1.4
		c0-0.8,0-1.3,0-1.6v-6.6h1.2V26.9z"/>
	<path class="st3" d="M280.9,26.9h-1.3V16.6h-3.6v-1.2h8.6v1.2h-3.6V26.9z"/>
	<path class="st3" d="M296.1,21.1c0,1.8-0.5,3.3-1.4,4.3c-0.9,1-2.2,1.6-3.9,1.6c-1.7,0-3-0.5-3.9-1.5s-1.4-2.5-1.4-4.4
		c0-1.9,0.5-3.3,1.4-4.3c0.9-1,2.2-1.5,3.9-1.5c1.6,0,2.9,0.5,3.8,1.6S296.1,19.3,296.1,21.1z M287,21.1c0,1.5,0.3,2.7,1,3.5
		c0.7,0.8,1.6,1.2,2.9,1.2c1.3,0,2.2-0.4,2.9-1.2c0.6-0.8,1-2,1-3.5c0-1.5-0.3-2.7-1-3.5c-0.6-0.8-1.6-1.2-2.9-1.2
		c-1.3,0-2.2,0.4-2.9,1.2C287.4,18.5,287,19.6,287,21.1z"/>
	<path class="st3" d="M312,21c0,1.9-0.5,3.3-1.5,4.3s-2.5,1.5-4.4,1.5h-3.2V15.4h3.5c1.8,0,3.2,0.5,4.1,1.5S312,19.3,312,21z
		 M310.5,21.1c0-1.5-0.4-2.6-1.1-3.4c-0.7-0.8-1.9-1.1-3.3-1.1h-1.9v9.1h1.6c1.6,0,2.8-0.4,3.6-1.2S310.5,22.6,310.5,21.1z"/>
	<path class="st3" d="M320.9,26.9h-6.4V15.4h6.4v1.2h-5v3.7h4.7v1.2h-4.7v4.2h5V26.9z"/>
	<path class="st3" d="M334.8,18.8c0,1.2-0.4,2-1.2,2.7s-1.9,0.9-3.4,0.9h-1.3v4.5h-1.3V15.4h3C333.4,15.4,334.8,16.6,334.8,18.8z
		 M328.9,21.2h1.2c1.2,0,2-0.2,2.6-0.6c0.5-0.4,0.8-1,0.8-1.8c0-0.8-0.2-1.3-0.7-1.7c-0.5-0.4-1.3-0.6-2.3-0.6h-1.5V21.2z"/>
	<path class="st3" d="M347.1,21.1c0,1.8-0.5,3.3-1.4,4.3c-0.9,1-2.2,1.6-3.9,1.6c-1.7,0-3-0.5-3.9-1.5s-1.4-2.5-1.4-4.4
		c0-1.9,0.5-3.3,1.4-4.3c0.9-1,2.2-1.5,3.9-1.5c1.6,0,2.9,0.5,3.8,1.6S347.1,19.3,347.1,21.1z M338,21.1c0,1.5,0.3,2.7,1,3.5
		c0.7,0.8,1.6,1.2,2.9,1.2c1.3,0,2.2-0.4,2.9-1.2c0.6-0.8,1-2,1-3.5c0-1.5-0.3-2.7-1-3.5c-0.6-0.8-1.6-1.2-2.9-1.2
		c-1.3,0-2.2,0.4-2.9,1.2C338.3,18.5,338,19.6,338,21.1z"/>
	<path class="st3" d="M349.6,26.9V15.4h1.3v10.2h5v1.2H349.6z"/>
	<path class="st3" d="M357.8,14.3c0.2-0.3,0.5-0.7,0.8-1.2s0.5-0.9,0.7-1.2h1.6v0.2c-0.2,0.3-0.6,0.8-1,1.2s-0.8,0.9-1.2,1.1h-0.9
		V14.3z M358,26.9V15.4h1.3v11.4H358z"/>
	<path class="st3" d="M365.9,26.9h-1.3V16.6H361v-1.2h8.6v1.2h-3.6V26.9z"/>
	<path class="st3" d="M371.3,26.9V15.4h1.3v11.4H371.3z"/>
	<path class="st3" d="M380.6,16.5c-1.3,0-2.2,0.4-3,1.3s-1.1,2-1.1,3.4c0,1.5,0.3,2.6,1.1,3.5c0.7,0.8,1.7,1.2,3,1.2
		c0.8,0,1.7-0.1,2.7-0.4v1.2c-0.8,0.3-1.8,0.4-2.9,0.4c-1.7,0-3-0.5-3.9-1.5s-1.4-2.5-1.4-4.4c0-1.2,0.2-2.2,0.7-3.1
		c0.4-0.9,1.1-1.6,1.9-2c0.8-0.5,1.8-0.7,2.9-0.7c1.2,0,2.2,0.2,3.1,0.7l-0.6,1.1C382.3,16.7,381.5,16.5,380.6,16.5z"/>
	<path class="st3" d="M393,26.9l-1.4-3.6H387l-1.4,3.6h-1.3l4.5-11.5h1.1l4.5,11.5H393z M391.2,22l-1.3-3.5c-0.2-0.4-0.3-1-0.5-1.6
		c-0.1,0.5-0.3,1-0.5,1.6l-1.3,3.5H391.2z"/>
	<path class="st3" d="M402.4,23.8c0,1-0.4,1.8-1.1,2.4s-1.7,0.8-3,0.8c-1.4,0-2.4-0.2-3.1-0.5v-1.3c0.5,0.2,1,0.4,1.5,0.5
		s1.1,0.2,1.6,0.2c0.9,0,1.6-0.2,2-0.5s0.7-0.8,0.7-1.4c0-0.4-0.1-0.7-0.2-1s-0.4-0.5-0.8-0.7s-0.9-0.5-1.7-0.7
		c-1.1-0.4-1.8-0.8-2.3-1.4s-0.7-1.2-0.7-2c0-0.9,0.3-1.6,1-2.1s1.5-0.8,2.6-0.8c1.1,0,2.2,0.2,3.1,0.6l-0.4,1.2
		c-0.9-0.4-1.9-0.6-2.8-0.6c-0.7,0-1.3,0.2-1.6,0.5s-0.6,0.7-0.6,1.3c0,0.4,0.1,0.7,0.2,1s0.4,0.5,0.7,0.7s0.9,0.4,1.6,0.7
		c1.2,0.4,2,0.9,2.5,1.4S402.4,23,402.4,23.8z"/>
	<path class="st3" d="M416.1,18.8c0,1.2-0.4,2-1.2,2.7s-1.9,0.9-3.4,0.9h-1.3v4.5h-1.3V15.4h3C414.7,15.4,416.1,16.6,416.1,18.8z
		 M410.2,21.2h1.2c1.2,0,2-0.2,2.6-0.6s0.8-1,0.8-1.8c0-0.8-0.2-1.3-0.7-1.7s-1.3-0.6-2.3-0.6h-1.5V21.2z"/>
	<path class="st3" d="M427.1,15.4v7.4c0,1.3-0.4,2.3-1.2,3.1s-1.9,1.1-3.2,1.1s-2.4-0.4-3.2-1.1s-1.1-1.8-1.1-3.1v-7.4h1.3v7.5
		c0,1,0.3,1.7,0.8,2.2s1.3,0.8,2.3,0.8c1,0,1.7-0.3,2.2-0.8s0.8-1.2,0.8-2.2v-7.4H427.1z M421.6,14.3c0.2-0.3,0.5-0.7,0.8-1.2
		s0.5-0.9,0.7-1.2h1.6v0.2c-0.2,0.3-0.6,0.8-1,1.2s-0.8,0.9-1.2,1.1h-0.9V14.3z"/>
	<path class="st3" d="M430.2,15.4h3.2c1.5,0,2.6,0.2,3.3,0.7s1,1.2,1,2.1c0,0.7-0.2,1.2-0.6,1.7s-0.9,0.7-1.7,0.9v0.1
		c1.7,0.3,2.6,1.2,2.6,2.7c0,1-0.3,1.8-1,2.4s-1.7,0.9-2.9,0.9h-4V15.4z M431.5,20.3h2.2c0.9,0,1.6-0.1,2-0.4s0.6-0.8,0.6-1.5
		c0-0.6-0.2-1.1-0.7-1.4s-1.2-0.4-2.2-0.4h-2V20.3z M431.5,21.5v4.3h2.4c0.9,0,1.6-0.2,2.1-0.5s0.7-0.9,0.7-1.7
		c0-0.7-0.2-1.2-0.7-1.6s-1.2-0.5-2.2-0.5H431.5z"/>
	<path class="st3" d="M440.5,26.9V15.4h1.3v10.2h5v1.2H440.5z"/>
	<path class="st3" d="M448.8,26.9V15.4h1.3v11.4H448.8z"/>
	<path class="st3" d="M458.2,16.5c-1.3,0-2.2,0.4-3,1.3s-1.1,2-1.1,3.4c0,1.5,0.4,2.6,1.1,3.5s1.7,1.2,3,1.2c0.8,0,1.7-0.1,2.7-0.4
		v1.2c-0.8,0.3-1.8,0.4-2.9,0.4c-1.7,0-3-0.5-3.9-1.5s-1.4-2.5-1.4-4.4c0-1.2,0.2-2.2,0.7-3.1s1.1-1.6,1.9-2s1.8-0.7,2.9-0.7
		c1.2,0,2.2,0.2,3.1,0.7l-0.6,1.1C459.9,16.7,459.1,16.5,458.2,16.5z"/>
	<path class="st3" d="M470.6,26.9l-1.4-3.6h-4.6l-1.4,3.6h-1.3l4.5-11.5h1.1l4.5,11.5H470.6z M468.7,22l-1.3-3.5
		c-0.2-0.4-0.3-1-0.5-1.6c-0.1,0.5-0.3,1-0.5,1.6L465,22H468.7z"/>
	<path class="st3" d="M480,23.8c0,1-0.4,1.8-1.1,2.4s-1.7,0.8-3,0.8c-1.4,0-2.4-0.2-3.1-0.5v-1.3c0.5,0.2,1,0.4,1.5,0.5
		s1.1,0.2,1.6,0.2c0.9,0,1.6-0.2,2-0.5s0.7-0.8,0.7-1.4c0-0.4-0.1-0.7-0.2-1s-0.4-0.5-0.8-0.7s-0.9-0.5-1.7-0.7
		c-1.1-0.4-1.8-0.8-2.3-1.4s-0.7-1.2-0.7-2c0-0.9,0.3-1.6,1-2.1s1.5-0.8,2.6-0.8c1.1,0,2.2,0.2,3.1,0.6l-0.4,1.2
		c-0.9-0.4-1.9-0.6-2.8-0.6c-0.7,0-1.3,0.2-1.6,0.5s-0.6,0.7-0.6,1.3c0,0.4,0.1,0.7,0.2,1s0.4,0.5,0.7,0.7s0.9,0.4,1.6,0.7
		c1.2,0.4,2,0.9,2.5,1.4S480,23,480,23.8z"/>
</g>
<g class="st2">
	<path class="st3" d="M107.5,48.9H106l-6.2-9.6h-0.1c0.1,1.1,0.1,2.2,0.1,3.1v6.5h-1.2V37.4h1.5l6.2,9.5h0.1c0-0.1,0-0.6-0.1-1.4
		c0-0.8,0-1.3,0-1.6v-6.6h1.2V48.9z"/>
	<path class="st3" d="M120.5,43.1c0,1.8-0.5,3.3-1.4,4.3c-0.9,1-2.2,1.6-3.9,1.6c-1.7,0-3-0.5-3.9-1.5S110,45,110,43.1
		c0-1.9,0.5-3.3,1.4-4.3c0.9-1,2.2-1.5,3.9-1.5c1.6,0,2.9,0.5,3.8,1.6S120.5,41.3,120.5,43.1z M111.4,43.1c0,1.5,0.3,2.7,1,3.5
		c0.7,0.8,1.6,1.2,2.9,1.2c1.3,0,2.2-0.4,2.9-1.2c0.6-0.8,1-2,1-3.5c0-1.5-0.3-2.7-1-3.5c-0.6-0.8-1.6-1.2-2.9-1.2
		c-1.3,0-2.2,0.4-2.9,1.2C111.8,40.5,111.4,41.6,111.4,43.1z"/>
	<path class="st3" d="M132.1,38.5c-1.3,0-2.2,0.4-3,1.3s-1.1,2-1.1,3.4c0,1.5,0.4,2.6,1.1,3.5c0.7,0.8,1.7,1.2,3,1.2
		c0.8,0,1.7-0.1,2.7-0.4v1.2c-0.8,0.3-1.8,0.4-2.9,0.4c-1.7,0-3-0.5-3.9-1.5s-1.4-2.5-1.4-4.4c0-1.2,0.2-2.2,0.7-3.1
		c0.4-0.9,1.1-1.6,1.9-2c0.8-0.5,1.8-0.7,2.9-0.7c1.2,0,2.2,0.2,3.1,0.7l-0.6,1.1C133.9,38.7,133,38.5,132.1,38.5z"/>
	<path class="st3" d="M147.3,43.1c0,1.8-0.5,3.3-1.4,4.3c-0.9,1-2.2,1.6-3.9,1.6c-1.7,0-3-0.5-3.9-1.5s-1.4-2.5-1.4-4.4
		c0-1.9,0.5-3.3,1.4-4.3c0.9-1,2.2-1.5,3.9-1.5c1.6,0,2.9,0.5,3.8,1.6S147.3,41.3,147.3,43.1z M138.2,43.1c0,1.5,0.3,2.7,1,3.5
		c0.7,0.8,1.6,1.2,2.9,1.2c1.3,0,2.2-0.4,2.9-1.2c0.6-0.8,1-2,1-3.5c0-1.5-0.3-2.7-1-3.5c-0.6-0.8-1.6-1.2-2.9-1.2
		c-1.3,0-2.2,0.4-2.9,1.2C138.5,40.5,138.2,41.6,138.2,43.1z"/>
	<path class="st3" d="M153.3,48.9H152V38.6h-3.6v-1.2h8.6v1.2h-3.6V48.9z"/>
	<path class="st3" d="M158.7,48.9V37.4h1.3v11.4H158.7z"/>
	<path class="st3" d="M172.2,43c0,1.9-0.5,3.3-1.5,4.3s-2.5,1.5-4.4,1.5h-3.2V37.4h3.5c1.8,0,3.2,0.5,4.1,1.5S172.2,41.3,172.2,43z
		 M170.8,43.1c0-1.5-0.4-2.6-1.1-3.4c-0.7-0.8-1.9-1.1-3.3-1.1h-1.9v9.1h1.6c1.6,0,2.8-0.4,3.6-1.2S170.8,44.6,170.8,43.1z"/>
	<path class="st3" d="M174.8,48.9V37.4h1.3v11.4H174.8z"/>
	<path class="st3" d="M186.4,48.9l-1.4-3.6h-4.6l-1.4,3.6h-1.3l4.5-11.5h1.1l4.5,11.5H186.4z M184.6,44l-1.3-3.5
		c-0.2-0.4-0.3-1-0.5-1.6c-0.1,0.5-0.3,1-0.5,1.6l-1.3,3.5H184.6z"/>
	<path class="st3" d="M198.3,48.9h-1.5l-6.2-9.6h-0.1c0.1,1.1,0.1,2.2,0.1,3.1v6.5h-1.2V37.4h1.5l6.2,9.5h0.1c0-0.1,0-0.6-0.1-1.4
		c0-0.8,0-1.3,0-1.6v-6.6h1.2V48.9z"/>
	<path class="st3" d="M211.3,43.1c0,1.8-0.5,3.3-1.4,4.3c-0.9,1-2.2,1.6-3.9,1.6c-1.7,0-3-0.5-3.9-1.5s-1.4-2.5-1.4-4.4
		c0-1.9,0.5-3.3,1.4-4.3c0.9-1,2.2-1.5,3.9-1.5c1.6,0,2.9,0.5,3.8,1.6S211.3,41.3,211.3,43.1z M202.2,43.1c0,1.5,0.3,2.7,1,3.5
		c0.7,0.8,1.6,1.2,2.9,1.2c1.3,0,2.2-0.4,2.9-1.2c0.6-0.8,1-2,1-3.5c0-1.5-0.3-2.7-1-3.5c-0.6-0.8-1.6-1.2-2.9-1.2
		c-1.3,0-2.2,0.4-2.9,1.2C202.6,40.5,202.2,41.6,202.2,43.1z"/>
</g>
</svg>
