<?xml version="1.0" encoding="utf-8"?>
<!-- Generator: Adobe Illustrator 27.1.1, SVG Export Plug-In . SVG Version: 6.00 Build 0)  -->
<svg version="1.1" id="Camada_1" xmlns="http://www.w3.org/2000/svg" xmlns:xlink="http://www.w3.org/1999/xlink" x="0px" y="0px"
	 viewBox="0 0 515.9 64.2" style="enable-background:new 0 0 515.9 64.2;" xml:space="preserve">
<style type="text/css">
	.st0{fill:#72AFA6;}
	.st1{fill:#94CFD3;}
	.st2{enable-background:new    ;}
	.st3{fill:#FFFFFF;}
</style>
<path class="st0" d="M49.6,4.1h438.3c15.5,0,28,12.5,28,28v0c0,15.5-12.5,28-28,28H49.6c-15.5,0-28-12.5-28-28v0
	C21.5,16.6,34.1,4.1,49.6,4.1z"/>
<path class="st1" d="M98.9,10.8h383.3c11.7,0,21.3,9.5,21.3,21.3l0,0c0,11.7-9.5,21.3-21.3,21.3H98.9c-11.7,0-21.3-9.5-21.3-21.3
	l0,0C77.7,20.4,87.2,10.8,98.9,10.8z"/>
<ellipse class="st1" cx="34.7" cy="32.1" rx="34.7" ry="32.1"/>
<g transform="translate(11.798 8.009)">
	<g class="st2">
		<path class="st3" d="M7.5,13L4.6,5.4h0C4.6,6,4.7,6.7,4.7,7.6V13H3.8V4.4h1.5L8,11.5h0l2.7-7.1h1.5V13h-1V7.5c0-0.6,0-1.3,0.1-2.1
			h0L8.3,13H7.5z"/>
		<path class="st3" d="M20,9.8c0,1-0.3,1.9-0.8,2.5s-1.3,0.9-2.2,0.9c-0.6,0-1.1-0.1-1.5-0.4s-0.8-0.7-1-1.2s-0.4-1.1-0.4-1.8
			c0-1,0.3-1.9,0.8-2.4s1.2-0.9,2.2-0.9c0.9,0,1.6,0.3,2.1,0.9S20,8.8,20,9.8z M15.1,9.8c0,0.8,0.2,1.4,0.5,1.9s0.8,0.6,1.4,0.6
			s1.1-0.2,1.5-0.6S19,10.6,19,9.8c0-0.8-0.2-1.4-0.5-1.9S17.7,7.3,17,7.3c-0.6,0-1.1,0.2-1.4,0.6S15.1,9,15.1,9.8z M16.2,5.6
			c0.2-0.2,0.4-0.5,0.6-0.9s0.4-0.6,0.5-0.9h1.2v0.1c-0.2,0.3-0.4,0.6-0.8,0.9s-0.6,0.7-0.9,0.9h-0.7V5.6z"/>
		<path class="st3" d="M26.1,12.1L26.1,12.1c-0.5,0.7-1.2,1-2.1,1c-0.8,0-1.5-0.3-2-0.9s-0.7-1.4-0.7-2.4s0.2-1.9,0.7-2.5
			s1.1-0.9,2-0.9c0.9,0,1.5,0.3,2,0.9h0.1l0-0.5l0-0.5V3.9h1V13h-0.8L26.1,12.1z M24.1,12.3c0.7,0,1.1-0.2,1.4-0.5S26,10.8,26,10
			V9.8c0-0.9-0.2-1.6-0.5-1.9s-0.8-0.6-1.5-0.6c-0.6,0-1,0.2-1.3,0.7S22.3,9,22.3,9.8c0,0.8,0.2,1.4,0.5,1.9S23.5,12.3,24.1,12.3z"
			/>
		<path class="st3" d="M30,6.6v4.2c0,0.5,0.1,0.9,0.4,1.2s0.6,0.4,1.1,0.4c0.7,0,1.2-0.2,1.5-0.6s0.5-1,0.5-1.8V6.6h1V13h-0.8
			l-0.1-0.9h-0.1c-0.2,0.3-0.5,0.6-0.8,0.7s-0.8,0.3-1.2,0.3c-0.8,0-1.4-0.2-1.8-0.6s-0.6-1-0.6-1.8V6.6H30z"/>
		<path class="st3" d="M37.4,13h-1V3.9h1V13z"/>
		<path class="st3" d="M45,9.8c0,1-0.3,1.9-0.8,2.5s-1.3,0.9-2.2,0.9c-0.6,0-1.1-0.1-1.5-0.4s-0.8-0.7-1-1.2s-0.4-1.1-0.4-1.8
			c0-1,0.3-1.9,0.8-2.4s1.2-0.9,2.2-0.9c0.9,0,1.6,0.3,2.1,0.9S45,8.8,45,9.8z M40.1,9.8c0,0.8,0.2,1.4,0.5,1.9s0.8,0.6,1.4,0.6
			s1.1-0.2,1.5-0.6S44,10.6,44,9.8c0-0.8-0.2-1.4-0.5-1.9S42.7,7.3,42,7.3c-0.6,0-1.1,0.2-1.4,0.6S40.1,9,40.1,9.8z"/>
	</g>
	<g class="st2">
		<path class="st3" d="M18.9,31.4c0,4.2-0.7,7.4-2.1,9.4c-1.4,2-3.5,3.1-6.4,3.1c-2.8,0-4.9-1.1-6.3-3.2c-1.4-2.1-2.1-5.2-2.1-9.3
			c0-4.3,0.7-7.4,2.1-9.5c1.4-2,3.5-3,6.4-3c2.8,0,4.9,1.1,6.4,3.2C18.2,24.2,18.9,27.3,18.9,31.4z M7,31.4c0,3,0.3,5.1,0.8,6.4
			c0.5,1.3,1.4,1.9,2.6,1.9c1.2,0,2.1-0.7,2.6-2s0.8-3.4,0.8-6.4c0-3-0.3-5.1-0.8-6.4c-0.5-1.3-1.4-2-2.6-2c-1.2,0-2.1,0.7-2.6,2
			C7.3,26.2,7,28.4,7,31.4z"/>
		<path class="st3" d="M39,38.5h-2.9v5h-5v-5H20.7v-3.6l10.6-15.7h4.7v15.3H39V38.5z M31.1,34.5v-4.1c0-0.7,0-1.7,0.1-3
			c0.1-1.3,0.1-2.1,0.1-2.3h-0.1c-0.4,0.9-0.9,1.8-1.5,2.7l-4.4,6.7H31.1z"/>
	</g>
</g>
<g class="st2">
	<path class="st3" d="M104.2,24.1v4.8h-1.3V17.4h3.1c1.4,0,2.4,0.3,3.1,0.8c0.7,0.5,1,1.3,1,2.4c0,1.5-0.8,2.5-2.3,3.1l3.1,5.1h-1.6
		l-2.8-4.8H104.2z M104.2,22.9h1.8c0.9,0,1.6-0.2,2.1-0.6s0.7-0.9,0.7-1.7c0-0.8-0.2-1.3-0.7-1.6s-1.2-0.5-2.1-0.5h-1.7V22.9z"/>
	<path class="st3" d="M119.1,28.8h-6.4V17.4h6.4v1.2h-5v3.7h4.7v1.2H114v4.2h5V28.8z"/>
	<path class="st3" d="M126.6,22.8h3.9v5.6c-0.6,0.2-1.2,0.3-1.8,0.4s-1.3,0.1-2.2,0.1c-1.7,0-3.1-0.5-4-1.5c-1-1-1.4-2.5-1.4-4.3
		c0-1.2,0.2-2.2,0.7-3.1s1.2-1.6,2.1-2c0.9-0.5,1.9-0.7,3.1-0.7c1.2,0,2.4,0.2,3.4,0.7l-0.5,1.2c-1-0.4-2-0.7-3-0.7
		c-1.4,0-2.5,0.4-3.3,1.2s-1.2,2-1.2,3.4c0,1.5,0.4,2.7,1.1,3.5c0.8,0.8,1.9,1.2,3.3,1.2c0.8,0,1.6-0.1,2.3-0.3V24h-2.6V22.8z"/>
	<path class="st3" d="M133.3,28.8V17.4h1.3v11.4H133.3z"/>
	<path class="st3" d="M147.6,23.1c0,1.8-0.5,3.3-1.4,4.3c-0.9,1-2.2,1.6-3.9,1.6c-1.7,0-3-0.5-3.9-1.5s-1.4-2.5-1.4-4.4
		c0-1.9,0.5-3.3,1.4-4.3c0.9-1,2.2-1.5,3.9-1.5c1.6,0,2.9,0.5,3.8,1.6S147.6,21.2,147.6,23.1z M138.5,23.1c0,1.5,0.3,2.7,1,3.5
		c0.7,0.8,1.6,1.2,2.9,1.2c1.3,0,2.2-0.4,2.9-1.2c0.6-0.8,1-2,1-3.5c0-1.5-0.3-2.7-1-3.5c-0.6-0.8-1.6-1.2-2.9-1.2
		c-1.3,0-2.2,0.4-2.9,1.2C138.9,20.4,138.5,21.6,138.5,23.1z"/>
	<path class="st3" d="M159.1,28.8h-1.5l-6.2-9.6h-0.1c0.1,1.1,0.1,2.2,0.1,3.1v6.5h-1.2V17.4h1.5l6.2,9.5h0.1c0-0.1,0-0.6-0.1-1.4
		c0-0.8,0-1.3,0-1.6v-6.6h1.2V28.8z"/>
	<path class="st3" d="M169.4,28.8l-1.4-3.6h-4.6l-1.4,3.6h-1.3l4.5-11.5h1.1l4.5,11.5H169.4z M167.6,24l-1.3-3.5
		c-0.2-0.4-0.3-1-0.5-1.6c-0.1,0.5-0.3,1-0.5,1.6l-1.3,3.5H167.6z"/>
	<path class="st3" d="M172.4,28.8V17.4h1.3v10.2h5v1.2H172.4z"/>
	<path class="st3" d="M180.7,28.8V17.4h1.3v11.4H180.7z"/>
	<path class="st3" d="M192.1,28.8h-7.9v-1l6.1-9.2h-5.9v-1.2h7.5v1l-6.1,9.2h6.2V28.8z"/>
	<path class="st3" d="M201.4,28.8l-1.4-3.6h-4.6l-1.4,3.6h-1.3l4.5-11.5h1.1l4.5,11.5H201.4z M199.6,24l-1.3-3.5
		c-0.2-0.4-0.3-1-0.5-1.6c-0.1,0.5-0.3,1-0.5,1.6l-1.3,3.5H199.6z"/>
	<path class="st3" d="M209.3,18.4c-1.3,0-2.2,0.4-3,1.3s-1.1,2-1.1,3.4c0,1.5,0.4,2.6,1.1,3.5c0.7,0.8,1.7,1.2,3,1.2
		c0.8,0,1.7-0.1,2.7-0.4v1.2c-0.8,0.3-1.8,0.4-2.9,0.4c-1.7,0-3-0.5-3.9-1.5s-1.4-2.5-1.4-4.4c0-1.2,0.2-2.2,0.7-3.1
		c0.4-0.9,1.1-1.6,1.9-2c0.8-0.5,1.8-0.7,2.9-0.7c1.2,0,2.2,0.2,3.1,0.7l-0.6,1.1C211,18.6,210.1,18.4,209.3,18.4z M210.2,31.1
		c0,0.5-0.2,0.9-0.6,1.2s-1,0.4-1.8,0.4c-0.3,0-0.5,0-0.8-0.1v-0.8c0.2,0,0.5,0.1,0.8,0.1c0.4,0,0.7-0.1,0.9-0.2s0.3-0.3,0.3-0.6
		c0-0.2-0.1-0.4-0.3-0.5c-0.2-0.1-0.6-0.3-1.2-0.3l0.7-1.4h0.9l-0.4,0.9C209.8,29.9,210.2,30.4,210.2,31.1z"/>
	<path class="st3" d="M221.7,28.8l-1.4-3.6h-4.6l-1.4,3.6h-1.3l4.5-11.5h1.1l4.5,11.5H221.7z M219.1,16.5c-0.2,0-0.4,0-0.7-0.1
		c-0.2-0.1-0.4-0.2-0.6-0.3c-0.2-0.1-0.4-0.2-0.6-0.3c-0.2-0.1-0.4-0.1-0.6-0.1c-0.3,0-0.5,0.1-0.6,0.2s-0.2,0.4-0.3,0.7H215
		c0.1-0.6,0.3-1.1,0.6-1.5c0.3-0.4,0.7-0.5,1.2-0.5c0.2,0,0.5,0,0.7,0.1c0.2,0.1,0.4,0.2,0.6,0.3s0.4,0.2,0.6,0.3s0.4,0.1,0.5,0.1
		c0.3,0,0.4-0.1,0.6-0.2s0.2-0.4,0.3-0.7h0.8c-0.1,0.6-0.2,1.1-0.5,1.5C220,16.3,219.6,16.5,219.1,16.5z M219.8,24l-1.3-3.5
		c-0.2-0.4-0.3-1-0.5-1.6c-0.1,0.5-0.3,1-0.5,1.6l-1.3,3.5H219.8z"/>
	<path class="st3" d="M234.5,23.1c0,1.8-0.5,3.3-1.4,4.3c-0.9,1-2.2,1.6-3.9,1.6c-1.7,0-3-0.5-3.9-1.5s-1.4-2.5-1.4-4.4
		c0-1.9,0.5-3.3,1.4-4.3c0.9-1,2.2-1.5,3.9-1.5c1.6,0,2.9,0.5,3.8,1.6S234.5,21.2,234.5,23.1z M225.4,23.1c0,1.5,0.3,2.7,1,3.5
		c0.7,0.8,1.6,1.2,2.9,1.2c1.3,0,2.2-0.4,2.9-1.2c0.6-0.8,1-2,1-3.5c0-1.5-0.3-2.7-1-3.5c-0.6-0.8-1.6-1.2-2.9-1.2
		c-1.3,0-2.2,0.4-2.9,1.2C225.8,20.4,225.4,21.6,225.4,23.1z"/>
	<path class="st3" d="M247.6,28.8h-6.4V17.4h6.4v1.2h-5v3.7h4.7v1.2h-4.7v4.2h5V28.8z"/>
	<path class="st3" d="M255.6,24.1v4.8h-1.3V17.4h3.1c1.4,0,2.4,0.3,3.1,0.8s1,1.3,1,2.4c0,1.5-0.8,2.5-2.3,3.1l3.1,5.1h-1.6
		l-2.8-4.8H255.6z M255.6,22.9h1.8c0.9,0,1.6-0.2,2.1-0.6s0.7-0.9,0.7-1.7c0-0.8-0.2-1.3-0.7-1.6s-1.2-0.5-2.1-0.5h-1.7V22.9z"/>
	<path class="st3" d="M270.5,28.8h-6.4V17.4h6.4v1.2h-5v3.7h4.7v1.2h-4.7v4.2h5V28.8z"/>
	<path class="st3" d="M273.1,28.8V17.4h1.3v10.2h5v1.2H273.1z"/>
	<path class="st3" d="M288.6,28.8l-1.4-3.6h-4.6l-1.4,3.6h-1.3l4.5-11.5h1.1l4.5,11.5H288.6z M286.7,24l-1.3-3.5
		c-0.2-0.4-0.3-1-0.5-1.6c-0.1,0.5-0.3,1-0.5,1.6L283,24H286.7z"/>
	<path class="st3" d="M296.4,18.4c-1.3,0-2.2,0.4-3,1.3s-1.1,2-1.1,3.4c0,1.5,0.4,2.6,1.1,3.5s1.7,1.2,3,1.2c0.8,0,1.7-0.1,2.7-0.4
		v1.2c-0.8,0.3-1.8,0.4-2.9,0.4c-1.7,0-3-0.5-3.9-1.5s-1.4-2.5-1.4-4.4c0-1.2,0.2-2.2,0.7-3.1s1.1-1.6,1.9-2s1.8-0.7,2.9-0.7
		c1.2,0,2.2,0.2,3.1,0.7L299,19C298.1,18.6,297.3,18.4,296.4,18.4z M297.4,31.1c0,0.5-0.2,0.9-0.6,1.2s-1,0.4-1.8,0.4
		c-0.3,0-0.5,0-0.8-0.1v-0.8c0.2,0,0.5,0.1,0.8,0.1c0.4,0,0.7-0.1,0.9-0.2s0.3-0.3,0.3-0.6c0-0.2-0.1-0.4-0.3-0.5s-0.6-0.3-1.2-0.3
		l0.7-1.4h0.9l-0.4,0.9C296.9,29.9,297.4,30.4,297.4,31.1z"/>
	<path class="st3" d="M311.5,23.1c0,1.8-0.5,3.3-1.4,4.3s-2.2,1.6-3.9,1.6c-1.7,0-3-0.5-3.9-1.5s-1.4-2.5-1.4-4.4
		c0-1.9,0.5-3.3,1.4-4.3s2.2-1.5,3.9-1.5c1.6,0,2.9,0.5,3.8,1.6S311.5,21.2,311.5,23.1z M302.4,23.1c0,1.5,0.3,2.7,1,3.5
		s1.6,1.2,2.9,1.2c1.3,0,2.2-0.4,2.9-1.2s1-2,1-3.5c0-1.5-0.3-2.7-1-3.5s-1.6-1.2-2.9-1.2c-1.3,0-2.2,0.4-2.9,1.2
		S302.4,21.6,302.4,23.1z M307.4,16.5c-0.2,0-0.4,0-0.7-0.1s-0.4-0.2-0.6-0.3s-0.4-0.2-0.6-0.3s-0.4-0.1-0.6-0.1
		c-0.3,0-0.5,0.1-0.6,0.2s-0.2,0.4-0.3,0.7h-0.8c0.1-0.6,0.3-1.1,0.6-1.5s0.7-0.5,1.2-0.5c0.2,0,0.5,0,0.7,0.1s0.4,0.2,0.6,0.3
		s0.4,0.2,0.6,0.3s0.4,0.1,0.5,0.1c0.3,0,0.4-0.1,0.6-0.2s0.2-0.4,0.3-0.7h0.8c-0.1,0.6-0.2,1.1-0.5,1.5S307.9,16.5,307.4,16.5z"/>
	<path class="st3" d="M320.4,28.8h-6.4V17.4h6.4v1.2h-5v3.7h4.7v1.2h-4.7v4.2h5V28.8z"/>
	<path class="st3" d="M329.4,25.8c0,1-0.4,1.8-1.1,2.4s-1.7,0.8-3,0.8c-1.4,0-2.4-0.2-3.1-0.5v-1.3c0.5,0.2,1,0.4,1.5,0.5
		s1.1,0.2,1.6,0.2c0.9,0,1.6-0.2,2-0.5s0.7-0.8,0.7-1.4c0-0.4-0.1-0.7-0.2-1s-0.4-0.5-0.8-0.7s-0.9-0.5-1.7-0.7
		c-1.1-0.4-1.8-0.8-2.3-1.4s-0.7-1.2-0.7-2c0-0.9,0.3-1.6,1-2.1s1.5-0.8,2.6-0.8c1.1,0,2.2,0.2,3.1,0.6l-0.4,1.2
		c-0.9-0.4-1.9-0.6-2.8-0.6c-0.7,0-1.3,0.2-1.6,0.5s-0.6,0.7-0.6,1.3c0,0.4,0.1,0.7,0.2,1s0.4,0.5,0.7,0.7s0.9,0.4,1.6,0.7
		c1.2,0.4,2,0.9,2.5,1.4S329.4,25,329.4,25.8z"/>
	<path class="st3" d="M337.2,28.8h-1.3V17.4h6.4v1.2h-5v4.2h4.7v1.2h-4.7V28.8z"/>
	<path class="st3" d="M350.5,28.8h-6.4V17.4h6.4v1.2h-5v3.7h4.7v1.2h-4.7v4.2h5V28.8z"/>
	<path class="st3" d="M362.2,23c0,1.9-0.5,3.3-1.5,4.3s-2.5,1.5-4.4,1.5H353V17.4h3.5c1.8,0,3.2,0.5,4.1,1.5S362.2,21.2,362.2,23z
		 M360.8,23c0-1.5-0.4-2.6-1.1-3.4s-1.9-1.1-3.3-1.1h-1.9v9.1h1.6c1.6,0,2.8-0.4,3.6-1.2S360.8,24.6,360.8,23z"/>
	<path class="st3" d="M371.1,28.8h-6.4V17.4h6.4v1.2h-5v3.7h4.7v1.2H366v4.2h5V28.8z"/>
	<path class="st3" d="M374.9,24.1v4.8h-1.3V17.4h3.1c1.4,0,2.4,0.3,3.1,0.8s1,1.3,1,2.4c0,1.5-0.8,2.5-2.3,3.1l3.1,5.1h-1.6
		l-2.8-4.8H374.9z M374.9,22.9h1.8c0.9,0,1.6-0.2,2.1-0.6s0.7-0.9,0.7-1.7c0-0.8-0.2-1.3-0.7-1.6s-1.2-0.5-2.1-0.5h-1.7V22.9z"/>
	<path class="st3" d="M390.7,28.8l-1.4-3.6h-4.6l-1.4,3.6h-1.3l4.5-11.5h1.1l4.5,11.5H390.7z M388.8,24l-1.3-3.5
		c-0.2-0.4-0.3-1-0.5-1.6c-0.1,0.5-0.3,1-0.5,1.6l-1.3,3.5H388.8z"/>
	<path class="st3" d="M397.1,28.8h-1.3V18.6h-3.6v-1.2h8.6v1.2h-3.6V28.8z"/>
	<path class="st3" d="M402.5,28.8V17.4h1.3v11.4H402.5z"/>
	<path class="st3" d="M413.5,17.4h1.4l-4.1,11.4h-1.3l-4.1-11.4h1.4l2.6,7.4c0.3,0.8,0.5,1.7,0.7,2.5c0.2-0.8,0.4-1.7,0.7-2.5
		L413.5,17.4z"/>
	<path class="st3" d="M423.6,28.8l-1.4-3.6h-4.6l-1.4,3.6h-1.3l4.5-11.5h1.1l4.5,11.5H423.6z M421.8,24l-1.3-3.5
		c-0.2-0.4-0.3-1-0.5-1.6c-0.1,0.5-0.3,1-0.5,1.6l-1.3,3.5H421.8z"/>
	<path class="st3" d="M433,25.8c0,1-0.4,1.8-1.1,2.4s-1.7,0.8-3,0.8c-1.4,0-2.4-0.2-3.1-0.5v-1.3c0.5,0.2,1,0.4,1.5,0.5
		s1.1,0.2,1.6,0.2c0.9,0,1.6-0.2,2-0.5s0.7-0.8,0.7-1.4c0-0.4-0.1-0.7-0.2-1s-0.4-0.5-0.8-0.7s-0.9-0.5-1.7-0.7
		c-1.1-0.4-1.8-0.8-2.3-1.4s-0.7-1.2-0.7-2c0-0.9,0.3-1.6,1-2.1s1.5-0.8,2.6-0.8c1.1,0,2.2,0.2,3.1,0.6l-0.4,1.2
		c-0.9-0.4-1.9-0.6-2.8-0.6c-0.7,0-1.3,0.2-1.6,0.5s-0.6,0.7-0.6,1.3c0,0.4,0.1,0.7,0.2,1s0.4,0.5,0.7,0.7s0.9,0.4,1.6,0.7
		c1.2,0.4,2,0.9,2.5,1.4S433,25,433,25.8z"/>
</g>
<g class="st2">
	<path class="st3" d="M111.7,50.8h-1.5l-6.2-9.6h-0.1c0.1,1.1,0.1,2.2,0.1,3.1v6.5h-1.2V39.4h1.5l6.2,9.5h0.1c0-0.1,0-0.6-0.1-1.4
		c0-0.8,0-1.3,0-1.6v-6.6h1.2V50.8z"/>
	<path class="st3" d="M122.1,50.8l-1.4-3.6h-4.6l-1.4,3.6h-1.3l4.5-11.5h1.1l4.5,11.5H122.1z M120.2,46l-1.3-3.5
		c-0.2-0.4-0.3-1-0.5-1.6c-0.1,0.5-0.3,1-0.5,1.6l-1.3,3.5H120.2z"/>
	<path class="st3" d="M135.6,47.8c0,1-0.4,1.8-1.1,2.4c-0.7,0.6-1.7,0.8-3,0.8c-1.4,0-2.4-0.2-3.1-0.5v-1.3c0.5,0.2,1,0.4,1.5,0.5
		c0.6,0.1,1.1,0.2,1.6,0.2c0.9,0,1.6-0.2,2-0.5c0.4-0.3,0.7-0.8,0.7-1.4c0-0.4-0.1-0.7-0.2-1c-0.2-0.3-0.4-0.5-0.8-0.7
		c-0.4-0.2-0.9-0.5-1.7-0.7c-1.1-0.4-1.8-0.8-2.3-1.4c-0.5-0.5-0.7-1.2-0.7-2c0-0.9,0.3-1.6,1-2.1c0.7-0.5,1.5-0.8,2.6-0.8
		c1.1,0,2.2,0.2,3.1,0.6l-0.4,1.2c-0.9-0.4-1.9-0.6-2.8-0.6c-0.7,0-1.3,0.2-1.6,0.5c-0.4,0.3-0.6,0.7-0.6,1.3c0,0.4,0.1,0.7,0.2,1
		c0.1,0.3,0.4,0.5,0.7,0.7c0.3,0.2,0.9,0.4,1.6,0.7c1.2,0.4,2,0.9,2.5,1.4C135.4,46.3,135.6,47,135.6,47.8z"/>
	<path class="st3" d="M145.1,50.8l-1.4-3.6h-4.6l-1.4,3.6h-1.3l4.5-11.5h1.1l4.5,11.5H145.1z M143.3,46l-1.3-3.5
		c-0.2-0.4-0.3-1-0.5-1.6c-0.1,0.5-0.3,1-0.5,1.6l-1.3,3.5H143.3z"/>
	<path class="st3" d="M156.7,39.4v7.4c0,1.3-0.4,2.3-1.2,3.1c-0.8,0.7-1.9,1.1-3.2,1.1s-2.4-0.4-3.2-1.1c-0.8-0.8-1.1-1.8-1.1-3.1
		v-7.4h1.3v7.5c0,1,0.3,1.7,0.8,2.2c0.5,0.5,1.3,0.8,2.3,0.8c1,0,1.7-0.3,2.2-0.8c0.5-0.5,0.8-1.2,0.8-2.2v-7.4H156.7z M151.2,38.3
		c0.2-0.3,0.5-0.7,0.8-1.2s0.5-0.9,0.7-1.2h1.6v0.2c-0.2,0.3-0.6,0.8-1,1.2s-0.8,0.9-1.2,1.1h-0.9V38.3z"/>
	<path class="st3" d="M168.8,45c0,1.9-0.5,3.3-1.5,4.3s-2.5,1.5-4.4,1.5h-3.2V39.4h3.5c1.8,0,3.2,0.5,4.1,1.5S168.8,43.2,168.8,45z
		 M167.4,45c0-1.5-0.4-2.6-1.1-3.4c-0.7-0.8-1.9-1.1-3.3-1.1H161v9.1h1.6c1.6,0,2.8-0.4,3.6-1.2S167.4,46.6,167.4,45z"/>
	<path class="st3" d="M177.8,50.8h-6.4V39.4h6.4v1.2h-5v3.7h4.7v1.2h-4.7v4.2h5V50.8z"/>
</g>
</svg>
