<?xml version="1.0" encoding="utf-8"?>
<!-- Generator: Adobe Illustrator 27.1.1, SVG Export Plug-In . SVG Version: 6.00 Build 0)  -->
<svg version="1.1" id="Camada_1" xmlns="http://www.w3.org/2000/svg" xmlns:xlink="http://www.w3.org/1999/xlink" x="0px" y="0px"
	 viewBox="0 0 515.9 64.2" style="enable-background:new 0 0 515.9 64.2;" xml:space="preserve">
<style type="text/css">
	.st0{fill:#105DA6;}
	.st1{fill:#5995C6;}
	.st2{enable-background:new    ;}
	.st3{fill:#FFFFFF;}
</style>
<path class="st0" d="M49.6,4.1h438.3c15.5,0,28,12.5,28,28v0c0,15.5-12.5,28-28,28H49.6c-15.5,0-28-12.5-28-28v0
	C21.5,16.6,34.1,4.1,49.6,4.1z"/>
<path class="st1" d="M96.9,10.8h385.3c11.7,0,21.3,9.5,21.3,21.3l0,0c0,11.7-9.5,21.3-21.3,21.3H96.9c-11.7,0-21.3-9.5-21.3-21.3
	l0,0C75.7,20.4,85.2,10.8,96.9,10.8z"/>
<ellipse class="st1" cx="34.7" cy="32.1" rx="34.7" ry="32.1"/>
<g transform="translate(10.798 8.008)">
	<g class="st2">
		<path class="st3" d="M6.5,13L3.6,5.4h0C3.6,6,3.7,6.7,3.7,7.6V13H2.8V4.4h1.5L7,11.5h0l2.7-7.1h1.5V13h-1V7.5c0-0.6,0-1.3,0.1-2.1
			h0L7.3,13H6.5z"/>
		<path class="st3" d="M19,9.8c0,1-0.3,1.9-0.8,2.5s-1.3,0.9-2.2,0.9c-0.6,0-1.1-0.1-1.5-0.4s-0.8-0.7-1-1.2s-0.4-1.1-0.4-1.8
			c0-1,0.3-1.9,0.8-2.4s1.2-0.9,2.2-0.9c0.9,0,1.6,0.3,2.1,0.9S19,8.8,19,9.8z M14.1,9.8c0,0.8,0.2,1.4,0.5,1.9s0.8,0.6,1.4,0.6
			s1.1-0.2,1.5-0.6S18,10.6,18,9.8c0-0.8-0.2-1.4-0.5-1.9c-0.3-0.4-0.8-0.6-1.5-0.6c-0.6,0-1.1,0.2-1.4,0.6
			C14.3,8.3,14.1,9,14.1,9.8z M15.2,5.6c0.2-0.2,0.4-0.5,0.6-0.9s0.4-0.6,0.5-0.9h1.2v0.1c-0.2,0.3-0.4,0.6-0.8,0.9
			s-0.6,0.7-0.9,0.9h-0.7V5.6z"/>
		<path class="st3" d="M25.1,12.1L25.1,12.1c-0.5,0.7-1.2,1-2.1,1c-0.8,0-1.5-0.3-2-0.9s-0.7-1.4-0.7-2.4s0.2-1.9,0.7-2.5
			s1.1-0.9,2-0.9c0.9,0,1.5,0.3,2,0.9h0.1l0-0.5l0-0.5V3.9h1V13h-0.8L25.1,12.1z M23.1,12.3c0.7,0,1.1-0.2,1.4-0.5S25,10.8,25,10
			V9.8c0-0.9-0.2-1.6-0.5-1.9c-0.3-0.4-0.8-0.6-1.5-0.6c-0.6,0-1,0.2-1.3,0.7c-0.3,0.4-0.5,1.1-0.5,1.9c0,0.8,0.2,1.4,0.5,1.9
			S22.5,12.3,23.1,12.3z"/>
		<path class="st3" d="M29,6.6v4.2c0,0.5,0.1,0.9,0.4,1.2s0.6,0.4,1.1,0.4c0.7,0,1.2-0.2,1.5-0.6s0.5-1,0.5-1.8V6.6h1V13h-0.8
			l-0.1-0.9h-0.1c-0.2,0.3-0.5,0.6-0.8,0.7s-0.8,0.3-1.2,0.3c-0.8,0-1.4-0.2-1.8-0.6s-0.6-1-0.6-1.8V6.6H29z"/>
		<path class="st3" d="M36.4,13h-1V3.9h1V13z"/>
		<path class="st3" d="M44,9.8c0,1-0.3,1.9-0.8,2.5s-1.3,0.9-2.2,0.9c-0.6,0-1.1-0.1-1.5-0.4s-0.8-0.7-1-1.2s-0.4-1.1-0.4-1.8
			c0-1,0.3-1.9,0.8-2.4s1.2-0.9,2.2-0.9c0.9,0,1.6,0.3,2.1,0.9S44,8.8,44,9.8z M39.1,9.8c0,0.8,0.2,1.4,0.5,1.9s0.8,0.6,1.4,0.6
			s1.1-0.2,1.5-0.6S43,10.6,43,9.8c0-0.8-0.2-1.4-0.5-1.9c-0.3-0.4-0.8-0.6-1.5-0.6c-0.6,0-1.1,0.2-1.4,0.6
			C39.3,8.3,39.1,9,39.1,9.8z"/>
	</g>
	<g class="st2">
		<path class="st3" d="M19.9,31.4c0,4.2-0.7,7.4-2.1,9.4c-1.4,2-3.5,3.1-6.4,3.1c-2.8,0-4.9-1.1-6.3-3.2c-1.4-2.1-2.1-5.2-2.1-9.3
			c0-4.3,0.7-7.4,2.1-9.5c1.4-2,3.5-3,6.4-3c2.8,0,4.9,1.1,6.4,3.2C19.2,24.2,19.9,27.3,19.9,31.4z M8,31.4c0,3,0.3,5.1,0.8,6.4
			c0.5,1.3,1.4,1.9,2.6,1.9c1.2,0,2.1-0.7,2.6-2s0.8-3.4,0.8-6.4c0-3-0.3-5.1-0.8-6.4c-0.5-1.3-1.4-2-2.6-2c-1.2,0-2.1,0.7-2.6,2
			C8.3,26.2,8,28.4,8,31.4z"/>
		<path class="st3" d="M38.5,24.7c0,1.5-0.5,2.8-1.4,3.9c-0.9,1.1-2.2,1.8-3.9,2.2v0.1c2,0.2,3.4,0.8,4.4,1.8c1,0.9,1.5,2.2,1.5,3.8
			c0,2.3-0.8,4.2-2.5,5.5c-1.7,1.3-4.1,2-7.3,2c-2.6,0-5-0.4-7-1.3v-4.4c0.9,0.5,2,0.9,3.1,1.2s2.2,0.4,3.4,0.4
			c1.7,0,2.9-0.3,3.8-0.9c0.8-0.6,1.2-1.5,1.2-2.8c0-1.1-0.5-1.9-1.4-2.4S30,33,28,33h-1.8v-3.9H28c1.9,0,3.3-0.2,4.1-0.7
			c0.9-0.5,1.3-1.3,1.3-2.5c0-1.8-1.2-2.8-3.5-2.8c-0.8,0-1.6,0.1-2.4,0.4c-0.8,0.3-1.7,0.7-2.7,1.4l-2.4-3.5
			c2.2-1.6,4.9-2.4,7.9-2.4c2.5,0,4.5,0.5,6,1.5C37.8,21.4,38.5,22.8,38.5,24.7z"/>
	</g>
</g>
<g class="st2">
	<path class="st3" d="M100,38l-1.4-3.6H94L92.6,38h-1.3l4.5-11.5h1.1l4.5,11.5H100z M98.2,33.2l-1.3-3.5c-0.2-0.4-0.3-1-0.5-1.6
		c-0.1,0.5-0.3,1-0.5,1.6l-1.3,3.5H98.2z"/>
	<path class="st3" d="M111.9,38h-1.5l-6.2-9.6H104c0.1,1.1,0.1,2.2,0.1,3.1V38h-1.2V26.6h1.5l6.2,9.5h0.1c0-0.1,0-0.6-0.1-1.4
		c0-0.8,0-1.3,0-1.6v-6.6h1.2V38z"/>
	<path class="st3" d="M122.2,38l-1.4-3.6h-4.6l-1.4,3.6h-1.3l4.5-11.5h1.1l4.5,11.5H122.2z M120.4,33.2l-1.3-3.5
		c-0.2-0.4-0.3-1-0.5-1.6c-0.1,0.5-0.3,1-0.5,1.6l-1.3,3.5H120.4z M117.5,25.5c0.2-0.3,0.5-0.7,0.8-1.2s0.5-0.9,0.7-1.2h1.6v0.2
		c-0.2,0.3-0.6,0.8-1,1.2s-0.8,0.9-1.2,1.1h-0.9V25.5z"/>
	<path class="st3" d="M125.1,38V26.6h1.3v10.2h5V38H125.1z"/>
	<path class="st3" d="M133.4,38V26.6h1.3V38H133.4z"/>
	<path class="st3" d="M144.3,35c0,1-0.4,1.8-1.1,2.4c-0.7,0.6-1.7,0.8-3,0.8c-1.4,0-2.4-0.2-3.1-0.5v-1.3c0.5,0.2,1,0.4,1.5,0.5
		c0.6,0.1,1.1,0.2,1.6,0.2c0.9,0,1.6-0.2,2-0.5c0.4-0.3,0.7-0.8,0.7-1.4c0-0.4-0.1-0.7-0.2-1c-0.2-0.3-0.4-0.5-0.8-0.7
		c-0.4-0.2-0.9-0.5-1.7-0.7c-1.1-0.4-1.8-0.8-2.3-1.4c-0.5-0.5-0.7-1.2-0.7-2c0-0.9,0.3-1.6,1-2.1c0.7-0.5,1.5-0.8,2.6-0.8
		c1.1,0,2.2,0.2,3.1,0.6l-0.4,1.2c-0.9-0.4-1.9-0.6-2.8-0.6c-0.7,0-1.3,0.2-1.6,0.5c-0.4,0.3-0.6,0.7-0.6,1.3c0,0.4,0.1,0.7,0.2,1
		c0.1,0.3,0.4,0.5,0.7,0.7c0.3,0.2,0.9,0.4,1.6,0.7c1.2,0.4,2,0.9,2.5,1.4C144.1,33.6,144.3,34.2,144.3,35z"/>
	<path class="st3" d="M153,38h-6.4V26.6h6.4v1.2h-5v3.7h4.7v1.2H148v4.2h5V38z"/>
	<path class="st3" d="M168.9,32.2c0,1.9-0.5,3.3-1.5,4.3s-2.5,1.5-4.4,1.5h-3.2V26.6h3.5c1.8,0,3.2,0.5,4.1,1.5
		S168.9,30.5,168.9,32.2z M167.4,32.3c0-1.5-0.4-2.6-1.1-3.4c-0.7-0.8-1.9-1.1-3.3-1.1h-1.9v9.1h1.6c1.6,0,2.8-0.4,3.6-1.2
		S167.4,33.8,167.4,32.3z"/>
	<path class="st3" d="M177.8,38h-6.4V26.6h6.4v1.2h-5v3.7h4.7v1.2h-4.7v4.2h5V38z"/>
	<path class="st3" d="M191.7,30c0,1.2-0.4,2-1.2,2.7s-1.9,0.9-3.4,0.9h-1.3V38h-1.3V26.6h3C190.3,26.6,191.7,27.7,191.7,30z
		 M185.8,32.4h1.2c1.2,0,2-0.2,2.6-0.6c0.5-0.4,0.8-1,0.8-1.8c0-0.8-0.2-1.3-0.7-1.7c-0.5-0.4-1.3-0.6-2.3-0.6h-1.5V32.4z"/>
	<path class="st3" d="M204,32.3c0,1.8-0.5,3.3-1.4,4.3c-0.9,1-2.2,1.6-3.9,1.6c-1.7,0-3-0.5-3.9-1.5s-1.4-2.5-1.4-4.4
		c0-1.9,0.5-3.3,1.4-4.3c0.9-1,2.2-1.5,3.9-1.5c1.6,0,2.9,0.5,3.8,1.6S204,30.5,204,32.3z M194.9,32.3c0,1.5,0.3,2.7,1,3.5
		c0.7,0.8,1.6,1.2,2.9,1.2c1.3,0,2.2-0.4,2.9-1.2c0.6-0.8,1-2,1-3.5c0-1.5-0.3-2.7-1-3.5c-0.6-0.8-1.6-1.2-2.9-1.2
		c-1.3,0-2.2,0.4-2.9,1.2C195.2,29.6,194.9,30.8,194.9,32.3z"/>
	<path class="st3" d="M206.5,38V26.6h1.3v10.2h5V38H206.5z"/>
	<path class="st3" d="M214.7,25.5c0.2-0.3,0.5-0.7,0.8-1.2s0.5-0.9,0.7-1.2h1.6v0.2c-0.2,0.3-0.6,0.8-1,1.2s-0.8,0.9-1.2,1.1h-0.9
		V25.5z M214.9,38V26.6h1.3V38H214.9z"/>
	<path class="st3" d="M222.8,38h-1.3V27.8h-3.6v-1.2h8.6v1.2h-3.6V38z"/>
	<path class="st3" d="M228.2,38V26.6h1.3V38H228.2z"/>
	<path class="st3" d="M237.5,27.7c-1.3,0-2.2,0.4-3,1.3s-1.1,2-1.1,3.4c0,1.5,0.4,2.6,1.1,3.5c0.7,0.8,1.7,1.2,3,1.2
		c0.8,0,1.7-0.1,2.7-0.4v1.2c-0.8,0.3-1.8,0.4-2.9,0.4c-1.7,0-3-0.5-3.9-1.5s-1.4-2.5-1.4-4.4c0-1.2,0.2-2.2,0.7-3.1
		c0.4-0.9,1.1-1.6,1.9-2c0.8-0.5,1.8-0.7,2.9-0.7c1.2,0,2.2,0.2,3.1,0.7l-0.6,1.1C239.2,27.9,238.4,27.7,237.5,27.7z"/>
	<path class="st3" d="M249.9,38l-1.4-3.6h-4.6l-1.4,3.6h-1.3l4.5-11.5h1.1l4.5,11.5H249.9z M248.1,33.2l-1.3-3.5
		c-0.2-0.4-0.3-1-0.5-1.6c-0.1,0.5-0.3,1-0.5,1.6l-1.3,3.5H248.1z"/>
	<path class="st3" d="M259.3,35c0,1-0.4,1.8-1.1,2.4c-0.7,0.6-1.7,0.8-3,0.8c-1.4,0-2.4-0.2-3.1-0.5v-1.3c0.5,0.2,1,0.4,1.5,0.5
		c0.6,0.1,1.1,0.2,1.6,0.2c0.9,0,1.6-0.2,2-0.5c0.4-0.3,0.7-0.8,0.7-1.4c0-0.4-0.1-0.7-0.2-1c-0.2-0.3-0.4-0.5-0.8-0.7
		c-0.4-0.2-0.9-0.5-1.7-0.7c-1.1-0.4-1.8-0.8-2.3-1.4c-0.5-0.5-0.7-1.2-0.7-2c0-0.9,0.3-1.6,1-2.1c0.7-0.5,1.5-0.8,2.6-0.8
		c1.1,0,2.2,0.2,3.1,0.6l-0.4,1.2c-0.9-0.4-1.9-0.6-2.8-0.6c-0.7,0-1.3,0.2-1.6,0.5c-0.4,0.3-0.6,0.7-0.6,1.3c0,0.4,0.1,0.7,0.2,1
		c0.1,0.3,0.4,0.5,0.7,0.7c0.3,0.2,0.9,0.4,1.6,0.7c1.2,0.4,2,0.9,2.5,1.4C259.1,33.6,259.3,34.2,259.3,35z"/>
	<path class="st3" d="M273,30c0,1.2-0.4,2-1.2,2.7s-1.9,0.9-3.4,0.9h-1.3V38h-1.3V26.6h3C271.6,26.6,273,27.7,273,30z M267.1,32.4
		h1.2c1.2,0,2-0.2,2.6-0.6s0.8-1,0.8-1.8c0-0.8-0.2-1.3-0.7-1.7s-1.3-0.6-2.3-0.6h-1.5V32.4z"/>
	<path class="st3" d="M284,26.6V34c0,1.3-0.4,2.3-1.2,3.1s-1.9,1.1-3.2,1.1s-2.4-0.4-3.2-1.1s-1.1-1.8-1.1-3.1v-7.4h1.3v7.5
		c0,1,0.3,1.7,0.8,2.2s1.3,0.8,2.3,0.8c1,0,1.7-0.3,2.2-0.8s0.8-1.2,0.8-2.2v-7.4H284z M278.5,25.5c0.2-0.3,0.5-0.7,0.8-1.2
		s0.5-0.9,0.7-1.2h1.6v0.2c-0.2,0.3-0.6,0.8-1,1.2s-0.8,0.9-1.2,1.1h-0.9V25.5z"/>
	<path class="st3" d="M287.1,26.6h3.2c1.5,0,2.6,0.2,3.3,0.7s1,1.2,1,2.1c0,0.7-0.2,1.2-0.6,1.7s-0.9,0.7-1.7,0.9v0.1
		c1.7,0.3,2.6,1.2,2.6,2.7c0,1-0.3,1.8-1,2.4S292.3,38,291,38h-4V26.6z M288.4,31.5h2.2c0.9,0,1.6-0.1,2-0.4s0.6-0.8,0.6-1.5
		c0-0.6-0.2-1.1-0.7-1.4s-1.2-0.4-2.2-0.4h-2V31.5z M288.4,32.6v4.3h2.4c0.9,0,1.6-0.2,2.1-0.5s0.7-0.9,0.7-1.7
		c0-0.7-0.2-1.2-0.7-1.6s-1.2-0.5-2.2-0.5H288.4z"/>
	<path class="st3" d="M297.4,38V26.6h1.3v10.2h5V38H297.4z"/>
	<path class="st3" d="M305.7,38V26.6h1.3V38H305.7z"/>
	<path class="st3" d="M315.1,27.7c-1.3,0-2.2,0.4-3,1.3s-1.1,2-1.1,3.4c0,1.5,0.4,2.6,1.1,3.5s1.7,1.2,3,1.2c0.8,0,1.7-0.1,2.7-0.4
		v1.2c-0.8,0.3-1.8,0.4-2.9,0.4c-1.7,0-3-0.5-3.9-1.5s-1.4-2.5-1.4-4.4c0-1.2,0.2-2.2,0.7-3.1s1.1-1.6,1.9-2s1.8-0.7,2.9-0.7
		c1.2,0,2.2,0.2,3.1,0.7l-0.6,1.1C316.8,27.9,316,27.7,315.1,27.7z"/>
	<path class="st3" d="M327.5,38l-1.4-3.6h-4.6l-1.4,3.6h-1.3l4.5-11.5h1.1l4.5,11.5H327.5z M325.6,33.2l-1.3-3.5
		c-0.2-0.4-0.3-1-0.5-1.6c-0.1,0.5-0.3,1-0.5,1.6l-1.3,3.5H325.6z"/>
	<path class="st3" d="M336.9,35c0,1-0.4,1.8-1.1,2.4s-1.7,0.8-3,0.8c-1.4,0-2.4-0.2-3.1-0.5v-1.3c0.5,0.2,1,0.4,1.5,0.5
		s1.1,0.2,1.6,0.2c0.9,0,1.6-0.2,2-0.5s0.7-0.8,0.7-1.4c0-0.4-0.1-0.7-0.2-1s-0.4-0.5-0.8-0.7s-0.9-0.5-1.7-0.7
		c-1.1-0.4-1.8-0.8-2.3-1.4s-0.7-1.2-0.7-2c0-0.9,0.3-1.6,1-2.1s1.5-0.8,2.6-0.8c1.1,0,2.2,0.2,3.1,0.6l-0.4,1.2
		c-0.9-0.4-1.9-0.6-2.8-0.6c-0.7,0-1.3,0.2-1.6,0.5s-0.6,0.7-0.6,1.3c0,0.4,0.1,0.7,0.2,1s0.4,0.5,0.7,0.7s0.9,0.4,1.6,0.7
		c1.2,0.4,2,0.9,2.5,1.4S336.9,34.2,336.9,35z"/>
</g>
</svg>
