<?xml version="1.0" encoding="utf-8"?>
<!-- Generator: Adobe Illustrator 27.1.1, SVG Export Plug-In . SVG Version: 6.00 Build 0)  -->
<svg version="1.1" id="Camada_1" xmlns="http://www.w3.org/2000/svg" xmlns:xlink="http://www.w3.org/1999/xlink" x="0px" y="0px"
	 viewBox="0 0 515.9 64.2" style="enable-background:new 0 0 515.9 64.2;" xml:space="preserve">
<style type="text/css">
	.st0{fill:#1C4A5F;}
	.st1{fill:#528CA0;}
	.st2{enable-background:new    ;}
	.st3{fill:#FFFFFF;}
</style>
<path class="st0" d="M49.6,4.1h438.3c15.5,0,28,12.5,28,28v0c0,15.5-12.5,28-28,28H49.6c-15.5,0-28-12.5-28-28v0
	C21.5,16.6,34.1,4.1,49.6,4.1z"/>
<path class="st1" d="M96.9,10.8h380.3c11.7,0,21.3,9.5,21.3,21.3l0,0c0,11.7-9.5,21.3-21.3,21.3H96.9c-11.7,0-21.3-9.5-21.3-21.3
	l0,0C75.7,20.4,85.2,10.8,96.9,10.8z"/>
<ellipse class="st1" cx="34.7" cy="32.1" rx="34.7" ry="32.1"/>
<g transform="translate(4.798 8.009)">
	<g class="st2">
		<path class="st3" d="M13,13l-2.9-7.6h0c0.1,0.6,0.1,1.3,0.1,2.1V13H9.3V4.4h1.5l2.7,7.1h0l2.7-7.1h1.5V13h-1V7.5
			c0-0.6,0-1.3,0.1-2.1h0L13.8,13H13z"/>
		<path class="st3" d="M25.5,9.8c0,1-0.3,1.9-0.8,2.5s-1.3,0.9-2.2,0.9c-0.6,0-1.1-0.1-1.5-0.4s-0.8-0.7-1-1.2s-0.4-1.1-0.4-1.8
			c0-1,0.3-1.9,0.8-2.4s1.2-0.9,2.2-0.9c0.9,0,1.6,0.3,2.1,0.9S25.5,8.8,25.5,9.8z M20.6,9.8c0,0.8,0.2,1.4,0.5,1.9s0.8,0.6,1.4,0.6
			s1.1-0.2,1.5-0.6s0.5-1.1,0.5-1.9c0-0.8-0.2-1.4-0.5-1.9s-0.8-0.6-1.5-0.6c-0.6,0-1.1,0.2-1.4,0.6S20.6,9,20.6,9.8z M21.7,5.6
			c0.2-0.2,0.4-0.5,0.6-0.9s0.4-0.6,0.5-0.9H24v0.1c-0.2,0.3-0.4,0.6-0.8,0.9s-0.6,0.7-0.9,0.9h-0.7V5.6z"/>
		<path class="st3" d="M31.6,12.1L31.6,12.1c-0.5,0.7-1.2,1-2.1,1c-0.8,0-1.5-0.3-2-0.9s-0.7-1.4-0.7-2.4s0.2-1.9,0.7-2.5
			s1.1-0.9,2-0.9c0.9,0,1.5,0.3,2,0.9h0.1l0-0.5l0-0.5V3.9h1V13h-0.8L31.6,12.1z M29.6,12.3c0.7,0,1.1-0.2,1.4-0.5s0.4-0.9,0.4-1.7
			V9.8c0-0.9-0.2-1.6-0.5-1.9s-0.8-0.6-1.5-0.6c-0.6,0-1,0.2-1.3,0.7S27.8,9,27.8,9.8c0,0.8,0.2,1.4,0.5,1.9S29,12.3,29.6,12.3z"/>
		<path class="st3" d="M35.5,6.6v4.2c0,0.5,0.1,0.9,0.4,1.2s0.6,0.4,1.1,0.4c0.7,0,1.2-0.2,1.5-0.6s0.5-1,0.5-1.8V6.6h1V13H39
			l-0.1-0.9h-0.1c-0.2,0.3-0.5,0.6-0.8,0.7s-0.8,0.3-1.2,0.3c-0.8,0-1.4-0.2-1.8-0.6s-0.6-1-0.6-1.8V6.6H35.5z"/>
		<path class="st3" d="M42.9,13h-1V3.9h1V13z"/>
		<path class="st3" d="M50.5,9.8c0,1-0.3,1.9-0.8,2.5s-1.3,0.9-2.2,0.9c-0.6,0-1.1-0.1-1.5-0.4s-0.8-0.7-1-1.2s-0.4-1.1-0.4-1.8
			c0-1,0.3-1.9,0.8-2.4s1.2-0.9,2.2-0.9c0.9,0,1.6,0.3,2.1,0.9S50.5,8.8,50.5,9.8z M45.6,9.8c0,0.8,0.2,1.4,0.5,1.9s0.8,0.6,1.4,0.6
			s1.1-0.2,1.5-0.6s0.5-1.1,0.5-1.9c0-0.8-0.2-1.4-0.5-1.9s-0.8-0.6-1.5-0.6c-0.6,0-1.1,0.2-1.4,0.6S45.6,9,45.6,9.8z"/>
	</g>
	<g class="st2">
		<path class="st3" d="M25.9,31.4c0,4.2-0.7,7.4-2.1,9.4c-1.4,2-3.5,3.1-6.4,3.1c-2.8,0-4.9-1.1-6.3-3.2c-1.4-2.1-2.1-5.2-2.1-9.3
			c0-4.3,0.7-7.4,2.1-9.5c1.4-2,3.5-3,6.4-3c2.8,0,4.9,1.1,6.4,3.2C25.2,24.2,25.9,27.3,25.9,31.4z M14,31.4c0,3,0.3,5.1,0.8,6.4
			c0.5,1.3,1.4,1.9,2.6,1.9c1.2,0,2.1-0.7,2.6-2s0.8-3.4,0.8-6.4c0-3-0.3-5.1-0.8-6.4c-0.5-1.3-1.4-2-2.6-2c-1.2,0-2.1,0.7-2.6,2
			C14.3,26.2,14,28.4,14,31.4z"/>
		<path class="st3" d="M37.3,28c2.3,0,4.2,0.7,5.6,2c1.4,1.3,2.1,3.1,2.1,5.4c0,2.7-0.8,4.8-2.5,6.3c-1.7,1.5-4.1,2.2-7.2,2.2
			c-2.7,0-4.9-0.4-6.5-1.3v-4.4c0.9,0.5,1.9,0.8,3.1,1.1c1.2,0.3,2.3,0.4,3.3,0.4c3.1,0,4.7-1.3,4.7-3.9c0-2.4-1.6-3.7-4.9-3.7
			c-0.6,0-1.2,0.1-1.9,0.2c-0.7,0.1-1.3,0.2-1.7,0.4l-2-1.1l0.9-12.4h13.2v4.3h-8.7l-0.4,4.8l0.6-0.1C35.5,28.1,36.3,28,37.3,28z"/>
	</g>
</g>
<g class="st2">
	<path class="st3" d="M93.2,38h-1.3V26.6h6.4v1.2h-5V32h4.7v1.2h-4.7V38z"/>
	<path class="st3" d="M100.1,38V26.6h1.3V38H100.1z"/>
	<path class="st3" d="M113.5,38h-1.5l-6.2-9.6h-0.1c0.1,1.1,0.1,2.2,0.1,3.1V38h-1.2V26.6h1.5l6.2,9.5h0.1c0-0.1,0-0.6-0.1-1.4
		c0-0.8,0-1.3,0-1.6v-6.6h1.2V38z"/>
	<path class="st3" d="M123.8,38l-1.4-3.6h-4.6l-1.4,3.6H115l4.5-11.5h1.1l4.5,11.5H123.8z M121.9,33.2l-1.3-3.5
		c-0.2-0.4-0.3-1-0.5-1.6c-0.1,0.5-0.3,1-0.5,1.6l-1.3,3.5H121.9z"/>
	<path class="st3" d="M135.7,38h-1.5l-6.2-9.6h-0.1c0.1,1.1,0.1,2.2,0.1,3.1V38h-1.2V26.6h1.5l6.2,9.5h0.1c0-0.1,0-0.6-0.1-1.4
		c0-0.8,0-1.3,0-1.6v-6.6h1.2V38z"/>
	<path class="st3" d="M143.7,27.7c-1.3,0-2.2,0.4-3,1.3s-1.1,2-1.1,3.4c0,1.5,0.4,2.6,1.1,3.5c0.7,0.8,1.7,1.2,3,1.2
		c0.8,0,1.7-0.1,2.7-0.4v1.2c-0.8,0.3-1.8,0.4-2.9,0.4c-1.7,0-3-0.5-3.9-1.5s-1.4-2.5-1.4-4.4c0-1.2,0.2-2.2,0.7-3.1
		c0.4-0.9,1.1-1.6,1.9-2c0.8-0.5,1.8-0.7,2.9-0.7c1.2,0,2.2,0.2,3.1,0.7l-0.6,1.1C145.4,27.9,144.5,27.7,143.7,27.7z"/>
	<path class="st3" d="M148.9,38V26.6h1.3V38H148.9z"/>
	<path class="st3" d="M160.5,38l-1.4-3.6h-4.6l-1.4,3.6h-1.3l4.5-11.5h1.1l4.5,11.5H160.5z M158.7,33.2l-1.3-3.5
		c-0.2-0.4-0.3-1-0.5-1.6c-0.1,0.5-0.3,1-0.5,1.6l-1.3,3.5H158.7z"/>
	<path class="st3" d="M168.5,38l-3.9-10.1h-0.1c0.1,0.8,0.1,1.8,0.1,2.9V38h-1.2V26.6h2l3.6,9.4h0.1l3.6-9.4h2V38h-1.3v-7.4
		c0-0.8,0-1.8,0.1-2.8h-0.1L169.6,38H168.5z"/>
	<path class="st3" d="M184.3,38h-6.4V26.6h6.4v1.2h-5v3.7h4.7v1.2h-4.7v4.2h5V38z"/>
	<path class="st3" d="M195.7,38h-1.5l-6.2-9.6h-0.1c0.1,1.1,0.1,2.2,0.1,3.1V38h-1.2V26.6h1.5l6.2,9.5h0.1c0-0.1,0-0.6-0.1-1.4
		c0-0.8,0-1.3,0-1.6v-6.6h1.2V38z"/>
	<path class="st3" d="M202.4,38h-1.3V27.8h-3.6v-1.2h8.6v1.2h-3.6V38z"/>
	<path class="st3" d="M217.6,32.3c0,1.8-0.5,3.3-1.4,4.3c-0.9,1-2.2,1.6-3.9,1.6c-1.7,0-3-0.5-3.9-1.5s-1.4-2.5-1.4-4.4
		c0-1.9,0.5-3.3,1.4-4.3c0.9-1,2.2-1.5,3.9-1.5c1.6,0,2.9,0.5,3.8,1.6S217.6,30.5,217.6,32.3z M208.5,32.3c0,1.5,0.3,2.7,1,3.5
		c0.7,0.8,1.6,1.2,2.9,1.2c1.3,0,2.2-0.4,2.9-1.2c0.6-0.8,1-2,1-3.5c0-1.5-0.3-2.7-1-3.5c-0.6-0.8-1.6-1.2-2.9-1.2
		c-1.3,0-2.2,0.4-2.9,1.2C208.9,29.6,208.5,30.8,208.5,32.3z"/>
	<path class="st3" d="M230.7,38h-6.4V26.6h6.4v1.2h-5v3.7h4.7v1.2h-4.7v4.2h5V38z"/>
	<path class="st3" d="M238.3,38l-3.9-10.1h-0.1c0.1,0.8,0.1,1.8,0.1,2.9V38h-1.2V26.6h2l3.6,9.4h0.1l3.6-9.4h2V38h-1.3v-7.4
		c0-0.8,0-1.8,0.1-2.8h-0.1L239.4,38H238.3z"/>
	<path class="st3" d="M258.3,35c0,1-0.4,1.8-1.1,2.4c-0.7,0.6-1.7,0.8-3,0.8c-1.4,0-2.4-0.2-3.1-0.5v-1.3c0.5,0.2,1,0.4,1.5,0.5
		c0.6,0.1,1.1,0.2,1.6,0.2c0.9,0,1.6-0.2,2-0.5c0.4-0.3,0.7-0.8,0.7-1.4c0-0.4-0.1-0.7-0.2-1c-0.2-0.3-0.4-0.5-0.8-0.7
		c-0.4-0.2-0.9-0.5-1.7-0.7c-1.1-0.4-1.8-0.8-2.3-1.4c-0.5-0.5-0.7-1.2-0.7-2c0-0.9,0.3-1.6,1-2.1c0.7-0.5,1.5-0.8,2.6-0.8
		c1.1,0,2.2,0.2,3.1,0.6l-0.4,1.2c-0.9-0.4-1.9-0.6-2.8-0.6c-0.7,0-1.3,0.2-1.6,0.5c-0.4,0.3-0.6,0.7-0.6,1.3c0,0.4,0.1,0.7,0.2,1
		c0.1,0.3,0.4,0.5,0.7,0.7c0.3,0.2,0.9,0.4,1.6,0.7c1.2,0.4,2,0.9,2.5,1.4C258.1,33.6,258.3,34.2,258.3,35z"/>
	<path class="st3" d="M267.8,38l-1.4-3.6h-4.6l-1.4,3.6h-1.3l4.5-11.5h1.1l4.5,11.5H267.8z M266,33.2l-1.3-3.5
		c-0.2-0.4-0.3-1-0.5-1.6c-0.1,0.5-0.3,1-0.5,1.6l-1.3,3.5H266z"/>
	<path class="st3" d="M279.4,26.6V34c0,1.3-0.4,2.3-1.2,3.1s-1.9,1.1-3.2,1.1s-2.4-0.4-3.2-1.1s-1.1-1.8-1.1-3.1v-7.4h1.3v7.5
		c0,1,0.3,1.7,0.8,2.2S274,37,275,37c1,0,1.7-0.3,2.2-0.8s0.8-1.2,0.8-2.2v-7.4H279.4z M273.9,25.5c0.2-0.3,0.5-0.7,0.8-1.2
		s0.5-0.9,0.7-1.2h1.6v0.2c-0.2,0.3-0.6,0.8-1,1.2s-0.8,0.9-1.2,1.1h-0.9V25.5z"/>
	<path class="st3" d="M291.5,32.2c0,1.9-0.5,3.3-1.5,4.3s-2.5,1.5-4.4,1.5h-3.2V26.6h3.5c1.8,0,3.2,0.5,4.1,1.5
		S291.5,30.5,291.5,32.2z M290.1,32.3c0-1.5-0.4-2.6-1.1-3.4s-1.9-1.1-3.3-1.1h-1.9v9.1h1.6c1.6,0,2.8-0.4,3.6-1.2
		S290.1,33.8,290.1,32.3z"/>
	<path class="st3" d="M300.4,38h-6.4V26.6h6.4v1.2h-5v3.7h4.7v1.2h-4.7v4.2h5V38z"/>
</g>
</svg>
