<?xml version="1.0" encoding="utf-8"?>
<!-- Generator: Adobe Illustrator 27.1.1, SVG Export Plug-In . SVG Version: 6.00 Build 0)  -->
<svg version="1.1" id="Camada_1" xmlns="http://www.w3.org/2000/svg" xmlns:xlink="http://www.w3.org/1999/xlink" x="0px" y="0px"
	 viewBox="0 0 515.9 64.2" style="enable-background:new 0 0 515.9 64.2;" xml:space="preserve">
<style type="text/css">
	.st0{fill:#FFAC5A;}
	.st1{fill:#FAC496;}
	.st2{enable-background:new    ;}
	.st3{fill:#FFFFFF;}
</style>
<path class="st0" d="M49.6,4.1h438.3c15.5,0,28,12.5,28,28v0c0,15.5-12.5,28-28,28H49.6c-15.5,0-28-12.5-28-28v0
	C21.5,16.6,34.1,4.1,49.6,4.1z"/>
<path class="st1" d="M98.9,10.8h383.3c11.7,0,21.3,9.5,21.3,21.3l0,0c0,11.7-9.5,21.3-21.3,21.3H98.9c-11.7,0-21.3-9.5-21.3-21.3
	l0,0C77.7,20.4,87.2,10.8,98.9,10.8z"/>
<ellipse class="st1" cx="34.7" cy="32.1" rx="34.7" ry="32.1"/>
<g transform="translate(11.798 8.009)">
	<g class="st2">
		<path class="st3" d="M5.5,13L2.6,5.4h0C2.6,6,2.7,6.7,2.7,7.6V13H1.8V4.4h1.5L6,11.5h0l2.7-7.1h1.5V13h-1V7.5c0-0.6,0-1.3,0.1-2.1
			h0L6.3,13H5.5z"/>
		<path class="st3" d="M18,9.8c0,1-0.3,1.9-0.8,2.5s-1.3,0.9-2.2,0.9c-0.6,0-1.1-0.1-1.5-0.4s-0.8-0.7-1-1.2s-0.4-1.1-0.4-1.8
			c0-1,0.3-1.9,0.8-2.4s1.2-0.9,2.2-0.9c0.9,0,1.6,0.3,2.1,0.9S18,8.8,18,9.8z M13.1,9.8c0,0.8,0.2,1.4,0.5,1.9s0.8,0.6,1.4,0.6
			s1.1-0.2,1.5-0.6S17,10.6,17,9.8c0-0.8-0.2-1.4-0.5-1.9S15.7,7.3,15,7.3c-0.6,0-1.1,0.2-1.4,0.6S13.1,9,13.1,9.8z M14.2,5.6
			c0.2-0.2,0.4-0.5,0.6-0.9s0.4-0.6,0.5-0.9h1.2v0.1c-0.2,0.3-0.4,0.6-0.8,0.9s-0.6,0.7-0.9,0.9h-0.7V5.6z"/>
		<path class="st3" d="M24.1,12.1L24.1,12.1c-0.5,0.7-1.2,1-2.1,1c-0.8,0-1.5-0.3-2-0.9s-0.7-1.4-0.7-2.4s0.2-1.9,0.7-2.5
			s1.1-0.9,2-0.9c0.9,0,1.5,0.3,2,0.9h0.1l0-0.5l0-0.5V3.9h1V13h-0.8L24.1,12.1z M22.1,12.3c0.7,0,1.1-0.2,1.4-0.5S24,10.8,24,10
			V9.8c0-0.9-0.2-1.6-0.5-1.9s-0.8-0.6-1.5-0.6c-0.6,0-1,0.2-1.3,0.7S20.3,9,20.3,9.8c0,0.8,0.2,1.4,0.5,1.9S21.5,12.3,22.1,12.3z"
			/>
		<path class="st3" d="M28,6.6v4.2c0,0.5,0.1,0.9,0.4,1.2s0.6,0.4,1.1,0.4c0.7,0,1.2-0.2,1.5-0.6s0.5-1,0.5-1.8V6.6h1V13h-0.8
			l-0.1-0.9h-0.1c-0.2,0.3-0.5,0.6-0.8,0.7s-0.8,0.3-1.2,0.3c-0.8,0-1.4-0.2-1.8-0.6s-0.6-1-0.6-1.8V6.6H28z"/>
		<path class="st3" d="M35.4,13h-1V3.9h1V13z"/>
		<path class="st3" d="M43,9.8c0,1-0.3,1.9-0.8,2.5s-1.3,0.9-2.2,0.9c-0.6,0-1.1-0.1-1.5-0.4s-0.8-0.7-1-1.2s-0.4-1.1-0.4-1.8
			c0-1,0.3-1.9,0.8-2.4s1.2-0.9,2.2-0.9c0.9,0,1.6,0.3,2.1,0.9S43,8.8,43,9.8z M38.1,9.8c0,0.8,0.2,1.4,0.5,1.9s0.8,0.6,1.4,0.6
			s1.1-0.2,1.5-0.6S42,10.6,42,9.8c0-0.8-0.2-1.4-0.5-1.9S40.7,7.3,40,7.3c-0.6,0-1.1,0.2-1.4,0.6S38.1,9,38.1,9.8z"/>
	</g>
	<g class="st2">
		<path class="st3" d="M18.9,31.4c0,4.2-0.7,7.4-2.1,9.4c-1.4,2-3.5,3.1-6.4,3.1c-2.8,0-4.9-1.1-6.3-3.2c-1.4-2.1-2.1-5.2-2.1-9.3
			c0-4.3,0.7-7.4,2.1-9.5c1.4-2,3.5-3,6.4-3c2.8,0,4.9,1.1,6.4,3.2C18.2,24.2,18.9,27.3,18.9,31.4z M7,31.4c0,3,0.3,5.1,0.8,6.4
			c0.5,1.3,1.4,1.9,2.6,1.9c1.2,0,2.1-0.7,2.6-2s0.8-3.4,0.8-6.4c0-3-0.3-5.1-0.8-6.4c-0.5-1.3-1.4-2-2.6-2c-1.2,0-2.1,0.7-2.6,2
			C7.3,26.2,7,28.4,7,31.4z"/>
		<path class="st3" d="M34.2,43.5H29v-14l0-2.3l0.1-2.5c-0.9,0.9-1.4,1.4-1.8,1.7l-2.8,2.2l-2.5-3.1l7.8-6.2h4.2V43.5z"/>
	</g>
</g>
<g class="st2">
	<path class="st3" d="M101.9,33.7c0-1.4,0.2-2.7,0.6-3.9c0.4-1.2,1-2.3,1.7-3.2h1.3c-0.8,1-1.3,2.1-1.7,3.3
		c-0.4,1.2-0.6,2.4-0.6,3.7c0,1.2,0.2,2.5,0.6,3.7c0.4,1.2,0.9,2.3,1.7,3.3h-1.2c-0.8-0.9-1.3-1.9-1.8-3.1
		C102.1,36.3,101.9,35,101.9,33.7z"/>
	<path class="st3" d="M108.9,33.3V38h-1.3V26.6h3.1c1.4,0,2.4,0.3,3.1,0.8c0.7,0.5,1,1.3,1,2.4c0,1.5-0.8,2.5-2.3,3.1l3.1,5.1H114
		l-2.8-4.8H108.9z M108.9,32.2h1.8c0.9,0,1.6-0.2,2.1-0.6s0.7-0.9,0.7-1.7c0-0.8-0.2-1.3-0.7-1.6s-1.2-0.5-2.1-0.5h-1.7V32.2z"/>
	<path class="st3" d="M123.8,38h-6.4V26.6h6.4v1.2h-5v3.7h4.7v1.2h-4.7v4.2h5V38z"/>
	<path class="st3" d="M128.9,33.7c0,1.4-0.2,2.6-0.6,3.8c-0.4,1.2-1,2.2-1.7,3.1h-1.2c0.7-1,1.3-2.1,1.7-3.3
		c0.4-1.2,0.6-2.4,0.6-3.7c0-1.3-0.2-2.5-0.6-3.7c-0.4-1.2-0.9-2.3-1.7-3.3h1.3c0.8,0.9,1.3,2,1.8,3.2
		C128.7,31,128.9,32.3,128.9,33.7z"/>
	<path class="st3" d="M136,27.7c-1.3,0-2.2,0.4-3,1.3s-1.1,2-1.1,3.4c0,1.5,0.4,2.6,1.1,3.5c0.7,0.8,1.7,1.2,3,1.2
		c0.8,0,1.7-0.1,2.7-0.4v1.2c-0.8,0.3-1.8,0.4-2.9,0.4c-1.7,0-3-0.5-3.9-1.5s-1.4-2.5-1.4-4.4c0-1.2,0.2-2.2,0.7-3.1
		c0.4-0.9,1.1-1.6,1.9-2c0.8-0.5,1.8-0.7,2.9-0.7c1.2,0,2.2,0.2,3.1,0.7l-0.6,1.1C137.7,27.9,136.8,27.7,136,27.7z"/>
	<path class="st3" d="M151.1,32.3c0,1.8-0.5,3.3-1.4,4.3c-0.9,1-2.2,1.6-3.9,1.6c-1.7,0-3-0.5-3.9-1.5s-1.4-2.5-1.4-4.4
		c0-1.9,0.5-3.3,1.4-4.3c0.9-1,2.2-1.5,3.9-1.5c1.6,0,2.9,0.5,3.8,1.6S151.1,30.5,151.1,32.3z M142,32.3c0,1.5,0.3,2.7,1,3.5
		c0.7,0.8,1.6,1.2,2.9,1.2c1.3,0,2.2-0.4,2.9-1.2c0.6-0.8,1-2,1-3.5c0-1.5-0.3-2.7-1-3.5c-0.6-0.8-1.6-1.2-2.9-1.2
		c-1.3,0-2.2,0.4-2.9,1.2C142.3,29.6,142,30.8,142,32.3z"/>
	<path class="st3" d="M162.6,38H161l-6.2-9.6h-0.1c0.1,1.1,0.1,2.2,0.1,3.1V38h-1.2V26.6h1.5l6.2,9.5h0.1c0-0.1,0-0.6-0.1-1.4
		c0-0.8,0-1.3,0-1.6v-6.6h1.2V38z"/>
	<path class="st3" d="M174.4,38H173v-5.4h-6V38h-1.3V26.6h1.3v4.9h6v-4.9h1.3V38z"/>
	<path class="st3" d="M183.9,38h-6.4V26.6h6.4v1.2h-5v3.7h4.7v1.2h-4.7v4.2h5V38z"/>
	<path class="st3" d="M191.3,27.7c-1.3,0-2.2,0.4-3,1.3s-1.1,2-1.1,3.4c0,1.5,0.4,2.6,1.1,3.5c0.7,0.8,1.7,1.2,3,1.2
		c0.8,0,1.7-0.1,2.7-0.4v1.2c-0.8,0.3-1.8,0.4-2.9,0.4c-1.7,0-3-0.5-3.9-1.5s-1.4-2.5-1.4-4.4c0-1.2,0.2-2.2,0.7-3.1
		c0.4-0.9,1.1-1.6,1.9-2c0.8-0.5,1.8-0.7,2.9-0.7c1.2,0,2.2,0.2,3.1,0.7l-0.6,1.1C193,27.9,192.2,27.7,191.3,27.7z"/>
	<path class="st3" d="M202.9,38h-6.4V26.6h6.4v1.2h-5v3.7h4.7v1.2h-4.7v4.2h5V38z"/>
	<path class="st3" d="M214.3,38h-1.5l-6.2-9.6h-0.1c0.1,1.1,0.1,2.2,0.1,3.1V38h-1.2V26.6h1.5l6.2,9.5h0.1c0-0.1,0-0.6-0.1-1.4
		c0-0.8,0-1.3,0-1.6v-6.6h1.2V38z"/>
	<path class="st3" d="M226.6,32.2c0,1.9-0.5,3.3-1.5,4.3s-2.5,1.5-4.4,1.5h-3.2V26.6h3.5c1.8,0,3.2,0.5,4.1,1.5
		S226.6,30.5,226.6,32.2z M225.2,32.3c0-1.5-0.4-2.6-1.1-3.4c-0.7-0.8-1.9-1.1-3.3-1.1h-1.9v9.1h1.6c1.6,0,2.8-0.4,3.6-1.2
		S225.2,33.8,225.2,32.3z"/>
	<path class="st3" d="M239,32.3c0,1.8-0.5,3.3-1.4,4.3c-0.9,1-2.2,1.6-3.9,1.6c-1.7,0-3-0.5-3.9-1.5s-1.4-2.5-1.4-4.4
		c0-1.9,0.5-3.3,1.4-4.3c0.9-1,2.2-1.5,3.9-1.5c1.6,0,2.9,0.5,3.8,1.6S239,30.5,239,32.3z M229.9,32.3c0,1.5,0.3,2.7,1,3.5
		c0.7,0.8,1.6,1.2,2.9,1.2c1.3,0,2.2-0.4,2.9-1.2c0.6-0.8,1-2,1-3.5c0-1.5-0.3-2.7-1-3.5c-0.6-0.8-1.6-1.2-2.9-1.2
		c-1.3,0-2.2,0.4-2.9,1.2C230.3,29.6,229.9,30.8,229.9,32.3z"/>
	<path class="st3" d="M255.7,32.3c0,1.8-0.5,3.3-1.4,4.3c-0.9,1-2.2,1.6-3.9,1.6c-1.7,0-3-0.5-3.9-1.5s-1.4-2.5-1.4-4.4
		c0-1.9,0.5-3.3,1.4-4.3c0.9-1,2.2-1.5,3.9-1.5c1.6,0,2.9,0.5,3.8,1.6S255.7,30.5,255.7,32.3z M246.5,32.3c0,1.5,0.3,2.7,1,3.5
		c0.7,0.8,1.6,1.2,2.9,1.2c1.3,0,2.2-0.4,2.9-1.2c0.6-0.8,1-2,1-3.5c0-1.5-0.3-2.7-1-3.5c-0.6-0.8-1.6-1.2-2.9-1.2
		c-1.3,0-2.2,0.4-2.9,1.2C246.9,29.6,246.5,30.8,246.5,32.3z"/>
	<path class="st3" d="M268.8,35c0,1-0.4,1.8-1.1,2.4s-1.7,0.8-3,0.8c-1.4,0-2.4-0.2-3.1-0.5v-1.3c0.5,0.2,1,0.4,1.5,0.5
		s1.1,0.2,1.6,0.2c0.9,0,1.6-0.2,2-0.5s0.7-0.8,0.7-1.4c0-0.4-0.1-0.7-0.2-1s-0.4-0.5-0.8-0.7s-0.9-0.5-1.7-0.7
		c-1.1-0.4-1.8-0.8-2.3-1.4s-0.7-1.2-0.7-2c0-0.9,0.3-1.6,1-2.1s1.5-0.8,2.6-0.8c1.1,0,2.2,0.2,3.1,0.6l-0.4,1.2
		c-0.9-0.4-1.9-0.6-2.8-0.6c-0.7,0-1.3,0.2-1.6,0.5s-0.6,0.7-0.6,1.3c0,0.4,0.1,0.7,0.2,1s0.4,0.5,0.7,0.7s0.9,0.4,1.6,0.7
		c1.2,0.4,2,0.9,2.5,1.4S268.8,34.2,268.8,35z"/>
	<path class="st3" d="M271.1,38V26.6h1.3V38H271.1z"/>
	<path class="st3" d="M282,35c0,1-0.4,1.8-1.1,2.4s-1.7,0.8-3,0.8c-1.4,0-2.4-0.2-3.1-0.5v-1.3c0.5,0.2,1,0.4,1.5,0.5
		s1.1,0.2,1.6,0.2c0.9,0,1.6-0.2,2-0.5s0.7-0.8,0.7-1.4c0-0.4-0.1-0.7-0.2-1s-0.4-0.5-0.8-0.7s-0.9-0.5-1.7-0.7
		c-1.1-0.4-1.8-0.8-2.3-1.4s-0.7-1.2-0.7-2c0-0.9,0.3-1.6,1-2.1s1.5-0.8,2.6-0.8c1.1,0,2.2,0.2,3.1,0.6l-0.4,1.2
		c-0.9-0.4-1.9-0.6-2.8-0.6c-0.7,0-1.3,0.2-1.6,0.5s-0.6,0.7-0.6,1.3c0,0.4,0.1,0.7,0.2,1s0.4,0.5,0.7,0.7s0.9,0.4,1.6,0.7
		c1.2,0.4,2,0.9,2.5,1.4S282,34.2,282,35z"/>
	<path class="st3" d="M287.9,38h-1.3V27.8h-3.6v-1.2h8.6v1.2h-3.6V38z"/>
	<path class="st3" d="M299.6,38h-6.4V26.6h6.4v1.2h-5v3.7h4.7v1.2h-4.7v4.2h5V38z"/>
	<path class="st3" d="M307.2,38l-3.9-10.1h-0.1c0.1,0.8,0.1,1.8,0.1,2.9V38h-1.2V26.6h2l3.6,9.4h0.1l3.6-9.4h2V38h-1.3v-7.4
		c0-0.8,0-1.8,0.1-2.8h-0.1L308.3,38H307.2z"/>
	<path class="st3" d="M323.8,38l-1.4-3.6h-4.6l-1.4,3.6H315l4.5-11.5h1.1l4.5,11.5H323.8z M321.9,33.2l-1.3-3.5
		c-0.2-0.4-0.3-1-0.5-1.6c-0.1,0.5-0.3,1-0.5,1.6l-1.3,3.5H321.9z"/>
	<path class="st3" d="M339.5,26.6V34c0,1.3-0.4,2.3-1.2,3.1s-1.9,1.1-3.2,1.1s-2.4-0.4-3.2-1.1s-1.1-1.8-1.1-3.1v-7.4h1.3v7.5
		c0,1,0.3,1.7,0.8,2.2s1.3,0.8,2.3,0.8c1,0,1.7-0.3,2.2-0.8s0.8-1.2,0.8-2.2v-7.4H339.5z M334,25.5c0.2-0.3,0.5-0.7,0.8-1.2
		s0.5-0.9,0.7-1.2h1.6v0.2c-0.2,0.3-0.6,0.8-1,1.2s-0.8,0.9-1.2,1.1H334V25.5z"/>
	<path class="st3" d="M351.4,38h-1.5l-6.2-9.6h-0.1c0.1,1.1,0.1,2.2,0.1,3.1V38h-1.2V26.6h1.5l6.2,9.5h0.1c0-0.1,0-0.6-0.1-1.4
		s0-1.3,0-1.6v-6.6h1.2V38z"/>
	<path class="st3" d="M354.6,38V26.6h1.3V38H354.6z"/>
	<path class="st3" d="M363.9,27.7c-1.3,0-2.2,0.4-3,1.3s-1.1,2-1.1,3.4c0,1.5,0.4,2.6,1.1,3.5s1.7,1.2,3,1.2c0.8,0,1.7-0.1,2.7-0.4
		v1.2c-0.8,0.3-1.8,0.4-2.9,0.4c-1.7,0-3-0.5-3.9-1.5s-1.4-2.5-1.4-4.4c0-1.2,0.2-2.2,0.7-3.1s1.1-1.6,1.9-2s1.8-0.7,2.9-0.7
		c1.2,0,2.2,0.2,3.1,0.7l-0.6,1.1C365.6,27.9,364.8,27.7,363.9,27.7z"/>
	<path class="st3" d="M379,32.3c0,1.8-0.5,3.3-1.4,4.3s-2.2,1.6-3.9,1.6c-1.7,0-3-0.5-3.9-1.5s-1.4-2.5-1.4-4.4
		c0-1.9,0.5-3.3,1.4-4.3s2.2-1.5,3.9-1.5c1.6,0,2.9,0.5,3.8,1.6S379,30.5,379,32.3z M369.9,32.3c0,1.5,0.3,2.7,1,3.5
		s1.6,1.2,2.9,1.2c1.3,0,2.2-0.4,2.9-1.2s1-2,1-3.5c0-1.5-0.3-2.7-1-3.5s-1.6-1.2-2.9-1.2c-1.3,0-2.2,0.4-2.9,1.2
		S369.9,30.8,369.9,32.3z"/>
	<path class="st3" d="M394.9,32.2c0,1.9-0.5,3.3-1.5,4.3s-2.5,1.5-4.4,1.5h-3.2V26.6h3.5c1.8,0,3.2,0.5,4.1,1.5
		S394.9,30.5,394.9,32.2z M393.4,32.3c0-1.5-0.4-2.6-1.1-3.4s-1.9-1.1-3.3-1.1h-1.9v9.1h1.6c1.6,0,2.8-0.4,3.6-1.2
		S393.4,33.8,393.4,32.3z"/>
	<path class="st3" d="M403.8,38h-6.4V26.6h6.4v1.2h-5v3.7h4.7v1.2h-4.7v4.2h5V38z"/>
	<path class="st3" d="M416.9,35c0,1-0.4,1.8-1.1,2.4s-1.7,0.8-3,0.8c-1.4,0-2.4-0.2-3.1-0.5v-1.3c0.5,0.2,1,0.4,1.5,0.5
		s1.1,0.2,1.6,0.2c0.9,0,1.6-0.2,2-0.5s0.7-0.8,0.7-1.4c0-0.4-0.1-0.7-0.2-1s-0.4-0.5-0.8-0.7s-0.9-0.5-1.7-0.7
		c-1.1-0.4-1.8-0.8-2.3-1.4s-0.7-1.2-0.7-2c0-0.9,0.3-1.6,1-2.1s1.5-0.8,2.6-0.8c1.1,0,2.2,0.2,3.1,0.6l-0.4,1.2
		c-0.9-0.4-1.9-0.6-2.8-0.6c-0.7,0-1.3,0.2-1.6,0.5s-0.6,0.7-0.6,1.3c0,0.4,0.1,0.7,0.2,1s0.4,0.5,0.7,0.7s0.9,0.4,1.6,0.7
		c1.2,0.4,2,0.9,2.5,1.4S416.9,34.2,416.9,35z"/>
	<path class="st3" d="M426.4,38l-1.4-3.6h-4.6L419,38h-1.3l4.5-11.5h1.1l4.5,11.5H426.4z M424.6,33.2l-1.3-3.5
		c-0.2-0.4-0.3-1-0.5-1.6c-0.1,0.5-0.3,1-0.5,1.6l-1.3,3.5H424.6z"/>
	<path class="st3" d="M438,26.6V34c0,1.3-0.4,2.3-1.2,3.1s-1.9,1.1-3.2,1.1s-2.4-0.4-3.2-1.1s-1.1-1.8-1.1-3.1v-7.4h1.3v7.5
		c0,1,0.3,1.7,0.8,2.2s1.3,0.8,2.3,0.8c1,0,1.7-0.3,2.2-0.8s0.8-1.2,0.8-2.2v-7.4H438z M432.5,25.5c0.2-0.3,0.5-0.7,0.8-1.2
		s0.5-0.9,0.7-1.2h1.6v0.2c-0.2,0.3-0.6,0.8-1,1.2s-0.8,0.9-1.2,1.1h-0.9V25.5z"/>
	<path class="st3" d="M450.1,32.2c0,1.9-0.5,3.3-1.5,4.3s-2.5,1.5-4.4,1.5H441V26.6h3.5c1.8,0,3.2,0.5,4.1,1.5
		S450.1,30.5,450.1,32.2z M448.7,32.3c0-1.5-0.4-2.6-1.1-3.4s-1.9-1.1-3.3-1.1h-1.9v9.1h1.6c1.6,0,2.8-0.4,3.6-1.2
		S448.7,33.8,448.7,32.3z"/>
	<path class="st3" d="M459,38h-6.4V26.6h6.4v1.2h-5v3.7h4.7v1.2H454v4.2h5V38z"/>
</g>
<text transform="matrix(1 0 0 1 678 -72.1102)" style="font-family:'MyriadPro-Regular'; font-size:12px;">Lorem ipsum</text>
</svg>
