<?xml version="1.0" encoding="utf-8"?>
<!-- Generator: Adobe Illustrator 27.1.1, SVG Export Plug-In . SVG Version: 6.00 Build 0)  -->
<svg version="1.1" id="Camada_1" xmlns="http://www.w3.org/2000/svg" xmlns:xlink="http://www.w3.org/1999/xlink" x="0px" y="0px"
	 viewBox="0 0 515.9 64.2" style="enable-background:new 0 0 515.9 64.2;" xml:space="preserve">
<style type="text/css">
	.st0{fill:#F39F5A;}
	.st1{fill:#FAC496;}
	.st2{enable-background:new    ;}
	.st3{fill:#FFFFFF;}
</style>
<path class="st0" d="M49.6,4.1h438.3c15.5,0,28,12.5,28,28v0c0,15.5-12.5,28-28,28H49.6c-15.5,0-28-12.5-28-28v0
	C21.5,16.6,34.1,4.1,49.6,4.1z"/>
<path class="st1" d="M96.9,10.8h385.3c11.7,0,21.3,9.5,21.3,21.3l0,0c0,11.7-9.5,21.3-21.3,21.3H96.9c-11.7,0-21.3-9.5-21.3-21.3
	l0,0C75.7,20.4,85.2,10.8,96.9,10.8z"/>
<ellipse class="st1" cx="34.7" cy="32.1" rx="34.7" ry="32.1"/>
<g transform="translate(10.798 8.008)">
	<g class="st2">
		<path class="st3" d="M6.5,13L3.6,5.4h0C3.6,6,3.7,6.7,3.7,7.6V13H2.8V4.4h1.5L7,11.5h0l2.7-7.1h1.5V13h-1V7.5c0-0.6,0-1.3,0.1-2.1
			h0L7.3,13H6.5z"/>
		<path class="st3" d="M19,9.8c0,1-0.3,1.9-0.8,2.5s-1.3,0.9-2.2,0.9c-0.6,0-1.1-0.1-1.5-0.4s-0.8-0.7-1-1.2s-0.4-1.1-0.4-1.8
			c0-1,0.3-1.9,0.8-2.4s1.2-0.9,2.2-0.9c0.9,0,1.6,0.3,2.1,0.9S19,8.8,19,9.8z M14.1,9.8c0,0.8,0.2,1.4,0.5,1.9s0.8,0.6,1.4,0.6
			s1.1-0.2,1.5-0.6S18,10.6,18,9.8c0-0.8-0.2-1.4-0.5-1.9c-0.3-0.4-0.8-0.6-1.5-0.6c-0.6,0-1.1,0.2-1.4,0.6
			C14.3,8.3,14.1,9,14.1,9.8z M15.2,5.6c0.2-0.2,0.4-0.5,0.6-0.9s0.4-0.6,0.5-0.9h1.2v0.1c-0.2,0.3-0.4,0.6-0.8,0.9
			s-0.6,0.7-0.9,0.9h-0.7V5.6z"/>
		<path class="st3" d="M25.1,12.1L25.1,12.1c-0.5,0.7-1.2,1-2.1,1c-0.8,0-1.5-0.3-2-0.9s-0.7-1.4-0.7-2.4s0.2-1.9,0.7-2.5
			s1.1-0.9,2-0.9c0.9,0,1.5,0.3,2,0.9h0.1l0-0.5l0-0.5V3.9h1V13h-0.8L25.1,12.1z M23.1,12.3c0.7,0,1.1-0.2,1.4-0.5S25,10.8,25,10
			V9.8c0-0.9-0.2-1.6-0.5-1.9c-0.3-0.4-0.8-0.6-1.5-0.6c-0.6,0-1,0.2-1.3,0.7c-0.3,0.4-0.5,1.1-0.5,1.9c0,0.8,0.2,1.4,0.5,1.9
			S22.5,12.3,23.1,12.3z"/>
		<path class="st3" d="M29,6.6v4.2c0,0.5,0.1,0.9,0.4,1.2s0.6,0.4,1.1,0.4c0.7,0,1.2-0.2,1.5-0.6s0.5-1,0.5-1.8V6.6h1V13h-0.8
			l-0.1-0.9h-0.1c-0.2,0.3-0.5,0.6-0.8,0.7s-0.8,0.3-1.2,0.3c-0.8,0-1.4-0.2-1.8-0.6s-0.6-1-0.6-1.8V6.6H29z"/>
		<path class="st3" d="M36.4,13h-1V3.9h1V13z"/>
		<path class="st3" d="M44,9.8c0,1-0.3,1.9-0.8,2.5s-1.3,0.9-2.2,0.9c-0.6,0-1.1-0.1-1.5-0.4s-0.8-0.7-1-1.2s-0.4-1.1-0.4-1.8
			c0-1,0.3-1.9,0.8-2.4s1.2-0.9,2.2-0.9c0.9,0,1.6,0.3,2.1,0.9S44,8.8,44,9.8z M39.1,9.8c0,0.8,0.2,1.4,0.5,1.9s0.8,0.6,1.4,0.6
			s1.1-0.2,1.5-0.6S43,10.6,43,9.8c0-0.8-0.2-1.4-0.5-1.9c-0.3-0.4-0.8-0.6-1.5-0.6c-0.6,0-1.1,0.2-1.4,0.6
			C39.3,8.3,39.1,9,39.1,9.8z"/>
	</g>
	<g class="st2">
		<path class="st3" d="M19.9,31.4c0,4.2-0.7,7.4-2.1,9.4c-1.4,2-3.5,3.1-6.4,3.1c-2.8,0-4.9-1.1-6.3-3.2c-1.4-2.1-2.1-5.2-2.1-9.3
			c0-4.3,0.7-7.4,2.1-9.5c1.4-2,3.5-3,6.4-3c2.8,0,4.9,1.1,6.4,3.2C19.2,24.2,19.9,27.3,19.9,31.4z M8,31.4c0,3,0.3,5.1,0.8,6.4
			c0.5,1.3,1.4,1.9,2.6,1.9c1.2,0,2.1-0.7,2.6-2s0.8-3.4,0.8-6.4c0-3-0.3-5.1-0.8-6.4c-0.5-1.3-1.4-2-2.6-2c-1.2,0-2.1,0.7-2.6,2
			C8.3,26.2,8,28.4,8,31.4z"/>
		<path class="st3" d="M22.3,33.2c0-4.8,1-8.4,3-10.7c2-2.3,5.1-3.5,9.1-3.5c1.4,0,2.5,0.1,3.3,0.2v4.1c-1-0.2-2-0.3-2.9-0.3
			c-1.8,0-3.2,0.3-4.3,0.8s-1.9,1.3-2.5,2.4c-0.6,1-0.9,2.5-1,4.4h0.2c1.1-1.9,2.8-2.8,5.3-2.8c2.2,0,3.9,0.7,5.1,2s1.8,3.2,1.8,5.6
			c0,2.6-0.7,4.6-2.2,6.2c-1.5,1.5-3.5,2.3-6.1,2.3c-1.8,0-3.4-0.4-4.7-1.2c-1.3-0.8-2.4-2-3.1-3.6C22.7,37.4,22.3,35.4,22.3,33.2z
			 M31.1,39.7c1.1,0,1.9-0.4,2.5-1.1c0.6-0.7,0.9-1.8,0.9-3.1c0-1.2-0.3-2.1-0.8-2.8c-0.5-0.7-1.4-1-2.5-1c-1,0-1.9,0.3-2.7,1
			c-0.7,0.7-1.1,1.5-1.1,2.4c0,1.3,0.3,2.4,1,3.3C29.1,39.3,30,39.7,31.1,39.7z"/>
	</g>
</g>
<g class="st2">
	<path class="st3" d="M100,29.7l-1.4-3.6H94l-1.4,3.6h-1.3l4.5-11.5h1.1l4.5,11.5H100z M98.2,24.9l-1.3-3.5c-0.2-0.4-0.3-1-0.5-1.6
		c-0.1,0.5-0.3,1-0.5,1.6l-1.3,3.5H98.2z"/>
	<path class="st3" d="M109.5,18.3h1.4l-4.1,11.4h-1.3l-4.1-11.4h1.4l2.6,7.4c0.3,0.8,0.5,1.7,0.7,2.5c0.2-0.8,0.4-1.7,0.7-2.5
		L109.5,18.3z"/>
	<path class="st3" d="M119.7,29.7l-1.4-3.6h-4.6l-1.4,3.6h-1.3l4.5-11.5h1.1l4.5,11.5H119.7z M117.8,24.9l-1.3-3.5
		c-0.2-0.4-0.3-1-0.5-1.6c-0.1,0.5-0.3,1-0.5,1.6l-1.3,3.5H117.8z"/>
	<path class="st3" d="M122.6,29.7V18.3h1.3v10.2h5v1.2H122.6z"/>
	<path class="st3" d="M130.9,29.7V18.3h1.3v11.4H130.9z"/>
	<path class="st3" d="M142.5,29.7l-1.4-3.6h-4.6l-1.4,3.6h-1.3l4.5-11.5h1.1l4.5,11.5H142.5z M140.7,24.9l-1.3-3.5
		c-0.2-0.4-0.3-1-0.5-1.6c-0.1,0.5-0.3,1-0.5,1.6l-1.3,3.5H140.7z"/>
	<path class="st3" d="M150.4,19.3c-1.3,0-2.2,0.4-3,1.3s-1.1,2-1.1,3.4c0,1.5,0.4,2.6,1.1,3.5c0.7,0.8,1.7,1.2,3,1.2
		c0.8,0,1.7-0.1,2.7-0.4v1.2c-0.8,0.3-1.8,0.4-2.9,0.4c-1.7,0-3-0.5-3.9-1.5s-1.4-2.5-1.4-4.4c0-1.2,0.2-2.2,0.7-3.1
		c0.4-0.9,1.1-1.6,1.9-2c0.8-0.5,1.8-0.7,2.9-0.7c1.2,0,2.2,0.2,3.1,0.7l-0.6,1.1C152.1,19.5,151.2,19.3,150.4,19.3z M151.3,32
		c0,0.5-0.2,0.9-0.6,1.2c-0.4,0.3-1,0.4-1.8,0.4c-0.3,0-0.5,0-0.8-0.1v-0.8c0.2,0,0.5,0.1,0.8,0.1c0.4,0,0.7-0.1,0.9-0.2
		s0.3-0.3,0.3-0.6c0-0.2-0.1-0.4-0.3-0.5c-0.2-0.1-0.6-0.3-1.2-0.3l0.7-1.4h0.9l-0.4,0.9C150.9,30.8,151.3,31.3,151.3,32z"/>
	<path class="st3" d="M162.8,29.7l-1.4-3.6h-4.6l-1.4,3.6H154l4.5-11.5h1.1l4.5,11.5H162.8z M160.2,17.4c-0.2,0-0.4,0-0.7-0.1
		c-0.2-0.1-0.4-0.2-0.6-0.3c-0.2-0.1-0.4-0.2-0.6-0.3c-0.2-0.1-0.4-0.1-0.6-0.1c-0.3,0-0.5,0.1-0.6,0.2s-0.2,0.4-0.3,0.7h-0.8
		c0.1-0.6,0.3-1.1,0.6-1.5c0.3-0.4,0.7-0.5,1.2-0.5c0.2,0,0.5,0,0.7,0.1c0.2,0.1,0.4,0.2,0.6,0.3s0.4,0.2,0.6,0.3s0.4,0.1,0.5,0.1
		c0.3,0,0.4-0.1,0.6-0.2s0.2-0.4,0.3-0.7h0.8c-0.1,0.6-0.2,1.1-0.5,1.5C161.1,17.2,160.7,17.4,160.2,17.4z M160.9,24.9l-1.3-3.5
		c-0.2-0.4-0.3-1-0.5-1.6c-0.1,0.5-0.3,1-0.5,1.6l-1.3,3.5H160.9z"/>
	<path class="st3" d="M175.6,24c0,1.8-0.5,3.3-1.4,4.3c-0.9,1-2.2,1.6-3.9,1.6c-1.7,0-3-0.5-3.9-1.5s-1.4-2.5-1.4-4.4
		c0-1.9,0.5-3.3,1.4-4.3c0.9-1,2.2-1.5,3.9-1.5c1.6,0,2.9,0.5,3.8,1.6S175.6,22.2,175.6,24z M166.5,24c0,1.5,0.3,2.7,1,3.5
		c0.7,0.8,1.6,1.2,2.9,1.2c1.3,0,2.2-0.4,2.9-1.2c0.6-0.8,1-2,1-3.5c0-1.5-0.3-2.7-1-3.5c-0.6-0.8-1.6-1.2-2.9-1.2
		c-1.3,0-2.2,0.4-2.9,1.2C166.8,21.3,166.5,22.5,166.5,24z"/>
	<path class="st3" d="M188.7,29.7h-6.4V18.3h6.4v1.2h-5v3.7h4.7v1.2h-4.7v4.2h5V29.7z"/>
	<path class="st3" d="M200.4,29.7l-3.9-10.1h-0.1c0.1,0.8,0.1,1.8,0.1,2.9v7.3h-1.2V18.3h2l3.6,9.4h0.1l3.6-9.4h2v11.4h-1.3v-7.4
		c0-0.8,0-1.8,0.1-2.8h-0.1l-3.9,10.1H200.4z"/>
	<path class="st3" d="M219.7,24c0,1.8-0.5,3.3-1.4,4.3c-0.9,1-2.2,1.6-3.9,1.6c-1.7,0-3-0.5-3.9-1.5s-1.4-2.5-1.4-4.4
		c0-1.9,0.5-3.3,1.4-4.3c0.9-1,2.2-1.5,3.9-1.5c1.6,0,2.9,0.5,3.8,1.6S219.7,22.2,219.7,24z M210.6,24c0,1.5,0.3,2.7,1,3.5
		c0.7,0.8,1.6,1.2,2.9,1.2c1.3,0,2.2-0.4,2.9-1.2c0.6-0.8,1-2,1-3.5c0-1.5-0.3-2.7-1-3.5c-0.6-0.8-1.6-1.2-2.9-1.2
		c-1.3,0-2.2,0.4-2.9,1.2C211,21.3,210.6,22.5,210.6,24z"/>
	<path class="st3" d="M231.2,29.7h-1.5l-6.2-9.6h-0.1c0.1,1.1,0.1,2.2,0.1,3.1v6.5h-1.2V18.3h1.5l6.2,9.5h0.1c0-0.1,0-0.6-0.1-1.4
		c0-0.8,0-1.3,0-1.6v-6.6h1.2V29.7z"/>
	<path class="st3" d="M234.3,29.7V18.3h1.3v11.4H234.3z"/>
	<path class="st3" d="M242.3,29.7H241V19.5h-3.6v-1.2h8.6v1.2h-3.6V29.7z"/>
	<path class="st3" d="M257.6,24c0,1.8-0.5,3.3-1.4,4.3c-0.9,1-2.2,1.6-3.9,1.6c-1.7,0-3-0.5-3.9-1.5s-1.4-2.5-1.4-4.4
		c0-1.9,0.5-3.3,1.4-4.3c0.9-1,2.2-1.5,3.9-1.5c1.6,0,2.9,0.5,3.8,1.6S257.6,22.2,257.6,24z M248.5,24c0,1.5,0.3,2.7,1,3.5
		c0.7,0.8,1.6,1.2,2.9,1.2c1.3,0,2.2-0.4,2.9-1.2c0.6-0.8,1-2,1-3.5c0-1.5-0.3-2.7-1-3.5c-0.6-0.8-1.6-1.2-2.9-1.2
		c-1.3,0-2.2,0.4-2.9,1.2C248.8,21.3,248.5,22.5,248.5,24z"/>
	<path class="st3" d="M261.4,25v4.8h-1.3V18.3h3.1c1.4,0,2.4,0.3,3.1,0.8s1,1.3,1,2.4c0,1.5-0.8,2.5-2.3,3.1l3.1,5.1h-1.6l-2.8-4.8
		H261.4z M261.4,23.8h1.8c0.9,0,1.6-0.2,2.1-0.6s0.7-0.9,0.7-1.7c0-0.8-0.2-1.3-0.7-1.6s-1.2-0.5-2.1-0.5h-1.7V23.8z"/>
	<path class="st3" d="M277.2,29.7l-1.4-3.6h-4.6l-1.4,3.6h-1.3l4.5-11.5h1.1l4.5,11.5H277.2z M275.4,24.9l-1.3-3.5
		c-0.2-0.4-0.3-1-0.5-1.6c-0.1,0.5-0.3,1-0.5,1.6l-1.3,3.5H275.4z"/>
	<path class="st3" d="M285.2,29.7l-3.9-10.1h-0.1c0.1,0.8,0.1,1.8,0.1,2.9v7.3h-1.2V18.3h2l3.6,9.4h0.1l3.6-9.4h2v11.4h-1.3v-7.4
		c0-0.8,0-1.8,0.1-2.8h-0.1l-3.9,10.1H285.2z"/>
	<path class="st3" d="M300.9,29.7h-6.4V18.3h6.4v1.2h-5v3.7h4.7v1.2h-4.7v4.2h5V29.7z"/>
	<path class="st3" d="M312.4,29.7h-1.5l-6.2-9.6h-0.1c0.1,1.1,0.1,2.2,0.1,3.1v6.5h-1.2V18.3h1.5l6.2,9.5h0.1c0-0.1,0-0.6-0.1-1.4
		s0-1.3,0-1.6v-6.6h1.2V29.7z"/>
	<path class="st3" d="M319.1,29.7h-1.3V19.5h-3.6v-1.2h8.6v1.2h-3.6V29.7z"/>
	<path class="st3" d="M334.3,24c0,1.8-0.5,3.3-1.4,4.3s-2.2,1.6-3.9,1.6c-1.7,0-3-0.5-3.9-1.5s-1.4-2.5-1.4-4.4
		c0-1.9,0.5-3.3,1.4-4.3s2.2-1.5,3.9-1.5c1.6,0,2.9,0.5,3.8,1.6S334.3,22.2,334.3,24z M325.2,24c0,1.5,0.3,2.7,1,3.5
		s1.6,1.2,2.9,1.2c1.3,0,2.2-0.4,2.9-1.2s1-2,1-3.5c0-1.5-0.3-2.7-1-3.5s-1.6-1.2-2.9-1.2c-1.3,0-2.2,0.4-2.9,1.2
		S325.2,22.5,325.2,24z"/>
</g>
<g class="st2">
	<path class="st3" d="M101.9,45.9c0,1.9-0.5,3.3-1.5,4.3s-2.5,1.5-4.4,1.5h-3.2V40.3h3.5c1.8,0,3.2,0.5,4.1,1.5
		S101.9,44.1,101.9,45.9z M100.5,46c0-1.5-0.4-2.6-1.1-3.4c-0.7-0.8-1.9-1.1-3.3-1.1h-1.9v9.1h1.6c1.6,0,2.8-0.4,3.6-1.2
		S100.5,47.5,100.5,46z"/>
	<path class="st3" d="M110.9,51.7h-6.4V40.3h6.4v1.2h-5v3.7h4.7v1.2h-4.7v4.2h5V51.7z"/>
	<path class="st3" d="M124.8,43.6c0,1.2-0.4,2-1.2,2.7s-1.9,0.9-3.4,0.9h-1.3v4.5h-1.3V40.3h3C123.4,40.3,124.8,41.4,124.8,43.6z
		 M118.9,46.1h1.2c1.2,0,2-0.2,2.6-0.6c0.5-0.4,0.8-1,0.8-1.8c0-0.8-0.2-1.3-0.7-1.7c-0.5-0.4-1.3-0.6-2.3-0.6h-1.5V46.1z"/>
	<path class="st3" d="M137.1,46c0,1.8-0.5,3.3-1.4,4.3c-0.9,1-2.2,1.6-3.9,1.6c-1.7,0-3-0.5-3.9-1.5s-1.4-2.5-1.4-4.4
		c0-1.9,0.5-3.3,1.4-4.3c0.9-1,2.2-1.5,3.9-1.5c1.6,0,2.9,0.5,3.8,1.6S137.1,44.2,137.1,46z M128,46c0,1.5,0.3,2.7,1,3.5
		c0.7,0.8,1.6,1.2,2.9,1.2c1.3,0,2.2-0.4,2.9-1.2c0.6-0.8,1-2,1-3.5c0-1.5-0.3-2.7-1-3.5c-0.6-0.8-1.6-1.2-2.9-1.2
		c-1.3,0-2.2,0.4-2.9,1.2C128.3,43.3,128,44.5,128,46z"/>
	<path class="st3" d="M139.6,51.7V40.3h1.3v10.2h5v1.2H139.6z"/>
	<path class="st3" d="M147.8,39.2c0.2-0.3,0.5-0.7,0.8-1.2s0.5-0.9,0.7-1.2h1.6V37c-0.2,0.3-0.6,0.8-1,1.2s-0.8,0.9-1.2,1.1h-0.9
		V39.2z M147.9,51.7V40.3h1.3v11.4H147.9z"/>
	<path class="st3" d="M155.9,51.7h-1.3V41.5H151v-1.2h8.6v1.2h-3.6V51.7z"/>
	<path class="st3" d="M161.3,51.7V40.3h1.3v11.4H161.3z"/>
	<path class="st3" d="M170.6,41.3c-1.3,0-2.2,0.4-3,1.3s-1.1,2-1.1,3.4c0,1.5,0.4,2.6,1.1,3.5c0.7,0.8,1.7,1.2,3,1.2
		c0.8,0,1.7-0.1,2.7-0.4v1.2c-0.8,0.3-1.8,0.4-2.9,0.4c-1.7,0-3-0.5-3.9-1.5s-1.4-2.5-1.4-4.4c0-1.2,0.2-2.2,0.7-3.1
		c0.4-0.9,1.1-1.6,1.9-2c0.8-0.5,1.8-0.7,2.9-0.7c1.2,0,2.2,0.2,3.1,0.7l-0.6,1.1C172.3,41.5,171.5,41.3,170.6,41.3z"/>
	<path class="st3" d="M183,51.7l-1.4-3.6H177l-1.4,3.6h-1.3l4.5-11.5h1.1l4.5,11.5H183z M181.2,46.9l-1.3-3.5
		c-0.2-0.4-0.3-1-0.5-1.6c-0.1,0.5-0.3,1-0.5,1.6l-1.3,3.5H181.2z"/>
	<path class="st3" d="M192.4,48.7c0,1-0.4,1.8-1.1,2.4c-0.7,0.6-1.7,0.8-3,0.8c-1.4,0-2.4-0.2-3.1-0.5v-1.3c0.5,0.2,1,0.4,1.5,0.5
		c0.6,0.1,1.1,0.2,1.6,0.2c0.9,0,1.6-0.2,2-0.5c0.4-0.3,0.7-0.8,0.7-1.4c0-0.4-0.1-0.7-0.2-1c-0.2-0.3-0.4-0.5-0.8-0.7
		c-0.4-0.2-0.9-0.5-1.7-0.7c-1.1-0.4-1.8-0.8-2.3-1.4c-0.5-0.5-0.7-1.2-0.7-2c0-0.9,0.3-1.6,1-2.1c0.7-0.5,1.5-0.8,2.6-0.8
		c1.1,0,2.2,0.2,3.1,0.6l-0.4,1.2c-0.9-0.4-1.9-0.6-2.8-0.6c-0.7,0-1.3,0.2-1.6,0.5c-0.4,0.3-0.6,0.7-0.6,1.3c0,0.4,0.1,0.7,0.2,1
		c0.1,0.3,0.4,0.5,0.7,0.7c0.3,0.2,0.9,0.4,1.6,0.7c1.2,0.4,2,0.9,2.5,1.4C192.2,47.3,192.4,47.9,192.4,48.7z"/>
	<path class="st3" d="M208,45.9c0,1.9-0.5,3.3-1.5,4.3s-2.5,1.5-4.4,1.5h-3.2V40.3h3.5c1.8,0,3.2,0.5,4.1,1.5S208,44.1,208,45.9z
		 M206.6,46c0-1.5-0.4-2.6-1.1-3.4c-0.7-0.8-1.9-1.1-3.3-1.1h-1.9v9.1h1.6c1.6,0,2.8-0.4,3.6-1.2S206.6,47.5,206.6,46z"/>
	<path class="st3" d="M216.9,51.7h-6.4V40.3h6.4v1.2h-5v3.7h4.7v1.2h-4.7v4.2h5V51.7z"/>
	<path class="st3" d="M230,48.7c0,1-0.4,1.8-1.1,2.4c-0.7,0.6-1.7,0.8-3,0.8c-1.4,0-2.4-0.2-3.1-0.5v-1.3c0.5,0.2,1,0.4,1.5,0.5
		c0.6,0.1,1.1,0.2,1.6,0.2c0.9,0,1.6-0.2,2-0.5c0.4-0.3,0.7-0.8,0.7-1.4c0-0.4-0.1-0.7-0.2-1c-0.2-0.3-0.4-0.5-0.8-0.7
		c-0.4-0.2-0.9-0.5-1.7-0.7c-1.1-0.4-1.8-0.8-2.3-1.4c-0.5-0.5-0.7-1.2-0.7-2c0-0.9,0.3-1.6,1-2.1c0.7-0.5,1.5-0.8,2.6-0.8
		c1.1,0,2.2,0.2,3.1,0.6l-0.4,1.2c-0.9-0.4-1.9-0.6-2.8-0.6c-0.7,0-1.3,0.2-1.6,0.5c-0.4,0.3-0.6,0.7-0.6,1.3c0,0.4,0.1,0.7,0.2,1
		c0.1,0.3,0.4,0.5,0.7,0.7c0.3,0.2,0.9,0.4,1.6,0.7c1.2,0.4,2,0.9,2.5,1.4C229.8,47.3,230,47.9,230,48.7z"/>
	<path class="st3" d="M239.5,51.7l-1.4-3.6h-4.6l-1.4,3.6h-1.3l4.5-11.5h1.1l4.5,11.5H239.5z M237.7,46.9l-1.3-3.5
		c-0.2-0.4-0.3-1-0.5-1.6c-0.1,0.5-0.3,1-0.5,1.6l-1.3,3.5H237.7z"/>
	<path class="st3" d="M251.1,40.3v7.4c0,1.3-0.4,2.3-1.2,3.1c-0.8,0.7-1.9,1.1-3.2,1.1s-2.4-0.4-3.2-1.1c-0.8-0.8-1.1-1.8-1.1-3.1
		v-7.4h1.3v7.5c0,1,0.3,1.7,0.8,2.2c0.5,0.5,1.3,0.8,2.3,0.8c1,0,1.7-0.3,2.2-0.8c0.5-0.5,0.8-1.2,0.8-2.2v-7.4H251.1z M245.6,39.2
		c0.2-0.3,0.5-0.7,0.8-1.2s0.5-0.9,0.7-1.2h1.6V37c-0.2,0.3-0.6,0.8-1,1.2s-0.8,0.9-1.2,1.1h-0.9V39.2z"/>
	<path class="st3" d="M263.3,45.9c0,1.9-0.5,3.3-1.5,4.3s-2.5,1.5-4.4,1.5h-3.2V40.3h3.5c1.8,0,3.2,0.5,4.1,1.5
		S263.3,44.1,263.3,45.9z M261.9,46c0-1.5-0.4-2.6-1.1-3.4s-1.9-1.1-3.3-1.1h-1.9v9.1h1.6c1.6,0,2.8-0.4,3.6-1.2
		S261.9,47.5,261.9,46z"/>
	<path class="st3" d="M272.2,51.7h-6.4V40.3h6.4v1.2h-5v3.7h4.7v1.2h-4.7v4.2h5V51.7z"/>
</g>
</svg>
