<?xml version="1.0" encoding="utf-8"?>
<!-- Generator: Adobe Illustrator 27.1.1, SVG Export Plug-In . SVG Version: 6.00 Build 0)  -->
<svg version="1.1" id="Camada_1" xmlns="http://www.w3.org/2000/svg" xmlns:xlink="http://www.w3.org/1999/xlink" x="0px" y="0px"
	 viewBox="0 0 515.9 64.2" style="enable-background:new 0 0 515.9 64.2;" xml:space="preserve">
<style type="text/css">
	.st0{fill:#46B5C3;}
	.st1{fill:#7CD6E2;}
	.st2{enable-background:new    ;}
	.st3{fill:#FFFFFF;}
</style>
<path class="st0" d="M49.6,4.1h438.3c15.5,0,28,12.5,28,28v0c0,15.5-12.5,28-28,28H49.6c-15.5,0-28-12.5-28-28v0
	C21.5,16.6,34.1,4.1,49.6,4.1z"/>
<path class="st1" d="M96.9,10.8h380.3c11.7,0,21.3,9.5,21.3,21.3s-9.5,21.3-21.3,21.3H96.9c-11.7,0-21.3-9.5-21.3-21.3
	S85.2,10.8,96.9,10.8z"/>
<ellipse class="st1" cx="34.7" cy="32.1" rx="34.7" ry="32.1"/>
<g transform="translate(4.798 8.009)">
	<g class="st2">
		<path class="st3" d="M13,13l-2.9-7.6h0c0.1,0.6,0.1,1.3,0.1,2.1V13H9.3V4.4h1.5l2.7,7.1h0l2.7-7.1h1.5V13h-1V7.5
			c0-0.6,0-1.3,0.1-2.1h0L13.8,13H13z"/>
		<path class="st3" d="M25.5,9.8c0,1-0.3,1.9-0.8,2.5s-1.3,0.9-2.2,0.9c-0.6,0-1.1-0.1-1.5-0.4s-0.8-0.7-1-1.2s-0.4-1.1-0.4-1.8
			c0-1,0.3-1.9,0.8-2.4s1.2-0.9,2.2-0.9c0.9,0,1.6,0.3,2.1,0.9S25.5,8.8,25.5,9.8z M20.6,9.8c0,0.8,0.2,1.4,0.5,1.9s0.8,0.6,1.4,0.6
			s1.1-0.2,1.5-0.6s0.5-1.1,0.5-1.9c0-0.8-0.2-1.4-0.5-1.9s-0.8-0.6-1.5-0.6c-0.6,0-1.1,0.2-1.4,0.6S20.6,9,20.6,9.8z M21.7,5.6
			c0.2-0.2,0.4-0.5,0.6-0.9s0.4-0.6,0.5-0.9H24v0.1c-0.2,0.3-0.4,0.6-0.8,0.9s-0.6,0.7-0.9,0.9h-0.7V5.6z"/>
		<path class="st3" d="M31.6,12.1L31.6,12.1c-0.5,0.7-1.2,1-2.1,1c-0.8,0-1.5-0.3-2-0.9s-0.7-1.4-0.7-2.4s0.2-1.9,0.7-2.5
			s1.1-0.9,2-0.9c0.9,0,1.5,0.3,2,0.9h0.1l0-0.5l0-0.5V3.9h1V13h-0.8L31.6,12.1z M29.6,12.3c0.7,0,1.1-0.2,1.4-0.5s0.4-0.9,0.4-1.7
			V9.8c0-0.9-0.2-1.6-0.5-1.9s-0.8-0.6-1.5-0.6c-0.6,0-1,0.2-1.3,0.7S27.8,9,27.8,9.8c0,0.8,0.2,1.4,0.5,1.9S29,12.3,29.6,12.3z"/>
		<path class="st3" d="M35.5,6.6v4.2c0,0.5,0.1,0.9,0.4,1.2s0.6,0.4,1.1,0.4c0.7,0,1.2-0.2,1.5-0.6s0.5-1,0.5-1.8V6.6h1V13H39
			l-0.1-0.9h-0.1c-0.2,0.3-0.5,0.6-0.8,0.7s-0.8,0.3-1.2,0.3c-0.8,0-1.4-0.2-1.8-0.6s-0.6-1-0.6-1.8V6.6H35.5z"/>
		<path class="st3" d="M42.9,13h-1V3.9h1V13z"/>
		<path class="st3" d="M50.5,9.8c0,1-0.3,1.9-0.8,2.5s-1.3,0.9-2.2,0.9c-0.6,0-1.1-0.1-1.5-0.4s-0.8-0.7-1-1.2s-0.4-1.1-0.4-1.8
			c0-1,0.3-1.9,0.8-2.4s1.2-0.9,2.2-0.9c0.9,0,1.6,0.3,2.1,0.9S50.5,8.8,50.5,9.8z M45.6,9.8c0,0.8,0.2,1.4,0.5,1.9s0.8,0.6,1.4,0.6
			s1.1-0.2,1.5-0.6s0.5-1.1,0.5-1.9c0-0.8-0.2-1.4-0.5-1.9s-0.8-0.6-1.5-0.6c-0.6,0-1.1,0.2-1.4,0.6S45.6,9,45.6,9.8z"/>
	</g>
	<g class="st2">
		<path class="st3" d="M25.9,31.4c0,4.2-0.7,7.4-2.1,9.4c-1.4,2-3.5,3.1-6.4,3.1c-2.8,0-4.9-1.1-6.3-3.2c-1.4-2.1-2.1-5.2-2.1-9.3
			c0-4.3,0.7-7.4,2.1-9.5c1.4-2,3.5-3,6.4-3c2.8,0,4.9,1.1,6.4,3.2C25.2,24.2,25.9,27.3,25.9,31.4z M14,31.4c0,3,0.3,5.1,0.8,6.4
			c0.5,1.3,1.4,1.9,2.6,1.9c1.2,0,2.1-0.7,2.6-2s0.8-3.4,0.8-6.4c0-3-0.3-5.1-0.8-6.4c-0.5-1.3-1.4-2-2.6-2c-1.2,0-2.1,0.7-2.6,2
			C14.3,26.2,14,28.4,14,31.4z"/>
		<path class="st3" d="M45.4,43.5h-17v-3.6l6.1-6.2c1.8-1.8,3-3.1,3.5-3.8c0.6-0.7,1-1.4,1.2-2c0.2-0.6,0.4-1.2,0.4-1.9
			c0-1-0.3-1.7-0.8-2.2c-0.5-0.5-1.3-0.7-2.1-0.7c-0.9,0-1.9,0.2-2.7,0.6c-0.9,0.4-1.8,1-2.8,1.8l-2.8-3.3c1.2-1,2.2-1.7,3-2.2
			c0.8-0.4,1.6-0.7,2.6-1c0.9-0.2,2-0.3,3.1-0.3c1.5,0,2.9,0.3,4,0.8s2.1,1.3,2.7,2.3c0.6,1,1,2.1,1,3.4c0,1.1-0.2,2.2-0.6,3.1
			c-0.4,1-1,2-1.8,3c-0.8,1-2.3,2.5-4.4,4.4L34.9,39v0.2h10.6V43.5z"/>
	</g>
</g>
<g class="st2">
	<path class="st3" d="M85.3,38H84V27.8h-3.6v-1.2H89v1.2h-3.6V38z"/>
	<path class="st3" d="M97,38h-6.4V26.6H97v1.2h-5v3.7h4.7v1.2H92v4.2h5V38z"/>
	<path class="st3" d="M100.9,33.3V38h-1.3V26.6h3.1c1.4,0,2.4,0.3,3.1,0.8c0.7,0.5,1,1.3,1,2.4c0,1.5-0.8,2.5-2.3,3.1l3.1,5.1H106
		l-2.8-4.8H100.9z M100.9,32.2h1.8c0.9,0,1.6-0.2,2.1-0.6s0.7-0.9,0.7-1.7c0-0.8-0.2-1.3-0.7-1.6s-1.2-0.5-2.1-0.5h-1.7V32.2z"/>
	<path class="st3" d="M110.8,33.3V38h-1.3V26.6h3.1c1.4,0,2.4,0.3,3.1,0.8c0.7,0.5,1,1.3,1,2.4c0,1.5-0.8,2.5-2.3,3.1l3.1,5.1h-1.6
		l-2.8-4.8H110.8z M110.8,32.2h1.8c0.9,0,1.6-0.2,2.1-0.6s0.7-0.9,0.7-1.7c0-0.8-0.2-1.3-0.7-1.6s-1.2-0.5-2.1-0.5h-1.7V32.2z"/>
	<path class="st3" d="M119.4,38V26.6h1.3V38H119.4z"/>
	<path class="st3" d="M127.3,38H126V27.8h-3.6v-1.2h8.6v1.2h-3.6V38z"/>
	<path class="st3" d="M142.6,32.3c0,1.8-0.5,3.3-1.4,4.3c-0.9,1-2.2,1.6-3.9,1.6c-1.7,0-3-0.5-3.9-1.5s-1.4-2.5-1.4-4.4
		c0-1.9,0.5-3.3,1.4-4.3c0.9-1,2.2-1.5,3.9-1.5c1.6,0,2.9,0.5,3.8,1.6S142.6,30.5,142.6,32.3z M133.5,32.3c0,1.5,0.3,2.7,1,3.5
		c0.7,0.8,1.6,1.2,2.9,1.2c1.3,0,2.2-0.4,2.9-1.2c0.6-0.8,1-2,1-3.5c0-1.5-0.3-2.7-1-3.5c-0.6-0.8-1.6-1.2-2.9-1.2
		c-1.3,0-2.2,0.4-2.9,1.2C133.8,29.6,133.5,30.8,133.5,32.3z M136.2,25.5c0.2-0.3,0.5-0.7,0.8-1.2s0.5-0.9,0.7-1.2h1.6v0.2
		c-0.2,0.3-0.6,0.8-1,1.2s-0.8,0.9-1.2,1.1h-0.9V25.5z"/>
	<path class="st3" d="M146.5,33.3V38h-1.3V26.6h3.1c1.4,0,2.4,0.3,3.1,0.8c0.7,0.5,1,1.3,1,2.4c0,1.5-0.8,2.5-2.3,3.1l3.1,5.1h-1.6
		l-2.8-4.8H146.5z M146.5,32.2h1.8c0.9,0,1.6-0.2,2.1-0.6s0.7-0.9,0.7-1.7c0-0.8-0.2-1.3-0.7-1.6s-1.2-0.5-2.1-0.5h-1.7V32.2z"/>
	<path class="st3" d="M155,38V26.6h1.3V38H155z"/>
	<path class="st3" d="M169.4,32.3c0,1.8-0.5,3.3-1.4,4.3c-0.9,1-2.2,1.6-3.9,1.6c-1.7,0-3-0.5-3.9-1.5s-1.4-2.5-1.4-4.4
		c0-1.9,0.5-3.3,1.4-4.3c0.9-1,2.2-1.5,3.9-1.5c1.6,0,2.9,0.5,3.8,1.6S169.4,30.5,169.4,32.3z M160.3,32.3c0,1.5,0.3,2.7,1,3.5
		c0.7,0.8,1.6,1.2,2.9,1.2c1.3,0,2.2-0.4,2.9-1.2c0.6-0.8,1-2,1-3.5c0-1.5-0.3-2.7-1-3.5c-0.6-0.8-1.6-1.2-2.9-1.2
		c-1.3,0-2.2,0.4-2.9,1.2C160.6,29.6,160.3,30.8,160.3,32.3z"/>
	<path class="st3" d="M178.4,35c0,1-0.4,1.8-1.1,2.4c-0.7,0.6-1.7,0.8-3,0.8c-1.4,0-2.4-0.2-3.1-0.5v-1.3c0.5,0.2,1,0.4,1.5,0.5
		c0.6,0.1,1.1,0.2,1.6,0.2c0.9,0,1.6-0.2,2-0.5c0.4-0.3,0.7-0.8,0.7-1.4c0-0.4-0.1-0.7-0.2-1c-0.2-0.3-0.4-0.5-0.8-0.7
		c-0.4-0.2-0.9-0.5-1.7-0.7c-1.1-0.4-1.8-0.8-2.3-1.4c-0.5-0.5-0.7-1.2-0.7-2c0-0.9,0.3-1.6,1-2.1c0.7-0.5,1.5-0.8,2.6-0.8
		c1.1,0,2.2,0.2,3.1,0.6l-0.4,1.2c-0.9-0.4-1.9-0.6-2.8-0.6c-0.7,0-1.3,0.2-1.6,0.5c-0.4,0.3-0.6,0.7-0.6,1.3c0,0.4,0.1,0.7,0.2,1
		c0.1,0.3,0.4,0.5,0.7,0.7c0.3,0.2,0.9,0.4,1.6,0.7c1.2,0.4,2,0.9,2.5,1.4C178.2,33.6,178.4,34.2,178.4,35z"/>
	<path class="st3" d="M191.2,38h-6.4V26.6h6.4v1.2h-5v3.7h4.7v1.2h-4.7v4.2h5V38z"/>
	<path class="st3" d="M202.8,27.7c-1.3,0-2.2,0.4-3,1.3s-1.1,2-1.1,3.4c0,1.5,0.4,2.6,1.1,3.5c0.7,0.8,1.7,1.2,3,1.2
		c0.8,0,1.7-0.1,2.7-0.4v1.2c-0.8,0.3-1.8,0.4-2.9,0.4c-1.7,0-3-0.5-3.9-1.5s-1.4-2.5-1.4-4.4c0-1.2,0.2-2.2,0.7-3.1
		c0.4-0.9,1.1-1.6,1.9-2c0.8-0.5,1.8-0.7,2.9-0.7c1.2,0,2.2,0.2,3.1,0.7l-0.6,1.1C204.6,27.9,203.7,27.7,202.8,27.7z"/>
	<path class="st3" d="M217.9,32.3c0,1.8-0.5,3.3-1.4,4.3c-0.9,1-2.2,1.6-3.9,1.6c-1.7,0-3-0.5-3.9-1.5s-1.4-2.5-1.4-4.4
		c0-1.9,0.5-3.3,1.4-4.3c0.9-1,2.2-1.5,3.9-1.5c1.6,0,2.9,0.5,3.8,1.6S217.9,30.5,217.9,32.3z M208.8,32.3c0,1.5,0.3,2.7,1,3.5
		c0.7,0.8,1.6,1.2,2.9,1.2c1.3,0,2.2-0.4,2.9-1.2c0.6-0.8,1-2,1-3.5c0-1.5-0.3-2.7-1-3.5c-0.6-0.8-1.6-1.2-2.9-1.2
		c-1.3,0-2.2,0.4-2.9,1.2C209.2,29.6,208.8,30.8,208.8,32.3z"/>
	<path class="st3" d="M229.4,38h-1.5l-6.2-9.6h-0.1c0.1,1.1,0.1,2.2,0.1,3.1V38h-1.2V26.6h1.5l6.2,9.5h0.1c0-0.1,0-0.6-0.1-1.4
		c0-0.8,0-1.3,0-1.6v-6.6h1.2V38z"/>
	<path class="st3" d="M236.1,38h-1.3V27.8h-3.6v-1.2h8.6v1.2h-3.6V38z"/>
	<path class="st3" d="M247.8,38h-6.4V26.6h6.4v1.2h-5v3.7h4.7v1.2h-4.7v4.2h5V38z"/>
	<path class="st3" d="M257.9,38h-1.5l-3.1-5l-3.1,5h-1.4l3.8-6l-3.5-5.5h1.5l2.8,4.5l2.9-4.5h1.4l-3.5,5.4L257.9,38z"/>
	<path class="st3" d="M263,38h-1.3V27.8h-3.6v-1.2h8.6v1.2H263V38z"/>
	<path class="st3" d="M278.3,32.3c0,1.8-0.5,3.3-1.4,4.3s-2.2,1.6-3.9,1.6c-1.7,0-3-0.5-3.9-1.5s-1.4-2.5-1.4-4.4
		c0-1.9,0.5-3.3,1.4-4.3s2.2-1.5,3.9-1.5c1.6,0,2.9,0.5,3.8,1.6S278.3,30.5,278.3,32.3z M269.2,32.3c0,1.5,0.3,2.7,1,3.5
		s1.6,1.2,2.9,1.2c1.3,0,2.2-0.4,2.9-1.2s1-2,1-3.5c0-1.5-0.3-2.7-1-3.5s-1.6-1.2-2.9-1.2c-1.3,0-2.2,0.4-2.9,1.2
		S269.2,30.8,269.2,32.3z"/>
	<path class="st3" d="M287.3,35c0,1-0.4,1.8-1.1,2.4s-1.7,0.8-3,0.8c-1.4,0-2.4-0.2-3.1-0.5v-1.3c0.5,0.2,1,0.4,1.5,0.5
		s1.1,0.2,1.6,0.2c0.9,0,1.6-0.2,2-0.5s0.7-0.8,0.7-1.4c0-0.4-0.1-0.7-0.2-1s-0.4-0.5-0.8-0.7s-0.9-0.5-1.7-0.7
		c-1.1-0.4-1.8-0.8-2.3-1.4s-0.7-1.2-0.7-2c0-0.9,0.3-1.6,1-2.1s1.5-0.8,2.6-0.8c1.1,0,2.2,0.2,3.1,0.6l-0.4,1.2
		c-0.9-0.4-1.9-0.6-2.8-0.6c-0.7,0-1.3,0.2-1.6,0.5s-0.6,0.7-0.6,1.3c0,0.4,0.1,0.7,0.2,1s0.4,0.5,0.7,0.7s0.9,0.4,1.6,0.7
		c1.2,0.4,2,0.9,2.5,1.4S287.3,34.2,287.3,35z"/>
	<path class="st3" d="M302.9,32.2c0,1.9-0.5,3.3-1.5,4.3s-2.5,1.5-4.4,1.5h-3.2V26.6h3.5c1.8,0,3.2,0.5,4.1,1.5
		S302.9,30.5,302.9,32.2z M301.5,32.3c0-1.5-0.4-2.6-1.1-3.4s-1.9-1.1-3.3-1.1h-1.9v9.1h1.6c1.6,0,2.8-0.4,3.6-1.2
		S301.5,33.8,301.5,32.3z"/>
	<path class="st3" d="M312.6,38l-1.4-3.6h-4.6l-1.4,3.6h-1.3l4.5-11.5h1.1L314,38H312.6z M310.8,33.2l-1.3-3.5
		c-0.2-0.4-0.3-1-0.5-1.6c-0.1,0.5-0.3,1-0.5,1.6l-1.3,3.5H310.8z"/>
	<path class="st3" d="M322,35c0,1-0.4,1.8-1.1,2.4s-1.7,0.8-3,0.8c-1.4,0-2.4-0.2-3.1-0.5v-1.3c0.5,0.2,1,0.4,1.5,0.5
		s1.1,0.2,1.6,0.2c0.9,0,1.6-0.2,2-0.5s0.7-0.8,0.7-1.4c0-0.4-0.1-0.7-0.2-1s-0.4-0.5-0.8-0.7s-0.9-0.5-1.7-0.7
		c-1.1-0.4-1.8-0.8-2.3-1.4s-0.7-1.2-0.7-2c0-0.9,0.3-1.6,1-2.1s1.5-0.8,2.6-0.8c1.1,0,2.2,0.2,3.1,0.6l-0.4,1.2
		c-0.9-0.4-1.9-0.6-2.8-0.6c-0.7,0-1.3,0.2-1.6,0.5s-0.6,0.7-0.6,1.3c0,0.4,0.1,0.7,0.2,1s0.4,0.5,0.7,0.7s0.9,0.4,1.6,0.7
		c1.2,0.4,2,0.9,2.5,1.4S322,34.2,322,35z"/>
	<path class="st3" d="M335.8,30c0,1.2-0.4,2-1.2,2.7s-1.9,0.9-3.4,0.9h-1.3V38h-1.3V26.6h3C334.3,26.6,335.8,27.7,335.8,30z
		 M329.8,32.4h1.2c1.2,0,2-0.2,2.6-0.6s0.8-1,0.8-1.8c0-0.8-0.2-1.3-0.7-1.7s-1.3-0.6-2.3-0.6h-1.5V32.4z"/>
	<path class="st3" d="M348.1,32.3c0,1.8-0.5,3.3-1.4,4.3s-2.2,1.6-3.9,1.6c-1.7,0-3-0.5-3.9-1.5s-1.4-2.5-1.4-4.4
		c0-1.9,0.5-3.3,1.4-4.3s2.2-1.5,3.9-1.5c1.6,0,2.9,0.5,3.8,1.6S348.1,30.5,348.1,32.3z M339,32.3c0,1.5,0.3,2.7,1,3.5
		s1.6,1.2,2.9,1.2c1.3,0,2.2-0.4,2.9-1.2s1-2,1-3.5c0-1.5-0.3-2.7-1-3.5s-1.6-1.2-2.9-1.2c-1.3,0-2.2,0.4-2.9,1.2S339,30.8,339,32.3
		z"/>
	<path class="st3" d="M350.6,38V26.6h1.3v10.2h5V38H350.6z"/>
	<path class="st3" d="M358.7,25.5c0.2-0.3,0.5-0.7,0.8-1.2s0.5-0.9,0.7-1.2h1.6v0.2c-0.2,0.3-0.6,0.8-1,1.2s-0.8,0.9-1.2,1.1h-0.9
		V25.5z M358.9,38V26.6h1.3V38H358.9z"/>
	<path class="st3" d="M366.9,38h-1.3V27.8h-3.6v-1.2h8.6v1.2h-3.6V38z"/>
	<path class="st3" d="M372.2,38V26.6h1.3V38H372.2z"/>
	<path class="st3" d="M381.6,27.7c-1.3,0-2.2,0.4-3,1.3s-1.1,2-1.1,3.4c0,1.5,0.4,2.6,1.1,3.5s1.7,1.2,3,1.2c0.8,0,1.7-0.1,2.7-0.4
		v1.2c-0.8,0.3-1.8,0.4-2.9,0.4c-1.7,0-3-0.5-3.9-1.5s-1.4-2.5-1.4-4.4c0-1.2,0.2-2.2,0.7-3.1s1.1-1.6,1.9-2s1.8-0.7,2.9-0.7
		c1.2,0,2.2,0.2,3.1,0.7l-0.6,1.1C383.3,27.9,382.4,27.7,381.6,27.7z"/>
	<path class="st3" d="M394,38l-1.4-3.6H388l-1.4,3.6h-1.3l4.5-11.5h1.1l4.5,11.5H394z M392.1,33.2l-1.3-3.5c-0.2-0.4-0.3-1-0.5-1.6
		c-0.1,0.5-0.3,1-0.5,1.6l-1.3,3.5H392.1z"/>
	<path class="st3" d="M403.3,35c0,1-0.4,1.8-1.1,2.4s-1.7,0.8-3,0.8c-1.4,0-2.4-0.2-3.1-0.5v-1.3c0.5,0.2,1,0.4,1.5,0.5
		s1.1,0.2,1.6,0.2c0.9,0,1.6-0.2,2-0.5s0.7-0.8,0.7-1.4c0-0.4-0.1-0.7-0.2-1s-0.4-0.5-0.8-0.7s-0.9-0.5-1.7-0.7
		c-1.1-0.4-1.8-0.8-2.3-1.4s-0.7-1.2-0.7-2c0-0.9,0.3-1.6,1-2.1s1.5-0.8,2.6-0.8c1.1,0,2.2,0.2,3.1,0.6l-0.4,1.2
		c-0.9-0.4-1.9-0.6-2.8-0.6c-0.7,0-1.3,0.2-1.6,0.5s-0.6,0.7-0.6,1.3c0,0.4,0.1,0.7,0.2,1s0.4,0.5,0.7,0.7s0.9,0.4,1.6,0.7
		c1.2,0.4,2,0.9,2.5,1.4S403.3,34.2,403.3,35z"/>
	<path class="st3" d="M419,32.2c0,1.9-0.5,3.3-1.5,4.3S414.9,38,413,38h-3.2V26.6h3.5c1.8,0,3.2,0.5,4.1,1.5S419,30.5,419,32.2z
		 M417.5,32.3c0-1.5-0.4-2.6-1.1-3.4s-1.9-1.1-3.3-1.1h-1.9v9.1h1.6c1.6,0,2.8-0.4,3.6-1.2S417.5,33.8,417.5,32.3z"/>
	<path class="st3" d="M427.9,38h-6.4V26.6h6.4v1.2h-5v3.7h4.7v1.2h-4.7v4.2h5V38z"/>
	<path class="st3" d="M441,35c0,1-0.4,1.8-1.1,2.4s-1.7,0.8-3,0.8c-1.4,0-2.4-0.2-3.1-0.5v-1.3c0.5,0.2,1,0.4,1.5,0.5
		s1.1,0.2,1.6,0.2c0.9,0,1.6-0.2,2-0.5s0.7-0.8,0.7-1.4c0-0.4-0.1-0.7-0.2-1s-0.4-0.5-0.8-0.7s-0.9-0.5-1.7-0.7
		c-1.1-0.4-1.8-0.8-2.3-1.4s-0.7-1.2-0.7-2c0-0.9,0.3-1.6,1-2.1s1.5-0.8,2.6-0.8c1.1,0,2.2,0.2,3.1,0.6l-0.4,1.2
		c-0.9-0.4-1.9-0.6-2.8-0.6c-0.7,0-1.3,0.2-1.6,0.5s-0.6,0.7-0.6,1.3c0,0.4,0.1,0.7,0.2,1s0.4,0.5,0.7,0.7s0.9,0.4,1.6,0.7
		c1.2,0.4,2,0.9,2.5,1.4S441,34.2,441,35z"/>
	<path class="st3" d="M450.5,38l-1.4-3.6h-4.6l-1.4,3.6h-1.3l4.5-11.5h1.1l4.5,11.5H450.5z M448.7,33.2l-1.3-3.5
		c-0.2-0.4-0.3-1-0.5-1.6c-0.1,0.5-0.3,1-0.5,1.6l-1.3,3.5H448.7z"/>
	<path class="st3" d="M462.1,26.6V34c0,1.3-0.4,2.3-1.2,3.1s-1.9,1.1-3.2,1.1s-2.4-0.4-3.2-1.1s-1.1-1.8-1.1-3.1v-7.4h1.3v7.5
		c0,1,0.3,1.7,0.8,2.2s1.3,0.8,2.3,0.8c1,0,1.7-0.3,2.2-0.8s0.8-1.2,0.8-2.2v-7.4H462.1z M456.6,25.5c0.2-0.3,0.5-0.7,0.8-1.2
		s0.5-0.9,0.7-1.2h1.6v0.2c-0.2,0.3-0.6,0.8-1,1.2s-0.8,0.9-1.2,1.1h-0.9V25.5z"/>
	<path class="st3" d="M474.2,32.2c0,1.9-0.5,3.3-1.5,4.3s-2.5,1.5-4.4,1.5h-3.2V26.6h3.5c1.8,0,3.2,0.5,4.1,1.5
		S474.2,30.5,474.2,32.2z M472.8,32.3c0-1.5-0.4-2.6-1.1-3.4s-1.9-1.1-3.3-1.1h-1.9v9.1h1.6c1.6,0,2.8-0.4,3.6-1.2
		S472.8,33.8,472.8,32.3z"/>
	<path class="st3" d="M483.1,38h-6.4V26.6h6.4v1.2h-5v3.7h4.7v1.2h-4.7v4.2h5V38z"/>
</g>
</svg>
