<?xml version="1.0" encoding="UTF-8"?><svg id="Camada_1" xmlns="http://www.w3.org/2000/svg" viewBox="0 0 557.19 265.23"><defs><style>.cls-1{fill:#ef6828;}.cls-2{fill:#d3e7ee;}.cls-3{fill:#105da6;}</style></defs><rect class="cls-2" x="173.79" y="208.09" width="181.89" height="57.14"/><g><path class="cls-1" d="m64.56,143.85c-.49,0-.87-.17-1.14-.51-.22-.28-.31-.64-.27-1v-20.99c0-.69.56-1.25,1.25-1.25s1.25.56,1.25,1.25v20h68.23c.69,0,1.25.56,1.25,1.25s-.56,1.25-1.25,1.25h-69.17s-.04,0-.06,0c-.03,0-.06,0-.09,0Zm1.04-1.04s0,0,0,0c0,0,0,0,0,0Z"/><path class="cls-1" d="m126.37,148.95c-.4,0-.79-.19-1.04-.55-.39-.57-.24-1.35.33-1.74l5.99-4.07-5.99-4.07c-.57-.39-.72-1.17-.33-1.74.39-.57,1.17-.72,1.74-.33l7.51,5.1c.34.23.55.62.55,1.03s-.21.8-.55,1.03l-7.51,5.1c-.21.15-.46.22-.7.22Z"/></g><g><path class="cls-1" d="m184,38.67h-35.27c-.42,0-.76-.56-.76-1.25s.34-1.25.76-1.25h35.27c.42,0,.76.56.76,1.25s-.34,1.25-.76,1.25Z"/><path class="cls-1" d="m177,43.77c-.4,0-.79-.19-1.04-.55-.39-.57-.24-1.35.33-1.74l5.99-4.07-5.99-4.07c-.57-.39-.72-1.17-.33-1.74.39-.57,1.17-.72,1.74-.33l7.51,5.1c.34.23.55.62.55,1.03s-.2.8-.55,1.03l-7.51,5.1c-.21.15-.46.22-.7.22Z"/><path class="cls-1" d="m153.51,43.77c.4,0,.79-.19,1.04-.55.39-.57.24-1.35-.33-1.74l-5.99-4.07,5.99-4.07c.57-.39.72-1.17.33-1.74-.39-.57-1.17-.72-1.74-.33l-7.51,5.1c-.34.23-.55.62-.55,1.03s.2.8.55,1.03l7.51,5.1c.21.15.46.22.7.22Z"/></g><g><path class="cls-1" d="m380.06,38.67h-35.27c-.42,0-.76-.56-.76-1.25s.34-1.25.76-1.25h35.27c.42,0,.76.56.76,1.25s-.34,1.25-.76,1.25Z"/><path class="cls-1" d="m373.07,43.77c-.4,0-.79-.19-1.04-.55-.39-.57-.24-1.35.33-1.74l5.99-4.07-5.99-4.07c-.57-.39-.72-1.17-.33-1.74.39-.57,1.17-.72,1.74-.33l7.51,5.1c.34.23.55.62.55,1.03s-.2.8-.55,1.03l-7.51,5.1c-.21.15-.46.22-.7.22Z"/><path class="cls-1" d="m349.58,43.77c.4,0,.79-.19,1.04-.55.39-.57.24-1.35-.33-1.74l-5.99-4.07,5.99-4.07c.57-.39.72-1.17.33-1.74-.39-.57-1.17-.72-1.74-.33l-7.51,5.1c-.34.23-.55.62-.55,1.03s.2.8.55,1.03l7.51,5.1c.21.15.46.22.7.22Z"/></g><g><path class="cls-1" d="m263.48,100.57v-35.27c0-.42.56-.76,1.25-.76s1.25.34,1.25.76v35.27c0,.42-.56.76-1.25.76s-1.25-.34-1.25-.76Z"/><path class="cls-1" d="m258.38,92.57c0-.4.19-.79.55-1.04.57-.39,1.35-.24,1.74.33l4.07,5.99,4.07-5.99c.39-.57,1.17-.72,1.74-.33.57.39.72,1.17.33,1.74l-5.1,7.51c-.23.34-.62.55-1.03.55s-.8-.21-1.03-.55l-5.1-7.51c-.15-.21-.22-.46-.22-.7Z"/></g><g><path class="cls-1" d="m263.48,203.05v-35.27c0-.42.56-.76,1.25-.76s1.25.34,1.25.76v35.27c0,.42-.56.76-1.25.76s-1.25-.34-1.25-.76Z"/><path class="cls-1" d="m258.38,195.05c0-.4.19-.79.55-1.04.57-.39,1.35-.24,1.74.33l4.07,5.99,4.07-5.99c.39-.57,1.17-.72,1.74-.33.57.39.72,1.17.33,1.74l-5.1,7.51c-.23.34-.62.55-1.03.55s-.8-.21-1.03-.55l-5.1-7.51c-.15-.21-.22-.46-.22-.7Z"/></g><g><path class="cls-1" d="m468.37,121.82c-.69,0-1.25.56-1.25,1.25v20h-68.23c-.69,0-1.25.56-1.25,1.25s.56,1.25,1.25,1.25h69.17s.04,0,.06,0c.53.03.95-.15,1.23-.51.22-.28.31-.64.27-1v-20.99c0-.69-.56-1.25-1.25-1.25Zm-1.19,22.72s0,0,0,0c0,0,0,0,0,0Z"/><path class="cls-1" d="m406.4,137.97c-.24,0-.49.07-.7.22l-7.51,5.1c-.34.23-.55.62-.55,1.03s.21.8.55,1.03l7.51,5.1c.57.39,1.35.24,1.74-.33.39-.57.24-1.35-.33-1.74l-5.99-4.07,5.99-4.07c.57-.39.72-1.17.33-1.74-.24-.36-.64-.55-1.04-.55Z"/></g><rect class="cls-2" width="134.45" height="74.85"/><g><path class="cls-3" d="m6.1,18.07h-1.79v-8.57h4.91v1.49h-3.12v2.21h2.91v1.48h-2.91v3.39Z"/><path class="cls-3" d="m10.89,18.07v-8.57h1.82v7.07h3.47v1.5h-5.29Z"/><path class="cls-3" d="m24.65,9.5v5.54c0,.63-.14,1.19-.42,1.66s-.69.84-1.23,1.1-1.17.38-1.9.38c-1.1,0-1.96-.28-2.57-.85s-.91-1.34-.91-2.32v-5.52h1.81v5.24c0,.66.13,1.14.4,1.45s.71.46,1.32.46,1.02-.16,1.29-.47.4-.8.4-1.46v-5.23h1.81Z"/><path class="cls-3" d="m33.67,18.07h-2.07l-1.99-3.24-1.99,3.24h-1.95l2.84-4.42-2.66-4.15h2l1.85,3.08,1.81-3.08h1.96l-2.69,4.25,2.89,4.32Z"/><path class="cls-3" d="m42.52,13.77c0,1.42-.35,2.51-1.05,3.27s-1.71,1.14-3.02,1.14-2.32-.38-3.02-1.14-1.05-1.86-1.05-3.28.35-2.51,1.06-3.27,1.72-1.13,3.03-1.13,2.32.38,3.02,1.14,1.05,1.85,1.05,3.27Zm-6.25,0c0,.96.18,1.68.54,2.16s.91.73,1.63.73c1.45,0,2.17-.96,2.17-2.89s-.72-2.89-2.16-2.89c-.72,0-1.27.24-1.63.73s-.55,1.21-.55,2.17Z"/><path class="cls-3" d="m54.52,13.7c0,1.41-.4,2.49-1.2,3.24s-1.96,1.12-3.48,1.12h-2.43v-8.57h2.69c1.4,0,2.48.37,3.26,1.11s1.16,1.77,1.16,3.09Zm-1.89.05c0-1.84-.81-2.76-2.44-2.76h-.97v5.58h.78c1.75,0,2.62-.94,2.62-2.82Z"/><path class="cls-3" d="m61.23,18.07h-4.93v-8.57h4.93v1.49h-3.12v1.88h2.9v1.49h-2.9v2.21h3.12v1.5Z"/><path class="cls-3" d="m72.05,12.17c0,.92-.29,1.63-.86,2.12s-1.4.73-2.46.73h-.78v3.05h-1.82v-8.57h2.74c1.04,0,1.83.22,2.37.67s.81,1.11.81,2Zm-4.1,1.36h.6c.56,0,.98-.11,1.25-.33s.42-.54.42-.96-.12-.74-.35-.94-.6-.3-1.09-.3h-.83v2.54Z"/><path class="cls-3" d="m75.49,14.78v3.29h-1.82v-8.57h2.5c1.16,0,2.03.21,2.58.64s.84,1.07.84,1.93c0,.5-.14.95-.42,1.34s-.67.7-1.18.92c1.29,1.93,2.13,3.17,2.52,3.73h-2.02l-2.04-3.29h-.97Zm0-1.48h.59c.57,0,1-.1,1.27-.29s.41-.49.41-.9-.14-.7-.42-.87-.71-.26-1.3-.26h-.55v2.31Z"/><path class="cls-3" d="m89.37,13.77c0,1.42-.35,2.51-1.05,3.27s-1.71,1.14-3.02,1.14-2.32-.38-3.02-1.14-1.05-1.86-1.05-3.28.35-2.51,1.06-3.27,1.72-1.13,3.03-1.13,2.32.38,3.02,1.14,1.05,1.85,1.05,3.27Zm-6.25,0c0,.96.18,1.68.54,2.16s.91.73,1.63.73c1.45,0,2.17-.96,2.17-2.89s-.72-2.89-2.16-2.89c-.72,0-1.27.24-1.63.73s-.55,1.21-.55,2.17Z"/><path class="cls-3" d="m91.14,9.5h2.67c1.21,0,2.1.17,2.65.52s.82.9.82,1.65c0,.51-.12.93-.36,1.26s-.56.53-.96.59v.06c.54.12.93.35,1.17.68s.36.77.36,1.32c0,.78-.28,1.39-.85,1.83s-1.33.66-2.3.66h-3.21v-8.57Zm1.82,3.39h1.05c.49,0,.85-.08,1.07-.23s.33-.4.33-.76c0-.33-.12-.56-.36-.71s-.62-.21-1.14-.21h-.96v1.9Zm0,1.44v2.23h1.18c.5,0,.87-.1,1.11-.29s.36-.48.36-.88c0-.71-.51-1.07-1.52-1.07h-1.12Z"/><path class="cls-3" d="m99.21,18.07v-8.57h1.82v7.07h3.47v1.5h-5.29Z"/><path class="cls-3" d="m110.92,18.07h-4.93v-8.57h4.93v1.49h-3.12v1.88h2.9v1.49h-2.9v2.21h3.12v1.5Z"/><path class="cls-3" d="m116.33,18.07l-2.06-6.72h-.05c.07,1.37.11,2.28.11,2.74v3.98h-1.62v-8.57h2.47l2.03,6.55h.04l2.15-6.55h2.47v8.57h-1.69v-4.05c0-.19,0-.41,0-.66s.03-.91.08-1.99h-.05l-2.21,6.71h-1.66Z"/><path class="cls-3" d="m129.27,18.07l-.62-2.04h-3.12l-.62,2.04h-1.96l3.02-8.6h2.22l3.04,8.6h-1.96Zm-1.05-3.56c-.57-1.85-.9-2.89-.97-3.13s-.12-.43-.16-.57c-.13.5-.5,1.74-1.11,3.71h2.23Z"/></g><g><path class="cls-3" d="m35.68,34.36v-8.57h1v8.57h-1Z"/><path class="cls-3" d="m43.28,34.36v-4.15c0-.52-.12-.91-.36-1.17s-.61-.39-1.12-.39c-.67,0-1.16.18-1.48.54s-.47.96-.47,1.8v3.37h-.97v-6.42h.79l.16.88h.05c.2-.32.48-.56.84-.74s.76-.26,1.2-.26c.77,0,1.36.19,1.75.56s.59.97.59,1.79v4.19h-.97Z"/><path class="cls-3" d="m50.62,33.5h-.05c-.45.65-1.12.98-2.02.98-.84,0-1.49-.29-1.96-.86s-.7-1.39-.7-2.45.23-1.88.7-2.47,1.12-.88,1.96-.88,1.54.32,2,.95h.08l-.04-.46-.02-.45v-2.61h.97v9.12h-.79l-.13-.86Zm-1.95.16c.66,0,1.15-.18,1.44-.54s.45-.94.45-1.75v-.21c0-.91-.15-1.56-.45-1.95s-.79-.58-1.45-.58c-.57,0-1.01.22-1.31.67s-.45,1.07-.45,1.88.15,1.44.45,1.86.74.63,1.32.63Z"/><path class="cls-3" d="m53.52,26.2c0-.22.05-.39.16-.49s.25-.16.41-.16.29.05.4.16.17.27.17.49-.06.38-.17.49-.25.16-.4.16c-.16,0-.3-.05-.41-.16s-.16-.27-.16-.49Zm1.05,8.16h-.97v-6.42h.97v6.42Z"/><path class="cls-3" d="m59.2,34.48c-.93,0-1.65-.29-2.16-.86s-.76-1.38-.76-2.43.26-1.9.78-2.49,1.25-.88,2.21-.88c.31,0,.62.03.93.1s.55.14.73.23l-.3.83c-.21-.09-.45-.16-.7-.21s-.48-.08-.67-.08c-1.3,0-1.96.83-1.96,2.5,0,.79.16,1.39.48,1.82s.79.63,1.42.63c.54,0,1.08-.12,1.65-.35v.86c-.43.22-.97.33-1.62.33Z"/><path class="cls-3" d="m66.3,34.36l-.19-.91h-.05c-.32.4-.64.67-.96.82s-.72.21-1.19.21c-.64,0-1.14-.16-1.5-.49s-.54-.79-.54-1.4c0-1.3,1.04-1.98,3.11-2.04l1.09-.04v-.4c0-.5-.11-.88-.33-1.12s-.56-.36-1.04-.36c-.54,0-1.14.16-1.82.49l-.3-.74c.32-.17.66-.31,1.04-.4s.75-.15,1.13-.15c.77,0,1.33.17,1.7.51s.55.88.55,1.63v4.38h-.72Zm-2.2-.69c.61,0,1.08-.17,1.43-.5s.52-.8.52-1.39v-.58l-.97.04c-.77.03-1.33.15-1.67.36s-.51.54-.51.99c0,.35.11.62.32.8s.51.28.89.28Z"/><path class="cls-3" d="m73.39,33.5h-.05c-.45.65-1.12.98-2.02.98-.84,0-1.49-.29-1.96-.86s-.7-1.39-.7-2.45.23-1.88.7-2.47,1.12-.88,1.96-.88,1.54.32,2,.95h.08l-.04-.46-.02-.45v-2.61h.97v9.12h-.79l-.13-.86Zm-1.95.16c.66,0,1.15-.18,1.44-.54s.45-.94.45-1.75v-.21c0-.91-.15-1.56-.45-1.95s-.79-.58-1.45-.58c-.57,0-1.01.22-1.31.67s-.45,1.07-.45,1.88.15,1.44.45,1.86.74.63,1.32.63Z"/><path class="cls-3" d="m81.92,31.14c0,1.05-.26,1.86-.79,2.45s-1.26.88-2.19.88c-.57,0-1.08-.13-1.53-.4s-.79-.66-1.03-1.16-.36-1.09-.36-1.77c0-1.05.26-1.86.79-2.45s1.25-.88,2.18-.88,1.61.3,2.14.9.79,1.41.79,2.43Zm-4.89,0c0,.82.16,1.45.49,1.88s.81.64,1.45.64,1.12-.21,1.45-.64.5-1.05.5-1.88-.17-1.44-.5-1.86-.82-.64-1.46-.64-1.12.21-1.44.63-.49,1.04-.49,1.87Z"/><path class="cls-3" d="m86.55,27.82c.29,0,.54.02.77.07l-.13.9c-.27-.06-.5-.09-.7-.09-.52,0-.96.21-1.33.63s-.55.95-.55,1.58v3.45h-.97v-6.42h.8l.11,1.19h.05c.24-.42.53-.74.86-.97s.71-.34,1.11-.34Z"/><path class="cls-3" d="m91.24,34.48c-.95,0-1.7-.29-2.25-.87s-.82-1.38-.82-2.41.25-1.86.76-2.47,1.19-.91,2.05-.91c.8,0,1.44.26,1.91.79s.7,1.23.7,2.09v.62h-4.42c.02.75.21,1.33.57,1.72s.87.59,1.53.59c.69,0,1.38-.14,2.05-.43v.87c-.34.15-.67.25-.98.32s-.68.1-1.11.1Zm-.26-5.84c-.52,0-.93.17-1.23.5s-.49.8-.54,1.39h3.36c0-.61-.14-1.08-.41-1.41s-.66-.49-1.17-.49Z"/><path class="cls-3" d="m99.4,32.61c0,.6-.22,1.06-.67,1.38s-1.07.49-1.88.49c-.85,0-1.52-.13-1.99-.4v-.9c.31.16.64.28.99.37s.69.13,1.02.13c.51,0,.9-.08,1.17-.24s.41-.41.41-.74c0-.25-.11-.46-.33-.64s-.64-.39-1.27-.63c-.6-.22-1.02-.42-1.27-.58s-.44-.35-.56-.57-.18-.46-.18-.76c0-.52.21-.94.64-1.24s1.01-.45,1.75-.45c.69,0,1.37.14,2.03.42l-.35.79c-.64-.27-1.23-.4-1.75-.4-.46,0-.81.07-1.04.22s-.35.34-.35.6c0,.17.04.32.13.44s.23.24.42.35.57.27,1.12.47c.76.28,1.28.56,1.54.84s.4.63.4,1.06Z"/><path class="cls-3" d="m26.72,40.96c-.94,0-1.68.31-2.23.94s-.82,1.49-.82,2.58.26,1.99.79,2.6,1.27.92,2.25.92c.6,0,1.28-.11,2.04-.32v.87c-.59.22-1.33.33-2.2.33-1.26,0-2.24-.38-2.92-1.15s-1.03-1.85-1.03-3.26c0-.88.17-1.66.5-2.32s.81-1.18,1.43-1.54,1.36-.54,2.2-.54c.9,0,1.68.16,2.36.49l-.42.86c-.65-.3-1.3-.46-1.95-.46Z"/><path class="cls-3" d="m33.41,42.22c.29,0,.54.02.77.07l-.13.9c-.27-.06-.5-.09-.7-.09-.52,0-.96.21-1.33.63s-.55.95-.55,1.58v3.45h-.97v-6.42h.8l.11,1.19h.05c.24-.42.53-.74.86-.97s.71-.34,1.11-.34Z"/><path class="cls-3" d="m35.29,40.6c0-.22.05-.39.16-.49s.25-.16.41-.16.29.05.4.16.17.27.17.49-.06.38-.17.49-.25.16-.4.16c-.16,0-.3-.05-.41-.16s-.16-.27-.16-.49Zm1.05,8.16h-.97v-6.42h.97v6.42Z"/><path class="cls-3" d="m42.55,47.01c0,.6-.22,1.06-.67,1.38s-1.07.49-1.88.49c-.85,0-1.52-.13-1.99-.4v-.9c.31.16.64.28.99.37s.69.13,1.02.13c.51,0,.9-.08,1.17-.24s.41-.41.41-.74c0-.25-.11-.46-.33-.64s-.64-.39-1.27-.63c-.6-.22-1.02-.42-1.27-.58s-.44-.35-.56-.57-.18-.46-.18-.76c0-.52.21-.94.64-1.24s1.01-.45,1.75-.45c.69,0,1.37.14,2.03.42l-.35.79c-.64-.27-1.23-.4-1.75-.4-.46,0-.81.07-1.04.22s-.35.34-.35.6c0,.17.04.32.13.44s.23.24.42.35.57.27,1.12.47c.76.28,1.28.56,1.54.84s.4.63.4,1.06Z"/><path class="cls-3" d="m46.85,48.88c-.95,0-1.7-.29-2.25-.87s-.82-1.38-.82-2.41.25-1.86.76-2.47,1.19-.91,2.05-.91c.8,0,1.44.26,1.91.79s.7,1.23.7,2.09v.62h-4.42c.02.75.21,1.33.57,1.72s.87.59,1.53.59c.69,0,1.38-.14,2.05-.43v.87c-.34.15-.67.25-.98.32s-.68.1-1.11.1Zm-.26-5.84c-.52,0-.93.17-1.23.5s-.49.8-.54,1.39h3.36c0-.61-.14-1.08-.41-1.41s-.66-.49-1.17-.49Z"/><path class="cls-3" d="m55.01,47.01c0,.6-.22,1.06-.67,1.38s-1.07.49-1.88.49c-.85,0-1.52-.13-1.99-.4v-.9c.31.16.64.28.99.37s.69.13,1.02.13c.51,0,.9-.08,1.17-.24s.41-.41.41-.74c0-.25-.11-.46-.33-.64s-.64-.39-1.27-.63c-.6-.22-1.02-.42-1.27-.58s-.44-.35-.56-.57-.18-.46-.18-.76c0-.52.21-.94.64-1.24s1.01-.45,1.75-.45c.69,0,1.37.14,2.03.42l-.35.79c-.64-.27-1.23-.4-1.75-.4-.46,0-.81.07-1.04.22s-.35.34-.35.6c0,.17.04.32.13.44s.23.24.42.35.57.27,1.12.47c.76.28,1.28.56,1.54.84s.4.63.4,1.06Z"/><path class="cls-3" d="m62.42,48.88c-.95,0-1.7-.29-2.25-.87s-.82-1.38-.82-2.41.25-1.86.76-2.47,1.19-.91,2.05-.91c.8,0,1.44.26,1.91.79s.7,1.23.7,2.09v.62h-4.42c.02.75.21,1.33.57,1.72s.87.59,1.53.59c.69,0,1.38-.14,2.05-.43v.87c-.34.15-.67.25-.98.32s-.68.1-1.11.1Zm-.26-5.84c-.52,0-.93.17-1.23.5s-.49.8-.54,1.39h3.36c0-.61-.14-1.08-.41-1.41s-.66-.49-1.17-.49Z"/><path class="cls-3" d="m72.27,48.88c-.95,0-1.7-.29-2.25-.87s-.82-1.38-.82-2.41.25-1.86.76-2.47,1.19-.91,2.05-.91c.8,0,1.44.26,1.91.79s.7,1.23.7,2.09v.62h-4.42c.02.75.21,1.33.57,1.72s.87.59,1.53.59c.69,0,1.38-.14,2.05-.43v.87c-.34.15-.67.25-.98.32s-.68.1-1.11.1Zm-.26-5.84c-.52,0-.93.17-1.23.5s-.49.8-.54,1.39h3.36c0-.61-.14-1.08-.41-1.41s-.66-.49-1.17-.49Z"/><path class="cls-3" d="m77.7,48.76l-2.44-6.42h1.04l1.38,3.81c.31.89.5,1.47.55,1.73h.05c.04-.21.18-.64.41-1.29s.74-2.07,1.54-4.26h1.04l-2.44,6.42h-1.14Z"/><path class="cls-3" d="m85.02,48.88c-.95,0-1.7-.29-2.25-.87s-.82-1.38-.82-2.41.25-1.86.76-2.47,1.19-.91,2.05-.91c.8,0,1.44.26,1.91.79s.7,1.23.7,2.09v.62h-4.42c.02.75.21,1.33.57,1.72s.87.59,1.53.59c.69,0,1.38-.14,2.05-.43v.87c-.34.15-.67.25-.98.32s-.68.1-1.11.1Zm-.26-5.84c-.52,0-.93.17-1.23.5s-.49.8-.54,1.39h3.36c0-.61-.14-1.08-.41-1.41s-.66-.49-1.17-.49Z"/><path class="cls-3" d="m93.43,48.76v-4.15c0-.52-.12-.91-.36-1.17s-.61-.39-1.12-.39c-.67,0-1.16.18-1.48.54s-.47.96-.47,1.8v3.37h-.97v-6.42h.79l.16.88h.05c.2-.32.48-.56.84-.74s.76-.26,1.2-.26c.77,0,1.36.19,1.75.56s.59.97.59,1.79v4.19h-.97Z"/><path class="cls-3" d="m98.48,48.07c.17,0,.34-.01.5-.04s.29-.05.38-.08v.74c-.11.05-.26.09-.47.13s-.39.05-.55.05c-1.24,0-1.86-.65-1.86-1.96v-3.82h-.92v-.47l.92-.4.41-1.37h.56v1.49h1.86v.76h-1.86v3.78c0,.39.09.68.28.89s.44.31.76.31Z"/><path class="cls-3" d="m106.18,45.54c0,1.05-.26,1.86-.79,2.45s-1.26.88-2.19.88c-.57,0-1.08-.13-1.53-.4s-.79-.66-1.03-1.16-.36-1.09-.36-1.77c0-1.05.26-1.86.79-2.45s1.25-.88,2.18-.88,1.61.3,2.14.9.79,1.41.79,2.43Zm-4.89,0c0,.82.16,1.45.49,1.88s.81.64,1.45.64,1.12-.21,1.45-.64.5-1.05.5-1.88-.17-1.44-.5-1.86-.82-.64-1.46-.64-1.12.21-1.44.63-.49,1.04-.49,1.87Z"/><path class="cls-3" d="m112.03,47.01c0,.6-.22,1.06-.67,1.38s-1.07.49-1.88.49c-.85,0-1.52-.13-1.99-.4v-.9c.31.16.64.28.99.37s.69.13,1.02.13c.51,0,.9-.08,1.17-.24s.41-.41.41-.74c0-.25-.11-.46-.33-.64s-.64-.39-1.27-.63c-.6-.22-1.02-.42-1.27-.58s-.44-.35-.56-.57-.18-.46-.18-.76c0-.52.21-.94.64-1.24s1.01-.45,1.75-.45c.69,0,1.37.14,2.03.42l-.35.79c-.64-.27-1.23-.4-1.75-.4-.46,0-.81.07-1.04.22s-.35.34-.35.6c0,.17.04.32.13.44s.23.24.42.35.57.27,1.12.47c.76.28,1.28.56,1.54.84s.4.63.4,1.06Z"/><path class="cls-3" d="m44.04,63.16h-1.01l1.81-8.57h4.31l-.18.9h-3.33l-.64,3.12h3.09l-.19.9h-3.1l-.77,3.65Z"/><path class="cls-3" d="m51.08,63.28c-.72,0-1.28-.21-1.69-.64s-.62-1.02-.62-1.77.15-1.44.44-2.11.68-1.2,1.16-1.57,1.01-.56,1.59-.56,1.05.13,1.35.39.45.62.45,1.09c0,.7-.32,1.25-.97,1.66s-1.58.6-2.78.6h-.19l-.02.47c0,.51.12.91.36,1.2s.61.43,1.12.43c.25,0,.5-.04.76-.11s.58-.2.97-.39v.86c-.37.17-.69.29-.97.36s-.59.1-.93.1Zm.81-5.82c-.4,0-.78.18-1.13.55s-.62.88-.81,1.53h.07c.89,0,1.57-.12,2.05-.35s.71-.57.71-1.01c0-.21-.07-.38-.21-.52s-.37-.21-.67-.21Z"/><path class="cls-3" d="m57,63.28c-.72,0-1.28-.21-1.69-.64s-.62-1.02-.62-1.77.15-1.44.44-2.11.68-1.2,1.16-1.57,1.01-.56,1.59-.56,1.05.13,1.35.39.45.62.45,1.09c0,.7-.32,1.25-.97,1.66s-1.58.6-2.78.6h-.19l-.02.47c0,.51.12.91.36,1.2s.61.43,1.12.43c.25,0,.5-.04.76-.11s.58-.2.97-.39v.86c-.37.17-.69.29-.97.36s-.59.1-.93.1Zm.81-5.82c-.4,0-.78.18-1.13.55s-.62.88-.81,1.53h.07c.89,0,1.57-.12,2.05-.35s.71-.57.71-1.01c0-.21-.07-.38-.21-.52s-.37-.21-.67-.21Z"/><path class="cls-3" d="m63.78,56.63c.76,0,1.31.37,1.65,1.11h.06c.07-.61.15-1.14.26-1.61l.46-2.1h.97l-1.93,9.12h-.81l.13-1.22h-.05c-.39.49-.76.83-1.11,1.04s-.7.3-1.07.3c-.54,0-.97-.19-1.27-.57s-.46-.91-.46-1.59c0-.84.14-1.6.42-2.3s.66-1.23,1.14-1.61,1.01-.57,1.61-.57Zm-1.11,5.83c.37,0,.75-.18,1.14-.55s.7-.83.93-1.4.34-1.15.34-1.74c0-.43-.11-.76-.32-.99s-.52-.34-.92-.34-.76.16-1.1.48-.61.78-.81,1.36-.31,1.2-.31,1.84c0,.89.35,1.33,1.05,1.33Z"/><path class="cls-3" d="m70.15,63.28c-.38,0-.71-.1-1-.3s-.5-.47-.65-.81h-.06l-.41,1h-.73l1.93-9.12h.98c-.2.95-.35,1.67-.46,2.17s-.25,1.09-.44,1.76h.05c.36-.46.72-.8,1.08-1.02s.72-.33,1.09-.33c.55,0,.98.19,1.29.58s.46.92.46,1.59c0,.82-.13,1.57-.4,2.26s-.64,1.23-1.12,1.62-1.02.58-1.62.58Zm1.09-5.83c-.38,0-.76.19-1.15.56s-.7.84-.93,1.4-.34,1.14-.34,1.73c0,.43.11.76.33.99s.53.34.94.34c.39,0,.75-.16,1.08-.47s.6-.77.81-1.35.3-1.2.3-1.86c0-.89-.35-1.33-1.04-1.33Z"/><path class="cls-3" d="m77.63,56.62c.36,0,.68.1.96.29s.5.47.66.83h.06l.39-1.01h.74l-1.37,6.42h-.78l.15-1.22h-.05c-.7.89-1.44,1.34-2.21,1.34-.54,0-.97-.19-1.28-.58s-.46-.92-.46-1.59c0-.81.14-1.57.42-2.26s.66-1.24,1.15-1.63,1.02-.59,1.61-.59Zm-1.11,5.84c.38,0,.76-.18,1.13-.54s.68-.83.91-1.41.35-1.16.35-1.74c0-.4-.11-.72-.33-.96s-.51-.36-.86-.36c-.41,0-.78.17-1.13.5s-.62.79-.82,1.37-.3,1.18-.3,1.82c0,.45.09.78.28,1s.44.33.77.33Z"/><path class="cls-3" d="m83.63,63.28c-.76,0-1.35-.21-1.76-.63s-.63-1.01-.63-1.77.14-1.5.43-2.16.69-1.17,1.2-1.54,1.08-.55,1.72-.55c.54,0,1.06.1,1.57.3l-.28.83c-.47-.2-.9-.3-1.28-.3-.44,0-.84.15-1.2.45s-.64.71-.85,1.25-.31,1.11-.31,1.74c0,.5.13.89.39,1.17s.62.42,1.08.42c.28,0,.55-.04.8-.12s.5-.17.74-.28v.84c-.48.25-1.02.37-1.62.37Z"/><path class="cls-3" d="m88,59.88l3.08-3.15h1.18l-2.75,2.74,1.73,3.69h-1.1l-1.38-3.07-.89.72-.48,2.35h-1l1.93-9.12h1l-.76,3.53c-.22,1.04-.42,1.81-.6,2.31h.02Z"/></g><rect class="cls-2" x="197.51" width="134.45" height="74.85"/><g><path class="cls-3" d="m207.94,18.07h-1.79v-8.57h4.91v1.49h-3.12v2.21h2.91v1.48h-2.91v3.39Z"/><path class="cls-3" d="m212.74,18.07v-8.57h1.82v7.07h3.47v1.5h-5.29Z"/><path class="cls-3" d="m226.49,9.5v5.54c0,.63-.14,1.19-.42,1.66s-.69.84-1.23,1.1-1.17.38-1.9.38c-1.1,0-1.96-.28-2.57-.85s-.91-1.34-.91-2.32v-5.52h1.81v5.24c0,.66.13,1.14.4,1.45s.71.46,1.32.46,1.02-.16,1.29-.47.4-.8.4-1.46v-5.23h1.81Z"/><path class="cls-3" d="m235.52,18.07h-2.07l-1.99-3.24-1.99,3.24h-1.95l2.84-4.42-2.66-4.15h2l1.85,3.08,1.81-3.08h1.96l-2.69,4.25,2.89,4.32Z"/><path class="cls-3" d="m244.37,13.77c0,1.42-.35,2.51-1.05,3.27s-1.71,1.14-3.02,1.14-2.32-.38-3.02-1.14-1.05-1.86-1.05-3.28.35-2.51,1.06-3.27,1.72-1.13,3.03-1.13,2.32.38,3.02,1.14,1.05,1.85,1.05,3.27Zm-6.25,0c0,.96.18,1.68.54,2.16s.91.73,1.63.73c1.45,0,2.17-.96,2.17-2.89s-.72-2.89-2.16-2.89c-.72,0-1.27.24-1.63.73s-.55,1.21-.55,2.17Z"/><path class="cls-3" d="m256.37,13.7c0,1.41-.4,2.49-1.2,3.24s-1.96,1.12-3.48,1.12h-2.43v-8.57h2.69c1.4,0,2.48.37,3.26,1.11s1.16,1.77,1.16,3.09Zm-1.89.05c0-1.84-.81-2.76-2.44-2.76h-.97v5.58h.78c1.75,0,2.62-.94,2.62-2.82Z"/><path class="cls-3" d="m263.08,18.07h-4.93v-8.57h4.93v1.49h-3.12v1.88h2.9v1.49h-2.9v2.21h3.12v1.5Z"/><path class="cls-3" d="m273.04,15.69c0,.77-.28,1.38-.83,1.83s-1.33.67-2.32.67c-.91,0-1.72-.17-2.43-.52v-1.69c.58.26,1.07.44,1.47.54s.77.16,1.1.16c.4,0,.7-.08.92-.23s.32-.38.32-.68c0-.17-.05-.32-.14-.45s-.23-.26-.41-.38-.55-.31-1.11-.58c-.52-.25-.92-.48-1.18-.71s-.47-.49-.63-.79-.23-.65-.23-1.05c0-.76.26-1.35.77-1.79s1.22-.65,2.13-.65c.45,0,.87.05,1.27.16s.83.25,1.27.45l-.59,1.41c-.46-.19-.83-.32-1.13-.39s-.59-.11-.88-.11c-.34,0-.61.08-.79.24s-.28.37-.28.63c0,.16.04.3.11.42s.19.23.35.35.55.31,1.15.6c.8.38,1.35.77,1.65,1.15s.45.86.45,1.42Z"/><path class="cls-3" d="m282.37,13.77c0,1.42-.35,2.51-1.05,3.27s-1.71,1.14-3.02,1.14-2.32-.38-3.02-1.14-1.05-1.86-1.05-3.28.35-2.51,1.06-3.27,1.72-1.13,3.03-1.13,2.32.38,3.02,1.14,1.05,1.85,1.05,3.27Zm-6.25,0c0,.96.18,1.68.54,2.16s.91.73,1.63.73c1.45,0,2.17-.96,2.17-2.89s-.72-2.89-2.16-2.89c-.72,0-1.27.24-1.63.73s-.55,1.21-.55,2.17Z"/><path class="cls-3" d="m284.14,18.07v-8.57h1.82v7.07h3.47v1.5h-5.29Z"/><path class="cls-3" d="m297.9,9.5v5.54c0,.63-.14,1.19-.42,1.66s-.69.84-1.23,1.1-1.17.38-1.9.38c-1.1,0-1.96-.28-2.57-.85s-.91-1.34-.91-2.32v-5.52h1.81v5.24c0,.66.13,1.14.4,1.45s.71.46,1.32.46,1.02-.16,1.29-.47.4-.8.4-1.46v-5.23h1.81Z"/><path class="cls-3" d="m303.63,10.89c-.68,0-1.21.26-1.59.77s-.56,1.23-.56,2.15c0,1.91.72,2.87,2.15,2.87.6,0,1.33-.15,2.19-.45v1.52c-.7.29-1.49.44-2.36.44-1.25,0-2.2-.38-2.86-1.13s-.99-1.84-.99-3.25c0-.89.16-1.67.49-2.34s.79-1.18,1.4-1.54,1.32-.54,2.14-.54,1.67.2,2.51.6l-.59,1.48c-.32-.15-.64-.29-.97-.4s-.64-.17-.96-.17Zm.9,8.64c0,.5-.15.86-.44,1.08s-.75.33-1.37.33c-.3,0-.59-.04-.86-.12v-.98c.11.03.25.05.42.08s.32.04.41.04c.28,0,.42-.12.42-.36,0-.32-.32-.54-.97-.63l.46-.9h1.13l-.16.36c.29.09.52.24.69.44s.26.42.26.67Z"/><path class="cls-3" d="m312.88,18.07l-.62-2.04h-3.12l-.62,2.04h-1.96l3.02-8.6h2.22l3.04,8.6h-1.96Zm-3.14-9.87c-.12,0-.24.05-.35.16s-.19.26-.24.47h-.87c.04-.57.2-1.01.48-1.33s.65-.48,1.11-.48c.16,0,.32.03.47.1s.31.13.46.21.3.15.44.21.29.09.43.09c.12,0,.24-.05.35-.15s.19-.26.24-.47h.87c-.04.57-.21,1.01-.49,1.33s-.65.48-1.1.48c-.16,0-.32-.03-.47-.1s-.31-.13-.46-.21-.3-.15-.44-.21-.29-.1-.43-.1Zm2.09,6.3c-.57-1.85-.9-2.89-.97-3.13s-.12-.43-.16-.57c-.13.5-.5,1.74-1.11,3.71h2.23Z"/><path class="cls-3" d="m323.69,13.77c0,1.42-.35,2.51-1.05,3.27s-1.71,1.14-3.02,1.14-2.32-.38-3.02-1.14-1.05-1.86-1.05-3.28.35-2.51,1.06-3.27,1.72-1.13,3.03-1.13,2.32.38,3.02,1.14,1.05,1.85,1.05,3.27Zm-6.25,0c0,.96.18,1.68.54,2.16s.91.73,1.63.73c1.45,0,2.17-.96,2.17-2.89s-.72-2.89-2.16-2.89c-.72,0-1.27.24-1.63.73s-.55,1.21-.55,2.17Z"/></g><g><path class="cls-3" d="m217.76,27.81h1.07l-3.09,8.57h-.98l-3.07-8.57h1.05l1.97,5.54c.23.64.41,1.26.54,1.86.14-.63.32-1.26.55-1.89l1.96-5.51Z"/><path class="cls-3" d="m219.78,28.21c0-.22.05-.39.16-.49s.25-.16.41-.16.29.05.4.16.17.27.17.49-.06.38-.17.49-.25.16-.4.16c-.16,0-.3-.05-.41-.16s-.16-.27-.16-.49Zm1.05,8.16h-.97v-6.42h.97v6.42Z"/><path class="cls-3" d="m227.04,34.62c0,.6-.22,1.06-.67,1.38s-1.07.49-1.88.49c-.85,0-1.52-.13-1.99-.4v-.9c.31.16.64.28.99.37s.69.13,1.02.13c.51,0,.9-.08,1.17-.24s.41-.41.41-.74c0-.25-.11-.46-.33-.64s-.64-.39-1.27-.63c-.6-.22-1.02-.42-1.27-.58s-.44-.35-.56-.57-.18-.46-.18-.76c0-.52.21-.94.64-1.24s1.01-.45,1.75-.45c.69,0,1.37.14,2.03.42l-.35.79c-.64-.27-1.23-.4-1.75-.4-.46,0-.81.07-1.04.22s-.35.34-.35.6c0,.17.04.32.13.44s.23.24.42.35.57.27,1.12.47c.76.28,1.28.56,1.54.84s.4.63.4,1.06Z"/><path class="cls-3" d="m228.54,28.21c0-.22.05-.39.16-.49s.25-.16.41-.16.29.05.4.16.17.27.17.49-.06.38-.17.49-.25.16-.4.16c-.16,0-.3-.05-.41-.16s-.16-.27-.16-.49Zm1.05,8.16h-.97v-6.42h.97v6.42Z"/><path class="cls-3" d="m234.64,29.85c.84,0,1.5.29,1.97.86s.7,1.39.7,2.45-.24,1.87-.71,2.46-1.12.88-1.96.88c-.42,0-.8-.08-1.15-.23s-.64-.39-.87-.71h-.07l-.21.83h-.7v-9.12h.97v2.21c0,.5-.02.94-.05,1.34h.05c.45-.64,1.12-.96,2.02-.96Zm-.14.81c-.66,0-1.14.19-1.44.57s-.44,1.02-.44,1.92.15,1.55.45,1.94.78.58,1.45.58c.6,0,1.04-.22,1.34-.65s.44-1.06.44-1.88-.15-1.46-.44-1.87-.75-.62-1.36-.62Z"/><path class="cls-3" d="m238.93,28.21c0-.22.05-.39.16-.49s.25-.16.41-.16.29.05.4.16.17.27.17.49-.06.38-.17.49-.25.16-.4.16c-.16,0-.3-.05-.41-.16s-.16-.27-.16-.49Zm1.05,8.16h-.97v-6.42h.97v6.42Z"/><path class="cls-3" d="m243.02,36.38h-.97v-9.12h.97v9.12Z"/><path class="cls-3" d="m245,28.21c0-.22.05-.39.16-.49s.25-.16.41-.16.29.05.4.16.17.27.17.49-.06.38-.17.49-.25.16-.4.16c-.16,0-.3-.05-.41-.16s-.16-.27-.16-.49Zm1.05,8.16h-.97v-6.42h.97v6.42Z"/><path class="cls-3" d="m252.49,35.51h-.05c-.45.65-1.12.98-2.02.98-.84,0-1.49-.29-1.96-.86s-.7-1.39-.7-2.45.23-1.88.7-2.47,1.12-.88,1.96-.88,1.54.32,2,.95h.08l-.04-.46-.02-.45v-2.61h.97v9.12h-.79l-.13-.86Zm-1.95.16c.66,0,1.15-.18,1.44-.54s.45-.94.45-1.75v-.21c0-.91-.15-1.56-.45-1.95s-.79-.58-1.45-.58c-.57,0-1.01.22-1.31.67s-.45,1.07-.45,1.88.15,1.44.45,1.86.74.63,1.32.63Z"/><path class="cls-3" d="m259.42,36.38l-.19-.91h-.05c-.32.4-.64.67-.96.82s-.72.21-1.19.21c-.64,0-1.14-.16-1.5-.49s-.54-.79-.54-1.4c0-1.3,1.04-1.98,3.11-2.04l1.09-.04v-.4c0-.5-.11-.88-.33-1.12s-.56-.36-1.04-.36c-.54,0-1.14.16-1.82.49l-.3-.74c.32-.17.66-.31,1.04-.4s.75-.15,1.13-.15c.77,0,1.33.17,1.7.51s.55.88.55,1.63v4.38h-.72Zm-2.2-.69c.61,0,1.08-.17,1.43-.5s.52-.8.52-1.39v-.58l-.97.04c-.77.03-1.33.15-1.67.36s-.51.54-.51.99c0,.35.11.62.32.8s.51.28.89.28Z"/><path class="cls-3" d="m266.51,35.51h-.05c-.45.65-1.12.98-2.02.98-.84,0-1.49-.29-1.96-.86s-.7-1.39-.7-2.45.23-1.88.7-2.47,1.12-.88,1.96-.88,1.54.32,2,.95h.08l-.04-.46-.02-.45v-2.61h.97v9.12h-.79l-.13-.86Zm-1.95.16c.66,0,1.15-.18,1.44-.54s.45-.94.45-1.75v-.21c0-.91-.15-1.56-.45-1.95s-.79-.58-1.45-.58c-.57,0-1.01.22-1.31.67s-.45,1.07-.45,1.88.15,1.44.45,1.86.74.63,1.32.63Z"/><path class="cls-3" d="m272.21,36.49c-.95,0-1.7-.29-2.25-.87s-.82-1.38-.82-2.41.25-1.86.76-2.47,1.19-.91,2.05-.91c.8,0,1.44.26,1.91.79s.7,1.23.7,2.09v.62h-4.42c.02.75.21,1.33.57,1.72s.87.59,1.53.59c.69,0,1.38-.14,2.05-.43v.87c-.34.15-.67.25-.98.32s-.68.1-1.11.1Zm-.26-5.84c-.52,0-.93.17-1.23.5s-.49.8-.54,1.39h3.36c0-.61-.14-1.08-.41-1.41s-.66-.49-1.17-.49Z"/><path class="cls-3" d="m281.42,35.69c.17,0,.34-.01.5-.04s.29-.05.38-.08v.74c-.11.05-.26.09-.47.13s-.39.05-.55.05c-1.24,0-1.86-.65-1.86-1.96v-3.82h-.92v-.47l.92-.4.41-1.37h.56v1.49h1.86v.76h-1.86v3.78c0,.39.09.68.28.89s.44.31.76.31Z"/><path class="cls-3" d="m286.29,36.49c-.95,0-1.7-.29-2.25-.87s-.82-1.38-.82-2.41.25-1.86.76-2.47,1.19-.91,2.05-.91c.8,0,1.44.26,1.91.79s.7,1.23.7,2.09v.62h-4.42c.02.75.21,1.33.57,1.72s.87.59,1.53.59c.69,0,1.38-.14,2.05-.43v.87c-.34.15-.67.25-.98.32s-.68.1-1.11.1Zm-.26-5.84c-.52,0-.93.17-1.23.5s-.49.8-.54,1.39h3.36c0-.61-.14-1.08-.41-1.41s-.66-.49-1.17-.49Zm-.72-1.69c.19-.24.39-.54.61-.88s.39-.64.51-.9h1.18v.12c-.17.25-.43.57-.77.94s-.63.66-.88.86h-.65v-.15Z"/><path class="cls-3" d="m292.88,36.49c-.93,0-1.65-.29-2.16-.86s-.76-1.38-.76-2.43.26-1.9.78-2.49,1.25-.88,2.21-.88c.31,0,.62.03.93.1s.55.14.73.23l-.3.83c-.21-.09-.45-.16-.7-.21s-.48-.08-.67-.08c-1.3,0-1.96.83-1.96,2.5,0,.79.16,1.39.48,1.82s.79.63,1.42.63c.54,0,1.08-.12,1.65-.35v.86c-.43.22-.97.33-1.62.33Z"/><path class="cls-3" d="m300.42,36.38v-4.15c0-.52-.12-.91-.36-1.17s-.61-.39-1.12-.39c-.67,0-1.16.18-1.48.54s-.47.96-.47,1.8v3.37h-.97v-6.42h.79l.16.88h.05c.2-.32.48-.56.84-.74s.76-.26,1.2-.26c.77,0,1.36.19,1.75.56s.59.97.59,1.79v4.19h-.97Z"/><path class="cls-3" d="m303.31,28.21c0-.22.05-.39.16-.49s.25-.16.41-.16.29.05.4.16.17.27.17.49-.06.38-.17.49-.25.16-.4.16c-.16,0-.3-.05-.41-.16s-.16-.27-.16-.49Zm1.05,8.16h-.97v-6.42h.97v6.42Z"/><path class="cls-3" d="m308.99,36.49c-.93,0-1.65-.29-2.16-.86s-.76-1.38-.76-2.43.26-1.9.78-2.49,1.25-.88,2.21-.88c.31,0,.62.03.93.1s.55.14.73.23l-.3.83c-.21-.09-.45-.16-.7-.21s-.48-.08-.67-.08c-1.3,0-1.96.83-1.96,2.5,0,.79.16,1.39.48,1.82s.79.63,1.42.63c.54,0,1.08-.12,1.65-.35v.86c-.43.22-.97.33-1.62.33Z"/><path class="cls-3" d="m316.09,36.38l-.19-.91h-.05c-.32.4-.64.67-.96.82s-.72.21-1.19.21c-.64,0-1.14-.16-1.5-.49s-.54-.79-.54-1.4c0-1.3,1.04-1.98,3.11-2.04l1.09-.04v-.4c0-.5-.11-.88-.33-1.12s-.56-.36-1.04-.36c-.54,0-1.14.16-1.82.49l-.3-.74c.32-.17.66-.31,1.04-.4s.75-.15,1.13-.15c.77,0,1.33.17,1.7.51s.55.88.55,1.63v4.38h-.72Zm-2.2-.69c.61,0,1.08-.17,1.43-.5s.52-.8.52-1.39v-.58l-.97.04c-.77.03-1.33.15-1.67.36s-.51.54-.51.99c0,.35.11.62.32.8s.51.28.89.28Z"/><path class="cls-3" d="m244.49,50.77l-1.07-2.72h-3.43l-1.05,2.72h-1.01l3.39-8.6h.84l3.37,8.6h-1.03Zm-1.38-3.62l-1-2.65c-.13-.34-.26-.75-.4-1.24-.09.38-.21.79-.37,1.24l-1.01,2.65h2.77Z"/><path class="cls-3" d="m249.12,50.89c-.93,0-1.65-.29-2.16-.86s-.76-1.38-.76-2.43.26-1.9.78-2.49,1.25-.88,2.21-.88c.31,0,.62.03.93.1s.55.14.73.23l-.3.83c-.21-.09-.45-.16-.7-.21s-.48-.08-.67-.08c-1.3,0-1.96.83-1.96,2.5,0,.79.16,1.39.48,1.82s.79.63,1.42.63c.54,0,1.08-.12,1.65-.35v.86c-.43.22-.97.33-1.62.33Z"/><path class="cls-3" d="m254.98,50.89c-.95,0-1.7-.29-2.25-.87s-.82-1.38-.82-2.41.25-1.86.76-2.47,1.19-.91,2.05-.91c.8,0,1.44.26,1.91.79s.7,1.23.7,2.09v.62h-4.42c.02.75.21,1.33.57,1.72s.87.59,1.53.59c.69,0,1.38-.14,2.05-.43v.87c-.34.15-.67.25-.98.32s-.68.1-1.11.1Zm-.26-5.84c-.52,0-.93.17-1.23.5s-.49.8-.54,1.39h3.36c0-.61-.14-1.08-.41-1.41s-.66-.49-1.17-.49Z"/><path class="cls-3" d="m258.91,42.61c0-.22.05-.39.16-.49s.25-.16.41-.16.29.05.4.16.17.27.17.49-.06.38-.17.49-.25.16-.4.16c-.16,0-.3-.05-.41-.16s-.16-.27-.16-.49Zm1.05,8.16h-.97v-6.42h.97v6.42Z"/><path class="cls-3" d="m264.1,50.09c.17,0,.34-.01.5-.04s.29-.05.38-.08v.74c-.11.05-.26.09-.47.13s-.39.05-.55.05c-1.24,0-1.86-.65-1.86-1.96v-3.82h-.92v-.47l.92-.4.41-1.37h.56v1.49h1.86v.76h-1.86v3.78c0,.39.09.68.28.89s.44.31.76.31Z"/><path class="cls-3" d="m270.22,50.77l-.19-.91h-.05c-.32.4-.64.67-.96.82s-.72.21-1.19.21c-.64,0-1.14-.16-1.5-.49s-.54-.79-.54-1.4c0-1.3,1.04-1.98,3.11-2.04l1.09-.04v-.4c0-.5-.11-.88-.33-1.12s-.56-.36-1.04-.36c-.54,0-1.14.16-1.82.49l-.3-.74c.32-.17.66-.31,1.04-.4s.75-.15,1.13-.15c.77,0,1.33.17,1.7.51s.55.88.55,1.63v4.38h-.72Zm-2.2-.69c.61,0,1.08-.17,1.43-.5s.52-.8.52-1.39v-.58l-.97.04c-.77.03-1.33.15-1.67.36s-.51.54-.51.99c0,.35.11.62.32.8s.51.28.89.28Z"/><path class="cls-3" d="m275.51,50.89c-.93,0-1.65-.29-2.16-.86s-.76-1.38-.76-2.43.26-1.9.78-2.49,1.25-.88,2.21-.88c.31,0,.62.03.93.1s.55.14.73.23l-.3.83c-.21-.09-.45-.16-.7-.21s-.48-.08-.67-.08c-1.3,0-1.96.83-1.96,2.5,0,.79.16,1.39.48,1.82s.79.63,1.42.63c.54,0,1.08-.12,1.65-.35v.86c-.43.22-.97.33-1.62.33Zm.87,1.58c0,.38-.15.67-.45.88s-.74.31-1.33.31c-.2,0-.39-.02-.56-.05v-.62c.18.03.38.05.61.05.31,0,.54-.04.7-.12s.24-.22.24-.43c0-.17-.08-.3-.23-.41s-.44-.19-.87-.25l.52-1.04h.64l-.32.67c.7.15,1.05.49,1.05,1.02Z"/><path class="cls-3" d="m282.6,50.77l-.19-.91h-.05c-.32.4-.64.67-.96.82s-.72.21-1.19.21c-.64,0-1.14-.16-1.5-.49s-.54-.79-.54-1.4c0-1.3,1.04-1.98,3.11-2.04l1.09-.04v-.4c0-.5-.11-.88-.33-1.12s-.56-.36-1.04-.36c-.54,0-1.14.16-1.82.49l-.3-.74c.32-.17.66-.31,1.04-.4s.75-.15,1.13-.15c.77,0,1.33.17,1.7.51s.55.88.55,1.63v4.38h-.72Zm-.76-7.28c-.17,0-.33-.04-.49-.11s-.32-.15-.47-.24-.3-.17-.45-.24-.28-.11-.41-.11c-.2,0-.34.06-.44.18s-.18.29-.23.53h-.57c.05-.47.19-.84.41-1.11s.51-.4.87-.4c.18,0,.35.04.52.11s.33.15.48.24.3.17.44.24.27.11.4.11c.19,0,.33-.06.43-.17s.17-.29.23-.54h.58c-.05.47-.19.84-.41,1.11s-.51.4-.88.4Zm-1.44,6.6c.61,0,1.08-.17,1.43-.5s.52-.8.52-1.39v-.58l-.97.04c-.77.03-1.33.15-1.67.36s-.51.54-.51.99c0,.35.11.62.32.8s.51.28.89.28Z"/><path class="cls-3" d="m290.87,47.56c0,1.05-.26,1.86-.79,2.45s-1.26.88-2.19.88c-.57,0-1.08-.13-1.53-.4s-.79-.66-1.03-1.16-.36-1.09-.36-1.77c0-1.05.26-1.86.79-2.45s1.25-.88,2.18-.88,1.61.3,2.14.9.79,1.41.79,2.43Zm-4.89,0c0,.82.16,1.45.49,1.88s.81.64,1.45.64,1.12-.21,1.45-.64.5-1.05.5-1.88-.17-1.44-.5-1.86-.82-.64-1.46-.64-1.12.21-1.44.63-.49,1.04-.49,1.87Z"/><path class="cls-3" d="m221.92,57.38c-.94,0-1.68.31-2.23.94s-.82,1.49-.82,2.58.26,1.99.79,2.6,1.27.92,2.25.92c.6,0,1.28-.11,2.04-.32v.87c-.59.22-1.33.33-2.2.33-1.26,0-2.24-.38-2.92-1.15s-1.03-1.85-1.03-3.26c0-.88.17-1.66.5-2.32s.81-1.18,1.43-1.54,1.36-.54,2.2-.54c.9,0,1.68.16,2.36.49l-.42.86c-.65-.3-1.3-.46-1.95-.46Z"/><path class="cls-3" d="m226.59,58.75v4.17c0,.52.12.91.36,1.17s.61.39,1.12.39c.67,0,1.16-.18,1.47-.55s.47-.97.47-1.8v-3.38h.97v6.42h-.8l-.14-.86h-.05c-.2.32-.48.56-.83.73s-.76.25-1.21.25c-.78,0-1.37-.19-1.75-.56s-.58-.96-.58-1.78v-4.2h.98Z"/><path class="cls-3" d="m237.19,63.42c0,.6-.22,1.06-.67,1.38s-1.07.49-1.88.49c-.85,0-1.52-.13-1.99-.4v-.9c.31.16.64.28.99.37s.69.13,1.02.13c.51,0,.9-.08,1.17-.24s.41-.41.41-.74c0-.25-.11-.46-.33-.64s-.64-.39-1.27-.63c-.6-.22-1.02-.42-1.27-.58s-.44-.35-.56-.57-.18-.46-.18-.76c0-.52.21-.94.64-1.24s1.01-.45,1.75-.45c.69,0,1.37.14,2.03.42l-.35.79c-.64-.27-1.23-.4-1.75-.4-.46,0-.81.07-1.04.22s-.35.34-.35.6c0,.17.04.32.13.44s.23.24.42.35.57.27,1.12.47c.76.28,1.28.56,1.54.84s.4.63.4,1.06Z"/><path class="cls-3" d="m240.84,64.49c.17,0,.34-.01.5-.04s.29-.05.38-.08v.74c-.11.05-.26.09-.47.13s-.39.05-.55.05c-1.24,0-1.86-.65-1.86-1.96v-3.82h-.92v-.47l.92-.4.41-1.37h.56v1.49h1.86v.76h-1.86v3.78c0,.39.09.68.28.89s.44.31.76.31Z"/><path class="cls-3" d="m248.55,61.96c0,1.05-.26,1.86-.79,2.45s-1.26.88-2.19.88c-.57,0-1.08-.13-1.53-.4s-.79-.66-1.03-1.16-.36-1.09-.36-1.77c0-1.05.26-1.86.79-2.45s1.25-.88,2.18-.88,1.61.3,2.14.9.79,1.41.79,2.43Zm-4.89,0c0,.82.16,1.45.49,1.88s.81.64,1.45.64,1.12-.21,1.45-.64.5-1.05.5-1.88-.17-1.44-.5-1.86-.82-.64-1.46-.64-1.12.21-1.44.63-.49,1.04-.49,1.87Z"/><path class="cls-3" d="m254.4,63.42c0,.6-.22,1.06-.67,1.38s-1.07.49-1.88.49c-.85,0-1.52-.13-1.99-.4v-.9c.31.16.64.28.99.37s.69.13,1.02.13c.51,0,.9-.08,1.17-.24s.41-.41.41-.74c0-.25-.11-.46-.33-.64s-.64-.39-1.27-.63c-.6-.22-1.02-.42-1.27-.58s-.44-.35-.56-.57-.18-.46-.18-.76c0-.52.21-.94.64-1.24s1.01-.45,1.75-.45c.69,0,1.37.14,2.03.42l-.35.79c-.64-.27-1.23-.4-1.75-.4-.46,0-.81.07-1.04.22s-.35.34-.35.6c0,.17.04.32.13.44s.23.24.42.35.57.27,1.12.47c.76.28,1.28.56,1.54.84s.4.63.4,1.06Z"/><path class="cls-3" d="m261.17,64.49c.17,0,.34-.01.5-.04s.29-.05.38-.08v.74c-.11.05-.26.09-.47.13s-.39.05-.55.05c-1.24,0-1.86-.65-1.86-1.96v-3.82h-.92v-.47l.92-.4.41-1.37h.56v1.49h1.86v.76h-1.86v3.78c0,.39.09.68.28.89s.44.31.76.31Z"/><path class="cls-3" d="m268.87,61.96c0,1.05-.26,1.86-.79,2.45s-1.26.88-2.19.88c-.57,0-1.08-.13-1.53-.4s-.79-.66-1.03-1.16-.36-1.09-.36-1.77c0-1.05.26-1.86.79-2.45s1.25-.88,2.18-.88,1.61.3,2.14.9.79,1.41.79,2.43Zm-4.89,0c0,.82.16,1.45.49,1.88s.81.64,1.45.64,1.12-.21,1.45-.64.5-1.05.5-1.88-.17-1.44-.5-1.86-.82-.64-1.46-.64-1.12.21-1.44.63-.49,1.04-.49,1.87Z"/><path class="cls-3" d="m271.55,65.17h-.97v-9.12h.97v9.12Z"/><path class="cls-3" d="m276.33,65.29c-.95,0-1.7-.29-2.25-.87s-.82-1.38-.82-2.41.25-1.86.76-2.47,1.19-.91,2.05-.91c.8,0,1.44.26,1.91.79s.7,1.23.7,2.09v.62h-4.42c.02.75.21,1.33.57,1.72s.87.59,1.53.59c.69,0,1.38-.14,2.05-.43v.87c-.34.15-.67.25-.98.32s-.68.1-1.11.1Zm-.26-5.84c-.52,0-.93.17-1.23.5s-.49.8-.54,1.39h3.36c0-.61-.14-1.08-.41-1.41s-.66-.49-1.17-.49Z"/><path class="cls-3" d="m283.28,58.64c.29,0,.54.02.77.07l-.13.9c-.27-.06-.5-.09-.7-.09-.52,0-.96.21-1.33.63s-.55.95-.55,1.58v3.45h-.97v-6.42h.8l.11,1.19h.05c.24-.42.53-.74.86-.97s.71-.34,1.11-.34Z"/><path class="cls-3" d="m289.19,65.17l-.19-.91h-.05c-.32.4-.64.67-.96.82s-.72.21-1.19.21c-.64,0-1.14-.16-1.5-.49s-.54-.79-.54-1.4c0-1.3,1.04-1.98,3.11-2.04l1.09-.04v-.4c0-.5-.11-.88-.33-1.12s-.56-.36-1.04-.36c-.54,0-1.14.16-1.82.49l-.3-.74c.32-.17.66-.31,1.04-.4s.75-.15,1.13-.15c.77,0,1.33.17,1.7.51s.55.88.55,1.63v4.38h-.72Zm-2.2-.69c.61,0,1.08-.17,1.43-.5s.52-.8.52-1.39v-.58l-.97.04c-.77.03-1.33.15-1.67.36s-.51.54-.51.99c0,.35.11.62.32.8s.51.28.89.28Zm-.23-6.73c.19-.24.39-.54.61-.88s.39-.64.51-.9h1.18v.12c-.17.25-.43.57-.77.94s-.63.66-.88.86h-.65v-.15Z"/><path class="cls-3" d="m293.33,65.17l-2.44-6.42h1.04l1.38,3.81c.31.89.5,1.47.55,1.73h.05c.04-.21.18-.64.41-1.29s.74-2.07,1.54-4.26h1.04l-2.44,6.42h-1.14Z"/><path class="cls-3" d="m300.64,65.29c-.95,0-1.7-.29-2.25-.87s-.82-1.38-.82-2.41.25-1.86.76-2.47,1.19-.91,2.05-.91c.8,0,1.44.26,1.91.79s.7,1.23.7,2.09v.62h-4.42c.02.75.21,1.33.57,1.72s.87.59,1.53.59c.69,0,1.38-.14,2.05-.43v.87c-.34.15-.67.25-.98.32s-.68.1-1.11.1Zm-.26-5.84c-.52,0-.93.17-1.23.5s-.49.8-.54,1.39h3.36c0-.61-.14-1.08-.41-1.41s-.66-.49-1.17-.49Z"/><path class="cls-3" d="m304.58,57.01c0-.22.05-.39.16-.49s.25-.16.41-.16.29.05.4.16.17.27.17.49-.06.38-.17.49-.25.16-.4.16c-.16,0-.3-.05-.41-.16s-.16-.27-.16-.49Zm1.05,8.16h-.97v-6.42h.97v6.42Z"/><path class="cls-3" d="m311.84,63.42c0,.6-.22,1.06-.67,1.38s-1.07.49-1.88.49c-.85,0-1.52-.13-1.99-.4v-.9c.31.16.64.28.99.37s.69.13,1.02.13c.51,0,.9-.08,1.17-.24s.41-.41.41-.74c0-.25-.11-.46-.33-.64s-.64-.39-1.27-.63c-.6-.22-1.02-.42-1.27-.58s-.44-.35-.56-.57-.18-.46-.18-.76c0-.52.21-.94.64-1.24s1.01-.45,1.75-.45c.69,0,1.37.14,2.03.42l-.35.79c-.64-.27-1.23-.4-1.75-.4-.46,0-.81.07-1.04.22s-.35.34-.35.6c0,.17.04.32.13.44s.23.24.42.35.57.27,1.12.47c.76.28,1.28.56,1.54.84s.4.63.4,1.06Z"/></g><rect class="cls-2" x="392.12" width="165.07" height="74.85"/><g><path class="cls-3" d="m419.27,18.07h-1.79v-8.57h4.91v1.49h-3.12v2.21h2.91v1.48h-2.91v3.39Z"/><path class="cls-3" d="m424.06,18.07v-8.57h1.82v7.07h3.47v1.5h-5.29Z"/><path class="cls-3" d="m437.82,9.5v5.54c0,.63-.14,1.19-.42,1.66s-.69.84-1.23,1.1-1.17.38-1.9.38c-1.1,0-1.96-.28-2.57-.85s-.91-1.34-.91-2.32v-5.52h1.81v5.24c0,.66.13,1.14.4,1.45s.71.46,1.32.46,1.03-.16,1.29-.47.4-.8.4-1.46v-5.23h1.81Z"/><path class="cls-3" d="m446.84,18.07h-2.07l-1.99-3.24-1.99,3.24h-1.95l2.84-4.42-2.66-4.15h2l1.85,3.08,1.81-3.08h1.96l-2.69,4.25,2.89,4.32Z"/><path class="cls-3" d="m455.69,13.77c0,1.42-.35,2.51-1.05,3.27s-1.71,1.14-3.02,1.14-2.32-.38-3.02-1.14-1.05-1.86-1.05-3.28.35-2.51,1.06-3.27,1.71-1.13,3.03-1.13,2.32.38,3.02,1.14,1.04,1.85,1.04,3.27Zm-6.25,0c0,.96.18,1.68.54,2.16s.91.73,1.63.73c1.45,0,2.17-.96,2.17-2.89s-.72-2.89-2.16-2.89c-.72,0-1.27.24-1.63.73s-.55,1.21-.55,2.17Z"/><path class="cls-3" d="m467.69,13.7c0,1.41-.4,2.49-1.2,3.24s-1.96,1.12-3.48,1.12h-2.43v-8.57h2.69c1.4,0,2.48.37,3.26,1.11s1.16,1.77,1.16,3.09Zm-1.89.05c0-1.84-.81-2.76-2.44-2.76h-.97v5.58h.78c1.75,0,2.62-.94,2.62-2.82Z"/><path class="cls-3" d="m474.4,18.07h-4.93v-8.57h4.93v1.49h-3.12v1.88h2.9v1.49h-2.9v2.21h3.12v1.5Z"/><path class="cls-3" d="m485.22,12.17c0,.92-.29,1.63-.86,2.12s-1.4.73-2.46.73h-.78v3.05h-1.82v-8.57h2.74c1.04,0,1.83.22,2.37.67s.81,1.11.81,2Zm-4.1,1.36h.6c.56,0,.98-.11,1.25-.33s.42-.54.42-.96-.12-.74-.35-.94-.6-.3-1.09-.3h-.83v2.54Z"/><path class="cls-3" d="m494.62,13.77c0,1.42-.35,2.51-1.05,3.27s-1.71,1.14-3.02,1.14-2.32-.38-3.02-1.14-1.05-1.86-1.05-3.28.35-2.51,1.06-3.27,1.71-1.13,3.03-1.13,2.32.38,3.02,1.14,1.04,1.85,1.04,3.27Zm-6.25,0c0,.96.18,1.68.54,2.16s.91.73,1.63.73c1.45,0,2.17-.96,2.17-2.89s-.72-2.89-2.16-2.89c-.72,0-1.27.24-1.63.73s-.55,1.21-.55,2.17Z"/><path class="cls-3" d="m496.39,18.07v-8.57h1.82v7.07h3.47v1.5h-5.29Z"/><path class="cls-3" d="m503.07,8.81v-.16c.67-.78,1.13-1.37,1.38-1.76h2v.12c-.2.2-.55.5-1.04.91s-.88.7-1.15.89h-1.19Zm.1,9.25v-8.57h1.82v8.57h-1.82Z"/><path class="cls-3" d="m510.45,18.07h-1.82v-7.05h-2.33v-1.51h6.47v1.51h-2.33v7.05Z"/><path class="cls-3" d="m514.09,18.07v-8.57h1.82v8.57h-1.82Z"/><path class="cls-3" d="m521.71,10.89c-.68,0-1.21.26-1.59.77s-.56,1.23-.56,2.15c0,1.91.72,2.87,2.15,2.87.6,0,1.33-.15,2.19-.45v1.52c-.7.29-1.49.44-2.36.44-1.25,0-2.2-.38-2.86-1.13s-.99-1.84-.99-3.25c0-.89.16-1.67.49-2.34s.79-1.18,1.4-1.54,1.32-.54,2.13-.54,1.67.2,2.51.6l-.59,1.48c-.32-.15-.64-.29-.97-.4s-.64-.17-.96-.17Z"/><path class="cls-3" d="m530.96,18.07l-.62-2.04h-3.12l-.62,2.04h-1.96l3.02-8.6h2.22l3.04,8.6h-1.96Zm-1.05-3.56c-.57-1.85-.9-2.89-.97-3.13s-.12-.43-.16-.57c-.13.5-.5,1.74-1.11,3.71h2.23Z"/></g><g><path class="cls-3" d="m438.65,26.56c-.94,0-1.68.31-2.23.94s-.82,1.49-.82,2.58.26,1.99.79,2.6,1.27.92,2.25.92c.6,0,1.28-.11,2.04-.32v.87c-.59.22-1.33.33-2.2.33-1.26,0-2.24-.38-2.92-1.15s-1.03-1.85-1.03-3.26c0-.88.17-1.66.5-2.32s.81-1.18,1.43-1.54,1.36-.54,2.2-.54c.9,0,1.68.16,2.36.49l-.42.86c-.65-.3-1.3-.46-1.95-.46Z"/><path class="cls-3" d="m443.38,34.36h-.97v-9.12h.97v9.12Z"/><path class="cls-3" d="m445.36,26.2c0-.22.05-.39.16-.49s.25-.16.41-.16.29.05.4.16.17.27.17.49-.06.38-.17.49-.25.16-.4.16c-.16,0-.3-.05-.41-.16s-.16-.27-.16-.49Zm1.05,8.16h-.97v-6.42h.97v6.42Z"/><path class="cls-3" d="m456.66,34.36v-4.18c0-.51-.11-.9-.33-1.15s-.56-.38-1.02-.38c-.61,0-1.05.17-1.34.52s-.43.88-.43,1.61v3.59h-.97v-4.18c0-.51-.11-.9-.33-1.15s-.56-.38-1.03-.38c-.61,0-1.06.18-1.34.55s-.42.96-.42,1.8v3.37h-.97v-6.42h.79l.16.88h.05c.18-.31.44-.56.78-.73s.71-.26,1.12-.26c1,0,1.66.36,1.97,1.09h.05c.19-.34.47-.6.83-.8s.78-.29,1.24-.29c.73,0,1.27.19,1.63.56s.54.97.54,1.79v4.19h-.97Z"/><path class="cls-3" d="m463.59,34.36l-.19-.91h-.05c-.32.4-.64.67-.96.82s-.72.21-1.19.21c-.64,0-1.14-.16-1.5-.49s-.54-.79-.54-1.4c0-1.3,1.04-1.98,3.11-2.04l1.09-.04v-.4c0-.5-.11-.88-.33-1.12s-.56-.36-1.04-.36c-.54,0-1.14.16-1.82.49l-.3-.74c.32-.17.66-.31,1.04-.4s.75-.15,1.13-.15c.77,0,1.33.17,1.7.51s.55.88.55,1.63v4.38h-.72Zm-2.2-.69c.61,0,1.08-.17,1.43-.5s.52-.8.52-1.39v-.58l-.97.04c-.77.03-1.33.15-1.67.36s-.51.54-.51.99c0,.35.11.62.32.8s.51.28.89.28Z"/><path class="cls-3" d="m473.83,34.36v-4.15c0-.52-.12-.91-.36-1.17s-.61-.39-1.12-.39c-.67,0-1.16.18-1.48.54s-.47.96-.47,1.8v3.37h-.97v-6.42h.79l.16.88h.05c.2-.32.48-.56.84-.74s.76-.26,1.2-.26c.77,0,1.36.19,1.75.56s.59.97.59,1.79v4.19h-.97Z"/><path class="cls-3" d="m480.75,34.36l-.19-.91h-.05c-.32.4-.64.67-.96.82s-.72.21-1.19.21c-.64,0-1.14-.16-1.5-.49s-.54-.79-.54-1.4c0-1.3,1.04-1.98,3.11-2.04l1.09-.04v-.4c0-.5-.11-.88-.33-1.12s-.56-.36-1.04-.36c-.54,0-1.14.16-1.82.49l-.3-.74c.32-.17.66-.31,1.04-.4s.75-.15,1.13-.15c.77,0,1.33.17,1.7.51s.55.88.55,1.63v4.38h-.72Zm-2.2-.69c.61,0,1.08-.17,1.43-.5s.52-.8.52-1.39v-.58l-.97.04c-.77.03-1.33.15-1.67.36s-.51.54-.51.99c0,.35.11.62.32.8s.51.28.89.28Z"/><path class="cls-3" d="m486.04,34.48c-.93,0-1.65-.29-2.16-.86s-.76-1.38-.76-2.43.26-1.9.78-2.49,1.25-.88,2.21-.88c.31,0,.62.03.93.1s.55.14.73.23l-.3.83c-.21-.09-.45-.16-.7-.21s-.48-.08-.67-.08c-1.3,0-1.96.83-1.96,2.5,0,.79.16,1.39.48,1.82s.79.63,1.42.63c.54,0,1.08-.12,1.65-.35v.86c-.43.22-.97.33-1.62.33Z"/><path class="cls-3" d="m489.1,26.2c0-.22.05-.39.16-.49s.25-.16.41-.16.29.05.4.16.17.27.17.49-.06.38-.17.49-.25.16-.4.16c-.16,0-.3-.05-.41-.16s-.16-.27-.16-.49Zm1.05,8.16h-.97v-6.42h.97v6.42Z"/><path class="cls-3" d="m497.76,31.14c0,1.05-.26,1.86-.79,2.45s-1.26.88-2.19.88c-.57,0-1.08-.13-1.53-.4s-.79-.66-1.03-1.16-.36-1.09-.36-1.77c0-1.05.26-1.86.79-2.45s1.25-.88,2.18-.88,1.61.3,2.14.9.79,1.41.79,2.43Zm-4.89,0c0,.82.16,1.45.49,1.88s.81.64,1.45.64,1.12-.21,1.45-.64.5-1.05.5-1.88-.17-1.44-.5-1.86-.82-.64-1.46-.64-1.12.21-1.44.63-.49,1.04-.49,1.87Z"/><path class="cls-3" d="m503.86,34.36v-4.15c0-.52-.12-.91-.36-1.17s-.61-.39-1.12-.39c-.67,0-1.16.18-1.48.54s-.47.96-.47,1.8v3.37h-.97v-6.42h.79l.16.88h.05c.2-.32.48-.56.84-.74s.76-.26,1.2-.26c.77,0,1.36.19,1.75.56s.59.97.59,1.79v4.19h-.97Z"/><path class="cls-3" d="m510.78,34.36l-.19-.91h-.05c-.32.4-.64.67-.96.82s-.72.21-1.19.21c-.64,0-1.14-.16-1.5-.49s-.54-.79-.54-1.4c0-1.3,1.04-1.98,3.11-2.04l1.09-.04v-.4c0-.5-.11-.88-.33-1.12s-.56-.36-1.04-.36c-.54,0-1.14.16-1.82.49l-.3-.74c.32-.17.66-.31,1.04-.4s.75-.15,1.13-.15c.77,0,1.33.17,1.7.51s.55.88.55,1.63v4.38h-.72Zm-2.2-.69c.61,0,1.08-.17,1.43-.5s.52-.8.52-1.39v-.58l-.97.04c-.77.03-1.33.15-1.67.36s-.51.54-.51.99c0,.35.11.62.32.8s.51.28.89.28Z"/><path class="cls-3" d="m514.48,34.36h-.97v-9.12h.97v9.12Z"/><path class="cls-3" d="m398.55,48.76h-1v-8.57h4.78v.88h-3.78v3.13h3.55v.88h-3.55v3.66Z"/><path class="cls-3" d="m409.14,45.54c0,1.05-.26,1.86-.79,2.45s-1.26.88-2.19.88c-.57,0-1.08-.13-1.53-.4s-.79-.66-1.03-1.16-.36-1.09-.36-1.77c0-1.05.26-1.86.79-2.45s1.25-.88,2.18-.88,1.61.3,2.14.9.79,1.41.79,2.43Zm-4.89,0c0,.82.16,1.45.49,1.88s.81.64,1.45.64,1.12-.21,1.45-.64.5-1.05.5-1.88-.17-1.44-.5-1.86-.82-.64-1.46-.64-1.12.21-1.44.63-.49,1.04-.49,1.87Z"/><path class="cls-3" d="m413.77,42.22c.29,0,.54.02.77.07l-.13.9c-.27-.06-.5-.09-.7-.09-.52,0-.96.21-1.33.63s-.55.95-.55,1.58v3.45h-.97v-6.42h.8l.11,1.19h.05c.24-.42.53-.74.86-.97s.71-.34,1.11-.34Z"/><path class="cls-3" d="m418.31,48.88c-.93,0-1.65-.29-2.16-.86s-.76-1.38-.76-2.43.26-1.9.78-2.49,1.25-.88,2.21-.88c.31,0,.62.03.93.1s.55.14.73.23l-.3.83c-.21-.09-.45-.16-.7-.21s-.48-.08-.67-.08c-1.3,0-1.96.83-1.96,2.5,0,.79.16,1.39.48,1.82s.79.63,1.42.63c.54,0,1.08-.12,1.65-.35v.86c-.43.22-.97.33-1.62.33Zm.87,1.58c0,.38-.15.67-.45.88s-.74.31-1.33.31c-.2,0-.39-.02-.56-.05v-.62c.18.03.38.05.61.05.31,0,.54-.04.7-.12s.24-.22.24-.43c0-.17-.08-.3-.23-.41s-.44-.19-.87-.25l.52-1.04h.64l-.32.67c.7.15,1.05.49,1.05,1.02Z"/><path class="cls-3" d="m425.4,48.76l-.19-.91h-.05c-.32.4-.64.67-.96.82s-.72.21-1.19.21c-.64,0-1.14-.16-1.5-.49s-.54-.79-.54-1.4c0-1.3,1.04-1.98,3.11-2.04l1.09-.04v-.4c0-.5-.11-.88-.33-1.12s-.56-.36-1.04-.36c-.54,0-1.14.16-1.82.49l-.3-.74c.32-.17.66-.31,1.04-.4s.75-.15,1.13-.15c.77,0,1.33.17,1.7.51s.55.88.55,1.63v4.38h-.72Zm-2.2-.69c.61,0,1.08-.17,1.43-.5s.52-.8.52-1.39v-.58l-.97.04c-.77.03-1.33.15-1.67.36s-.51.54-.51.99c0,.35.11.62.32.8s.51.28.89.28Z"/><path class="cls-3" d="m432.27,47.01c0,.6-.22,1.06-.67,1.38s-1.07.49-1.88.49c-.85,0-1.52-.13-1.99-.4v-.9c.31.16.64.28.99.37s.69.13,1.02.13c.51,0,.9-.08,1.17-.24s.41-.41.41-.74c0-.25-.11-.46-.33-.64s-.64-.39-1.27-.63c-.6-.22-1.02-.42-1.27-.58s-.44-.35-.56-.57-.18-.46-.18-.76c0-.52.21-.94.64-1.24s1.01-.45,1.75-.45c.69,0,1.37.14,2.03.42l-.35.79c-.64-.27-1.23-.4-1.75-.4-.46,0-.81.07-1.04.22s-.35.34-.35.6c0,.17.04.32.13.44s.23.24.42.35.57.27,1.12.47c.76.28,1.28.56,1.54.84s.4.63.4,1.06Z"/><path class="cls-3" d="m439.96,48.88c-.42,0-.8-.08-1.15-.23s-.64-.39-.87-.71h-.07c.05.38.07.73.07,1.07v2.64h-.97v-9.3h.79l.13.88h.05c.25-.35.54-.61.87-.76s.71-.23,1.14-.23c.85,0,1.51.29,1.97.87s.69,1.4.69,2.45-.24,1.87-.71,2.46-1.12.88-1.96.88Zm-.14-5.83c-.66,0-1.13.18-1.42.54s-.44.94-.45,1.73v.22c0,.9.15,1.55.45,1.94s.78.58,1.45.58c.55,0,.99-.22,1.3-.67s.47-1.07.47-1.86-.16-1.42-.47-1.84-.76-.64-1.33-.64Z"/><path class="cls-3" d="m449.87,45.54c0,1.05-.26,1.86-.79,2.45s-1.26.88-2.19.88c-.57,0-1.08-.13-1.53-.4s-.79-.66-1.03-1.16-.36-1.09-.36-1.77c0-1.05.26-1.86.79-2.45s1.25-.88,2.18-.88,1.61.3,2.14.9.79,1.41.79,2.43Zm-4.89,0c0,.82.16,1.45.49,1.88s.81.64,1.45.64,1.12-.21,1.45-.64.5-1.05.5-1.88-.17-1.44-.5-1.86-.82-.64-1.46-.64-1.12.21-1.44.63-.49,1.04-.49,1.87Z"/><path class="cls-3" d="m452.55,48.76h-.97v-9.12h.97v9.12Z"/><path class="cls-3" d="m454.57,41.34c.19-.24.39-.54.61-.88s.39-.64.51-.9h1.18v.12c-.17.25-.43.57-.77.94s-.63.66-.88.86h-.65v-.15Zm1.01,7.42h-.97v-6.42h.97v6.42Z"/><path class="cls-3" d="m459.72,48.07c.17,0,.34-.01.5-.04s.29-.05.38-.08v.74c-.11.05-.26.09-.47.13s-.39.05-.55.05c-1.24,0-1.86-.65-1.86-1.96v-3.82h-.92v-.47l.92-.4.41-1.37h.56v1.49h1.86v.76h-1.86v3.78c0,.39.09.68.28.89s.44.31.76.31Z"/><path class="cls-3" d="m461.8,40.6c0-.22.05-.39.16-.49s.25-.16.41-.16.29.05.4.16.17.27.17.49-.06.38-.17.49-.25.16-.4.16c-.16,0-.3-.05-.41-.16s-.16-.27-.16-.49Zm1.05,8.16h-.97v-6.42h.97v6.42Z"/><path class="cls-3" d="m467.48,48.88c-.93,0-1.65-.29-2.16-.86s-.76-1.38-.76-2.43.26-1.9.78-2.49,1.25-.88,2.21-.88c.31,0,.62.03.93.1s.55.14.73.23l-.3.83c-.21-.09-.45-.16-.7-.21s-.48-.08-.67-.08c-1.3,0-1.96.83-1.96,2.5,0,.79.16,1.39.48,1.82s.79.63,1.42.63c.54,0,1.08-.12,1.65-.35v.86c-.43.22-.97.33-1.62.33Z"/><path class="cls-3" d="m474.58,48.76l-.19-.91h-.05c-.32.4-.64.67-.96.82s-.72.21-1.19.21c-.64,0-1.14-.16-1.5-.49s-.54-.79-.54-1.4c0-1.3,1.04-1.98,3.11-2.04l1.09-.04v-.4c0-.5-.11-.88-.33-1.12s-.56-.36-1.04-.36c-.54,0-1.14.16-1.82.49l-.3-.74c.32-.17.66-.31,1.04-.4s.75-.15,1.13-.15c.77,0,1.33.17,1.7.51s.55.88.55,1.63v4.38h-.72Zm-2.2-.69c.61,0,1.08-.17,1.43-.5s.52-.8.52-1.39v-.58l-.97.04c-.77.03-1.33.15-1.67.36s-.51.54-.51.99c0,.35.11.62.32.8s.51.28.89.28Z"/><path class="cls-3" d="m481.44,47.01c0,.6-.22,1.06-.67,1.38s-1.07.49-1.88.49c-.85,0-1.52-.13-1.99-.4v-.9c.31.16.64.28.99.37s.69.13,1.02.13c.51,0,.9-.08,1.17-.24s.41-.41.41-.74c0-.25-.11-.46-.33-.64s-.64-.39-1.27-.63c-.6-.22-1.02-.42-1.27-.58s-.44-.35-.56-.57-.18-.46-.18-.76c0-.52.21-.94.64-1.24s1.01-.45,1.75-.45c.69,0,1.37.14,2.03.42l-.35.79c-.64-.27-1.23-.4-1.75-.4-.46,0-.81.07-1.04.22s-.35.34-.35.6c0,.17.04.32.13.44s.23.24.42.35.57.27,1.12.47c.76.28,1.28.56,1.54.84s.4.63.4,1.06Z"/><path class="cls-3" d="m491.69,45.54c0,1.05-.26,1.86-.79,2.45s-1.26.88-2.19.88c-.57,0-1.08-.13-1.53-.4s-.79-.66-1.03-1.16-.36-1.09-.36-1.77c0-1.05.26-1.86.79-2.45s1.25-.88,2.18-.88,1.61.3,2.14.9.79,1.41.79,2.43Zm-4.89,0c0,.82.16,1.45.49,1.88s.81.64,1.45.64,1.12-.21,1.45-.64.5-1.05.5-1.88-.17-1.44-.5-1.86-.82-.64-1.46-.64-1.12.21-1.44.63-.49,1.04-.49,1.87Z"/><path class="cls-3" d="m496.32,42.22c.29,0,.54.02.77.07l-.13.9c-.27-.06-.5-.09-.7-.09-.52,0-.96.21-1.33.63s-.55.95-.55,1.58v3.45h-.97v-6.42h.8l.11,1.19h.05c.24-.42.53-.74.86-.97s.71-.34,1.11-.34Z"/><path class="cls-3" d="m503.55,42.34v.62l-1.19.14c.11.14.21.32.29.54s.13.47.13.75c0,.63-.21,1.13-.64,1.51s-1.02.56-1.77.56c-.19,0-.37-.02-.54-.05-.41.22-.62.49-.62.83,0,.18.07.31.22.39s.39.13.74.13h1.14c.7,0,1.23.15,1.6.44s.56.72.56,1.28c0,.71-.29,1.25-.86,1.63s-1.4.56-2.5.56c-.84,0-1.49-.16-1.94-.47s-.68-.75-.68-1.32c0-.39.12-.73.38-1.01s.6-.48,1.05-.58c-.16-.07-.3-.19-.41-.35s-.17-.34-.17-.54c0-.23.06-.44.19-.62s.32-.35.59-.51c-.33-.14-.6-.37-.81-.7s-.31-.7-.31-1.12c0-.7.21-1.25.63-1.63s1.02-.57,1.79-.57c.34,0,.64.04.91.12h2.22Zm-5.12,7.5c0,.35.15.61.44.79s.71.27,1.26.27c.82,0,1.42-.12,1.81-.37s.59-.58.59-.99c0-.35-.11-.59-.32-.72s-.62-.2-1.21-.2h-1.17c-.44,0-.79.11-1.03.32s-.37.51-.37.91Zm.53-5.44c0,.45.13.79.38,1.02s.61.35,1.06.35c.95,0,1.42-.46,1.42-1.38s-.48-1.45-1.44-1.45c-.46,0-.81.12-1.05.37s-.37.61-.37,1.1Z"/><path class="cls-3" d="m508.81,48.76l-.19-.91h-.05c-.32.4-.64.67-.96.82s-.72.21-1.19.21c-.64,0-1.14-.16-1.5-.49s-.54-.79-.54-1.4c0-1.3,1.04-1.98,3.11-2.04l1.09-.04v-.4c0-.5-.11-.88-.33-1.12s-.56-.36-1.04-.36c-.54,0-1.14.16-1.82.49l-.3-.74c.32-.17.66-.31,1.04-.4s.75-.15,1.13-.15c.77,0,1.33.17,1.7.51s.55.88.55,1.63v4.38h-.72Zm-2.2-.69c.61,0,1.08-.17,1.43-.5s.52-.8.52-1.39v-.58l-.97.04c-.77.03-1.33.15-1.67.36s-.51.54-.51.99c0,.35.11.62.32.8s.51.28.89.28Z"/><path class="cls-3" d="m515.93,48.76v-4.15c0-.52-.12-.91-.36-1.17s-.61-.39-1.12-.39c-.67,0-1.16.18-1.48.54s-.47.96-.47,1.8v3.37h-.97v-6.42h.79l.16.88h.05c.2-.32.48-.56.84-.74s.76-.26,1.2-.26c.77,0,1.36.19,1.75.56s.59.97.59,1.79v4.19h-.97Z"/><path class="cls-3" d="m518.82,40.6c0-.22.05-.39.16-.49s.25-.16.41-.16.29.05.4.16.17.27.17.49-.06.38-.17.49-.25.16-.4.16c-.16,0-.3-.05-.41-.16s-.16-.27-.16-.49Zm1.05,8.16h-.97v-6.42h.97v6.42Z"/><path class="cls-3" d="m526.05,48.76h-4.66v-.66l3.5-5h-3.29v-.76h4.35v.76l-3.46,4.91h3.54v.76Z"/><path class="cls-3" d="m531.5,48.76l-.19-.91h-.05c-.32.4-.64.67-.96.82s-.72.21-1.19.21c-.64,0-1.14-.16-1.5-.49s-.54-.79-.54-1.4c0-1.3,1.04-1.98,3.11-2.04l1.09-.04v-.4c0-.5-.11-.88-.33-1.12s-.56-.36-1.04-.36c-.54,0-1.14.16-1.82.49l-.3-.74c.32-.17.66-.31,1.04-.4s.75-.15,1.13-.15c.77,0,1.33.17,1.7.51s.55.88.55,1.63v4.38h-.72Zm-2.2-.69c.61,0,1.08-.17,1.43-.5s.52-.8.52-1.39v-.58l-.97.04c-.77.03-1.33.15-1.67.36s-.51.54-.51.99c0,.35.11.62.32.8s.51.28.89.28Z"/><path class="cls-3" d="m538.6,47.9h-.05c-.45.65-1.12.98-2.02.98-.84,0-1.49-.29-1.96-.86s-.7-1.39-.7-2.45.23-1.88.7-2.47,1.12-.88,1.96-.88,1.54.32,2,.95h.08l-.04-.46-.02-.45v-2.61h.97v9.12h-.79l-.13-.86Zm-1.95.16c.66,0,1.15-.18,1.44-.54s.45-.94.45-1.75v-.21c0-.91-.15-1.56-.45-1.95s-.79-.58-1.45-.58c-.57,0-1.01.22-1.31.67s-.45,1.07-.45,1.88.15,1.44.45,1.86.74.63,1.32.63Z"/><path class="cls-3" d="m545.53,48.76l-.19-.91h-.05c-.32.4-.64.67-.96.82s-.72.21-1.19.21c-.64,0-1.14-.16-1.5-.49s-.54-.79-.54-1.4c0-1.3,1.04-1.98,3.11-2.04l1.09-.04v-.4c0-.5-.11-.88-.33-1.12s-.56-.36-1.04-.36c-.54,0-1.14.16-1.82.49l-.3-.74c.32-.17.66-.31,1.04-.4s.75-.15,1.13-.15c.77,0,1.33.17,1.7.51s.55.88.55,1.63v4.38h-.72Zm-2.2-.69c.61,0,1.08-.17,1.43-.5s.52-.8.52-1.39v-.58l-.97.04c-.77.03-1.33.15-1.67.36s-.51.54-.51.99c0,.35.11.62.32.8s.51.28.89.28Z"/><path class="cls-3" d="m552.39,47.01c0,.6-.22,1.06-.67,1.38s-1.07.49-1.88.49c-.85,0-1.52-.13-1.99-.4v-.9c.31.16.64.28.99.37s.69.13,1.02.13c.51,0,.9-.08,1.17-.24s.41-.41.41-.74c0-.25-.11-.46-.33-.64s-.64-.39-1.27-.63c-.6-.22-1.02-.42-1.27-.58s-.44-.35-.56-.57-.18-.46-.18-.76c0-.52.21-.94.64-1.24s1.01-.45,1.75-.45c.69,0,1.37.14,2.03.42l-.35.79c-.64-.27-1.23-.4-1.75-.4-.46,0-.81.07-1.04.22s-.35.34-.35.6c0,.17.04.32.13.44s.23.24.42.35.57.27,1.12.47c.76.28,1.28.56,1.54.84s.4.63.4,1.06Z"/><path class="cls-3" d="m417.31,63.16l-2.91-7.59h-.05c.05.6.08,1.32.08,2.14v5.45h-.92v-8.57h1.5l2.71,7.07h.05l2.74-7.07h1.49v8.57h-1v-5.52c0-.63.03-1.32.08-2.06h-.05l-2.93,7.58h-.8Z"/><path class="cls-3" d="m425.12,56.74v4.17c0,.52.12.91.36,1.17s.61.39,1.12.39c.67,0,1.16-.18,1.47-.55s.47-.97.47-1.8v-3.38h.97v6.42h-.8l-.14-.86h-.05c-.2.32-.48.56-.83.73s-.76.25-1.21.25c-.78,0-1.37-.19-1.75-.56s-.58-.96-.58-1.78v-4.2h.98Z"/><path class="cls-3" d="m435.95,62.3h-.05c-.45.65-1.12.98-2.02.98-.84,0-1.49-.29-1.96-.86s-.7-1.39-.7-2.45.23-1.88.7-2.47,1.12-.88,1.96-.88,1.54.32,2,.95h.08l-.04-.46-.02-.45v-2.61h.97v9.12h-.79l-.13-.86Zm-1.95.16c.66,0,1.15-.18,1.44-.54s.45-.94.45-1.75v-.21c0-.91-.15-1.56-.45-1.95s-.79-.58-1.45-.58c-.57,0-1.01.22-1.31.67s-.45,1.07-.45,1.88.15,1.44.45,1.86.74.63,1.32.63Z"/><path class="cls-3" d="m442.88,63.16l-.19-.91h-.05c-.32.4-.64.67-.96.82s-.72.21-1.19.21c-.64,0-1.14-.16-1.5-.49s-.54-.79-.54-1.4c0-1.3,1.04-1.98,3.11-2.04l1.09-.04v-.4c0-.5-.11-.88-.33-1.12s-.56-.36-1.04-.36c-.54,0-1.14.16-1.82.49l-.3-.74c.32-.17.66-.31,1.04-.4s.75-.15,1.13-.15c.77,0,1.33.17,1.7.51s.55.88.55,1.63v4.38h-.72Zm-2.2-.69c.61,0,1.08-.17,1.43-.5s.52-.8.52-1.39v-.58l-.97.04c-.77.03-1.33.15-1.67.36s-.51.54-.51.99c0,.35.11.62.32.8s.51.28.89.28Z"/><path class="cls-3" d="m450,63.16v-4.15c0-.52-.12-.91-.36-1.17s-.61-.39-1.12-.39c-.67,0-1.16.18-1.48.54s-.47.96-.47,1.8v3.37h-.97v-6.42h.79l.16.88h.05c.2-.32.48-.56.84-.74s.76-.26,1.2-.26c.77,0,1.36.19,1.75.56s.59.97.59,1.79v4.19h-.97Z"/><path class="cls-3" d="m455.53,63.28c-.93,0-1.65-.29-2.16-.86s-.76-1.38-.76-2.43.26-1.9.78-2.49,1.25-.88,2.21-.88c.31,0,.62.03.93.1s.55.14.73.23l-.3.83c-.21-.09-.45-.16-.7-.21s-.48-.08-.67-.08c-1.3,0-1.96.83-1.96,2.5,0,.79.16,1.39.48,1.82s.79.63,1.42.63c.54,0,1.08-.12,1.65-.35v.86c-.43.22-.97.33-1.62.33Zm.87,1.58c0,.38-.15.67-.45.88s-.74.31-1.33.31c-.2,0-.39-.02-.56-.05v-.62c.18.03.38.05.61.05.31,0,.54-.04.7-.12s.24-.22.24-.43c0-.17-.08-.3-.23-.41s-.44-.19-.87-.25l.52-1.04h.64l-.32.67c.7.15,1.05.49,1.05,1.02Z"/><path class="cls-3" d="m462.63,63.16l-.19-.91h-.05c-.32.4-.64.67-.96.82s-.72.21-1.19.21c-.64,0-1.14-.16-1.5-.49s-.54-.79-.54-1.4c0-1.3,1.04-1.98,3.11-2.04l1.09-.04v-.4c0-.5-.11-.88-.33-1.12s-.56-.36-1.04-.36c-.54,0-1.14.16-1.82.49l-.3-.74c.32-.17.66-.31,1.04-.4s.75-.15,1.13-.15c.77,0,1.33.17,1.7.51s.55.88.55,1.63v4.38h-.72Zm-2.2-.69c.61,0,1.08-.17,1.43-.5s.52-.8.52-1.39v-.58l-.97.04c-.77.03-1.33.15-1.67.36s-.51.54-.51.99c0,.35.11.62.32.8s.51.28.89.28Z"/><path class="cls-3" d="m469.5,61.41c0,.6-.22,1.06-.67,1.38s-1.07.49-1.88.49c-.85,0-1.52-.13-1.99-.4v-.9c.31.16.64.28.99.37s.69.13,1.02.13c.51,0,.9-.08,1.17-.24s.41-.41.41-.74c0-.25-.11-.46-.33-.64s-.64-.39-1.27-.63c-.6-.22-1.02-.42-1.27-.58s-.44-.35-.56-.57-.18-.46-.18-.76c0-.52.21-.94.64-1.24s1.01-.45,1.75-.45c.69,0,1.37.14,2.03.42l-.35.79c-.64-.27-1.23-.4-1.75-.4-.46,0-.81.07-1.04.22s-.35.34-.35.6c0,.17.04.32.13.44s.23.24.42.35.57.27,1.12.47c.76.28,1.28.56,1.54.84s.4.63.4,1.06Z"/><path class="cls-3" d="m478.59,63.16v-4.15c0-.52-.12-.91-.36-1.17s-.61-.39-1.12-.39c-.67,0-1.16.18-1.48.54s-.47.96-.47,1.8v3.37h-.97v-6.42h.79l.16.88h.05c.2-.32.48-.56.84-.74s.76-.26,1.2-.26c.77,0,1.36.19,1.75.56s.59.97.59,1.79v4.19h-.97Z"/><path class="cls-3" d="m487.1,59.94c0,1.05-.26,1.86-.79,2.45s-1.26.88-2.19.88c-.57,0-1.08-.13-1.53-.4s-.79-.66-1.03-1.16-.36-1.09-.36-1.77c0-1.05.26-1.86.79-2.45s1.25-.88,2.18-.88,1.61.3,2.14.9.79,1.41.79,2.43Zm-4.89,0c0,.82.16,1.45.49,1.88s.81.64,1.45.64,1.12-.21,1.45-.64.5-1.05.5-1.88-.17-1.44-.5-1.86-.82-.64-1.46-.64-1.12.21-1.44.63-.49,1.04-.49,1.87Z"/><path class="cls-3" d="m497.18,56.74v.62l-1.19.14c.11.14.21.32.29.54s.13.47.13.75c0,.63-.21,1.13-.64,1.51s-1.02.56-1.77.56c-.19,0-.37-.02-.54-.05-.41.22-.62.49-.62.83,0,.18.07.31.22.39s.39.13.74.13h1.14c.7,0,1.23.15,1.6.44s.56.72.56,1.28c0,.71-.29,1.25-.86,1.63s-1.4.56-2.5.56c-.84,0-1.49-.16-1.94-.47s-.68-.75-.68-1.32c0-.39.12-.73.38-1.01s.6-.48,1.05-.58c-.16-.07-.3-.19-.41-.35s-.17-.34-.17-.54c0-.23.06-.44.19-.62s.32-.35.59-.51c-.33-.14-.6-.37-.81-.7s-.31-.7-.31-1.12c0-.7.21-1.25.63-1.63s1.02-.57,1.79-.57c.34,0,.64.04.91.12h2.22Zm-5.12,7.5c0,.35.15.61.44.79s.71.27,1.26.27c.82,0,1.42-.12,1.81-.37s.59-.58.59-.99c0-.35-.11-.59-.32-.72s-.62-.2-1.21-.2h-1.17c-.44,0-.79.11-1.03.32s-.37.51-.37.91Zm.53-5.44c0,.45.13.79.38,1.02s.61.35,1.06.35c.95,0,1.42-.46,1.42-1.38s-.48-1.45-1.44-1.45c-.46,0-.81.12-1.05.37s-.37.61-.37,1.1Z"/><path class="cls-3" d="m504.04,59.94c0,1.05-.26,1.86-.79,2.45s-1.26.88-2.19.88c-.57,0-1.08-.13-1.53-.4s-.79-.66-1.03-1.16-.36-1.09-.36-1.77c0-1.05.26-1.86.79-2.45s1.25-.88,2.18-.88,1.61.3,2.14.9.79,1.41.79,2.43Zm-4.89,0c0,.82.16,1.45.49,1.88s.81.64,1.45.64,1.12-.21,1.45-.64.5-1.05.5-1.88-.17-1.44-.5-1.86-.82-.64-1.46-.64-1.12.21-1.44.63-.49,1.04-.49,1.87Z"/><path class="cls-3" d="m507.15,63.16l-2.44-6.42h1.04l1.38,3.81c.31.89.5,1.47.55,1.73h.05c.04-.21.18-.64.41-1.29s.74-2.07,1.54-4.26h1.04l-2.44,6.42h-1.14Z"/><path class="cls-3" d="m514.47,63.28c-.95,0-1.7-.29-2.25-.87s-.82-1.38-.82-2.41.25-1.86.76-2.47,1.19-.91,2.05-.91c.8,0,1.44.26,1.91.79s.7,1.23.7,2.09v.62h-4.42c.02.75.21,1.33.57,1.72s.87.59,1.53.59c.69,0,1.38-.14,2.05-.43v.87c-.34.15-.67.25-.98.32s-.68.1-1.11.1Zm-.26-5.84c-.52,0-.93.17-1.23.5s-.49.8-.54,1.39h3.36c0-.61-.14-1.08-.41-1.41s-.66-.49-1.17-.49Z"/><path class="cls-3" d="m521.42,56.62c.29,0,.54.02.77.07l-.13.9c-.27-.06-.5-.09-.7-.09-.52,0-.96.21-1.33.63s-.55.95-.55,1.58v3.45h-.97v-6.42h.8l.11,1.19h.05c.24-.42.53-.74.86-.97s.71-.34,1.11-.34Z"/><path class="cls-3" d="m527.79,63.16v-4.15c0-.52-.12-.91-.36-1.17s-.61-.39-1.12-.39c-.67,0-1.16.18-1.48.54s-.47.96-.47,1.8v3.37h-.97v-6.42h.79l.16.88h.05c.2-.32.48-.56.84-.74s.76-.26,1.2-.26c.77,0,1.36.19,1.75.56s.59.97.59,1.79v4.19h-.97Z"/><path class="cls-3" d="m536.3,59.94c0,1.05-.26,1.86-.79,2.45s-1.26.88-2.19.88c-.57,0-1.08-.13-1.53-.4s-.79-.66-1.03-1.16-.36-1.09-.36-1.77c0-1.05.26-1.86.79-2.45s1.25-.88,2.18-.88,1.61.3,2.14.9.79,1.41.79,2.43Zm-4.89,0c0,.82.16,1.45.49,1.88s.81.64,1.45.64,1.12-.21,1.45-.64.5-1.05.5-1.88-.17-1.44-.5-1.86-.82-.64-1.46-.64-1.12.21-1.44.63-.49,1.04-.49,1.87Z"/></g><rect class="cls-2" x="173.79" y="104.04" width="181.89" height="78.21"/><g><path class="cls-3" d="m180.71,124.63c-.41,0-.77-.04-1.07-.13v-1.51c.31.08.6.12.86.12.4,0,.68-.12.86-.37s.26-.64.26-1.16v-8.03h1.82v8.02c0,1-.23,1.76-.69,2.29s-1.13.79-2.03.79Z"/><path class="cls-3" d="m190.82,122.11l-.62-2.04h-3.12l-.62,2.04h-1.96l3.02-8.6h2.22l3.04,8.6h-1.96Zm-1.05-3.56c-.57-1.85-.9-2.89-.97-3.13s-.12-.43-.16-.57c-.13.5-.5,1.74-1.11,3.71h2.23Z"/><path class="cls-3" d="m201.46,122.11h-2.31l-3.73-6.48h-.05c.07,1.14.11,1.96.11,2.45v4.03h-1.62v-8.57h2.29l3.72,6.42h.04c-.06-1.11-.09-1.9-.09-2.36v-4.05h1.63v8.57Z"/><path class="cls-3" d="m208.55,122.11h-4.93v-8.57h4.93v1.49h-3.12v1.88h2.9v1.49h-2.9v2.21h3.12v1.5Z"/><path class="cls-3" d="m210.33,122.11v-8.57h1.82v7.07h3.47v1.5h-5.29Z"/><path class="cls-3" d="m222.36,122.11l-.62-2.04h-3.12l-.62,2.04h-1.96l3.02-8.6h2.22l3.04,8.6h-1.96Zm-1.05-3.56c-.57-1.85-.9-2.89-.97-3.13s-.12-.43-.16-.57c-.13.5-.5,1.74-1.11,3.71h2.23Z"/><path class="cls-3" d="m235.62,117.74c0,1.41-.4,2.49-1.2,3.24s-1.96,1.12-3.48,1.12h-2.43v-8.57h2.69c1.4,0,2.48.37,3.26,1.11s1.16,1.77,1.16,3.09Zm-1.89.05c0-1.84-.81-2.76-2.44-2.76h-.97v5.58h.78c1.75,0,2.62-.94,2.62-2.82Z"/><path class="cls-3" d="m242.33,122.11h-4.93v-8.57h4.93v1.49h-3.12v1.88h2.9v1.49h-2.9v2.21h3.12v1.5Z"/><path class="cls-3" d="m255.01,117.81c0,1.42-.35,2.51-1.05,3.27s-1.71,1.14-3.02,1.14-2.32-.38-3.02-1.14-1.05-1.86-1.05-3.28.35-2.51,1.06-3.27,1.72-1.13,3.03-1.13,2.32.38,3.02,1.14,1.05,1.85,1.05,3.27Zm-6.25,0c0,.96.18,1.68.54,2.16s.91.73,1.63.73c1.45,0,2.17-.96,2.17-2.89s-.72-2.89-2.16-2.89c-.72,0-1.27.24-1.63.73s-.55,1.21-.55,2.17Z"/><path class="cls-3" d="m262.7,116.21c0,.92-.29,1.63-.86,2.12s-1.4.73-2.46.73h-.78v3.05h-1.82v-8.57h2.74c1.04,0,1.83.22,2.37.67s.81,1.11.81,2Zm-4.1,1.36h.6c.56,0,.98-.11,1.25-.33s.42-.54.42-.96-.12-.74-.35-.94-.6-.3-1.09-.3h-.83v2.54Z"/><path class="cls-3" d="m272.09,117.81c0,1.42-.35,2.51-1.05,3.27s-1.71,1.14-3.02,1.14-2.32-.38-3.02-1.14-1.05-1.86-1.05-3.28.35-2.51,1.06-3.27,1.72-1.13,3.03-1.13,2.32.38,3.02,1.14,1.05,1.85,1.05,3.27Zm-6.25,0c0,.96.18,1.68.54,2.16s.91.73,1.63.73c1.45,0,2.17-.96,2.17-2.89s-.72-2.89-2.16-2.89c-.72,0-1.27.24-1.63.73s-.55,1.21-.55,2.17Z"/><path class="cls-3" d="m275.68,118.82v3.29h-1.82v-8.57h2.5c1.16,0,2.03.21,2.58.64s.84,1.07.84,1.93c0,.5-.14.95-.42,1.34s-.67.7-1.18.92c1.29,1.93,2.13,3.17,2.52,3.73h-2.02l-2.04-3.29h-.97Zm0-1.48h.59c.57,0,1-.1,1.27-.29s.41-.49.41-.9-.14-.7-.42-.87-.71-.26-1.3-.26h-.55v2.31Z"/><path class="cls-3" d="m285.09,122.11h-1.82v-7.05h-2.33v-1.51h6.47v1.51h-2.33v7.05Z"/><path class="cls-3" d="m295.71,113.54v5.54c0,.63-.14,1.19-.42,1.66s-.69.84-1.23,1.1-1.17.38-1.9.38c-1.1,0-1.96-.28-2.57-.85s-.91-1.34-.91-2.32v-5.52h1.81v5.24c0,.66.13,1.14.4,1.45s.71.46,1.32.46,1.02-.16,1.29-.47.4-.8.4-1.46v-5.23h1.81Z"/><path class="cls-3" d="m305.41,122.11h-2.31l-3.73-6.48h-.05c.07,1.14.11,1.96.11,2.45v4.03h-1.62v-8.57h2.29l3.72,6.42h.04c-.06-1.11-.09-1.9-.09-2.36v-4.05h1.63v8.57Z"/><path class="cls-3" d="m307.56,122.11v-8.57h1.82v8.57h-1.82Z"/><path class="cls-3" d="m318.64,117.74c0,1.41-.4,2.49-1.2,3.24s-1.96,1.12-3.48,1.12h-2.43v-8.57h2.69c1.4,0,2.48.37,3.26,1.11s1.16,1.77,1.16,3.09Zm-1.89.05c0-1.84-.81-2.76-2.44-2.76h-.97v5.58h.78c1.75,0,2.62-.94,2.62-2.82Z"/><path class="cls-3" d="m325.66,122.11l-.62-2.04h-3.12l-.62,2.04h-1.96l3.02-8.6h2.22l3.04,8.6h-1.96Zm-1.05-3.56c-.57-1.85-.9-2.89-.97-3.13s-.12-.43-.16-.57c-.13.5-.5,1.74-1.11,3.71h2.23Z"/><path class="cls-3" d="m335.81,117.74c0,1.41-.4,2.49-1.2,3.24s-1.96,1.12-3.48,1.12h-2.43v-8.57h2.69c1.4,0,2.48.37,3.26,1.11s1.16,1.77,1.16,3.09Zm-1.89.05c0-1.84-.81-2.76-2.44-2.76h-.97v5.58h.78c1.75,0,2.62-.94,2.62-2.82Z"/><path class="cls-3" d="m342.51,122.11h-4.93v-8.57h4.93v1.49h-3.12v1.88h2.9v1.49h-2.9v2.21h3.12v1.5Z"/><path class="cls-3" d="m349.36,119.73c0,.77-.28,1.38-.83,1.83s-1.33.67-2.32.67c-.91,0-1.72-.17-2.43-.52v-1.69c.58.26,1.07.44,1.47.54s.77.16,1.1.16c.4,0,.7-.08.92-.23s.32-.38.32-.68c0-.17-.05-.32-.14-.45s-.23-.26-.41-.38-.55-.31-1.11-.58c-.52-.25-.92-.48-1.18-.71s-.47-.49-.63-.79-.23-.65-.23-1.05c0-.76.26-1.35.77-1.79s1.22-.65,2.13-.65c.45,0,.87.05,1.27.16s.83.25,1.27.45l-.59,1.41c-.46-.19-.83-.32-1.13-.39s-.59-.11-.88-.11c-.34,0-.61.08-.79.24s-.28.37-.28.63c0,.16.04.3.11.42s.19.23.35.35.55.31,1.15.6c.8.38,1.35.77,1.65,1.15s.45.86.45,1.42Z"/></g><g><path class="cls-3" d="m228.99,130.6c-.94,0-1.68.31-2.23.94s-.82,1.49-.82,2.58.26,1.99.79,2.6,1.27.92,2.25.92c.6,0,1.28-.11,2.04-.32v.87c-.59.22-1.33.33-2.2.33-1.26,0-2.24-.38-2.92-1.15s-1.03-1.85-1.03-3.26c0-.88.17-1.66.5-2.32s.81-1.18,1.43-1.54,1.36-.54,2.2-.54c.9,0,1.68.16,2.36.49l-.42.86c-.65-.3-1.3-.46-1.95-.46Z"/><path class="cls-3" d="m238.29,135.19c0,1.05-.26,1.86-.79,2.45s-1.26.88-2.19.88c-.57,0-1.08-.13-1.53-.4s-.79-.66-1.03-1.16-.36-1.09-.36-1.77c0-1.05.26-1.86.79-2.45s1.25-.88,2.18-.88,1.61.3,2.14.9.79,1.41.79,2.43Zm-4.89,0c0,.82.16,1.45.49,1.88s.81.64,1.45.64,1.12-.21,1.45-.64.5-1.05.5-1.88-.17-1.44-.5-1.86-.82-.64-1.46-.64-1.12.21-1.44.63-.49,1.04-.49,1.87Z"/><path class="cls-3" d="m244.39,138.4v-4.15c0-.52-.12-.91-.36-1.17s-.61-.39-1.12-.39c-.67,0-1.16.18-1.48.54s-.47.96-.47,1.8v3.37h-.97v-6.42h.79l.16.88h.05c.2-.32.48-.56.84-.74s.76-.26,1.2-.26c.77,0,1.36.19,1.75.56s.59.97.59,1.79v4.19h-.97Z"/><path class="cls-3" d="m251.5,136.65c0,.6-.22,1.06-.67,1.38s-1.07.49-1.88.49c-.85,0-1.52-.13-1.99-.4v-.9c.31.16.64.28.99.37s.69.13,1.02.13c.51,0,.9-.08,1.17-.24s.41-.41.41-.74c0-.25-.11-.46-.33-.64s-.64-.39-1.27-.63c-.6-.22-1.02-.42-1.27-.58s-.44-.35-.56-.57-.18-.46-.18-.76c0-.52.21-.94.64-1.24s1.01-.45,1.75-.45c.69,0,1.37.14,2.03.42l-.35.79c-.64-.27-1.23-.4-1.75-.4-.46,0-.81.07-1.04.22s-.35.34-.35.6c0,.17.04.32.13.44s.23.24.42.35.57.27,1.12.47c.76.28,1.28.56,1.54.84s.4.63.4,1.06Z"/><path class="cls-3" d="m255.15,137.72c.17,0,.34-.01.5-.04s.29-.05.38-.08v.74c-.11.05-.26.09-.47.13s-.39.05-.55.05c-1.24,0-1.86-.65-1.86-1.96v-3.82h-.92v-.47l.92-.4.41-1.37h.56v1.49h1.86v.76h-1.86v3.78c0,.39.09.68.28.89s.44.31.76.31Z"/><path class="cls-3" d="m260.25,131.86c.29,0,.54.02.77.07l-.13.9c-.27-.06-.5-.09-.7-.09-.52,0-.96.21-1.33.63s-.55.95-.55,1.58v3.45h-.97v-6.42h.8l.11,1.19h.05c.24-.42.53-.74.86-.97s.71-.34,1.11-.34Z"/><path class="cls-3" d="m263.13,131.98v4.17c0,.52.12.91.36,1.17s.61.39,1.12.39c.67,0,1.16-.18,1.47-.55s.47-.97.47-1.8v-3.38h.97v6.42h-.8l-.14-.86h-.05c-.2.32-.48.56-.83.73s-.76.25-1.21.25c-.78,0-1.37-.19-1.75-.56s-.58-.96-.58-1.78v-4.2h.98Z"/><path class="cls-3" d="m272.15,138.52c-.93,0-1.65-.29-2.16-.86s-.76-1.38-.76-2.43.26-1.9.78-2.49,1.25-.88,2.21-.88c.31,0,.62.03.93.1s.55.14.73.23l-.3.83c-.21-.09-.45-.16-.7-.21s-.48-.08-.67-.08c-1.3,0-1.96.83-1.96,2.5,0,.79.16,1.39.48,1.82s.79.63,1.42.63c.54,0,1.08-.12,1.65-.35v.86c-.43.22-.97.33-1.62.33Zm.87,1.58c0,.38-.15.67-.45.88s-.74.31-1.33.31c-.2,0-.39-.02-.56-.05v-.62c.18.03.38.05.61.05.31,0,.54-.04.7-.12s.24-.22.24-.43c0-.17-.08-.3-.23-.41s-.44-.19-.87-.25l.52-1.04h.64l-.32.67c.7.15,1.05.49,1.05,1.02Z"/><path class="cls-3" d="m279.24,138.4l-.19-.91h-.05c-.32.4-.64.67-.96.82s-.72.21-1.19.21c-.64,0-1.14-.16-1.5-.49s-.54-.79-.54-1.4c0-1.3,1.04-1.98,3.11-2.04l1.09-.04v-.4c0-.5-.11-.88-.33-1.12s-.56-.36-1.04-.36c-.54,0-1.14.16-1.82.49l-.3-.74c.32-.17.66-.31,1.04-.4s.75-.15,1.13-.15c.77,0,1.33.17,1.7.51s.55.88.55,1.63v4.38h-.72Zm-.76-7.28c-.17,0-.33-.04-.49-.11s-.32-.15-.47-.24-.3-.17-.45-.24-.28-.11-.41-.11c-.2,0-.34.06-.44.18s-.18.29-.23.53h-.57c.05-.47.19-.84.41-1.11s.51-.4.87-.4c.18,0,.35.04.52.11s.33.15.48.24.3.17.44.24.27.11.4.11c.19,0,.33-.06.43-.17s.17-.29.23-.54h.58c-.05.47-.19.84-.41,1.11s-.51.4-.88.4Zm-1.44,6.6c.61,0,1.08-.17,1.43-.5s.52-.8.52-1.39v-.58l-.97.04c-.77.03-1.33.15-1.67.36s-.51.54-.51.99c0,.35.11.62.32.8s.51.28.89.28Z"/><path class="cls-3" d="m287.51,135.19c0,1.05-.26,1.86-.79,2.45s-1.26.88-2.19.88c-.57,0-1.08-.13-1.53-.4s-.79-.66-1.03-1.16-.36-1.09-.36-1.77c0-1.05.26-1.86.79-2.45s1.25-.88,2.18-.88,1.61.3,2.14.9.79,1.41.79,2.43Zm-4.89,0c0,.82.16,1.45.49,1.88s.81.64,1.45.64,1.12-.21,1.45-.64.5-1.05.5-1.88-.17-1.44-.5-1.86-.82-.64-1.46-.64-1.12.21-1.44.63-.49,1.04-.49,1.87Z"/><path class="cls-3" d="m296.7,137.54h-.05c-.45.65-1.12.98-2.02.98-.84,0-1.49-.29-1.96-.86s-.7-1.39-.7-2.45.23-1.88.7-2.47,1.12-.88,1.96-.88,1.54.32,2,.95h.08l-.04-.46-.02-.45v-2.61h.97v9.12h-.79l-.13-.86Zm-1.95.16c.66,0,1.15-.18,1.44-.54s.45-.94.45-1.75v-.21c0-.91-.15-1.56-.45-1.95s-.79-.58-1.45-.58c-.57,0-1.01.22-1.31.67s-.45,1.07-.45,1.88.15,1.44.45,1.86.74.63,1.32.63Z"/><path class="cls-3" d="m303.63,138.4l-.19-.91h-.05c-.32.4-.64.67-.96.82s-.72.21-1.19.21c-.64,0-1.14-.16-1.5-.49s-.54-.79-.54-1.4c0-1.3,1.04-1.98,3.11-2.04l1.09-.04v-.4c0-.5-.11-.88-.33-1.12s-.56-.36-1.04-.36c-.54,0-1.14.16-1.82.49l-.3-.74c.32-.17.66-.31,1.04-.4s.75-.15,1.13-.15c.77,0,1.33.17,1.7.51s.55.88.55,1.63v4.38h-.72Zm-2.2-.69c.61,0,1.08-.17,1.43-.5s.52-.8.52-1.39v-.58l-.97.04c-.77.03-1.33.15-1.67.36s-.51.54-.51.99c0,.35.11.62.32.8s.51.28.89.28Z"/><path class="cls-3" d="m195.4,152.8l-.19-.91h-.05c-.32.4-.64.67-.96.82s-.72.21-1.19.21c-.64,0-1.14-.16-1.5-.49s-.54-.79-.54-1.4c0-1.3,1.04-1.98,3.11-2.04l1.09-.04v-.4c0-.5-.11-.88-.33-1.12s-.56-.36-1.04-.36c-.54,0-1.14.16-1.82.49l-.3-.74c.32-.17.66-.31,1.04-.4s.75-.15,1.13-.15c.77,0,1.33.17,1.7.51s.55.88.55,1.63v4.38h-.72Zm-2.2-.69c.61,0,1.08-.17,1.43-.5s.52-.8.52-1.39v-.58l-.97.04c-.77.03-1.33.15-1.67.36s-.51.54-.51.99c0,.35.11.62.32.8s.51.28.89.28Z"/><path class="cls-3" d="m200.69,152.92c-.93,0-1.65-.29-2.16-.86s-.76-1.38-.76-2.43.26-1.9.78-2.49,1.25-.88,2.21-.88c.31,0,.62.03.93.1s.55.14.73.23l-.3.83c-.21-.09-.45-.16-.7-.21s-.48-.08-.67-.08c-1.3,0-1.96.83-1.96,2.5,0,.79.16,1.39.48,1.82s.79.63,1.42.63c.54,0,1.08-.12,1.65-.35v.86c-.43.22-.97.33-1.62.33Z"/><path class="cls-3" d="m206.55,152.92c-.95,0-1.7-.29-2.25-.87s-.82-1.38-.82-2.41.25-1.86.76-2.47,1.19-.91,2.05-.91c.8,0,1.44.26,1.91.79s.7,1.23.7,2.09v.62h-4.42c.02.75.21,1.33.57,1.72s.87.59,1.53.59c.69,0,1.38-.14,2.05-.43v.87c-.34.15-.67.25-.98.32s-.68.1-1.11.1Zm-.26-5.84c-.52,0-.93.17-1.23.5s-.49.8-.54,1.39h3.36c0-.61-.14-1.08-.41-1.41s-.66-.49-1.17-.49Z"/><path class="cls-3" d="m210.49,144.64c0-.22.05-.39.16-.49s.25-.16.41-.16.29.05.4.16.17.27.17.49-.06.38-.17.49-.25.16-.4.16c-.16,0-.3-.05-.41-.16s-.16-.27-.16-.49Zm1.05,8.16h-.97v-6.42h.97v6.42Z"/><path class="cls-3" d="m215.68,152.12c.17,0,.34-.01.5-.04s.29-.05.38-.08v.74c-.11.05-.26.09-.47.13s-.39.05-.55.05c-1.24,0-1.86-.65-1.86-1.96v-3.82h-.92v-.47l.92-.4.41-1.37h.56v1.49h1.86v.76h-1.86v3.78c0,.39.09.68.28.89s.44.31.76.31Z"/><path class="cls-3" d="m221.79,152.8l-.19-.91h-.05c-.32.4-.64.67-.96.82s-.72.21-1.19.21c-.64,0-1.14-.16-1.5-.49s-.54-.79-.54-1.4c0-1.3,1.04-1.98,3.11-2.04l1.09-.04v-.4c0-.5-.11-.88-.33-1.12s-.56-.36-1.04-.36c-.54,0-1.14.16-1.82.49l-.3-.74c.32-.17.66-.31,1.04-.4s.75-.15,1.13-.15c.77,0,1.33.17,1.7.51s.55.88.55,1.63v4.38h-.72Zm-2.2-.69c.61,0,1.08-.17,1.43-.5s.52-.8.52-1.39v-.58l-.97.04c-.77.03-1.33.15-1.67.36s-.51.54-.51.99c0,.35.11.62.32.8s.51.28.89.28Z"/><path class="cls-3" d="m227.5,146.27c.84,0,1.5.29,1.97.86s.7,1.39.7,2.45-.24,1.87-.71,2.46-1.12.88-1.96.88c-.42,0-.8-.08-1.15-.23s-.64-.39-.87-.71h-.07l-.21.83h-.7v-9.12h.97v2.21c0,.5-.02.94-.05,1.34h.05c.45-.64,1.12-.96,2.02-.96Zm-.14.81c-.66,0-1.14.19-1.44.57s-.44,1.02-.44,1.92.15,1.55.45,1.94.78.58,1.45.58c.6,0,1.04-.22,1.34-.65s.44-1.06.44-1.88-.15-1.46-.44-1.87-.75-.62-1.36-.62Z"/><path class="cls-3" d="m231.78,144.64c0-.22.05-.39.16-.49s.25-.16.41-.16.29.05.4.16.17.27.17.49-.06.38-.17.49-.25.16-.4.16c-.16,0-.3-.05-.41-.16s-.16-.27-.16-.49Zm1.05,8.16h-.97v-6.42h.97v6.42Z"/><path class="cls-3" d="m235.87,152.8h-.97v-9.12h.97v9.12Z"/><path class="cls-3" d="m237.86,144.64c0-.22.05-.39.16-.49s.25-.16.41-.16.29.05.4.16.17.27.17.49-.06.38-.17.49-.25.16-.4.16c-.16,0-.3-.05-.41-.16s-.16-.27-.16-.49Zm1.05,8.16h-.97v-6.42h.97v6.42Z"/><path class="cls-3" d="m245.34,151.94h-.05c-.45.65-1.12.98-2.02.98-.84,0-1.49-.29-1.96-.86s-.7-1.39-.7-2.45.23-1.88.7-2.47,1.12-.88,1.96-.88,1.54.32,2,.95h.08l-.04-.46-.02-.45v-2.61h.97v9.12h-.79l-.13-.86Zm-1.95.16c.66,0,1.15-.18,1.44-.54s.45-.94.45-1.75v-.21c0-.91-.15-1.56-.45-1.95s-.79-.58-1.45-.58c-.57,0-1.01.22-1.31.67s-.45,1.07-.45,1.88.15,1.44.45,1.86.74.63,1.32.63Z"/><path class="cls-3" d="m252.28,152.8l-.19-.91h-.05c-.32.4-.64.67-.96.82s-.72.21-1.19.21c-.64,0-1.14-.16-1.5-.49s-.54-.79-.54-1.4c0-1.3,1.04-1.98,3.11-2.04l1.09-.04v-.4c0-.5-.11-.88-.33-1.12s-.56-.36-1.04-.36c-.54,0-1.14.16-1.82.49l-.3-.74c.32-.17.66-.31,1.04-.4s.75-.15,1.13-.15c.77,0,1.33.17,1.7.51s.55.88.55,1.63v4.38h-.72Zm-2.2-.69c.61,0,1.08-.17,1.43-.5s.52-.8.52-1.39v-.58l-.97.04c-.77.03-1.33.15-1.67.36s-.51.54-.51.99c0,.35.11.62.32.8s.51.28.89.28Z"/><path class="cls-3" d="m259.37,151.94h-.05c-.45.65-1.12.98-2.02.98-.84,0-1.49-.29-1.96-.86s-.7-1.39-.7-2.45.23-1.88.7-2.47,1.12-.88,1.96-.88,1.54.32,2,.95h.08l-.04-.46-.02-.45v-2.61h.97v9.12h-.79l-.13-.86Zm-1.95.16c.66,0,1.15-.18,1.44-.54s.45-.94.45-1.75v-.21c0-.91-.15-1.56-.45-1.95s-.79-.58-1.45-.58c-.57,0-1.01.22-1.31.67s-.45,1.07-.45,1.88.15,1.44.45,1.86.74.63,1.32.63Z"/><path class="cls-3" d="m265.07,152.92c-.95,0-1.7-.29-2.25-.87s-.82-1.38-.82-2.41.25-1.86.76-2.47,1.19-.91,2.05-.91c.8,0,1.44.26,1.91.79s.7,1.23.7,2.09v.62h-4.42c.02.75.21,1.33.57,1.72s.87.59,1.53.59c.69,0,1.38-.14,2.05-.43v.87c-.34.15-.67.25-.98.32s-.68.1-1.11.1Zm-.26-5.84c-.52,0-.93.17-1.23.5s-.49.8-.54,1.39h3.36c0-.61-.14-1.08-.41-1.41s-.66-.49-1.17-.49Z"/><path class="cls-3" d="m276.57,151.94h-.05c-.45.65-1.12.98-2.02.98-.84,0-1.49-.29-1.96-.86s-.7-1.39-.7-2.45.23-1.88.7-2.47,1.12-.88,1.96-.88,1.54.32,2,.95h.08l-.04-.46-.02-.45v-2.61h.97v9.12h-.79l-.13-.86Zm-1.95.16c.66,0,1.15-.18,1.44-.54s.45-.94.45-1.75v-.21c0-.91-.15-1.56-.45-1.95s-.79-.58-1.45-.58c-.57,0-1.01.22-1.31.67s-.45,1.07-.45,1.88.15,1.44.45,1.86.74.63,1.32.63Z"/><path class="cls-3" d="m283.51,152.8l-.19-.91h-.05c-.32.4-.64.67-.96.82s-.72.21-1.19.21c-.64,0-1.14-.16-1.5-.49s-.54-.79-.54-1.4c0-1.3,1.04-1.98,3.11-2.04l1.09-.04v-.4c0-.5-.11-.88-.33-1.12s-.56-.36-1.04-.36c-.54,0-1.14.16-1.82.49l-.3-.74c.32-.17.66-.31,1.04-.4s.75-.15,1.13-.15c.77,0,1.33.17,1.7.51s.55.88.55,1.63v4.38h-.72Zm-2.2-.69c.61,0,1.08-.17,1.43-.5s.52-.8.52-1.39v-.58l-.97.04c-.77.03-1.33.15-1.67.36s-.51.54-.51.99c0,.35.11.62.32.8s.51.28.89.28Z"/><path class="cls-3" d="m292.34,152.92c-.42,0-.8-.08-1.15-.23s-.64-.39-.87-.71h-.07c.05.38.07.73.07,1.07v2.64h-.97v-9.3h.79l.13.88h.05c.25-.35.54-.61.87-.76s.71-.23,1.14-.23c.85,0,1.51.29,1.97.87s.69,1.4.69,2.45-.24,1.87-.71,2.46-1.12.88-1.96.88Zm-.14-5.83c-.66,0-1.13.18-1.42.54s-.44.94-.45,1.73v.22c0,.9.15,1.55.45,1.94s.78.58,1.45.58c.55,0,.99-.22,1.3-.67s.47-1.07.47-1.86-.16-1.42-.47-1.84-.76-.64-1.33-.64Z"/><path class="cls-3" d="m299.63,146.26c.29,0,.54.02.77.07l-.13.9c-.27-.06-.5-.09-.7-.09-.52,0-.96.21-1.33.63s-.55.95-.55,1.58v3.45h-.97v-6.42h.8l.11,1.19h.05c.24-.42.53-.74.86-.97s.71-.34,1.11-.34Z"/><path class="cls-3" d="m307.14,149.58c0,1.05-.26,1.86-.79,2.45s-1.26.88-2.19.88c-.57,0-1.08-.13-1.53-.4s-.79-.66-1.03-1.16-.36-1.09-.36-1.77c0-1.05.26-1.86.79-2.45s1.25-.88,2.18-.88,1.61.3,2.14.9.79,1.41.79,2.43Zm-4.89,0c0,.82.16,1.45.49,1.88s.81.64,1.45.64,1.12-.21,1.45-.64.5-1.05.5-1.88-.17-1.44-.5-1.86-.82-.64-1.46-.64-1.12.21-1.44.63-.49,1.04-.49,1.87Z"/><path class="cls-3" d="m311.84,152.92c-.42,0-.8-.08-1.15-.23s-.64-.39-.87-.71h-.07c.05.38.07.73.07,1.07v2.64h-.97v-9.3h.79l.13.88h.05c.25-.35.54-.61.87-.76s.71-.23,1.14-.23c.85,0,1.51.29,1.97.87s.69,1.4.69,2.45-.24,1.87-.71,2.46-1.12.88-1.96.88Zm-.14-5.83c-.66,0-1.13.18-1.42.54s-.44.94-.45,1.73v.22c0,.9.15,1.55.45,1.94s.78.58,1.45.58c.55,0,.99-.22,1.3-.67s.47-1.07.47-1.86-.16-1.42-.47-1.84-.76-.64-1.33-.64Z"/><path class="cls-3" d="m321.74,149.58c0,1.05-.26,1.86-.79,2.45s-1.26.88-2.19.88c-.57,0-1.08-.13-1.53-.4s-.79-.66-1.03-1.16-.36-1.09-.36-1.77c0-1.05.26-1.86.79-2.45s1.25-.88,2.18-.88,1.61.3,2.14.9.79,1.41.79,2.43Zm-4.89,0c0,.82.16,1.45.49,1.88s.81.64,1.45.64,1.12-.21,1.45-.64.5-1.05.5-1.88-.17-1.44-.5-1.86-.82-.64-1.46-.64-1.12.21-1.44.63-.49,1.04-.49,1.87Z"/><path class="cls-3" d="m327.59,151.05c0,.6-.22,1.06-.67,1.38s-1.07.49-1.88.49c-.85,0-1.52-.13-1.99-.4v-.9c.31.16.64.28.99.37s.69.13,1.02.13c.51,0,.9-.08,1.17-.24s.41-.41.41-.74c0-.25-.11-.46-.33-.64s-.64-.39-1.27-.63c-.6-.22-1.02-.42-1.27-.58s-.44-.35-.56-.57-.18-.46-.18-.76c0-.52.21-.94.64-1.24s1.01-.45,1.75-.45c.69,0,1.37.14,2.03.42l-.35.79c-.64-.27-1.23-.4-1.75-.4-.46,0-.81.07-1.04.22s-.35.34-.35.6c0,.17.04.32.13.44s.23.24.42.35.57.27,1.12.47c.76.28,1.28.56,1.54.84s.4.63.4,1.06Z"/><path class="cls-3" d="m331.25,152.12c.17,0,.34-.01.5-.04s.29-.05.38-.08v.74c-.11.05-.26.09-.47.13s-.39.05-.55.05c-1.24,0-1.86-.65-1.86-1.96v-3.82h-.92v-.47l.92-.4.41-1.37h.56v1.49h1.86v.76h-1.86v3.78c0,.39.09.68.28.89s.44.31.76.31Z"/><path class="cls-3" d="m337.36,152.8l-.19-.91h-.05c-.32.4-.64.67-.96.82s-.72.21-1.19.21c-.64,0-1.14-.16-1.5-.49s-.54-.79-.54-1.4c0-1.3,1.04-1.98,3.11-2.04l1.09-.04v-.4c0-.5-.11-.88-.33-1.12s-.56-.36-1.04-.36c-.54,0-1.14.16-1.82.49l-.3-.74c.32-.17.66-.31,1.04-.4s.75-.15,1.13-.15c.77,0,1.33.17,1.7.51s.55.88.55,1.63v4.38h-.72Zm-2.2-.69c.61,0,1.08-.17,1.43-.5s.52-.8.52-1.39v-.58l-.97.04c-.77.03-1.33.15-1.67.36s-.51.54-.51.99c0,.35.11.62.32.8s.51.28.89.28Z"/><path class="cls-3" d="m204.6,163.4c-.94,0-1.68.31-2.23.94s-.82,1.49-.82,2.58.26,1.99.79,2.6,1.27.92,2.25.92c.6,0,1.28-.11,2.04-.32v.87c-.59.22-1.33.33-2.2.33-1.26,0-2.24-.38-2.92-1.15s-1.03-1.85-1.03-3.26c0-.88.17-1.66.5-2.32s.81-1.18,1.43-1.54,1.36-.54,2.2-.54c.9,0,1.68.16,2.36.49l-.42.86c-.65-.3-1.3-.46-1.95-.46Z"/><path class="cls-3" d="m213.9,167.98c0,1.05-.26,1.86-.79,2.45s-1.26.88-2.19.88c-.57,0-1.08-.13-1.53-.4s-.79-.66-1.03-1.16-.36-1.09-.36-1.77c0-1.05.26-1.86.79-2.45s1.25-.88,2.18-.88,1.61.3,2.14.9.79,1.41.79,2.43Zm-4.89,0c0,.82.16,1.45.49,1.88s.81.64,1.45.64,1.12-.21,1.45-.64.5-1.05.5-1.88-.17-1.44-.5-1.86-.82-.64-1.46-.64-1.12.21-1.44.63-.49,1.04-.49,1.87Z"/><path class="cls-3" d="m220,171.2v-4.15c0-.52-.12-.91-.36-1.17s-.61-.39-1.12-.39c-.67,0-1.16.18-1.48.54s-.47.96-.47,1.8v3.37h-.97v-6.42h.79l.16.88h.05c.2-.32.48-.56.84-.74s.76-.26,1.2-.26c.77,0,1.36.19,1.75.56s.59.97.59,1.79v4.19h-.97Z"/><path class="cls-3" d="m224.37,171.2l-2.44-6.42h1.04l1.38,3.81c.31.89.5,1.47.55,1.73h.05c.04-.21.18-.64.41-1.29s.74-2.07,1.54-4.26h1.04l-2.44,6.42h-1.14Z"/><path class="cls-3" d="m231.69,171.32c-.95,0-1.7-.29-2.25-.87s-.82-1.38-.82-2.41.25-1.86.76-2.47,1.19-.91,2.05-.91c.8,0,1.44.26,1.91.79s.7,1.23.7,2.09v.62h-4.42c.02.75.21,1.33.57,1.72s.87.59,1.53.59c.69,0,1.38-.14,2.05-.43v.87c-.34.15-.67.25-.98.32s-.68.1-1.11.1Zm-.26-5.84c-.52,0-.93.17-1.23.5s-.49.8-.54,1.39h3.36c0-.61-.14-1.08-.41-1.41s-.66-.49-1.17-.49Z"/><path class="cls-3" d="m238.64,164.66c.29,0,.54.02.77.07l-.13.9c-.27-.06-.5-.09-.7-.09-.52,0-.96.21-1.33.63s-.55.95-.55,1.58v3.45h-.97v-6.42h.8l.11,1.19h.05c.24-.42.53-.74.86-.97s.71-.34,1.11-.34Z"/><path class="cls-3" d="m245.86,164.78v.62l-1.19.14c.11.14.21.32.29.54s.13.47.13.75c0,.63-.21,1.13-.64,1.51s-1.02.56-1.77.56c-.19,0-.37-.02-.54-.05-.41.22-.62.49-.62.83,0,.18.07.31.22.39s.39.13.74.13h1.14c.7,0,1.23.15,1.6.44s.56.72.56,1.28c0,.71-.29,1.25-.86,1.63s-1.4.56-2.5.56c-.84,0-1.49-.16-1.94-.47s-.68-.75-.68-1.32c0-.39.12-.73.38-1.01s.6-.48,1.05-.58c-.16-.07-.3-.19-.41-.35s-.17-.34-.17-.54c0-.23.06-.44.19-.62s.32-.35.59-.51c-.33-.14-.6-.37-.81-.7s-.31-.7-.31-1.12c0-.7.21-1.25.63-1.63s1.02-.57,1.79-.57c.34,0,.64.04.91.12h2.22Zm-5.12,7.5c0,.35.15.61.44.79s.71.27,1.26.27c.82,0,1.42-.12,1.81-.37s.59-.58.59-.99c0-.35-.11-.59-.32-.72s-.62-.2-1.21-.2h-1.17c-.44,0-.79.11-1.03.32s-.37.51-.37.91Zm.53-5.44c0,.45.13.79.38,1.02s.61.35,1.06.35c.95,0,1.42-.46,1.42-1.38s-.48-1.45-1.44-1.45c-.46,0-.81.12-1.05.37s-.37.61-.37,1.1Z"/><path class="cls-3" d="m249.9,171.32c-.95,0-1.7-.29-2.25-.87s-.82-1.38-.82-2.41.25-1.86.76-2.47,1.19-.91,2.05-.91c.8,0,1.44.26,1.91.79s.7,1.23.7,2.09v.62h-4.42c.02.75.21,1.33.57,1.72s.87.59,1.53.59c.69,0,1.38-.14,2.05-.43v.87c-.34.15-.67.25-.98.32s-.68.1-1.11.1Zm-2.23-7.52c.5-.53.84-.92,1.04-1.17s.34-.46.43-.62h.97c.09.16.24.38.45.64s.56.64,1.05,1.15v.13h-.7c-.34-.21-.78-.58-1.29-1.09-.53.52-.96.89-1.28,1.09h-.67v-.13Zm1.96,1.68c-.52,0-.93.17-1.23.5s-.49.8-.54,1.39h3.36c0-.61-.14-1.08-.41-1.41s-.66-.49-1.17-.49Z"/><path class="cls-3" d="m258.31,171.2v-4.15c0-.52-.12-.91-.36-1.17s-.61-.39-1.12-.39c-.67,0-1.16.18-1.48.54s-.47.96-.47,1.8v3.37h-.97v-6.42h.79l.16.88h.05c.2-.32.48-.56.84-.74s.76-.26,1.2-.26c.77,0,1.36.19,1.75.56s.59.97.59,1.79v4.19h-.97Z"/><path class="cls-3" d="m263.85,171.32c-.93,0-1.65-.29-2.16-.86s-.76-1.38-.76-2.43.26-1.9.78-2.49,1.25-.88,2.21-.88c.31,0,.62.03.93.1s.55.14.73.23l-.3.83c-.21-.09-.45-.16-.7-.21s-.48-.08-.67-.08c-1.3,0-1.96.83-1.96,2.5,0,.79.16,1.39.48,1.82s.79.63,1.42.63c.54,0,1.08-.12,1.65-.35v.86c-.43.22-.97.33-1.62.33Z"/><path class="cls-3" d="m266.91,163.04c0-.22.05-.39.16-.49s.25-.16.41-.16.29.05.4.16.17.27.17.49-.06.38-.17.49-.25.16-.4.16c-.16,0-.3-.05-.41-.16s-.16-.27-.16-.49Zm1.05,8.16h-.97v-6.42h.97v6.42Z"/><path class="cls-3" d="m273.98,171.2l-.19-.91h-.05c-.32.4-.64.67-.96.82s-.72.21-1.19.21c-.64,0-1.14-.16-1.5-.49s-.54-.79-.54-1.4c0-1.3,1.04-1.98,3.11-2.04l1.09-.04v-.4c0-.5-.11-.88-.33-1.12s-.56-.36-1.04-.36c-.54,0-1.14.16-1.82.49l-.3-.74c.32-.17.66-.31,1.04-.4s.75-.15,1.13-.15c.77,0,1.33.17,1.7.51s.55.88.55,1.63v4.38h-.72Zm-2.2-.69c.61,0,1.08-.17,1.43-.5s.52-.8.52-1.39v-.58l-.97.04c-.77.03-1.33.15-1.67.36s-.51.54-.51.99c0,.35.11.62.32.8s.51.28.89.28Z"/><path class="cls-3" d="m284.19,170.34h-.05c-.45.65-1.12.98-2.02.98-.84,0-1.49-.29-1.96-.86s-.7-1.39-.7-2.45.23-1.88.7-2.47,1.12-.88,1.96-.88,1.54.32,2,.95h.08l-.04-.46-.02-.45v-2.61h.97v9.12h-.79l-.13-.86Zm-1.95.16c.66,0,1.15-.18,1.44-.54s.45-.94.45-1.75v-.21c0-.91-.15-1.56-.45-1.95s-.79-.58-1.45-.58c-.57,0-1.01.22-1.31.67s-.45,1.07-.45,1.88.15,1.44.45,1.86.74.63,1.32.63Z"/><path class="cls-3" d="m289.89,171.32c-.95,0-1.7-.29-2.25-.87s-.82-1.38-.82-2.41.25-1.86.76-2.47,1.19-.91,2.05-.91c.8,0,1.44.26,1.91.79s.7,1.23.7,2.09v.62h-4.42c.02.75.21,1.33.57,1.72s.87.59,1.53.59c.69,0,1.38-.14,2.05-.43v.87c-.34.15-.67.25-.98.32s-.68.1-1.11.1Zm-.26-5.84c-.52,0-.93.17-1.23.5s-.49.8-.54,1.39h3.36c0-.61-.14-1.08-.41-1.41s-.66-.49-1.17-.49Z"/><path class="cls-3" d="m299.92,165.54h-1.63v5.67h-.97v-5.67h-1.15v-.44l1.15-.35v-.36c0-1.58.69-2.37,2.07-2.37.34,0,.74.07,1.2.21l-.25.78c-.38-.12-.7-.18-.96-.18-.37,0-.64.12-.81.37s-.26.64-.26,1.17v.42h1.63v.76Zm2.14,5.67h-.97v-9.12h.97v9.12Z"/><path class="cls-3" d="m305.04,164.78v4.17c0,.52.12.91.36,1.17s.61.39,1.12.39c.67,0,1.16-.18,1.47-.55s.47-.97.47-1.8v-3.38h.97v6.42h-.8l-.14-.86h-.05c-.2.32-.48.56-.83.73s-.76.25-1.21.25c-.78,0-1.37-.19-1.75-.56s-.58-.96-.58-1.78v-4.2h.98Z"/><path class="cls-3" d="m313.04,167.91l-2.23-3.13h1.11l1.69,2.46,1.69-2.46h1.1l-2.23,3.13,2.35,3.29h-1.1l-1.8-2.6-1.82,2.6h-1.1l2.35-3.29Z"/><path class="cls-3" d="m323.32,167.98c0,1.05-.26,1.86-.79,2.45s-1.26.88-2.19.88c-.57,0-1.08-.13-1.53-.4s-.79-.66-1.03-1.16-.36-1.09-.36-1.77c0-1.05.26-1.86.79-2.45s1.25-.88,2.18-.88,1.61.3,2.14.9.79,1.41.79,2.43Zm-4.89,0c0,.82.16,1.45.49,1.88s.81.64,1.45.64,1.12-.21,1.45-.64.5-1.05.5-1.88-.17-1.44-.5-1.86-.82-.64-1.46-.64-1.12.21-1.44.63-.49,1.04-.49,1.87Z"/><path class="cls-3" d="m329.17,169.45c0,.6-.22,1.06-.67,1.38s-1.07.49-1.88.49c-.85,0-1.52-.13-1.99-.4v-.9c.31.16.64.28.99.37s.69.13,1.02.13c.51,0,.9-.08,1.17-.24s.41-.41.41-.74c0-.25-.11-.46-.33-.64s-.64-.39-1.27-.63c-.6-.22-1.02-.42-1.27-.58s-.44-.35-.56-.57-.18-.46-.18-.76c0-.52.21-.94.64-1.24s1.01-.45,1.75-.45c.69,0,1.37.14,2.03.42l-.35.79c-.64-.27-1.23-.4-1.75-.4-.46,0-.81.07-1.04.22s-.35.34-.35.6c0,.17.04.32.13.44s.23.24.42.35.57.27,1.12.47c.76.28,1.28.56,1.54.84s.4.63.4,1.06Z"/></g><g><path class="cls-3" d="m220.8,222.48l-.62-2.04h-3.12l-.62,2.04h-1.96l3.02-8.6h2.22l3.04,8.6h-1.96Zm-1.05-3.56c-.57-1.85-.9-2.89-.97-3.13s-.12-.43-.16-.57c-.13.5-.5,1.74-1.11,3.71h2.23Z"/><path class="cls-3" d="m227.08,217.67h3.4v4.44c-.55.18-1.07.31-1.56.38s-.98.11-1.49.11c-1.29,0-2.28-.38-2.96-1.14s-1.02-1.85-1.02-3.27.4-2.46,1.19-3.23,1.89-1.16,3.29-1.16c.88,0,1.73.18,2.54.53l-.6,1.45c-.62-.31-1.28-.47-1.95-.47-.79,0-1.41.26-1.89.79s-.71,1.24-.71,2.13.19,1.64.57,2.13.93.74,1.66.74c.38,0,.76-.04,1.15-.12v-1.79h-1.62v-1.51Z"/><path class="cls-3" d="m237.45,222.48h-4.93v-8.57h4.93v1.49h-3.12v1.88h2.9v1.49h-2.9v2.21h3.12v1.5Z"/><path class="cls-3" d="m246.84,222.48h-2.31l-3.73-6.48h-.05c.07,1.14.11,1.96.11,2.45v4.03h-1.62v-8.57h2.29l3.72,6.42h.04c-.06-1.11-.09-1.9-.09-2.36v-4.05h1.63v8.57Z"/><path class="cls-3" d="m256.1,218.11c0,1.41-.4,2.49-1.2,3.24s-1.96,1.12-3.48,1.12h-2.43v-8.57h2.69c1.4,0,2.48.37,3.26,1.11s1.16,1.77,1.16,3.09Zm-1.89.05c0-1.84-.81-2.76-2.44-2.76h-.97v5.58h.78c1.75,0,2.62-.94,2.62-2.82Z"/><path class="cls-3" d="m263.12,222.48l-.62-2.04h-3.12l-.62,2.04h-1.96l3.02-8.6h2.22l3.04,8.6h-1.96Zm-1.05-3.56c-.57-1.85-.9-2.89-.97-3.13s-.12-.43-.16-.57c-.13.5-.5,1.74-1.11,3.71h2.23Z"/><path class="cls-3" d="m273.74,219.94c0,.82-.29,1.46-.87,1.94s-1.36.71-2.35.71c-.86,0-1.56-.18-2.09-.53v-1.61c.75.42,1.45.63,2.1.63.44,0,.78-.08,1.03-.25s.37-.39.37-.68c0-.17-.03-.32-.08-.44s-.13-.25-.23-.35-.34-.31-.73-.6c-.54-.39-.92-.77-1.14-1.15s-.33-.79-.33-1.22c0-.5.12-.95.36-1.35s.59-.71,1.03-.93.96-.33,1.54-.33c.85,0,1.62.19,2.33.58l-.64,1.37c-.61-.29-1.17-.43-1.69-.43-.32,0-.59.09-.8.26s-.31.41-.31.7c0,.24.06.45.19.62s.42.41.87.71c.47.31.83.66,1.06,1.03s.35.82.35,1.32Z"/><path class="cls-3" d="m279.65,222.48h-4.79l1.81-8.57h4.79l-.32,1.49h-3l-.39,1.88h2.79l-.32,1.49h-2.79l-.47,2.21h3l-.32,1.5Z"/><path class="cls-3" d="m284.4,222.48h-1.79l1.49-7.05h-2.06l.32-1.51h5.92l-.32,1.51h-2.07l-1.49,7.05Z"/><path class="cls-3" d="m290.77,222.48h-1.79l1.49-7.05h-2.06l.32-1.51h5.92l-.32,1.51h-2.07l-1.49,7.05Z"/><path class="cls-3" d="m294.11,222.48l1.83-8.57h1.79l-1.83,8.57h-1.79Z"/><path class="cls-3" d="m304.96,222.48h-2l-2.09-6.48h-.04l-.02.19c-.12.84-.25,1.6-.39,2.26l-.85,4.03h-1.61l1.81-8.57h2.09l1.99,6.31h.02c.05-.3.12-.72.23-1.27s.46-2.23,1.05-5.04h1.61l-1.81,8.57Z"/><path class="cls-3" d="m311.13,217.67h3.3l-.95,4.46c-.52.18-1.01.3-1.46.37s-.92.1-1.42.1c-1.01,0-1.79-.29-2.34-.86s-.83-1.4-.83-2.47.21-1.99.63-2.84,1.01-1.5,1.76-1.96,1.63-.69,2.62-.69c.85,0,1.65.19,2.4.58l-.67,1.47c-.29-.16-.58-.28-.87-.38s-.6-.14-.94-.14c-.6,0-1.13.16-1.6.49s-.84.79-1.11,1.39-.4,1.25-.4,1.94.14,1.17.42,1.48.72.47,1.3.47c.3,0,.63-.05,1-.14l.39-1.75h-1.56l.33-1.51Z"/></g><g><path class="cls-3" d="m202.32,240.79l-1.07-2.72h-3.43l-1.05,2.72h-1.01l3.39-8.6h.84l3.37,8.6h-1.03Zm-1.38-3.62l-1-2.65c-.13-.34-.26-.75-.4-1.24-.09.38-.21.79-.37,1.24l-1.01,2.65h2.77Z"/><path class="cls-3" d="m208.75,239.92h-.05c-.45.65-1.12.98-2.02.98-.84,0-1.49-.29-1.96-.86s-.7-1.39-.7-2.45.23-1.88.7-2.47,1.12-.88,1.96-.88,1.54.32,2,.95h.08l-.04-.46-.02-.45v-2.61h.97v9.12h-.79l-.13-.86Zm-1.95.16c.66,0,1.15-.18,1.44-.54s.45-.94.45-1.75v-.21c0-.91-.15-1.56-.45-1.95s-.79-.58-1.45-.58c-.57,0-1.01.22-1.31.67s-.45,1.07-.45,1.88.15,1.44.45,1.86.74.63,1.32.63Z"/><path class="cls-3" d="m217.28,237.57c0,1.05-.26,1.86-.79,2.45s-1.26.88-2.19.88c-.57,0-1.08-.13-1.53-.4s-.79-.66-1.03-1.16-.36-1.09-.36-1.77c0-1.05.26-1.86.79-2.45s1.25-.88,2.18-.88,1.61.3,2.14.9.79,1.41.79,2.43Zm-4.89,0c0,.82.16,1.45.49,1.88s.81.64,1.45.64,1.12-.21,1.45-.64.5-1.05.5-1.88-.17-1.44-.5-1.86-.82-.64-1.46-.64-1.12.21-1.44.63-.49,1.04-.49,1.87Z"/><path class="cls-3" d="m221.55,240.9c-.93,0-1.65-.29-2.16-.86s-.76-1.38-.76-2.43.26-1.9.78-2.49,1.25-.88,2.21-.88c.31,0,.62.03.93.1s.55.14.73.23l-.3.83c-.21-.09-.45-.16-.7-.21s-.48-.08-.67-.08c-1.3,0-1.96.83-1.96,2.5,0,.79.16,1.39.48,1.82s.79.63,1.42.63c.54,0,1.08-.12,1.65-.35v.86c-.43.22-.97.33-1.62.33Zm.87,1.58c0,.38-.15.67-.45.88s-.74.31-1.33.31c-.2,0-.39-.02-.56-.05v-.62c.18.03.38.05.61.05.31,0,.54-.04.7-.12s.24-.22.24-.43c0-.17-.08-.3-.23-.41s-.44-.19-.87-.25l.52-1.04h.64l-.32.67c.7.15,1.05.49,1.05,1.02Z"/><path class="cls-3" d="m228.65,240.79l-.19-.91h-.05c-.32.4-.64.67-.96.82s-.72.21-1.19.21c-.64,0-1.14-.16-1.5-.49s-.54-.79-.54-1.4c0-1.3,1.04-1.98,3.11-2.04l1.09-.04v-.4c0-.5-.11-.88-.33-1.12s-.56-.36-1.04-.36c-.54,0-1.14.16-1.82.49l-.3-.74c.32-.17.66-.31,1.04-.4s.75-.15,1.13-.15c.77,0,1.33.17,1.7.51s.55.88.55,1.63v4.38h-.72Zm-.76-7.28c-.17,0-.33-.04-.49-.11s-.32-.15-.47-.24-.3-.17-.45-.24-.28-.11-.41-.11c-.2,0-.34.06-.44.18s-.18.29-.23.53h-.57c.05-.47.19-.84.41-1.11s.51-.4.87-.4c.18,0,.35.04.52.11s.33.15.48.24.3.17.44.24.27.11.4.11c.19,0,.33-.06.43-.17s.17-.29.23-.54h.58c-.05.47-.19.84-.41,1.11s-.51.4-.88.4Zm-1.44,6.6c.61,0,1.08-.17,1.43-.5s.52-.8.52-1.39v-.58l-.97.04c-.77.03-1.33.15-1.67.36s-.51.54-.51.99c0,.35.11.62.32.8s.51.28.89.28Z"/><path class="cls-3" d="m236.91,237.57c0,1.05-.26,1.86-.79,2.45s-1.26.88-2.19.88c-.57,0-1.08-.13-1.53-.4s-.79-.66-1.03-1.16-.36-1.09-.36-1.77c0-1.05.26-1.86.79-2.45s1.25-.88,2.18-.88,1.61.3,2.14.9.79,1.41.79,2.43Zm-4.89,0c0,.82.16,1.45.49,1.88s.81.64,1.45.64,1.12-.21,1.45-.64.5-1.05.5-1.88-.17-1.44-.5-1.86-.82-.64-1.46-.64-1.12.21-1.44.63-.49,1.04-.49,1.87Z"/><path class="cls-3" d="m239.64,239.39l.09.13c-.1.39-.25.84-.44,1.36s-.39,1-.6,1.44h-.73c.11-.41.22-.91.35-1.51s.22-1.08.27-1.44h1.07Z"/><path class="cls-3" d="m244.6,232.62c0-.22.05-.39.16-.49s.25-.16.41-.16.29.05.4.16.17.27.17.49-.06.38-.17.49-.25.16-.4.16c-.16,0-.3-.05-.41-.16s-.16-.27-.16-.49Zm1.05,8.16h-.97v-6.42h.97v6.42Z"/><path class="cls-3" d="m255.9,240.79v-4.18c0-.51-.11-.9-.33-1.15s-.56-.38-1.02-.38c-.61,0-1.05.17-1.34.52s-.43.88-.43,1.61v3.59h-.97v-4.18c0-.51-.11-.9-.33-1.15s-.56-.38-1.03-.38c-.61,0-1.06.18-1.34.55s-.42.96-.42,1.8v3.37h-.97v-6.42h.79l.16.88h.05c.18-.31.44-.56.78-.73s.71-.26,1.12-.26c1,0,1.66.36,1.97,1.09h.05c.19-.34.47-.6.83-.8s.78-.29,1.24-.29c.73,0,1.27.19,1.63.56s.54.97.54,1.79v4.19h-.97Z"/><path class="cls-3" d="m261.86,240.9c-.42,0-.8-.08-1.15-.23s-.64-.39-.87-.71h-.07c.05.38.07.73.07,1.07v2.64h-.97v-9.3h.79l.13.88h.05c.25-.35.54-.61.87-.76s.71-.23,1.14-.23c.85,0,1.51.29,1.97.87s.69,1.4.69,2.45-.24,1.87-.71,2.46-1.12.88-1.96.88Zm-.14-5.83c-.66,0-1.13.18-1.42.54s-.44.94-.45,1.73v.22c0,.9.15,1.55.45,1.94s.78.58,1.45.58c.55,0,.99-.22,1.3-.67s.47-1.07.47-1.86-.16-1.42-.47-1.84-.76-.64-1.33-.64Z"/><path class="cls-3" d="m267.2,240.79h-.97v-9.12h.97v9.12Z"/><path class="cls-3" d="m271.98,240.9c-.95,0-1.7-.29-2.25-.87s-.82-1.38-.82-2.41.25-1.86.76-2.47,1.19-.91,2.05-.91c.8,0,1.44.26,1.91.79s.7,1.23.7,2.09v.62h-4.42c.02.75.21,1.33.57,1.72s.87.59,1.53.59c.69,0,1.38-.14,2.05-.43v.87c-.34.15-.67.25-.98.32s-.68.1-1.11.1Zm-.26-5.84c-.52,0-.93.17-1.23.5s-.49.8-.54,1.39h3.36c0-.61-.14-1.08-.41-1.41s-.66-.49-1.17-.49Z"/><path class="cls-3" d="m284.18,240.79v-4.18c0-.51-.11-.9-.33-1.15s-.56-.38-1.02-.38c-.61,0-1.05.17-1.34.52s-.43.88-.43,1.61v3.59h-.97v-4.18c0-.51-.11-.9-.33-1.15s-.56-.38-1.03-.38c-.61,0-1.06.18-1.34.55s-.42.96-.42,1.8v3.37h-.97v-6.42h.79l.16.88h.05c.18-.31.44-.56.78-.73s.71-.26,1.12-.26c1,0,1.66.36,1.97,1.09h.05c.19-.34.47-.6.83-.8s.78-.29,1.24-.29c.73,0,1.27.19,1.63.56s.54.97.54,1.79v4.19h-.97Z"/><path class="cls-3" d="m289.87,240.9c-.95,0-1.7-.29-2.25-.87s-.82-1.38-.82-2.41.25-1.86.76-2.47,1.19-.91,2.05-.91c.8,0,1.44.26,1.91.79s.7,1.23.7,2.09v.62h-4.42c.02.75.21,1.33.57,1.72s.87.59,1.53.59c.69,0,1.38-.14,2.05-.43v.87c-.34.15-.67.25-.98.32s-.68.1-1.11.1Zm-.26-5.84c-.52,0-.93.17-1.23.5s-.49.8-.54,1.39h3.36c0-.61-.14-1.08-.41-1.41s-.66-.49-1.17-.49Z"/><path class="cls-3" d="m298.29,240.79v-4.15c0-.52-.12-.91-.36-1.17s-.61-.39-1.12-.39c-.67,0-1.16.18-1.48.54s-.47.96-.47,1.8v3.37h-.97v-6.42h.79l.16.88h.05c.2-.32.48-.56.84-.74s.76-.26,1.2-.26c.77,0,1.36.19,1.75.56s.59.97.59,1.79v4.19h-.97Z"/><path class="cls-3" d="m303.33,240.1c.17,0,.34-.01.5-.04s.29-.05.38-.08v.74c-.11.05-.26.09-.47.13s-.39.05-.55.05c-1.24,0-1.86-.65-1.86-1.96v-3.82h-.92v-.47l.92-.4.41-1.37h.56v1.49h1.86v.76h-1.86v3.78c0,.39.09.68.28.89s.44.31.76.31Z"/><path class="cls-3" d="m309.44,240.79l-.19-.91h-.05c-.32.4-.64.67-.96.82s-.72.21-1.19.21c-.64,0-1.14-.16-1.5-.49s-.54-.79-.54-1.4c0-1.3,1.04-1.98,3.11-2.04l1.09-.04v-.4c0-.5-.11-.88-.33-1.12s-.56-.36-1.04-.36c-.54,0-1.14.16-1.82.49l-.3-.74c.32-.17.66-.31,1.04-.4s.75-.15,1.13-.15c.77,0,1.33.17,1.7.51s.55.88.55,1.63v4.38h-.72Zm-2.2-.69c.61,0,1.08-.17,1.43-.5s.52-.8.52-1.39v-.58l-.97.04c-.77.03-1.33.15-1.67.36s-.51.54-.51.99c0,.35.11.62.32.8s.51.28.89.28Z"/><path class="cls-3" d="m314.73,240.9c-.93,0-1.65-.29-2.16-.86s-.76-1.38-.76-2.43.26-1.9.78-2.49,1.25-.88,2.21-.88c.31,0,.62.03.93.1s.55.14.73.23l-.3.83c-.21-.09-.45-.16-.7-.21s-.48-.08-.67-.08c-1.3,0-1.96.83-1.96,2.5,0,.79.16,1.39.48,1.82s.79.63,1.42.63c.54,0,1.08-.12,1.65-.35v.86c-.43.22-.97.33-1.62.33Zm.87,1.58c0,.38-.15.67-.45.88s-.74.31-1.33.31c-.2,0-.39-.02-.56-.05v-.62c.18.03.38.05.61.05.31,0,.54-.04.7-.12s.24-.22.24-.43c0-.17-.08-.3-.23-.41s-.44-.19-.87-.25l.52-1.04h.64l-.32.67c.7.15,1.05.49,1.05,1.02Z"/><path class="cls-3" d="m321.83,240.79l-.19-.91h-.05c-.32.4-.64.67-.96.82s-.72.21-1.19.21c-.64,0-1.14-.16-1.5-.49s-.54-.79-.54-1.4c0-1.3,1.04-1.98,3.11-2.04l1.09-.04v-.4c0-.5-.11-.88-.33-1.12s-.56-.36-1.04-.36c-.54,0-1.14.16-1.82.49l-.3-.74c.32-.17.66-.31,1.04-.4s.75-.15,1.13-.15c.77,0,1.33.17,1.7.51s.55.88.55,1.63v4.38h-.72Zm-.76-7.28c-.17,0-.33-.04-.49-.11s-.32-.15-.47-.24-.3-.17-.45-.24-.28-.11-.41-.11c-.2,0-.34.06-.44.18s-.18.29-.23.53h-.57c.05-.47.19-.84.41-1.11s.51-.4.87-.4c.18,0,.35.04.52.11s.33.15.48.24.3.17.44.24.27.11.4.11c.19,0,.33-.06.43-.17s.17-.29.23-.54h.58c-.05.47-.19.84-.41,1.11s-.51.4-.88.4Zm-1.44,6.6c.61,0,1.08-.17,1.43-.5s.52-.8.52-1.39v-.58l-.97.04c-.77.03-1.33.15-1.67.36s-.51.54-.51.99c0,.35.11.62.32.8s.51.28.89.28Z"/><path class="cls-3" d="m330.1,237.57c0,1.05-.26,1.86-.79,2.45s-1.26.88-2.19.88c-.57,0-1.08-.13-1.53-.4s-.79-.66-1.03-1.16-.36-1.09-.36-1.77c0-1.05.26-1.86.79-2.45s1.25-.88,2.18-.88,1.61.3,2.14.9.79,1.41.79,2.43Zm-4.89,0c0,.82.16,1.45.49,1.88s.81.64,1.45.64,1.12-.21,1.45-.64.5-1.05.5-1.88-.17-1.44-.5-1.86-.82-.64-1.46-.64-1.12.21-1.44.63-.49,1.04-.49,1.87Z"/><path class="cls-3" d="m332.82,239.39l.09.13c-.1.39-.25.84-.44,1.36s-.39,1-.6,1.44h-.73c.11-.41.22-.91.35-1.51s.22-1.08.27-1.44h1.07Z"/><path class="cls-3" d="m196.02,255.19l-.19-.91h-.05c-.32.4-.64.67-.96.82s-.72.21-1.19.21c-.64,0-1.14-.16-1.5-.49s-.54-.79-.54-1.4c0-1.3,1.04-1.98,3.11-2.04l1.09-.04v-.4c0-.5-.11-.88-.33-1.12s-.56-.36-1.04-.36c-.54,0-1.14.16-1.82.49l-.3-.74c.32-.17.66-.31,1.04-.4s.75-.15,1.13-.15c.77,0,1.33.17,1.7.51s.55.88.55,1.63v4.38h-.72Zm-2.2-.69c.61,0,1.08-.17,1.43-.5s.52-.8.52-1.39v-.58l-.97.04c-.77.03-1.33.15-1.67.36s-.51.54-.51.99c0,.35.11.62.32.8s.51.28.89.28Z"/><path class="cls-3" d="m203.14,255.19v-4.15c0-.52-.12-.91-.36-1.17s-.61-.39-1.12-.39c-.67,0-1.16.18-1.48.54s-.47.96-.47,1.8v3.37h-.97v-6.42h.79l.16.88h.05c.2-.32.48-.56.84-.74s.76-.26,1.2-.26c.77,0,1.36.19,1.75.56s.59.97.59,1.79v4.19h-.97Z"/><path class="cls-3" d="m210.06,255.19l-.19-.91h-.05c-.32.4-.64.67-.96.82s-.72.21-1.19.21c-.64,0-1.14-.16-1.5-.49s-.54-.79-.54-1.4c0-1.3,1.04-1.98,3.11-2.04l1.09-.04v-.4c0-.5-.11-.88-.33-1.12s-.56-.36-1.04-.36c-.54,0-1.14.16-1.82.49l-.3-.74c.32-.17.66-.31,1.04-.4s.75-.15,1.13-.15c.77,0,1.33.17,1.7.51s.55.88.55,1.63v4.38h-.72Zm-2.2-.69c.61,0,1.08-.17,1.43-.5s.52-.8.52-1.39v-.58l-.97.04c-.77.03-1.33.15-1.67.36s-.51.54-.51.99c0,.35.11.62.32.8s.51.28.89.28Zm-.23-6.73c.19-.24.39-.54.61-.88s.39-.64.51-.9h1.18v.12c-.17.25-.43.57-.77.94s-.63.66-.88.86h-.65v-.15Z"/><path class="cls-3" d="m213.76,255.19h-.97v-9.12h.97v9.12Z"/><path class="cls-3" d="m215.74,247.02c0-.22.05-.39.16-.49s.25-.16.41-.16.29.05.4.16.17.27.17.49-.06.38-.17.49-.25.16-.4.16c-.16,0-.3-.05-.41-.16s-.16-.27-.16-.49Zm1.05,8.16h-.97v-6.42h.97v6.42Z"/><path class="cls-3" d="m223,253.43c0,.6-.22,1.06-.67,1.38s-1.07.49-1.88.49c-.85,0-1.52-.13-1.99-.4v-.9c.31.16.64.28.99.37s.69.13,1.02.13c.51,0,.9-.08,1.17-.24s.41-.41.41-.74c0-.25-.11-.46-.33-.64s-.64-.39-1.27-.63c-.6-.22-1.02-.42-1.27-.58s-.44-.35-.56-.57-.18-.46-.18-.76c0-.52.21-.94.64-1.24s1.01-.45,1.75-.45c.69,0,1.37.14,2.03.42l-.35.79c-.64-.27-1.23-.4-1.75-.4-.46,0-.81.07-1.04.22s-.35.34-.35.6c0,.17.04.32.13.44s.23.24.42.35.57.27,1.12.47c.76.28,1.28.56,1.54.84s.4.63.4,1.06Z"/><path class="cls-3" d="m227.29,255.3c-.95,0-1.7-.29-2.25-.87s-.82-1.38-.82-2.41.25-1.86.76-2.47,1.19-.91,2.05-.91c.8,0,1.44.26,1.91.79s.7,1.23.7,2.09v.62h-4.42c.02.75.21,1.33.57,1.72s.87.59,1.53.59c.69,0,1.38-.14,2.05-.43v.87c-.34.15-.67.25-.98.32s-.68.1-1.11.1Zm-.26-5.84c-.52,0-.93.17-1.23.5s-.49.8-.54,1.39h3.36c0-.61-.14-1.08-.41-1.41s-.66-.49-1.17-.49Z"/><path class="cls-3" d="m237.14,255.3c-.95,0-1.7-.29-2.25-.87s-.82-1.38-.82-2.41.25-1.86.76-2.47,1.19-.91,2.05-.91c.8,0,1.44.26,1.91.79s.7,1.23.7,2.09v.62h-4.42c.02.75.21,1.33.57,1.72s.87.59,1.53.59c.69,0,1.38-.14,2.05-.43v.87c-.34.15-.67.25-.98.32s-.68.1-1.11.1Zm-.26-5.84c-.52,0-.93.17-1.23.5s-.49.8-.54,1.39h3.36c0-.61-.14-1.08-.41-1.41s-.66-.49-1.17-.49Z"/><path class="cls-3" d="m248.23,255.19l-.19-.91h-.05c-.32.4-.64.67-.96.82s-.72.21-1.19.21c-.64,0-1.14-.16-1.5-.49s-.54-.79-.54-1.4c0-1.3,1.04-1.98,3.11-2.04l1.09-.04v-.4c0-.5-.11-.88-.33-1.12s-.56-.36-1.04-.36c-.54,0-1.14.16-1.82.49l-.3-.74c.32-.17.66-.31,1.04-.4s.75-.15,1.13-.15c.77,0,1.33.17,1.7.51s.55.88.55,1.63v4.38h-.72Zm-2.2-.69c.61,0,1.08-.17,1.43-.5s.52-.8.52-1.39v-.58l-.97.04c-.77.03-1.33.15-1.67.36s-.51.54-.51.99c0,.35.11.62.32.8s.51.28.89.28Z"/><path class="cls-3" d="m252.36,255.19l-2.44-6.42h1.04l1.38,3.81c.31.89.5,1.47.55,1.73h.05c.04-.21.18-.64.41-1.29s.74-2.07,1.54-4.26h1.04l-2.44,6.42h-1.14Z"/><path class="cls-3" d="m260.91,255.19l-.19-.91h-.05c-.32.4-.64.67-.96.82s-.72.21-1.19.21c-.64,0-1.14-.16-1.5-.49s-.54-.79-.54-1.4c0-1.3,1.04-1.98,3.11-2.04l1.09-.04v-.4c0-.5-.11-.88-.33-1.12s-.56-.36-1.04-.36c-.54,0-1.14.16-1.82.49l-.3-.74c.32-.17.66-.31,1.04-.4s.75-.15,1.13-.15c.77,0,1.33.17,1.7.51s.55.88.55,1.63v4.38h-.72Zm-2.2-.69c.61,0,1.08-.17,1.43-.5s.52-.8.52-1.39v-.58l-.97.04c-.77.03-1.33.15-1.67.36s-.51.54-.51.99c0,.35.11.62.32.8s.51.28.89.28Z"/><path class="cls-3" d="m264.61,255.19h-.97v-9.12h.97v9.12Z"/><path class="cls-3" d="m266.59,247.02c0-.22.05-.39.16-.49s.25-.16.41-.16.29.05.4.16.17.27.17.49-.06.38-.17.49-.25.16-.4.16c-.16,0-.3-.05-.41-.16s-.16-.27-.16-.49Zm1.05,8.16h-.97v-6.42h.97v6.42Z"/><path class="cls-3" d="m273.66,255.19l-.19-.91h-.05c-.32.4-.64.67-.96.82s-.72.21-1.19.21c-.64,0-1.14-.16-1.5-.49s-.54-.79-.54-1.4c0-1.3,1.04-1.98,3.11-2.04l1.09-.04v-.4c0-.5-.11-.88-.33-1.12s-.56-.36-1.04-.36c-.54,0-1.14.16-1.82.49l-.3-.74c.32-.17.66-.31,1.04-.4s.75-.15,1.13-.15c.77,0,1.33.17,1.7.51s.55.88.55,1.63v4.38h-.72Zm-2.2-.69c.61,0,1.08-.17,1.43-.5s.52-.8.52-1.39v-.58l-.97.04c-.77.03-1.33.15-1.67.36s-.51.54-.51.99c0,.35.11.62.32.8s.51.28.89.28Z"/><path class="cls-3" d="m278.95,255.3c-.93,0-1.65-.29-2.16-.86s-.76-1.38-.76-2.43.26-1.9.78-2.49,1.25-.88,2.21-.88c.31,0,.62.03.93.1s.55.14.73.23l-.3.83c-.21-.09-.45-.16-.7-.21s-.48-.08-.67-.08c-1.3,0-1.96.83-1.96,2.5,0,.79.16,1.39.48,1.82s.79.63,1.42.63c.54,0,1.08-.12,1.65-.35v.86c-.43.22-.97.33-1.62.33Zm.87,1.58c0,.38-.15.67-.45.88s-.74.31-1.33.31c-.2,0-.39-.02-.56-.05v-.62c.18.03.38.05.61.05.31,0,.54-.04.7-.12s.24-.22.24-.43c0-.17-.08-.3-.23-.41s-.44-.19-.87-.25l.52-1.04h.64l-.32.67c.7.15,1.05.49,1.05,1.02Z"/><path class="cls-3" d="m286.04,255.19l-.19-.91h-.05c-.32.4-.64.67-.96.82s-.72.21-1.19.21c-.64,0-1.14-.16-1.5-.49s-.54-.79-.54-1.4c0-1.3,1.04-1.98,3.11-2.04l1.09-.04v-.4c0-.5-.11-.88-.33-1.12s-.56-.36-1.04-.36c-.54,0-1.14.16-1.82.49l-.3-.74c.32-.17.66-.31,1.04-.4s.75-.15,1.13-.15c.77,0,1.33.17,1.7.51s.55.88.55,1.63v4.38h-.72Zm-.76-7.28c-.17,0-.33-.04-.49-.11s-.32-.15-.47-.24-.3-.17-.45-.24-.28-.11-.41-.11c-.2,0-.34.06-.44.18s-.18.29-.23.53h-.57c.05-.47.19-.84.41-1.11s.51-.4.87-.4c.18,0,.35.04.52.11s.33.15.48.24.3.17.44.24.27.11.4.11c.19,0,.33-.06.43-.17s.17-.29.23-.54h.58c-.05.47-.19.84-.41,1.11s-.51.4-.88.4Zm-1.44,6.6c.61,0,1.08-.17,1.43-.5s.52-.8.52-1.39v-.58l-.97.04c-.77.03-1.33.15-1.67.36s-.51.54-.51.99c0,.35.11.62.32.8s.51.28.89.28Z"/><path class="cls-3" d="m294.31,251.97c0,1.05-.26,1.86-.79,2.45s-1.26.88-2.19.88c-.57,0-1.08-.13-1.53-.4s-.79-.66-1.03-1.16-.36-1.09-.36-1.77c0-1.05.26-1.86.79-2.45s1.25-.88,2.18-.88,1.61.3,2.14.9.79,1.41.79,2.43Zm-4.89,0c0,.82.16,1.45.49,1.88s.81.64,1.45.64,1.12-.21,1.45-.64.5-1.05.5-1.88-.17-1.44-.5-1.86-.82-.64-1.46-.64-1.12.21-1.44.63-.49,1.04-.49,1.87Z"/><path class="cls-3" d="m302.12,255.3c-.42,0-.8-.08-1.15-.23s-.64-.39-.87-.71h-.07c.05.38.07.73.07,1.07v2.64h-.97v-9.3h.79l.13.88h.05c.25-.35.54-.61.87-.76s.71-.23,1.14-.23c.85,0,1.51.29,1.97.87s.69,1.4.69,2.45-.24,1.87-.71,2.46-1.12.88-1.96.88Zm-.14-5.83c-.66,0-1.13.18-1.42.54s-.44.94-.45,1.73v.22c0,.9.15,1.55.45,1.94s.78.58,1.45.58c.55,0,.99-.22,1.3-.67s.47-1.07.47-1.86-.16-1.42-.47-1.84-.76-.64-1.33-.64Z"/><path class="cls-3" d="m312.03,251.97c0,1.05-.26,1.86-.79,2.45s-1.26.88-2.19.88c-.57,0-1.08-.13-1.53-.4s-.79-.66-1.03-1.16-.36-1.09-.36-1.77c0-1.05.26-1.86.79-2.45s1.25-.88,2.18-.88,1.61.3,2.14.9.79,1.41.79,2.43Zm-4.89,0c0,.82.16,1.45.49,1.88s.81.64,1.45.64,1.12-.21,1.45-.64.5-1.05.5-1.88-.17-1.44-.5-1.86-.82-.64-1.46-.64-1.12.21-1.44.63-.49,1.04-.49,1.87Z"/><path class="cls-3" d="m314.71,255.19h-.97v-9.12h.97v9.12Z"/><path class="cls-3" d="m316.73,247.77c.19-.24.39-.54.61-.88s.39-.64.51-.9h1.18v.12c-.17.25-.43.57-.77.94s-.63.66-.88.86h-.65v-.15Zm1.01,7.42h-.97v-6.42h.97v6.42Z"/><path class="cls-3" d="m321.88,254.5c.17,0,.34-.01.5-.04s.29-.05.38-.08v.74c-.11.05-.26.09-.47.13s-.39.05-.55.05c-1.24,0-1.86-.65-1.86-1.96v-3.82h-.92v-.47l.92-.4.41-1.37h.56v1.49h1.86v.76h-1.86v3.78c0,.39.09.68.28.89s.44.31.76.31Z"/><path class="cls-3" d="m323.96,247.02c0-.22.05-.39.16-.49s.25-.16.41-.16.29.05.4.16.17.27.17.49-.06.38-.17.49-.25.16-.4.16c-.16,0-.3-.05-.41-.16s-.16-.27-.16-.49Zm1.05,8.16h-.97v-6.42h.97v6.42Z"/><path class="cls-3" d="m329.64,255.3c-.93,0-1.65-.29-2.16-.86s-.76-1.38-.76-2.43.26-1.9.78-2.49,1.25-.88,2.21-.88c.31,0,.62.03.93.1s.55.14.73.23l-.3.83c-.21-.09-.45-.16-.7-.21s-.48-.08-.67-.08c-1.3,0-1.96.83-1.96,2.5,0,.79.16,1.39.48,1.82s.79.63,1.42.63c.54,0,1.08-.12,1.65-.35v.86c-.43.22-.97.33-1.62.33Z"/><path class="cls-3" d="m336.74,255.19l-.19-.91h-.05c-.32.4-.64.67-.96.82s-.72.21-1.19.21c-.64,0-1.14-.16-1.5-.49s-.54-.79-.54-1.4c0-1.3,1.04-1.98,3.11-2.04l1.09-.04v-.4c0-.5-.11-.88-.33-1.12s-.56-.36-1.04-.36c-.54,0-1.14.16-1.82.49l-.3-.74c.32-.17.66-.31,1.04-.4s.75-.15,1.13-.15c.77,0,1.33.17,1.7.51s.55.88.55,1.63v4.38h-.72Zm-2.2-.69c.61,0,1.08-.17,1.43-.5s.52-.8.52-1.39v-.58l-.97.04c-.77.03-1.33.15-1.67.36s-.51.54-.51.99c0,.35.11.62.32.8s.51.28.89.28Z"/></g></svg>