<?xml version="1.0" encoding="utf-8"?>
<!-- Generator: Adobe Illustrator 24.3.0, SVG Export Plug-In . SVG Version: 6.00 Build 0)  -->
<svg version="1.1" id="Camada_1" xmlns="http://www.w3.org/2000/svg" xmlns:xlink="http://www.w3.org/1999/xlink" x="0px" y="0px"
	 viewBox="0 0 888 500" style="enable-background:new 0 0 888 500;" xml:space="preserve">
<style type="text/css">
	.st0{clip-path:url(#SVGID_2_);}
	.st1{fill:url(#SVGID_4_);}
	.st2{fill:#FFAC5A;}
	.st3{fill:#46B5C3;}
	.st4{fill:#7CB8AF;}
	.st5{fill:#FFFFFF;}
	.st6{enable-background:new    ;}
	.st7{fill:#08536A;}
</style>
<g>
	<g>
		<g>
			<defs>
				<rect id="SVGID_1_" x="-6" y="-2.7" width="900" height="505.4"/>
			</defs>
			<clipPath id="SVGID_2_">
				<use xlink:href="#SVGID_1_"  style="overflow:visible;"/>
			</clipPath>
			<g class="st0">
				<g>
					<linearGradient id="SVGID_4_" gradientUnits="userSpaceOnUse" x1="847.3085" y1="49.8055" x2="105.8026" y2="417.8746">
						<stop  offset="0" style="stop-color:#FAC496"/>
						<stop  offset="0.246" style="stop-color:#F1E2C9"/>
						<stop  offset="0.4515" style="stop-color:#EBF7ED"/>
						<stop  offset="0.5608" style="stop-color:#E9FFFB"/>
						<stop  offset="0.8124" style="stop-color:#EBFFFB"/>
						<stop  offset="0.9155" style="stop-color:#F2FFFB"/>
						<stop  offset="0.9913" style="stop-color:#FEFFFB"/>
						<stop  offset="0.9944" style="stop-color:#FFFFFB"/>
					</linearGradient>
					<polygon id="SVGID_3_" class="st1" points="894,-2.7 894,502.7 -6,502.7 -6,-2.7 					"/>
				</g>
			</g>
		</g>
	</g>
</g>
<rect x="-6" y="483" class="st2" width="900" height="16.8"/>
<g>
	<g>
		<g>
			<g>
				<rect x="37.3" y="47.8" class="st3" width="31.8" height="81.5"/>
				<rect x="104.4" y="47.8" class="st4" width="31.8" height="81.5"/>
				<polygon class="st2" points="69.1,42.1 69.1,47.8 69.1,129.2 69.1,134.9 104.4,134.9 104.4,129.2 104.4,47.8 104.4,42.1 				"/>
			</g>
			<g>
				<path class="st5" d="M112.7,115.5c0-0.2,0-0.3,0-0.5c0-0.3,0-0.6,0-0.9c0-0.2,0-0.3,0-0.5s0-0.3,0-0.5s0-0.4,0-0.6s0-0.4,0-0.6
					s0-0.3,0-0.5s0-0.4,0-0.6c0-0.4,0-0.8,0-1.1c0-0.5,0-1,0-1.4c0-0.2,0.1-0.4,0.2-0.6c0-0.2,0.1-0.4,0.2-0.5
					c0.1-0.2,0.2-0.5,0.3-0.7c0.1-0.2,0.3-0.5,0.4-0.7c0-0.1,0.1-0.2,0.2-0.3l0.1-0.1l0.1-0.1v-0.1v-0.1c0-0.1,0-0.2,0-0.3
					c0-0.1,0-0.2,0-0.3c0-0.1,0-0.2,0-0.3c0-0.3,0-0.5,0-0.8c0-0.2,0-0.3,0-0.5s0-0.3,0-0.5c0-0.3-0.1-0.6-0.1-0.9
					c0-0.1,0-0.3,0-0.4s0-0.3,0-0.4c0-0.2,0-0.4,0.1-0.5c0-0.2,0-0.5,0.1-0.7c0-0.2,0-0.4,0-0.6c0-0.1,0-0.2,0-0.4
					c0-0.1,0-0.3,0-0.4l-0.2-1.4c0-0.2-0.1-0.5-0.1-0.7c-0.1-0.4-0.1-0.8-0.2-1.1c-0.1-0.3-0.1-0.6-0.1-0.9c0-0.2,0-0.3,0-0.5
					s0-0.5,0-0.7s0.1-0.3,0.1-0.5c0.1-0.2,0.1-0.3,0.2-0.5c0-0.1,0.1-0.2,0.1-0.4c0-0.2,0-0.3,0-0.5c-0.1-0.3-0.1-0.7-0.2-1
					c0-0.1,0-0.2,0-0.3c0-0.1,0-0.2-0.1-0.3c0-0.1,0-0.2,0-0.3c0-0.1,0-0.1,0-0.2s0-0.1,0-0.2c0-0.2,0-0.5,0-0.7c0-0.3,0-0.5,0-0.8
					c0.1-0.4,0.1-0.8,0.2-1.2c0-0.1,0-0.3,0.1-0.4c0-0.1,0.1-0.2,0.1-0.3c0-0.2,0.1-0.4,0.1-0.6c0-0.1,0-0.3,0-0.4s0-0.2,0-0.3
					c0-0.1,0-0.2,0-0.3c0-0.1,0-0.3,0-0.4s0-0.3,0-0.4c0-0.2,0-0.5-0.2-0.6c-0.1-0.1-0.2-0.1-0.3-0.2c-0.1-0.1-0.2-0.1-0.3-0.2
					c-0.1-0.1-0.2-0.1-0.3-0.2c-0.1-0.1-0.2-0.2-0.3-0.2c-0.1-0.1-0.2-0.3-0.2-0.4s0-0.3,0-0.5s0.1-0.4,0.1-0.6c0-0.1,0-0.1,0-0.2
					v-0.1c0-0.1-0.1-0.1-0.2-0.1l-0.1-0.1c0,0-0.1,0-0.1-0.1c-0.1-0.1-0.2-0.2-0.4-0.3c-0.1-0.1-0.3-0.2-0.4-0.4
					c-0.1-0.1-0.2-0.3-0.3-0.4c0-0.1-0.1-0.1-0.1-0.2s-0.1-0.1-0.1-0.2s0-0.1-0.1-0.2c0,0,0-0.1-0.1-0.1l-0.1-1.3
					c-0.1-0.2-0.1-0.5-0.2-0.7c0-0.1,0-0.2,0-0.3c0-0.1,0-0.2,0-0.2c0-0.1,0-0.3,0-0.4s0-0.1,0-0.2s0-0.2,0-0.2
					c0-0.1,0.1-0.3,0.1-0.4s0-0.2,0-0.3c0-0.1,0-0.3,0.1-0.4c0-0.1,0-0.2,0-0.3c0-0.1,0-0.2,0.1-0.3c0-0.2,0.1-0.5,0.1-0.7
					c0.1-0.4,0.1-0.8,0.1-1.3c0-0.3-0.1-0.5-0.1-0.8c0-0.2-0.1-0.4-0.1-0.7c0-0.2-0.1-0.4-0.1-0.6s0-0.3,0-0.5c0-0.1,0-0.2,0-0.3
					c0-0.1,0-0.2,0-0.3c0-0.2,0-0.3,0.1-0.4c0-0.1,0.1-0.2,0.2-0.4c0.1-0.1,0.1-0.3,0.2-0.4c0-0.1,0-0.2,0-0.3c0-0.1,0-0.1,0-0.2
					s0-0.1,0-0.2s0-0.2,0-0.2c0-0.1,0-0.1,0-0.2s0-0.1,0-0.2s0-0.2,0.1-0.3c0-0.1,0.1-0.2,0.2-0.3c0-0.1,0.1-0.2,0.2-0.3
					c0.1-0.1,0.1-0.2,0.2-0.2c0.1-0.1,0.1-0.1,0.2-0.2c0.1-0.1,0.2-0.2,0.3-0.3c0.2-0.2,0.4-0.4,0.5-0.5c0.2-0.2,0.4-0.3,0.6-0.5
					c0.2-0.1,0.4-0.3,0.6-0.4c0.1-0.1,0.3-0.2,0.4-0.3c0.1,0,0.2,0,0.3-0.1c0.1,0,0.2-0.1,0.3-0.1c0.3-0.1,0.7-0.2,1-0.2
					c0.1,0,0.3,0,0.4-0.1c0.1,0,0.3-0.1,0.4-0.2c0.1,0,0.1-0.1,0.2-0.1s0.1-0.1,0.1-0.1c0-0.1,0-0.2,0-0.4c0-0.1,0.1-0.1,0.1-0.1
					c0.1,0,0.2-0.1,0.2-0.1c0.1-0.1,0.3-0.1,0.3-0.2c0.1-0.1,0.1-0.2,0.2-0.3c0.1,0,0.1,0,0.2-0.1l0.2-0.1c0.1,0,0.3-0.1,0.3-0.2V59
					c0-0.1,0-0.1,0-0.2c0-0.1-0.1-0.2-0.1-0.3v-0.1c0,0,0-0.1,0-0.2h-0.1c-0.1,0-0.1,0-0.2-0.1c-0.1,0-0.1-0.1-0.2-0.1
					s-0.1-0.1-0.1-0.2c0-0.1,0-0.3,0-0.4c0-0.1,0-0.1,0-0.2c0-0.1-0.1-0.2-0.1-0.2s-0.1-0.1-0.1-0.2c0-0.1,0-0.1,0.1-0.2
					c0.1-0.1,0.1-0.3-0.1-0.3c-0.3,0-0.5-0.3-0.6-0.6s0.1-0.6,0.2-0.8v-0.1c0,0,0,0,0.1-0.1c0,0,0-0.1,0-0.2c0-0.1,0-0.3,0-0.4
					l0.1-0.1c0-0.1,0-0.1,0-0.2c0-0.1,0-0.1,0-0.2c0-0.1,0.1-0.2,0.1-0.3c0.1-0.1,0.1-0.1,0.2-0.2c0,0,0.2-0.1,0.2-0.2
					c0-0.1,0-0.1,0-0.2c0-0.1,0-0.2,0-0.3c0-0.2,0.1-0.4,0.3-0.5c0.1-0.2,0.3-0.3,0.4-0.4c0.1,0,0.1-0.1,0.2-0.1
					c0,0,0.1-0.1,0.1-0.2c0.1-0.1,0.3-0.3,0.5-0.3c0.1-0.1,0.3-0.1,0.5-0.1c0.1,0,0.1,0,0.2,0h0.1l0.1-0.1c0.1-0.1,0.2-0.1,0.2-0.1
					c0.1,0,0.2-0.1,0.2-0.1c0.1,0,0.2,0,0.3,0c0.1,0,0.2,0,0.4,0c0.1,0,0.1,0.1,0.2,0.1l0.1,0.1c0,0,0.1,0,0.2,0s0.2-0.1,0.3-0.1
					c0.1,0,0.2,0,0.4,0.1c0,0,0.1,0,0.1,0.1c0,0,0,0,0,0.1s0.1,0.1,0.2,0.1c0.2,0,0.4-0.1,0.5-0.1s0.2,0,0.2,0.1v0.1v0.1
					c0,0.1,0.1,0,0.2,0s0.2,0,0.2,0c0.1,0,0.2,0,0.2,0c0.1,0,0.2,0,0.2,0c0.1,0,0.1,0,0.2,0.1c0,0.1,0,0.1,0,0.2
					c0,0.1,0,0.1,0.1,0.2c0.1,0.1,0.1,0.1,0.2,0.2c0,0.1,0,0.1,0,0.2c0,0.1,0,0.1,0.1,0.2c0,0.1,0.1,0.1,0.1,0.2
					c0,0.1,0.1,0.1,0.1,0.1c0,0.1,0,0.1,0,0.2c0,0.1,0,0.1,0,0.1l0.1,0.4c0,0.1,0.1,0.2,0.1,0.3c0.1,0.2,0.1,0.4,0.2,0.6v0.1
					c0,0,0,0.1-0.1,0.1c-0.1,0.1-0.1,0.2-0.2,0.3c0,0.1-0.1,0.2-0.1,0.3s-0.1,0.2-0.1,0.3s0,0.2,0,0.3s0,0.2,0,0.3s0,0.2,0.1,0.2
					c0,0.1,0.1,0.2,0.2,0.2l0.1,0.1v0.1l0.1,0.1c0,0,0,0.1,0.1,0.1c0.1,0.1,0.3,0.3,0.2,0.4c0,0.1-0.1,0.2-0.1,0.2s0,0,0,0.1
					c0,0,0,0-0.1,0c0,0,0,0.1-0.1,0.1c-0.1,0.1-0.2,0.1-0.3,0.1c-0.1,0-0.2,0.1-0.3,0.1v0.1v0.1c0,0.1-0.1,0.2-0.1,0.3
					c0,0.2,0.2,0.3,0.2,0.5c0,0,0,0.1-0.1,0.1v0.1V59l-0.1,0.1c-0.1,0.1-0.1,0.2-0.2,0.2v0.1c0,0,0,0.1,0.1,0.1v0.1v0.1
					c0,0.1,0,0.2,0,0.2c0,0.1-0.2,0.1-0.2,0.1c-0.1,0-0.1,0-0.1,0s-0.1,0-0.2,0h-0.1h-0.1c-0.1,0-0.2,0-0.3,0c-0.1,0-0.2,0-0.3,0
					c-0.1,0-0.2,0-0.2,0c0,0.1,0.1,0.2,0.2,0.3s0.1,0.2,0.2,0.2s0.2,0,0.3,0.1c0.1,0.1,0,0.2,0,0.3s0,0.2,0.1,0.2l0.1,0.1
					c0.1,0,0.1,0.1,0.2,0.1c0.2,0.1,0.4,0.2,0.6,0.3c0.1,0,0.1,0.1,0.2,0.1h0.1c0.1,0,0.3,0.1,0.4,0.1s0.3,0.1,0.4,0.1
					s0.2,0,0.2,0.1c0.1,0,0.2,0.1,0.3,0.1c0.1,0,0.1,0.1,0.2,0.1s0.1,0,0.2,0.1c0.1,0,0.1,0.1,0.2,0.1s0.1,0.1,0.2,0.1
					s0.2,0.1,0.4,0.2c0.1,0.1,0.3,0.1,0.4,0.2c0.1,0,0.1,0.1,0.1,0.1c0.1,0,0.1,0.1,0.2,0.2c0.1,0.1,0.2,0.3,0.2,0.4
					c0.1,0.1,0.1,0.3,0.1,0.4c0,0.2,0.1,0.4,0.1,0.5s0.1,0.3,0.1,0.4s0.1,0.3,0.1,0.4s0.1,0.2,0.1,0.3v0.1c0,0.1,0,0.1,0,0.2
					s0,0.1,0,0.2s0,0.1-0.1,0.2c0,0.1,0,0.1,0,0.2s-0.1,0.1-0.1,0.2s-0.1,0.3-0.1,0.4s0,0.3,0,0.4s0,0.3,0.1,0.4
					c0,0.1,0.1,0,0.1,0.1c0.1,0,0.1,0.1,0.2,0.1c0.2,0.1,0.3,0.4,0.4,0.6c0,0.1,0.1,0.3,0.1,0.4s0,0.2,0,0.2c0,0.1,0,0.1,0,0.2
					s0,0.2,0.1,0.3c0,0.1,0.1,0.2,0.2,0.3c0.1,0.1,0.2,0.3,0.2,0.4c0.1,0.2,0.1,0.4,0.2,0.5c0.1,0.1,0.1,0.3,0.2,0.4
					c0,0.1,0,0.1,0,0.2s0,0.1,0.1,0.2l0.2,0.8c0,0.2,0,0.3,0,0.5c0,0.1,0,0.3,0,0.4s0.1,0.3,0.1,0.4s0,0.1,0,0.2s0,0.1,0,0.2
					c0,0.2,0.1,0.4,0,0.5c0,0.2-0.1,0.3-0.1,0.5c0,0.1,0,0.2-0.1,0.3c0,0.1-0.1,0.2-0.1,0.4c0,0.1,0,0.2-0.1,0.3c0,0.1,0,0.2,0,0.4
					c0,0.1,0,0.2,0,0.3c0,0.1,0,0.2,0,0.2c0,0.2,0.1,0.3,0,0.5c0,0.2-0.1,0.4-0.1,0.5c-0.1,0.2-0.2,0.4-0.3,0.5
					c0,0.1-0.1,0.2-0.1,0.3l-0.1,0.1c0,0,0,0.1-0.1,0.1l-0.1,0.1l-0.1,0.1l-0.1,0.1c-0.1,0.1-0.1,0.2-0.2,0.3
					c-0.1,0.1-0.1,0.2-0.2,0.3c-0.1,0.1-0.1,0.3-0.2,0.5l-0.1,0.1c0,0.1,0,0.1-0.1,0.2c0,0.1-0.1,0.1-0.1,0.2s0,0.1,0.1,0.2
					c0,0.1-0.1,0.2-0.1,0.3c-0.2,0.2-0.4,0.3-0.6,0.5c-0.1,0.1-0.3,0.3-0.2,0.5c0,0.1,0.1,0.1,0.2,0.2l0.1,0.1h0.1
					c0,0,0.1,0,0.1,0.1c0.1,0,0.1,0.1,0.1,0.1c0,0.1,0,0.2,0,0.3c0,0.1,0,0.1,0,0.2s0,0.1,0,0.2s0,0.2,0,0.3v1.2
					c0.2,0.6,0.3,1.2,0.4,1.7c0,0.2,0.1,0.3,0.1,0.5c0,0.1,0,0.1,0,0.2s0,0.1-0.1,0.2c0,0.1-0.1,0.2-0.1,0.4c0,0.2-0.1,0.3-0.1,0.5
					s-0.1,0.3-0.1,0.5c0,0.1-0.1,0.2-0.1,0.3c0,0.3-0.1,0.6-0.1,1c0,0.2,0.1,0.4,0.1,0.6s0,0.4,0,0.7c0,0.1,0,0.2,0,0.3
					c0,0.1,0,0.1,0,0.2v0.1c0,0.1,0,0.2,0,0.3c0,0.1,0,0.1,0,0.2s0,0.1,0,0.2c0,0.2,0,0.5,0,0.7c0,0.1,0,0.1,0,0.2s0,0.2,0,0.4
					c0,0.4,0,0.8,0,1.3c0,0.2,0,0.5,0,0.7s0,0.3,0,0.5c0,0.1,0,0.3,0,0.4c0,0.4,0,0.8,0,1.2c0,0.1,0,0.2,0,0.2c0,0.1,0,0.2,0,0.4
					c0,0.1,0,0.2,0,0.3c0,0.1,0,0.3,0,0.4v4.7c0,0.1,0,0.2,0,0.3c0,0.1,0,0.3,0,0.4c0,0.3,0,0.6-0.1,0.9c0,0.5,0,1.1,0,1.6
					c0,0.2,0,0.5,0,0.7c0,0.3,0,0.6,0.1,0.9c0,0.2,0,0.4,0,0.6c0,0.1,0,0.2,0.1,0.3c0,0.1,0,0.2,0,0.3c0,0.4,0.1,0.7,0.1,1.1
					c0,0.1,0,0.2,0,0.3c0,0.2,0,0.4,0,0.6c0,0.1,0,0.3,0,0.4s0,0.3,0,0.4c0,0.2-0.1,0.5-0.2,0.7c-0.1,0.2-0.2,0.4-0.3,0.6
					c0,0.1,0,0.2,0,0.2v0.1c0,0.1,0,0.1,0,0.2s0,0.2,0,0.3c0,0.1,0,0.2,0,0.4c0,0.1,0,0.3,0,0.4s0,0.3-0.1,0.4c0,0.1,0,0.3-0.1,0.4
					c0,0.1,0,0.2-0.1,0.4c-0.1,0.2-0.2,0.4-0.3,0.6c-0.1,0.2-0.1,0.5-0.2,0.7c0,0.1,0,0.2,0,0.3c0,0.1,0,0.2,0,0.3
					c0,0.1-0.1,0.3-0.1,0.4s-0.1,0.3-0.1,0.4c0,0.2-0.1,0.3-0.2,0.5c-0.1,0.1-0.1,0.2-0.1,0.4c0,0.1-0.1,0.2-0.2,0.3
					c0,0.1,0,0.1-0.1,0.2c0,0.1-0.1,0.1-0.1,0.2l-0.2,0.7c0,0.1,0,0.1,0,0.1v0.1c0,0.1,0,0.2,0,0.2c0,0.1-0.1,0.2-0.1,0.2
					s-0.1,0.2,0,0.2h0.1h0.1c0.1,0,0.2,0,0.3,0.1c0.1,0,0.2,0,0.2,0c0.1,0,0.2,0,0.3,0c0.1,0,0.1,0.1,0.2,0.1
					c0.1,0.1,0.1,0.1,0.2,0.2c0.1,0.2,0.3,0.4,0.5,0.5c0.1,0.1,0.2,0.2,0.3,0.2c0.1,0.1,0.2,0.2,0.3,0.2c0.2,0.1,0.4,0.2,0.6,0.4
					c0.1,0.1,0.2,0.2,0.3,0.2s0.1,0.1,0.2,0.1c0,0,0.1,0.1,0.2,0.2c0,0.1,0,0.1,0,0.2s-0.1,0.1-0.2,0.2c-0.1,0.1-0.1,0.1-0.2,0.1
					c-0.1,0-0.1,0-0.2,0c-0.1,0-0.1,0-0.2,0c-0.2,0-0.3,0-0.5,0c-0.1,0-0.2,0-0.2,0c-0.1,0-0.2,0-0.2,0c-0.2,0-0.3,0-0.5,0
					c-0.1,0-0.2,0-0.2,0c-0.1,0-0.2,0-0.2,0c-0.1,0-0.1,0-0.2,0h-0.1c-0.1,0-0.2,0-0.3,0c-0.1,0-0.1,0-0.2,0h-0.1
					c-0.1,0-0.2-0.1-0.3-0.1c-0.1,0-0.2,0-0.3,0c-0.1,0-0.2,0-0.2,0H126h-0.1c-0.1,0-0.1,0-0.2,0c-0.2,0-0.3-0.1-0.4-0.1
					s-0.2,0-0.2-0.1c0,0-0.1,0-0.1-0.1v-0.1c0,0,0-0.1-0.1-0.1v-0.1l-0.2,0.1c-0.1,0.1-0.3,0.2-0.3,0.3c-0.1,0.1-0.2,0.3-0.4,0.3
					c-0.1,0-0.1,0-0.2,0s-0.2,0-0.2,0c-0.1,0-0.2,0-0.3,0c-0.1,0-0.2,0-0.3,0c-0.2,0-0.4,0-0.6,0c-0.1,0-0.2,0-0.2,0s-0.1,0-0.1-0.1
					c0,0,0-0.1-0.1-0.1c0,0-0.1,0-0.1-0.1l-0.1-0.1c-0.1-0.1-0.1-0.1-0.1-0.2v-0.1c0,0,0,0,0-0.1s0-0.1,0-0.2s0-0.3-0.1-0.4
					s-0.2-0.1-0.2-0.2s0-0.1-0.1-0.2c0-0.1,0-0.1,0-0.2s0-0.2,0-0.3c0-0.1,0-0.3,0-0.4s0-0.2,0-0.4c0-0.1,0-0.3,0-0.5v-0.1
					c0-0.1,0-0.1,0-0.2c0-0.7,0.2-1.4,0.3-2c0.1-0.2,0.1-0.5,0.2-0.7c0-0.2,0.1-0.4,0.2-0.6l0.2-0.8c0,0,0-0.1,0-0.2s0-0.1,0-0.1
					c0-0.1,0-0.1,0-0.2s0-0.1,0-0.2s0-0.1,0-0.2s0-0.1,0-0.2s0-0.3,0-0.4s0-0.1,0-0.2s0-0.2,0-0.3c0-0.1,0-0.2,0-0.3
					c0-0.1,0-0.2,0-0.3c0-0.2,0-0.5,0-0.7c0-0.3,0-0.7,0.1-1c0-0.1,0-0.3,0-0.4s0-0.2,0-0.3c0-0.1,0-0.3,0-0.4s0-0.3,0-0.4
					c0-0.2,0-0.5,0-0.7c0-0.1,0-0.3,0-0.4s0-0.2,0-0.3c0-0.1,0-0.2-0.1-0.3c0-0.1,0-0.2,0-0.3c0-0.2-0.1-0.4-0.1-0.5
					c-0.1-0.4-0.1-0.7-0.2-1.1c0-0.1,0-0.1,0-0.2v-0.1c0-0.1,0-0.2-0.1-0.2c0-0.1,0-0.2,0-0.3c0-0.3,0-0.5,0.1-0.7s0.1-0.3,0.2-0.4
					l0.1-0.1v-0.1c0-0.1,0-0.2,0-0.2v-0.1v-0.1c0-0.1,0-0.1-0.1-0.2c0-0.1,0-0.1,0-0.2s0-0.2,0-0.2c0-0.1,0-0.2,0-0.3
					c0-0.1,0-0.1,0-0.2s0-0.2,0-0.2c0-0.2,0-0.4,0.1-0.5c0-0.2,0-0.4,0.1-0.6c0.2-0.6,0.3-1.2,0-1.8c-0.1-0.2-0.1-0.4-0.2-0.6
					s-0.1-0.3-0.1-0.5c-0.1-0.2-0.1-0.4-0.1-0.6s-0.1-0.4-0.1-0.6s-0.1-0.5-0.1-0.7s0-0.5,0-0.7v-1.3c-0.1,0.1-0.1,0.2-0.1,0.3
					c0,0.1,0,0.2,0,0.3c0,0.1,0,0.2,0,0.3c0,0.1,0,0.1,0,0.1c0,0.1,0,0.1-0.1,0.2s-0.1,0.3-0.1,0.4s-0.1,0.1-0.1,0.2v0.1l-0.1,0.1
					c-0.1,0.1-0.1,0.3-0.1,0.4c0,0.2-0.1,0.3-0.1,0.5c0,0.1,0,0.2,0,0.4c0,0.1,0,0.3,0,0.4s0,0.3,0,0.4s0,0.2,0,0.2
					c0,0.1,0,0.2,0,0.3c0,0.1,0,0.2,0,0.3c0,0.1,0,0.2,0,0.4c0,0.2,0,0.5,0,0.7s0,0.4,0,0.6s0,0.4-0.1,0.7c0,0.2,0,0.4-0.1,0.6
					c0,0.1,0,0.2,0,0.3c0,0.1,0,0.2,0,0.2c0,0.1,0,0.1,0,0.2s0,0.2-0.1,0.2c0,0.1-0.1,0.3-0.1,0.4s0,0.1-0.1,0.2c0,0.1,0,0.1,0,0.2
					s0,0.3,0,0.4s0,0.1,0,0.2s0,0.1,0,0.2s0,0.1,0,0.2s0,0.2,0,0.3c0,0.1,0,0.1,0,0.2s0,0.2,0,0.3c0,0.2,0,0.4,0,0.5
					c0,0.2,0,0.5-0.1,0.7c0,0.1,0,0.2,0,0.3c0,0.1,0,0.3,0,0.4c0,0.2,0,0.5-0.1,0.7c0,0.1,0,0.2,0,0.3c0,0.1,0,0.2,0,0.4
					c0,0.2,0,0.4,0,0.6c0,0.1,0,0.2,0,0.4c0,0.1,0,0.2,0,0.3c0,0.1,0,0.2,0,0.2c0,0.1,0,0.2,0,0.2c0,0.1,0,0.3,0,0.4
					c0,0.3,0,0.6,0,0.9c0,0.1,0,0.1,0,0.2s0,0.2,0,0.2c0,0.1,0,0.2-0.1,0.4c-0.1,0.3-0.1,0.6-0.2,0.9c0,0.3-0.1,0.5-0.2,0.7
					s-0.1,0.5-0.2,0.7c0,0.2-0.1,0.4-0.1,0.5s0,0.2,0,0.3c0,0.1,0,0.1,0,0.2l-0.2,1c0,0.1,0,0.2,0,0.3c0,0.1,0,0.2,0,0.3
					c0,0.1,0,0.2,0,0.3c0,0.1,0,0.3-0.1,0.4c-0.1,0.2-0.1,0.4-0.1,0.6c0,0.1-0.1,0.3-0.1,0.4s-0.1,0.2-0.1,0.3
					c-0.1,0.2-0.1,0.3-0.2,0.5s-0.2,0.3-0.3,0.5c-0.1,0.2-0.3,0.3-0.4,0.5c-0.1,0.1-0.1,0.1-0.2,0.2l-0.1,0.1
					c-0.1,0-0.1,0.1-0.2,0.1c-0.1,0.1-0.3,0.2-0.4,0.3c-0.1,0-0.1,0.1-0.2,0.1s-0.1,0.1-0.1,0.2c-0.1,0.1-0.1,0.3,0,0.4
					c0,0.1,0,0.1,0,0.2s0,0.2,0,0.2c0,0.1,0,0.1,0,0.2s0,0.1,0,0.2c0,0-0.1,0-0.2,0s-0.2,0.1-0.3,0.1c-0.2,0.1-0.3,0.1-0.5,0.1
					c-0.1,0-0.2,0-0.2,0.1c-0.1,0-0.2,0-0.3,0c-0.1,0-0.1,0-0.2,0s-0.1,0-0.2,0s-0.2,0-0.3,0c-0.1,0-0.1,0-0.2,0s-0.1,0-0.2,0
					s-0.1,0-0.2-0.1c-0.1,0-0.1,0-0.2,0s-0.2-0.1-0.2-0.1c-0.1,0-0.2-0.1-0.3-0.1c-0.1,0-0.2-0.2-0.2-0.3c0-0.3,0-0.7,0-1
					c0-0.2,0-0.3,0-0.4s0-0.1,0-0.2s0-0.2,0-0.3c0-0.1,0-0.1,0-0.2s0-0.1,0-0.2s0-0.1-0.1-0.2v-0.1c0-0.1,0-0.1,0-0.2
					c0-0.2-0.1-0.3-0.2-0.4c0-0.1-0.1-0.2-0.1-0.2c-0.1-0.1-0.1-0.2-0.2-0.3c-0.1-0.2-0.2-0.4-0.2-0.5s0-0.3,0-0.4
					c0-0.2,0-0.4,0.1-0.6c0-0.2,0.2-0.4,0.2-0.7c0-0.1,0-0.2,0.1-0.3c0-0.1,0-0.2,0.1-0.3c0-0.1,0.1-0.2,0.2-0.3v-0.1l0.1-0.1
					c0.1-0.1,0.1-0.2,0.1-0.3c0.1-0.1,0.1-0.2,0.1-0.4c0.1-0.2,0.1-0.4,0.2-0.6c0-0.1,0.1-0.2,0.1-0.3c0-0.1,0-0.2,0.1-0.3
					c0-0.1,0-0.1,0-0.2s0-0.1,0-0.2s0-0.2,0-0.2c0-0.2,0-0.4,0-0.6"/>
			</g>
			<path class="st5" d="M78.7,96.4c0-0.5-0.1-1-0.1-1.4c-0.1-0.6-0.1-1.3-0.1-1.9c-0.1-0.7-0.1-1.3-0.2-2c-0.1-0.6-0.2-1.2-0.2-1.8
				c0-1-0.1-2,0.1-3c0.1-0.3,0.1-0.6,0.1-1c0-0.1,0-0.3,0-0.4c-0.1,0.1-0.4,0.1-0.5,0c-0.2-0.2,0.1-0.6,0.2-0.7
				c0.3-0.5,0.5-1.1,0.9-1.6c0.1-0.2,0.1-0.3,0.2-0.5c0.1-0.1,0.1-0.2,0.1-0.3c0-0.2-0.2-0.3-0.4-0.4c-0.4-0.1-0.8-0.1-1.1-0.4
				c-0.3-0.3-0.4-0.7-0.5-1.1c-0.1-0.5,0-1.1,0.1-1.6s0-1,0-1.5c0-0.3,0.1-0.6,0.1-0.9s-0.1-0.5-0.2-0.8c-0.2-0.8-0.2-1.7-0.1-2.5
				c0-0.6,0.1-1.2,0.1-1.8c0-0.3,0-0.5,0-0.8c0-0.4,0.1-0.8,0.1-1.2c0-0.8,0-1.5,0-2.3c0-0.3-0.1-0.6-0.1-1s-0.1-0.8-0.1-1.2
				c0-0.4,0.1-0.8,0.3-1.1c0.1-0.1,0.2-0.2,0.2-0.4c0.1-0.1,0.1-0.2,0.1-0.4c0.1-0.2,0.5-0.4,0.7-0.5s0.5-0.1,0.6-0.4
				c0.1-0.1,0.1-0.2,0.2-0.3c0.2-0.1,0.4-0.2,0.6-0.2c0.3-0.1,0.5-0.1,0.7-0.3l0.3-0.4c-0.2-0.2-0.5-0.5-0.7-0.8
				c-0.1-0.1-0.1-0.1,0-0.3c-0.1-0.1-0.2-0.3-0.2-0.4c-0.1-0.1-0.1-0.3-0.1-0.4c-0.2,0-0.3,0-0.4-0.1c-0.1-0.2,0-0.4-0.1-0.6
				c-0.2,0-0.4-0.1-0.4-0.2c-0.1-0.2,0.1-0.4,0.2-0.6c-0.1,0-0.2,0-0.3-0.1c-0.2-0.2-0.1-0.4,0-0.6c0.1-0.2,0.3-0.4,0.5-0.6
				c0.1-0.1,0.2-0.1,0.2-0.2c0-0.1,0-0.1,0-0.2c-0.1-0.2-0.1-0.4-0.1-0.7c0.1-0.3,0.2-0.5,0.4-0.7c0.1-0.1,0.2-0.1,0.2-0.2
				c-0.2-0.2-0.3-0.7-0.3-1s0.1-0.6,0.3-0.9c0.2-0.2,0.4-0.3,0.6-0.5l-0.1-0.1c-0.2-0.3,0.2-0.8,0.3-1.1c0.2-0.3,0.6-0.6,0.9-0.8
				c0.1,0,0.2-0.1,0.2-0.2c-0.1,0-0.1-0.1-0.1-0.2c0-0.4,0.4-0.7,0.7-0.9c0.5-0.4,1-0.6,1.6-0.8c0.1-0.6,1-0.9,1.5-1
				c0.3-0.1,0.7-0.1,0.9,0.2c0.1,0.1,0.1,0.2,0.2,0.2s0.4,0,0.4,0c0.3,0,0.6,0,0.9,0.1c0.2,0.1,0.5,0.2,0.5,0.5c0,0.1-0.1,0.3,0,0.4
				c0,0.1,0.1,0.1,0.2,0.1c0.3,0.1,0.6,0.1,0.9,0.3c0.1,0.1,0.3,0.2,0.3,0.4c0,0.1,0,0.3,0,0.3s0.3,0.1,0.4,0.1
				c0.3,0.1,0.7,0.2,0.9,0.5c0.1,0.2,0.1,0.4,0.1,0.6c0,0.1-0.1,0.2,0,0.3c0.5,0.1,1.3,0.4,1.1,1.1c0,0.1-0.1,0.3,0,0.4
				c0,0.1,0.2,0.2,0.3,0.2c0.2,0.2,0.4,0.2,0.5,0.5s0.1,0.6-0.1,0.9C93,53.3,93,53.3,93,53.5c0.1,0.1,0.2,0.2,0.3,0.4
				c0.1,0.2,0.1,0.3,0.1,0.5c0,0.3-0.1,0.6-0.3,0.9c0.3,0,0.6,0.5,0.6,0.8s0,0.5-0.2,0.7c-0.1,0.1-0.1,0.1-0.1,0.2
				c0.1,0.1,0.2,0.3,0.2,0.4c0,0.2,0.1,0.3,0,0.5c0,0.2-0.2,0.3-0.3,0.4c0,0.1,0,0.2,0,0.3c0.1,0.2,0,0.5-0.1,0.7
				c-0.1,0.1-0.4,0.3-0.4,0.4c0,0.1,0.1,0.1,0.2,0.1s0.1,0,0.2,0.1c0.1,0,0.2,0,0.3,0.1c0.1,0,0.1,0.1,0.2,0.1
				c0.2,0,0.4-0.1,0.5,0.1c0.1,0.1,0.1,0.3,0.3,0.3c0.1,0,0.2,0,0.4,0c0.2,0,0.4,0.1,0.6,0.1c0.3,0,0.6,0,0.8,0.2
				c0.1,0.1,0,0.3,0.1,0.5c0.1,0.3,0.1,0.5,0.1,0.8c0.1,0.2,0.1,0.3-0.1,0.5c-0.1,0.1-0.2,0.3-0.2,0.5c0,0,0,0.1,0.1,0.2
				c0.1,0.3,0.1,0.5,0.2,0.8c0.2,0.8,0.5,1.6,0.7,2.4c0.1,0.4,0.2,0.7,0.3,1.1c0.1,0.3,0.1,0.7,0.2,1.1s0.1,0.8,0.2,1.2
				c0.1,0.5,0.2,1.1,0.3,1.7c0.2,1.5,0.1,3.1,0,4.6c0,0.2-0.1,0.5-0.1,0.6c-0.1,0.2-0.3,0.4-0.5,0.6c-0.3,0.4-0.7,0.8-1,1.1
				c-0.4,0.4-0.6,0.9-0.9,1.4c-0.1,0.1-0.2,0.3-0.2,0.4s0,0.1,0.1,0.2c0.3,0.4,0.4,0.8,0.7,1.1c0.1,0.1,0.3,0.3,0.4,0.5
				c0.2,0.3-0.2,0.5-0.3,0.7c-0.1,0.2-0.2,0.3-0.1,0.5c0.1,0.3,0.1,0.5,0,0.8c-0.2,0.4-0.5,0.8-0.7,1.3c0,0.1-0.1,0.3-0.1,0.4
				s0.1,0.3,0.2,0.4c0,0.2,0,0.3,0,0.5c0,0.1,0,0.2,0.1,0.3c0.1,0.8,0.1,1.6,0.1,2.4c0,1.3-0.1,2.6-0.1,3.9c0,1.1-0.1,2.2,0.1,3.3
				c0,0.2,0.1,0.5,0.1,0.7c0,0.1,0,0.2-0.1,0.3c-0.2,0.3-0.5,0.3-0.9,0.3l-0.1,1.2c0,1.1-0.2,2.1,0,3.2c0,0.3,0,0.5,0.1,0.8
				c0.1,0.2,0.1,0.4,0.2,0.6c0.1,0.3,0.3,0.5,0.5,0.8s0.3,0.6,0.5,1c0.3,0.5,0.4,1.1,0.7,1.6c0.2,0.5,0.3,1,0.5,1.5
				c0.3,0.8,0.4,1.7,0.5,2.5c0.1,0.5,0.1,1,0.1,1.5c0,0.6,0.1,1.1,0.1,1.7c0,0.5,0.1,1,0.1,1.5c0,0.4,0.1,0.7,0.1,1.1
				c0,1,0,1.9,0.1,2.9c0,0.4,0.1,0.7,0.1,1.1c0,0.3,0.1,0.6,0.1,1c0.1,0.5,0.2,1.1,0.4,1.7c0.2,0.6,0.3,1.1,0.4,1.7s0,1.2,0,1.8
				c0,0.2,0.1,0.5,0.1,0.7c0,0.3,0,0.5,0.1,0.8c0.1,0.4,0.2,0.9,0.3,1.3c0.1,0.3,0.2,0.6,0.2,0.9c0,0.2,0.2,0.6-0.1,0.8
				c-0.2,0.1-0.4,0.3-0.6,0.4c-0.2,0.1-0.4,0.1-0.6,0.2c-0.4,0.3-0.9,0.6-1.4,0.5c-0.2,0-0.4-0.2-0.6-0.3s-0.4-0.2-0.6-0.3
				s-0.3-0.2-0.5-0.4s-0.2-0.4-0.2-0.7c0-0.2,0-0.3,0.1-0.4c0-0.1,0-0.2,0-0.4s0-0.3,0-0.5s0.1-0.4,0.1-0.7s0-0.6,0.1-0.9
				c0-0.3,0.1-0.5,0.1-0.8c0-0.7-0.1-1.4-0.2-2.1c0-0.2-0.1-0.5-0.1-0.7s-0.1-0.3-0.1-0.4c0-0.5,0.1-0.9,0.2-1.4
				c0.1-0.7,0-1.4-0.3-2.1c-0.3-0.6-0.5-1.3-0.9-1.8c-0.3-0.4-0.5-0.9-0.7-1.4c-0.3-0.7-0.6-1.3-0.8-2c-0.2-0.8-0.3-1.5-0.3-2.3
				c0-0.3-0.1-0.6-0.1-0.9c0-0.2,0-0.5,0-0.7c-0.1-0.7-0.1-1.4-0.3-2.1c-0.2-0.6-0.6-1.3-0.9-1.9c-0.2-0.4-0.4-0.8-0.7-1.2
				c-0.2-0.2-0.3-0.5-0.5-0.7c-0.2-0.3-0.3-0.7-0.5-1c-0.3-0.6-0.5-1.2-0.6-1.8c-0.1-0.4-0.2-0.7-0.3-1.1c-0.1-0.5-0.1-1-0.3-1.4
				c-0.1-0.4-0.3-0.9-0.3-1.4L86.1,99c-0.3,0.4-0.3,0.8-0.3,1.4c0,0.5-0.1,1.1-0.1,1.6c0,0.9,0,1.9,0,2.8c0,0.7-0.1,1.3-0.2,2
				c-0.1,0.4-0.3,0.9-0.4,1.3c0,0.2-0.1,0.3-0.1,0.5s-0.1,0.4-0.1,0.6c0,0.1,0,0.3,0.1,0.4c0,0.2,0,0.3,0,0.5c0.1,0.3,0.1,0.7,0.1,1
				c0.1,0.7,0.2,1.3,0.1,2c-0.1,0.4,0,0.8,0,1.2c-0.1,0.4-0.1,0.9-0.1,1.3c0,0.7-0.2,1.5-0.2,2.2c0,0.4-0.1,0.9-0.1,1.3
				c0,0.2,0,0.3,0,0.5s-0.1,0.4-0.1,0.6c0,0.3,0.1,0.6,0.1,0.9c0,0.2,0,0.3,0.1,0.5c0,0.1,0.1,0.2,0.2,0.3c0.1,0.2,0.3,0.5,0.3,0.8
				c0.1,0.5,0.2,1,0.3,1.5c0.1,0.3,0,0.7-0.1,1c0,0.4-0.1,0.8-0.1,1.2c0,0.4-0.1,0.7-0.1,1s0,0.6,0,0.9c0,0.4,0,0.8,0.1,1.2
				c0,0.2,0,0.4,0.1,0.6c0,0.1,0,0.3,0,0.4c0,0.1,0,0.2,0,0.4s0,0.2-0.1,0.3c-0.2,0.2-0.5,0.3-0.7,0.5c-0.1,0.1-0.2,0.1-0.4,0.2
				c-0.1,0-0.1,0-0.1,0c-0.1,0-0.2,0.1-0.3,0.2c-0.2,0.1-0.5,0-0.7,0c-0.3-0.1-0.6-0.2-0.9-0.3c-0.1-0.1-0.2-0.2-0.3-0.2
				c-0.1-0.1-0.1-0.1-0.2-0.2c0,0-0.1,0-0.2-0.1c-0.2-0.1-0.5-0.3-0.5-0.6c0-1,0-1.9,0.2-2.9c0.1-0.7,0.1-1.4,0.3-2.1
				c0.1-0.5,0.3-1,0.3-1.5c0-0.4,0.1-0.8,0.1-1.2c0-0.4,0-0.9-0.1-1.3c0-0.2,0-0.4-0.1-0.5c0-0.2-0.1-0.4-0.1-0.7
				c-0.1-0.3-0.2-0.7-0.3-1c-0.2-0.4-0.4-0.9-0.5-1.3c-0.2-0.5-0.3-0.9-0.4-1.4c0-0.2-0.1-0.4-0.2-0.6c-0.1-0.3-0.1-0.7-0.1-1
				c-0.1-1-0.4-2.1-0.4-3.1c-0.1-1.1-0.1-2.3,0-3.4c0.1-0.8,0.2-1.6,0.3-2.3c0.1-0.5,0.1-1,0.1-1.6c0-0.4-0.1-0.8-0.1-1.3
				c0-0.4,0-0.8-0.1-1.2c0-0.4-0.1-0.8-0.1-1.2c0-0.3-0.1-0.5-0.2-0.8c0-0.2-0.1-0.4-0.1-0.6c0-0.1,0-0.1-0.1-0.2c0-0.1,0-0.2,0-0.3
				c0,0,0,0-0.1,0l-1,0.1v-2.9L78.7,96.4L78.7,96.4z"/>
			<g>
				<path class="st5" d="M56.3,62.3c0.1-0.2,0.3-0.5,0.1-0.8c0-0.1-0.1-0.1-0.1-0.2c0-0.2,0.4,0.1,0.4,0.1c0.2,0.1,0.4-0.1,0.5-0.1
					h0.1c0.1,0,0.1-0.1,0.1-0.1c0.1-0.1,0.2-0.1,0.4-0.2c0.3-0.2,0.5-0.4,0.7-0.6c0.1-0.1,0.1-0.2,0.1-0.3s-0.1-0.2-0.2-0.2
					c-0.2-0.2-0.1-0.4-0.1-0.6c0-0.1,0-0.2,0-0.3s-0.1-0.2-0.1-0.3s0-0.2,0-0.3s-0.1-0.2-0.2-0.2c-0.1-0.1-0.1-0.1-0.2-0.1
					c-0.1-0.1-0.1-0.2,0-0.3c0-0.1,0-0.3,0-0.4c0-0.1,0-0.2-0.1-0.3c-0.2-0.3-0.4-0.4-0.5-0.8c0-0.1,0-0.2,0-0.2
					c0-0.1,0.1-0.2,0.1-0.3s-0.1-0.3-0.1-0.4c-0.1-0.2-0.1-0.4-0.2-0.5c-0.1-0.2-0.3-0.3-0.4-0.5c-0.1-0.1-0.2-0.1-0.2-0.2
					c-0.1-0.1-0.1-0.1-0.2-0.2c-0.1,0-0.1,0-0.2-0.1c-0.1-0.1-0.1-0.1-0.2-0.1c-0.4-0.1-0.8-0.2-1.2-0.3c-0.2,0-0.4,0-0.6,0
					c-0.2-0.1-0.4,0-0.6,0c-0.3,0-0.5,0-0.7,0.1c-1,0.4-1.8,1.3-2.3,2.3c-0.3,0.6-0.6,1.2-0.9,1.8c-0.1,0.1-0.1,0.3-0.2,0.4
					c-0.1,0.1-0.1,0.1-0.2,0.2C49,58.4,49,58.6,49,58.7c0,0.1,0.1,0.2,0.2,0.2c0.1,0.1,0.1,0.3,0.1,0.4c0,0.1,0.1,0.2,0,0.4
					c0,0.1,0,0.3-0.1,0.5c0,0.1-0.1,0.2,0,0.4c0,0.2,0.1,0.3,0.2,0.4c0.2,0.2,0.1,0.5,0.3,0.7s0.6,0.2,0.8,0.5
					c0.2,0.2,0.5,0.4,0.6,0.7c0,0.1,0,0.1,0,0.2c0,0.1,0,0.2,0,0.4c0.1,0.2,0.1,0.5,0.4,0.6c0.2,0.1,0.4,0.1,0.5,0.3
					c0,0.1,0.1,0.2,0.1,0.2v0.1v0.1c0,0,0,0.1,0.1,0.1c0,0.2-0.7,0.1-0.9,0.1c-0.1,0-0.2,0.1-0.3,0.2s-0.1,0.3,0,0.5
					s0.2,0.4,0.3,0.6c0,0.1,0.2,0.4,0.1,0.5c-0.1,0.1-0.4,0.1-0.5,0.1s-0.3,0-0.4,0c-0.2,0-0.5,0.1-0.7,0.1c-0.3,0.1-0.7,0.2-1,0.4
					c-0.2,0.1-0.3,0.2-0.4,0.3c-0.2,0.1-0.4,0.2-0.5,0.4c-0.3,0.2-0.5,0.6-0.7,0.9c-0.2,0.2-0.3,0.5-0.5,0.7
					c-0.2,0.4-0.4,0.8-0.6,1.2c-0.3,0.6-0.5,1.2-0.8,1.9c-0.2,0.5-0.3,1.1-0.5,1.6c-0.2,0.4-0.3,0.9-0.5,1.3
					c-0.1,0.2-0.2,0.3-0.3,0.5c-0.1,0.1-0.2,0.2-0.2,0.3c0.1,0,0.2,0.1,0.3,0.1c0.1,0.1,0.3,0.1,0.4,0.2c0.2,0.1,0.3,0.2,0.5,0.2
					c0.1,0,0.2,0,0.3,0.1c0.1,0,0.2,0.1,0.4,0.1c0.1,0.1,0.1,0.2,0.1,0.4c-0.2,0.7-0.1,1.4-0.1,2.1c0,0.4,0,0.9-0.2,1.3
					c0,0.1-0.1,0.1-0.2,0.2c-0.1,0.1-0.1,0.3-0.2,0.4l-0.4,2c-0.1,0.6-0.2,1.2-0.3,1.8c-0.1,0.6-0.2,1.3-0.2,1.9
					c-0.1,0.6,0,1.2,0,1.8c0,0.3,0,0.6,0,0.9c0,0.2,0.1,0.5,0,0.7c0,0.4,0,0.9-0.2,1.3c-0.1,0.3-0.2,0.6-0.3,0.9
					c-0.1,0.2-0.1,0.5-0.3,0.7c-0.1,0.1-0.1,0.3-0.2,0.4c-0.2,0.4-0.2,0.7,0,1.1c0.1,0.2,0.2,0.4,0.3,0.6c0,0.2,0,0.4,0.1,0.6
					c0.1,0.3,0.4,0.4,0.6,0.5c0.1,0,0.2,0,0.4,0c0.1,0,0.2,0.1,0.4,0.1l0,0l0.2,0.2c0,0.2-0.1,0.4-0.1,0.5c-0.1,0.5-0.1,1-0.2,1.5
					c-0.1,0.7-0.2,1.5-0.4,2.2c-0.3,0.9-0.5,1.8-0.4,2.8s0.2,2,0.3,3c0,0.5,0,0.9,0,1.4c0,0.3,0,0.7,0,1c0,0.7-0.1,1.3-0.1,2
					c0,0.3,0,0.6,0,0.9c0,0.2-0.1,0.4-0.2,0.5c-0.2,0.5-0.3,1-0.4,1.5c0,0.3,0,0.6,0,0.9s0,0.6,0,0.9c0,0.4,0,0.7-0.1,1.1
					s-0.1,0.8-0.1,1.2c0,0.3,0,0.5-0.1,0.8c0,0.2-0.1,0.3-0.2,0.4c-0.1,0.3-0.1,0.7-0.1,1s0.1,0.6,0.1,0.9c0,0.2,0,0.3-0.1,0.4
					c-0.1,0.2-0.1,0.2-0.1,0.4c0,0.2,0,0.3,0,0.5s-0.1,0.4-0.2,0.5c-0.1,0.1-0.2,0.2-0.3,0.3c-0.6,0.4-1.4,0.6-2.1,0.8
					c-0.3,0.1-0.5,0.2-0.8,0.3c-0.3,0.2-0.6,0.4-0.8,0.7c-0.2,0.1-0.5,0.4-0.3,0.6c0.1,0.1,0.2,0.2,0.2,0.2c0.2,0.1,0.3,0.3,0.5,0.4
					c0.3,0.2,0.5,0.2,0.8,0.3c0.6,0.1,1.3,0,1.9-0.2c0.6-0.2,1.2-0.4,1.8-0.5c0.4-0.1,0.8-0.2,1.3-0.2c0.3,0,0.6-0.1,1-0.1
					s0.8-0.1,1.2-0.2c0.2,0,0.3,0,0.4,0.1c0.2,0.1,0.2,0.1,0.4-0.1c0.2-0.3,0.2-0.6,0.3-0.9c0-0.2,0-0.3-0.1-0.4
					c0-0.2-0.2-0.3-0.2-0.5c0.1,0.1,0.2,0.1,0.3,0.1c0.2,0,0.5,0,0.7-0.1c0.2,0,0.2,0,0.2-0.2c0.1-0.2,0-0.3,0-0.5
					c0-0.7,0.2-1.5,0.3-2.2c0-0.4,0.1-0.7,0.1-1c0.1-0.3,0.1-0.7,0.1-1c0.1-0.3,0.2-0.6,0.2-0.9c0.1-0.5,0.2-1,0.1-1.5
					c-0.1-1,0-1.9,0.1-2.9c0.1-1.1,0.4-2.2,0.6-3.2c0.2-1,0.5-1.9,0.8-2.9c0.2-0.6,0.3-1.3,0.4-1.9c0.1-0.4,0.1-0.7,0.1-1.1
					s0.1-0.8,0.2-1.1c0.1-0.5,0.2-1.1,0.4-1.6c0.1-0.5,0.3-0.9,0.5-1.4c0.1-0.4,0.3-0.1,0.3,0.1c0,0.1,0.1,0.3,0.1,0.4
					c0.1,0.3,0.1,0.6,0.1,0.9c0,0.6,0.2,1.2,0.3,1.7c0.1,0.3,0.2,0.6,0.3,0.9s0.1,0.6,0.1,0.9c0.1,0.4,0.1,0.7,0.2,1.1
					c0.1,0.3,0.2,0.5,0.2,0.8c0,0.1,0,0.3,0,0.4c0,0.3-0.1,0.6-0.1,0.9c0,0.5-0.1,1-0.1,1.5s0.1,1,0.1,1.4c0,0.5,0,1-0.1,1.5
					c0,0.4,0,0.7-0.1,1.1c-0.1,0.8-0.1,1.5-0.1,2.3c0,0.3,0,0.7-0.1,1c0,0.2-0.1,0.4-0.2,0.6c-0.2,0.5-0.1,1-0.1,1.4
					c0,0.3-0.1,0.7-0.2,1c0,0.1-0.1,0.2-0.1,0.3c0,0.1,0.1,0.2,0.1,0.2c0.1,0.2,0.2,0.4,0.3,0.6s0.2,0.4,0.4,0.7
					c0,0,0.1,0.1,0.1,0.2c0,0.2-0.2,0.3-0.2,0.5s0.1,0.3,0.2,0.5c0.1,0.1,0.1,0.2,0.2,0.2c0.1,0.1,0.1,0.2,0.1,0.4
					c0.1,0.2,0.1,0.4,0.1,0.6s0.1,0.4,0.1,0.5c0,0.2,0,0.4,0.1,0.6c0.1,0.4,0.6,0.6,1,0.8c0.3,0.1,0.6,0.2,0.9,0.1
					c0.4-0.1,0.8-0.3,1.2-0.4c0.2-0.1,0.6-0.1,0.8-0.3c0.1-0.1,0-0.1,0-0.2s0-0.3-0.1-0.4c0-0.2,0-0.3-0.1-0.5c0-0.1,0-0.2-0.1-0.2
					c0-0.1,0-0.3,0-0.4c0-0.2,0-0.3-0.1-0.5s-0.1-0.5-0.2-0.7c-0.1-0.2-0.3-0.3-0.4-0.4c-0.1-0.1-0.3-0.2-0.5-0.3
					c-0.1-0.1-0.3-0.2-0.2-0.3c0.1,0,0.1,0,0.2,0c0.1,0,0.2-0.1,0.2-0.1c0.2,0,0.4,0,0.6,0c0.1,0,0.2,0,0.3-0.1c0-0.1,0-0.2,0.1-0.3
					c0-0.1,0.1-0.1,0.1-0.2c0.1-0.2,0.1-0.3,0.1-0.5s0.1-0.3,0.1-0.5c0-0.1,0-0.1,0.1-0.2c0-0.1,0-0.1,0-0.2s0.1-0.1,0.1-0.2
					s0-0.2,0-0.3c0.1-0.5,0.1-0.9,0.2-1.4c0.1-0.2,0-0.5,0-0.8c0.1-0.4,0.1-0.8,0.1-1.2c0-0.5,0.2-1.1,0.2-1.6c0-0.2,0.1-0.5,0-0.7
					c0-0.1-0.1-0.2-0.1-0.3c0-0.1,0-0.2-0.1-0.3c-0.1-0.4,0-0.7,0-1.1c0-0.3,0.1-0.6,0.1-0.9c0-0.2,0-0.4,0-0.6c0-0.4,0-0.9,0-1.4
					c0.1-0.6,0.3-1.2,0.3-1.9c0-0.4,0.1-0.8,0.1-1.2c0-0.3,0-0.7,0-1s0-0.6,0-0.9s0.1-0.5,0.1-0.8c0-0.2,0-0.4-0.1-0.6
					c-0.1-0.1-0.1-0.2-0.2-0.3c0-0.1,0.1-0.3,0.1-0.5c0-0.1,0-0.2,0.1-0.3c0.1-0.2,0.1-0.5,0.1-0.7c0-0.3,0.1-0.6,0.1-0.9
					c0.1-0.7,0.3-1.4,0.5-2.2c0-0.2,0-0.4,0.1-0.6c0.1-0.1,0.1-0.3,0.2-0.4c0.1-0.2,0.1-0.5,0.2-0.7c0-0.1,0.1-0.2,0.2-0.3
					c0-0.1,0-0.2,0-0.4c0-0.1,0.1-0.3,0.1-0.4s0-0.2,0-0.3c0-0.2,0-0.3-0.1-0.5c0-0.5-0.1-0.9-0.2-1.4l0.3-0.2
					c0.3-0.3,0.4-0.5,0.1-0.7c-0.1,0-0.2-0.1-0.2-0.2s0-0.1,0.1-0.1c0-0.1,0-0.2,0-0.3c0-0.2,0-0.5,0-0.7c-0.1-0.3-0.1-0.5-0.2-0.8
					c0-0.2,0-0.4-0.1-0.7c-0.1-0.3-0.2-0.5-0.3-0.8c-0.1-0.1-0.1-0.3-0.2-0.4c0-0.1,0-0.2-0.1-0.3c0-0.1-0.1-0.2-0.1-0.4
					c0-0.1,0.1-0.1,0.2-0.2C60.8,87,61,87,61.1,87c0.2-0.1,0.3-0.1,0.4-0.2c0.3-0.1,0.6-0.3,0.8-0.6c0.2-0.2,0.3-0.3,0.6-0.2
					c0.2,0.1,0.3,0.2,0.5,0c0.2-0.1,0.2-0.3,0.3-0.5s0.2-0.5,0.4-0.7c0.2-0.2,0.4-0.3,0.6-0.4s0.5-0.3,0.7-0.4
					c0.1-0.1,0.2-0.1,0.3-0.3c0.1-0.1,0.2-0.2,0.2-0.3c0.1-0.2,0.3-0.4,0.4-0.6c0.3-0.4,0.6-0.8,0.9-1.3s0.7-0.9,1-1.4
					c0.4-0.6,0.7-1.1,1-1.7c0.2-0.3,0.4-0.5,0.6-0.7s0.4-0.3,0.4-0.5s0-0.5-0.1-0.7c-0.1-0.3-0.2-0.5-0.5-0.7
					c-0.2-0.1-0.3-0.2-0.4-0.4c-0.1-0.1-0.3-0.3-0.4-0.4s-0.1-0.2-0.2-0.3c-0.1-0.1-0.2-0.1-0.2-0.2c-0.1-0.1-0.2-0.3-0.3-0.4
					c-0.1-0.1-0.2-0.3-0.4-0.4c-0.1-0.1-0.2-0.2-0.2-0.2c-0.1-0.1-0.1-0.1-0.1-0.2c-0.1-0.1-0.2-0.1-0.1-0.2c0-0.1,0.1-0.1,0.1-0.2
					s-0.2-0.1-0.2-0.2c-0.1-0.1-0.2-0.2-0.3-0.2c-0.1-0.1-0.2-0.1-0.3-0.2c-0.1-0.1-0.2-0.2-0.2-0.2c-0.4-0.3-0.7-0.6-1-0.9
					s-0.5-0.6-0.8-1c-0.1-0.1-0.2-0.2-0.2-0.3c-0.1-0.2-0.3-0.4-0.5-0.6c-0.2-0.2-0.5-0.4-0.8-0.6c-0.3-0.3-0.6-0.6-0.9-0.8
					c-0.2-0.2-0.4-0.4-0.6-0.6c-0.2-0.2-0.5-0.3-0.8-0.5c-0.4-0.2-0.8,0-1.2-0.1c-0.3,0-0.5-0.2-0.8-0.2c-0.2,0-0.4,0-0.6-0.1
					c-0.2,0-0.2-0.1-0.4-0.2s-0.3-0.1-0.5-0.1c-0.1,0-0.2-0.1-0.3-0.1s-0.2,0-0.2,0c-0.1,0-0.2-0.2-0.3-0.3c-0.1-0.1-0.1-0.2,0-0.3
					c0.1-0.2,0.5-0.5,0.2-0.8c-0.1,0-0.2-0.1-0.2-0.1c-0.1,0-0.3,0-0.4,0.1c-0.1,0-0.2,0.1-0.3,0s-0.2-0.3-0.2-0.3
					c-0.1-0.1,0-0.3,0-0.4c0-0.2,0-0.4,0-0.6c0-0.3,0.1-0.5,0-0.8"/>
				<path class="st3" d="M55.5,63l0.9,0.2v-0.1L55.5,63c0.3-0.4,0.5-0.9,0.6-1.3l0.2,0.6l0,0c0,0,0-0.1,0.1-0.1l-0.3-0.7
					c0-0.2,0.1-0.3,0.1-0.3v-0.1l0.1,0.1c0-0.1,0.1,0,0.2,0L56.2,61v-0.2l0.2-0.2c-2.4-2.1-3-1.8-3.8-1.4c-0.7,0.4-1.9,2.1-2,2.2
					L50.2,62h0.1l0.3-0.4c0.1,0.1,0.4,0.1,0.6,0.1l-0.6,0.5l0.1,0.1l0.7-0.5c0.1,0.2,0.3,1.3,0.6,1.7l-0.7,0.2v0.1l0.8-0.2
					c0,0,0,0,0.1,0.1c0.4,0.3,2.7-0.1,3.2-0.5C55.4,63.1,55.4,63.1,55.5,63z"/>
			</g>
		</g>
	</g>
	<g>
		<g class="st6">
			<path class="st7" d="M155.1,65.9h-4.7V58h4.7v1.7h-2.5v1.2h2.4v1.7h-2.4v1.5h2.5V65.9z"/>
			<path class="st7" d="M158.3,66c-0.4,0-0.8-0.1-1.1-0.4c-0.3-0.2-0.6-0.6-0.8-1.1s-0.3-1-0.3-1.7c0-1,0.2-1.8,0.6-2.3
				c0.4-0.6,0.9-0.8,1.6-0.8c0.3,0,0.6,0.1,0.9,0.2c0.3,0.1,0.5,0.4,0.7,0.7l0,0c-0.1-0.5-0.1-1-0.1-1.4v-1.6h2.1V66h-1.6l-0.5-0.8
				h-0.1C159.5,65.7,159,66,158.3,66z M159.1,64.3c0.3,0,0.6-0.1,0.7-0.3c0.1-0.2,0.2-0.5,0.2-1v-0.2c0-0.5-0.1-0.9-0.2-1.1
				c-0.2-0.2-0.4-0.3-0.7-0.3s-0.5,0.1-0.6,0.4c-0.2,0.3-0.2,0.6-0.2,1.1s0.1,0.8,0.2,1.1C158.6,64.2,158.8,64.3,159.1,64.3z"/>
			<path class="st7" d="M167.8,65.9l-0.3-0.8h-0.1c-0.2,0.3-0.4,0.5-0.7,0.6s-0.7,0.2-1.1,0.2c-0.7,0-1.2-0.2-1.6-0.6
				c-0.4-0.4-0.6-0.9-0.6-1.7v-4h2.1v3.3c0,0.4,0.1,0.7,0.2,0.9c0.1,0.2,0.3,0.3,0.6,0.3c0.4,0,0.6-0.1,0.8-0.4
				c0.2-0.3,0.2-0.8,0.2-1.4v-2.7h2.1v6.1h-1.6V65.9z"/>
			<path class="st7" d="M173.6,66c-1,0-1.8-0.3-2.3-0.8s-0.8-1.3-0.8-2.3s0.3-1.8,0.8-2.4c0.6-0.6,1.3-0.8,2.4-0.8
				c0.7,0,1.4,0.2,2,0.5l-0.6,1.6c-0.3-0.1-0.5-0.2-0.7-0.3s-0.4-0.1-0.7-0.1s-0.6,0.1-0.8,0.4c-0.2,0.3-0.3,0.6-0.3,1.1
				c0,1,0.4,1.5,1.1,1.5c0.6,0,1.2-0.2,1.8-0.5v1.7C175,65.8,174.4,66,173.6,66z"/>
			<path class="st7" d="M180.8,65.9l-0.4-0.8l0,0c-0.3,0.4-0.6,0.6-0.9,0.7c-0.3,0.1-0.7,0.2-1.1,0.2c-0.6,0-1-0.2-1.4-0.5
				s-0.5-0.8-0.5-1.5c0-0.7,0.2-1.1,0.7-1.5s1.1-0.5,2-0.5h1v-0.1c0-0.5-0.2-0.8-0.7-0.8c-0.4,0-1,0.2-1.7,0.5l-0.6-1.4
				c0.7-0.4,1.6-0.5,2.7-0.5c0.8,0,1.4,0.2,1.8,0.6c0.4,0.4,0.6,0.9,0.6,1.6v4C182.3,65.9,180.8,65.9,180.8,65.9z M179.2,64.5
				c0.3,0,0.5-0.1,0.7-0.2c0.2-0.2,0.3-0.4,0.3-0.6v-0.5h-0.5c-0.7,0-1,0.3-1,0.8C178.6,64.3,178.8,64.5,179.2,64.5z"/>
			<path class="st7" d="M186.4,66c-1,0-1.8-0.3-2.3-0.8s-0.8-1.3-0.8-2.3s0.3-1.8,0.8-2.4c0.6-0.6,1.3-0.8,2.4-0.8
				c0.7,0,1.4,0.2,2,0.5l-0.6,1.6c-0.3-0.1-0.5-0.2-0.7-0.3s-0.4-0.1-0.7-0.1s-0.6,0.1-0.8,0.4c-0.2,0.3-0.3,0.6-0.3,1.1
				c0,1,0.4,1.5,1.1,1.5c0.6,0,1.2-0.2,1.8-0.5v1.7C187.9,65.8,187.2,66,186.4,66z M187.5,67.2c0,0.4-0.1,0.7-0.4,0.9
				c-0.3,0.2-0.6,0.4-1.1,0.4s-0.9-0.1-1.1-0.2v-1.1c0.3,0.1,0.6,0.1,0.8,0.1s0.3-0.1,0.3-0.3c0-0.1-0.1-0.2-0.2-0.3
				c-0.1-0.1-0.3-0.2-0.6-0.2l0.4-0.7h1.1V66c0.3,0.1,0.6,0.3,0.7,0.5C187.4,66.7,187.5,67,187.5,67.2z"/>
			<path class="st7" d="M193.6,65.9l-0.4-0.8l0,0c-0.3,0.4-0.6,0.6-0.9,0.7c-0.3,0.1-0.7,0.2-1.1,0.2c-0.6,0-1-0.2-1.4-0.5
				s-0.5-0.8-0.5-1.5c0-0.7,0.2-1.1,0.7-1.5s1.1-0.5,2-0.5h1v-0.1c0-0.5-0.2-0.8-0.7-0.8c-0.4,0-1,0.2-1.7,0.5l-0.6-1.4
				c0.7-0.4,1.6-0.5,2.7-0.5c0.8,0,1.4,0.2,1.8,0.6c0.4,0.4,0.6,0.9,0.6,1.6v4C195.1,65.9,193.6,65.9,193.6,65.9z M193.4,59.2
				c-0.2,0-0.3,0-0.5-0.1s-0.3-0.1-0.5-0.2c-0.2-0.1-0.3-0.1-0.5-0.2s-0.3-0.1-0.4-0.1c-0.2,0-0.3,0.2-0.4,0.5h-1
				c0-0.6,0.2-1.1,0.4-1.4s0.5-0.5,1-0.5c0.1,0,0.3,0,0.4,0.1s0.3,0.1,0.5,0.2c0.2,0.1,0.3,0.1,0.5,0.2s0.3,0.1,0.4,0.1
				c0.1,0,0.2,0,0.2-0.1s0.1-0.2,0.1-0.4h1c0,0.6-0.2,1.1-0.4,1.4C194.1,59,193.8,59.2,193.4,59.2z M192,64.5c0.3,0,0.5-0.1,0.7-0.2
				c0.2-0.2,0.3-0.4,0.3-0.6v-0.5h-0.5c-0.7,0-1,0.3-1,0.8C191.4,64.3,191.6,64.5,192,64.5z"/>
			<path class="st7" d="M202.3,62.8c0,1-0.3,1.8-0.8,2.3c-0.5,0.6-1.3,0.8-2.3,0.8c-0.9,0-1.7-0.3-2.2-0.9s-0.8-1.3-0.8-2.3
				s0.3-1.8,0.8-2.3c0.5-0.6,1.3-0.8,2.3-0.8c0.6,0,1.1,0.1,1.6,0.4s0.8,0.6,1.1,1.1S202.3,62.2,202.3,62.8z M198.3,62.8
				c0,0.5,0.1,0.9,0.2,1.2c0.1,0.3,0.4,0.4,0.7,0.4s0.6-0.1,0.7-0.4c0.1-0.3,0.2-0.7,0.2-1.2s-0.1-0.9-0.2-1.2
				c-0.1-0.3-0.4-0.4-0.7-0.4s-0.6,0.1-0.7,0.4C198.4,61.9,198.3,62.3,198.3,62.8z"/>
			<path class="st7" d="M210,66c-0.3,0-0.6-0.1-0.8-0.2s-0.5-0.3-0.7-0.6h-0.1c0.1,0.4,0.1,0.7,0.1,0.8v2.4h-2.1v-8.7h1.7l0.3,0.8
				h0.1c0.4-0.6,0.9-0.9,1.6-0.9c0.7,0,1.2,0.3,1.6,0.8c0.4,0.6,0.6,1.3,0.6,2.3s-0.2,1.8-0.6,2.3S210.7,66,210,66z M209.3,61.3
				c-0.3,0-0.5,0.1-0.6,0.3s-0.2,0.5-0.2,1v0.2c0,0.5,0.1,0.9,0.2,1.1c0.1,0.2,0.4,0.4,0.7,0.4s0.5-0.1,0.6-0.3s0.2-0.6,0.2-1.1
				s-0.1-0.9-0.2-1.1C209.8,61.4,209.6,61.3,209.3,61.3z"/>
			<path class="st7" d="M217.4,65.9l-0.4-0.8l0,0c-0.3,0.4-0.6,0.6-0.9,0.7c-0.3,0.1-0.7,0.2-1.1,0.2c-0.6,0-1-0.2-1.4-0.5
				s-0.5-0.8-0.5-1.5c0-0.7,0.2-1.1,0.7-1.5s1.1-0.5,2-0.5h1v-0.1c0-0.5-0.2-0.8-0.7-0.8c-0.4,0-1,0.2-1.7,0.5l-0.6-1.4
				c0.7-0.4,1.6-0.5,2.7-0.5c0.8,0,1.4,0.2,1.8,0.6c0.4,0.4,0.6,0.9,0.6,1.6v4C218.9,65.9,217.4,65.9,217.4,65.9z M215.9,64.5
				c0.3,0,0.5-0.1,0.7-0.2c0.2-0.2,0.3-0.4,0.3-0.6v-0.5h-0.5c-0.7,0-1,0.3-1,0.8C215.3,64.3,215.5,64.5,215.9,64.5z"/>
			<path class="st7" d="M224,59.7c0.2,0,0.4,0,0.5,0h0.1l-0.2,2c-0.2,0-0.4-0.1-0.7-0.1c-0.5,0-0.8,0.1-1,0.3s-0.3,0.5-0.3,0.9v3
				h-2.1v-6.1h1.6l0.3,1h0.1c0.2-0.3,0.4-0.6,0.7-0.8S223.7,59.7,224,59.7z"/>
			<path class="st7" d="M229.5,65.9l-0.4-0.8l0,0c-0.3,0.4-0.6,0.6-0.9,0.7c-0.3,0.1-0.7,0.2-1.1,0.2c-0.6,0-1-0.2-1.4-0.5
				s-0.5-0.8-0.5-1.5c0-0.7,0.2-1.1,0.7-1.5s1.1-0.5,2-0.5h1v-0.1c0-0.5-0.2-0.8-0.7-0.8c-0.4,0-1,0.2-1.7,0.5l-0.6-1.4
				c0.7-0.4,1.6-0.5,2.7-0.5c0.8,0,1.4,0.2,1.8,0.6c0.4,0.4,0.6,0.9,0.6,1.6v4C231,65.9,229.5,65.9,229.5,65.9z M227.9,64.5
				c0.3,0,0.5-0.1,0.7-0.2c0.2-0.2,0.3-0.4,0.3-0.6v-0.5h-0.5c-0.7,0-1,0.3-1,0.8C227.3,64.3,227.5,64.5,227.9,64.5z"/>
			<path class="st7" d="M241.1,62.8c0,1-0.3,1.8-0.8,2.3c-0.5,0.6-1.3,0.8-2.3,0.8c-0.9,0-1.7-0.3-2.2-0.9s-0.8-1.3-0.8-2.3
				s0.3-1.8,0.8-2.3c0.5-0.6,1.3-0.8,2.3-0.8c0.6,0,1.1,0.1,1.6,0.4s0.8,0.6,1.1,1.1S241.1,62.2,241.1,62.8z M237.1,62.8
				c0,0.5,0.1,0.9,0.2,1.2c0.1,0.3,0.4,0.4,0.7,0.4s0.6-0.1,0.7-0.4c0.1-0.3,0.2-0.7,0.2-1.2s-0.1-0.9-0.2-1.2
				c-0.1-0.3-0.4-0.4-0.7-0.4s-0.6,0.1-0.7,0.4C237.2,61.9,237.1,62.3,237.1,62.8z"/>
		</g>
		<g class="st6">
			<path class="st7" d="M152.2,79.2c-0.4,0-0.8-0.1-1.1-0.4c-0.3-0.2-0.6-0.6-0.8-1.1s-0.3-1-0.3-1.7c0-1,0.2-1.8,0.6-2.3
				c0.4-0.6,0.9-0.8,1.6-0.8c0.3,0,0.6,0.1,0.9,0.2c0.3,0.1,0.5,0.4,0.7,0.7l0,0c-0.1-0.5-0.1-1-0.1-1.4v-1.6h2.1v8.4h-1.6l-0.5-0.8
				h-0.1C153.5,78.9,152.9,79.2,152.2,79.2z M153.1,77.5c0.3,0,0.6-0.1,0.7-0.3c0.1-0.2,0.2-0.5,0.2-1V76c0-0.5-0.1-0.9-0.2-1.1
				c-0.2-0.2-0.4-0.3-0.7-0.3s-0.5,0.1-0.6,0.4c-0.2,0.3-0.2,0.6-0.2,1.1s0.1,0.8,0.2,1.1C152.6,77.4,152.8,77.5,153.1,77.5z"/>
			<path class="st7" d="M160.4,79.2c-1,0-1.8-0.3-2.4-0.8c-0.6-0.5-0.8-1.3-0.8-2.3s0.3-1.8,0.8-2.4s1.3-0.8,2.2-0.8
				s1.6,0.2,2.1,0.7s0.8,1.2,0.8,2.1v0.9h-3.8c0,0.3,0.1,0.6,0.4,0.8c0.2,0.2,0.6,0.3,1,0.3s0.7,0,1-0.1s0.6-0.2,1-0.4v1.5
				c-0.3,0.2-0.7,0.3-1,0.3C161.3,79.1,160.8,79.2,160.4,79.2z M160.2,74.3c-0.2,0-0.5,0.1-0.6,0.2c-0.2,0.2-0.3,0.4-0.3,0.7h1.8
				c0-0.3-0.1-0.5-0.3-0.7S160.5,74.3,160.2,74.3z"/>
			<path class="st7" d="M168.9,77.2c0,0.7-0.2,1.1-0.7,1.5c-0.4,0.3-1.1,0.5-1.9,0.5c-0.5,0-0.8,0-1.2-0.1c-0.3,0-0.7-0.1-1-0.3
				v-1.7c0.3,0.1,0.7,0.3,1.1,0.4c0.4,0.1,0.7,0.1,1,0.1c0.5,0,0.7-0.1,0.7-0.3c0-0.1-0.1-0.2-0.2-0.3s-0.5-0.2-1.1-0.5
				c-0.6-0.2-1-0.5-1.2-0.8s-0.3-0.7-0.3-1.1c0-0.6,0.2-1,0.7-1.3s1.1-0.5,1.9-0.5c0.4,0,0.8,0,1.1,0.1s0.7,0.2,1.1,0.4l-0.6,1.4
				c-0.3-0.1-0.6-0.2-0.9-0.3c-0.3-0.1-0.6-0.1-0.8-0.1c-0.3,0-0.5,0.1-0.5,0.3c0,0.1,0.1,0.2,0.2,0.3c0.1,0.1,0.5,0.2,1,0.4
				c0.4,0.2,0.7,0.3,1,0.5c0.2,0.2,0.4,0.4,0.5,0.6C168.9,76.6,168.9,76.9,168.9,77.2z"/>
			<path class="st7" d="M173,79.2c-1,0-1.8-0.3-2.4-0.8c-0.6-0.5-0.8-1.3-0.8-2.3s0.3-1.8,0.8-2.4s1.3-0.8,2.2-0.8s1.6,0.2,2.1,0.7
				s0.8,1.2,0.8,2.1v0.9H172c0,0.3,0.1,0.6,0.4,0.8c0.2,0.2,0.6,0.3,1,0.3s0.7,0,1-0.1s0.6-0.2,1-0.4v1.5c-0.3,0.2-0.7,0.3-1,0.3
				C174,79.1,173.5,79.2,173,79.2z M172.9,74.3c-0.2,0-0.5,0.1-0.6,0.2c-0.2,0.2-0.3,0.4-0.3,0.7h1.8c0-0.3-0.1-0.5-0.3-0.7
				S173.2,74.3,172.9,74.3z"/>
			<path class="st7" d="M180.8,79.1v-3.3c0-0.4-0.1-0.7-0.2-0.9c-0.1-0.2-0.3-0.3-0.6-0.3c-0.4,0-0.6,0.1-0.8,0.4s-0.2,0.8-0.2,1.5
				v2.7h-2.1V73h1.6l0.3,0.8h0.1c0.2-0.3,0.4-0.5,0.7-0.6s0.7-0.2,1.1-0.2c0.7,0,1.2,0.2,1.6,0.6c0.4,0.4,0.6,0.9,0.6,1.7v4h-2.1
				V79.1z"/>
			<path class="st7" d="M185.9,79.1l-2.3-6.1h2.2l1,3.6c0,0,0,0,0,0.1s0,0.1,0,0.2s0,0.1,0,0.2s0,0.1,0,0.2l0,0c0-0.2,0-0.4,0.1-0.6
				l1.1-3.6h2.2l-2.3,6.1L185.9,79.1L185.9,79.1z"/>
			<path class="st7" d="M196.9,76c0,1-0.3,1.8-0.8,2.3c-0.5,0.6-1.3,0.8-2.3,0.8c-0.9,0-1.7-0.3-2.2-0.9s-0.8-1.3-0.8-2.3
				s0.3-1.8,0.8-2.3c0.5-0.6,1.3-0.8,2.3-0.8c0.6,0,1.1,0.1,1.6,0.4s0.8,0.6,1.1,1.1S196.9,75.4,196.9,76z M192.9,76
				c0,0.5,0.1,0.9,0.2,1.2c0.1,0.3,0.4,0.4,0.7,0.4s0.6-0.1,0.7-0.4c0.1-0.3,0.2-0.7,0.2-1.2s-0.1-0.9-0.2-1.2
				c-0.1-0.3-0.4-0.4-0.7-0.4s-0.6,0.1-0.7,0.4C193,75.1,192.9,75.5,192.9,76z"/>
			<path class="st7" d="M200.2,79.1h-2.1v-8.4h2.1V79.1z"/>
			<path class="st7" d="M203.2,79.1l-2.3-6.1h2.2l1,3.6c0,0,0,0,0,0.1s0,0.1,0,0.2s0,0.1,0,0.2s0,0.1,0,0.2l0,0c0-0.2,0-0.4,0.1-0.6
				l1.1-3.6h2.2l-2.3,6.1L203.2,79.1L203.2,79.1z"/>
			<path class="st7" d="M208.3,71.5c0-0.3,0.1-0.6,0.3-0.7c0.2-0.2,0.5-0.2,0.9-0.2s0.7,0.1,0.9,0.2c0.2,0.2,0.3,0.4,0.3,0.7
				c0,0.6-0.4,0.9-1.1,0.9C208.7,72.4,208.3,72.1,208.3,71.5z M210.5,79.1h-2.1V73h2.1V79.1z"/>
			<path class="st7" d="M219.4,79.1v-3.3c0-0.4-0.1-0.7-0.2-0.9c-0.1-0.2-0.3-0.3-0.5-0.3c-0.3,0-0.6,0.1-0.7,0.4s-0.2,0.7-0.2,1.3
				v2.8h-2.1v-3.3c0-0.4-0.1-0.7-0.2-0.9c-0.1-0.2-0.3-0.3-0.5-0.3c-0.3,0-0.6,0.1-0.7,0.4c-0.2,0.3-0.2,0.8-0.2,1.4v2.7H212V73h1.6
				l0.3,0.8h0.1c0.2-0.3,0.4-0.5,0.7-0.6s0.7-0.2,1-0.2c0.9,0,1.5,0.3,1.9,0.8h0.2c0.2-0.3,0.4-0.4,0.7-0.6c0.3-0.1,0.6-0.2,1-0.2
				c0.7,0,1.3,0.2,1.6,0.6s0.5,0.9,0.5,1.7v4h-2.2V79.1z"/>
			<path class="st7" d="M225.9,79.2c-1,0-1.8-0.3-2.4-0.8c-0.6-0.5-0.8-1.3-0.8-2.3s0.3-1.8,0.8-2.4s1.3-0.8,2.2-0.8
				s1.6,0.2,2.1,0.7s0.8,1.2,0.8,2.1v0.9h-3.8c0,0.3,0.1,0.6,0.4,0.8c0.2,0.2,0.6,0.3,1,0.3s0.7,0,1-0.1s0.6-0.2,1-0.4v1.5
				c-0.3,0.2-0.7,0.3-1,0.3C226.8,79.1,226.4,79.2,225.9,79.2z M225.8,74.3c-0.2,0-0.5,0.1-0.6,0.2c-0.2,0.2-0.3,0.4-0.3,0.7h1.8
				c0-0.3-0.1-0.5-0.3-0.7S226.1,74.3,225.8,74.3z"/>
			<path class="st7" d="M233.6,79.1v-3.3c0-0.4-0.1-0.7-0.2-0.9c-0.1-0.2-0.3-0.3-0.6-0.3c-0.4,0-0.6,0.1-0.8,0.4s-0.2,0.8-0.2,1.5
				v2.7h-2.1V73h1.6l0.3,0.8h0.1c0.2-0.3,0.4-0.5,0.7-0.6s0.7-0.2,1.1-0.2c0.7,0,1.2,0.2,1.6,0.6c0.4,0.4,0.6,0.9,0.6,1.7v4h-2.1
				V79.1z"/>
			<path class="st7" d="M240.2,77.5c0.3,0,0.6-0.1,1-0.2v1.5c-0.3,0.1-0.6,0.2-0.8,0.3c-0.3,0.1-0.6,0.1-0.9,0.1
				c-0.7,0-1.2-0.2-1.5-0.5s-0.5-0.9-0.5-1.6v-2.5h-0.7v-0.9l0.9-0.7l0.5-1.3h1.4V73h1.5v1.6h-1.5V77
				C239.6,77.3,239.8,77.5,240.2,77.5z"/>
			<path class="st7" d="M248.1,76c0,1-0.3,1.8-0.8,2.3c-0.5,0.6-1.3,0.8-2.3,0.8c-0.9,0-1.7-0.3-2.2-0.9s-0.8-1.3-0.8-2.3
				s0.3-1.8,0.8-2.3c0.5-0.6,1.3-0.8,2.3-0.8c0.6,0,1.1,0.1,1.6,0.4s0.8,0.6,1.1,1.1S248.1,75.4,248.1,76z M244.1,76
				c0,0.5,0.1,0.9,0.2,1.2c0.1,0.3,0.4,0.4,0.7,0.4s0.6-0.1,0.7-0.4c0.1-0.3,0.2-0.7,0.2-1.2s-0.1-0.9-0.2-1.2
				c-0.1-0.3-0.4-0.4-0.7-0.4s-0.6,0.1-0.7,0.4C244.2,75.1,244.1,75.5,244.1,76z"/>
		</g>
		<g class="st6">
			<path class="st7" d="M152.2,92.5c-0.4,0-0.8-0.1-1.1-0.4c-0.3-0.2-0.6-0.6-0.8-1.1s-0.3-1-0.3-1.7c0-1,0.2-1.8,0.6-2.3
				c0.4-0.6,0.9-0.8,1.6-0.8c0.3,0,0.6,0.1,0.9,0.2c0.3,0.1,0.5,0.4,0.7,0.7l0,0c-0.1-0.5-0.1-1-0.1-1.4V84h2.1v8.4h-1.6l-0.5-0.8
				h-0.1C153.5,92.2,152.9,92.5,152.2,92.5z M153.1,90.8c0.3,0,0.6-0.1,0.7-0.3c0.1-0.2,0.2-0.5,0.2-1v-0.2c0-0.5-0.1-0.9-0.2-1.1
				c-0.2-0.2-0.4-0.3-0.7-0.3s-0.5,0.1-0.6,0.4c-0.2,0.3-0.2,0.6-0.2,1.1s0.1,0.8,0.2,1.1C152.6,90.7,152.8,90.8,153.1,90.8z"/>
			<path class="st7" d="M163.2,89.3c0,1-0.3,1.8-0.8,2.3c-0.5,0.6-1.3,0.8-2.3,0.8c-0.9,0-1.7-0.3-2.2-0.9s-0.8-1.3-0.8-2.3
				s0.3-1.8,0.8-2.3c0.5-0.6,1.3-0.8,2.3-0.8c0.6,0,1.1,0.1,1.6,0.4s0.8,0.6,1.1,1.1S163.2,88.7,163.2,89.3z M159.3,89.3
				c0,0.5,0.1,0.9,0.2,1.2c0.1,0.3,0.4,0.4,0.7,0.4s0.6-0.1,0.7-0.4c0.1-0.3,0.2-0.7,0.2-1.2s-0.1-0.9-0.2-1.2
				c-0.1-0.3-0.4-0.4-0.7-0.4s-0.6,0.1-0.7,0.4C159.4,88.4,159.3,88.8,159.3,89.3z"/>
			<path class="st7" d="M169.1,90.5c0,0.7-0.2,1.1-0.7,1.5c-0.4,0.3-1.1,0.5-1.9,0.5c-0.5,0-0.8,0-1.2-0.1c-0.3,0-0.7-0.1-1-0.3
				v-1.7c0.3,0.1,0.7,0.3,1.1,0.4c0.4,0.1,0.7,0.1,1,0.1c0.5,0,0.7-0.1,0.7-0.3c0-0.1-0.1-0.2-0.2-0.3s-0.5-0.2-1.1-0.5
				c-0.6-0.2-1-0.5-1.2-0.8s-0.3-0.7-0.3-1.1c0-0.6,0.2-1,0.7-1.3s1.1-0.5,1.9-0.5c0.4,0,0.8,0,1.1,0.1s0.7,0.2,1.1,0.4l-0.6,1.4
				c-0.3-0.1-0.6-0.2-0.9-0.3c-0.3-0.1-0.6-0.1-0.8-0.1c-0.3,0-0.5,0.1-0.5,0.3c0,0.1,0.1,0.2,0.2,0.3c0.1,0.1,0.5,0.2,1,0.4
				c0.4,0.2,0.7,0.3,1,0.5c0.2,0.2,0.4,0.4,0.5,0.6C169.1,89.9,169.1,90.2,169.1,90.5z"/>
			<path class="st7" d="M177.9,90.5c0,0.7-0.2,1.1-0.7,1.5c-0.4,0.3-1.1,0.5-1.9,0.5c-0.5,0-0.8,0-1.2-0.1c-0.3,0-0.7-0.1-1-0.3
				v-1.7c0.3,0.1,0.7,0.3,1.1,0.4c0.4,0.1,0.7,0.1,1,0.1c0.5,0,0.7-0.1,0.7-0.3c0-0.1-0.1-0.2-0.2-0.3s-0.5-0.2-1.1-0.5
				c-0.6-0.2-1-0.5-1.2-0.8s-0.3-0.7-0.3-1.1c0-0.6,0.2-1,0.7-1.3s1.1-0.5,1.9-0.5c0.4,0,0.8,0,1.1,0.1s0.7,0.2,1.1,0.4l-0.6,1.4
				c-0.3-0.1-0.6-0.2-0.9-0.3c-0.3-0.1-0.6-0.1-0.8-0.1c-0.3,0-0.5,0.1-0.5,0.3c0,0.1,0.1,0.2,0.2,0.3c0.1,0.1,0.5,0.2,1,0.4
				c0.4,0.2,0.7,0.3,1,0.5c0.2,0.2,0.4,0.4,0.5,0.6C177.8,89.9,177.9,90.2,177.9,90.5z"/>
			<path class="st7" d="M182,92.5c-1,0-1.8-0.3-2.4-0.8c-0.6-0.5-0.8-1.3-0.8-2.3s0.3-1.8,0.8-2.4s1.3-0.8,2.2-0.8s1.6,0.2,2.1,0.7
				s0.8,1.2,0.8,2.1v0.9h-3.8c0,0.3,0.1,0.6,0.4,0.8c0.2,0.2,0.6,0.3,1,0.3s0.7,0,1-0.1s0.6-0.2,1-0.4V92c-0.3,0.2-0.7,0.3-1,0.3
				C182.9,92.4,182.5,92.5,182,92.5z M181.9,87.6c-0.2,0-0.5,0.1-0.6,0.2c-0.2,0.2-0.3,0.4-0.3,0.7h1.8c0-0.3-0.1-0.5-0.3-0.7
				S182.1,87.6,181.9,87.6z"/>
			<path class="st7" d="M189.6,86.2c0.2,0,0.4,0,0.5,0h0.1l-0.2,2c-0.2,0-0.4-0.1-0.7-0.1c-0.5,0-0.8,0.1-1,0.3
				c-0.2,0.2-0.3,0.5-0.3,0.9v3h-2.1v-6.1h1.6l0.3,1h0.1c0.2-0.3,0.4-0.6,0.7-0.8S189.2,86.2,189.6,86.2z"/>
			<path class="st7" d="M192.6,92.4l-2.3-6.1h2.2l1,3.6c0,0,0,0,0,0.1s0,0.1,0,0.2s0,0.1,0,0.2s0,0.1,0,0.2l0,0c0-0.2,0-0.4,0.1-0.6
				l1.1-3.6h2.2l-2.3,6.1L192.6,92.4L192.6,92.4z"/>
			<path class="st7" d="M197.7,84.8c0-0.3,0.1-0.6,0.3-0.7c0.2-0.2,0.5-0.2,0.9-0.2s0.7,0.1,0.9,0.2c0.2,0.2,0.3,0.4,0.3,0.7
				c0,0.6-0.4,0.9-1.1,0.9C198.1,85.7,197.7,85.4,197.7,84.8z M199.9,92.4h-2.1v-6.1h2.1V92.4z"/>
			<path class="st7" d="M203.3,92.5c-0.4,0-0.8-0.1-1.1-0.4c-0.3-0.2-0.6-0.6-0.8-1.1s-0.3-1-0.3-1.7c0-1,0.2-1.8,0.6-2.3
				c0.4-0.6,0.9-0.8,1.6-0.8c0.3,0,0.6,0.1,0.9,0.2c0.3,0.1,0.5,0.4,0.7,0.7l0,0c-0.1-0.5-0.1-1-0.1-1.4V84h2.1v8.4h-1.6l-0.5-0.8
				h-0.1C204.5,92.2,204,92.5,203.3,92.5z M204.1,90.8c0.3,0,0.6-0.1,0.7-0.3c0.1-0.2,0.2-0.5,0.2-1v-0.2c0-0.5-0.1-0.9-0.2-1.1
				c-0.2-0.2-0.4-0.3-0.7-0.3s-0.5,0.1-0.6,0.4c-0.2,0.3-0.2,0.6-0.2,1.1s0.1,0.8,0.2,1.1C203.6,90.7,203.8,90.8,204.1,90.8z"/>
			<path class="st7" d="M214.3,89.3c0,1-0.3,1.8-0.8,2.3c-0.5,0.6-1.3,0.8-2.3,0.8c-0.9,0-1.7-0.3-2.2-0.9s-0.8-1.3-0.8-2.3
				s0.3-1.8,0.8-2.3c0.5-0.6,1.3-0.8,2.3-0.8c0.6,0,1.1,0.1,1.6,0.4s0.8,0.6,1.1,1.1S214.3,88.7,214.3,89.3z M210.3,89.3
				c0,0.5,0.1,0.9,0.2,1.2c0.1,0.3,0.4,0.4,0.7,0.4s0.6-0.1,0.7-0.4c0.1-0.3,0.2-0.7,0.2-1.2s-0.1-0.9-0.2-1.2
				c-0.1-0.3-0.4-0.4-0.7-0.4s-0.6,0.1-0.7,0.4C210.4,88.4,210.3,88.8,210.3,89.3z"/>
			<path class="st7" d="M219.2,86.2c0.2,0,0.4,0,0.5,0h0.1l-0.2,2c-0.2,0-0.4-0.1-0.7-0.1c-0.5,0-0.8,0.1-1,0.3
				c-0.2,0.2-0.3,0.5-0.3,0.9v3h-2.1v-6.1h1.6l0.3,1h0.1c0.2-0.3,0.4-0.6,0.7-0.8S218.8,86.2,219.2,86.2z"/>
			<path class="st7" d="M223.6,92.5c-1,0-1.8-0.3-2.4-0.8c-0.6-0.5-0.8-1.3-0.8-2.3s0.3-1.8,0.8-2.4s1.3-0.8,2.2-0.8
				s1.6,0.2,2.1,0.7s0.8,1.2,0.8,2.1v0.9h-3.8c0,0.3,0.1,0.6,0.4,0.8c0.2,0.2,0.6,0.3,1,0.3s0.7,0,1-0.1s0.6-0.2,1-0.4V92
				c-0.3,0.2-0.7,0.3-1,0.3C224.5,92.4,224.1,92.5,223.6,92.5z M223.5,87.6c-0.2,0-0.5,0.1-0.6,0.2c-0.2,0.2-0.3,0.4-0.3,0.7h1.8
				c0-0.3-0.1-0.5-0.3-0.7S223.7,87.6,223.5,87.6z"/>
			<path class="st7" d="M232.2,90.5c0,0.7-0.2,1.1-0.7,1.5c-0.4,0.3-1.1,0.5-1.9,0.5c-0.5,0-0.8,0-1.2-0.1c-0.3,0-0.7-0.1-1-0.3
				v-1.7c0.3,0.1,0.7,0.3,1.1,0.4c0.4,0.1,0.7,0.1,1,0.1c0.5,0,0.7-0.1,0.7-0.3c0-0.1-0.1-0.2-0.2-0.3s-0.5-0.2-1.1-0.5
				c-0.6-0.2-1-0.5-1.2-0.8s-0.3-0.7-0.3-1.1c0-0.6,0.2-1,0.7-1.3s1.1-0.5,1.9-0.5c0.4,0,0.8,0,1.1,0.1s0.7,0.2,1.1,0.4l-0.6,1.4
				c-0.3-0.1-0.6-0.2-0.9-0.3c-0.3-0.1-0.6-0.1-0.8-0.1c-0.3,0-0.5,0.1-0.5,0.3c0,0.1,0.1,0.2,0.2,0.3c0.1,0.1,0.5,0.2,1,0.4
				c0.4,0.2,0.7,0.3,1,0.5c0.2,0.2,0.4,0.4,0.5,0.6C232.1,89.9,232.2,90.2,232.2,90.5z"/>
		</g>
		<g class="st6">
			<path class="st7" d="M154,105.7c-0.3,0-0.6-0.1-0.8-0.2s-0.5-0.3-0.7-0.6h-0.1c0.1,0.4,0.1,0.7,0.1,0.8v2.4h-2.1v-8.7h1.7
				l0.3,0.8h0.1c0.4-0.6,0.9-0.9,1.6-0.9c0.7,0,1.2,0.3,1.6,0.8c0.4,0.6,0.6,1.3,0.6,2.3s-0.2,1.8-0.6,2.3S154.7,105.7,154,105.7z
				 M153.3,101c-0.3,0-0.5,0.1-0.6,0.3c-0.1,0.2-0.2,0.5-0.2,1v0.2c0,0.5,0.1,0.9,0.2,1.1c0.1,0.2,0.4,0.4,0.7,0.4s0.5-0.1,0.6-0.3
				s0.2-0.6,0.2-1.1s-0.1-0.9-0.2-1.1C153.8,101.1,153.6,101,153.3,101z"/>
			<path class="st7" d="M161.8,105.6l-0.3-0.8h-0.1c-0.2,0.3-0.4,0.5-0.7,0.6s-0.7,0.2-1.1,0.2c-0.7,0-1.2-0.2-1.6-0.6
				c-0.4-0.4-0.6-0.9-0.6-1.7v-4h2.1v3.3c0,0.4,0.1,0.7,0.2,0.9c0.1,0.2,0.3,0.3,0.6,0.3c0.4,0,0.6-0.1,0.8-0.4s0.2-0.8,0.2-1.4
				v-2.7h2.1v6.1h-1.6V105.6z M159.2,98.9v-0.2c0.6-0.6,0.9-1,1.1-1.1c0.1-0.2,0.3-0.3,0.4-0.5h2.3v0.1c-0.3,0.2-0.7,0.5-1.2,0.9
				s-0.9,0.6-1.1,0.8C160.7,98.9,159.2,98.9,159.2,98.9z"/>
			<path class="st7" d="M168.5,99.4c0.7,0,1.2,0.3,1.6,0.8c0.4,0.6,0.6,1.3,0.6,2.3s-0.2,1.8-0.6,2.3c-0.4,0.6-0.9,0.8-1.6,0.8
				c-0.2,0-0.4,0-0.6-0.1c-0.2,0-0.3-0.1-0.5-0.2s-0.3-0.2-0.5-0.4h-0.1l-0.3,0.6h-1.6v-8.4h2.1V99c0,0.2,0,0.6-0.1,1.2h0.1
				c0.2-0.3,0.4-0.5,0.7-0.7C167.9,99.4,168.2,99.4,168.5,99.4z M167.8,101c-0.3,0-0.5,0.1-0.6,0.3c-0.1,0.2-0.2,0.5-0.2,1v0.3
				c0,0.5,0.1,0.9,0.2,1.1c0.1,0.2,0.4,0.3,0.7,0.3c0.2,0,0.4-0.1,0.6-0.4s0.2-0.6,0.2-1.1C168.5,101.5,168.3,101,167.8,101z"/>
			<path class="st7" d="M174,105.6h-2.1v-8.4h2.1V105.6z"/>
			<path class="st7" d="M175.4,98c0-0.3,0.1-0.6,0.3-0.7c0.2-0.2,0.5-0.2,0.9-0.2s0.7,0.1,0.9,0.2c0.2,0.2,0.3,0.4,0.3,0.7
				c0,0.6-0.4,0.9-1.1,0.9C175.8,98.9,175.4,98.6,175.4,98z M177.6,105.6h-2.1v-6.1h2.1V105.6z"/>
			<path class="st7" d="M181.8,105.7c-1,0-1.8-0.3-2.3-0.8s-0.8-1.3-0.8-2.3s0.3-1.8,0.8-2.4c0.6-0.6,1.3-0.8,2.4-0.8
				c0.7,0,1.4,0.2,2,0.5l-0.6,1.6c-0.3-0.1-0.5-0.2-0.7-0.3s-0.4-0.1-0.7-0.1s-0.6,0.1-0.8,0.4s-0.3,0.6-0.3,1.1
				c0,1,0.4,1.5,1.1,1.5c0.6,0,1.2-0.2,1.8-0.5v1.7C183.2,105.5,182.6,105.7,181.8,105.7z"/>
			<path class="st7" d="M190.8,102.5c0,1-0.3,1.8-0.8,2.3c-0.5,0.6-1.3,0.8-2.3,0.8c-0.9,0-1.7-0.3-2.2-0.9s-0.8-1.3-0.8-2.3
				s0.3-1.8,0.8-2.3c0.5-0.6,1.3-0.8,2.3-0.8c0.6,0,1.1,0.1,1.6,0.4s0.8,0.6,1.1,1.1S190.8,101.9,190.8,102.5z M186.9,102.5
				c0,0.5,0.1,0.9,0.2,1.2c0.1,0.3,0.4,0.4,0.7,0.4s0.6-0.1,0.7-0.4c0.1-0.3,0.2-0.7,0.2-1.2s-0.1-0.9-0.2-1.2
				c-0.1-0.3-0.4-0.4-0.7-0.4s-0.6,0.1-0.7,0.4C186.9,101.6,186.9,102,186.9,102.5z"/>
			<path class="st7" d="M196.7,103.7c0,0.7-0.2,1.1-0.7,1.5c-0.4,0.3-1.1,0.5-1.9,0.5c-0.5,0-0.8,0-1.2-0.1c-0.3,0-0.7-0.1-1-0.3
				v-1.7c0.3,0.1,0.7,0.3,1.1,0.4c0.4,0.1,0.7,0.1,1,0.1c0.5,0,0.7-0.1,0.7-0.3c0-0.1-0.1-0.2-0.2-0.3s-0.5-0.2-1.1-0.5
				c-0.6-0.2-1-0.5-1.2-0.8s-0.3-0.7-0.3-1.1c0-0.6,0.2-1,0.7-1.3s1.1-0.5,1.9-0.5c0.4,0,0.8,0,1.1,0.1s0.7,0.2,1.1,0.4l-0.6,1.4
				c-0.3-0.1-0.6-0.2-0.9-0.3c-0.3-0.1-0.6-0.1-0.8-0.1c-0.3,0-0.5,0.1-0.5,0.3c0,0.1,0.1,0.2,0.2,0.3c0.1,0.1,0.5,0.2,1,0.4
				c0.4,0.2,0.7,0.3,1,0.5c0.2,0.2,0.4,0.4,0.5,0.6C196.7,103.1,196.7,103.4,196.7,103.7z"/>
			<path class="st7" d="M204.5,101h-1.3v4.5h-2.1V101h-0.8v-1l0.9-0.5v-0.1c0-0.8,0.2-1.4,0.5-1.7s0.9-0.5,1.6-0.5
				c0.3,0,0.5,0,0.8,0.1s0.5,0.1,0.9,0.2l-0.5,1.4c-0.3-0.1-0.5-0.1-0.8-0.1c-0.2,0-0.3,0-0.4,0.1s-0.1,0.3-0.1,0.5v0.2h1.3
				L204.5,101L204.5,101z"/>
			<path class="st7" d="M208.2,105.7c-1,0-1.8-0.3-2.4-0.8c-0.6-0.5-0.8-1.3-0.8-2.3s0.3-1.8,0.8-2.4s1.3-0.8,2.2-0.8
				s1.6,0.2,2.1,0.7s0.8,1.2,0.8,2.1v0.9h-3.8c0,0.3,0.1,0.6,0.4,0.8c0.2,0.2,0.6,0.3,1,0.3s0.7,0,1-0.1s0.6-0.2,1-0.4v1.5
				c-0.3,0.2-0.7,0.3-1,0.3C209.2,105.6,208.7,105.7,208.2,105.7z M208.1,100.8c-0.2,0-0.5,0.1-0.6,0.2c-0.2,0.2-0.3,0.4-0.3,0.7
				h1.8c0-0.3-0.1-0.5-0.3-0.7S208.4,100.8,208.1,100.8z"/>
			<path class="st7" d="M214,105.7c-0.4,0-0.8-0.1-1.1-0.4c-0.3-0.2-0.6-0.6-0.8-1.1s-0.3-1-0.3-1.7c0-1,0.2-1.8,0.6-2.3
				c0.4-0.6,0.9-0.8,1.6-0.8c0.3,0,0.6,0.1,0.9,0.2c0.3,0.1,0.5,0.4,0.7,0.7l0,0c-0.1-0.5-0.1-1-0.1-1.4v-1.6h2.1v8.4H216l-0.5-0.8
				h-0.1C215.3,105.4,214.7,105.7,214,105.7z M214.9,104c0.3,0,0.6-0.1,0.7-0.3c0.1-0.2,0.2-0.5,0.2-1v-0.2c0-0.5-0.1-0.9-0.2-1.1
				c-0.2-0.2-0.4-0.3-0.7-0.3s-0.5,0.1-0.6,0.4c-0.2,0.3-0.2,0.6-0.2,1.1s0.1,0.8,0.2,1.1C214.4,103.9,214.6,104,214.9,104z"/>
			<path class="st7" d="M222.2,105.7c-1,0-1.8-0.3-2.4-0.8c-0.6-0.5-0.8-1.3-0.8-2.3s0.3-1.8,0.8-2.4s1.3-0.8,2.2-0.8
				s1.6,0.2,2.1,0.7s0.8,1.2,0.8,2.1v0.9h-3.8c0,0.3,0.1,0.6,0.4,0.8c0.2,0.2,0.6,0.3,1,0.3s0.7,0,1-0.1s0.6-0.2,1-0.4v1.5
				c-0.3,0.2-0.7,0.3-1,0.3C223.1,105.6,222.6,105.7,222.2,105.7z M222,100.8c-0.2,0-0.5,0.1-0.6,0.2c-0.2,0.2-0.3,0.4-0.3,0.7h1.8
				c0-0.3-0.1-0.5-0.3-0.7S222.3,100.8,222,100.8z"/>
			<path class="st7" d="M229.7,99.4c0.2,0,0.4,0,0.5,0h0.1l-0.2,2c-0.2,0-0.4-0.1-0.7-0.1c-0.5,0-0.8,0.1-1,0.3
				c-0.2,0.2-0.3,0.5-0.3,0.9v3H226v-6.1h1.6l0.3,1h0.1c0.2-0.3,0.4-0.6,0.7-0.8S229.4,99.4,229.7,99.4z"/>
			<path class="st7" d="M235.2,105.6l-0.4-0.8l0,0c-0.3,0.4-0.6,0.6-0.9,0.7c-0.3,0.1-0.7,0.2-1.1,0.2c-0.6,0-1-0.2-1.4-0.5
				s-0.5-0.8-0.5-1.5s0.2-1.1,0.7-1.5s1.1-0.5,2-0.5h1v-0.1c0-0.5-0.2-0.8-0.7-0.8c-0.4,0-1,0.2-1.7,0.5l-0.6-1.4
				c0.7-0.4,1.6-0.5,2.7-0.5c0.8,0,1.4,0.2,1.8,0.6c0.4,0.4,0.6,0.9,0.6,1.6v4L235.2,105.6L235.2,105.6z M233.6,104.2
				c0.3,0,0.5-0.1,0.7-0.2c0.2-0.2,0.3-0.4,0.3-0.6v-0.5h-0.5c-0.7,0-1,0.3-1,0.8C233,104,233.2,104.2,233.6,104.2z"/>
			<path class="st7" d="M238,98c0-0.3,0.1-0.6,0.3-0.7c0.2-0.2,0.5-0.2,0.9-0.2s0.7,0.1,0.9,0.2c0.2,0.2,0.3,0.4,0.3,0.7
				c0,0.6-0.4,0.9-1.1,0.9C238.4,98.9,238,98.6,238,98z M240.2,105.6h-2.1v-6.1h2.1V105.6z"/>
			<path class="st7" d="M246.4,103.7c0,0.7-0.2,1.1-0.7,1.5c-0.4,0.3-1.1,0.5-1.9,0.5c-0.5,0-0.8,0-1.2-0.1c-0.3,0-0.7-0.1-1-0.3
				v-1.7c0.3,0.1,0.7,0.3,1.1,0.4c0.4,0.1,0.7,0.1,1,0.1c0.5,0,0.7-0.1,0.7-0.3c0-0.1-0.1-0.2-0.2-0.3s-0.5-0.2-1.1-0.5
				c-0.6-0.2-1-0.5-1.2-0.8s-0.3-0.7-0.3-1.1c0-0.6,0.2-1,0.7-1.3s1.1-0.5,1.9-0.5c0.4,0,0.8,0,1.1,0.1s0.7,0.2,1.1,0.4l-0.6,1.4
				c-0.3-0.1-0.6-0.2-0.9-0.3c-0.3-0.1-0.6-0.1-0.8-0.1c-0.3,0-0.5,0.1-0.5,0.3c0,0.1,0.1,0.2,0.2,0.3c0.1,0.1,0.5,0.2,1,0.4
				c0.4,0.2,0.7,0.3,1,0.5c0.2,0.2,0.4,0.4,0.5,0.6C246.3,103.1,246.4,103.4,246.4,103.7z"/>
			<path class="st7" d="M252.3,105.7c-0.4,0-0.8-0.1-1.1-0.4c-0.3-0.2-0.6-0.6-0.8-1.1s-0.3-1-0.3-1.7c0-1,0.2-1.8,0.6-2.3
				c0.4-0.6,0.9-0.8,1.6-0.8c0.3,0,0.6,0.1,0.9,0.2c0.3,0.1,0.5,0.4,0.7,0.7l0,0c-0.1-0.5-0.1-1-0.1-1.4v-1.6h2.1v8.4h-1.6l-0.5-0.8
				h-0.1C253.5,105.4,253,105.7,252.3,105.7z M253.2,104c0.3,0,0.6-0.1,0.7-0.3c0.1-0.2,0.2-0.5,0.2-1v-0.2c0-0.5-0.1-0.9-0.2-1.1
				c-0.2-0.2-0.4-0.3-0.7-0.3s-0.5,0.1-0.6,0.4c-0.2,0.3-0.2,0.6-0.2,1.1s0.1,0.8,0.2,1.1C252.6,103.9,252.9,104,253.2,104z"/>
			<path class="st7" d="M263.3,102.5c0,1-0.3,1.8-0.8,2.3c-0.5,0.6-1.3,0.8-2.3,0.8c-0.9,0-1.7-0.3-2.2-0.9s-0.8-1.3-0.8-2.3
				s0.3-1.8,0.8-2.3c0.5-0.6,1.3-0.8,2.3-0.8c0.6,0,1.1,0.1,1.6,0.4s0.8,0.6,1.1,1.1S263.3,101.9,263.3,102.5z M259.4,102.5
				c0,0.5,0.1,0.9,0.2,1.2c0.1,0.3,0.4,0.4,0.7,0.4c0.3,0,0.6-0.1,0.7-0.4s0.2-0.7,0.2-1.2s-0.1-0.9-0.2-1.2
				c-0.1-0.3-0.4-0.4-0.7-0.4c-0.3,0-0.6,0.1-0.7,0.4C259.4,101.6,259.4,102,259.4,102.5z"/>
		</g>
		<g class="st6">
			<path class="st7" d="M153.9,118.8l-1.6-5.7l0,0c0.1,1,0.1,1.7,0.1,2.2v3.4h-1.9v-7.9h2.8l1.6,5.6l0,0l1.6-5.6h2.8v7.9h-2v-3.5
				c0-0.2,0-0.4,0-0.6s0-0.8,0.1-1.6l0,0l-1.6,5.7L153.9,118.8L153.9,118.8z"/>
			<path class="st7" d="M160.9,111.2c0-0.3,0.1-0.6,0.3-0.7c0.2-0.2,0.5-0.2,0.9-0.2s0.7,0.1,0.9,0.2c0.2,0.2,0.3,0.4,0.3,0.7
				c0,0.6-0.4,0.9-1.1,0.9C161.3,112.1,160.9,111.8,160.9,111.2z M163.1,118.8H161v-6.1h2.1V118.8z"/>
			<path class="st7" d="M168.4,118.8v-3.3c0-0.4-0.1-0.7-0.2-0.9c-0.1-0.2-0.3-0.3-0.6-0.3c-0.4,0-0.6,0.1-0.8,0.4s-0.2,0.8-0.2,1.5
				v2.7h-2.1v-6.1h1.6l0.3,0.8h0.1c0.2-0.3,0.4-0.5,0.7-0.6s0.7-0.2,1.1-0.2c0.7,0,1.2,0.2,1.6,0.6c0.4,0.4,0.6,0.9,0.6,1.7v4h-2.1
				V118.8z"/>
			<path class="st7" d="M171.9,111.2c0-0.3,0.1-0.6,0.3-0.7c0.2-0.2,0.5-0.2,0.9-0.2s0.7,0.1,0.9,0.2c0.2,0.2,0.3,0.4,0.3,0.7
				c0,0.6-0.4,0.9-1.1,0.9C172.3,112.1,171.9,111.8,171.9,111.2z M174.1,118.8H172v-6.1h2.1V118.8z"/>
			<path class="st7" d="M180.2,116.9c0,0.7-0.2,1.1-0.7,1.5c-0.4,0.3-1.1,0.5-1.9,0.5c-0.5,0-0.8,0-1.2-0.1c-0.3,0-0.7-0.1-1-0.3
				v-1.7c0.3,0.1,0.7,0.3,1.1,0.4c0.4,0.1,0.7,0.1,1,0.1c0.5,0,0.7-0.1,0.7-0.3c0-0.1-0.1-0.2-0.2-0.3s-0.5-0.2-1.1-0.5
				c-0.6-0.2-1-0.5-1.2-0.8s-0.3-0.7-0.3-1.1c0-0.6,0.2-1,0.7-1.3s1.1-0.5,1.9-0.5c0.4,0,0.8,0,1.1,0.1s0.7,0.2,1.1,0.4l-0.6,1.4
				c-0.3-0.1-0.6-0.2-0.9-0.3c-0.3-0.1-0.6-0.1-0.8-0.1c-0.3,0-0.5,0.1-0.5,0.3c0,0.1,0.1,0.2,0.2,0.3c0.1,0.1,0.5,0.2,1,0.4
				c0.4,0.2,0.7,0.3,1,0.5c0.2,0.2,0.4,0.4,0.5,0.6C180.2,116.3,180.2,116.6,180.2,116.9z"/>
			<path class="st7" d="M184.4,117.2c0.3,0,0.6-0.1,1-0.2v1.5c-0.3,0.1-0.6,0.2-0.8,0.3c-0.3,0.1-0.6,0.1-0.9,0.1
				c-0.7,0-1.2-0.2-1.5-0.5s-0.5-0.9-0.5-1.6v-2.5H181v-0.9l0.9-0.7l0.5-1.3h1.4v1.2h1.5v1.6h-1.5v2.4
				C183.8,117,184,117.2,184.4,117.2z"/>
			<path class="st7" d="M189.4,118.9c-1,0-1.8-0.3-2.4-0.8c-0.6-0.5-0.8-1.3-0.8-2.3s0.3-1.8,0.8-2.4s1.3-0.8,2.2-0.8
				s1.6,0.2,2.1,0.7s0.8,1.2,0.8,2.1v0.9h-3.8c0,0.3,0.1,0.6,0.4,0.8c0.2,0.2,0.6,0.3,1,0.3s0.7,0,1-0.1s0.6-0.2,1-0.4v1.5
				c-0.3,0.2-0.7,0.3-1,0.3C190.3,118.8,189.9,118.9,189.4,118.9z M188.3,112.1v-0.2c0.6-0.6,0.9-1,1.1-1.1c0.1-0.2,0.3-0.3,0.4-0.5
				h2.3v0.1c-0.3,0.2-0.7,0.5-1.2,0.9s-0.9,0.6-1.1,0.8C189.8,112.1,188.3,112.1,188.3,112.1z M189.3,114c-0.2,0-0.5,0.1-0.6,0.2
				c-0.2,0.2-0.3,0.4-0.3,0.7h1.8c0-0.3-0.1-0.5-0.3-0.7S189.6,114,189.3,114z"/>
			<path class="st7" d="M197,112.6c0.2,0,0.4,0,0.5,0h0.1l-0.2,2c-0.2,0-0.4-0.1-0.7-0.1c-0.5,0-0.8,0.1-1,0.3
				c-0.2,0.2-0.3,0.5-0.3,0.9v3h-2.1v-6.1h1.6l0.3,1h0.1c0.2-0.3,0.4-0.6,0.7-0.8S196.7,112.6,197,112.6z"/>
			<path class="st7" d="M198.4,111.2c0-0.3,0.1-0.6,0.3-0.7c0.2-0.2,0.5-0.2,0.9-0.2s0.7,0.1,0.9,0.2c0.2,0.2,0.3,0.4,0.3,0.7
				c0,0.6-0.4,0.9-1.1,0.9C198.8,112.1,198.4,111.8,198.4,111.2z M200.6,118.8h-2.1v-6.1h2.1V118.8z"/>
			<path class="st7" d="M207.9,115.7c0,1-0.3,1.8-0.8,2.3c-0.5,0.6-1.3,0.8-2.3,0.8c-0.9,0-1.7-0.3-2.2-0.9s-0.8-1.3-0.8-2.3
				s0.3-1.8,0.8-2.3c0.5-0.6,1.3-0.8,2.3-0.8c0.6,0,1.1,0.1,1.6,0.4s0.8,0.6,1.1,1.1S207.9,115.1,207.9,115.7z M203.9,115.7
				c0,0.5,0.1,0.9,0.2,1.2c0.1,0.3,0.4,0.4,0.7,0.4s0.6-0.1,0.7-0.4c0.1-0.3,0.2-0.7,0.2-1.2s-0.1-0.9-0.2-1.2
				c-0.1-0.3-0.4-0.4-0.7-0.4s-0.6,0.1-0.7,0.4S203.9,115.2,203.9,115.7z"/>
			<path class="st7" d="M213.8,118.9c-0.4,0-0.8-0.1-1.1-0.4c-0.3-0.2-0.6-0.6-0.8-1.1s-0.3-1-0.3-1.7c0-1,0.2-1.8,0.6-2.3
				c0.4-0.6,0.9-0.8,1.6-0.8c0.3,0,0.6,0.1,0.9,0.2c0.3,0.1,0.5,0.4,0.7,0.7l0,0c-0.1-0.5-0.1-1-0.1-1.4v-1.6h2.1v8.4H216l-0.5-0.8
				h-0.1C215.1,118.6,214.6,118.9,213.8,118.9z M214.7,117.2c0.3,0,0.6-0.1,0.7-0.3c0.1-0.2,0.2-0.5,0.2-1v-0.2
				c0-0.5-0.1-0.9-0.2-1.1c-0.2-0.2-0.4-0.3-0.7-0.3s-0.5,0.1-0.6,0.4c-0.2,0.3-0.2,0.6-0.2,1.1s0.1,0.8,0.2,1.1
				C214.2,117.1,214.4,117.2,214.7,117.2z"/>
			<path class="st7" d="M223,118.8l-0.4-0.8l0,0c-0.3,0.4-0.6,0.6-0.9,0.7c-0.3,0.1-0.7,0.2-1.1,0.2c-0.6,0-1-0.2-1.4-0.5
				s-0.5-0.8-0.5-1.5s0.2-1.1,0.7-1.5s1.1-0.5,2-0.5h1v-0.1c0-0.5-0.2-0.8-0.7-0.8c-0.4,0-1,0.2-1.7,0.5l-0.6-1.4
				c0.7-0.4,1.6-0.5,2.7-0.5c0.8,0,1.4,0.2,1.8,0.6c0.4,0.4,0.6,0.9,0.6,1.6v4L223,118.8L223,118.8z M221.5,117.4
				c0.3,0,0.5-0.1,0.7-0.2c0.2-0.2,0.3-0.4,0.3-0.6V116H222c-0.7,0-1,0.3-1,0.8C220.9,117.2,221.1,117.4,221.5,117.4z"/>
			<path class="st7" d="M234,116.4c0,0.5-0.1,0.9-0.4,1.3c-0.2,0.4-0.6,0.7-1.1,0.9c-0.5,0.2-1,0.3-1.6,0.3c-0.5,0-1,0-1.3-0.1
				c-0.4-0.1-0.7-0.2-1.1-0.4v-1.9c0.4,0.2,0.8,0.4,1.3,0.5c0.4,0.1,0.8,0.2,1.2,0.2c0.3,0,0.5-0.1,0.7-0.2c0.1-0.1,0.2-0.3,0.2-0.4
				s0-0.2-0.1-0.3c-0.1-0.1-0.2-0.2-0.3-0.2c-0.1-0.1-0.5-0.3-1-0.5s-0.9-0.5-1.2-0.7s-0.4-0.5-0.6-0.8s-0.2-0.6-0.2-1
				c0-0.7,0.3-1.3,0.8-1.7c0.5-0.4,1.3-0.6,2.2-0.6c0.8,0,1.6,0.2,2.5,0.6l-0.7,1.6c-0.7-0.3-1.4-0.5-1.9-0.5c-0.3,0-0.5,0-0.6,0.1
				s-0.2,0.2-0.2,0.4c0,0.2,0.1,0.3,0.2,0.4s0.6,0.3,1.3,0.7c0.7,0.3,1.1,0.6,1.4,1S234,115.8,234,116.4z"/>
			<path class="st7" d="M239.1,118.8l-0.4-0.8l0,0c-0.3,0.4-0.6,0.6-0.9,0.7c-0.3,0.1-0.7,0.2-1.1,0.2c-0.6,0-1-0.2-1.4-0.5
				s-0.5-0.8-0.5-1.5s0.2-1.1,0.7-1.5s1.1-0.5,2-0.5h1v-0.1c0-0.5-0.2-0.8-0.7-0.8c-0.4,0-1,0.2-1.7,0.5l-0.6-1.4
				c0.7-0.4,1.6-0.5,2.7-0.5c0.8,0,1.4,0.2,1.8,0.6c0.4,0.4,0.6,0.9,0.6,1.6v4L239.1,118.8L239.1,118.8z M237.6,117.4
				c0.3,0,0.5-0.1,0.7-0.2c0.2-0.2,0.3-0.4,0.3-0.6V116h-0.5c-0.7,0-1,0.3-1,0.8C237,117.2,237.2,117.4,237.6,117.4z"/>
			<path class="st7" d="M246.4,118.8l-0.3-0.8H246c-0.2,0.3-0.4,0.5-0.7,0.6s-0.7,0.2-1.1,0.2c-0.7,0-1.2-0.2-1.6-0.6
				c-0.4-0.4-0.6-0.9-0.6-1.7v-4h2.1v3.3c0,0.4,0.1,0.7,0.2,0.9c0.1,0.2,0.3,0.3,0.6,0.3c0.4,0,0.6-0.1,0.8-0.4s0.2-0.8,0.2-1.4
				v-2.7h2.1v6.1h-1.6V118.8z M243.8,112.1v-0.2c0.6-0.6,0.9-1,1.1-1.1c0.1-0.2,0.3-0.3,0.4-0.5h2.3v0.1c-0.3,0.2-0.7,0.5-1.2,0.9
				s-0.9,0.6-1.1,0.8C245.3,112.1,243.8,112.1,243.8,112.1z"/>
			<path class="st7" d="M251.3,118.9c-0.4,0-0.8-0.1-1.1-0.4c-0.3-0.2-0.6-0.6-0.8-1.1s-0.3-1-0.3-1.7c0-1,0.2-1.8,0.6-2.3
				c0.4-0.6,0.9-0.8,1.6-0.8c0.3,0,0.6,0.1,0.9,0.2c0.3,0.1,0.5,0.4,0.7,0.7l0,0c-0.1-0.5-0.1-1-0.1-1.4v-1.6h2.1v8.4h-1.6L253,118
				h-0.1C252.5,118.6,252,118.9,251.3,118.9z M252.1,117.2c0.3,0,0.6-0.1,0.7-0.3c0.1-0.2,0.2-0.5,0.2-1v-0.2c0-0.5-0.1-0.9-0.2-1.1
				c-0.2-0.2-0.4-0.3-0.7-0.3s-0.5,0.1-0.6,0.4c-0.2,0.3-0.2,0.6-0.2,1.1s0.1,0.8,0.2,1.1C251.6,117.1,251.9,117.2,252.1,117.2z"/>
			<path class="st7" d="M259.4,118.9c-1,0-1.8-0.3-2.4-0.8s-0.8-1.3-0.8-2.3s0.3-1.8,0.8-2.4s1.3-0.8,2.2-0.8c0.9,0,1.6,0.2,2.1,0.7
				s0.8,1.2,0.8,2.1v0.9h-3.8c0,0.3,0.1,0.6,0.4,0.8c0.2,0.2,0.6,0.3,1,0.3s0.7,0,1-0.1s0.6-0.2,1-0.4v1.5c-0.3,0.2-0.7,0.3-1,0.3
				C260.3,118.8,259.9,118.9,259.4,118.9z M259.3,114c-0.2,0-0.5,0.1-0.6,0.2c-0.2,0.2-0.3,0.4-0.3,0.7h1.8c0-0.3-0.1-0.5-0.3-0.7
				S259.6,114,259.3,114z"/>
		</g>
	</g>
</g>
</svg>
