<svg version="1.2" xmlns="http://www.w3.org/2000/svg" viewBox="0 0 889 72" width="889" height="72">
	<title>RM_M1A1_Banner01-svg</title>
	<defs>
		<linearGradient id="g1" x1="843.2" y1="-26.6" x2="69.6" y2="94.6" gradientUnits="userSpaceOnUse">
			<stop offset="0" stop-color="#fac496"/>
			<stop offset=".2" stop-color="#f4d7b7"/>
			<stop offset=".6" stop-color="#ecf4e8"/>
			<stop offset=".8" stop-color="#e9fffb"/>
		</linearGradient>
	</defs>
	<style>
		.s0 { fill: url(#g1) } 
		.s1 { fill: #ffffff } 
		.s2 { fill: #46b5c3 } 
		.s3 { fill: #7cb8af } 
		.s4 { fill: #ffac5a } 
		.s5 { fill: #08536a } 
	</style>
	<g id="Camada_2">
		<g id="BG_Cursos_3a">
			<path id="Layer" class="s0" d="m0 0.4h888.6v71.1h-888.6z"/>
			<g id="S_mbolo_8_0_Layer0_0_MEMBER_1_FILL">
				<path id="Layer" class="s1" d="m886 0v0.3q0 0 0 0.1-0.1 0.1-0.1 0.1-0.1 0.1-0.2 0.1 0 0-0.1 0h-15.7q-0.1 0-0.1 0-0.1 0-0.2-0.1 0 0 0-0.1-0.1-0.1-0.1-0.1v-0.3z"/>
				<path id="Layer" fill-rule="evenodd" class="s1" d="m870.5 18.6c-4.4-0.2-10.2-0.7-17.1-1.4q-0.1 0-0.2 0 0 0-0.1-0.1 0 0 0-0.1-0.1-0.1 0-0.1l-0.1-15.7q0-0.1 0.1-0.1 0-0.1 0-0.1 0 0 0-0.1 0 0 0.1 0 0 0 0-0.1 0.1 0 0.1 0 0.1 0 0.1 0 0 0 0.1 0 1.5 0.3 3.9 0.5 0 0 0 0 0 0 0-0.1 0 0 0 0 0 0 0-0.1 0 0 0-0.1 0-0.1 0.1-0.1 0-0.1 0.1-0.1 0.1 0 0.1 0h31v0.7h-22.1l2 0.2q0.1 0 0.1 0 0 0 0.1 0 0 0 0 0.1 0 0 0.1 0l14.3 14.7h5.6v0.7h-5.7q0 0-0.1 0 0 0-0.1 0 0 0 0-0.1 0 0-0.1 0l-14.4-14.7h-0.2l15.3 15.7q0.1 0 0.1 0 0 0.1 0 0.1 0 0.1 0 0.2 0 0 0 0.1 0 0-0.1 0.1 0 0 0 0-0.1 0.1-0.1 0.1-0.1 0-0.1 0h-0.1c-1.7 0-3.4 0-5.1 0-2.5 0-5.1 0-7.6-0.1zm-16.7-2c6.8 0.6 12.4 1.1 16.8 1.3 3.9 0.2 7.9 0.2 11.8 0.1l-14.8-15.1q-0.8 0-1.7 0-0.9-0.1-1.8-0.1-0.8-0.1-1.7-0.2-0.9-0.1-1.8-0.2c-2.9-0.3-5.2-0.6-6.8-0.8z"/>
				<path id="Layer" fill-rule="evenodd" class="s1" d="m884.3 18.9q0 0 0.1 0 0 0.1 0.1 0.1 0 0.1 0 0.1c0.5 6.5 1 11.2 1.5 14.1q0 0 0 0 0 0.1 0 0.1-0.1 0-0.1 0.1 0 0 0 0 0 0.1-0.1 0.1 0 0 0 0-0.1 0.1-0.1 0.1-0.1 0-0.1 0h-15.6q-0.1 0-0.1-0.1-0.1 0-0.2 0 0-0.1 0-0.1-0.1-0.1-0.1-0.1-0.3-1.8-0.5-3.5-0.2-1.8-0.4-3.6-0.2-1.7-0.3-3.5-0.1-1.8-0.1-3.6 0 0 0.1-0.1 0-0.1 0-0.1 0.1-0.1 0.2-0.1 0 0 0.1 0 1.9 0.1 3.9 0.2 1.9 0.1 3.8 0.1 1.9 0 3.9-0.1 1.9 0 3.8-0.2 0.1 0 0.2 0.1zm0.9 13.9c-0.4-2.8-0.9-7.2-1.4-13.2q-1.8 0.1-3.7 0.2-1.8 0-3.7 0-1.8 0-3.7 0-1.8-0.1-3.6-0.3 0 1.7 0.1 3.4 0.1 1.6 0.2 3.3 0.2 1.7 0.4 3.3 0.2 1.7 0.5 3.3z"/>
				<path id="Layer" fill-rule="evenodd" class="s1" d="m886.1 17.3q0.1 0.1 0.1 0.1 0.1 0.1 0.1 0.1 0 0.1 0 0.2v12.1q0 0.1 0 0.1 0 0.1-0.1 0.1 0 0.1-0.1 0.1 0 0.1-0.1 0.1-0.1 0-0.1-0.1-0.1 0-0.1 0-0.1-0.1-0.1-0.1 0-0.1-0.1-0.1-0.1-0.7-0.2-1.3 0-0.6-0.1-1.3-0.1-0.6-0.1-1.3-0.1-0.6-0.1-1.3-0.1-0.7-0.2-1.4 0-0.8-0.1-1.5 0-0.7 0-1.4-0.1-0.8-0.1-1.5l-1-1q0-0.1-0.1-0.2 0-0.1 0.1-0.2 0-0.1 0.1-0.1 0.1-0.1 0.2-0.1h2q0.1 0 0.1 0zm-0.5 0.7h-0.7l0.5 0.6q0 0 0 0 0 0.1 0 0.1 0.1 0 0.1 0.1 0 0 0 0 0 0.6 0 1.1 0 0.5 0 1 0 0.5 0 1 0.1 0.5 0.1 0.9z"/>
			</g>
			<g id="S_mbolo_8_0_Layer0_0_MEMBER_1_FILL-2">
				<path id="Layer" fill-rule="evenodd" class="s1" d="m838 22.1h-5.9q0 0 0 0 0 0-0.1 0 0 0 0-0.1 0 0 0 0-0.1-0.7-0.2-1.3-0.1-0.7-0.1-1.4-0.1-0.6-0.1-1.3-0.1-0.7-0.1-1.3 0 0 0-0.1 0 0 0 0 0 0 0 0 0 0 0 0 0 0 0 0 0 0 0.1 0 0 0 0 0 0 0 0 0 0.7 0 1.5 0.1 0.7 0 1.4 0 0.7 0 1.5 0 0.7-0.1 1.4-0.1 0 0 0.1 0 0 0 0 0 0 0 0.1 0 0 0.1 0 0.1c0.2 2.4 0.4 4.2 0.5 5.3q0 0 0 0 0 0 0 0 0 0 0 0.1 0 0 0 0 0 0 0 0 0 0 0 0-0.1 0-0.1 0 0 0 0 0zm-5.8-0.3h5.6q-0.2-1.6-0.5-5-0.7 0.1-1.4 0.1-0.7 0-1.4 0-0.7 0-1.3 0-0.7 0-1.4-0.1 0 0.7 0 1.3 0 0.6 0.1 1.2 0.1 0.7 0.1 1.3 0.1 0.6 0.2 1.2zm6-1q-0.1 0-0.1 0 0 0 0 0 0 0-0.1 0 0 0 0-0.1-0.1-0.4-0.2-1.9-0.1-1.6-0.1-2.2l-0.4-0.4q0 0 0 0 0 0 0-0.1 0 0 0 0 0 0 0 0 0-0.1 0-0.1 0.1 0 0.1 0 0 0 0 0 0 0 0 0h-0.3q0 0-0.1 0 0 0 0 0 0 0 0 0 0 0 0 0l-5.5-5.6h-0.1l5.8 5.9q0.1 0.1 0.1 0.1 0 0 0 0.1-0.1 0-0.1 0 0 0.1-0.1 0.1c-0.6-0.1-1.3-0.1-1.9-0.1q-1.5 0-2.9 0-2.5-0.2-6.4-0.6-0.1 0-0.1 0 0 0 0 0 0 0-0.1 0 0-0.1 0-0.1v-5.9q0 0 0 0 0-0.1 0-0.1 0 0 0 0 0 0 0 0 0.1 0 0.1 0 0 0 0 0 0 0 0 0 0 0 0.1 0 0.5 0.1 1.4 0.2 0 0 0 0 0 0 0-0.1 0 0 0 0 0 0 0 0 0 0 0 0 0-0.1 0.1-0.1 0 0 0 0 0 0 0.1 0h16.6q0 0 0 0 0 0 0.1 0 0 0 0 0.1 0 0 0 0v5.9q0 0.1 0 0.1 0 0 0 0-0.1 0.1-0.1 0.1 0 0 0 0h-5.9q0 0 0 0 0.1 0 0.1 0 0 0 0 0.1 0 0 0 0v4.6q0 0 0 0 0 0.1 0 0.1 0 0-0.1 0 0 0 0 0zm-0.4-4.5l0.2 0.1q0 0.1 0 0.1 0 0 0 0 0 0 0 0 0 0 0 0-0.1 0.2-0.1 0.4 0 0.2 0.1 0.4 0 0.2 0 0.4 0 0.2 0 0.4v-1.8zm-11.7-0.6c2.5 0.2 4.7 0.4 6.3 0.5 1.6 0.1 3 0.1 4.5 0l-5.6-5.7q-0.3 0-0.7 0-0.3 0-0.6 0-0.4-0.1-0.7-0.1-0.3 0-0.7-0.1c-1.1-0.1-2-0.2-2.5-0.3zm11.1 0h6.9v-5.7h-13.2l0.8 0.1q0 0 0 0 0 0 0 0 0 0 0.1 0 0 0 0 0zm0.9-6h-6q0 0 0 0 0 0-0.1 0 0 0 0-0.1 0 0 0 0v-5.7q0-0.1 0-0.1 0 0 0 0 0.1-0.1 0.1-0.1 0 0 0 0h6q0 0 0 0 0 0 0.1 0.1 0 0 0 0 0 0 0 0.1v5.7q0 0 0 0 0 0.1 0 0.1-0.1 0-0.1 0 0 0 0 0zm-5.8-0.2h5.6v-5.5h-5.6z"/>
			</g>
			<g id="S_mbolo_8_0_Layer0_0_MEMBER_1_FILL-3">
				<path id="Layer" fill-rule="evenodd" class="s1" d="m819.7 33.6h-3.8q-0.1 0-0.1 0 0 0 0 0 0 0 0 0 0-0.1 0-0.1-0.1-0.4-0.1-0.8-0.1-0.5-0.1-0.9-0.1-0.4-0.1-0.9 0-0.4-0.1-0.9 0 0 0 0 0 0 0 0 0 0 0 0 0 0 0 0 0.1 0 0.1 0 0 0 0 0 0 0 0 0 0 0 0 0 0.5 0 1 0 0.4 0 0.9 0 0.5 0 1 0 0.3 0 0.6 0h-1.1v-0.1q-1 0-1.9 0-1.6 0-4.2-0.3 0 0-0.1 0 0 0 0 0 0 0 0-0.1 0 0 0 0v-3.9q0 0 0 0 0 0 0 0 0-0.1 0-0.1 0 0 0 0h0.1q0.3 0.1 1 0.2 0 0 0-0.1 0 0 0 0 0 0 0-0.1 0 0 0 0 0 0 0.1 0h10.9q0 0 0 0 0 0 0 0 0 0.1 0 0.1 0 0 0 0v3.9q0 0 0 0 0 0.1 0 0.1 0 0 0 0 0 0 0 0h-4q0.1 0 0.1 0 0 0 0 0 0 0 0 0 0 0.1 0 0.1v3q0 0 0 0 0 0 0 0 0 0 0 0.1 0 0 0 0h-0.1q0 0 0 0 0 0 0-0.1 0 0 0 0-0.1 0-0.1 0 0-0.2 0-0.3 0-0.2 0-0.3-0.1-0.2-0.1-0.4 0-0.1 0-0.3 0-0.2 0-0.3-0.1-0.2-0.1-0.4 0-0.2 0-0.4 0-0.1 0-0.3l-0.2-0.3q0 0 0 0 0 0 0 0 0 0 0 0 0 0 0-0.1 0 0 0 0 0 0 0 0 0 0 0 0 0.1 0 0.1 0h-0.3q0 0 0 0 0 0 0 0 0 0 0 0 0 0 0 0l-3.6-3.7h-0.1l3.8 3.9q0 0 0 0.1 0 0 0 0 0 0 0 0 0 0 0 0 0 0 0 0.1 0 0 0 0 0 0 0 0 0.1 0 0.1 0 0 0 0.1 0 0 0 0 0 0 0 0 0 0 0 0 0 0.2 2.4 0.4 3.5 0 0 0 0 0 0 0 0 0 0.1 0 0.1 0 0 0 0 0 0 0 0 0 0 0 0 0 0-0.1 0 0 0 0 0zm-3.8-0.2h3.7q-0.1-1-0.3-3.3-0.5 0.1-0.9 0.1-0.5 0-0.9 0-0.5 0-1 0-0.4 0-0.9 0 0 0.4 0.1 0.8 0 0.4 0 0.8 0.1 0.4 0.1 0.8 0.1 0.4 0.1 0.8zm3.7-3.6l0.1 0.1v-0.1zm0.1 0.1v0.1q0 0 0-0.1 0 0 0 0 0 0 0 0 0 0 0 0zm0 0.3q0 0.1 0 0.3 0 0.1 0 0.2 0 0.1 0 0.3v-1q0 0.1 0 0.2zm-7.8-0.8q2.5 0.2 4.1 0.3c1.1 0.1 2 0 3 0l-3.7-3.7q-0.2 0-0.4 0-0.2 0-0.5 0-0.2 0-0.4-0.1-0.2 0-0.4 0-1.1-0.1-1.7-0.2zm7.3 0h4.5v-3.7c0 0-8.2 0-8.1 0zm0.6-4h-3.9q0 0 0 0 0 0 0 0-0.1 0-0.1 0 0 0 0-0.1v-3.7q0 0 0 0 0-0.1 0.1-0.1 0 0 0 0 0 0 0 0h3.9q0 0 0 0 0.1 0 0.1 0 0 0 0 0.1 0 0 0 0v3.7q0 0.1 0 0.1 0 0 0 0 0 0-0.1 0 0 0 0 0zm-3.8-0.1h3.7v-3.6h-3.7z"/>
			</g>
			<g id="S_mbolo_8_0_Layer0_0_MEMBER_1_FILL-4">
				<path id="Layer" fill-rule="evenodd" class="s1" d="m807.8 18h-1.7q-0.1-0.2-0.1-0.4 0-0.2 0-0.4 0-0.1 0-0.3-0.1-0.2-0.1-0.4 0.2 0 0.5 0 0.2 0 0.4 0 0.2 0 0.4 0 0.2 0 0.4 0 0.1 1 0.2 1.5zm-1.7-0.1h1.6c0-0.3-0.1-0.8-0.1-1.4q-0.2 0-0.4 0-0.2 0-0.4 0-0.2 0-0.4 0-0.2 0-0.4 0 0 0.2 0 0.3 0 0.2 0 0.4 0 0.2 0 0.4 0.1 0.1 0.1 0.3zm0.8-1.5h-0.8l-0.6-0.1 1.5 0.1zm-2.7-0.2v-1.7l0.5 0.1h1.2l1.5 1.5h2v0.1h-2l-1.6-1.5 1.7 1.7q-1.1-0.1-2.2-0.1zm1.7-1.7h3.5v1.6h-0.1v-1.6zm-0.6 1.8h0.2l-805.6-16.4c0 0 0 0 805.4 16.4zm2.4-0.1v0.1h-0.1zm0 0.5q0-0.1 0-0.1 0-0.1 0-0.1 0-0.1 0-0.1 0-0.1 0-0.1zm0-0.3l-0.1-0.1h0.1q0 0 0 0.1zm0.1 1.1q0 0 0-0.1-0.1-0.1-0.1-0.1 0-0.1 0-0.2 0 0 0-0.1 0-0.5 0-0.6v-0.1h0.1v1.3zm-3.4-1.5q1.1 0.1 1.8 0.1c0.4 0.1 0.8 0 1.2 0l-1.5-1.6q-0.1 0-0.2 0-0.1 0-0.2 0-0.1 0-0.2 0-0.1 0-0.2 0l-0.7-0.1zm3.4-1.7h-1.7v-1.7h1.7v1.6c0 0 0 0.1 0 0.1zm-1.7-0.1h1.7v-1.6h-1.7z"/>
			</g>
			<g id="S_mbolo_8_0_Layer0_0_MEMBER_1_FILL-5">
				<path id="Layer" fill-rule="evenodd" class="s1" d="m834.1 29.5h-1.6v-0.1zm-1.7-1.7h1.7v1.7q-0.3-0.1-0.6-0.1h-1.1q0 0 0 0zm0 1.6l-832.5-29.4c0 0 0 0 832.5 29.4zm0 3.5h1.6c0-0.3-0.1-0.7-0.1-1.4q-0.2 0-0.4 0-0.2 0-0.4 0-0.2 0-0.4 0-0.2 0-0.4 0 0 0.2 0 0.4 0 0.1 0 0.3 0 0.2 0.1 0.4 0 0.1 0 0.3zm1.7-0.3q0 0 0-0.1 0-0.1 0-0.1 0-0.1-0.1-0.2 0 0 0-0.1 0-0.4 0-0.6l-0.1-0.1h0.2v1.3zm-0.8-1.3h-0.8q-0.7 0-1.9-0.1v-1.8l0.5 0.1h4.7v1.6 0.1h-2l0.1 0.1h-0.6zm0.5-0.2l-1.5-1.6 1.5 1.6zm-3.1-0.1q1.1 0.1 1.8 0.2c0.5 0 0.9 0 1.3 0l-1.6-1.6q-0.1 0-0.2 0-0.1 0-0.2-0.1-0.1 0-0.1 0-0.1 0-0.2 0l-0.8-0.1zm3.4 1.9h-1.6q-0.1-0.2-0.1-0.4 0-0.2 0-0.4 0-0.2-0.1-0.4 0-0.2 0-0.4 0.2 0.1 0.4 0.1 0.3 0 0.5 0 0.2 0 0.4 0 0.2 0 0.4-0.1c0.1 0 0 0 0 0q0.1 1.1 0.1 1.5zm0-1.6q0 0.2 0 0.5v-0.6z"/>
			</g>
			<g id="S_mbolo_8_0_Layer0_0_MEMBER_1_FILL-6">
				<path id="Layer" fill-rule="evenodd" class="s1" d="m857.3 59.5q0.1 0 0.1 0.1 0 0 0.1 0 0 0.1 0 0.1c0.4 5.2 0.8 9 1.2 11.3h-13.5q-0.2-1.4-0.4-2.8-0.1-1.4-0.3-2.8-0.1-1.4-0.2-2.8 0-1.5-0.1-2.9 0 0 0-0.1 0.1 0 0.1 0 0 0 0-0.1 0 0 0 0 0.1 0 0.1 0 0-0.1 0-0.1 0.1 0 0.1 0 0 0 0.1 0 1.5 0.1 3.1 0.2 1.6 0.1 3.2 0.1 1.6 0 3.1-0.1 1.6 0 3.2-0.1 0 0 0.1 0zm0.8 11.5q-0.5-3.5-1.2-10.9-1.5 0.1-3 0.2-1.5 0-3 0-1.5 0-3 0-1.5-0.1-3-0.2 0 1.4 0.1 2.7 0 1.4 0.2 2.8 0.1 1.3 0.3 2.7 0.1 1.3 0.4 2.7z"/>
				<path id="Layer" fill-rule="evenodd" class="s1" d="m831.9 58.1q-0.1 0-0.1-0.1 0 0 0 0-0.1-0.1-0.1-0.1v-12.9q0 0 0-0.1 0 0 0.1 0 0-0.1 0-0.1 0 0 0 0 0.1-0.1 0.1-0.1 0 0 0 0 0.1 0 0.1 0 0 0 0.1 0 1.2 0.2 3.2 0.4 0 0 0 0 0 0 0 0 0-0.1 0-0.1 0 0 0 0 0-0.1 0-0.1 0-0.1 0.1-0.1 0-0.1 0.1-0.1 0 0 0.1 0h36.1q0 0 0.1 0 0 0 0.1 0.1 0 0 0 0.1 0.1 0 0.1 0.1v12.9q0 0-0.1 0.1 0 0 0 0.1-0.1 0-0.1 0-0.1 0-0.1 0.1h-15.4q0-0.1 0-0.1 0 0-0.1 0 0 0 0 0 0 0-0.1 0l-11.8-12.1h-0.2l12.5 12.8q0.1 0.1 0.1 0.1 0 0 0 0.1 0 0 0 0.1 0 0 0 0.1 0 0 0 0-0.1 0.1-0.1 0.1 0 0-0.1 0 0 0-0.1 0-2.1 0.1-4.2 0.1-3.1 0-6.2-0.1c-3.6-0.2-8.3-0.6-14-1.2q-0.1 0-0.1 0zm11-12.8l1.6 0.2q0 0 0 0 0 0 0.1 0 0 0 0 0 0 0 0.1 0l11.7 12h14.9v-12.2zm-10.5 12.2c5.6 0.5 10.2 0.9 13.7 1.1 3.2 0.1 6.5 0.1 9.7 0.1l-12.1-12.4q-0.7 0-1.4 0-0.7-0.1-1.5-0.1-0.7-0.1-1.4-0.1-0.7-0.1-1.4-0.2-3.6-0.4-5.6-0.7z"/>
				<path id="Layer" fill-rule="evenodd" class="s1" d="m845.4 44.5q0 0-0.1 0 0-0.1 0-0.1-0.1-0.1-0.1-0.1v-12.5q0-0.1 0.1-0.1 0-0.1 0-0.1 0.1-0.1 0.1-0.1 0.1 0 0.1 0h12.9q0.1 0 0.1 0 0.1 0 0.1 0.1 0.1 0 0.1 0.1 0 0 0 0.1v12.4q0 0.1 0 0.2 0 0-0.1 0.1 0 0-0.1 0 0 0.1-0.1 0h-12.9q0 0-0.1 0zm0.4-0.5h12.3v-11.9h-12.3z"/>
				<path id="Layer" fill-rule="evenodd" class="s1" d="m857.9 63.1q-0.1-0.6-0.1-1.2-0.1-0.6-0.1-1.2 0-0.6-0.1-1.2l-0.7-0.8q-0.1 0-0.1-0.1 0 0 0 0 0-0.1 0-0.1 0-0.1 0.1-0.1 0-0.1 0-0.1 0 0 0.1 0 0-0.1 0-0.1 0.1 0 0.1 0h1.6q0.1 0 0.1 0 0.1 0.1 0.1 0.1 0.1 0 0.1 0.1 0 0.1 0 0.1v10q0 0 0 0.1 0 0-0.1 0.1 0 0 0 0-0.1 0.1-0.1 0.1-0.1 0-0.1-0.1-0.1 0-0.1 0-0.1 0-0.1-0.1 0 0 0-0.1-0.1-0.5-0.2-1-0.1-0.5-0.1-1.1-0.1-0.5-0.1-1-0.1-0.6-0.1-1.1-0.1-0.6-0.1-1.2zm0-4.3l0.3 0.4q0.1 0.1 0.1 0.1 0 0 0 0 0 0.1 0 0.1 0 0 0 0.1 0 0.4 0 0.8 0 0.4 0.1 0.8 0 0.4 0 0.8 0 0.4 0.1 0.9v-4z"/>
			</g>
			<g id="S_mbolo_8_0_Layer0_0_MEMBER_1_FILL-7">
				<path id="Layer" class="s1" d="m886 0v0.3q0 0 0 0.1-0.1 0.1-0.1 0.1-0.1 0.1-0.2 0.1 0 0-0.1 0h-15.7q-0.1 0-0.1 0-0.1 0-0.2-0.1 0 0 0-0.1-0.1-0.1-0.1-0.1v-0.3z"/>
				<path id="Layer" fill-rule="evenodd" class="s1" d="m870.5 18.6c-4.4-0.2-10.2-0.7-17.1-1.4q-0.1 0-0.2 0 0 0-0.1-0.1 0 0 0-0.1-0.1-0.1 0-0.1l-0.1-15.7q0-0.1 0.1-0.1 0-0.1 0-0.1 0 0 0-0.1 0 0 0.1 0 0 0 0-0.1 0.1 0 0.1 0 0.1 0 0.1 0 0 0 0.1 0 1.5 0.3 3.9 0.5 0 0 0 0 0 0 0-0.1 0 0 0 0 0 0 0-0.1 0 0 0-0.1 0-0.1 0.1-0.1 0-0.1 0.1-0.1 0.1 0 0.1 0h31v0.7h-22.1l2 0.2q0.1 0 0.1 0 0 0 0.1 0 0 0 0 0.1 0 0 0.1 0l14.3 14.7h5.6v0.7h-5.7q0 0-0.1 0 0 0-0.1 0 0 0 0-0.1 0 0-0.1 0l-14.4-14.7h-0.2l15.3 15.7q0.1 0 0.1 0 0 0.1 0 0.1 0 0.1 0 0.2 0 0 0 0.1 0 0-0.1 0.1 0 0 0 0-0.1 0.1-0.1 0.1-0.1 0-0.1 0h-0.1c-1.7 0-3.4 0-5.1 0-2.5 0-5.1 0-7.6-0.1zm-16.7-2c6.8 0.6 12.4 1.1 16.8 1.3 3.9 0.2 7.9 0.2 11.8 0.1l-14.8-15.1q-0.8 0-1.7 0-0.9-0.1-1.8-0.1-0.8-0.1-1.7-0.2-0.9-0.1-1.8-0.2c-2.9-0.3-5.2-0.6-6.8-0.8z"/>
				<path id="Layer" fill-rule="evenodd" class="s1" d="m884.3 18.9q0 0 0.1 0 0 0.1 0.1 0.1 0 0.1 0 0.1c0.5 6.5 1 11.2 1.5 14.1q0 0 0 0 0 0.1 0 0.1-0.1 0-0.1 0.1 0 0 0 0 0 0.1-0.1 0.1 0 0 0 0-0.1 0.1-0.1 0.1-0.1 0-0.1 0h-15.6q-0.1 0-0.1-0.1-0.1 0-0.2 0 0-0.1 0-0.1-0.1-0.1-0.1-0.1-0.3-1.8-0.5-3.5-0.2-1.8-0.4-3.6-0.2-1.7-0.3-3.5-0.1-1.8-0.1-3.6 0 0 0.1-0.1 0-0.1 0-0.1 0.1-0.1 0.2-0.1 0 0 0.1 0 1.9 0.1 3.9 0.2 1.9 0.1 3.8 0.1 1.9 0 3.9-0.1 1.9 0 3.8-0.2 0.1 0 0.2 0.1zm0.9 13.9c-0.4-2.8-0.9-7.2-1.4-13.2q-1.8 0.1-3.7 0.2-1.8 0-3.7 0-1.8 0-3.7 0-1.8-0.1-3.6-0.3 0 1.7 0.1 3.4 0.1 1.6 0.2 3.3 0.2 1.7 0.4 3.3 0.2 1.7 0.5 3.3z"/>
				<path id="Layer" fill-rule="evenodd" class="s1" d="m886.1 17.3q0.1 0.1 0.1 0.1 0.1 0.1 0.1 0.1 0 0.1 0 0.2v12.1q0 0.1 0 0.1 0 0.1-0.1 0.1 0 0.1-0.1 0.1 0 0.1-0.1 0.1-0.1 0-0.1-0.1-0.1 0-0.1 0-0.1-0.1-0.1-0.1 0-0.1-0.1-0.1-0.1-0.7-0.2-1.3 0-0.6-0.1-1.3-0.1-0.6-0.1-1.3-0.1-0.6-0.1-1.3-0.1-0.7-0.2-1.4 0-0.8-0.1-1.5 0-0.7 0-1.4-0.1-0.8-0.1-1.5l-1-1q0-0.1-0.1-0.2 0-0.1 0.1-0.2 0-0.1 0.1-0.1 0.1-0.1 0.2-0.1h2q0.1 0 0.1 0zm-0.5 0.7h-0.7l0.5 0.6q0 0 0 0 0 0.1 0 0.1 0.1 0 0.1 0.1 0 0 0 0 0 0.6 0 1.1 0 0.5 0 1 0 0.5 0 1 0.1 0.5 0.1 0.9z"/>
			</g>
			<g id="S_mbolo_8_0_Layer0_0_MEMBER_1_FILL-8">
				<path id="Layer" fill-rule="evenodd" class="s1" d="m838 22.1h-5.9q0 0 0 0 0 0-0.1 0 0 0 0-0.1 0 0 0 0-0.1-0.7-0.2-1.3-0.1-0.7-0.1-1.4-0.1-0.6-0.1-1.3-0.1-0.7-0.1-1.3 0 0 0-0.1 0 0 0 0 0 0 0 0 0 0 0 0 0 0 0 0 0 0 0.1 0 0 0 0 0 0 0 0 0 0.7 0 1.5 0.1 0.7 0 1.4 0 0.7 0 1.5 0 0.7-0.1 1.4-0.1 0 0 0.1 0 0 0 0 0 0 0 0.1 0 0 0.1 0 0.1c0.2 2.4 0.4 4.2 0.5 5.3q0 0 0 0 0 0 0 0 0 0 0 0.1 0 0 0 0 0 0 0 0 0 0 0 0-0.1 0-0.1 0 0 0 0 0zm-5.8-0.3h5.6q-0.2-1.6-0.5-5-0.7 0.1-1.4 0.1-0.7 0-1.4 0-0.7 0-1.3 0-0.7 0-1.4-0.1 0 0.7 0 1.3 0 0.6 0.1 1.2 0.1 0.7 0.1 1.3 0.1 0.6 0.2 1.2zm6-1q-0.1 0-0.1 0 0 0 0 0 0 0-0.1 0 0 0 0-0.1-0.1-0.4-0.2-1.9-0.1-1.6-0.1-2.2l-0.4-0.4q0 0 0 0 0 0 0-0.1 0 0 0 0 0 0 0 0 0-0.1 0-0.1 0.1 0 0.1 0 0 0 0 0 0 0 0 0h-0.3q0 0-0.1 0 0 0 0 0 0 0 0 0 0 0 0 0l-5.5-5.6h-0.1l5.8 5.9q0.1 0.1 0.1 0.1 0 0 0 0.1-0.1 0-0.1 0 0 0.1-0.1 0.1c-0.6-0.1-1.3-0.1-1.9-0.1q-1.5 0-2.9 0-2.5-0.2-6.4-0.6-0.1 0-0.1 0 0 0 0 0 0 0-0.1 0 0-0.1 0-0.1v-5.9q0 0 0 0 0-0.1 0-0.1 0 0 0 0 0 0 0 0 0.1 0 0.1 0 0 0 0 0 0 0 0 0 0 0 0.1 0 0.5 0.1 1.4 0.2 0 0 0 0 0 0 0-0.1 0 0 0 0 0 0 0 0 0 0 0 0 0-0.1 0.1-0.1 0 0 0 0 0 0 0.1 0h16.6q0 0 0 0 0 0 0.1 0 0 0 0 0.1 0 0 0 0v5.9q0 0.1 0 0.1 0 0 0 0-0.1 0.1-0.1 0.1 0 0 0 0h-5.9q0 0 0 0 0.1 0 0.1 0 0 0 0 0.1 0 0 0 0v4.6q0 0 0 0 0 0.1 0 0.1 0 0-0.1 0 0 0 0 0zm-0.4-4.5l0.2 0.1q0 0.1 0 0.1 0 0 0 0 0 0 0 0 0 0 0 0-0.1 0.2-0.1 0.4 0 0.2 0.1 0.4 0 0.2 0 0.4 0 0.2 0 0.4v-1.8zm-11.7-0.6c2.5 0.2 4.7 0.4 6.3 0.5 1.6 0.1 3 0.1 4.5 0l-5.6-5.7q-0.3 0-0.7 0-0.3 0-0.6 0-0.4-0.1-0.7-0.1-0.3 0-0.7-0.1c-1.1-0.1-2-0.2-2.5-0.3zm11.1 0h6.9v-5.7h-13.2l0.8 0.1q0 0 0 0 0 0 0 0 0 0 0.1 0 0 0 0 0zm0.9-6h-6q0 0 0 0 0 0-0.1 0 0 0 0-0.1 0 0 0 0v-5.7q0-0.1 0-0.1 0 0 0 0 0.1-0.1 0.1-0.1 0 0 0 0h6q0 0 0 0 0 0 0.1 0.1 0 0 0 0 0 0 0 0.1v5.7q0 0 0 0 0 0.1 0 0.1-0.1 0-0.1 0 0 0 0 0zm-5.8-0.2h5.6v-5.5h-5.6z"/>
			</g>
			<g id="S_mbolo_8_0_Layer0_0_MEMBER_1_FILL-9">
				<path id="Layer" fill-rule="evenodd" class="s1" d="m819.7 33.6h-3.8q-0.1 0-0.1 0 0 0 0 0 0 0 0 0 0-0.1 0-0.1-0.1-0.4-0.1-0.8-0.1-0.5-0.1-0.9-0.1-0.4-0.1-0.9 0-0.4-0.1-0.9 0 0 0 0 0 0 0 0 0 0 0 0 0 0 0 0 0.1 0 0.1 0 0 0 0 0 0 0 0 0 0 0 0 0 0.5 0 1 0 0.4 0 0.9 0 0.5 0 1 0 0.3 0 0.6 0h-1.1v-0.1q-1 0-1.9 0-1.6 0-4.2-0.3 0 0-0.1 0 0 0 0 0 0 0 0-0.1 0 0 0 0v-3.9q0 0 0 0 0 0 0 0 0-0.1 0-0.1 0 0 0 0h0.1q0.3 0.1 1 0.2 0 0 0-0.1 0 0 0 0 0 0 0-0.1 0 0 0 0 0 0 0.1 0h10.9q0 0 0 0 0 0 0 0 0 0.1 0 0.1 0 0 0 0v3.9q0 0 0 0 0 0.1 0 0.1 0 0 0 0 0 0 0 0h-4q0.1 0 0.1 0 0 0 0 0 0 0 0 0 0 0.1 0 0.1v3q0 0 0 0 0 0 0 0 0 0 0 0.1 0 0 0 0h-0.1q0 0 0 0 0 0 0-0.1 0 0 0 0-0.1 0-0.1 0 0-0.2 0-0.3 0-0.2 0-0.3-0.1-0.2-0.1-0.4 0-0.1 0-0.3 0-0.2 0-0.3-0.1-0.2-0.1-0.4 0-0.2 0-0.4 0-0.1 0-0.3l-0.2-0.3q0 0 0 0 0 0 0 0 0 0 0 0 0 0 0-0.1 0 0 0 0 0 0 0 0 0 0 0 0 0.1 0 0.1 0h-0.3q0 0 0 0 0 0 0 0 0 0 0 0 0 0 0 0l-3.6-3.7h-0.1l3.8 3.9q0 0 0 0.1 0 0 0 0 0 0 0 0 0 0 0 0 0 0 0 0.1 0 0 0 0 0 0 0 0 0.1 0 0.1 0 0 0 0.1 0 0 0 0 0 0 0 0 0 0 0 0 0 0.2 2.4 0.4 3.5 0 0 0 0 0 0 0 0 0 0.1 0 0.1 0 0 0 0 0 0 0 0 0 0 0 0 0 0-0.1 0 0 0 0 0zm-3.8-0.2h3.7q-0.1-1-0.3-3.3-0.5 0.1-0.9 0.1-0.5 0-0.9 0-0.5 0-1 0-0.4 0-0.9 0 0 0.4 0.1 0.8 0 0.4 0 0.8 0.1 0.4 0.1 0.8 0.1 0.4 0.1 0.8zm3.7-3.6l0.1 0.1v-0.1zm0.1 0.1v0.1q0 0 0-0.1 0 0 0 0 0 0 0 0 0 0 0 0zm0 0.3q0 0.1 0 0.3 0 0.1 0 0.2 0 0.1 0 0.3v-1q0 0.1 0 0.2zm-7.8-0.8q2.5 0.2 4.1 0.3c1.1 0.1 2 0 3 0l-3.7-3.7q-0.2 0-0.4 0-0.2 0-0.5 0-0.2 0-0.4-0.1-0.2 0-0.4 0-1.1-0.1-1.7-0.2zm7.3 0h4.5v-3.7c0 0-8.2 0-8.1 0zm0.6-4h-3.9q0 0 0 0 0 0 0 0-0.1 0-0.1 0 0 0 0-0.1v-3.7q0 0 0 0 0-0.1 0.1-0.1 0 0 0 0 0 0 0 0h3.9q0 0 0 0 0.1 0 0.1 0 0 0 0 0.1 0 0 0 0v3.7q0 0.1 0 0.1 0 0 0 0 0 0-0.1 0 0 0 0 0zm-3.8-0.1h3.7v-3.6h-3.7z"/>
			</g>
			<g id="S_mbolo_8_0_Layer0_0_MEMBER_1_FILL-10">
				<path id="Layer" fill-rule="evenodd" class="s1" d="m807.8 18h-1.7q-0.1-0.2-0.1-0.4 0-0.2 0-0.4 0-0.1 0-0.3-0.1-0.2-0.1-0.4 0.2 0 0.5 0 0.2 0 0.4 0 0.2 0 0.4 0 0.2 0 0.4 0 0.1 1 0.2 1.5zm-1.7-0.1h1.6c0-0.3-0.1-0.8-0.1-1.4q-0.2 0-0.4 0-0.2 0-0.4 0-0.2 0-0.4 0-0.2 0-0.4 0 0 0.2 0 0.3 0 0.2 0 0.4 0 0.2 0 0.4 0.1 0.1 0.1 0.3zm0.8-1.5h-0.8l-0.6-0.1 1.5 0.1zm-2.7-0.2v-1.7l0.5 0.1h1.2l1.5 1.5h2v0.1h-2l-1.6-1.5 1.7 1.7q-1.1-0.1-2.2-0.1zm1.7-1.7h3.5v1.6h-0.1v-1.6zm-0.6 1.8h0.2l-805.6-16.4c0 0 0 0 805.4 16.4zm2.4-0.1v0.1h-0.1zm0 0.5q0-0.1 0-0.1 0-0.1 0-0.1 0-0.1 0-0.1 0-0.1 0-0.1zm0-0.3l-0.1-0.1h0.1q0 0 0 0.1zm0.1 1.1q0 0 0-0.1-0.1-0.1-0.1-0.1 0-0.1 0-0.2 0 0 0-0.1 0-0.5 0-0.6v-0.1h0.1v1.3zm-3.4-1.5q1.1 0.1 1.8 0.1c0.4 0.1 0.8 0 1.2 0l-1.5-1.6q-0.1 0-0.2 0-0.1 0-0.2 0-0.1 0-0.2 0-0.1 0-0.2 0l-0.7-0.1zm3.4-1.7h-1.7v-1.7h1.7v1.6c0 0 0 0.1 0 0.1zm-1.7-0.1h1.7v-1.6h-1.7z"/>
			</g>
			<g id="S_mbolo_8_0_Layer0_0_MEMBER_1_FILL-11">
				<path id="Layer" fill-rule="evenodd" class="s1" d="m834.1 29.5h-1.6v-0.1zm-1.7-1.7h1.7v1.7q-0.3-0.1-0.6-0.1h-1.1q0 0 0 0zm0 1.6l-832.5-29.4c0 0 0 0 832.5 29.4zm0 3.5h1.6c0-0.3-0.1-0.7-0.1-1.4q-0.2 0-0.4 0-0.2 0-0.4 0-0.2 0-0.4 0-0.2 0-0.4 0 0 0.2 0 0.4 0 0.1 0 0.3 0 0.2 0.1 0.4 0 0.1 0 0.3zm1.7-0.3q0 0 0-0.1 0-0.1 0-0.1 0-0.1-0.1-0.2 0 0 0-0.1 0-0.4 0-0.6l-0.1-0.1h0.2v1.3zm-0.8-1.3h-0.8q-0.7 0-1.9-0.1v-1.8l0.5 0.1h4.7v1.6 0.1h-2l0.1 0.1h-0.6zm0.5-0.2l-1.5-1.6 1.5 1.6zm-3.1-0.1q1.1 0.1 1.8 0.2c0.5 0 0.9 0 1.3 0l-1.6-1.6q-0.1 0-0.2 0-0.1 0-0.2-0.1-0.1 0-0.1 0-0.1 0-0.2 0l-0.8-0.1zm3.4 1.9h-1.6q-0.1-0.2-0.1-0.4 0-0.2 0-0.4 0-0.2-0.1-0.4 0-0.2 0-0.4 0.2 0.1 0.4 0.1 0.3 0 0.5 0 0.2 0 0.4 0 0.2 0 0.4-0.1c0.1 0 0 0 0 0q0.1 1.1 0.1 1.5zm0-1.6q0 0.2 0 0.5v-0.6z"/>
			</g>
			<g id="S_mbolo_8_0_Layer0_0_MEMBER_1_FILL-12">
				<path id="Layer" fill-rule="evenodd" class="s1" d="m857.3 59.5q0.1 0 0.1 0.1 0 0 0.1 0 0 0.1 0 0.1c0.4 5.2 0.8 9 1.2 11.3h-13.5q-0.2-1.4-0.4-2.8-0.1-1.4-0.3-2.8-0.1-1.4-0.2-2.8 0-1.5-0.1-2.9 0 0 0-0.1 0.1 0 0.1 0 0 0 0-0.1 0 0 0 0 0.1 0 0.1 0 0-0.1 0-0.1 0.1 0 0.1 0 0 0 0.1 0 1.5 0.1 3.1 0.2 1.6 0.1 3.2 0.1 1.6 0 3.1-0.1 1.6 0 3.2-0.1 0 0 0.1 0zm0.8 11.5q-0.5-3.5-1.2-10.9-1.5 0.1-3 0.2-1.5 0-3 0-1.5 0-3 0-1.5-0.1-3-0.2 0 1.4 0.1 2.7 0 1.4 0.2 2.8 0.1 1.3 0.3 2.7 0.1 1.3 0.4 2.7z"/>
				<path id="Layer" fill-rule="evenodd" class="s1" d="m831.9 58.1q-0.1 0-0.1-0.1 0 0 0 0-0.1-0.1-0.1-0.1v-12.9q0 0 0-0.1 0 0 0.1 0 0-0.1 0-0.1 0 0 0 0 0.1-0.1 0.1-0.1 0 0 0 0 0.1 0 0.1 0 0 0 0.1 0 1.2 0.2 3.2 0.4 0 0 0 0 0 0 0 0 0-0.1 0-0.1 0 0 0 0 0-0.1 0-0.1 0-0.1 0.1-0.1 0-0.1 0.1-0.1 0 0 0.1 0h36.1q0 0 0.1 0 0 0 0.1 0.1 0 0 0 0.1 0.1 0 0.1 0.1v12.9q0 0-0.1 0.1 0 0 0 0.1-0.1 0-0.1 0-0.1 0-0.1 0.1h-15.4q0-0.1 0-0.1 0 0-0.1 0 0 0 0 0 0 0-0.1 0l-11.8-12.1h-0.2l12.5 12.8q0.1 0.1 0.1 0.1 0 0 0 0.1 0 0 0 0.1 0 0 0 0.1 0 0 0 0-0.1 0.1-0.1 0.1 0 0-0.1 0 0 0-0.1 0-2.1 0.1-4.2 0.1-3.1 0-6.2-0.1c-3.6-0.2-8.3-0.6-14-1.2q-0.1 0-0.1 0zm11-12.8l1.6 0.2q0 0 0 0 0 0 0.1 0 0 0 0 0 0 0 0.1 0l11.7 12h14.9v-12.2zm-10.5 12.2c5.6 0.5 10.2 0.9 13.7 1.1 3.2 0.1 6.5 0.1 9.7 0.1l-12.1-12.4q-0.7 0-1.4 0-0.7-0.1-1.5-0.1-0.7-0.1-1.4-0.1-0.7-0.1-1.4-0.2-3.6-0.4-5.6-0.7z"/>
				<path id="Layer" fill-rule="evenodd" class="s1" d="m845.4 44.5q0 0-0.1 0 0-0.1 0-0.1-0.1-0.1-0.1-0.1v-12.5q0-0.1 0.1-0.1 0-0.1 0-0.1 0.1-0.1 0.1-0.1 0.1 0 0.1 0h12.9q0.1 0 0.1 0 0.1 0 0.1 0.1 0.1 0 0.1 0.1 0 0 0 0.1v12.4q0 0.1 0 0.2 0 0-0.1 0.1 0 0-0.1 0 0 0.1-0.1 0h-12.9q0 0-0.1 0zm0.4-0.5h12.3v-11.9h-12.3z"/>
				<path id="Layer" fill-rule="evenodd" class="s1" d="m857.9 63.1q-0.1-0.6-0.1-1.2-0.1-0.6-0.1-1.2 0-0.6-0.1-1.2l-0.7-0.8q-0.1 0-0.1-0.1 0 0 0 0 0-0.1 0-0.1 0-0.1 0.1-0.1 0-0.1 0-0.1 0 0 0.1 0 0-0.1 0-0.1 0.1 0 0.1 0h1.6q0.1 0 0.1 0 0.1 0.1 0.1 0.1 0.1 0 0.1 0.1 0 0.1 0 0.1v10q0 0 0 0.1 0 0-0.1 0.1 0 0 0 0-0.1 0.1-0.1 0.1-0.1 0-0.1-0.1-0.1 0-0.1 0-0.1 0-0.1-0.1 0 0 0-0.1-0.1-0.5-0.2-1-0.1-0.5-0.1-1.1-0.1-0.5-0.1-1-0.1-0.6-0.1-1.1-0.1-0.6-0.1-1.2zm0-4.3l0.3 0.4q0.1 0.1 0.1 0.1 0 0 0 0 0 0.1 0 0.1 0 0 0 0.1 0 0.4 0 0.8 0 0.4 0.1 0.8 0 0.4 0 0.8 0 0.4 0.1 0.9v-4z"/>
			</g>
			<path id="Layer" class="s2" d="m36.5 20.8h13.2v33.9h-13.2z"/>
			<path id="Layer" class="s3" d="m64.4 20.8h13.2v33.9h-13.2z"/>
			<path id="Layer" class="s4" d="m49.7 18.4h14.6v2.4 33.9 2.3h-14.6v-2.3-33.9-2.4z"/>
			<path id="Layer" class="s1" d="m67.8 48.9v-0.2q0-0.2 0-0.3c0-0.2 0-0.2 0-0.3q0-0.1 0-0.2 0 0 0 0 0-0.1 0-0.1 0 0 0-0.1 0 0 0 0 0-0.1 0-0.3 0-0.1 0-0.2 0 0 0 0 0-0.1 0-0.1 0 0 0 0 0-0.1 0-0.1 0-0.2 0-0.5 0-0.1 0-0.1 0-0.1 0-0.2 0-0.1 0-0.1 0-0.1 0-0.2 0 0 0 0 0-0.1 0-0.1 0 0 0-0.1 0.1 0 0.1 0c0-0.1 0-0.2 0-0.2 0.1-0.1 0.1-0.2 0.2-0.3 0-0.1 0.1-0.2 0.1-0.3l0.1-0.1q0 0 0 0 0 0 0-0.1 0 0 0 0 0 0 0 0 0 0 0 0 0 0 0 0 0 0 0 0 0 0 0-0.1 0 0 0 0 0 0 0 0 0 0 0 0 0 0 0-0.1 0 0 0 0 0 0 0 0 0 0 0-0.1 0 0 0 0 0 0 0 0 0 0 0-0.1 0 0 0 0 0 0 0 0v-0.4q0 0 0 0 0 0 0-0.1 0 0 0 0 0 0 0-0.1v-0.2q0 0 0 0 0-0.1 0-0.1 0-0.1 0-0.1 0-0.1 0-0.1v-0.2q0-0.1 0-0.2 0-0.1 0-0.2 0 0 0-0.1 0 0 0 0 0-0.1 0-0.1 0 0 0-0.1 0 0 0 0 0-0.1 0-0.1 0 0 0-0.1 0 0 0 0 0-0.1 0-0.2 0 0 0 0 0-0.1 0-0.1 0 0 0 0 0 0 0-0.1l-0.1-0.5q0-0.2-0.1-0.3c0-0.1 0-0.3 0-0.5q0 0 0-0.1 0 0 0-0.1 0 0 0-0.1 0 0 0-0.1 0-0.1 0-0.2 0 0 0-0.1 0 0 0 0 0-0.1 0-0.1 0 0 0-0.1 0 0 0 0 0-0.1 0-0.1 0 0 0 0 0 0 0-0.1 0 0 0 0 0 0 0-0.1 0 0 0 0 0-0.1 0-0.1 0.1 0 0.1 0 0 0 0-0.1 0 0 0 0 0 0-0.1 0 0.1-0.1 0.1-0.1 0 0 0 0 0-0.1 0-0.1 0 0-0.1 0c0-0.2 0-0.3 0-0.4-0.1-0.2 0-0.1 0-0.2q0 0 0 0 0 0 0 0 0-0.1 0-0.1 0 0 0 0v-0.2q0 0 0 0 0 0 0 0 0 0 0-0.1 0 0 0 0 0-0.1 0-0.1 0-0.1 0-0.1 0 0 0-0.1 0 0 0 0 0-0.2 0-0.4 0 0 0-0.1 0-0.1 0-0.1 0-0.1 0-0.1 0.1-0.1 0.1-0.2 0 0 0 0 0 0 0 0 0-0.1 0-0.1 0 0 0 0v-0.1-0.3q0 0 0 0 0-0.1 0-0.1 0 0 0 0 0 0 0-0.1 0 0 0 0 0 0 0 0 0-0.1 0-0.1 0 0 0 0 0 0 0 0 0 0 0-0.1 0 0 0 0 0 0 0 0 0-0.1 0-0.1 0 0 0 0 0 0 0-0.1 0 0 0 0v-0.2c0-0.1 0-0.2-0.1-0.2l0.1-0.1-0.2-0.1c0 0-0.1 0-0.1 0l-0.2-0.1q0 0 0-0.1 0 0 0 0 0 0 0 0 0-0.1 0-0.1-0.1 0-0.1 0 0-0.1 0-0.1 0 0 0 0 0-0.1 0.1-0.1 0 0 0 0 0-0.1 0-0.1 0 0 0-0.1 0 0 0 0c-0.1 0 0 0 0-0.1 0 0 0 0 0 0 0-0.1 0 0-0.1-0.1h-0.1l-0.1-0.1q-0.1 0-0.1-0.1 0 0 0 0 0 0-0.1 0 0-0.1 0-0.1 0 0 0 0-0.1 0-0.1-0.1 0 0 0 0 0 0 0-0.1 0 0 0 0 0 0 0 0 0 0 0 0 0 0 0 0 0-0.1 0-0.1 0 0 0 0 0 0 0 0 0 0 0 0c0 0 0 0 0-0.1v-0.6q-0.1 0-0.1 0 0-0.1 0-0.1 0 0 0-0.1 0 0 0 0 0-0.1 0-0.2c0 0 0 0 0-0.1q0 0 0 0 0 0 0-0.1 0 0 0 0 0 0 0-0.1 0 0 0 0 0-0.1 0-0.1 0-0.1 0-0.1 0 0 0 0 0 0 0-0.1 0 0 0 0c0 0 0-0.1 0-0.1q0 0 0-0.1 0 0 0 0 0 0 0 0 0-0.1 0-0.1c0 0 0-0.1 0-0.1q0 0 0 0 0-0.1 0-0.1 0 0 0 0 0 0 0 0 0-0.2 0-0.4 0 0 0-0.1 0 0 0-0.1 0-0.1 0-0.1 0-0.1 0-0.2 0-0.1 0-0.3 0 0 0-0.1 0 0 0 0 0-0.1 0-0.1 0 0 0-0.1 0 0 0 0 0-0.1 0-0.1 0 0 0-0.1 0 0 0 0 0-0.1 0-0.2v-0.2c0 0 0 0 0-0.1q0 0 0 0 0 0 0-0.1 0 0 0 0 0 0 0-0.1l0.1-0.1q0 0 0 0 0-0.1 0-0.1 0 0 0 0 0 0 0-0.1 0 0 0-0.1 0-0.1 0-0.1 0 0 0 0 0 0 0 0 0 0 0-0.1 0 0 0 0c0 0 0-0.1 0-0.1q0 0 0-0.1 0 0 0-0.1 0 0 0 0 0 0 0 0 0 0 0 0 0 0 0-0.1 0 0 0.1 0 0 0 0 0 0 0 0-0.1 0 0 0 0 0 0 0 0 0 0 0-0.1 0 0 0.1 0 0 0 0 0l0.1-0.1 0.1-0.1 0.1-0.1 0.2-0.2q0-0.1 0.1-0.1 0 0 0 0 0.1-0.1 0.1-0.1 0 0 0.1 0 0-0.1 0-0.1 0 0 0.1 0 0-0.1 0-0.1 0.1 0 0.1 0l0.2-0.1h0.1 0.1q0.1 0 0.1 0 0.1-0.1 0.1-0.1 0.1 0 0.1 0 0.1 0 0.1 0h0.2l0.2-0.1q0 0 0-0.1 0-0.1 0-0.2 0 0 0 0 0 0 0 0 0 0 0 0 0 0 0 0l0.1-0.1c0.1 0 0.2 0 0.2-0.1 0-0.1 0 0 0.1-0.1h0.1 0.1c0 0 0.1 0 0.1-0.1 0-0.1 0 0 0 0 0 0 0-0.1 0-0.1q0-0.1 0-0.1v-0.1c0 0 0 0 0-0.1q0 0 0 0-0.1 0-0.1 0 0 0 0 0 0 0 0 0l-0.1-0.3q0 0 0 0 0 0 0 0 0 0 0-0.1-0.1 0-0.1 0 0 0 0 0 0 0 0-0.1 0 0 0 0 0 0 0 0 0 0 0 0 0-0.1 0-0.1 0 0 0 0 0 0 0 0v-0.1-0.1q0 0 0 0 0 0 0 0 0 0 0 0 0 0 0 0c0-0.1 0-0.1 0-0.1 0 0-0.2-0.2-0.2-0.3q0 0 0-0.1 0 0 0-0.1 0 0 0-0.1 0 0 0.1 0c0-0.1 0 0 0 0 0 0 0-0.1 0-0.1q0 0-0.1-0.1 0 0 0 0 0 0 0-0.1 0.1 0 0.1 0 0 0 0-0.1 0 0 0 0 0 0 0 0 0 0 0 0 0 0 0 0 0 0 0-0.1 0 0 0 0 0 0 0 0 0 0 0 0 0 0 0-0.1 0 0 0 0 0 0 0 0v-0.1l0.1-0.1q0 0 0 0 0 0 0 0 0 0 0 0 0-0.1 0-0.1 0 0 0 0 0 0 0 0 0 0 0-0.1 0 0 0 0 0 0 0 0 0-0.1 0.1-0.1 0 0 0 0 0-0.1 0-0.1 0 0 0.1 0 0-0.1 0-0.1 0 0 0 0 0.1 0 0.1 0 0 0 0.1 0v-0.1q0 0 0.1-0.1 0 0 0 0 0 0 0.1 0 0 0 0 0 0-0.1 0.1-0.1 0 0 0 0 0 0 0.1 0 0 0 0 0h0.1q0 0 0.1 0 0 0 0 0 0 0 0-0.1 0 0 0 0h0.1q0 0 0.1 0 0 0 0 0 0 0 0 0 0 0 0 0h0.2 0.1c0 0 0 0.1 0 0.1 0.1 0 0.1 0 0.1 0h0.1q0.1-0.1 0.1-0.1 0-0.1 0.1-0.1 0 0 0.1 0 0 0 0.1 0c0 0 0 0 0.1 0q0 0 0 0 0.1 0 0.1 0 0 0 0 0 0.1 0 0.1 0c0 0 0.1 0 0.1 0q0 0 0 0c0 0 0 0 0 0h0.2q0.1 0 0.1 0 0 0 0 0 0 0 0 0 0 0 0 0 0.1 0 0.1 0 0 0 0 0 0 0 0 0 0 0 0 0 0 0 0 0 0 0 0 0 0 0.1 0 0.1 0 0 0 0 0 0 0 0 0 0 0 0 0 0 0 0 0 0.1 0 0.1c0 0 0 0 0.1 0 0 0.1 0 0 0 0.1q0 0 0 0 0 0 0 0 0 0.1 0 0.1 0 0 0 0 0 0 0 0 0 0 0 0 0 0 0 0.1 0 0 0 0 0 0 0 0c0.1 0 0 0 0 0 0 0.1 0 0 0 0.1l0.1 0.2q0 0 0 0.1l0.1 0.3c-73.1-23.2-73.1-23.2-73.1-23.2 73.1 23.2 73.1 23.2 73.1 23.2q0 0 0 0 0 0 0 0 0 0 0 0l-0.1 0.2q0 0 0 0 0 0 0 0 0 0 0 0.1 0 0 0 0 0 0 0 0.1 0 0.1 0 0.1 0 0 0 0 0 0.1 0 0.1 0 0 0 0 0 0 0 0 0 0 0 0 0 0.1 0 0.1 0 0 0 0 0 0 0 0c0 0 0 0.1 0.1 0.1v0.1q0 0 0 0.1c0 0 0.1 0.1 0.1 0.2q0 0 0 0 0 0-0.1 0 0 0 0 0 0 0.1 0 0.1h-0.1-0.1q0 0 0 0.1c0 0 0 0.1 0 0.1 0 0.1 0.1 0.2 0 0.2q0.1 0.1 0.1 0.1 0 0 0 0 0 0 0 0 0 0-0.1 0 0 0 0 0.1v0.1q0 0 0 0 0 0 0 0 0 0 0 0 0 0 0 0.1 0 0 0 0 0 0 0 0 0 0 0 0 0 0 0 0 0 0 0 0 0 0 0 0 0 0 0 0 0 0 0 0.1 0 0 0 0c0 0 0 0 0 0q0.1 0 0.2 0.1 0.1 0.1 0.1 0.2 0 0.1 0 0.2-0.1 0.1-0.2 0.1c-0.1 0-0.1 0-0.1 0.1h-0.1-0.5c0 0 0 0 0.1 0.1 0.1 0 0 0.1 0.1 0.1 0.1 0 0.1 0 0.1 0 0 0 0 0 0 0.1q0 0 0 0 0 0 0 0 0 0 0 0.1 0 0 0 0h0.1q0 0 0 0.1 0.1 0 0.1 0 0 0 0.1 0 0 0 0 0.1h0.1 0.1 0.1 0.2 0.1 0.1l0.1 0.1h0.1 0.1c0 0 0 0 0 0 0.1 0 0.1 0 0.2 0l0.1 0.1 0.1 0.1q0 0 0 0 0 0 0 0 0.1 0 0.1 0 0 0 0 0.1 0 0 0 0 0 0 0 0 0 0.1 0 0.1 0.1 0 0.1 0 0 0 0 0.1 0 0 0 0 0 0 0 0 0 0.1 0 0.1 0 0.1 0 0.2 0 0 0 0.1 0 0 0.1 0 0 0 0 0 0 0.1 0 0.1v0.2 0.1q0 0 0 0.1c0 0 0 0 0 0v0.1q0 0 0 0 0 0 0 0 0 0 0 0.1 0 0 0 0c0 0 0 0 0 0.1v0.1q0 0 0 0 0 0 0 0.1 0 0 0 0 0 0 0 0.1 0 0 0 0 0 0 0 0 0 0.1 0 0.1 0 0 0 0 0 0 0 0 0 0.1 0 0.1 0 0 0 0 0 0 0 0.1 0 0 0.1 0 0 0 0 0 0 0 0 0 0 0 0 0h0.1q0 0 0 0.1 0 0 0.1 0 0 0.1 0 0.1 0 0 0 0.1 0 0 0 0 0 0 0 0.1 0 0 0 0 0 0 0 0v0.1c0 0 0 0.1 0 0.1q0 0 0 0.1 0 0 0 0 0 0 0 0 0 0 0 0.1 0 0 0 0 0 0 0.1 0 0 0 0 0.1 0 0 0 0l0.1 0.2c0 0 0 0.1 0.1 0.2q0 0 0 0 0 0 0 0.1 0 0 0 0 0 0 0 0.1 0 0 0 0 0 0.1 0 0.1l0.1 0.4q0 0.1 0 0.2 0 0.1 0 0.1 0 0.1 0 0.2c0 0.1 0 0.1 0 0.1q0 0 0 0 0 0 0 0 0 0.1 0 0.1 0 0 0 0 0 0 0 0 0 0.1 0 0.1 0 0 0 0 0 0.1 0 0.1 0 0 0 0.1 0 0 0 0 0 0 0 0.1 0 0 0 0c0 0 0 0.1 0 0.2q0 0 0 0 0 0 0 0 0 0 0 0.1 0 0 0 0 0 0 0 0 0 0.1 0 0.1 0 0 0 0 0 0 0 0c0 0.1 0 0.1 0 0.2q0 0 0 0 0 0 0 0 0 0.1 0 0.1 0 0 0 0 0 0 0 0 0 0 0 0 0 0.1 0 0.1 0 0 0 0 0 0 0 0 0 0.1 0 0.1 0 0 0 0.1 0 0 0 0v0.2q0 0-0.1 0.1 0 0 0 0 0 0.1 0 0.1 0 0-0.1 0 0 0.1 0 0.1 0 0 0 0 0 0 0 0 0 0 0 0.1 0 0 0 0.1 0 0 0 0 0 0.1 0 0.1-0.1 0-0.1 0 0 0 0 0l-0.1 0.2q0 0 0 0 0 0 0 0.1 0 0 0 0 0 0-0.1 0.1c0 0 0 0 0 0q0 0 0 0 0 0.1 0 0.1 0 0 0 0 0 0 0 0c0 0 0 0 0 0.1 0 0.1 0 0.1 0 0.1-0.1 0-0.2 0.1-0.3 0.2 0 0.1-0.1 0.2 0 0.2v0.1q0 0 0 0 0 0 0 0 0 0.1 0 0.1 0 0 0 0 0 0 0 0 0 0 0 0 0 0.1 0 0.1 0 0 0 0v0.1c0 0 0 0 0 0q0 0.1 0 0.1 0 0 0 0 0 0 0 0.1 0 0 0 0v0.5q0.1 0.4 0.2 0.7 0 0 0 0.1 0 0 0 0 0 0 0 0.1 0 0 0 0 0 0 0 0 0 0.1 0 0.1 0 0 0 0 0 0 0 0 0 0 0 0 0 0 0 0 0 0.1 0 0.1 0 0 0 0c0 0 0 0.1 0 0.1l-0.1 0.2q0 0.1 0 0.1 0 0 0 0 0 0 0 0.1 0 0 0 0 0 0 0 0 0 0.1 0 0.1 0 0 0 0 0 0 0 0 0 0.1 0 0.1 0 0.1 0 0.1 0 0.1 0 0.1 0 0.1 0 0.1 0 0.1 0 0.1 0 0 0 0.1 0 0 0 0 0 0.1 0 0.1 0 0.1 0 0.3v0.2q0 0 0 0v0.1c0 0 0 0 0 0.1v0.4c0 0 0 0.1 0 0.1q0 0 0 0 0 0 0 0.1 0 0 0 0 0 0 0 0v1c0 0 0 0.2 0 0.2 0 0.1 0 0.3 0 0.5 0 0.2 0 0.1 0 0.1q0 0 0 0 0 0.1 0 0.1 0 0 0 0 0 0 0 0.1v0.1c0 0 0 0.1 0 0.1v2q0 0 0 0 0 0 0 0 0 0.1 0 0.1 0 0 0 0 0 0 0 0 0 0.1 0 0.1 0 0 0 0 0 0 0 0.1 0 0.2 0 0.3c0 0.1 0 0.5 0 0.7v0.3q0 0.2 0 0.4c0 0.1 0 0.1 0 0.2q0 0 0 0 0 0 0 0.1 0 0 0 0 0 0 0 0v0.1q0 0.3 0 0.5c0 0.2 0 0.1 0 0.2q0 0 0 0 0 0 0 0.1 0 0 0 0 0 0.1 0 0.1v0.1q0 0.1 0 0.1 0 0 0 0 0 0.1 0 0.1 0 0 0 0 0 0 0 0.1 0 0 0 0.1 0 0-0.1 0 0 0.1 0 0.1c0 0.1-0.1 0.1-0.1 0.2q0 0 0 0 0 0.1 0 0.1 0 0 0 0 0 0 0 0v0.7c0 0 0 0 0 0.1q0 0 0 0 0 0 0 0 0 0 0 0.1 0 0 0 0 0 0 0 0 0 0 0 0.1 0 0 0 0 0 0 0 0 0 0.1 0 0.1 0 0 0 0 0 0 0 0.1 0 0 0 0 0 0 0 0 0 0.1 0 0.1 0 0 0 0 0 0.1 0 0.1 0 0 0 0 0 0 0 0.1 0 0 0 0 0 0 0 0 0 0.1 0 0.1 0 0 0 0 0 0 0 0.1 0 0 0 0 0 0 0 0-0.1 0.1-0.1 0.1 0 0 0 0.1 0 0 0 0 0 0.1-0.1 0.1 0 0 0 0.1 0 0 0 0 0 0.1 0 0.1c0 0 0 0.1 0 0.1q0 0.1 0 0.1 0 0 0 0 0 0 0 0.1 0 0 0 0v0.2q0 0 0 0 0 0 0 0.1 0 0 0 0 0 0 0 0 0 0.1 0 0.1 0 0 0 0 0 0.1-0.1 0.1 0 0 0 0 0 0.1 0 0.1 0 0 0 0 0 0 0 0.1 0 0 0 0l-0.1 0.1c0 0 0 0 0 0.1 0 0.1 0 0 0 0.1l-0.1 0.3q0 0 0 0 0 0 0 0 0 0 0 0 0 0.1 0 0.1 0 0 0 0 0 0 0 0 0 0 0 0 0 0.1 0 0.1c0 0 0 0 0 0.1h0.1 0.2q0.1 0 0.1 0 0 0 0 0 0 0 0 0 0 0 0 0 0 0 0 0 0.1 0.1 0.1 0.1 0 0 0 0 0 0 0 0 0 0 0 0.1 0.1 0 0.1 0 0 0.1 0 0.1 0.1 0 0.1 0l0.1 0.1 0.1 0.1 0.3 0.2 0.1 0.1h0.1l0.1 0.1q0 0 0 0 0 0 0 0 0 0 0 0 0 0 0 0 0 0.1-0.1 0.1 0 0 0 0 0 0 0 0 0 0 0 0 0 0 0 0 0 0 0 0-0.1 0-0.1 0 0 0 0 0h-0.1q-0.1 0-0.1 0 0 0 0 0-0.1 0-0.1 0 0 0 0 0h-1-0.2-0.3-0.2q0 0 0 0-0.1 0-0.1 0 0 0 0 0 0 0 0 0 0 0 0 0 0 0 0 0 0 0 0 0-0.1 0-0.1 0 0 0 0 0c0 0 0 0 0 0q-0.1 0-0.1 0 0 0.1 0 0.1 0 0 0 0-0.1 0-0.1 0 0 0.1 0 0.1 0 0 0 0-0.1 0-0.1 0 0 0 0 0h-0.7-0.1c0 0 0 0-0.1 0 0-0.1 0 0 0-0.1q0 0 0 0 0 0 0 0 0 0 0-0.1 0 0 0 0 0 0 0 0 0 0 0-0.1 0 0 0 0 0 0 0 0c0 0-0.1 0-0.1-0.1q0 0 0 0 0 0 0 0 0 0 0-0.1 0 0 0 0 0 0 0-0.1v-0.1q0 0 0 0 0-0.1 0-0.1 0 0 0 0 0 0 0-0.1c0 0 0-0.1 0-0.1q0 0 0-0.1 0 0 0 0 0 0 0-0.1 0 0 0 0c0 0 0 0 0-0.1q0 0 0 0 0 0 0 0 0 0 0 0 0 0 0-0.1 0-0.1 0-0.2 0-0.1 0-0.2 0-0.1 0.1-0.2 0-0.1 0-0.2 0 0 0-0.1 0.1 0 0.1 0 0-0.1 0-0.1 0-0.1 0-0.1l0.1-0.3v-0.3c0 0 0 0 0-0.1q0 0 0 0 0 0 0 0 0 0 0 0 0 0 0 0v-0.1c0 0 0 0 0-0.1q0 0 0 0 0 0 0 0 0 0 0 0 0-0.1 0-0.1 0 0 0 0 0 0 0 0 0 0 0 0 0 0 0 0 0-0.1 0-0.1 0 0 0 0 0-0.1 0-0.1 0 0 0 0 0-0.1 0-0.1 0 0 0 0 0-0.1 0-0.1 0 0 0 0 0 0 0 0c0-0.1 0-0.1 0-0.2v-0.1q0-0.1 0-0.3 0 0 0-0.1 0-0.1 0-0.1 0-0.1 0-0.1 0-0.1 0-0.1 0 0 0-0.1 0 0 0 0 0 0 0-0.1 0 0 0 0 0-0.1 0-0.1 0-0.1 0-0.2 0-0.1 0-0.2c0 0 0-0.2 0-0.3q0 0 0 0 0 0 0-0.1 0 0 0 0 0 0 0-0.1c0 0 0 0 0-0.1q0 0 0 0 0 0 0-0.1 0 0 0 0 0 0 0 0 0 0 0-0.1 0 0 0 0 0 0 0 0 0 0 0-0.1 0-0.1 0-0.2c0-0.1 0-0.3 0-0.4-0.1-0.2 0 0 0-0.1 0 0 0-0.1 0-0.1q0 0 0 0 0 0 0-0.1 0 0 0 0 0 0 0 0 0-0.1 0-0.1-0.1 0-0.1-0.1 0 0 0.1 0 0-0.1 0-0.1 0 0 0-0.1 0 0 0 0 0 0 0-0.1 0.1 0 0.1 0c0 0 0 0 0-0.1 0 0 0 0 0 0q0 0 0 0 0-0.1 0-0.1 0 0 0 0 0 0 0 0c-72.1-45.5-72.1-45.5-72.1-45.5l72.1 45.5q0 0 0 0 0 0 0 0 0-0.1 0-0.1 0 0 0 0c0 0 0 0 0-0.1q0 0 0-0.1 0 0 0 0 0 0 0 0 0 0 0-0.1 0 0 0 0 0 0 0 0 0 0 0 0 0 0 0-0.1 0 0 0 0 0 0 0-0.1 0 0 0 0 0-0.1 0-0.1 0 0 0-0.1 0 0 0 0 0 0 0-0.1 0 0 0 0 0-0.1 0-0.1 0 0 0-0.1 0-0.1 0-0.2 0 0 0-0.1 0-0.1 0-0.2 0-0.1 0-0.2 0-0.1-0.1-0.1 0 0 0 0 0-0.1 0-0.1 0 0 0-0.1 0 0 0 0 0 0 0-0.1 0 0 0 0-0.1 0-0.1-0.1 0 0 0 0 0-0.1 0-0.1 0 0 0-0.1 0 0 0 0 0-0.1 0-0.1 0 0 0-0.1 0 0 0 0 0-0.1 0-0.1 0 0 0-0.1 0 0 0 0 0-0.1 0-0.1 0-0.1 0-0.1 0-0.1 0-0.3v-0.5q0 0 0 0 0 0 0 0.1 0 0 0 0 0 0 0 0c0 0 0 0.1 0 0.2q0 0 0 0.1 0 0 0 0 0 0 0 0 0 0 0 0 0 0 0 0c0 0 0 0.1 0 0.1 0 0 0 0.1-0.1 0.2v0.1c-71.8-42.4-71.8-42.4-71.8-42.4l71.8 42.4v0.2q0 0-0.1 0 0 0 0 0.1 0 0 0 0 0 0 0 0.1c0 0 0 0.1 0 0.1q0 0 0 0.1 0 0 0 0 0 0 0 0 0 0.1 0 0.1v0.3q0 0 0 0 0 0 0 0 0 0.1 0 0.1 0 0 0 0c0 0 0 0.1 0 0.1q0 0 0 0 0 0.1 0 0.1 0 0 0 0 0 0 0 0.1 0 0.1 0 0.2 0 0.2 0 0.3v0.3q0 0 0 0 0 0.1 0 0.1 0 0 0 0.1 0 0 0 0 0 0.1 0 0.1 0 0.1 0 0.1 0 0 0 0 0 0.1 0 0.1 0 0 0 0 0 0 0 0v0.1q0 0.1 0 0.2c0 0 0 0 0 0.1q0 0 0 0 0 0 0 0 0 0 0 0 0 0 0 0 0 0.1 0 0.1 0 0 0 0 0 0.1 0 0.1 0 0 0 0v0.1c0 0 0 0.1 0 0.1q0 0 0 0.1 0 0 0 0 0 0 0 0 0 0 0 0.1 0 0 0 0 0 0 0 0.1v0.1q0 0 0 0.1 0 0 0 0 0 0 0 0.1 0 0 0 0 0 0.2 0 0.3 0 0 0 0.1 0 0 0 0 0 0 0 0 0 0 0 0 0 0.1 0 0.1 0 0 0 0 0 0.1 0 0.1 0 0 0 0 0 0.1 0 0.1 0 0 0 0.1 0 0 0 0 0 0.1 0 0.1 0 0.1 0 0.1 0 0.1 0 0.1 0 0 0 0 0 0.1 0 0.1 0 0 0 0 0 0 0 0.1 0 0 0 0 0 0.1 0 0.1 0 0 0 0 0 0.1 0 0.2 0 0.1 0 0.1 0 0.1 0 0.1 0 0 0 0 0 0 0 0 0 0 0 0c0 0.1 0 0.1 0 0.2q0 0 0 0 0 0 0 0 0 0.1 0 0.1 0 0 0 0 0 0.2 0 0.4c0 0.1 0 0.1 0 0.1v-0.1c0 0 0 0.1 0 0.2 0 0 0 0.2-0.1 0.3 0 0.2 0 0.2-0.1 0.4q0 0 0 0 0 0.1 0 0.1 0 0 0 0.1 0 0 0 0 0 0.1 0 0.1 0 0 0 0 0 0.1 0 0.1 0 0 0 0.1 0 0 0 0.1 0 0 0 0 0 0 0 0 0 0 0 0 0 0 0 0l-0.1 0.5q0 0 0 0 0 0 0 0 0 0 0 0.1 0 0 0 0c0 0 0 0.1 0 0.1q0 0.1 0 0.1 0 0.1 0 0.1 0 0 0 0 0 0.1 0 0.1 0 0 0 0 0 0.1-0.1 0.1 0 0 0 0.1 0 0 0 0 0 0.1 0 0.1 0 0 0 0 0 0 0 0.1 0 0 0 0 0 0 0 0c0 0.1 0 0.1 0 0.2l-0.1 0.2q0 0 0 0.1 0 0 0 0-0.1 0-0.1 0.1 0 0 0 0 0 0 0 0.1-0.1 0-0.1 0 0 0 0 0 0 0.1-0.1 0.1v0.1h-0.1-0.1c0 0-0.1 0.1-0.2 0.2q-0.1 0-0.1 0 0 0 0 0 0 0 0 0 0 0 0 0 0 0.1 0 0.1 0 0 0 0 0 0 0 0.1 0 0 0 0v0.1c0 0 0 0 0 0.1q0 0 0 0.1c0 0 0 0 0 0.1 0 0 0 0-0.1 0h-0.1q0 0 0 0-0.1 0-0.1 0 0 0 0 0 0 0-0.1 0 0 0 0 0 0 0 0 0 0 0 0 0-0.1 0-0.1 0h-0.3q-0.1 0-0.1 0 0 0 0 0 0 0 0 0 0 0 0 0h-0.1-0.1-1.3-0.1q0 0 0 0-0.1 0-0.1 0 0 0 0 0 0 0 0 0-0.1-0.1-0.1-0.1 0 0 0 0 0 0 0 0 0 0 0-0.1 0-0.2 0-0.4 0 0 0 0 0-0.1 0-0.1 0 0 0 0 0 0 0-0.1 0 0 0 0 0 0 0 0 0 0 0 0 0 0 0-0.1v-0.1q0 0 0 0 0 0 0 0 0 0 0 0 0 0 0 0c0-0.1 0-0.1 0-0.1q0 0 0-0.1 0 0 0 0 0 0 0 0 0 0 0 0c-67.7-52.4-67.7-52.4-67.7-52.4 67.7 52.4 67.7 52.4 67.7 52.4q0-0.1 0-0.1 0 0 0 0 0 0 0 0 0 0-0.1 0 0-0.1 0-0.1 0 0 0 0 0-0.1 0-0.1 0 0 0 0 0 0 0 0 0 0 0 0 0-0.1 0-0.1h-0.3q0 0 0-0.1 0 0 0 0 0 0 0-0.1 0 0 0 0 0 0 0-0.1 0 0 0 0 0 0 0-0.1 0 0 0 0 0 0 0-0.1 0 0 0 0 0-0.1 0-0.1 0 0 0-0.1 0 0 0 0 0-0.1 0-0.1 0 0 0-0.1 0 0 0 0 0-0.1 0-0.1 0 0 0 0 0 0 0 0 0 0 0 0c0.1-0.1 0-0.1 0-0.2l0.1-0.1c-67.4-50.7-67.4-50.7-67.4-50.7l67.4 50.7c0 0 0-0.1 0.1-0.1q0 0 0-0.1 0 0 0 0 0 0 0 0 0-0.1 0-0.1 0 0 0 0 0.1-0.1 0.1-0.1 0 0 0-0.1 0 0 0 0v-0.2q0 0 0 0 0 0 0 0 0-0.1 0-0.1 0 0 0 0 0 0 0-0.1c0 0 0 0 0 0v-0.4"/>
			<path id="Layer" class="s1" d="m53.7 41q0-0.3 0-0.6c0-0.2 0-0.5-0.1-0.8 0-0.3 0-0.6 0-0.8q-0.1-0.1-0.1-0.2 0-0.1 0-0.2 0-0.1 0-0.2 0-0.1 0-0.2 0-0.2 0-0.3 0-0.2 0-0.3 0-0.2 0-0.3 0-0.2 0-0.3c0-0.1 0.1-0.3 0.1-0.4q0 0 0-0.1 0 0 0 0 0 0 0 0 0-0.1 0-0.1c-0.1 0-0.2 0-0.2 0-0.1 0 0-0.2 0.1-0.3q0.1-0.3 0.3-0.6 0-0.1 0-0.1 0.1 0 0.1 0 0-0.1 0-0.1 0 0 0 0 0-0.1 0-0.1 0.1-0.1 0-0.1 0-0.1 0-0.1-0.1-0.1-0.1-0.1-0.1 0-0.1 0-0.1 0-0.1 0-0.1 0-0.2-0.1 0 0-0.1 0 0-0.1 0-0.1-0.1-0.1-0.1-0.1 0-0.1-0.1-0.2 0 0 0-0.1 0-0.1 0-0.2 0 0 0-0.1 0-0.1 0-0.2 0-0.1 0-0.1 0-0.1 0-0.2 0-0.1 0-0.2 0 0 0-0.1 0-0.1 0-0.2 0 0 0-0.1 0 0 0-0.1 0 0 0-0.1 0 0 0-0.1 0-0.1 0-0.3-0.1-0.1-0.1-0.3 0-0.1 0-0.2 0-0.1 0-0.3 0-0.1 0-0.2 0-0.4 0.1-0.7c0-0.3 0-0.3 0-0.4 0-0.1 0-0.3 0-0.5 0-0.1 0-0.6 0-1q0-0.2 0-0.4c0-0.1 0-0.3 0-0.5q0 0 0-0.1 0 0 0-0.1 0-0.1 0-0.1 0-0.1 0.1-0.1 0-0.1 0-0.1 0 0 0 0 0 0 0 0 0.1-0.1 0.1-0.1c0 0 0-0.1 0-0.1q0-0.1 0.1-0.1 0 0 0-0.1 0.1 0 0.1 0 0.1 0 0.1 0 0.2 0 0.3-0.2c0-0.1 0-0.1 0-0.1q0.1-0.1 0.1-0.1 0 0 0.1 0 0 0 0 0 0.1 0 0.1 0c0.1 0 0.2 0 0.3-0.2l0.1-0.1q0-0.1-0.1-0.1 0 0 0-0.1-0.1 0-0.1-0.1-0.1 0-0.1 0c0-0.1 0-0.1 0-0.1 0-0.1-0.1-0.2-0.1-0.2 0-0.1 0-0.1 0-0.2 0-0.1-0.1 0-0.1-0.1-0.1 0 0-0.1 0-0.2q-0.1 0-0.1 0 0 0 0 0-0.1-0.1-0.1-0.1 0 0 0 0 0-0.2 0.1-0.3 0 0-0.1 0 0 0 0 0 0 0 0 0 0 0-0.1 0 0 0 0-0.1 0 0 0 0 0-0.1 0-0.1 0-0.1 0-0.1 0.1 0 0.1 0 0-0.1 0-0.1 0.1 0 0.1-0.1 0 0 0 0c0.1 0 0.1 0 0.1-0.1q0 0 0 0 0 0 0-0.1 0 0 0 0 0 0 0 0 0 0 0-0.1 0 0 0 0 0-0.1 0-0.1 0-0.1 0-0.1 0 0 0.1-0.1 0 0 0 0 0-0.1 0-0.1 0.1 0 0.1-0.1c0 0 0.1 0 0.1 0q-0.1-0.1-0.1-0.1 0-0.1 0-0.1 0-0.1 0-0.1 0-0.1 0-0.1 0-0.1 0-0.1 0-0.1 0-0.1 0-0.1 0-0.1 0.1-0.1 0.1-0.1l0.2-0.2v-0.1c-0.1-0.1 0.1-0.3 0.1-0.4q0.1-0.1 0.1-0.1 0.1-0.1 0.1-0.1 0 0 0.1-0.1 0.1 0 0.1 0c0-0.1 0.1 0 0.1-0.1 0-0.1 0 0 0-0.1 0 0 0.2-0.3 0.3-0.4q0.1 0 0.1-0.1 0.1 0 0.2-0.1 0.1 0 0.2 0 0.1-0.1 0.2-0.1c0-0.2 0.4-0.4 0.6-0.4q0 0 0.1 0 0.1 0 0.1 0 0.1 0 0.1 0 0 0 0.1 0.1c0 0 0 0 0.1 0.1 0 0 0.1 0 0.1 0q0.1 0 0.1 0 0.1-0.1 0.1-0.1 0.1 0 0.1 0.1 0.1 0 0.1 0c0.1 0 0.2 0.1 0.2 0.2q0 0 0 0 0 0 0 0.1 0 0 0 0 0 0 0 0.1c0 0 0 0 0.1 0q0.1 0 0.1 0 0 0 0.1 0.1 0 0 0.1 0 0 0 0.1 0.1 0 0 0 0 0 0 0 0 0.1 0 0.1 0.1 0 0 0 0c0 0 0 0.1 0 0.1h0.2q0 0 0.1 0.1 0 0 0.1 0 0 0 0 0.1 0.1 0 0.1 0.1 0 0 0 0 0 0 0 0.1 0 0 0 0 0 0.1 0 0.1 0 0 0 0.1c0.2 0.1 0.6 0.2 0.5 0.4q0 0.1 0 0.2c0 0.1 0.1 0.1 0.1 0.1 0 0 0.2 0.1 0.2 0.2q0 0 0 0.1 0 0 0 0.1 0 0 0 0.1 0 0 0 0.1c0 0 0 0 0 0.1 0 0.1 0.1 0.1 0.1 0.2q0 0 0 0 0 0 0.1 0.1 0 0 0 0 0 0 0 0.1 0 0 0 0.1 0 0-0.1 0.1 0 0 0 0.1 0 0-0.1 0.1c0.2 0 0.3 0.2 0.3 0.3q0 0 0 0.1 0 0 0 0 0 0.1 0 0.1-0.1 0-0.1 0.1c0 0 0 0 0 0.1q0 0 0 0 0 0 0.1 0.1 0 0 0 0 0 0 0 0.1 0 0 0 0 0 0 0 0.1 0 0 0 0 0 0 0 0.1c0 0.1-0.1 0.1-0.1 0.1 0 0.1 0 0.1 0 0.2q0 0 0 0 0 0.1 0 0.1 0 0 0 0.1 0 0 0 0c0 0.1-0.1 0.2-0.1 0.2 0 0.1 0 0 0 0h0.1 0.1c0 0 0 0 0.1 0q0.2 0 0.2 0c0.1 0 0 0.1 0.2 0.1q0 0 0 0 0 0 0 0 0 0 0.1 0 0 0 0 0 0.1 0 0.3 0 0 0 0.1 0 0 0 0 0.1 0.1 0 0.1 0 0.1 0 0.1 0c0.1 0.1 0 0.2 0 0.2 0 0.1 0 0.3 0.1 0.4q0 0 0 0 0 0 0 0 0 0.1 0 0.1 0 0 0 0 0 0.1-0.1 0.1 0 0 0 0 0 0.1 0 0.1 0 0 0 0 0 0.1 0 0.1c0 0 0.1 0.2 0.1 0.4 0.1 0.3 0.2 0.6 0.3 1 0 0.1 0.1 0.3 0.1 0.4q0.1 0.3 0.1 0.5c0 0.1 0 0.3 0.1 0.5 0.1 0.1 0.1 0.4 0.1 0.7q0 0.2 0 0.4 0 0.3 0 0.5 0 0.3 0 0.5 0 0.2 0 0.5 0 0 0 0 0 0.1 0 0.1 0 0 0 0.1 0 0 0 0 0 0.1 0 0.1-0.1 0-0.1 0.1 0 0 0 0-0.1 0.1-0.1 0.1-0.2 0.2-0.4 0.5-0.1 0-0.1 0.1-0.1 0.1-0.1 0.1-0.1 0.1-0.1 0.2 0 0.1-0.1 0.2 0 0 0 0 0 0 0 0 0 0 0 0.1-0.1 0-0.1 0c0 0 0 0 0 0.1q0.1 0.1 0.1 0.1 0 0.1 0.1 0.1 0 0.1 0.1 0.2 0 0 0 0.1l0.2 0.2c0.1 0.1-0.1 0.2-0.2 0.3q0 0 0 0 0 0 0 0.1 0 0 0 0 0 0 0 0.1 0 0 0 0 0 0.1 0 0.1 0 0.1 0 0.1 0 0 0 0.1c-0.1 0.2-0.2 0.3-0.3 0.5q0 0 0 0.1 0 0 0 0 0 0 0 0 0 0.1 0 0.1c0 0.1 0.1 0.1 0.1 0.2q0 0 0 0 0 0 0 0.1 0 0 0 0 0 0.1 0 0.1 0 0 0 0 0 0 0 0.1 0 0 0 0 0 0 0 0 0 0.2 0 0.3 0 0.1 0 0.2 0 0.2 0 0.3 0 0.1 0 0.2 0 0.8 0 1.7c0 0.5 0 0.9 0 1.3q0 0.2 0 0.3 0 0 0 0.1 0 0 0 0 0 0 0 0 0 0 0 0.1-0.1 0-0.1 0-0.1 0.1-0.1 0.1 0 0-0.1 0 0 0-0.1 0v0.5q0 0.2 0 0.3 0 0.2 0 0.4 0 0.1 0 0.3 0 0.2 0 0.3 0 0.2 0 0.4 0 0 0 0 0 0 0 0.1 0.1 0 0.1 0 0 0.1 0 0.1 0 0 0 0.1 0.1 0 0.1 0.1 0 0 0 0 0.1 0.1 0.1 0.1 0.1 0.2 0.2 0.4 0 0.1 0.1 0.2 0 0.1 0 0.1 0.1 0.1 0.1 0.2 0 0.1 0.1 0.2 0.1 0.3 0.2 0.6 0 0.1 0 0.2 0.1 0.2 0.1 0.3 0 0.1 0 0.2 0.1 0.2 0.1 0.3 0 0.1 0 0.2 0 0 0 0.1 0 0.1 0 0.2 0 0 0 0.1 0 0.1 0 0.2 0 0.1 0 0.2 0 0 0 0.1 0 0.1 0 0.2 0 0.3 0 0.6c0 0.3 0 0.4 0 0.5q0 0.6 0.1 1.2 0 0.2 0 0.5c0 0.1 0 0.2 0 0.4q0.1 0.1 0.1 0.2 0 0 0 0.1 0 0.1 0.1 0.2 0 0.1 0 0.2 0 0 0.1 0.1 0 0.1 0 0.2 0 0.1 0.1 0.2 0 0.1 0 0.2 0 0.4 0 0.7c0 0.3 0 0.2 0 0.3q0 0.1 0 0.1 0 0 0 0.1 0 0 0 0.1 0 0 0 0 0 0.1 0 0.2 0 0 0 0.1 0.1 0.1 0.1 0.1 0 0.1 0 0.2c0 0.1 0.1 0.2 0.1 0.3 0 0.2 0.1 0.3 0 0.4q0 0 0 0-0.1 0-0.1 0 0 0.1-0.1 0.1 0 0 0 0c-0.1 0.1-0.2 0.1-0.3 0.1q0 0.1-0.1 0.1-0.1 0-0.2 0.1 0 0-0.1 0-0.1 0-0.2 0 0 0 0 0-0.1 0-0.1 0 0 0-0.1 0 0-0.1 0-0.1 0 0-0.1 0 0 0 0-0.1-0.1 0-0.1 0 0 0 0 0-0.1 0-0.1-0.1 0 0 0 0-0.1 0-0.1 0 0-0.1 0-0.1c-0.1 0-0.1-0.1-0.1-0.3q0 0 0 0 0 0 0 0 0-0.1 0-0.1 0 0 0 0 0-0.1 0-0.1 0 0 0 0 0 0 0 0 0-0.1 0-0.1v-0.2q0-0.1 0-0.3 0 0 0-0.1 0 0 0-0.1 0 0 0-0.1 0 0 0-0.1 0-0.1 0-0.3 0-0.1 0-0.1 0-0.1 0-0.1 0-0.1 0-0.2 0 0 0-0.1 0 0 0-0.1 0 0 0 0 0-0.1 0-0.1 0-0.1 0-0.1 0-0.1 0-0.2 0 0 0-0.1 0-0.1 0-0.2 0 0 0-0.1 0.1-0.1 0.1-0.1 0-0.2 0-0.3 0-0.1 0-0.2 0-0.1-0.1-0.2 0-0.1-0.1-0.2 0-0.1 0-0.2-0.1-0.1-0.1-0.2-0.1-0.1-0.1-0.2-0.1-0.1-0.1-0.2-0.2-0.3-0.3-0.6-0.1-0.1-0.1-0.2-0.1-0.1-0.1-0.2-0.1-0.1-0.1-0.2 0-0.1-0.1-0.2 0-0.1 0-0.2 0-0.2-0.1-0.3 0-0.1 0-0.2 0-0.2 0-0.3 0-0.2-0.1-0.4c0-0.1 0-0.2 0-0.2q0-0.2 0-0.3 0-0.1 0-0.2 0-0.1 0-0.2-0.1-0.1-0.1-0.2 0-0.1-0.1-0.2 0-0.1-0.1-0.2 0-0.1-0.1-0.2 0-0.1-0.1-0.2-0.1-0.2-0.3-0.5c-0.1-0.1-0.1-0.2-0.2-0.3q0 0 0-0.1 0 0-0.1-0.1 0 0 0-0.1 0 0-0.1-0.1 0-0.1 0-0.2-0.1-0.1-0.1-0.2-0.1-0.1-0.1-0.2 0-0.1 0-0.2 0 0-0.1-0.1 0 0 0-0.1 0-0.1 0-0.1 0-0.1 0-0.1-0.1-0.1-0.1-0.2 0-0.1 0-0.1 0-0.1 0-0.2 0-0.1-0.1-0.1 0-0.1 0-0.2 0 0 0-0.1-0.1-0.1-0.1-0.2 0 0 0-0.1l-1 0.1q0 0.1 0 0.1-0.1 0.1-0.1 0.2 0 0 0 0.1 0 0.1 0 0.2 0 0.3 0 0.6v1.2q0 0.1 0 0.2 0 0.1 0 0.2 0 0.1-0.1 0.2 0 0.1 0 0.2c0 0.2-0.1 0.4-0.2 0.6q0 0 0 0 0 0 0 0.1 0 0 0 0 0 0.1 0 0.1 0 0 0 0 0 0.1 0 0.1 0 0 0 0.1 0 0 0 0 0 0.1 0 0.1 0 0 0 0 0 0 0 0.1 0 0 0 0 0 0.1 0 0.2c0 0.1 0 0.3 0.1 0.4q0 0.1 0 0.2 0 0.1 0 0.3 0 0.1 0 0.2 0 0.1 0 0.2 0 0.2 0 0.5 0 0 0 0.1 0 0.1 0 0.2 0 0 0 0.1 0 0.1 0 0.1c0 0.3-0.1 0.6-0.1 1 0 0.3 0 0.3-0.1 0.5q0.1 0 0.1 0 0 0.1 0 0.1 0 0 0 0 0 0.1-0.1 0.1 0.1 0.1 0 0.3c0 0 0 0.2 0 0.3q0 0 0 0.1 0 0 0 0 0 0 0 0.1 0 0 0 0 0.1 0 0.1 0 0 0.1 0 0.1 0 0 0 0 0 0 0 0.1 0.1 0 0.1 0 0 0.1 0 0.1 0 0.1 0 0.1 0.1 0 0.1 0.1c0 0.2 0 0.4 0.1 0.6q0 0.1 0 0.1 0 0.1 0 0.1 0 0.1 0 0.1 0 0.1 0 0.1v0.5q0 0.2 0 0.4v0.4q0 0.1 0 0.1 0 0.1 0 0.2 0 0 0 0.1 0 0 0 0.1 0 0 0 0.1 0 0 0 0 0 0 0 0.1 0 0 0 0 0 0.1 0 0.1 0 0 0 0 0 0 0 0.1 0 0 0 0v0.2q0 0 0 0 0 0 0 0 0 0 0 0.1 0 0 0 0-0.1 0-0.1 0 0 0.1-0.1 0.1 0 0 0 0-0.1 0.1-0.1 0.1h-0.2l-0.1 0.1q-0.1 0-0.1 0 0 0-0.1 0 0 0-0.1 0 0 0 0 0c-0.2 0-0.3-0.1-0.4-0.1l-0.2-0.1-0.2-0.1h-0.1q0 0 0 0-0.1-0.1-0.1-0.1 0 0 0-0.1-0.1 0-0.1 0 0-0.2 0-0.3 0-0.2 0.1-0.3 0-0.2 0-0.3 0-0.2 0-0.3c0.1-0.3 0.1-0.6 0.2-0.9q0-0.1 0-0.2 0 0 0-0.1 0-0.1 0-0.2 0.1-0.1 0.1-0.1c0-0.2 0-0.4 0-0.5q0-0.1 0-0.2 0 0 0-0.1 0-0.1 0-0.1 0-0.1 0-0.2 0-0.1 0-0.2 0 0 0-0.1 0 0 0 0 0-0.1 0-0.1 0 0 0-0.1 0 0 0-0.1 0 0 0-0.1-0.1 0-0.1-0.1 0 0 0-0.1-0.1-0.3-0.2-0.5-0.1-0.1-0.1-0.2 0-0.1 0-0.1 0-0.1-0.1-0.2 0-0.1 0-0.1c0-0.1 0-0.2-0.1-0.3q0-0.1 0-0.1 0-0.1 0-0.1 0-0.1 0-0.1 0-0.1 0-0.1c-0.1-0.5-0.2-0.9-0.2-1.3q0-0.2 0-0.4 0-0.1 0-0.3 0-0.2 0-0.4 0-0.2 0-0.3 0-0.5 0.1-1 0-0.1 0-0.2 0-0.1 0-0.2 0 0 0-0.1 0-0.1 0-0.2 0-0.3 0-0.5 0-0.1 0-0.1 0-0.1 0-0.2 0 0 0-0.1 0-0.1 0-0.1v-0.5c0-0.1-0.1-0.2-0.1-0.4l-0.1-0.2v-0.1q0 0 0 0 0 0 0-0.1 0 0 0 0 0 0 0 0h-0.4z"/>
			<path id="Layer" class="s1" d="m44.4 27.1q0 0 0 0.1 0.1 0 0.1 0.1 0 0-0.1 0.1 0 0 0 0 0 0.1 0 0.1 0 0 0 0.1 0 0 0 0 0 0.1 0 0.1 0 0 0 0 0 0.1 0 0.1 0 0 0 0 0 0.1 0 0.1l0.1 0.1c0.1 0.1 0.1 0 0.1 0q0.1 0 0.1 0 0 0 0 0 0.1 0 0.1 0 0 0 0 0l0.1 0.1c0.2 0.1 0 0.2 0 0.3-0.1 0.1-0.1 0.1 0 0.1 0 0.1 0 0.1 0.1 0.1q0 0.1 0 0.1 0 0 0 0 0 0 0 0 0.1 0 0.1-0.1 0 0 0 0 0 0 0 0 0 0 0.1 0 0 0 0 0 0 0 0 0 0.1 0.1 0.1 0.1 0 0 0 0 0 0 0.1 0 0 0 0 0 0 0 0 0.1 0.1 0 0.1 0 0 0 0 0 0.1 0 0.1 0 0 0 0 0 0.1 0 0.1 0 0 0 0.1 0c0.1 0 0.2 0.1 0.3 0.1q0.1 0 0.1 0 0.1 0 0.1 0 0.1 0 0.2 0 0 0 0.1 0 0 0 0.1 0 0 0 0 0.1 0.1 0 0.1 0 0.1 0 0.1 0.1 0 0 0.1 0 0 0.1 0 0.1 0.1 0 0.1 0 0 0.1 0 0.1c0.2 0.1 0.3 0.3 0.4 0.3 0.1 0.1 0.3 0.2 0.3 0.3q0.1 0.1 0.2 0.3 0.1 0 0.1 0 0 0 0 0 0 0 0 0.1 0 0 0 0 0.2 0.2 0.4 0.4 0 0 0.1 0.1 0 0 0.1 0.1 0 0 0.1 0.1 0 0 0.1 0.1 0 0 0 0 0 0 0 0 0.1 0 0.1 0 0 0.1 0 0.1h0.1q0 0.1 0 0.1 0.1 0 0.1 0 0 0 0 0 0 0 0 0c0.1 0.1 0.1 0 0.1 0.1 0.1 0.1 0.1 0 0 0.1 0 0 0 0.1 0 0.1l0.1 0.1q0 0 0 0 0 0 0 0 0 0 0 0 0.1 0.1 0.1 0.1l0.1 0.2c0.1 0 0.2 0.1 0.2 0.1l0.1 0.1q0 0 0 0.1 0 0 0 0 0 0 0 0 0 0 0 0l0.2 0.2q0 0 0.1 0 0 0.1 0 0.1 0 0 0.1 0 0 0 0 0.1 0 0 0.1 0 0 0 0 0.1 0.1 0 0.1 0.1 0 0 0 0 0 0.1 0 0.1 0.1 0 0.1 0.1 0 0 0 0.1 0 0 0 0c0 0.1-0.1 0.2-0.2 0.3q0 0-0.1 0 0 0.1 0 0.1-0.1 0-0.1 0.1 0 0-0.1 0.1c-0.1 0.2-0.3 0.5-0.4 0.7-0.1 0.2-0.3 0.4-0.4 0.5q-0.2 0.3-0.4 0.6 0 0 0 0-0.1 0.1-0.1 0.1 0 0 0 0 0 0.1-0.1 0.1 0 0 0 0 0 0.1 0 0.1 0 0 0 0 0 0-0.1 0c0 0.1 0 0.1-0.1 0.1q-0.1 0.1-0.2 0.2-0.1 0-0.1 0.1 0 0-0.1 0 0 0 0 0.1-0.1 0-0.1 0 0 0-0.1 0.1 0 0 0 0.1 0 0-0.1 0 0 0.1 0 0.1 0 0.1 0 0.1 0 0-0.1 0 0 0.1 0 0.1 0 0 0 0c-0.1 0.1-0.2 0-0.2 0q-0.1 0-0.1 0 0 0-0.1 0 0 0.1 0 0.1-0.1 0-0.1 0 0 0.1-0.1 0.1 0 0 0 0.1-0.1 0-0.1 0-0.1 0.1-0.1 0.1l-0.2 0.1h-0.2c-0.1 0-0.1 0-0.1 0.1q0.1 0.1 0 0.1 0 0.1 0 0.1 0 0 0 0 0 0 0 0 0 0.1 0 0.1 0.1 0 0.1 0 0 0 0 0.1 0 0 0 0 0 0 0 0 0 0.1 0.1 0.1 0 0.1 0 0.1 0 0.1 0 0.1 0 0 0 0.1 0 0 0 0 0 0.1 0 0.1 0 0 0 0.1 0 0 0 0c0.1 0.2 0.1 0.3 0.1 0.4q0 0 0 0.1 0 0 0 0 0 0.1 0 0.1 0 0.1 0 0.1v0.1c0 0 0 0 0 0 0 0 0 0 0.1 0.1 0.1 0.1 0.1 0.2-0.1 0.3l-0.1 0.1c0 0.1 0.1 0.3 0.1 0.5q0 0.1 0 0.1 0 0 0 0 0 0.1 0 0.1 0 0 0 0 0 0.1 0 0.1 0 0 0 0 0 0 0 0 0 0.1 0 0.1l-0.1 0.1q0 0 0 0.1 0 0 0 0 0 0 0 0 0 0.1 0 0.1 0 0 0 0 0 0 0 0.1 0 0 0 0 0 0 0 0 0 0.1-0.1 0.1 0 0 0 0.1 0 0 0 0 0 0.1 0 0.1c-0.1 0.1-0.1 0.1-0.1 0.2q0 0 0 0 0 0.1 0 0.1 0 0 0 0.1 0 0 0 0c-0.1 0.3-0.2 0.6-0.2 0.9q0 0.1 0 0.1 0 0.1 0 0.1 0 0.1 0 0.1 0 0.1 0 0.1 0 0.1 0 0.1 0 0 0 0.1 0 0 0 0 0 0.1 0 0.1 0 0.1 0 0.2 0 0 0 0 0 0 0 0.1 0 0 0 0 0 0 0 0.1 0 0 0 0 0 0 0 0 0 0 0 0.1 0 0 0 0 0 0 0.1 0.1 0 0 0 0 0 0.1 0 0.1-0.1 0-0.1 0 0 0.2 0 0.4 0 0 0 0.1 0 0 0 0.1 0 0 0 0.1 0 0 0 0v0.5c0 0.1 0 0.2 0 0.5 0 0.3-0.2 0.5-0.2 0.8q0 0 0 0.1 0 0.1 0 0.1 0 0.1 0 0.2 0 0.1 0 0.1 0.1 0.1 0.1 0.1 0 0 0 0 0 0.1 0 0.1 0 0-0.1 0.1 0 0.2 0 0.4 0 0 0 0.1 0 0 0 0.1 0 0 0 0.1 0 0.1 0 0.1 0 0.1 0 0.1 0 0.1 0 0.2 0 0 0 0 0 0.1 0 0.1 0 0 0 0.1 0 0 0 0c0 0.3-0.4 0.7-0.4 0.8 0 0.2 0 0.4 0 0.5 0 0.1 0.1 0.2 0 0.4-0.1 0.1-0.1 0.3-0.1 0.5q0 0 0 0.1 0 0 0 0 0 0 0 0 0 0 0 0 0 0.1 0 0.1 0 0 0 0 0 0 0 0 0 0 0 0c0 0.1 0 0 0 0.1 0 0.1 0 0 0 0.1q0 0.1 0 0.2 0 0 0 0 0 0.1 0 0.1 0 0 0 0 0 0.1 0 0.1 0 0 0 0 0 0 0 0 0 0 0 0.1 0 0 0 0 0 0 0 0 0 0 0 0 0 0 0 0 0 0.1 0 0.1 0 0-0.1 0h-0.2-0.1-0.1c0 0 0.1 0.1 0.1 0.1q0 0 0 0 0.1 0.1 0.1 0.1 0 0 0 0 0 0 0.1 0 0 0.1 0 0.1 0 0 0.1 0 0 0 0 0.1 0 0 0 0 0.1 0.1 0.1 0.1 0 0 0 0.1 0 0 0 0 0 0.1 0 0.1 0 0 0 0.1 0.1 0 0.1 0 0 0-0.1 0.1 0 0 0 0 0 0 0 0.1 0 0 0 0 0 0 0 0 0 0.1 0 0.1v0.1q0 0.1 0 0.2 0 0.1 0 0.1c0 0.1 0.1 0.1 0 0.1q0 0.1 0 0.1-0.1 0-0.1 0-0.1 0-0.1 0.1 0 0-0.1 0-0.1 0-0.1 0-0.1 0-0.1 0.1-0.1 0-0.2 0 0 0-0.1 0 0 0-0.1 0 0 0-0.1 0 0 0-0.1 0 0 0-0.1 0 0 0-0.1-0.1-0.1 0-0.1 0-0.1-0.1-0.1-0.1 0-0.1-0.1-0.1 0-0.1 0-0.1 0 0 0-0.1 0 0 0 0 0-0.1 0-0.1 0-0.1 0-0.2 0-0.1 0-0.1 0 0 0-0.1 0 0 0 0 0 0 0-0.1 0 0 0 0 0 0 0-0.1 0 0 0 0 0 0 0 0 0 0 0-0.1 0 0 0 0 0 0 0 0 0 0 0 0-0.1-0.1-0.1-0.1 0 0 0 0 0-0.1 0-0.1 0 0 0-0.1c0 0 0-0.2 0-0.2 0 0 0 0 0 0l-0.1-0.3q0 0 0-0.1-0.1 0-0.1 0 0-0.1 0-0.1 0 0 0 0 0-0.1 0-0.1 0 0 0 0 0 0 0 0 0 0 0-0.1 0 0 0 0-0.1 0-0.1 0 0 0 0.1 0 0-0.1 0-0.1 0 0 0-0.1 0 0 0-0.1 0 0 0-0.1 0 0 0-0.1 0-0.1 0-0.1 0-0.1 0-0.2 0-0.1 0-0.1 0-0.1 0-0.2 0 0 0.1-0.1 0 0 0 0 0 0 0-0.1 0 0 0 0 0-0.1 0-0.2 0 0 0-0.1 0 0 0-0.1 0 0 0-0.1c0.1-0.3 0.1-0.6 0.1-1 0-0.1 0-0.2 0-0.4q0-0.3 0-0.6 0-0.3 0-0.6c0-0.2 0-0.5 0-0.7q0-0.2 0-0.4 0 0 0 0 0 0 0 0 0-0.1 0-0.1 0 0 0 0 0-0.1 0-0.1 0 0 0-0.1 0 0-0.1-0.1 0 0 0-0.1 0 0 0-0.1-0.1 0-0.1-0.1 0 0 0-0.1 0 0 0-0.1c0-0.1 0-0.2 0-0.4 0-0.1-0.1-0.2-0.1-0.3q0-0.1-0.1-0.2 0-0.1 0-0.2 0-0.1 0-0.2-0.1-0.1-0.1-0.2 0 0 0 0 0-0.1 0-0.1 0-0.1 0-0.1 0-0.1 0-0.1 0-0.1 0-0.2c0-0.1 0-0.3-0.1-0.1q-0.1 0.3-0.2 0.6 0 0.1 0 0.2 0 0.1 0 0.1 0 0.1 0 0.2 0 0.1 0 0.2 0 0 0 0.1 0 0.1 0 0.1 0 0.1 0 0.1 0 0.1 0 0.2 0 0 0 0.1-0.1 0-0.1 0.1 0 0 0 0.1 0 0.1 0 0.1c0 0.3-0.1 0.4-0.2 0.8-0.1 0.4-0.2 0.8-0.3 1.2q-0.2 0.7-0.3 1.4 0 0.1 0 0.3 0 0.1 0 0.3 0 0.1 0 0.3 0 0.1 0 0.3 0 0.1 0 0.1 0 0.1 0 0.2 0 0.1 0 0.1 0 0.1 0 0.2c0 0.1-0.1 0.2-0.1 0.4q0 0.2 0 0.4 0 0.1 0 0.1 0 0.1 0 0.1-0.1 0.1-0.1 0.1 0 0.1 0 0.1 0 0.1 0 0.3 0 0.1-0.1 0.2 0 0.1 0 0.2 0 0.1 0 0.2 0 0.1 0 0.1 0 0 0 0 0 0.1 0 0.1 0 0 0 0c0 0.1 0 0.1-0.1 0.1h-0.3c0 0-0.1 0-0.1 0 0 0.1 0.1 0.1 0.1 0.2q0 0 0 0.1 0 0 0 0 0 0 0 0.1 0 0 0 0-0.1 0-0.1 0.1 0 0 0 0.1 0 0 0 0.1 0 0-0.1 0.1c0 0 0 0-0.1 0q-0.1 0-0.1 0 0 0 0 0 0 0-0.1 0 0 0 0 0h-0.5q-0.2 0-0.4 0-0.1 0.1-0.1 0.1-0.1 0-0.2 0 0 0-0.1 0 0 0-0.1 0-0.1 0-0.2 0.1-0.1 0-0.2 0-0.1 0-0.2 0.1-0.1 0-0.2 0-0.1 0-0.2 0.1-0.1 0-0.2 0-0.1 0-0.2 0-0.1 0-0.2 0 0 0 0 0-0.1 0-0.1 0-0.1-0.1-0.1-0.1-0.1 0-0.1 0-0.1-0.1-0.2-0.2l-0.1-0.1c-0.1-0.1 0.1-0.2 0.1-0.2q0.1-0.1 0.1-0.1 0.1 0 0.1-0.1 0 0 0.1 0 0-0.1 0.1-0.1 0 0 0.1 0 0-0.1 0-0.1 0.1 0 0.1 0 0.1 0 0.1 0 0.1-0.1 0.2-0.1 0.1 0 0.2-0.1 0.1 0 0.2-0.1 0.2 0 0.2-0.1l0.2-0.1q0 0 0 0 0-0.1 0.1-0.1 0 0 0-0.1 0 0 0 0 0 0 0-0.1 0 0 0 0 0 0 0-0.1 0 0 0 0 0 0 0 0 0-0.1 0-0.1 0 0 0 0 0-0.1 0-0.1 0 0 0 0 0 0 0-0.1 0 0 0 0 0 0 0-0.1 0 0 0 0 0-0.1 0-0.1 0-0.1 0-0.1 0-0.1 0-0.1 0-0.1 0-0.1 0-0.1 0-0.1 0-0.1 0-0.1 0-0.1 0-0.2v-0.1q0.1-0.1 0.1-0.1 0-0.1 0-0.1 0 0 0-0.1 0 0-0.1-0.1 0-0.2 0-0.5 0.1 0 0.1-0.1 0 0 0-0.1 0-0.1 0-0.1 0-0.1-0.1-0.1 0-0.2 0-0.4 0-0.1 0-0.1 0-0.1 0-0.1 0-0.1 0-0.1 0-0.1 0-0.1 0.1-0.1 0.1-0.2 0 0 0-0.1 0-0.1 0.1-0.2 0-0.1 0-0.2 0 0 0 0 0.1 0 0.1-0.1 0 0 0 0 0 0 0-0.1 0 0 0-0.1 0 0 0-0.1 0 0 0 0 0-0.1 0-0.1 0-0.4 0-0.9v-0.4q0-0.3 0-0.6c0-0.4-0.1-0.8-0.1-1.2q0-0.2 0-0.3 0-0.2 0-0.3 0-0.2 0-0.3 0.1-0.2 0.1-0.3 0.1-0.1 0.1-0.2 0-0.1 0-0.2 0.1-0.2 0.1-0.3 0-0.1 0-0.2c0.1-0.2 0.1-0.4 0.1-0.6q0-0.1 0-0.1 0 0 0 0 0-0.1 0-0.1 0 0 0-0.1h-0.1c-0.1 0-0.1-0.1-0.2-0.1q0 0 0 0 0 0-0.1 0 0 0 0 0 0 0 0 0c-0.1 0-0.3-0.1-0.3-0.2q0 0 0 0 0-0.1 0-0.1 0 0 0 0 0-0.1 0-0.1 0 0 0-0.1 0 0 0 0-0.1-0.1-0.1-0.1 0 0 0 0 0-0.1 0-0.2-0.1 0-0.1-0.1 0 0 0.1-0.1 0 0 0-0.1l0.1-0.2c0-0.1 0.1-0.2 0.1-0.3 0-0.1 0.1-0.3 0.1-0.4q0-0.1 0-0.1 0.1-0.1 0.1-0.2 0 0 0-0.1 0-0.1 0-0.1 0-0.1 0-0.1 0 0 0-0.1 0 0 0 0 0-0.1 0-0.1 0-0.2 0-0.4 0-0.1 0-0.2 0-0.1 0-0.1 0-0.1 0-0.2 0-0.1 0-0.2l0.1-0.8c0-0.3 0.1-0.5 0.1-0.8l0.2-0.8c0.1 0 0-0.1 0.1-0.2q0 0 0-0.1 0 0 0.1-0.1 0 0 0-0.1 0-0.1 0-0.1 0-0.1 0-0.2 0-0.1 0-0.2 0-0.1 0-0.2 0-0.1 0-0.2 0-0.1 0-0.2c0-0.1 0.1-0.2 0-0.2q0 0-0.1 0 0-0.1 0-0.1-0.1 0-0.1 0 0 0-0.1 0h-0.1l-0.2-0.1-0.2-0.1q0 0 0 0 0 0 0 0-0.1 0-0.1 0 0 0 0 0c0 0 0.1-0.1 0.1-0.1q0 0 0-0.1 0 0 0.1 0 0 0 0-0.1 0 0 0 0 0-0.1 0.1-0.1 0-0.1 0-0.2 0.1-0.1 0.1-0.1 0-0.1 0-0.2 0.1-0.3 0.2-0.6 0.1-0.1 0.1-0.2 0-0.1 0.1-0.2 0-0.1 0.1-0.2 0-0.1 0-0.2 0.1-0.1 0.1-0.2 0 0 0.1-0.1 0 0 0-0.1 0.1-0.1 0.1-0.1 0-0.1 0-0.1 0.1 0 0.1-0.1 0 0 0-0.1 0.1 0 0.1 0 0-0.1 0.1-0.1 0-0.1 0-0.1 0.1-0.1 0.1-0.1 0 0 0.1-0.1 0.1-0.1 0.2-0.1l0.2-0.2q0 0 0.1 0 0 0 0.1 0 0-0.1 0.1-0.1 0 0 0.1 0l0.3-0.1q0 0 0 0 0 0 0.1 0 0 0 0 0 0 0 0 0 0.1 0 0.1 0 0 0 0 0 0.1 0 0.1 0 0 0 0 0c0.1 0 0.1-0.2 0-0.2q0 0 0-0.1 0 0 0 0 0 0 0-0.1-0.1 0-0.1 0 0-0.1 0-0.1 0 0 0 0 0-0.1 0-0.1 0 0 0 0 0 0 0.1-0.1 0 0 0 0 0 0 0 0 0.1 0 0.1 0c0-0.1 0.3-0.1 0.3-0.1 0 0 0 0 0 0q0 0 0-0.1 0 0 0 0 0 0 0 0 0 0 0 0c0-0.1 0-0.1-0.2-0.1-0.1-0.1-0.1-0.2-0.1-0.3q0 0 0 0 0-0.1 0-0.1 0 0 0 0 0 0 0-0.1 0 0 0 0 0 0 0 0 0 0 0 0 0 0 0-0.1 0 0-0.1 0 0-0.1 0-0.1-0.1-0.1-0.1-0.1 0 0-0.1 0c-0.1-0.1-0.2-0.2-0.3-0.2-0.1-0.1-0.1-0.2-0.2-0.3 0-0.1-0.1-0.1-0.1-0.2q0 0 0 0 0 0 0-0.1 0 0 0 0 0 0 0 0 0.1-0.1 0.1-0.1 0 0 0 0 0-0.1 0-0.1 0 0-0.1 0 0.1-0.1 0.1-0.1 0 0 0 0 0 0 0-0.1 0 0-0.1 0 0 0 0 0 0-0.1 0-0.1 0 0 0 0 0 0 0-0.1c-0.1 0 0 0-0.1-0.1-0.1 0 0-0.1 0-0.1q0 0 0-0.1 0 0 0 0 0 0 0.1 0 0 0 0 0l0.1-0.2q0.2-0.4 0.3-0.7 0.1-0.2 0.2-0.4 0.1-0.1 0.2-0.2 0.2-0.2 0.3-0.3 0.2-0.1 0.3-0.1 0.1 0 0.1-0.1 0.1 0 0.1 0 0 0 0.1 0 0 0.1 0 0.1 0.1 0 0.1 0 0 0 0.1 0 0 0 0 0 0.1 0 0.1 0 0.1 0 0.3 0 0 0 0.1 0 0.1 0 0.1 0 0.1 0 0.2 0 0 0.1 0.1 0.1 0 0 0 0 0 0 0 0 0 0 0.1 0 0 0 0 0.1c0 0 0 0 0 0h0.1l0.1 0.1c0.1 0.1 0.2 0.1 0.2 0.2q0 0 0 0 0 0.1 0.1 0.1 0 0 0 0.1 0 0 0 0 0 0 0 0 0 0.1 0 0.1 0 0 0 0 0 0 0 0.1c0 0 0 0.1 0 0.1v0.1c0 0.1 0.1 0.2 0.2 0.3q0 0 0 0 0 0 0 0 0 0.1 0 0.1 0 0 0 0 0 0 0 0 0 0.1 0 0.1 0 0 0 0 0 0 0 0.1 0 0 0 0.1 0 0 0 0 0 0 0 0.1 0 0 0.1 0 0 0 0 0 0 0 0 0.1 0 0 0 0 0 0 0 0 0 0 0 0 0 0.1 0 0.1c0.1 0.1 0.1 0.1 0.1 0.1q0 0.1 0 0.1 0 0 0 0 0 0 0 0 0 0.1 0 0.1c0 0.1-0.1 0.2 0 0.2 0.1 0.1 0.1 0.1 0.1 0.1q0 0 0 0.1 0 0 0 0 0 0 0 0 0 0 0 0.1 0 0-0.1 0 0 0.1-0.1 0.1 0 0 0 0.1-0.1 0-0.1 0l-0.2 0.1c-0.1 0-0.2 0-0.2 0-0.1 0-0.2-0.1-0.2-0.1 0 0.1 0 0 0 0.1 0.1 0.1 0 0.2 0 0.3"/>
			<path id="Layer" class="s2" d="m44 27.1l0.4 0.1-0.4-0.1q0.1 0 0.1-0.1 0-0.1 0.1-0.1 0-0.1 0-0.1 0-0.1 0-0.2l0.1 0.3c-44.3-26.9-44.3-26.9-44.3-26.9l44.2 26.6q0-0.1 0-0.1v0.1c0 0 0 0 0.1 0l-0.1-0.2 0.1-0.1c-1-0.9-1.3-0.8-1.6-0.6q-0.1 0.1-0.2 0.2-0.1 0.1-0.2 0.2-0.2 0.2-0.2 0.3-0.1 0.1-0.2 0.2l-0.2 0.2 0.1-0.1c0 0 0.2 0 0.3 0l-0.1 0.1 0.3-0.2q0 0.1 0 0.2 0.1 0.1 0.1 0.2 0 0 0.1 0.1 0 0.1 0.1 0.2l-0.3 0.1 0.3-0.1q0.2 0 0.3 0 0.2 0 0.4 0 0.1 0 0.3-0.1 0.2 0 0.3-0.1z"/>
			<path id="Layer" class="s5" d="m102.1 100.7h-6.1v-10.7h6.2v1.9h-3.9v2.3h3.6v1.9h-3.7v2.8h3.9z"/>
			<path id="Layer" class="s5" d="m102.9 103.3q0 0.3 0 0.5-0.1 0.3-0.2 0.6-0.1 0.2-0.3 0.4-0.2 0.3-0.4 0.4-0.3 0.2-0.6 0.3-0.3 0.2-0.6 0.3-0.4 0-0.7 0.1-0.3 0-0.7 0-0.2 0-0.4 0-0.2 0-0.3 0-0.2-0.1-0.4-0.1-0.2 0-0.4 0-0.2-0.1-0.3-0.1-0.2 0-0.3-0.1-0.2 0-0.3-0.1-0.1 0-0.3-0.1v-1.8q0.2 0 0.4 0.1 0.1 0.1 0.3 0.1 0.2 0.1 0.4 0.2 0.1 0 0.3 0.1 0.2 0 0.4 0 0.1 0.1 0.3 0.1 0.2 0 0.3 0 0.2 0 0.4 0.1 1.2-0.1 1.2-0.8 0 0 0-0.1 0 0 0-0.1-0.1 0-0.1-0.1 0 0-0.1-0.1 0 0-0.1-0.1-0.1 0-0.1-0.1-0.1 0-0.2-0.1 0 0-0.1-0.1-0.4-0.2-1.1-0.4-0.2-0.1-0.3-0.2-0.2-0.1-0.4-0.2-0.2-0.1-0.3-0.2-0.2-0.1-0.4-0.2-0.1-0.1-0.2-0.1 0-0.1-0.1-0.2-0.1-0.1-0.2-0.2 0-0.1-0.1-0.2-0.1-0.2-0.1-0.3 0-0.1-0.1-0.3 0-0.1 0-0.2 0-0.2 0-0.3 0-0.3 0-0.5 0.1-0.2 0.2-0.5 0.1-0.2 0.3-0.4 0.1-0.2 0.3-0.3 0.3-0.2 0.6-0.3 0.3-0.1 0.6-0.2 0.3-0.1 0.6-0.1 0.3 0 0.6 0 0.4 0 0.8 0 0.4 0.1 0.7 0.2 0.4 0 0.7 0.2 0.4 0.1 0.7 0.3l-0.6 1.6q-0.7-0.3-1.2-0.5-0.1 0-0.3-0.1-0.1 0-0.2 0-0.2-0.1-0.3-0.1-0.2 0-0.3 0-1 0-1 0.5 0 0.1 0 0.2 0.1 0.1 0.1 0.1 0 0.1 0.1 0.2 0.1 0 0.1 0.1 0.2 0.1 0.4 0.1 0.1 0.1 0.3 0.2 0.2 0.1 0.4 0.2 0.1 0 0.3 0.1 0.2 0.1 0.4 0.2 0.2 0 0.3 0.1 0.2 0.1 0.4 0.2 0.2 0.1 0.3 0.2 0.1 0.1 0.2 0.2 0.1 0.1 0.2 0.2 0.1 0.1 0.2 0.2 0 0.1 0.1 0.2 0 0.1 0.1 0.3 0 0.1 0.1 0.2 0 0.2 0 0.3 0 0.2 0 0.3z"/>
			<path id="Layer" class="s5" d="m104 107.9q-3.8 0-3.8-4.2-0.1-0.4 0-0.9 0-0.4 0.2-0.8 0.1-0.4 0.3-0.8 0.2-0.4 0.5-0.7 0.3-0.3 0.6-0.5 0.4-0.2 0.8-0.4 0.3-0.1 0.7-0.2 0.5 0 0.9 0 0.3 0 0.6 0 0.4 0.1 0.7 0.1 0.3 0.1 0.6 0.2 0.3 0.1 0.6 0.3l-0.6 1.7q-0.2-0.1-0.3-0.1-0.1-0.1-0.2-0.1-0.2-0.1-0.3-0.1-0.1 0-0.2-0.1-0.2 0-0.3 0-0.1-0.1-0.2-0.1-0.1 0-0.2 0-0.1 0-0.2 0-1.8 0-1.8 2.5c0 1.6 0.6 2.4 1.8 2.4q0.1 0 0.3 0 0.1-0.1 0.3-0.1 0.1 0 0.2 0 0.2-0.1 0.3-0.1 0.2 0 0.3-0.1 0.2-0.1 0.3-0.1 0.1-0.1 0.3-0.2 0.1-0.1 0.2-0.1v1.9q-0.1 0.1-0.2 0.1-0.2 0.1-0.3 0.2-0.1 0-0.3 0.1-0.1 0-0.3 0-0.1 0.1-0.3 0.1-0.2 0-0.3 0-0.2 0.1-0.4 0.1-0.1 0-0.3 0z"/>
			<path id="Layer" class="s5" d="m115.9 88.4q0.1 0 0.2 0 0.1 0 0.2 0 0.1 0 0.2 0 0.1 0 0.2 0.1l-0.2 2q-0.1 0-0.1 0-0.1 0-0.2 0-0.1 0-0.2 0-0.1 0-0.1 0-0.3 0-0.5 0-0.2 0-0.4 0.1-0.2 0.1-0.4 0.2-0.2 0.1-0.4 0.2-0.2 0.2-0.3 0.4-0.1 0.1-0.2 0.3 0 0.2-0.1 0.4 0 0.2 0 0.5v4.1h-2.2v-8.2h1.7l0.3 1.4h0.1q0.1-0.1 0.2-0.3 0.1-0.2 0.2-0.3 0.2-0.1 0.3-0.3 0.1-0.1 0.3-0.2 0.2-0.1 0.3-0.2 0.2-0.1 0.4-0.1 0.2-0.1 0.4-0.1 0.1 0 0.3 0z"/>
			<path id="Layer" class="s5" d="m143.1 117.4q0-1.1 1.2-1.1 1.2 0 1.2 1.1 0 0.1 0 0.3 0 0.1-0.1 0.2 0 0.1-0.1 0.2 0 0.1-0.1 0.1-0.1 0.1-0.2 0.2-0.1 0-0.2 0.1-0.1 0-0.3 0-0.1 0-0.2 0-1.2 0-1.2-1.1zm2.3 10.3h-2.2v-8.2h2.2z"/>
			<path id="Layer" class="s5" d="m115.2 97.1q0.2 0 0.4 0 0.1 0 0.3-0.1 0.2 0 0.4-0.1 0.1 0 0.3-0.1v1.7q-0.2 0.1-0.5 0.2-0.2 0-0.5 0.1-0.2 0-0.5 0.1-0.2 0-0.5 0-0.3 0-0.5 0-0.3-0.1-0.6-0.1-0.2-0.1-0.5-0.3-0.2-0.1-0.4-0.3-0.2-0.2-0.3-0.4-0.1-0.3-0.2-0.5-0.1-0.3-0.1-0.6 0-0.2 0-0.5v-4h-1.1v-0.9l1.3-0.8 0.6-1.7h1.4v1.7h2.3v1.7h-2.3v4q0 0.1 0 0.2 0 0.1 0.1 0.2 0 0.1 0.1 0.2 0 0 0.1 0.1 0.1 0.1 0.2 0.1 0 0 0.1 0.1 0.1 0 0.2 0 0.1 0 0.2 0z"/>
			<path id="Layer" fill-rule="evenodd" class="s5" d="m134.5 93.7l-0.5-1.1q-0.1 0.2-0.2 0.3-0.2 0.2-0.3 0.3-0.2 0.1-0.3 0.2-0.2 0.1-0.4 0.2-0.1 0.1-0.3 0.2-0.2 0-0.4 0-0.2 0.1-0.4 0.1-0.2 0-0.4 0-0.3 0-0.5 0-0.3-0.1-0.5-0.1-0.2-0.1-0.5-0.3-0.2-0.1-0.4-0.3-0.1-0.2-0.3-0.4-0.1-0.2-0.2-0.5-0.1-0.2-0.1-0.5-0.1-0.2-0.1-0.5 0-0.3 0.1-0.5 0-0.3 0.2-0.6 0.1-0.2 0.3-0.4 0.1-0.3 0.4-0.4 0.3-0.2 0.6-0.3 0.3-0.2 0.7-0.2 0.3-0.1 0.7-0.2 0.4 0 0.7 0h1.4v-0.4q0.1-0.2 0-0.5-0.1-0.3-0.2-0.5-0.2-0.2-0.5-0.3-0.3-0.1-0.6 0-0.3 0-0.6 0.1-0.3 0-0.6 0.1-0.2 0.1-0.5 0.2-0.3 0.1-0.6 0.2l-0.7-1.5q0.3-0.2 0.7-0.3 0.4-0.2 0.8-0.3 0.4-0.1 0.8-0.1 0.4-0.1 0.8-0.1 0.4 0 0.7 0.1 0.3 0 0.6 0.1 0.4 0.1 0.7 0.2 0.3 0.2 0.5 0.4 0.3 0.2 0.5 0.4 0.1 0.3 0.2 0.6 0.2 0.2 0.2 0.5 0.1 0.3 0 0.6v5.5zm-0.6-3.8h-0.9q-0.2 0-0.4 0-0.2 0-0.3 0.1-0.2 0-0.4 0.1-0.2 0.1-0.3 0.2-0.2 0-0.3 0.2 0 0.1-0.1 0.2-0.1 0.1-0.1 0.3 0 0.1 0 0.3c0 0.6 0.3 1 1.1 1q0.1 0 0.3-0.1 0.2 0 0.3 0 0.2-0.1 0.3-0.2 0.2-0.1 0.3-0.2 0.1-0.1 0.2-0.2 0.1-0.2 0.2-0.3 0-0.2 0.1-0.4 0-0.1 0-0.3z"/>
			<path id="Layer" class="s5" d="m132 84.8q-0.3-0.1-0.6 0-0.3 0.1-0.5 0.2-0.3 0.1-0.5 0.3-0.2 0.2-0.4 0.5-0.2 0.3-0.3 0.6-0.2 0.3-0.3 0.6-0.1 0.4-0.1 0.7 0 0.4 0 0.7 0 3.6 2.7 3.6 0.3 0 0.7 0 0.3-0.1 0.7-0.1 0.3-0.1 0.7-0.2 0.3-0.1 0.6-0.2v1.9q-0.3 0.1-0.7 0.2-0.4 0.1-0.8 0.2-0.3 0.1-0.7 0.1-0.4 0-0.8 0-0.5 0.1-1 0-0.5-0.1-0.9-0.3-0.5-0.2-0.9-0.5-0.4-0.2-0.7-0.6-0.4-0.4-0.6-0.9-0.3-0.5-0.4-1-0.2-0.5-0.3-1.1 0-0.5 0-1.1 0-0.3 0-0.7 0.1-0.4 0.1-0.8 0.1-0.3 0.2-0.7 0.2-0.3 0.3-0.7 0.2-0.3 0.3-0.6 0.2-0.2 0.4-0.5 0.3-0.2 0.5-0.4 0.3-0.3 0.6-0.4 0.3-0.2 0.6-0.3 0.3-0.2 0.7-0.2 0.3-0.1 0.6-0.2 0.4 0 0.7 0 0.4 0 0.8 0.1 0.5 0 0.8 0.1 0.4 0.1 0.8 0.2 0.4 0.2 0.8 0.4l-0.8 1.8q-0.1-0.1-0.3-0.1-0.1-0.1-0.3-0.2-0.1 0-0.3-0.1-0.1 0-0.3-0.1-0.1 0-0.2-0.1-0.2 0-0.3-0.1-0.2 0-0.3 0-0.2 0-0.3 0z"/>
			<path id="Layer" class="s5" d="m129.7 97.4q0-1.1 1.2-1.1 1.2 0 1.2 1.1 0 0.1 0 0.3 0 0.1-0.1 0.2 0 0.1-0.1 0.2 0 0.1-0.1 0.1-0.1 0.1-0.2 0.2-0.1 0-0.2 0.1-0.1 0-0.3 0-0.1 0-0.2 0-1.2 0-1.2-1.1zm2.3 10.3h-2.2v-8.2h2.2z"/>
			<path id="Layer" fill-rule="evenodd" class="s5" d="m146.1 98.9q-0.5 0-0.9-0.1-0.4 0-0.8-0.2-0.4-0.1-0.7-0.3-0.4-0.2-0.7-0.5-0.3-0.3-0.5-0.7-0.2-0.3-0.4-0.7-0.1-0.4-0.2-0.9 0-0.4 0-0.8 0-0.4 0-0.9 0.1-0.4 0.2-0.8 0.1-0.4 0.3-0.8 0.2-0.4 0.5-0.7 0.3-0.3 0.6-0.5 0.3-0.2 0.7-0.4 0.4-0.1 0.7-0.2 0.4 0 0.8 0 0.4 0 0.8 0 0.3 0.1 0.7 0.2 0.3 0.1 0.7 0.3 0.3 0.2 0.5 0.5 0.3 0.3 0.5 0.6 0.2 0.3 0.3 0.7 0.1 0.3 0.2 0.7 0.1 0.3 0 0.7v1.1h-5.2q0 0.2 0 0.4 0 0.2 0.1 0.4 0.1 0.2 0.2 0.4 0.1 0.1 0.2 0.3 0.2 0.1 0.4 0.2 0.1 0.1 0.3 0.2 0.2 0.1 0.4 0.1 0.2 0 0.4 0 0.2 0 0.4 0 0.1 0 0.3 0 0.2 0 0.4-0.1 0.1 0 0.3 0 0.2-0.1 0.4-0.1 0.1-0.1 0.3-0.1 0.2-0.1 0.3-0.2 0.2 0 0.4-0.1v1.7q-0.2 0.1-0.3 0.1-0.2 0.1-0.3 0.2-0.2 0-0.3 0.1-0.2 0-0.4 0-0.2 0.1-0.4 0.1-0.2 0-0.4 0.1-0.2 0-0.4 0-0.2 0-0.4 0zm-0.3-6.9q-0.2 0-0.4 0-0.1 0-0.3 0.1-0.1 0-0.2 0.1-0.2 0.1-0.3 0.2-0.1 0.2-0.2 0.3 0 0.2-0.1 0.3-0.1 0.2-0.1 0.4 0 0.1 0 0.3h3.1q0-0.2 0-0.3 0-0.2-0.1-0.4 0-0.1-0.1-0.3-0.1-0.1-0.2-0.3-0.1-0.1-0.3-0.2-0.1-0.1-0.2-0.1-0.2-0.1-0.3-0.1-0.2 0-0.3 0z"/>
			<path id="Layer" class="s5" d="m162.8 99.7h-2.3v-4.7q0.1-0.2 0-0.3 0-0.2 0-0.4-0.1-0.2-0.1-0.3-0.1-0.2-0.2-0.3-0.1-0.1-0.2-0.2-0.1-0.1-0.2-0.2-0.1 0-0.3-0.1-0.1 0-0.3 0-0.2 0-0.4 0-0.2 0.1-0.3 0.2-0.2 0-0.4 0.2-0.1 0.1-0.2 0.2-0.2 0.3-0.2 0.5-0.1 0.3-0.2 0.6 0 0.2-0.1 0.5 0 0.3 0 0.5v3.9h-2.2v-8.3h1.7l0.3 1.1h0.2q0-0.2 0.2-0.3 0.1-0.1 0.2-0.2 0.1-0.1 0.3-0.2 0.1-0.1 0.3-0.2 0.1-0.1 0.3-0.1 0.2-0.1 0.4-0.1 0.2-0.1 0.4-0.1 0.1 0 0.3 0 0.3 0 0.6 0 0.3 0.1 0.6 0.2 0.3 0 0.5 0.2 0.3 0.2 0.5 0.4 0.2 0.2 0.4 0.5 0.1 0.2 0.2 0.5 0.1 0.3 0.1 0.6 0.1 0.3 0.1 0.6z"/>
			<path id="Layer" class="s5" d="m173.5 95.1q0.2 0 0.4 0 0.2 0 0.3-0.1 0.2 0 0.4-0.1 0.2 0 0.3-0.1v1.7q-0.2 0.1-0.5 0.2-0.2 0.1-0.5 0.1-0.2 0-0.5 0.1-0.3 0-0.5 0-0.3 0-0.6 0-0.2-0.1-0.5-0.2-0.2 0-0.4-0.2-0.3-0.1-0.5-0.3-0.1-0.2-0.3-0.4-0.1-0.3-0.2-0.5 0-0.3-0.1-0.6 0-0.2 0-0.5v-4h-1.1l0.1-0.9 1.2-0.8 0.6-1.7h1.4v1.7h2.3v1.7h-2.3v4q0 0.1 0.1 0.2 0 0.1 0 0.2 0 0.1 0.1 0.2 0 0 0.1 0.1 0.1 0.1 0.2 0.1 0.1 0 0.2 0.1 0 0 0.1 0 0.1 0 0.2 0z"/>
			<path id="Layer" class="s5" d="m170.5 84.6v-0.1q0.2-0.3 0.4-0.6 0.3-0.3 0.5-0.5 0.2-0.3 0.4-0.6 0.2-0.3 0.4-0.6h2.5v0.2q-0.4 0.4-1.3 1.1-0.9 0.8-1.4 1.1zm2.3 9.1h-2.2v-8.2h2.2z"/>
			<path id="Layer" class="s5" d="m186.7 92.2h-1.9v6.5h-2.3v-6.5h-1.2v-1.1l1.2-0.6v-0.6q0-0.2 0-0.5 0.1-0.3 0.2-0.5 0.1-0.3 0.2-0.5 0.1-0.3 0.3-0.5 0.2-0.1 0.5-0.3 0.3-0.1 0.6-0.2 0.2-0.1 0.5-0.1 0.3 0 0.6 0 0.3 0 0.5 0 0.3 0 0.6 0.1 0.2 0 0.5 0.1 0.2 0.1 0.5 0.1l-0.6 1.7q-0.1-0.1-0.3-0.1-0.2 0-0.3-0.1-0.2 0-0.3 0-0.2 0-0.3 0-0.1 0-0.2 0-0.1 0-0.2 0-0.1 0.1-0.2 0.1-0.1 0.1-0.1 0.1-0.1 0.1-0.1 0.2-0.1 0.1-0.1 0.2 0 0.1 0 0.2 0 0.1 0 0.2v0.5h1.9zm1.2-3.8q0-1.1 1.2-1.1 1.2 0 1.2 1.1 0 0.1 0 0.2 0 0.1-0.1 0.2 0 0.1-0.1 0.2 0 0.1-0.1 0.2-0.1 0.1-0.2 0.1-0.1 0.1-0.2 0.1-0.1 0.1-0.3 0.1-0.1 0-0.2 0-1.2 0-1.2-1.1zm2.3 10.3h-2.2v-8.2h2.2z"/>
			<path id="Layer" class="s5" d="m191.9 97.9q-3.9 0-3.8-4.2-0.1-0.4 0-0.9 0-0.4 0.1-0.8 0.2-0.4 0.4-0.8 0.2-0.4 0.5-0.7 0.2-0.3 0.6-0.5 0.3-0.2 0.7-0.4 0.4-0.1 0.8-0.2 0.4 0 0.9 0 0.3 0 0.6 0 0.3 0.1 0.7 0.1 0.3 0.1 0.6 0.2 0.3 0.1 0.6 0.2l-0.6 1.8q-0.1-0.1-0.2-0.1-0.2-0.1-0.3-0.1-0.1-0.1-0.2-0.1-0.2 0-0.3-0.1-0.1 0-0.2 0-0.1-0.1-0.3-0.1-0.1 0-0.2 0-0.1 0-0.2 0-1.8 0-1.8 2.5c0 1.6 0.6 2.4 1.8 2.4q0.1 0 0.3 0 0.1 0 0.3-0.1 0.1 0 0.3 0 0.1-0.1 0.3-0.1 0.1 0 0.3-0.1 0.1-0.1 0.2-0.1 0.2-0.1 0.3-0.2 0.2-0.1 0.3-0.1v1.9q-0.1 0.1-0.3 0.1-0.1 0.1-0.2 0.2-0.2 0-0.3 0.1-0.2 0-0.3 0-0.2 0.1-0.4 0.1-0.1 0-0.3 0.1-0.2 0-0.4 0-0.2 0-0.3 0z"/>
			<path id="Layer" fill-rule="evenodd" class="s5" d="m194.5 108.7l-0.5-1.1q-0.1 0.2-0.2 0.3-0.2 0.2-0.3 0.3-0.2 0.1-0.3 0.2-0.2 0.1-0.4 0.2-0.1 0.1-0.3 0.2-0.2 0-0.4 0-0.2 0.1-0.4 0.1-0.2 0-0.4 0-0.3 0-0.5 0-0.3-0.1-0.5-0.1-0.3-0.1-0.5-0.3-0.2-0.1-0.4-0.3-0.2-0.2-0.3-0.4-0.1-0.2-0.2-0.5-0.1-0.2-0.1-0.5-0.1-0.2-0.1-0.5 0-0.3 0.1-0.5 0-0.3 0.2-0.6 0.1-0.2 0.3-0.4 0.1-0.3 0.4-0.4 0.3-0.2 0.6-0.3 0.3-0.2 0.7-0.2 0.3-0.1 0.7-0.2 0.4 0 0.7 0h1.4v-0.4q0.1-0.2 0-0.5-0.1-0.3-0.3-0.5-0.2-0.2-0.4-0.3-0.3-0.1-0.6 0-0.3 0-0.6 0.1-0.3 0-0.6 0.1-0.2 0.1-0.5 0.2-0.3 0.1-0.6 0.2l-0.7-1.5q0.3-0.2 0.7-0.3 0.4-0.2 0.8-0.3 0.4-0.1 0.8-0.1 0.4-0.1 0.8-0.1 0.3 0 0.7 0.1 0.3 0 0.6 0.1 0.4 0.1 0.7 0.2 0.3 0.2 0.5 0.4 0.3 0.2 0.4 0.4 0.2 0.3 0.3 0.6 0.1 0.2 0.2 0.5 0 0.3 0 0.6v5.5zm-0.6-3.8h-0.9q-0.2 0-0.4 0-0.2 0-0.4 0.1-0.1 0-0.3 0.1-0.2 0.1-0.4 0.2-0.1 0-0.2 0.2-0.1 0.1-0.1 0.2-0.1 0.1-0.1 0.3 0 0.1 0 0.3c0 0.6 0.3 1 1.1 1q0.1 0 0.3-0.1 0.2 0 0.3 0 0.2-0.1 0.3-0.2 0.2-0.1 0.3-0.2 0.1-0.1 0.2-0.2 0.1-0.2 0.2-0.3 0-0.2 0-0.4 0.1-0.1 0.1-0.3z"/>
			<path id="Layer" class="s4" d="m88.9 102.6h127.3v1h-127.3z"/>
		</g>
	</g>
</svg>