<?xml version="1.0" encoding="UTF-8"?><svg xmlns="http://www.w3.org/2000/svg" viewBox="0 0 245.07 229.97"><defs><style>.d{fill:#ffac5a;}.d,.e{isolation:isolate;}.f{fill:#fff;}.g{fill:#46b5c3;}.e{fill:#7cb8af;}</style></defs><g id="a"/><g id="b"><g id="c"><g><g><rect class="g" y="14.07" width="78.69" height="201.83"/><rect class="e" x="166.39" y="14.07" width="78.69" height="201.83"/><polygon class="d" points="78.85 0 78.85 14.07 78.85 215.9 78.85 229.97 166.23 229.97 166.23 215.9 166.23 14.07 166.23 0 78.85 0"/></g><path class="f" d="M186.8,181.72v-1.14c0-.76-.07-1.5-.07-2.26,0-.42-.06-.84-.07-1.26,0-.4-.06-.83-.09-1.22-.04-.53-.06-1.03-.05-1.56,0-.48-.08-.95-.07-1.43,0-.43-.07-.84-.07-1.27,0-.46,.02-.92-.01-1.38-.07-.95-.05-1.89-.05-2.84,0-1.18-.1-2.41,.12-3.57,.09-.49,.31-.95,.42-1.44,.11-.45,.32-.87,.46-1.31,.19-.59,.48-1.13,.71-1.7,.24-.6,.64-1.13,.92-1.71,.11-.24,.25-.46,.38-.69,.07-.12,.13-.25,.21-.36s.22-.23,.26-.36c.02-.06,0-.13,.01-.19,0-.1,.04-.16,.05-.25,.04-.22,0-.44,.01-.66,.01-.27,.07-.51,.07-.79,0-.28,.06-.53,.07-.81,.03-.63,0-1.27,0-1.9,0-.4-.05-.79-.07-1.19-.02-.42,0-.81-.05-1.23-.09-.7-.15-1.4-.15-2.12,0-.37,0-.73,0-1.1,0-.37,.06-.72,.07-1.09,0-.45,.11-.89,.14-1.33,.04-.57,.1-1.12,.19-1.68,.08-.5,.02-1.06,.02-1.57,0-.31-.06-.61-.08-.91-.02-.32,0-.65,0-.97l-.55-3.42c-.08-.56-.16-1.12-.26-1.67-.16-.93-.19-1.88-.38-2.8-.15-.73-.16-1.49-.24-2.23-.05-.43,.01-.86-.07-1.29-.11-.56-.01-1.24,.1-1.78,.09-.4,.15-.78,.29-1.17s.3-.8,.4-1.22c.08-.34,.16-.6,.15-.95,0-.39,.05-.82-.02-1.2-.14-.81-.3-1.61-.44-2.42-.05-.27-.07-.52-.09-.8-.01-.25-.09-.49-.13-.73s0-.5-.01-.75c0-.15-.04-.27-.06-.42-.02-.16,0-.32-.03-.48-.09-.58-.05-1.17-.05-1.76,0-.63-.07-1.31,.02-1.94,.13-.97,.22-1.98,.53-2.92,.1-.3,.11-.63,.19-.94,.07-.26,.15-.53,.21-.8,.1-.48,.14-.95,.21-1.43,.05-.36,.09-.7,.08-1.07,0-.25,.06-.49,.07-.74s-.04-.52,.01-.77c.07-.37,.12-.72,.12-1.1,0-.34,0-.68,0-1.02,0-.52,.1-1.18-.44-1.46-.25-.13-.48-.28-.72-.43-.27-.16-.56-.27-.83-.43-.25-.16-.56-.2-.8-.38-.26-.19-.56-.37-.81-.59-.22-.2-.37-.64-.43-.93-.07-.34-.03-.79,0-1.14,.03-.47,.13-.92,.13-1.4,0-.13,.02-.28-.02-.41-.03-.11-.04-.27-.09-.37-.08-.14-.25-.23-.37-.33-.06-.04-.14-.16-.21-.2-.11-.07-.23-.07-.34-.14-.33-.22-.61-.51-.94-.72-.36-.23-.7-.59-.98-.91-.29-.32-.6-.66-.86-1-.12-.16-.16-.36-.23-.54-.08-.21-.19-.36-.26-.58-.05-.16-.12-.29-.21-.43-.05-.08-.12-.17-.15-.26l-.34-3.22c-.16-.57-.31-1.16-.39-1.75-.04-.27-.08-.54-.12-.8-.03-.19-.01-.39-.05-.58-.07-.36-.05-.71-.05-1.07,0-.17,.05-.31,.07-.48,.02-.21,0-.38,.05-.58,.08-.34,.18-.67,.24-1.01,.04-.21,.07-.42,.12-.63,.08-.34,.08-.69,.16-1.04,.05-.22,.07-.44,.1-.66,.03-.29,.11-.56,.15-.84,.08-.61,.2-1.22,.28-1.83,.14-1.04,.13-2.08,.14-3.13,0-.67-.15-1.34-.14-2.02,0-.55-.14-1.07-.21-1.61-.06-.47-.14-.94-.14-1.41,0-.43-.07-.84-.07-1.27,0-.24-.02-.49,0-.73s.08-.45,.07-.7c0-.38,.09-.71,.22-1.06,.12-.32,.31-.6,.46-.9,.17-.34,.34-.66,.45-1.02,.09-.28,.07-.53,.1-.81,.02-.16,.06-.35,.09-.52,.03-.18,.04-.34,.05-.53,0-.21,.08-.39,.07-.6,0-.19,.05-.34,.07-.53,.02-.15-.02-.3,.01-.44,.04-.21,.1-.44,.16-.65,.08-.31,.25-.57,.38-.86s.3-.46,.49-.71c.16-.21,.32-.41,.51-.59,.16-.16,.32-.32,.48-.47,.26-.26,.54-.48,.8-.73,.45-.43,.87-.9,1.32-1.33,.46-.44,.98-.81,1.49-1.19,.47-.35,.91-.73,1.41-1.02,.34-.2,.68-.47,1.04-.62,.21-.09,.45-.11,.66-.2,.23-.1,.45-.17,.69-.24,.83-.25,1.7-.39,2.55-.55,.33-.06,.65-.07,.97-.17,.35-.11,.72-.22,1.04-.4,.17-.09,.32-.23,.48-.33s.22-.16,.25-.36c.04-.29-.06-.62,0-.91,.03-.16,.15-.27,.29-.33,.22-.09,.4-.13,.6-.26,.33-.21,.65-.19,.84-.58,.15-.31,.22-.58,.58-.7,.16-.06,.29-.09,.44-.17l.53-.36c.21-.09,.69-.29,.72-.56,.01-.1-.09-.18-.11-.26-.04-.15-.05-.31-.08-.47-.05-.27-.18-.53-.19-.8,0-.11,0-.23,0-.34,0-.1,.05-.35-.01-.44-.05-.06-.25-.06-.33-.08-.17-.04-.29-.11-.43-.21-.17-.12-.37-.21-.52-.34-.14-.12-.25-.33-.32-.49-.12-.29-.03-.63,.08-.9,.06-.14,.1-.25,.07-.39-.03-.19-.18-.39-.26-.57-.05-.11-.18-.29-.2-.41-.02-.14,.07-.35,.13-.46,.14-.3,.25-.66-.23-.69-.85-.05-1.25-.7-1.43-1.46-.17-.71,.14-1.44,.38-2.1,.03-.1,.06-.19,.12-.28,.03-.05,.11-.07,.13-.13,.04-.11-.05-.35-.08-.47-.08-.32-.05-.65,.1-.96,.06-.11,.17-.21,.22-.32,.06-.13,.04-.28,.04-.43,0-.18,0-.36,.05-.54,.08-.23,.15-.5,.29-.7,.13-.18,.28-.36,.43-.51,.11-.11,.4-.31,.46-.46,.05-.13,0-.33,0-.46,0-.23-.01-.46,.03-.69,.09-.49,.37-.9,.67-1.28s.67-.63,1.08-.88c.13-.08,.31-.15,.41-.25,.12-.12,.23-.29,.34-.43,.27-.35,.73-.62,1.13-.81,.34-.16,.78-.25,1.15-.27,.17,0,.3-.04,.46-.07,.08-.01,.16,.02,.24,0,.1-.03,.17-.13,.26-.2,.17-.14,.37-.26,.58-.34s.4-.21,.61-.28c.26-.08,.45,0,.71,0,.3,0,.58,.04,.87,.12,.22,.06,.35,.16,.51,.29,.09,.07,.25,.3,.34,.33,.12,.04,.35-.07,.46-.11,.26-.1,.53-.21,.81-.23,.34-.03,.61,.02,.9,.21,.09,.06,.22,.11,.28,.21,.02,.03,0,.1,.02,.13,.12,.22,.21,.23,.45,.19,.43-.07,.87-.29,1.3-.2,.16,.03,.41,.05,.5,.21,.03,.06,.05,.14,.08,.21,.03,.06,.05,.17,.08,.21,.1,.15,.33,.04,.46,.01,.2-.04,.4-.06,.6-.1s.39-.06,.58-.1c.22-.06,.38,.02,.59,.06,.17,.03,.35,.06,.42,.24,.06,.16,.07,.34,.07,.51,0,.17,.02,.34,.13,.48,.13,.16,.34,.27,.4,.48,.04,.13,0,.28,0,.41,.01,.22,.08,.32,.21,.48,.11,.14,.15,.3,.19,.47,.05,.21,.14,.17,.35,.23,.03,.14,.02,.32,.01,.47s-.1,.22,0,.34l.36,1.04c.06,.28,.13,.56,.2,.84,.13,.49,.28,.96,.39,1.44,.02,.07,.07,.17,.08,.24,0,.09-.1,.28-.14,.36-.15,.27-.3,.53-.44,.81-.12,.23-.2,.47-.28,.72-.08,.24-.21,.44-.24,.7-.03,.23-.07,.43-.07,.66,0,.24,.02,.44,.07,.67,.04,.21,.08,.4,.15,.6,.09,.25,.3,.42,.47,.62,.08,.1,.16,.21,.24,.31,.07,.09,.07,.14,.11,.23,.05,.12,.15,.21,.23,.31,.09,.11,.1,.23,.17,.34,.19,.33,.69,.67,.62,1.1-.04,.22-.24,.44-.37,.61-.03,.04-.04,.09-.08,.13-.05,.05-.12,.05-.17,.11-.08,.08-.1,.19-.2,.26-.17,.14-.41,.21-.62,.27-.23,.07-.46,.17-.68,.3,0,.11,.06,.23,.06,.35,0,.11,0,.23,0,.34,0,.22-.17,.45-.14,.67,.05,.41,.55,.7,.4,1.16-.03,.11-.1,.18-.12,.29-.02,.1-.02,.23-.02,.32,0,.11,.1,.25,.1,.35,0,.12-.15,.2-.21,.29-.14,.18-.31,.41-.39,.62-.04,.11-.1,.21-.07,.33,.02,.1,.1,.17,.13,.27s.07,.26,.07,.36c0,.11-.07,.22-.08,.34,0,.17,.04,.37-.01,.53-.07,.23-.41,.24-.6,.29-.12,.03-.23,.1-.36,.12-.1,.02-.28,.08-.38,.07-.12,0-.23-.07-.36-.08-.1,0-.19,0-.29,0-.23,0-.51,.04-.74-.02-.22-.05-.43-.05-.67-.05-.18,0-.39,.04-.56-.05,0,.25,.26,.52,.41,.72,.16,.21,.25,.51,.55,.56,.21,.03,.48,.03,.62,.21s.04,.49,.06,.72c.02,.17,.11,.46,.22,.59,.06,.07,.19,.14,.27,.18,.17,.09,.29,.18,.45,.29,.48,.33,1.05,.54,1.58,.77,.15,.06,.26,.16,.41,.21,.11,.04,.22,.08,.33,.12,.34,.12,.68,.15,1.02,.26,.34,.11,.69,.24,1.03,.36,.19,.07,.38,.11,.56,.2,.22,.11,.47,.16,.68,.28,.17,.09,.32,.19,.49,.28,.16,.08,.34,.11,.5,.19,.15,.07,.32,.14,.46,.22,.17,.1,.29,.23,.48,.27,.35,.07,.58,.31,.88,.49,.28,.16,.64,.3,.88,.52,.13,.12,.23,.24,.37,.34,.15,.12,.32,.25,.43,.4,.22,.29,.37,.63,.52,.96,.14,.3,.24,.68,.3,1.01,.09,.45,.2,.89,.29,1.34,.07,.35,.26,.67,.34,1.03,.08,.35,.24,.68,.34,1.03,.08,.26,.19,.55,.22,.82,.01,.12-.01,.24,.01,.36,.03,.14,.05,.25,.05,.4,0,.14,0,.27,0,.41,0,.2-.07,.36-.13,.55-.05,.18-.04,.36-.1,.54s-.14,.35-.18,.53c-.1,.36-.15,.74-.2,1.11-.04,.31-.1,.64-.09,.96,.01,.34,.09,.65,.31,.92,.1,.12,.18,.12,.31,.18,.15,.07,.29,.2,.43,.29,.52,.35,.71,.89,.89,1.46,.1,.33,.18,.72,.19,1.07,0,.2,0,.4,0,.6s-.1,.35-.06,.54c.06,.26,.12,.52,.21,.77,.12,.32,.36,.53,.53,.82,.19,.32,.38,.66,.55,.99,.2,.4,.27,.87,.44,1.29,.14,.36,.27,.71,.41,1.07,.06,.16,.09,.3,.11,.46,.02,.19,.12,.35,.14,.52l.55,2.05c.02,.41,.05,.84,.1,1.25,.04,.33,.05,.67,.12,.99,.07,.33,.16,.66,.22,1,.03,.17,.07,.34,.1,.51,.02,.18-.01,.37,.01,.55,.05,.41,.13,.87,.06,1.29s-.2,.81-.3,1.22c-.07,.28-.07,.58-.15,.85-.09,.3-.15,.58-.21,.89-.05,.27-.1,.54-.17,.81-.08,.3-.04,.61-.1,.91-.05,.23,.04,.4,.06,.63s.06,.41,.12,.62c.1,.37,.14,.83,.05,1.21-.1,.44-.19,.88-.35,1.3-.18,.47-.42,.9-.69,1.33-.12,.2-.22,.42-.32,.63-.06,.11-.13,.2-.19,.31-.07,.12-.1,.25-.2,.36-.08,.09-.18,.13-.26,.2-.1,.09-.14,.2-.23,.3-.11,.12-.26,.18-.37,.3-.17,.2-.3,.45-.43,.68-.15,.28-.33,.56-.49,.84-.21,.36-.31,.79-.55,1.12-.07,.09-.14,.17-.21,.26-.1,.15-.1,.3-.18,.45-.09,.19-.21,.37-.24,.58-.02,.15,.11,.3,.14,.44,.06,.27-.2,.51-.37,.69-.44,.45-.99,.78-1.44,1.23-.32,.32-.72,.83-.45,1.3,.1,.17,.24,.34,.37,.48,.07,.07,.13,.14,.21,.2,.11,.09,.17,.07,.29,.12,.08,.03,.18,.09,.25,.13,.13,.07,.19,.16,.24,.29,.1,.24,.07,.5,.07,.75,0,.17,0,.33,0,.5,0,.14-.06,.26-.07,.4-.03,.28,0,.58,0,.86l-.07,3.01c.39,1.41,.64,2.85,1.05,4.25,.11,.38,.19,.83,.19,1.23,0,.18,.02,.36-.02,.53-.04,.15-.11,.29-.14,.45-.06,.3-.18,.58-.26,.87-.11,.4-.23,.8-.33,1.21-.09,.38-.2,.77-.33,1.14-.07,.21-.14,.44-.17,.66-.11,.77-.31,1.58-.19,2.38,.07,.49,.19,1.01,.19,1.51,0,.56,.07,1.09,.07,1.64,0,.27,0,.55,0,.82,0,.14,.02,.29,0,.43-.01,.12-.06,.22-.08,.33-.02,.22,.02,.45,0,.67,0,.17-.06,.32-.08,.49-.01,.17,0,.36,0,.53,0,.58,0,1.16,0,1.74,0,.18-.05,.34-.07,.52-.03,.29,0,.6,0,.89v4.89c0,.39,0,.78,0,1.17,0,.34-.07,.65-.07,.99,0,.99,0,1.97,0,2.96,0,.21-.03,.41-.05,.62-.04,.29-.02,.6-.02,.89,0,.23,0,.45,0,.68,0,.35,.1,.71,.07,1.06v11.57c-.02,.24-.07,.46-.07,.7,0,.32,.01,.63,0,.95-.01,.74-.12,1.48-.14,2.22-.04,1.34,0,2.69,0,4.02,0,.58,0,1.16,0,1.75,0,.71,.11,1.43,.14,2.14,.02,.47-.02,.94,.01,1.41,.02,.27,.1,.5,.13,.76s-.01,.51,0,.76c.02,.92,.22,1.82,.21,2.74,0,.28,.06,.55,.07,.82,.02,.45,0,.92,0,1.37,0,.34,0,.68,0,1.03,0,.33-.06,.63-.12,.96-.11,.58-.18,1.13-.45,1.66-.23,.46-.61,.88-.72,1.37-.04,.19-.02,.4-.02,.6,0,.12,0,.25,0,.37,0,.16,.07,.29,.07,.45,0,.22-.03,.45,.01,.67,.07,.32,.04,.56,0,.88-.05,.32,0,.67,0,1s-.1,.63-.14,.94c-.04,.35-.12,.69-.22,1.03-.09,.3-.12,.61-.3,.87-.3,.44-.51,.91-.75,1.39-.26,.53-.29,1.17-.41,1.74-.06,.27-.06,.57-.1,.84s-.02,.57-.08,.85c-.08,.35-.13,.71-.22,1.06-.09,.35-.21,.67-.27,1.03-.07,.39-.3,.75-.46,1.12-.13,.31-.22,.62-.35,.92-.12,.28-.28,.55-.41,.83-.07,.14-.11,.3-.18,.43-.08,.15-.21,.26-.29,.42l-.49,1.73c-.03,.13,.06,.17,.12,.27,.05,.08,.08,.19,.09,.28,.02,.17,.04,.45,0,.62-.04,.2-.17,.4-.23,.6-.03,.12-.16,.48-.06,.55,.05,.04,.21,.07,.28,.1,.11,.05,.18,.04,.3,.05,.22,.02,.43,.12,.65,.14,.21,.02,.4,.07,.61,.06,.24,0,.48,.01,.71,.07,.21,.05,.33,.2,.48,.34,.17,.17,.37,.33,.49,.54,.3,.5,.72,.95,1.13,1.36,.21,.21,.41,.4,.63,.58,.24,.19,.44,.42,.7,.6,.5,.35,1.05,.61,1.56,.94,.28,.18,.53,.38,.81,.57,.16,.11,.34,.22,.49,.34,.11,.09,.34,.28,.4,.41,.07,.16,0,.34-.08,.48-.1,.2-.2,.34-.38,.48s-.22,.12-.43,.13c-.16,0-.29,.07-.46,.07-.16,0-.33,0-.49,0-.41,0-.8-.08-1.22-.07-.21,0-.4,.07-.62,.07-.19,0-.37,0-.56,0-.43,0-.83,.07-1.27,.07-.2,0-.38,.07-.59,.07-.2,0-.4,0-.6,0-.15,0-.31,.02-.46,0-.12-.01-.22-.06-.34-.08-.25-.03-.51,.03-.75,0-.14-.01-.27-.07-.42-.08-.09,0-.19,.02-.29,0-.22-.03-.44-.13-.67-.14-.26-.02-.53,0-.79,0-.18,0-.39-.03-.56,0-.09,.01-.16,.05-.25,.07-.06,.01-.23,.06-.28,.05-.13,0-.28-.07-.41-.11-.37-.12-.74-.22-1.11-.29-.18-.03-.38-.07-.55-.15-.09-.04-.21-.09-.25-.19-.03-.08,0-.16-.02-.25s-.11-.17-.14-.25c-.03-.07-.02-.19-.12-.2-.12-.01-.39,.16-.48,.23-.28,.2-.66,.39-.84,.68-.21,.35-.51,.66-.93,.67-.2,0-.35-.05-.55-.07-.19-.02-.39,.01-.58,0-.26,0-.5-.07-.77-.07-.24,0-.45-.07-.69-.07-.47,0-.94,0-1.4,0-.22,0-.41-.04-.61-.12-.1-.04-.21-.08-.28-.16-.06-.07-.07-.15-.13-.21-.06-.06-.14-.08-.21-.13-.07-.06-.14-.14-.21-.21-.15-.15-.27-.26-.33-.48-.03-.1-.08-.24-.09-.34,0-.09,.04-.12,.06-.2,.04-.15,.02-.34,.02-.5,0-.33-.06-.66-.34-.88-.18-.14-.42-.21-.55-.41-.1-.14-.12-.31-.13-.48-.01-.19-.07-.36-.07-.56,0-.27,0-.54,0-.81,0-.32-.03-.66,0-.98s.07-.59,.07-.9c0-.37-.03-.76,0-1.13,0-.12,.06-.22,.08-.35,.02-.16,0-.35,0-.51,0-1.7,.37-3.39,.85-5.02,.18-.61,.33-1.2,.46-1.82,.11-.52,.28-1.01,.4-1.52l.41-2.01c-.02-.09,.06-.31,.08-.41,.03-.12,.05-.21,.05-.34,0-.16,0-.32,0-.48,0-.17,.05-.31,.07-.48s-.03-.34,0-.51,.08-.31,.12-.47c.08-.33,.01-.73,.02-1.06,0-.19-.02-.35-.05-.53-.05-.25-.02-.54-.02-.79,0-.26-.06-.49-.07-.74-.02-.25,0-.51,0-.76,0-.6,.07-1.19,.07-1.79,0-.84,.08-1.7,.22-2.52,.06-.36,.12-.74,.12-1.1,0-.29,.05-.56,.07-.84,.02-.31,.04-.64,.08-.95,.05-.35,.04-.7,.09-1.06,.07-.57,.08-1.22,.03-1.79-.03-.34-.07-.69-.12-1.03-.03-.27,0-.54-.01-.81s-.08-.57-.13-.84c-.04-.27-.04-.52-.1-.79-.1-.44-.18-.88-.28-1.31-.18-.89-.35-1.78-.47-2.67-.02-.15-.06-.29-.06-.44,0-.08,.01-.16,0-.24-.02-.19-.11-.38-.16-.57-.07-.23-.12-.47-.12-.72,0-.63,.07-1.2,.29-1.8,.14-.38,.35-.73,.6-1.05,.09-.12,.24-.2,.28-.36,.03-.1,0-.27,0-.37,0-.17-.03-.37-.08-.54-.02-.07-.09-.13-.11-.21-.03-.1,0-.2-.02-.31-.03-.14-.11-.27-.14-.43-.03-.18-.1-.35-.12-.53-.03-.19-.05-.38-.08-.57-.04-.25-.02-.48-.05-.73-.02-.21-.1-.36-.06-.57,.03-.19,.06-.37,.05-.57,0-.47,.12-.91,.22-1.36,.11-.49,.11-1.01,.24-1.5,.38-1.51,.64-3.09,.07-4.58-.17-.45-.25-.93-.4-1.39-.13-.41-.19-.85-.36-1.25-.2-.49-.26-1.04-.33-1.57-.07-.53-.19-1.05-.26-1.58-.08-.58-.16-1.19-.15-1.78s-.04-1.14-.06-1.71l-.07-3.13c-.18,.23-.14,.55-.14,.82,0,.27-.07,.49-.07,.75,0,.23-.05,.43-.07,.65,0,.13-.05,.25-.09,.37-.06,.18-.1,.36-.17,.53-.13,.32-.23,.65-.36,.96-.08,.18-.17,.34-.22,.53-.02,.07-.03,.18-.06,.25-.05,.11-.14,.18-.18,.3-.13,.36-.23,.73-.34,1.1-.11,.39-.27,.8-.35,1.2-.06,.3-.05,.62-.12,.91-.08,.34-.03,.72-.03,1.07v1.04c0,.19,0,.39,0,.59,0,.29-.06,.56-.08,.85-.01,.21-.06,.42-.06,.63,0,.31-.01,.6-.05,.91-.08,.55-.01,1.13-.1,1.69-.07,.47-.05,.95-.11,1.43-.07,.55-.12,1.11-.2,1.66-.07,.49-.1,.98-.17,1.47-.03,.22-.06,.45-.1,.67-.04,.19,0,.38-.05,.57s-.04,.36-.08,.54c-.05,.2-.11,.4-.17,.6-.11,.33-.17,.69-.27,1.03-.05,.16-.1,.31-.14,.48-.05,.18-.03,.35-.07,.53-.07,.35-.05,.69-.05,1.04,0,.16,0,.32,0,.47,0,.19,.07,.36,.07,.55s.04,.32,.07,.49c.04,.2-.01,.44,0,.64,0,.19,.07,.37,.07,.56,0,.24,0,.47,0,.71,0,.45,.05,.92-.02,1.36-.08,.58-.03,1.17-.14,1.76-.04,.25-.05,.48-.05,.74,0,.34-.05,.7-.09,1.04-.06,.56-.12,1.12-.17,1.67-.03,.28,0,.57-.03,.86-.04,.32-.06,.6-.05,.93,0,.49-.1,.96-.07,1.45,.02,.31,.07,.6,.07,.92,0,.29,.05,.56,.07,.85,.01,.2-.01,.41,0,.62s.06,.41,.08,.62c.02,.32,0,.64,0,.96,0,.77,.04,1.55,0,2.31,0,.16-.07,.3-.08,.46-.01,.19,.01,.38-.01,.57-.04,.31-.08,.61-.14,.91-.15,.76-.29,1.53-.43,2.29-.12,.63-.35,1.24-.52,1.86-.15,.55-.34,1.13-.4,1.7-.05,.44-.15,.87-.22,1.31-.04,.22-.06,.43-.11,.65-.03,.15-.11,.32-.09,.48l-.62,2.53c-.1,.21-.08,.46-.12,.69-.04,.26,0,.53-.01,.8,0,.26-.07,.51-.07,.77,0,.35-.06,.73-.15,1.07-.14,.52-.27,1.07-.34,1.6-.04,.28-.13,.62-.24,.89-.12,.28-.16,.58-.29,.86-.19,.41-.36,.84-.53,1.26-.18,.44-.53,.79-.77,1.21s-.63,.79-.97,1.15c-.15,.15-.33,.26-.48,.41-.12,.11-.22,.25-.35,.35-.13,.12-.3,.19-.45,.29-.37,.24-.68,.54-1.04,.79-.16,.11-.32,.22-.48,.32s-.28,.32-.36,.49c-.14,.32-.13,.63-.06,.96,.03,.16,0,.33,.01,.49,.02,.21,.08,.38,.07,.6,0,.19-.07,.37-.07,.56,0,.14,.05,.35-.06,.45s-.29,.07-.42,.1c-.23,.05-.45,.2-.67,.28-.37,.13-.76,.19-1.14,.31-.19,.06-.39,.11-.58,.17s-.42,.06-.63,.1c-.16,.03-.33,.02-.5,.02-.2,0-.34,.04-.53,.07-.21,.04-.43-.03-.62-.06-.17-.03-.35,0-.53-.01-.2,0-.37-.06-.57-.07-.19,0-.34-.1-.52-.13-.2-.03-.37-.01-.56-.09-.21-.08-.39-.15-.61-.2-.3-.07-.56-.23-.84-.35s-.6-.41-.62-.75c-.04-.82,0-1.65,0-2.47,0-.38-.04-.73-.12-1.1-.04-.2,.05-.35,.05-.55,.01-.22,0-.45,0-.67,0-.18-.06-.31-.07-.48-.02-.19,.02-.31-.07-.48-.1-.19-.11-.35-.15-.55-.02-.1-.08-.19-.11-.29-.03-.13-.04-.26-.07-.39-.09-.4-.27-.74-.49-1.09-.12-.18-.21-.38-.34-.55-.18-.24-.27-.5-.41-.77-.22-.41-.38-.88-.41-1.35-.02-.32,.01-.65,.06-.97,.07-.52,.06-1.06,.17-1.58,.12-.56,.39-1.11,.46-1.68,.03-.25,.12-.45,.19-.68s.08-.49,.17-.7c.09-.22,.28-.42,.39-.63,.04-.09,.05-.19,.1-.27,.05-.1,.14-.18,.19-.27,.16-.25,.21-.58,.34-.86,.14-.31,.24-.6,.33-.93,.14-.53,.26-1.08,.43-1.6,.08-.23,.17-.49,.21-.73,.04-.26,.11-.53,.14-.79,.01-.13-.02-.27,0-.4,.02-.14,.07-.26,.07-.41,0-.2,0-.4,0-.6v-1.57"/><path class="f" d="M102.68,134.6c.01-1.21-.2-2.38-.3-3.59-.14-1.59-.18-3.18-.3-4.78s-.31-3.3-.48-4.95c-.16-1.5-.46-3-.49-4.51-.04-2.4-.13-4.96,.36-7.31,.15-.73,.31-1.6,.36-2.36,.02-.31,.04-.72-.04-1.01-.36,.16-.94,.3-1.26-.12-.38-.48,.29-1.38,.49-1.81,.65-1.35,1.35-2.63,2.17-3.9,.25-.39,.32-.75,.5-1.17,.13-.29,.28-.52,.23-.86-.09-.51-.51-.85-.96-1.02-.88-.33-1.86-.36-2.62-.98-.83-.68-1.11-1.82-1.34-2.82-.29-1.27-.04-2.62,.18-3.88,.22-1.22-.02-2.54,.03-3.77,.03-.79,.26-1.52,.17-2.32-.07-.68-.26-1.36-.38-2.03-.38-2.08-.44-4.09-.33-6.2,.08-1.48,.25-2.95,.34-4.42,.04-.64,.01-1.27,.03-1.9,.02-.97,.17-1.93,.19-2.89,.03-1.9,.07-3.83,0-5.72-.03-.82-.2-1.61-.18-2.44,.02-1-.23-1.97-.19-2.97s.23-1.94,.71-2.84c.16-.3,.39-.57,.53-.87s.17-.6,.32-.87c.29-.55,1.13-1.05,1.73-1.25s1.2-.3,1.57-.94c.16-.28,.16-.6,.41-.83,.39-.36,1-.46,1.5-.57,.7-.15,1.35-.22,1.77-.82l.7-.87c-.61-.6-1.29-1.19-1.75-1.93-.2-.31-.14-.34-.01-.63-.26-.22-.43-.72-.57-1.01-.17-.36-.23-.72-.31-1.11-.4-.09-.65,.06-.89-.35-.28-.49,.05-1.07-.15-1.56-.43-.02-.9-.16-1.07-.58-.25-.58,.29-1.06,.56-1.5-.32-.06-.54-.03-.78-.3-.39-.45-.31-1.01-.06-1.52,.28-.56,.68-1.11,1.2-1.45,.27-.18,.5-.21,.57-.55,.03-.17-.03-.37-.09-.55-.2-.59-.36-1.06-.22-1.69s.46-1.24,.97-1.65c.18-.15,.42-.23,.48-.45-.61-.5-.71-1.7-.68-2.4,.03-.86,.29-1.51,.87-2.16,.41-.46,.94-.77,1.37-1.21-.11-.12-.27-.2-.36-.34-.51-.79,.41-2.06,.84-2.61,.6-.77,1.45-1.57,2.33-2.02,.2-.1,.46-.16,.5-.4-.17-.09-.17-.26-.18-.43-.06-.98,1.02-1.78,1.69-2.31,1.23-.95,2.54-1.57,4.06-1.86,.2-1.58,2.48-2.31,3.8-2.54,.74-.13,1.72-.16,2.27,.49,.18,.21,.14,.41,.39,.53,.17,.09,.9-.01,1.04-.02,.75,0,1.54-.07,2.26,.15,.58,.18,1.2,.58,1.25,1.25,.02,.31-.13,.75-.03,1.05s.24,.28,.53,.33c.84,.14,1.5,.3,2.21,.84,.3,.23,.63,.55,.73,.92,.05,.18-.09,.7,.05,.84,.06,.06,.83,.16,.89,.18,.75,.25,1.8,.54,2.22,1.28,.22,.39,.26,.94,.13,1.36-.07,.25-.22,.38-.11,.65,1.26,.34,3.2,.95,2.77,2.65-.09,.37-.29,.7-.1,1.03,.1,.17,.51,.39,.68,.51,.55,.38,.96,.56,1.18,1.22,.25,.77,.23,1.57-.21,2.26-.2,.3-.33,.37-.14,.7s.45,.51,.63,.9c.2,.42,.36,.87,.37,1.33,.01,.87-.3,1.61-.81,2.27,.83,.08,1.44,1.24,1.52,1.96,.08,.66-.06,1.21-.45,1.72-.2,.27-.3,.26-.18,.61,.13,.37,.41,.66,.52,1.04,.12,.41,.16,.84,.07,1.26-.11,.52-.46,.67-.64,1.09-.12,.28,.04,.44,.11,.69,.15,.58,.07,1.2-.31,1.67-.16,.2-.89,.68-.89,.95,0,.21,.31,.29,.46,.33s.36,.12,.47,.15c.23,.06,.44,.05,.67,.16s.24,.19,.51,.23c.45,.06,1.02-.17,1.36,.17,.3,.29,.26,.68,.72,.84,.27,.09,.58,.02,.87,.03,.53,.02,1.03,.18,1.56,.19,.64,0,1.61,.07,2.09,.58,.31,.32,.12,.74,.22,1.15,.15,.62,.16,1.29,.35,1.93,.16,.52,.16,.66-.13,1.12-.19,.3-.48,.87-.42,1.21,.02,.09,.12,.31,.15,.42,.2,.66,.34,1.35,.52,2.01,.55,2.01,1.27,3.96,1.75,5.98,.22,.94,.56,1.84,.79,2.78,.22,.86,.35,1.78,.5,2.65,.17,1.01,.23,2.01,.45,3.01,.29,1.35,.59,2.72,.77,4.09,.52,3.8,.19,7.6,.1,11.4-.01,.53-.12,1.12-.33,1.61-.26,.61-.81,1.05-1.23,1.55-.81,.95-1.62,1.91-2.52,2.78-.98,.94-1.43,2.33-2.15,3.46-.15,.24-.44,.67-.43,1,0,.25,.07,.29,.23,.51,.62,.89,.97,2.06,1.7,2.83,.32,.34,.69,.72,.93,1.14,.47,.82-.37,1.15-.86,1.75-.33,.42-.48,.69-.34,1.24,.17,.64,.19,1.22-.07,1.87-.44,1.11-1.36,2.05-1.72,3.18-.09,.28-.23,.72-.17,1.03,.07,.36,.32,.68,.41,1.04,.11,.46,.09,.86,.12,1.32,.02,.31,.12,.55,.18,.86,.34,1.94,.17,3.99,.17,5.95,0,3.25-.17,6.48-.17,9.73,0,2.72-.13,5.48,.13,8.19,.06,.58,.16,1.14,.22,1.71,.03,.3,0,.55-.16,.81-.46,.74-1.34,.83-2.11,.83l-.17,2.96c-.09,2.64-.38,5.3-.04,7.94,.08,.65,.07,1.3,.25,1.94,.14,.48,.34,1,.52,1.47,.26,.68,.73,1.29,1.15,1.88,.51,.72,.83,1.61,1.26,2.38,.68,1.25,1.1,2.63,1.61,3.96,.47,1.21,.78,2.49,1.17,3.73,.65,2.03,.95,4.14,1.27,6.24,.18,1.19,.24,2.4,.34,3.6,.12,1.38,.33,2.79,.3,4.18-.02,1.27,.18,2.51,.17,3.79,0,.94,.15,1.84,.18,2.77,.1,2.4-.02,4.8,.3,7.18,.12,.89,.16,1.84,.21,2.74,.04,.82,.25,1.59,.35,2.4,.16,1.32,.59,2.84,1.04,4.09,.51,1.4,.83,2.81,1.09,4.27,.26,1.49-.02,3.01,.12,4.51,.06,.6,.19,1.13,.18,1.74,0,.63,.07,1.26,.17,1.88,.17,1.03,.4,2.13,.7,3.13,.22,.74,.42,1.41,.56,2.17,.11,.61,.4,1.45-.16,1.91-.42,.35-.95,.72-1.44,.96-.52,.26-1.08,.26-1.56,.6-.93,.65-2.25,1.52-3.4,1.36-.55-.07-1.02-.41-1.44-.75-.46-.36-.9-.58-1.38-.87-.42-.25-.86-.57-1.22-.87-.54-.46-.39-1.04-.39-1.7,0-.41,.12-.66,.18-1.04,.05-.26,0-.6,0-.87,0-.39-.02-.78,0-1.17,.02-.58,.18-1.09,.17-1.69,0-.75,.11-1.6,.22-2.35,.1-.7,.14-1.33,.14-2.04,0-1.69-.16-3.45-.48-5.11-.11-.58-.14-1.12-.21-1.69-.04-.39-.19-.71-.18-1.11,0-1.14,.2-2.28,.38-3.41,.3-1.83,.05-3.56-.73-5.26-.7-1.53-1.35-3.1-2.21-4.55-.65-1.09-1.2-2.28-1.75-3.43-.78-1.62-1.55-3.24-2.03-4.98-.52-1.86-.63-3.8-.84-5.72-.08-.73-.2-1.45-.27-2.18-.06-.56,0-1.13-.07-1.69-.22-1.69-.28-3.51-.79-5.12-.5-1.6-1.42-3.19-2.3-4.61-.6-.98-1.09-1.99-1.73-2.95-.39-.58-.79-1.13-1.19-1.7-.55-.78-.84-1.71-1.25-2.57-.7-1.47-1.15-3-1.57-4.57-.24-.93-.56-1.83-.71-2.79-.2-1.24-.3-2.39-.69-3.59-.34-1.08-.65-2.21-.7-3.35l-5.91,.55c-.65,1.1-.71,2.09-.7,3.37,.01,1.32-.18,2.62-.17,3.94,0,2.32,0,4.64,0,6.96,0,1.67-.18,3.25-.56,4.88-.26,1.11-.67,2.16-.96,3.26-.11,.41-.21,.83-.22,1.26-.01,.54-.16,1.04-.18,1.57-.01,.34,.1,.66,.15,.99,.07,.41,.01,.81,.08,1.22,.13,.82,.24,1.65,.31,2.48,.15,1.7,.45,3.33,.21,5.04-.14,1,.04,2.01-.08,3.01-.12,1.08-.33,2.2-.31,3.29,.03,1.83-.39,3.66-.52,5.48-.07,1.06-.26,2.11-.33,3.17-.03,.41,.01,.82,0,1.24-.02,.52-.17,1.02-.19,1.55-.02,.72,.16,1.4,.18,2.12,.01,.41,.07,.81,.21,1.21,.11,.31,.32,.59,.48,.86,.34,.56,.66,1.33,.83,1.97,.33,1.23,.48,2.47,.69,3.72,.14,.85-.09,1.64-.13,2.48-.05,.96-.14,1.89-.17,2.85-.02,.87-.18,1.71-.18,2.59,0,.74,0,1.49,0,2.23,0,1.01,.05,1.99,.31,2.94,.11,.41,.1,.95,.17,1.37,.06,.34,.04,.69,.04,1.04,0,.3,0,.61,0,.91,0,.44-.05,.47-.35,.74-.49,.45-1.13,.8-1.73,1.14-.28,.16-.59,.29-.87,.43-.14,.07-.23,.07-.36,.12-.26,.11-.44,.28-.7,.4-.55,.28-1.2,.12-1.75-.06-.76-.25-1.56-.44-2.3-.82-.31-.16-.57-.39-.83-.61-.15-.13-.24-.34-.39-.45-.09-.07-.29-.08-.4-.13-.58-.29-1.14-.81-1.13-1.46,.03-2.37,0-4.74,.47-7.08,.35-1.74,.36-3.56,.79-5.28,.29-1.16,.63-2.47,.65-3.66,.02-1.03,.36-2.03,.35-3.07,0-1.07,.07-2.13-.13-3.18-.09-.45-.07-.89-.17-1.34-.12-.55-.15-1.11-.25-1.65-.15-.81-.55-1.63-.85-2.39-.44-1.1-.88-2.22-1.29-3.33-.42-1.16-.63-2.34-.88-3.54-.11-.54-.3-1.07-.43-1.61-.2-.81-.23-1.65-.34-2.48-.34-2.58-.92-5.17-1.07-7.77-.16-2.82-.22-5.59,.1-8.41,.22-1.9,.37-3.86,.7-5.73,.23-1.31,.26-2.58,.26-3.92,0-1.05-.19-2.07-.18-3.12,0-1.04-.08-2.03-.19-3.06-.11-.99-.22-1.98-.35-2.96-.09-.7-.34-1.32-.48-2-.11-.5-.24-.99-.35-1.48-.04-.18-.12-.35-.16-.52-.05-.23,0-.44-.07-.66l-.14-.03-2.44,.17v-6.61Z"/><g><path class="f" d="M47.2,50c.2-.53,.65-1.29,.33-1.87-.1-.19-.35-.3-.34-.53,.01-.58,.9,.29,1.11,.35,.54,.15,.9-.19,1.36-.29,.1-.02,.21,.04,.31,.02,.14-.04,.15-.13,.27-.19,.3-.15,.58-.25,.88-.43,.69-.42,1.26-.89,1.71-1.56,.15-.22,.21-.47,.18-.73-.04-.33-.19-.39-.43-.61-.54-.48-.19-.96-.15-1.57,.02-.22,.03-.48-.04-.69-.06-.21-.31-.43-.37-.65s0-.44-.07-.66c-.05-.18-.28-.47-.43-.58-.18-.13-.36-.19-.51-.36-.28-.3-.16-.47-.07-.83,.08-.29,.05-.65,.03-.95-.02-.33-.11-.38-.29-.65-.44-.65-1.07-1.06-1.17-1.93-.02-.16-.02-.41,0-.57,.02-.22,.19-.45,.17-.66-.03-.28-.18-.63-.27-.9-.14-.45-.32-.89-.61-1.27-.31-.39-.65-.87-1.02-1.2-.18-.17-.41-.27-.6-.43-.16-.14-.27-.33-.46-.44-.13-.08-.28-.09-.41-.17-.22-.13-.31-.28-.56-.37-1-.35-2.02-.62-3.07-.77-.54-.08-1.05,.04-1.58-.11-.49-.13-1.1-.03-1.61-.03-.63,0-1.22-.03-1.81,.21-2.51,1.04-4.45,3.26-5.62,5.66-.74,1.52-1.5,3.03-2.29,4.53-.16,.31-.26,.66-.47,.95-.15,.2-.32,.33-.44,.55-.17,.32-.31,.7-.18,1.02,.11,.27,.3,.38,.48,.62,.22,.28,.27,.64,.35,.97,.08,.32,.14,.57,.08,.91-.07,.37-.06,.76-.15,1.13-.08,.33-.16,.61-.12,.98,.06,.53,.31,.67,.59,1.05,.4,.53,.34,1.19,.85,1.63,.61,.53,1.46,.57,2.05,1.13,.54,.51,1.17,1.04,1.49,1.71,.1,.21,.11,.36,.11,.61,0,.34,.04,.56,.11,.87,.15,.6,.22,1.32,.9,1.56,.47,.17,.92,.24,1.2,.72,.09,.16,.22,.43,.26,.61,.02,.08,0,.23,0,.3,0,.1,0,.2,0,.3,.01,.08,.06,.14,.13,.17-.07,.47-1.78,.24-2.19,.36-.32,.1-.61,.27-.84,.5-.35,.37-.31,.74-.11,1.15,.23,.48,.46,.97,.7,1.44,.1,.19,.48,.92,.27,1.13-.14,.14-.92,.24-1.13,.28-.35,.07-.68,.01-1.03,.03-.55,.02-1.18,.14-1.72,.29-.76,.21-1.7,.53-2.39,.91-.37,.21-.75,.44-1.09,.7-.43,.32-.93,.56-1.35,.89-.67,.54-1.16,1.46-1.68,2.13-.44,.57-.83,1.19-1.22,1.8-.61,.94-.94,1.98-1.44,2.98-.76,1.54-1.34,3.09-1.87,4.74-.43,1.35-.8,2.71-1.3,4.05-.4,1.08-.66,2.21-1.19,3.23-.23,.44-.47,.85-.78,1.24-.14,.17-.58,.58-.53,.84,.28,0,.49,.2,.73,.31,.36,.17,.75,.28,1.11,.44,.41,.17,.76,.38,1.19,.48,.24,.06,.5,.07,.73,.14,.34,.1,.61,.14,.9,.36,.36,.28,.28,.53,.15,.94-.53,1.62-.34,3.48-.33,5.16,0,1.02,0,2.2-.47,3.13-.11,.22-.27,.36-.41,.56-.18,.25-.17,.86-.43,.99l-1.02,4.93c-.2,1.52-.51,3.03-.73,4.55-.22,1.56-.4,3.1-.54,4.66-.14,1.48,.07,2.93,.12,4.4,.02,.71-.05,1.42,.02,2.13,.06,.6,.15,1.15,.08,1.76-.11,1.02-.08,2.2-.4,3.18-.25,.77-.46,1.55-.73,2.31-.22,.61-.37,1.2-.62,1.79-.15,.35-.33,.63-.46,.97-.37,.98-.55,1.71,0,2.67,.25,.44,.56,.96,.65,1.47,.08,.45,.05,.94,.17,1.39,.18,.64,.89,.94,1.44,1.16,.3,.12,.62,.02,.94,.07,.32,.04,.61,.3,.92,.32l.03,.12,.58,.44c.06,.38-.13,.91-.18,1.28-.14,1.25-.24,2.51-.4,3.76-.23,1.82-.46,3.63-1.01,5.39-.72,2.29-1.14,4.47-1.01,6.88,.13,2.51,.62,5,.76,7.51,.07,1.16-.06,2.32-.06,3.49,0,.85,0,1.71,0,2.56,0,1.66-.17,3.3-.15,4.96,0,.72,.08,1.49-.05,2.2-.08,.45-.26,.87-.42,1.3-.47,1.25-.81,2.51-1,3.84-.11,.8-.11,1.55-.07,2.35,.04,.76-.05,1.5-.06,2.26,0,.94-.03,1.8-.21,2.73-.2,1.04-.16,2.03-.25,3.07-.05,.63-.08,1.29-.25,1.91-.1,.38-.29,.75-.42,1.11-.3,.82-.33,1.62-.33,2.48,0,.83,.15,1.51,.27,2.32,.06,.38,.03,.67-.15,1.01-.23,.43-.26,.59-.26,1.07,0,.38,.04,.77-.03,1.14-.08,.45-.15,.88-.48,1.21-.26,.26-.55,.46-.85,.67-1.53,1.06-3.37,1.52-5.11,2.08-.67,.22-1.3,.47-1.91,.83-.77,.45-1.38,1.06-2.07,1.63-.42,.35-1.23,.93-.85,1.54,.14,.22,.39,.43,.58,.61,.37,.35,.87,.62,1.29,.91,.64,.44,1.3,.54,2.06,.62,1.56,.16,3.14,.05,4.64-.4,1.49-.45,3.01-.89,4.54-1.17,1.04-.19,2.06-.37,3.12-.43,.8-.04,1.56-.25,2.35-.33,.96-.11,1.94-.3,2.9-.37,.39-.03,.69,.11,1.03,.27,.55,.26,.61,.31,.98-.28,.4-.65,.59-1.54,.71-2.29,.06-.39-.06-.71-.16-1.08-.11-.41-.39-.72-.49-1.12,.18,.22,.54,.13,.8,.13,.61,0,1.16-.07,1.76-.13,.42-.04,.47-.05,.62-.47,.13-.38,.11-.77,.11-1.16-.02-1.86,.54-3.67,.77-5.51,.11-.87,.2-1.7,.36-2.56,.15-.82,.14-1.65,.28-2.47s.47-1.54,.59-2.34c.19-1.21,.39-2.37,.29-3.6-.19-2.42-.11-4.77,.21-7.17,.36-2.71,.98-5.35,1.57-8.02,.53-2.44,1.33-4.82,2-7.22,.44-1.58,.69-3.22,1.02-4.82,.19-.91,.27-1.82,.32-2.75,.05-.96,.22-1.86,.4-2.8,.26-1.32,.52-2.61,.9-3.91,.35-1.16,.8-2.28,1.19-3.43,.36-1.08,.77-.29,.85,.35,.05,.36,.19,.68,.26,1.03,.15,.77,.16,1.54,.21,2.33,.09,1.37,.42,2.93,.85,4.23,.24,.74,.55,1.51,.7,2.28,.13,.72,.19,1.45,.32,2.17,.16,.91,.14,1.83,.58,2.66,.34,.65,.55,1.2,.56,1.96,0,.35-.08,.69-.12,1.04-.09,.75-.13,1.5-.18,2.25-.1,1.27-.27,2.55-.27,3.82,0,1.19,.17,2.37,.16,3.57,0,1.26-.01,2.49-.15,3.74-.09,.88-.09,1.75-.18,2.63-.2,1.87-.18,3.76-.33,5.64-.07,.82-.02,1.67-.21,2.47-.12,.53-.36,1.03-.59,1.53-.52,1.12-.2,2.38-.29,3.58-.06,.78-.24,1.68-.43,2.44-.06,.26-.2,.53-.15,.81,.04,.22,.17,.39,.29,.57,.3,.44,.49,.9,.73,1.38,.27,.56,.58,1.08,.88,1.61,.07,.12,.28,.36,.3,.49,.04,.38-.44,.82-.45,1.24-.02,.59,.26,.87,.55,1.34,.14,.24,.31,.4,.48,.62,.19,.25,.27,.58,.36,.89,.16,.54,.2,.96,.21,1.51,.01,.46,.15,.89,.15,1.35,0,.54,0,1.04,.16,1.54,.34,1.08,1.41,1.6,2.44,1.9,.67,.2,1.44,.47,2.14,.33,1.03-.2,2.06-.65,3.06-.99,.56-.19,1.5-.26,1.93-.72,.23-.25,.09-.32,.02-.59-.08-.29-.09-.64-.15-.94-.08-.42-.08-.82-.18-1.25-.04-.18-.11-.38-.15-.56-.06-.31,0-.72,0-1.04,0-.42-.05-.75-.15-1.15-.14-.59-.31-1.25-.61-1.78-.23-.42-.65-.77-.99-1.09-.34-.33-.75-.5-1.12-.79-.2-.15-.63-.55-.59-.81,.19-.05,.37,.01,.56-.01,.21-.03,.38-.13,.59-.16,.46-.06,1,0,1.46,0,.36,0,.54,.05,.71-.28,.1-.19,.12-.42,.18-.62,.05-.15,.19-.31,.23-.44,.13-.4,.14-.85,.21-1.27s.21-.76,.25-1.16c.02-.2,.11-.25,.16-.42,.03-.14-.05-.31-.01-.45,.05-.21,.14-.26,.16-.53,.01-.25,0-.48,.03-.73,.15-1.13,.32-2.31,.56-3.4,.13-.6-.06-1.31,.02-1.93,.13-.97,.19-1.96,.26-2.94,.09-1.33,.41-2.62,.55-3.94,.06-.52,.15-1.29,0-1.8-.07-.23-.24-.45-.31-.69-.08-.25-.09-.48-.14-.74-.16-.92,.02-1.77,.03-2.7,.01-.75,.19-1.48,.26-2.22,.05-.52,.03-1.03,.03-1.55,0-1.1-.1-2.26,.03-3.36,.18-1.56,.78-3.03,.84-4.59,.04-1.03,.31-2.05,.3-3.09,0-.85,0-1.69,0-2.54,0-.74-.1-1.56,0-2.29,.08-.64,.28-1.28,.31-1.93,.02-.5,.04-.96-.19-1.4-.13-.25-.34-.59-.37-.86-.05-.37,.2-.81,.27-1.17,.06-.28,.06-.58,.13-.86,.16-.6,.15-1.15,.15-1.78,0-.75,.13-1.55,.25-2.29,.31-1.8,.75-3.56,1.17-5.33,.12-.53,.12-1.09,.32-1.6,.14-.35,.32-.63,.41-1,.13-.56,.25-1.15,.5-1.67,.12-.26,.35-.56,.41-.83,.07-.3,0-.57,.1-.88,.11-.34,.25-.65,.36-.98,.09-.25,.11-.45,.11-.76,0-.42-.11-.78-.14-1.2-.09-1.14-.29-2.31-.44-3.45l.73-.44c.66-.7,1.04-1.17,.29-1.86-.13-.12-.42-.26-.45-.46-.02-.13,.1-.19,.13-.3,.05-.21,.03-.41,.03-.62,0-.61,.04-1.2-.1-1.8-.16-.68-.35-1.34-.48-2.04-.1-.55-.08-1.1-.17-1.64-.13-.69-.43-1.35-.7-1.99-.14-.32-.36-.63-.44-.94-.07-.28-.12-.53-.13-.83-.01-.3-.21-.57-.19-.88,.02-.29,.17-.3,.44-.46,.33-.2,.63-.23,1.01-.36,.37-.12,.73-.32,1.09-.48,.72-.31,1.5-.85,1.98-1.45,.43-.53,.84-.77,1.47-.59,.49,.15,.78,.53,1.3,.08,.38-.33,.49-.83,.72-1.24,.31-.55,.61-1.31,1.08-1.73,.48-.43,.98-.77,1.53-1.1,.57-.34,1.13-.75,1.72-1.06,.34-.18,.39-.35,.63-.63,.23-.27,.39-.45,.55-.77,.27-.52,.71-.95,1.05-1.44,.72-1.03,1.44-2.07,2.15-3.11,.79-1.16,1.74-2.21,2.53-3.37,.93-1.37,1.74-2.77,2.55-4.21,.41-.73,1.05-1.24,1.6-1.85,.41-.44,.91-.7,1.02-1.34,.1-.61-.09-1.19-.33-1.73-.33-.73-.48-1.24-1.21-1.69-.43-.26-.75-.61-1.11-.96-.35-.35-.75-.65-1.1-.98-.2-.19-.29-.41-.46-.62-.18-.22-.41-.36-.6-.58-.3-.34-.57-.74-.86-1.09-.29-.35-.57-.71-.87-1.05-.17-.2-.4-.41-.54-.61-.13-.18-.2-.35-.36-.51-.21-.22-.4-.31-.22-.58,.12-.19,.32-.19,.27-.48-.05-.25-.37-.34-.56-.47-.24-.16-.42-.39-.67-.54-.26-.15-.53-.25-.78-.43-.22-.17-.4-.38-.61-.56-.91-.73-1.81-1.45-2.58-2.34-.67-.78-1.27-1.6-1.96-2.37-.22-.24-.4-.45-.57-.72-.37-.57-.8-1.04-1.27-1.54-.55-.59-1.27-1-1.89-1.51-.77-.64-1.37-1.45-2.15-2.08-.52-.42-.97-.93-1.48-1.37s-1.24-.86-1.88-1.13c-.93-.38-1.95-.04-2.91-.17-.7-.09-1.2-.6-1.91-.59-.51,0-.98-.06-1.48-.15-.43-.07-.61-.3-.95-.55-.42-.3-.66-.27-1.12-.31-.23-.02-.43-.13-.66-.16-.2-.02-.42,.05-.62,0-.35-.09-.49-.41-.69-.68-.24-.33-.33-.42-.12-.79,.31-.54,1.27-1.33,.45-1.89-.15-.1-.44-.32-.62-.37-.3-.08-.68,.09-.99,.18s-.57,.32-.83,.05c-.17-.17-.4-.62-.51-.85-.17-.34-.1-.72-.1-1.09,0-.5-.05-1.03,0-1.53,.06-.7,.33-1.36,0-2.02"/><path class="g" d="M45.15,51.77l2.18,.57c.01-.09,0-.19,0-.28l-2.01-.53c.57-.83,1-2.11,1.25-3.03l.62,1.61v-.1c.04-.1,.09-.21,.13-.32l-.63-1.64c.1-.39,.15-.64,.15-.64l.02-.2,.34,.31c.05-.15,.22-.11,.42,.01l-.74-.66,.04-.49,.51-.51c-5.84-5.23-7.47-4.46-9.35-3.35-1.81,1.07-4.71,5.12-4.95,5.46l-1.03,1.3c.09,.04,.17,.07,.26,.12l.7-.88c.21,.29,.99,.22,1.44,.16l-1.56,1.16c.07,.06,.14,.13,.2,.19l1.72-1.27c.15,.6,.81,3.16,1.59,4.22l-1.78,.49c.02,.09,.05,.18,.08,.26l1.9-.52c.05,.05,.1,.1,.16,.14,1.03,.69,6.69-.26,7.98-1.2,.13-.09,.24-.22,.36-.36Z"/></g></g></g></g></svg>