<svg xmlns="http://www.w3.org/2000/svg" viewBox="0 0 242.16 61.01"><defs><style>.cls-1{fill:#aab2ab;}.cls-2{fill:#fff;}.cls-3,.cls-4{fill-rule:evenodd;}.cls-4{fill:#075da5;}.cls-5{fill:#1d1d1b;}</style></defs><g id="Camada_2" data-name="Camada 2"><g id="Pg66"><g id="surface1"><path class="cls-1" d="M2.05.28,70.69.42c1,0,1.84-.14,1.84,1.92L72.46,25H.35V2.19C.35,1.2.42.28,2.05.28Z"/><path d="M71.33,0h-70A1.35,1.35,0,0,0,0,1.34V25.12a.3.3,0,0,0,.28.28H72.39a.3.3,0,0,0,.28-.28V1.34A1.35,1.35,0,0,0,71.33,0ZM1.34.64h70a.78.78,0,0,1,.77.78V17.9h-50a10.72,10.72,0,0,1-18.83,0H.64V1.42A.69.69,0,0,1,1.34.64Z"/><path class="cls-2" d="M20.87,11.82a8.28,8.28,0,1,1-16.55,0h0a8.28,8.28,0,1,1,16.55,0Z"/><path d="M19.39,5.09a9.2,9.2,0,0,1,2.76,6.73,9,9,0,0,1-2.69,6.65,9.26,9.26,0,0,1-6.79,2.83A9.16,9.16,0,0,1,6,18.54a9.13,9.13,0,0,1-2.76-6.65A9.29,9.29,0,0,1,6,5.17a9,9,0,0,1,6.66-2.76A8.86,8.86,0,0,1,19.39,5.09ZM7.22,6.37a7.53,7.53,0,0,0-2.34,5.52,7.4,7.4,0,0,0,2.34,5.45,7.39,7.39,0,0,0,5.45,2.33,7.58,7.58,0,0,0,5.52-2.33,7.23,7.23,0,0,0,2.19-5.45,7.5,7.5,0,0,0-2.27-5.52A7.19,7.19,0,0,0,12.67,4.1,7.19,7.19,0,0,0,7.22,6.37Zm4,4.53a1.12,1.12,0,0,0-1.06-.78c-.85,0-1.27.56-1.27,1.7s.42,1.7,1.27,1.7a1.27,1.27,0,0,0,1.2-.85l1.13.63a2.64,2.64,0,0,1-2.47,1.49A2.8,2.8,0,0,1,8,14a3,3,0,0,1-.78-2.12A2.89,2.89,0,0,1,8,9.76,2.78,2.78,0,0,1,10,9a2.57,2.57,0,0,1,2.47,1.34Zm5.45,0a1.12,1.12,0,0,0-1.06-.78c-.85,0-1.28.56-1.28,1.7s.43,1.7,1.28,1.7a1.14,1.14,0,0,0,1.13-.85l1.2.63a2.64,2.64,0,0,1-2.47,1.49A2.84,2.84,0,0,1,13.44,14a3,3,0,0,1-.77-2.12,2.93,2.93,0,0,1,.77-2.13,2.82,2.82,0,0,1,2-.77,2.57,2.57,0,0,1,2.47,1.34Z"/><path class="cls-2" d="M29.15,19.81a1.06,1.06,0,0,1,.5.07.89.89,0,0,1,.42.15,1.11,1.11,0,0,1,.29.28,1,1,0,0,1,.07.49,1,1,0,0,1-.14.5c-.08.14-.22.21-.43.35a1.08,1.08,0,0,1,.57.36,1.13,1.13,0,0,1,.21.63,1,1,0,0,1-.14.5.81.81,0,0,1-.36.35l-.42.21a1.08,1.08,0,0,1-.5.08h-2v-4h1.91ZM29,21.44a.59.59,0,0,0,.36-.14.53.53,0,0,0,.14-.35.27.27,0,0,0-.07-.22.15.15,0,0,0-.15-.14c-.07,0-.14-.07-.21-.07H28v.92Zm.07,1.7h.29c.07,0,.14-.07.21-.07s.14-.07.14-.14.07-.15.07-.29a.59.59,0,0,0-.14-.42,1,1,0,0,0-.5-.14h-1v1.13h.92Z"/><path class="cls-2" d="M30.78,19.81h1l.92,1.56.92-1.56h1l-1.48,2.48v1.56H32.2V22.29Z"/><path class="cls-2" d="M43.94,19.81l1.7,2.69h0V19.81h.78v4h-.85l-1.7-2.69h0v2.69H43v-4Z"/><path class="cls-2" d="M49.82,20.87l-.22-.21a.36.36,0,0,0-.28-.14c-.14,0-.21-.07-.28-.07a1,1,0,0,0-.5.14,1.53,1.53,0,0,0-.35.28L48,21.3a1.06,1.06,0,0,0-.08.49,1.08,1.08,0,0,0,.08.5c.07.14.07.28.21.42a.67.67,0,0,0,.35.29,1,1,0,0,0,.5.14.86.86,0,0,0,.63-.21,1.31,1.31,0,0,0,.29-.64h.85a2,2,0,0,1-.15.71,1.26,1.26,0,0,1-.35.49,1.5,1.5,0,0,1-.57.36,2.63,2.63,0,0,1-.7.07,3.51,3.51,0,0,1-.85-.14,4,4,0,0,1-.64-.43,2.69,2.69,0,0,1-.35-.64,3,3,0,0,1-.14-.85A3.51,3.51,0,0,1,47.2,21a1.34,1.34,0,0,1,.35-.64,1.07,1.07,0,0,1,.64-.43,1.54,1.54,0,0,1,.85-.14,1.94,1.94,0,0,1,.63.07,1.12,1.12,0,0,1,.5.29,1.86,1.86,0,0,1,.35.42c.07.21.14.36.22.64h-.85C49.89,21.09,49.82,21,49.82,20.87Z"/><path class="cls-2" d="M59.58,19.81l1.7,2.69h0V19.81h.85v4h-.85l-1.7-2.69h0v2.69h-.85v-4Z"/><path class="cls-2" d="M64.6,19.81a2.08,2.08,0,0,1,.71.14,1.73,1.73,0,0,1,.57.36,1.34,1.34,0,0,1,.35.64,3.51,3.51,0,0,1,.14.84,2.53,2.53,0,0,1-.14.78,1.34,1.34,0,0,1-.35.64,1.11,1.11,0,0,1-.57.42,2.51,2.51,0,0,1-.78.15H62.84v-4H64.6Zm-.07,3.33a.54.54,0,0,0,.36-.07c.14-.07.21-.14.35-.21a1.9,1.9,0,0,0,.21-.36,1.36,1.36,0,0,0,.07-.56,1.57,1.57,0,0,0-.07-.57c-.07-.14-.07-.28-.21-.42a.67.67,0,0,0-.35-.29,1.42,1.42,0,0,0-.57-.07h-.64v2.55Z"/><path class="cls-2" d="M53.14,9.06a6,6,0,0,1-12,0h0a6,6,0,1,1,12,0Z"/><path d="M47.13,2.05a7,7,0,0,1,5,2.05,6.77,6.77,0,0,1,2.05,5,6.63,6.63,0,0,1-2,4.95,6.8,6.8,0,0,1-5,2,7,7,0,0,1-5-2,6.68,6.68,0,0,1-2.05-4.95,6.88,6.88,0,0,1,2.05-5A6.61,6.61,0,0,1,47.13,2.05ZM41.68,7.22a5.44,5.44,0,0,0-.29,1.91,5.52,5.52,0,0,0,1.7,4,5.54,5.54,0,0,0,4,1.7,5.79,5.79,0,0,0,4.1-1.7,8.2,8.2,0,0,0,1-1.2l-2.62-1.2a2,2,0,0,1-1.91,1.55v1h-.78V12.24a3.33,3.33,0,0,1-2.12-.85l1-1a2.19,2.19,0,0,0,1.56.64c.42,0,.85-.14.85-.71A.42.42,0,0,0,48,9.91l-.64-.29-.92-.35c-.43-.21-.78-.35-1.13-.5Zm5.45-3.89a5.3,5.3,0,0,0-4,1.69c-.28.29-.56.64-.78.92L45,7.15a1.88,1.88,0,0,1,1.84-1.28V4.81h.78V5.87a3.23,3.23,0,0,1,1.77.64l-.92.92A2.48,2.48,0,0,0,47.27,7c-.36,0-.85.14-.85.56a.26.26,0,0,0,.07.21l.92.43.64.28c.35.14.77.36,1.13.5l3.61,1.62A5.4,5.4,0,0,0,53,9.13,5.59,5.59,0,0,0,51.3,5,5.83,5.83,0,0,0,47.13,3.33Z"/><path class="cls-2" d="M69.42,9.06a6.44,6.44,0,0,1-12.88,0h0a6.44,6.44,0,0,1,12.88,0Z"/><path d="M62.91,2.05A6.88,6.88,0,0,0,58,4.1a6.72,6.72,0,0,0-2.05,5A7,7,0,0,0,58,14a6.68,6.68,0,0,0,5,2,7.1,7.1,0,0,0,5-2,6.67,6.67,0,0,0,2-4.95,6.77,6.77,0,0,0-2-5A6.62,6.62,0,0,0,62.91,2.05ZM63,3.33A5.29,5.29,0,0,1,67,5a5.59,5.59,0,0,1,1.7,4.11,5.49,5.49,0,0,1-1.63,4,5.68,5.68,0,0,1-4.1,1.7,5.54,5.54,0,0,1-4-1.7,5.51,5.51,0,0,1-1.69-4A5.81,5.81,0,0,1,58.94,5,5.3,5.3,0,0,1,63,3.33Z"/><path d="M65.59,7.43H60.5v1.2h5.09Zm0,2.26H60.5V10.9h5.09Z"/><path class="cls-2" d="M37.86,9.2a6.51,6.51,0,1,1-6.51-6.51A6.49,6.49,0,0,1,37.86,9.2Z"/><path d="M33.26,7.36a.41.41,0,0,0-.43-.43h-2.9a.41.41,0,0,0-.42.43v2.9h.78v3.4h2.19v-3.4h.78Z"/><path d="M32.34,5.52a1,1,0,1,1-1-1A1,1,0,0,1,32.34,5.52Z"/><path class="cls-3" d="M31.35,2.05a6.77,6.77,0,0,0-5,2.05,6.72,6.72,0,0,0-2.05,5,7,7,0,0,0,7,7,6.87,6.87,0,0,0,5-2.12,6.63,6.63,0,0,0,2-4.95A6.77,6.77,0,0,0,36.3,4,7,7,0,0,0,31.35,2.05Zm0,1.28a5.29,5.29,0,0,1,4,1.69,5.59,5.59,0,0,1,1.7,4.11,5.49,5.49,0,0,1-1.63,4,5.68,5.68,0,0,1-4.1,1.7,5.54,5.54,0,0,1-4-1.7,5.51,5.51,0,0,1-1.69-4A5.81,5.81,0,0,1,27.31,5,5.3,5.3,0,0,1,31.35,3.33Z"/></g><path d="M80.31.64h2.9v.49H80.88V2.34h2.19v.49H80.88V4.17h2.41v.5H80.38v-4Z"/><path d="M84.2,3.68a.54.54,0,0,0,.15.35.86.86,0,0,0,.63.22,1,1,0,0,0,.5-.15.38.38,0,0,0,.21-.35.36.36,0,0,0-.14-.28c-.07-.07-.21-.07-.43-.14l-.42-.08A2.68,2.68,0,0,1,84.13,3a.62.62,0,0,1-.35-.56.69.69,0,0,1,.28-.64,1.53,1.53,0,0,1,.78-.28,1.39,1.39,0,0,1,1,.35.76.76,0,0,1,.21.5h-.49a.37.37,0,0,0-.14-.29.71.71,0,0,0-.57-.21c-.21,0-.35,0-.42.07a.36.36,0,0,0-.14.28c0,.15.07.22.21.29s.21.07.35.14l.36.07a2.84,2.84,0,0,1,.7.21.64.64,0,0,1,.29.57.67.67,0,0,1-.29.63,1.16,1.16,0,0,1-.92.29,1.1,1.1,0,0,1-.92-.29.9.9,0,0,1-.28-.7h.42Z"/><path d="M86.75.92h.5V1.7h.49v.42h-.49V4a.29.29,0,0,0,.07.22h.35V4.6h-.35a1.05,1.05,0,0,1-.5-.14A1,1,0,0,1,86.68,4V2.12h-.42V1.7h.42V.92Z"/><path d="M89.8,2.83c.14,0,.21-.07.21-.14V2.48a.56.56,0,0,0-.14-.36,1.09,1.09,0,0,0-.5-.14.73.73,0,0,0-.57.21c-.07.07-.07.22-.14.36h-.42a.91.91,0,0,1,.35-.78,1.45,1.45,0,0,1,.78-.21,1.53,1.53,0,0,1,.85.21.69.69,0,0,1,.28.64V4.25a.24.24,0,0,0,.14.07h.15v.35c-.08,0-.15,0-.15.07H90.5a.38.38,0,0,1-.35-.21c-.07-.07-.07-.14-.07-.28-.07.14-.21.21-.43.35a2,2,0,0,1-.63.14.87.87,0,0,1-.64-.21.91.91,0,0,1-.28-.64.71.71,0,0,1,.28-.64A1.32,1.32,0,0,1,89,3ZM88.73,4.17a.52.52,0,0,0,.36.15,1.16,1.16,0,0,0,.49-.15A.67.67,0,0,0,90,3.54V3.11a.26.26,0,0,1-.21.07c-.08,0-.22.07-.29.07l-.28.08a1.08,1.08,0,0,0-.43.14.42.42,0,0,0-.21.42A.53.53,0,0,0,88.73,4.17Z"/><path d="M95,2a1.47,1.47,0,0,1,.35,1.13A1.84,1.84,0,0,1,95,4.25a1.25,1.25,0,0,1-1.06.42A1,1,0,0,1,93,4.25a1.78,1.78,0,0,1-.35-1.07A1.83,1.83,0,0,1,93,2.05a1.19,1.19,0,0,1,1-.42A1.55,1.55,0,0,1,95,2Zm-.35,2a1.51,1.51,0,0,0,.21-.85,1.4,1.4,0,0,0-.14-.63A.71.71,0,0,0,94,2.05a.74.74,0,0,0-.64.36,1.49,1.49,0,0,0-.21.84,1.42,1.42,0,0,0,.21.78.69.69,0,0,0,.64.29A.61.61,0,0,0,94.61,4Z"/><path d="M95.88.64h.5V2.05a1.23,1.23,0,0,1,.35-.28,1,1,0,0,1,.49-.14,1.17,1.17,0,0,1,.85.35,1.62,1.62,0,0,1,.36,1.13,1.93,1.93,0,0,1-.36,1.14,1.13,1.13,0,0,1-.92.42,1.32,1.32,0,0,1-.56-.14c-.07-.07-.21-.14-.28-.28V4.6h-.43v-4ZM97.72,4a1.51,1.51,0,0,0,.21-.85,1.41,1.41,0,0,0-.21-.77.63.63,0,0,0-.57-.29.79.79,0,0,0-.56.21,1.17,1.17,0,0,0-.28.78,1.58,1.58,0,0,0,.07.64.67.67,0,0,0,.7.49C97.44,4.25,97.58,4.17,97.72,4Z"/><path d="M99,1.7h.5v.49c.07-.07.14-.21.28-.35a.78.78,0,0,1,.5-.21h.21v.49h-.14a.78.78,0,0,0-.57.22.79.79,0,0,0-.21.56V4.6h-.5V1.7Z"/><path d="M102.39,2.83c.14,0,.21-.07.21-.14V2.48a.56.56,0,0,0-.14-.36A1,1,0,0,0,102,2a.7.7,0,0,0-.57.21c-.07.07-.07.22-.14.36h-.43a.92.92,0,0,1,.36-.78,1.42,1.42,0,0,1,.78-.21,1.55,1.55,0,0,1,.85.21.69.69,0,0,1,.28.64V4.25a.24.24,0,0,0,.14.07h.14v.35c-.07,0-.14,0-.14.07h-.14a.41.41,0,0,1-.36-.21c-.07-.07-.07-.14-.07-.28-.07.14-.21.21-.42.35a2.1,2.1,0,0,1-.64.14.86.86,0,0,1-.63-.21.88.88,0,0,1-.29-.64.69.69,0,0,1,.29-.64,1.32,1.32,0,0,1,.63-.28Zm-1,1.34a.5.5,0,0,0,.35.15,1.16,1.16,0,0,0,.5-.15.67.67,0,0,0,.42-.63V3.11a.26.26,0,0,1-.21.07c-.07,0-.21.07-.28.07l-.28.08a1,1,0,0,0-.43.14.42.42,0,0,0-.21.42C101.19,4,101.26,4.1,101.4,4.17Z"/><path d="M107.27,1.77a.71.71,0,0,1,.43.35,3.59,3.59,0,0,1,.21.5c0,.14.07.35.07.63h-2.12a1.06,1.06,0,0,0,.21.71.65.65,0,0,0,.57.29.77.77,0,0,0,.63-.29,2,2,0,0,0,.22-.35H108c0,.14-.07.21-.14.35s-.14.21-.21.36a1.45,1.45,0,0,1-.57.28c-.14,0-.28.07-.42.07a1.24,1.24,0,0,1-.92-.42,1.46,1.46,0,0,1-.36-1.14A1.75,1.75,0,0,1,105.72,2a1.28,1.28,0,0,1,1-.42A4.82,4.82,0,0,0,107.27,1.77Zm.14,1.13a1,1,0,0,0-.14-.49.72.72,0,0,0-.63-.36.8.8,0,0,0-.57.21,1.18,1.18,0,0,0-.21.64ZM107.27.57l-.7.77h-.36l.5-.77Z"/><path d="M111.66,1.84c.07.07.21.14.28.28V.64h.5v4H112V4.25a.68.68,0,0,1-.42.35,1.33,1.33,0,0,1-.57.14,1.13,1.13,0,0,1-.85-.42,1.78,1.78,0,0,1-.35-1.07,2.18,2.18,0,0,1,.35-1.13,1.12,1.12,0,0,1,.92-.49C111.38,1.7,111.52,1.7,111.66,1.84ZM110.6,4a.7.7,0,0,0,.64.29A.65.65,0,0,0,111.8,4a1.51,1.51,0,0,0,.21-.85,1.13,1.13,0,0,0-.21-.77.83.83,0,0,0-.56-.29.63.63,0,0,0-.57.29,1.49,1.49,0,0,0-.21.84A.93.93,0,0,0,110.6,4Z"/><path d="M113.15.64h.49V1.2h-.49Zm0,1.06h.49V4.6h-.49Z"/><path d="M114.7,3.68a.53.53,0,0,0,.14.35.9.9,0,0,0,.64.22,1.09,1.09,0,0,0,.5-.15.38.38,0,0,0,.21-.35.36.36,0,0,0-.14-.28c-.07-.07-.22-.07-.43-.14l-.42-.08a2.48,2.48,0,0,1-.57-.21.62.62,0,0,1-.35-.56.69.69,0,0,1,.28-.64,1.5,1.5,0,0,1,.78-.28,1.41,1.41,0,0,1,1,.35.76.76,0,0,1,.21.5h-.49a.37.37,0,0,0-.14-.29.73.73,0,0,0-.57-.21c-.21,0-.35,0-.42.07a.34.34,0,0,0-.15.28c0,.15.07.22.22.29s.21.07.35.14l.35.07a2.81,2.81,0,0,1,.71.21.65.65,0,0,1,.28.57.68.68,0,0,1-.28.63,1.16,1.16,0,0,1-.92.29c-.42,0-.78-.07-.92-.29a.9.9,0,0,1-.28-.7h.42Z"/><path d="M117.11,1.7h.49v.35a.72.72,0,0,1,.36-.28.75.75,0,0,1,.56-.14,1.17,1.17,0,0,1,.85.35A1.69,1.69,0,0,1,119.73,3a1.58,1.58,0,0,1-.5,1.35,1.25,1.25,0,0,1-.71.28,1.32,1.32,0,0,1-.56-.14,1.24,1.24,0,0,1-.29-.28V5.73h-.49v-4ZM119,4a1.51,1.51,0,0,0,.21-.85,1.36,1.36,0,0,0-.07-.56.68.68,0,0,0-.71-.5.69.69,0,0,0-.71.5,2.19,2.19,0,0,0-.07.71,1.36,1.36,0,0,0,.07.56.73.73,0,0,0,.71.43A.9.9,0,0,0,119,4Z"/><path d="M122.34,2a1.44,1.44,0,0,1,.36,1.13,1.78,1.78,0,0,1-.36,1.14,1.24,1.24,0,0,1-1.06.42,1.07,1.07,0,0,1-.92-.42A1.78,1.78,0,0,1,120,3.18a1.83,1.83,0,0,1,.35-1.13,1.21,1.21,0,0,1,1-.42A1.39,1.39,0,0,1,122.34,2Zm-.28,2a1.51,1.51,0,0,0,.21-.85,1.4,1.4,0,0,0-.14-.63.7.7,0,0,0-.7-.43.73.73,0,0,0-.64.36,1.49,1.49,0,0,0-.21.84,1.42,1.42,0,0,0,.21.78.68.68,0,0,0,.64.29A.74.74,0,0,0,122.06,4Z"/><path d="M123.34,1.7h.49v.42a1.7,1.7,0,0,1,.43-.35,1.3,1.3,0,0,1,.49-.14.85.85,0,0,1,.85.42,1.56,1.56,0,0,1,.14.71V4.6h-.49V2.76c0-.14,0-.35-.07-.42s-.22-.29-.5-.29h-.28a1.63,1.63,0,0,0-.36.21.6.6,0,0,0-.14.29,2.48,2.48,0,0,0-.07.42V4.46h-.49Z"/><path d="M126.45.64h.49V1.2h-.49Zm0,1.06h.49V4.6h-.49Z"/><path d="M127.58.64h.5V2.05a1.23,1.23,0,0,1,.35-.28,1,1,0,0,1,.5-.14,1.16,1.16,0,0,1,.84.35,1.62,1.62,0,0,1,.36,1.13,1.93,1.93,0,0,1-.36,1.14,1.13,1.13,0,0,1-.92.42,1.32,1.32,0,0,1-.56-.14c-.07-.07-.21-.14-.28-.28V4.6h-.43v-4ZM129.49,4a1.51,1.51,0,0,0,.21-.85,1.41,1.41,0,0,0-.21-.77.62.62,0,0,0-.56-.29.8.8,0,0,0-.57.21,1.17,1.17,0,0,0-.28.78,1.58,1.58,0,0,0,.07.64.67.67,0,0,0,.7.49A.53.53,0,0,0,129.49,4Z"/><path d="M130.77.64h.49V1.2h-.49Zm0,1.06h.49V4.6h-.49Z"/><path d="M132,.64h.49v4H132Z"/><path d="M133.17.64h.5V1.2h-.5Zm0,1.06h.5V4.6h-.5Z"/><path d="M134.23,4.25l1.7-2.06H134.3V1.7h2.27v.42l-1.7,2.05h1.77V4.6h-2.41Z"/><path d="M138.76,2.83c.14,0,.21-.07.21-.14V2.48a.56.56,0,0,0-.14-.36,1,1,0,0,0-.49-.14.7.7,0,0,0-.57.21,1,1,0,0,0-.07.43h-.42a.91.91,0,0,1,.35-.78,1.42,1.42,0,0,1,.78-.21,1.55,1.55,0,0,1,.85.21.69.69,0,0,1,.28.64V4.25a.24.24,0,0,0,.14.07h.14v.35c-.07,0-.14,0-.14.07h-.14a.38.38,0,0,1-.35-.21c-.07-.07-.07-.14-.07-.28-.08.14-.22.21-.43.35a2,2,0,0,1-.64.14.86.86,0,0,1-.63-.21.92.92,0,0,1-.29-.64.69.69,0,0,1,.29-.64,1.32,1.32,0,0,1,.63-.28ZM137.7,4.17a.5.5,0,0,0,.35.15,1.16,1.16,0,0,0,.5-.15.67.67,0,0,0,.42-.63V3.11a.26.26,0,0,1-.21.07c-.07,0-.21.07-.28.07l-.28.08a1,1,0,0,0-.43.14.42.42,0,0,0-.21.42A.53.53,0,0,0,137.7,4.17Z"/><path d="M141.87,1.84a1,1,0,0,1,.29.28V.64h.49v4h-.42V4.25a.67.67,0,0,1-.43.35,1.32,1.32,0,0,1-.56.14,1.1,1.1,0,0,1-.85-.42A1.78,1.78,0,0,1,140,3.25a2.18,2.18,0,0,1,.35-1.13,1.1,1.1,0,0,1,.92-.49C141.52,1.7,141.73,1.7,141.87,1.84ZM140.81,4a.71.71,0,0,0,.64.29A.67.67,0,0,0,142,4a1.51,1.51,0,0,0,.21-.85,1.13,1.13,0,0,0-.21-.77.88.88,0,0,0-.57-.29.65.65,0,0,0-.57.29,1.49,1.49,0,0,0-.21.84A.93.93,0,0,0,140.81,4Z"/><path d="M144.92,2.83c.14,0,.21-.07.21-.14V2.48a.56.56,0,0,0-.14-.36,1,1,0,0,0-.5-.14.69.69,0,0,0-.56.21c-.07.07-.07.22-.14.36h-.43a.91.91,0,0,1,.35-.78,1.47,1.47,0,0,1,.78-.21,1.51,1.51,0,0,1,.85.21.7.7,0,0,1,.29.64V4.25a.24.24,0,0,0,.14.07h.14v.35c-.07,0-.14,0-.14.07h-.14a.39.39,0,0,1-.36-.21c-.07-.07-.07-.14-.07-.28-.07.14-.21.21-.42.35a2.17,2.17,0,0,1-.64.14.88.88,0,0,1-.64-.21.91.91,0,0,1-.28-.64.71.71,0,0,1,.28-.64,1.36,1.36,0,0,1,.64-.28Zm-1,1.34a.5.5,0,0,0,.35.15,1.24,1.24,0,0,0,.5-.15.67.67,0,0,0,.42-.63V3.11a.26.26,0,0,1-.21.07c-.07,0-.21.07-.28.07l-.29.08a1,1,0,0,0-.42.14.42.42,0,0,0-.21.42C143.71,4,143.79,4.1,143.93,4.17Z"/><path d="M148,1.7h.5v.42a1.86,1.86,0,0,1,.42-.35,1.29,1.29,0,0,1,.5-.14.85.85,0,0,1,.84.42,1.41,1.41,0,0,1,.15.71V4.6h-.5V2.76c0-.14,0-.35-.07-.42s-.21-.29-.5-.29H149a1.53,1.53,0,0,0-.35.21.6.6,0,0,0-.14.29,2.48,2.48,0,0,0-.07.42V4.46H148Z"/><path d="M153.2,2a1.47,1.47,0,0,1,.35,1.13,1.84,1.84,0,0,1-.35,1.14,1.26,1.26,0,0,1-1.06.42,1,1,0,0,1-.92-.42,1.72,1.72,0,0,1-.36-1.07,1.77,1.77,0,0,1,.36-1.13,1.18,1.18,0,0,1,1-.42A1.57,1.57,0,0,1,153.2,2Zm-.36,2a1.51,1.51,0,0,0,.21-.85,1.4,1.4,0,0,0-.14-.63.7.7,0,0,0-.7-.43.73.73,0,0,0-.64.36,1.49,1.49,0,0,0-.21.84,1.42,1.42,0,0,0,.21.78.68.68,0,0,0,.64.29A.6.6,0,0,0,152.84,4Z"/><path d="M154.47,3.68a.53.53,0,0,0,.14.35.88.88,0,0,0,.64.22,1,1,0,0,0,.49-.15.38.38,0,0,0,.22-.35.34.34,0,0,0-.15-.28c-.07-.07-.21-.07-.42-.14L155,3.25A2.31,2.31,0,0,1,154.4,3a.62.62,0,0,1-.35-.56.69.69,0,0,1,.28-.64,1.47,1.47,0,0,1,.78-.28,1.41,1.41,0,0,1,1,.35.76.76,0,0,1,.21.5h-.5a.37.37,0,0,0-.14-.29.69.69,0,0,0-.56-.21c-.22,0-.36,0-.43.07a.36.36,0,0,0-.14.28c0,.15.07.22.21.29s.22.07.36.14l.35.07a3,3,0,0,1,.71.21.65.65,0,0,1,.28.57.68.68,0,0,1-.28.63,1.18,1.18,0,0,1-.92.29c-.43,0-.78-.07-.92-.29a.9.9,0,0,1-.28-.7h.42Z"/><path d="M158.57.92h.5V1.7h.49v.42h-.49V4a.29.29,0,0,0,.07.22h.35V4.6h-.35a1,1,0,0,1-.49-.14A.93.93,0,0,1,158.5,4V2.12h-.42V1.7h.42V.92Z"/><path d="M161.83,1.77a.72.72,0,0,1,.42.35,3.51,3.51,0,0,1,.22.5c0,.14.07.35.07.63h-2.13a1,1,0,0,0,.22.71.65.65,0,0,0,.56.29.78.78,0,0,0,.64-.29,1.53,1.53,0,0,0,.21-.35h.5c0,.14-.07.21-.14.35s-.15.21-.22.36a1.41,1.41,0,0,1-.56.28c-.14,0-.29.07-.43.07a1.27,1.27,0,0,1-.92-.42,1.49,1.49,0,0,1-.35-1.14A1.81,1.81,0,0,1,160.27,2a1.31,1.31,0,0,1,1-.42A5.05,5.05,0,0,0,161.83,1.77ZM162,2.9a1,1,0,0,0-.14-.49.73.73,0,0,0-.64-.36.79.79,0,0,0-.56.21.86.86,0,0,0-.22.64Z"/><path d="M163.1,1.7h.5v.49c.07-.07.14-.21.28-.35a.78.78,0,0,1,.5-.21h.21v.49h-.14a.78.78,0,0,0-.57.22.79.79,0,0,0-.21.56V4.6h-.5V1.7Z"/><path d="M164.94,1.7h.5v.42l.28-.28a.77.77,0,0,1,.57-.14,1.32,1.32,0,0,1,.56.14,1.18,1.18,0,0,1,.22.28c.14-.14.21-.28.35-.35a1,1,0,0,1,.49-.14.75.75,0,0,1,.78.42c.14.14.14.36.14.64V4.6h-.49v-2a.62.62,0,0,0-.14-.43.54.54,0,0,0-.36-.14.64.64,0,0,0-.49.21.9.9,0,0,0-.21.64V4.6h-.5V2.69c0-.21,0-.35-.07-.43a.42.42,0,0,0-.42-.21.64.64,0,0,0-.5.21,1.17,1.17,0,0,0-.21.78V4.6h-.5Z"/><path d="M171.66,2A1.44,1.44,0,0,1,172,3.11a1.78,1.78,0,0,1-.36,1.14,1.24,1.24,0,0,1-1.06.42,1.07,1.07,0,0,1-.92-.42,1.78,1.78,0,0,1-.35-1.07,1.83,1.83,0,0,1,.35-1.13,1.21,1.21,0,0,1,1-.42A1.52,1.52,0,0,1,171.66,2Zm-.28,2a1.51,1.51,0,0,0,.21-.85,1.4,1.4,0,0,0-.14-.63.7.7,0,0,0-.7-.43.73.73,0,0,0-.64.36,1.49,1.49,0,0,0-.21.84,1.42,1.42,0,0,0,.21.78.68.68,0,0,0,.64.29A.74.74,0,0,0,171.38,4Z"/><path d="M172.94,3.68a.53.53,0,0,0,.14.35.87.87,0,0,0,.64.22,1,1,0,0,0,.49-.15.38.38,0,0,0,.21-.35.36.36,0,0,0-.14-.28c-.07-.07-.21-.07-.42-.14l-.43-.08a2.37,2.37,0,0,1-.56-.21.63.63,0,0,1-.36-.56.68.68,0,0,1,.29-.64,1.47,1.47,0,0,1,.78-.28,1.43,1.43,0,0,1,1,.35.76.76,0,0,1,.21.5h-.5a.37.37,0,0,0-.14-.29.69.69,0,0,0-.56-.21c-.22,0-.36,0-.43.07a.36.36,0,0,0-.14.28c0,.15.07.22.21.29s.21.07.36.14l.35.07a3,3,0,0,1,.71.21.65.65,0,0,1,.28.57.68.68,0,0,1-.28.63,1.19,1.19,0,0,1-.92.29c-.43,0-.78-.07-.92-.29a.87.87,0,0,1-.29-.7h.43Z"/><path d="M178.53,1.84c.07.07.21.14.28.28V.64h.5v4h-.43V4.25a.68.68,0,0,1-.42.35,1.37,1.37,0,0,1-.57.14,1.13,1.13,0,0,1-.85-.42,1.78,1.78,0,0,1-.35-1.07A2.18,2.18,0,0,1,177,2.12a1.12,1.12,0,0,1,.92-.49C178.17,1.7,178.39,1.7,178.53,1.84ZM177.47,4a.69.69,0,0,0,.63.29.65.65,0,0,0,.57-.29,1.51,1.51,0,0,0,.21-.85,1.13,1.13,0,0,0-.21-.77.83.83,0,0,0-.57-.29.62.62,0,0,0-.56.29,1.49,1.49,0,0,0-.21.84A.93.93,0,0,0,177.47,4Z"/><path d="M181.57,2.83c.14,0,.21-.07.21-.14V2.48a.56.56,0,0,0-.14-.36,1,1,0,0,0-.49-.14.7.7,0,0,0-.57.21c-.07.07-.07.22-.14.36H180a.92.92,0,0,1,.36-.78,1.42,1.42,0,0,1,.78-.21,1.55,1.55,0,0,1,.85.21.69.69,0,0,1,.28.64V4.25a.24.24,0,0,0,.14.07h.14v.35c-.07,0-.14,0-.14.07h-.14a.38.38,0,0,1-.35-.21c-.08-.07-.08-.14-.08-.28-.07.14-.21.21-.42.35a2,2,0,0,1-.64.14.86.86,0,0,1-.63-.21.88.88,0,0,1-.29-.64.69.69,0,0,1,.29-.64,1.32,1.32,0,0,1,.63-.28Zm-1,1.34a.5.5,0,0,0,.35.15,1.16,1.16,0,0,0,.5-.15.67.67,0,0,0,.42-.63V3.11a.26.26,0,0,1-.21.07c-.07,0-.21.07-.28.07l-.28.08a1,1,0,0,0-.43.14.42.42,0,0,0-.21.42A.28.28,0,0,0,180.58,4.17Z"/><path d="M184.76.64h.56V4.17h2v.5h-2.54v-4Z"/><path d="M187.73.64h.49V1.2h-.49Zm0,1.06h.49V4.6h-.49Z"/><path d="M190.91,1.84a1,1,0,0,1,.36.85h-.5a.45.45,0,0,0-.21-.43.55.55,0,0,0-.5-.21.61.61,0,0,0-.63.43,2.06,2.06,0,0,0-.15.7,1.06,1.06,0,0,0,.22.71.57.57,0,0,0,.56.28.66.66,0,0,0,.5-.21.64.64,0,0,0,.21-.49h.5a1.76,1.76,0,0,1-.43.85,1.3,1.3,0,0,1-1.77-.15,1.73,1.73,0,0,1-.35-1.06,2,2,0,0,1,.35-1.2,1.15,1.15,0,0,1,.92-.42A4,4,0,0,1,190.91,1.84Z"/><path d="M193.53,1.77a.72.72,0,0,1,.42.35,2.65,2.65,0,0,1,.22.5c0,.14.07.35.07.63h-2.13a1.06,1.06,0,0,0,.22.71.65.65,0,0,0,.56.29.78.78,0,0,0,.64-.29,1.53,1.53,0,0,0,.21-.35h.5c0,.14-.07.21-.14.35s-.15.21-.22.36a1.41,1.41,0,0,1-.56.28c-.14,0-.29.07-.43.07a1.27,1.27,0,0,1-.92-.42,1.49,1.49,0,0,1-.35-1.14A1.81,1.81,0,0,1,192,2a1.31,1.31,0,0,1,1-.42C193.18,1.63,193.32,1.7,193.53,1.77Zm.14,1.13a1,1,0,0,0-.14-.49.73.73,0,0,0-.64-.36.79.79,0,0,0-.56.21.9.9,0,0,0-.22.64Z"/><path d="M194.8,1.7h.5v.42a1.86,1.86,0,0,1,.42-.35,1.4,1.4,0,0,1,.5-.14.86.86,0,0,1,.85.42,1.56,1.56,0,0,1,.14.71V4.6h-.5V2.76c0-.14,0-.35-.07-.42s-.21-.29-.49-.29h-.28a1.42,1.42,0,0,0-.36.21.6.6,0,0,0-.14.29,2.48,2.48,0,0,0-.07.42V4.46h-.5Z"/><path d="M199.83,1.84a1,1,0,0,1,.35.85h-.49a.44.44,0,0,0-.22-.43.54.54,0,0,0-.49-.21.62.62,0,0,0-.64.43,2.07,2.07,0,0,0-.14.7,1.06,1.06,0,0,0,.21.71.58.58,0,0,0,.57.28.64.64,0,0,0,.49-.21.61.61,0,0,0,.22-.49h.49a1.67,1.67,0,0,1-.42.85,1.09,1.09,0,0,1-.78.28l-.21.28H199a.36.36,0,0,1,.28.14.39.39,0,0,1,.14.29.53.53,0,0,1-.14.35,1,1,0,0,1-.49.14.45.45,0,0,1-.29-.07c-.07,0-.14-.07-.21-.07l.07-.21a.24.24,0,0,1,.14.07h.36c.07-.07.14-.14.14-.21s0-.14-.07-.14a.24.24,0,0,0-.21-.08h-.29L198.34,5l.28-.42a.9.9,0,0,1-.7-.28,1.6,1.6,0,0,1-.43-1.14,2,2,0,0,1,.36-1.2,1.13,1.13,0,0,1,.92-.42A3.62,3.62,0,0,1,199.83,1.84Z"/><path d="M202.23,2.83c.15,0,.22-.07.22-.14V2.48a.52.52,0,0,0-.15-.36,1,1,0,0,0-.49-.14.71.71,0,0,0-.57.21c-.07.07-.07.22-.14.36h-.42a.91.91,0,0,1,.35-.78,1.45,1.45,0,0,1,.78-.21,1.53,1.53,0,0,1,.85.21.69.69,0,0,1,.28.64V4.25a.24.24,0,0,0,.14.07h.14v.35c-.07,0-.14,0-.14.07h-.14a.38.38,0,0,1-.35-.21c-.07-.07-.07-.14-.07-.28-.07.14-.22.21-.43.35a2,2,0,0,1-.63.14.87.87,0,0,1-.64-.21.91.91,0,0,1-.28-.64.71.71,0,0,1,.28-.64,1.32,1.32,0,0,1,.64-.28Zm-1.06,1.34a.5.5,0,0,0,.36.15,1.16,1.16,0,0,0,.49-.15.68.68,0,0,0,.43-.63V3.11a.28.28,0,0,1-.22.07c-.07,0-.21.07-.28.07l-.28.08a1,1,0,0,0-.43.14.42.42,0,0,0-.21.42A.53.53,0,0,0,201.17,4.17Z"/><path d="M208.18.92a1.25,1.25,0,0,1,.42.92h-.49a1.15,1.15,0,0,0-.36-.64.85.85,0,0,0-.7-.21,1.11,1.11,0,0,0-.92.43,2,2,0,0,0-.36,1.27,1.75,1.75,0,0,0,.36,1.13,1.19,1.19,0,0,0,1,.43,1.08,1.08,0,0,0,.92-.43.87.87,0,0,0,.21-.64h.49a1.9,1.9,0,0,1-.49,1.07,1.53,1.53,0,0,1-1.28.49,1.63,1.63,0,0,1-1.13-.42,2.11,2.11,0,0,1-.63-1.7,2.28,2.28,0,0,1,.42-1.42A1.64,1.64,0,0,1,207,.57,1.57,1.57,0,0,1,208.18.92Z"/><path d="M209.31,1.7h.49v.49c.08-.07.15-.21.29-.35a.76.76,0,0,1,.49-.21h.22v.49h-.15a.76.76,0,0,0-.56.22.79.79,0,0,0-.21.56V4.6h-.5V1.7Z"/><path d="M212.92,1.77a.72.72,0,0,1,.42.35,5.18,5.18,0,0,1,.22.5c0,.14.07.35.07.63H211.5a1,1,0,0,0,.22.71.65.65,0,0,0,.56.29.79.79,0,0,0,.64-.29,1.53,1.53,0,0,0,.21-.35h.5c0,.14-.07.21-.15.35s-.14.21-.21.36a1.41,1.41,0,0,1-.56.28c-.15,0-.29.07-.43.07a1.25,1.25,0,0,1-.92-.42A1.49,1.49,0,0,1,211,3.11,1.81,1.81,0,0,1,211.36,2a1.29,1.29,0,0,1,1-.42A5.05,5.05,0,0,1,212.92,1.77Zm.21,1.13a1,1,0,0,0-.14-.49.73.73,0,0,0-.64-.36.79.79,0,0,0-.56.21.86.86,0,0,0-.22.64Z"/><path d="M215.82,2.83c.14,0,.21-.07.21-.14V2.48a.56.56,0,0,0-.14-.36,1,1,0,0,0-.5-.14.69.69,0,0,0-.56.21c-.07.07-.07.22-.14.36h-.43a.89.89,0,0,1,.36-.78,1.41,1.41,0,0,1,.77-.21,1.51,1.51,0,0,1,.85.21.68.68,0,0,1,.29.64V4.25a.24.24,0,0,0,.14.07h.14v.35c-.07,0-.14,0-.14.07h-.14a.4.4,0,0,1-.36-.21c-.07-.07-.07-.14-.07-.28-.07.14-.21.21-.42.35a2.1,2.1,0,0,1-.64.14.9.9,0,0,1-.64-.21.88.88,0,0,1-.28-.64.71.71,0,0,1,.28-.64A1.41,1.41,0,0,1,215,3Zm-1.06,1.34a.5.5,0,0,0,.35.15,1.2,1.2,0,0,0,.5-.15.67.67,0,0,0,.42-.63V3.11a.26.26,0,0,1-.21.07c-.07,0-.21.07-.28.07l-.29.08a1,1,0,0,0-.42.14.42.42,0,0,0-.21.42A.53.53,0,0,0,214.76,4.17Z"/><path d="M217.45.92h.49V1.7h.5v.42h-.5V4a.29.29,0,0,0,.07.22h.36V4.6H218a1,1,0,0,1-.49-.14,1,1,0,0,1-.14-.43V2.12H217V1.7h.43V.92Z"/><path d="M218.86.64h.5V1.2h-.5Zm0,1.06h.5V4.6h-.5Z"/><path d="M220.35,1.7,221.13,4l.77-2.33h.57l-1.06,2.9h-.5l-1.13-2.9Z"/><path d="M224.66,1.77a.71.71,0,0,1,.43.35,3.59,3.59,0,0,1,.21.5c0,.14.07.35.07.63h-2.12a1.06,1.06,0,0,0,.21.71.66.66,0,0,0,.57.29.77.77,0,0,0,.63-.29,1.24,1.24,0,0,0,.22-.35h.49c0,.14-.07.21-.14.35s-.14.21-.21.36a1.45,1.45,0,0,1-.57.28c-.14,0-.28.07-.42.07a1.24,1.24,0,0,1-.92-.42,1.46,1.46,0,0,1-.36-1.14A1.81,1.81,0,0,1,223.11,2a1.28,1.28,0,0,1,1-.42A4.82,4.82,0,0,0,224.66,1.77Zm.15,1.13a.92.92,0,0,0-.15-.49.72.72,0,0,0-.63-.36.82.82,0,0,0-.57.21.9.9,0,0,0-.21.64Z"/><path d="M83.07,7.57a1.23,1.23,0,0,1,.43.92H83a1.2,1.2,0,0,0-.35-.64.87.87,0,0,0-.71-.21,1.13,1.13,0,0,0-.92.43,2.09,2.09,0,0,0-.35,1.27A1.79,1.79,0,0,0,81,10.47a1.17,1.17,0,0,0,1,.43,1,1,0,0,0,.92-.43.86.86,0,0,0,.21-.63h.5a1.85,1.85,0,0,1-.5,1.06,1.51,1.51,0,0,1-1.27.49A1.61,1.61,0,0,1,80.74,11a2.08,2.08,0,0,1-.64-1.7,2.22,2.22,0,0,1,.43-1.42,1.63,1.63,0,0,1,1.34-.63A1.53,1.53,0,0,1,83.07,7.57Z"/><path d="M86.33,8.63a1.48,1.48,0,0,1,.35,1.13,1.84,1.84,0,0,1-.35,1.14,1.25,1.25,0,0,1-1.06.42,1,1,0,0,1-.92-.42A1.72,1.72,0,0,1,84,9.84a1.78,1.78,0,0,1,.36-1.14,1.18,1.18,0,0,1,1-.42A1.57,1.57,0,0,1,86.33,8.63Zm-.36,2a1.43,1.43,0,0,0,.22-.85A1.27,1.27,0,0,0,86,9.13a.71.71,0,0,0-.7-.43.75.75,0,0,0-.64.36,1.51,1.51,0,0,0-.21.85,1.41,1.41,0,0,0,.21.77.68.68,0,0,0,.64.29C85.69,11,85.9,10.83,86,10.61Z"/><path d="M87.32,8.35h.49v.42l.29-.28a.75.75,0,0,1,.56-.14,1.33,1.33,0,0,1,.57.14,1,1,0,0,1,.21.28c.14-.14.21-.28.36-.35a1,1,0,0,1,.49-.14.76.76,0,0,1,.78.42,1.48,1.48,0,0,1,.14.64v1.91h-.5v-2a.59.59,0,0,0-.14-.42.5.5,0,0,0-.35-.15.65.65,0,0,0-.5.22.86.86,0,0,0-.21.63v1.7H89V9.34c0-.21,0-.35-.07-.42a.43.43,0,0,0-.43-.22.61.61,0,0,0-.49.22,1.07,1.07,0,0,0-.22.77v1.56h-.49V8.35Z"/><path d="M91.92,8.35h.49v.42l.29-.28a.75.75,0,0,1,.56-.14,1.37,1.37,0,0,1,.57.14,1,1,0,0,1,.21.28c.14-.14.21-.28.35-.35a1.09,1.09,0,0,1,.5-.14.76.76,0,0,1,.78.42,1.48,1.48,0,0,1,.14.64v1.91h-.5v-2a.59.59,0,0,0-.14-.42.5.5,0,0,0-.35-.15.65.65,0,0,0-.5.22.86.86,0,0,0-.21.63v1.7h-.49V9.34c0-.21,0-.35-.07-.42a.44.44,0,0,0-.43-.22.61.61,0,0,0-.49.22,1.16,1.16,0,0,0-.22.84v1.56h-.49Z"/><path d="M98.64,8.63A1.48,1.48,0,0,1,99,9.76a1.84,1.84,0,0,1-.35,1.14,1.25,1.25,0,0,1-1.06.42,1,1,0,0,1-.92-.42,1.77,1.77,0,0,1-.35-1.06,1.84,1.84,0,0,1,.35-1.14,1.18,1.18,0,0,1,1-.42A1.55,1.55,0,0,1,98.64,8.63Zm-.35,2a1.51,1.51,0,0,0,.21-.85,1.4,1.4,0,0,0-.14-.63.72.72,0,0,0-.71-.43.76.76,0,0,0-.64.36,1.51,1.51,0,0,0-.21.85,1.41,1.41,0,0,0,.21.77.69.69,0,0,0,.64.29C98,11,98.22,10.83,98.29,10.61Z"/><path d="M99.63,8.35h.5v.42a1.86,1.86,0,0,1,.42-.35,1.29,1.29,0,0,1,.5-.14.87.87,0,0,1,.85.42,1.59,1.59,0,0,1,.14.71v1.84h-.5V9.41c0-.14,0-.35-.07-.42-.07-.22-.21-.29-.49-.29h-.29a1.52,1.52,0,0,0-.35.22.53.53,0,0,0-.14.28,2.48,2.48,0,0,0-.07.42v1.49h-.5Z"/><path d="M103,10.33a.53.53,0,0,0,.14.35.82.82,0,0,0,.63.22,1,1,0,0,0,.5-.14.41.41,0,0,0,.21-.36.36.36,0,0,0-.14-.28c-.07-.07-.21-.07-.42-.14l-.43-.07a2.31,2.31,0,0,1-.56-.22.62.62,0,0,1-.36-.56.7.7,0,0,1,.28-.64,1.53,1.53,0,0,1,.78-.28,1.39,1.39,0,0,1,1,.35.75.75,0,0,1,.22.5h-.5a.4.4,0,0,0-.14-.29.7.7,0,0,0-.57-.21c-.21,0-.35,0-.42.07a.37.37,0,0,0-.14.29c0,.14.07.21.21.28s.21.07.35.14l.36.07a2.84,2.84,0,0,1,.7.21.64.64,0,0,1,.29.57.69.69,0,0,1-.29.64,1.2,1.2,0,0,1-.92.28,1.13,1.13,0,0,1-.92-.28.93.93,0,0,1-.28-.71H103Z"/><path d="M106.85,9.48h1.34V10h-1.34Z"/><path d="M111.31,7.29h.63l1.42,4h-.57l-.42-1.2h-1.56l-.42,1.2h-.57Zm.92,2.33-.64-1.77L111,9.62Z"/><path d="M113.85,7.57h.5v.78h.49v.42h-.49v1.91a.27.27,0,0,0,.07.22h.35v.35h-.35a1.09,1.09,0,0,1-.5-.14,1,1,0,0,1-.14-.43V8.77h-.42V8.35h.42V7.57Z"/><path d="M115.34,8.35h.49v.5c.08-.08.15-.22.29-.36a.76.76,0,0,1,.49-.21h.22v.49h-.15a.8.8,0,0,0-.56.22.79.79,0,0,0-.21.56v1.7h-.5V8.35Z"/><path d="M117.18,7.29h.49v.56h-.49Zm0,1.06h.49v2.9h-.49Z"/><path d="M118.38,7.29h.5V8.7a1.23,1.23,0,0,1,.35-.28,1,1,0,0,1,.5-.14,1.2,1.2,0,0,1,.85.35,1.69,1.69,0,0,1,.35,1.13,2,2,0,0,1-.35,1.14,1.16,1.16,0,0,1-.92.42,1.33,1.33,0,0,1-.57-.14c-.07-.07-.21-.14-.28-.28v.35h-.43v-4Zm1.84,3.32a1.51,1.51,0,0,0,.21-.85,1.41,1.41,0,0,0-.21-.77.62.62,0,0,0-.56-.29.77.77,0,0,0-.57.22,1.12,1.12,0,0,0-.28.77,1.58,1.58,0,0,0,.07.64.69.69,0,0,0,.71.5A.52.52,0,0,0,120.22,10.61Z"/><path d="M122,8.35v1.91a.52.52,0,0,0,.07.35.5.5,0,0,0,.5.29.7.7,0,0,0,.7-.43,1.37,1.37,0,0,0,.08-.63V8.42h.49v2.9h-.49V10.9a1.18,1.18,0,0,1-.22.28,1.13,1.13,0,0,1-.63.21.85.85,0,0,1-.85-.42,1.37,1.37,0,0,1-.14-.57V8.35Z"/><path d="M124.54,7.29H125v.56h-.49Zm0,1.06H125v2.9h-.49Z"/><path d="M127.72,8.49a1,1,0,0,1,.36.85h-.5a.42.42,0,0,0-.21-.42.54.54,0,0,0-.5-.22.62.62,0,0,0-.63.43,2.08,2.08,0,0,0-.14.71,1,1,0,0,0,.21.7.56.56,0,0,0,.56.29.62.62,0,0,0,.5-.22.64.64,0,0,0,.21-.49h.5a1.64,1.64,0,0,1-.43.85,1.06,1.06,0,0,1-.78.28l-.21.28h.21a.35.35,0,0,1,.29.15.36.36,0,0,1,.14.28.53.53,0,0,1-.14.35,1.05,1.05,0,0,1-.5.14.42.42,0,0,1-.28-.07c-.07,0-.14-.07-.21-.07l.07-.21a.24.24,0,0,1,.14.07h.35c.07-.07.14-.14.14-.21s0-.14-.07-.14a.26.26,0,0,0-.21-.07h-.28l-.07-.15.28-.42a.92.92,0,0,1-.71-.28,1.64,1.64,0,0,1-.42-1.14,2.06,2.06,0,0,1,.35-1.2,1.15,1.15,0,0,1,.92-.42A3.51,3.51,0,0,1,127.72,8.49Z"/><path d="M130.13,9.48c.14,0,.21-.07.21-.14V9.13a.59.59,0,0,0-.14-.36,1,1,0,0,0-.5-.14.66.66,0,0,0-.56.22c-.07.07-.07.21-.14.35h-.43a.9.9,0,0,1,.36-.78,1.41,1.41,0,0,1,.77-.21,1.51,1.51,0,0,1,.85.21.68.68,0,0,1,.29.64V10.9A.24.24,0,0,0,131,11h.14v.35c-.07,0-.14,0-.14.07h-.14a.39.39,0,0,1-.36-.21c-.07-.07-.07-.14-.07-.28-.07.14-.21.21-.42.35a2.17,2.17,0,0,1-.64.14.88.88,0,0,1-.64-.21.89.89,0,0,1-.28-.64.68.68,0,0,1,.28-.63,1.27,1.27,0,0,1,.64-.29Zm-.21-2c.07,0,.07.07.14.07h.14a.26.26,0,0,0,.21-.07.24.24,0,0,0,.07-.14h.29a4.88,4.88,0,0,1-.22.49c-.14.08-.21.15-.35.15h-.14c-.07,0-.14,0-.14-.07l-.15-.08c-.07,0-.14-.07-.21-.07h-.14c-.07,0-.14,0-.14.07s-.07.08-.07.22h-.28a.56.56,0,0,1,.14-.36.58.58,0,0,1,.42-.28h.21C129.7,7.36,129.77,7.43,129.92,7.5Zm-.85,3.33a.53.53,0,0,0,.35.14,1.4,1.4,0,0,0,.5-.14.7.7,0,0,0,.42-.64V9.76a.24.24,0,0,1-.21.08c-.07,0-.21.07-.28.07l-.29.07a1,1,0,0,0-.42.14.42.42,0,0,0-.21.42A.56.56,0,0,0,129.07,10.83Z"/><path d="M133.74,8.63a1.48,1.48,0,0,1,.35,1.13,1.84,1.84,0,0,1-.35,1.14,1.25,1.25,0,0,1-1.06.42,1,1,0,0,1-.92-.42,1.72,1.72,0,0,1-.36-1.06,1.78,1.78,0,0,1,.36-1.14,1.18,1.18,0,0,1,1-.42A1.41,1.41,0,0,1,133.74,8.63Zm-.29,2a1.43,1.43,0,0,0,.22-.85,1.4,1.4,0,0,0-.14-.63.73.73,0,0,0-.71-.43.75.75,0,0,0-.64.36,1.51,1.51,0,0,0-.21.85,1.41,1.41,0,0,0,.21.77.68.68,0,0,0,.64.29A.72.72,0,0,0,133.45,10.61Z"/><path d="M136.14,9.48h1.35V10h-1.35Z"/><path d="M139.75,7.29h.64l2,3.18V7.29h.5v4h-.64l-2-3.18v3.18h-.5Z"/><path d="M145.2,9.48c.14,0,.21-.07.21-.14V9.13a.59.59,0,0,0-.14-.36,1,1,0,0,0-.49-.14.67.67,0,0,0-.57.22c-.07.07-.07.21-.14.35h-.43a.93.93,0,0,1,.36-.78,1.42,1.42,0,0,1,.78-.21,1.55,1.55,0,0,1,.85.21.69.69,0,0,1,.28.64V10.9a.24.24,0,0,0,.14.07h.14v.35c-.07,0-.14,0-.14.07h-.14a.41.41,0,0,1-.36-.21c-.07-.07-.07-.14-.07-.28-.07.14-.21.21-.42.35a2.1,2.1,0,0,1-.64.14.85.85,0,0,1-.92-.85.67.67,0,0,1,.29-.63,1.23,1.23,0,0,1,.63-.29Zm-.21-2c.07,0,.07.07.14.07h.14a.26.26,0,0,0,.21-.07.24.24,0,0,0,.07-.14h.29a3.41,3.41,0,0,1-.21.49c-.15.08-.22.15-.36.15h-.14c-.07,0-.14,0-.14-.07l-.14-.08c-.07,0-.14-.07-.22-.07h-.14c-.07,0-.14,0-.14.07s-.07.08-.07.22H144a.56.56,0,0,1,.14-.36.58.58,0,0,1,.42-.28h.22C144.78,7.36,144.92,7.43,145,7.5Zm-.78,3.33a.53.53,0,0,0,.35.14,1.29,1.29,0,0,0,.5-.14.7.7,0,0,0,.42-.64V9.76a.24.24,0,0,1-.21.08c-.07,0-.21.07-.28.07l-.28.07a1,1,0,0,0-.43.14.42.42,0,0,0-.21.42A.29.29,0,0,0,144.21,10.83Z"/><path d="M148.81,8.63a1.48,1.48,0,0,1,.35,1.13,1.84,1.84,0,0,1-.35,1.14,1.25,1.25,0,0,1-1.06.42,1,1,0,0,1-.92-.42,1.78,1.78,0,0,1-.36-1.06,1.84,1.84,0,0,1,.36-1.14,1.18,1.18,0,0,1,1-.42A1.41,1.41,0,0,1,148.81,8.63Zm-.28,2a1.51,1.51,0,0,0,.21-.85,1.4,1.4,0,0,0-.14-.63.72.72,0,0,0-.71-.43.76.76,0,0,0-.64.36,1.51,1.51,0,0,0-.21.85,1.41,1.41,0,0,0,.21.77.69.69,0,0,0,.64.29A.66.66,0,0,0,148.53,10.61Z"/><path d="M153.27,8.49a1,1,0,0,1,.35.85h-.49a.43.43,0,0,0-.22-.42.53.53,0,0,0-.49-.22.63.63,0,0,0-.64.43,2.08,2.08,0,0,0-.14.71,1,1,0,0,0,.21.7.57.57,0,0,0,.57.29.61.61,0,0,0,.49-.22.64.64,0,0,0,.22-.49h.49a1.63,1.63,0,0,1-.42.85,1.15,1.15,0,0,1-.85.28,1.13,1.13,0,0,1-.92-.42,1.79,1.79,0,0,1-.36-1.07,2.06,2.06,0,0,1,.36-1.2,1.13,1.13,0,0,1,.92-.42A3.26,3.26,0,0,1,153.27,8.49Z"/><path d="M156.24,8.63a1.48,1.48,0,0,1,.35,1.13,1.84,1.84,0,0,1-.35,1.14,1.25,1.25,0,0,1-1.06.42,1,1,0,0,1-.92-.42,1.78,1.78,0,0,1-.36-1.06,1.84,1.84,0,0,1,.36-1.14,1.18,1.18,0,0,1,1-.42A1.55,1.55,0,0,1,156.24,8.63Zm-.28,2a1.51,1.51,0,0,0,.21-.85,1.4,1.4,0,0,0-.14-.63.72.72,0,0,0-.71-.43.76.76,0,0,0-.64.36,1.51,1.51,0,0,0-.21.85,1.41,1.41,0,0,0,.21.77.69.69,0,0,0,.64.29A.75.75,0,0,0,156,10.61Z"/><path d="M157.23,8.35h.5v.42l.28-.28a.75.75,0,0,1,.56-.14,1.33,1.33,0,0,1,.57.14,1,1,0,0,1,.21.28c.14-.14.21-.28.36-.35a1,1,0,0,1,.49-.14.75.75,0,0,1,.78.42,1.48,1.48,0,0,1,.14.64v1.91h-.49v-2a.55.55,0,0,0-.15-.42.5.5,0,0,0-.35-.15.61.61,0,0,0-.49.22.82.82,0,0,0-.22.63v1.7h-.49V9.34c0-.21,0-.35-.07-.42a.42.42,0,0,0-.43-.22.61.61,0,0,0-.49.22,1.13,1.13,0,0,0-.21.77v1.56h-.5V8.35Z"/><path d="M163.6,8.42a.72.72,0,0,1,.42.35c.07.15.14.29.22.5s.07.35.07.64h-2.13a1,1,0,0,0,.22.7.62.62,0,0,0,.56.29.76.76,0,0,0,.64-.29,1.53,1.53,0,0,0,.21-.35h.5c0,.14-.07.21-.15.35s-.14.22-.21.36a1.41,1.41,0,0,1-.56.28c-.15,0-.29.07-.43.07a1.25,1.25,0,0,1-.92-.42,1.49,1.49,0,0,1-.35-1.14A1.83,1.83,0,0,1,162,8.63a1.29,1.29,0,0,1,1-.42A5.05,5.05,0,0,1,163.6,8.42Zm.21,1.13a1,1,0,0,0-.14-.49A.75.75,0,0,0,163,8.7a.76.76,0,0,0-.56.22.82.82,0,0,0-.22.63Z"/><path d="M164.94,8.35h.5v.5a3.68,3.68,0,0,1,.28-.36.76.76,0,0,1,.5-.21h.21v.49h-.14a.81.81,0,0,0-.57.22.79.79,0,0,0-.21.56v1.7H165V8.35Z"/><path d="M168.69,8.49a1,1,0,0,1,.36.85h-.5a.42.42,0,0,0-.21-.42.54.54,0,0,0-.5-.22.62.62,0,0,0-.63.43,2.08,2.08,0,0,0-.14.71,1,1,0,0,0,.21.7.56.56,0,0,0,.56.29.62.62,0,0,0,.5-.22.64.64,0,0,0,.21-.49h.5a1.64,1.64,0,0,1-.43.85,1.13,1.13,0,0,1-.85.28,1.16,1.16,0,0,1-.92-.42,1.78,1.78,0,0,1-.35-1.07,2.06,2.06,0,0,1,.35-1.2,1.16,1.16,0,0,1,.92-.42A4,4,0,0,1,168.69,8.49Z"/><path d="M169.54,7.29h.5v.56h-.5Zm0,1.06h.5v2.9h-.5Z"/><path d="M172.3,9.48c.14,0,.21-.07.21-.14V9.13a.59.59,0,0,0-.14-.36,1,1,0,0,0-.49-.14.67.67,0,0,0-.57.22c-.07.07-.07.21-.14.35h-.42a.92.92,0,0,1,.35-.78,1.42,1.42,0,0,1,.78-.21,1.55,1.55,0,0,1,.85.21.69.69,0,0,1,.28.64V10.9a.24.24,0,0,0,.14.07h.14v.35c-.07,0-.14,0-.14.07H173a.38.38,0,0,1-.35-.21c-.08-.07-.08-.14-.08-.28-.07.14-.21.21-.42.35a2,2,0,0,1-.64.14.86.86,0,0,1-.63-.21.9.9,0,0,1-.29-.64.67.67,0,0,1,.29-.63,1.23,1.23,0,0,1,.63-.29Zm-1,1.35a.53.53,0,0,0,.35.14,1.29,1.29,0,0,0,.5-.14.7.7,0,0,0,.42-.64V9.76a.24.24,0,0,1-.21.08c-.07,0-.21.07-.28.07l-.28.07a1,1,0,0,0-.43.14.42.42,0,0,0-.21.42A.29.29,0,0,0,171.31,10.83Z"/><path d="M173.86,7.29h.49v4h-.49Z"/><path d="M176.48,9.48h1.34V10h-1.34Z"/><path d="M182.92,7.57a1.25,1.25,0,0,1,.42.92h-.49a1.29,1.29,0,0,0-.36-.64.86.86,0,0,0-.71-.21,1.14,1.14,0,0,0-.92.43,2.09,2.09,0,0,0-.35,1.27,1.79,1.79,0,0,0,.35,1.13,1.19,1.19,0,0,0,1,.43,1,1,0,0,0,.92-.43.82.82,0,0,0,.22-.63h.49A1.9,1.9,0,0,1,183,10.9a1.54,1.54,0,0,1-1.28.49,1.61,1.61,0,0,1-1.13-.42,2.12,2.12,0,0,1-.64-1.7,2.29,2.29,0,0,1,.43-1.42,1.64,1.64,0,0,1,1.34-.63A1.67,1.67,0,0,1,182.92,7.57Z"/><path d="M186.1,8.63a1.48,1.48,0,0,1,.35,1.13,1.84,1.84,0,0,1-.35,1.14,1.25,1.25,0,0,1-1.06.42,1,1,0,0,1-.92-.42,1.77,1.77,0,0,1-.35-1.06,1.84,1.84,0,0,1,.35-1.14,1.18,1.18,0,0,1,1-.42A1.41,1.41,0,0,1,186.1,8.63Zm-.28,2a1.51,1.51,0,0,0,.21-.85,1.4,1.4,0,0,0-.14-.63.72.72,0,0,0-.71-.43.76.76,0,0,0-.64.36,1.51,1.51,0,0,0-.21.85,1.41,1.41,0,0,0,.21.77.69.69,0,0,0,.64.29A.74.74,0,0,0,185.82,10.61Z"/><path d="M187.09,8.35h.5v.42l.28-.28a.77.77,0,0,1,.57-.14,1.32,1.32,0,0,1,.56.14,1,1,0,0,1,.21.28c.15-.14.22-.28.36-.35a1,1,0,0,1,.49-.14.75.75,0,0,1,.78.42,1.48,1.48,0,0,1,.14.64v1.91h-.49v-2a.59.59,0,0,0-.14-.42A.54.54,0,0,0,190,8.7a.61.61,0,0,0-.49.22.86.86,0,0,0-.22.63v1.7h-.49V9.34c0-.21,0-.35-.07-.42a.42.42,0,0,0-.43-.22.61.61,0,0,0-.49.22,1.13,1.13,0,0,0-.21.77v1.56h-.5V8.35Z"/><path d="M191.69,8.35h.5V8.7a.7.7,0,0,1,.35-.28.77.77,0,0,1,.57-.14,1.16,1.16,0,0,1,.84.35,1.72,1.72,0,0,1,.36,1.06,1.56,1.56,0,0,1-.5,1.35,1.24,1.24,0,0,1-.7.28,1.33,1.33,0,0,1-.57-.14c-.07-.07-.21-.14-.28-.28v1.48h-.5v-4Zm1.84,2.33a1.49,1.49,0,0,0,.21-.84,1.39,1.39,0,0,0-.07-.57.75.75,0,0,0-1.41,0,2.19,2.19,0,0,0-.07.71,1.36,1.36,0,0,0,.07.56.7.7,0,0,0,.7.43C193.18,11,193.32,10.83,193.53,10.68Z"/><path d="M196.36,9.48c.14,0,.21-.07.21-.14V9.13a.59.59,0,0,0-.14-.36,1,1,0,0,0-.49-.14.67.67,0,0,0-.57.22c-.07.07-.07.21-.14.35h-.43a.93.93,0,0,1,.36-.78,1.42,1.42,0,0,1,.78-.21,1.49,1.49,0,0,1,.84.21.68.68,0,0,1,.29.64V10.9a.24.24,0,0,0,.14.07h.14v.35c-.07,0-.14,0-.14.07h-.14a.4.4,0,0,1-.36-.21c-.07-.07-.07-.14-.07-.28-.07.14-.21.21-.42.35a2.1,2.1,0,0,1-.64.14.85.85,0,0,1-.92-.85.67.67,0,0,1,.29-.63,1.23,1.23,0,0,1,.63-.29Zm-1.06,1.35a.53.53,0,0,0,.35.14,1.34,1.34,0,0,0,.5-.14.7.7,0,0,0,.42-.64V9.76a.24.24,0,0,1-.21.08c-.07,0-.21.07-.28.07l-.29.07a1,1,0,0,0-.42.14.42.42,0,0,0-.21.42A.56.56,0,0,0,195.3,10.83Z"/><path d="M197.92,8.35h.49v.5a2.82,2.82,0,0,1,.29-.36.76.76,0,0,1,.49-.21h.21v.49h-.14a.8.8,0,0,0-.56.22.76.76,0,0,0-.22.56v1.7H198V8.35Z"/><path d="M199.83,7.57h.49v.78h.5v.42h-.5v1.91a.27.27,0,0,0,.07.22h.36v.35h-.36a1,1,0,0,1-.49-.14,1,1,0,0,1-.14-.43V8.77h-.43V8.35h.43V7.57Z"/><path d="M201.24,7.29h.5v.56h-.5Zm0,1.06h.5v2.9h-.5Z"/><path d="M202.52,7.29H203v4h-.49Z"/><path d="M203.72,7.29h.49V8.77c.15-.14.22-.28.29-.28a1.32,1.32,0,0,1,.56-.14.85.85,0,0,1,.85.42,1.48,1.48,0,0,1,.14.64v1.84h-.49V9.41a1,1,0,0,0-.07-.49.54.54,0,0,0-.5-.22.89.89,0,0,0-.56.22,1.12,1.12,0,0,0-.22.77v1.56h-.49Z"/><path d="M208.39,9.48c.14,0,.21-.07.21-.14V9.13a.59.59,0,0,0-.14-.36,1,1,0,0,0-.49-.14.67.67,0,0,0-.57.22c-.07.07-.07.21-.14.35h-.43a.9.9,0,0,1,.36-.78,1.42,1.42,0,0,1,.78-.21,1.49,1.49,0,0,1,.84.21.68.68,0,0,1,.29.64V10.9a.24.24,0,0,0,.14.07h.14v.35c-.07,0-.14,0-.14.07h-.14a.4.4,0,0,1-.36-.21c-.07-.07-.07-.14-.07-.28-.07.14-.21.21-.42.35a2.1,2.1,0,0,1-.64.14.84.84,0,0,1-.92-.85.68.68,0,0,1,.28-.63,1.31,1.31,0,0,1,.64-.29Zm-1.06,1.35a.53.53,0,0,0,.35.14,1.34,1.34,0,0,0,.5-.14.7.7,0,0,0,.42-.64V9.76a.24.24,0,0,1-.21.08c-.07,0-.21.07-.28.07l-.29.07a1,1,0,0,0-.42.14.42.42,0,0,0-.21.42A.56.56,0,0,0,207.33,10.83Z"/><path d="M209.88,8.35h.49v.42l.28-.28a.79.79,0,0,1,.57-.14,1.41,1.41,0,0,1,.57.14,1,1,0,0,1,.21.28c.14-.14.21-.28.35-.35a1.05,1.05,0,0,1,.5-.14.76.76,0,0,1,.78.42,1.48,1.48,0,0,1,.14.64v1.91h-.5v-2a.59.59,0,0,0-.14-.42.5.5,0,0,0-.35-.15.62.62,0,0,0-.5.22.86.86,0,0,0-.21.63v1.7h-.5V9.34c0-.21,0-.35-.07-.42a.41.41,0,0,0-.42-.22.63.63,0,0,0-.5.22,1.13,1.13,0,0,0-.21.77v1.56h-.49Z"/><path d="M216.31,8.42a.71.71,0,0,1,.43.35,4.2,4.2,0,0,1,.21.5c0,.14.07.35.07.64H214.9a1,1,0,0,0,.21.7.64.64,0,0,0,.57.29.74.74,0,0,0,.63-.29,1.24,1.24,0,0,0,.22-.35H217c0,.14-.07.21-.14.35s-.14.22-.21.36a1.45,1.45,0,0,1-.57.28c-.14,0-.28.07-.42.07a1.24,1.24,0,0,1-.92-.42,1.5,1.5,0,0,1-.36-1.14,1.84,1.84,0,0,1,.36-1.13,1.28,1.28,0,0,1,1-.42A4.82,4.82,0,0,0,216.31,8.42Zm.15,1.13a.92.92,0,0,0-.15-.49.74.74,0,0,0-.63-.36.78.78,0,0,0-.57.22.86.86,0,0,0-.21.63Z"/><path d="M217.59,8.35h.49v.42a2.13,2.13,0,0,1,.43-.35,1.3,1.3,0,0,1,.49-.14.85.85,0,0,1,.85.42,1.59,1.59,0,0,1,.14.71v1.84h-.49V9.41c0-.14,0-.35-.07-.42-.07-.22-.21-.29-.5-.29h-.28a1.52,1.52,0,0,0-.35.22.55.55,0,0,0-.15.28,2.48,2.48,0,0,0-.07.42v1.49h-.49Z"/><path d="M220.77,7.57h.5v.78h.49v.42h-.49v1.91a.27.27,0,0,0,.07.22h.35v.35h-.35a1.09,1.09,0,0,1-.5-.14,1,1,0,0,1-.14-.43V8.77h-.42V8.35h.42V7.57Z"/><path d="M224.31,8.63a1.48,1.48,0,0,1,.35,1.13,1.84,1.84,0,0,1-.35,1.14,1.25,1.25,0,0,1-1.06.42,1,1,0,0,1-.92-.42A1.77,1.77,0,0,1,222,9.84a1.84,1.84,0,0,1,.35-1.14,1.19,1.19,0,0,1,1-.42A1.55,1.55,0,0,1,224.31,8.63Zm-.28,2a1.51,1.51,0,0,0,.21-.85,1.4,1.4,0,0,0-.14-.63.72.72,0,0,0-.71-.43.77.77,0,0,0-.64.36,1.51,1.51,0,0,0-.21.85,1.41,1.41,0,0,0,.21.77.69.69,0,0,0,.64.29A.74.74,0,0,0,224,10.61Z"/><path d="M226.79,8.35h.49V8.7a.72.72,0,0,1,.36-.28.75.75,0,0,1,.56-.14,1.17,1.17,0,0,1,.85.35,1.78,1.78,0,0,1,.36,1.06,1.59,1.59,0,0,1-.5,1.35,1.25,1.25,0,0,1-.71.28,1.32,1.32,0,0,1-.56-.14c-.07-.07-.22-.14-.29-.28v1.48h-.49v-4Zm1.84,2.33a1.49,1.49,0,0,0,.21-.84,1.39,1.39,0,0,0-.07-.57.69.69,0,0,0-.71-.5.7.7,0,0,0-.71.5,2.19,2.19,0,0,0-.07.71,1.36,1.36,0,0,0,.07.56.72.72,0,0,0,.71.43A.86.86,0,0,0,228.63,10.68Z"/><path d="M231.74,8.42a.77.77,0,0,1,.43.35,4.2,4.2,0,0,1,.21.5c0,.14.07.35.07.64h-2.12a1,1,0,0,0,.21.7.62.62,0,0,0,.56.29.75.75,0,0,0,.64-.29,1.53,1.53,0,0,0,.21-.35h.5c0,.14-.07.21-.14.35s-.14.22-.22.36a1.41,1.41,0,0,1-.56.28c-.14,0-.28.07-.43.07a1.27,1.27,0,0,1-.92-.42,1.49,1.49,0,0,1-.35-1.14,1.83,1.83,0,0,1,.35-1.13,1.31,1.31,0,0,1,1-.42A5.91,5.91,0,0,0,231.74,8.42Zm.14,1.13a1,1,0,0,0-.14-.49.75.75,0,0,0-.64-.36.76.76,0,0,0-.56.22.86.86,0,0,0-.21.63Z"/><path d="M233,7.29h.5v4H233Z"/><path d="M235.77,9.48c.15,0,.22-.07.22-.14V9.13a.54.54,0,0,0-.15-.36,1,1,0,0,0-.49-.14.68.68,0,0,0-.57.22c-.07.07-.07.21-.14.35h-.42a.92.92,0,0,1,.35-.78,1.45,1.45,0,0,1,.78-.21,1.53,1.53,0,0,1,.85.21.69.69,0,0,1,.28.64V10.9a.24.24,0,0,0,.14.07h.14v.35c-.07,0-.14,0-.14.07h-.14a.38.38,0,0,1-.35-.21c-.07-.07-.07-.14-.07-.28-.07.14-.22.21-.43.35a2,2,0,0,1-.63.14.87.87,0,0,1-.64-.21.89.89,0,0,1-.28-.64.68.68,0,0,1,.28-.63,1.23,1.23,0,0,1,.64-.29Zm-1,1.35a.56.56,0,0,0,.36.14,1.3,1.3,0,0,0,.49-.14.69.69,0,0,0,.43-.64V9.76a.25.25,0,0,1-.22.08c-.07,0-.21.07-.28.07l-.28.07a1.08,1.08,0,0,0-.43.14.42.42,0,0,0-.21.42A.29.29,0,0,0,234.78,10.83Z"/><path d="M80.17,15h.5v.43l.28-.29a.77.77,0,0,1,.57-.14,1.32,1.32,0,0,1,.56.14.9.9,0,0,1,.21.29c.15-.15.22-.29.36-.36a1,1,0,0,1,.49-.14.74.74,0,0,1,.78.43,1.4,1.4,0,0,1,.14.63V17.9h-.49v-2a.59.59,0,0,0-.14-.42.56.56,0,0,0-.36-.14.64.64,0,0,0-.49.21.86.86,0,0,0-.21.63v1.7h-.5V16c0-.21,0-.35-.07-.42a.43.43,0,0,0-.43-.21.64.64,0,0,0-.49.21,1.14,1.14,0,0,0-.21.78V17.9h-.5V15Z"/><path d="M86.61,15.07a.75.75,0,0,1,.43.36,3.41,3.41,0,0,1,.21.49c0,.14.07.35.07.64H85.2a1.09,1.09,0,0,0,.21.71.64.64,0,0,0,.56.28.77.77,0,0,0,.64-.28,1.9,1.9,0,0,0,.21-.36h.5c0,.14-.07.21-.14.36s-.14.21-.22.35a1.41,1.41,0,0,1-.56.28c-.14,0-.28.07-.43.07a1.27,1.27,0,0,1-.92-.42,1.47,1.47,0,0,1-.35-1.13,1.84,1.84,0,0,1,.35-1.14,1.31,1.31,0,0,1,1-.42A5.91,5.91,0,0,0,86.61,15.07Zm.14,1.13a1,1,0,0,0-.14-.49.74.74,0,0,0-.64-.35.79.79,0,0,0-.56.21.86.86,0,0,0-.21.63Z"/><path d="M88.17,17a.56.56,0,0,0,.14.36.87.87,0,0,0,.64.21,1,1,0,0,0,.49-.14.4.4,0,0,0,.21-.36.36.36,0,0,0-.14-.28c-.07-.07-.21-.07-.42-.14l-.43-.07a2.37,2.37,0,0,1-.56-.21.64.64,0,0,1-.36-.57.69.69,0,0,1,.29-.64,1.47,1.47,0,0,1,.77-.28,1.44,1.44,0,0,1,1,.35.8.8,0,0,1,.21.5h-.43a.36.36,0,0,0-.14-.28.66.66,0,0,0-.56-.22c-.22,0-.36,0-.43.07a.4.4,0,0,0-.14.29c0,.14.07.21.21.28s.21.07.36.14l.35.07a3,3,0,0,1,.71.21.66.66,0,0,1,.28.57.7.7,0,0,1-.28.64,1.23,1.23,0,0,1-.92.28c-.43,0-.78-.07-.92-.28a.89.89,0,0,1-.29-.71h.36Z"/><path d="M90.64,15h.5v.43l.28-.29A.78.78,0,0,1,92,15a1.32,1.32,0,0,1,.56.14.78.78,0,0,1,.22.29c.14-.15.21-.29.35-.36a1,1,0,0,1,.5-.14.73.73,0,0,1,.77.43,1.27,1.27,0,0,1,.15.63V17.9H94v-2a.59.59,0,0,0-.14-.42.53.53,0,0,0-.35-.14.64.64,0,0,0-.5.21.86.86,0,0,0-.21.63v1.7h-.5V16c0-.21,0-.35-.07-.42a.42.42,0,0,0-.42-.21.64.64,0,0,0-.5.21,1.14,1.14,0,0,0-.21.78V17.9h-.5Z"/><path d="M96.87,16.13c.14,0,.21-.07.21-.14v-.21a.53.53,0,0,0-.14-.35,1,1,0,0,0-.49-.15.7.7,0,0,0-.57.22c-.07.07-.07.21-.14.35h-.43a.93.93,0,0,1,.36-.78,1.42,1.42,0,0,1,.78-.21,1.55,1.55,0,0,1,.85.21.7.7,0,0,1,.28.64v1.84a.24.24,0,0,0,.14.07h.14V18c-.07,0-.14,0-.14.07h-.14a.41.41,0,0,1-.36-.21c-.07-.07-.07-.14-.07-.28-.07.14-.21.21-.42.35a2,2,0,0,1-.64.14.85.85,0,0,1-.92-.85.67.67,0,0,1,.29-.63,1.42,1.42,0,0,1,.63-.29Zm-1.06,1.35a.53.53,0,0,0,.35.14,1.29,1.29,0,0,0,.5-.14.69.69,0,0,0,.42-.64v-.42a.26.26,0,0,1-.21.07c-.07,0-.21.07-.28.07l-.28.07a1,1,0,0,0-.43.14.42.42,0,0,0-.21.42A.52.52,0,0,0,95.81,17.48Z"/><path d="M99.91,13.94h.5v4h-.5Z"/><path d="M101.12,13.94h.49v.57h-.49Zm0,1.06h.49v2.9h-.49Z"/><path d="M104.3,15.14a1,1,0,0,1,.35.85h-.49a.42.42,0,0,0-.21-.42.56.56,0,0,0-.5-.21.61.61,0,0,0-.63.42,1.86,1.86,0,0,0-.15.71,1,1,0,0,0,.22.7.56.56,0,0,0,.56.29.66.66,0,0,0,.5-.21.67.67,0,0,0,.21-.5h.49a1.63,1.63,0,0,1-.42.85,1.31,1.31,0,0,1-1.77-.14,1.77,1.77,0,0,1-.35-1.06,2.07,2.07,0,0,1,.35-1.21,1.15,1.15,0,0,1,.92-.42A4,4,0,0,1,104.3,15.14Z"/><path d="M106.92,15.07a.7.7,0,0,1,.42.36,3.33,3.33,0,0,1,.22.49c0,.14.07.35.07.64H105.5a1,1,0,0,0,.22.71.64.64,0,0,0,.56.28.77.77,0,0,0,.64-.28,1.9,1.9,0,0,0,.21-.36h.5c0,.14-.07.21-.14.36s-.15.21-.22.35a1.41,1.41,0,0,1-.56.28c-.14,0-.29.07-.43.07a1.27,1.27,0,0,1-.92-.42,1.47,1.47,0,0,1-.35-1.13,1.84,1.84,0,0,1,.35-1.14,1.31,1.31,0,0,1,1-.42A4.41,4.41,0,0,1,106.92,15.07Zm.21,1.13a1,1,0,0,0-.14-.49.74.74,0,0,0-.64-.35.79.79,0,0,0-.56.21.86.86,0,0,0-.22.63Z"/><path d="M108.26,15h.5v.43a1.68,1.68,0,0,1,.42-.36,1.34,1.34,0,0,1,.5-.14.85.85,0,0,1,.85.43,1.51,1.51,0,0,1,.14.7V17.9h-.57V16.06c0-.14,0-.35-.07-.42s-.21-.28-.49-.28h-.29a1.53,1.53,0,0,0-.35.21.53.53,0,0,0-.14.28,2.48,2.48,0,0,0-.07.42v1.49h-.5V15Z"/><path d="M113.22,15.14a1,1,0,0,1,.35.85h-.49a.43.43,0,0,0-.22-.42.54.54,0,0,0-.49-.21.62.62,0,0,0-.64.42,2.08,2.08,0,0,0-.14.71,1,1,0,0,0,.21.7.57.57,0,0,0,.57.29.64.64,0,0,0,.49-.21.68.68,0,0,0,.22-.5h.49a1.63,1.63,0,0,1-.42.85,1.09,1.09,0,0,1-.78.28l-.14.36h.21a.49.49,0,0,1,.42.42.53.53,0,0,1-.14.35.92.92,0,0,1-.49.15.45.45,0,0,1-.29-.07c-.07,0-.14-.08-.21-.08l.07-.21a.24.24,0,0,1,.14.07h.36c.07-.07.14-.14.14-.21s0-.14-.07-.14a.26.26,0,0,0-.21-.07h-.29l-.07-.14.28-.43a.9.9,0,0,1-.7-.28,1.58,1.58,0,0,1-.43-1.13,2,2,0,0,1,.36-1.21,1.13,1.13,0,0,1,.92-.42A2.13,2.13,0,0,1,113.22,15.14Z"/><path d="M115.62,16.13c.14,0,.21-.07.21-.14v-.21a.53.53,0,0,0-.14-.35,1,1,0,0,0-.49-.15.72.72,0,0,0-.57.22c-.07.07-.07.21-.14.35h-.42a.92.92,0,0,1,.35-.78,1.45,1.45,0,0,1,.78-.21,1.55,1.55,0,0,1,.85.21.7.7,0,0,1,.28.64v1.84a.24.24,0,0,0,.14.07h.14V18c-.07,0-.14,0-.14.07h-.14a.38.38,0,0,1-.35-.21c-.07-.07-.07-.14-.07-.28-.08.14-.22.21-.43.35a2,2,0,0,1-.64.14.86.86,0,0,1-.63-.21.9.9,0,0,1-.29-.64.69.69,0,0,1,.29-.63,1.42,1.42,0,0,1,.63-.29Zm-1,1.35a.54.54,0,0,0,.36.14,1.3,1.3,0,0,0,.49-.14.7.7,0,0,0,.43-.64v-.42a.29.29,0,0,1-.22.07c-.07,0-.21.07-.28.07l-.28.07a1,1,0,0,0-.43.14.42.42,0,0,0-.21.42A.29.29,0,0,0,114.63,17.48Z"/><path d="M120.22,17.9V17h-1.7v-.49L120.29,14h.43v2.55h.56V17h-.56v.92Zm-.07-1.34V14.79l-1.27,1.77Z"/><path d="M121.92,17.34h.57v.56h-.57Z"/><path d="M125.53,14.65a3.47,3.47,0,0,1,.28,1.34,3.25,3.25,0,0,1-.21,1.28,1.09,1.09,0,0,1-1.13.7,1.16,1.16,0,0,1-1.06-.63,2.48,2.48,0,0,1-.29-1.35,5,5,0,0,1,.14-1.13,1.25,1.25,0,0,1,2.27-.21Zm-.43,2.62a2.48,2.48,0,0,0,.22-1.28,4.32,4.32,0,0,0-.14-1.06.7.7,0,0,0-.64-.42.69.69,0,0,0-.64.42,2.63,2.63,0,0,0-.21,1.2,2.76,2.76,0,0,0,.14.92c.14.36.35.57.64.57A1.14,1.14,0,0,0,125.1,17.27Z"/><path d="M128.15,13.94h.56v4h-.56Z"/><path d="M129.49,15h.5v.43a1.68,1.68,0,0,1,.42-.36,1.34,1.34,0,0,1,.5-.14.86.86,0,0,1,.85.43,1.51,1.51,0,0,1,.14.7V17.9h-.57V16.06c0-.14,0-.35-.07-.42s-.21-.28-.49-.28h-.29a1.53,1.53,0,0,0-.35.21.53.53,0,0,0-.14.28,2.48,2.48,0,0,0-.07.42v1.49h-.5V15Z"/><path d="M132.68,14.22h.49V15h.5v.43h-.5v1.91a.26.26,0,0,0,.07.21h.36v.35h-.36a1,1,0,0,1-.49-.14,1,1,0,0,1-.14-.42V15.43h-.43V15h.43v-.78Z"/><path d="M135.93,15.07a.75.75,0,0,1,.43.36,3.41,3.41,0,0,1,.21.49c0,.14.07.35.07.64h-2.12a1.09,1.09,0,0,0,.21.71.64.64,0,0,0,.56.28.77.77,0,0,0,.64-.28,1.9,1.9,0,0,0,.21-.36h.5c0,.14-.07.21-.14.36s-.14.21-.22.35a1.41,1.41,0,0,1-.56.28c-.14,0-.28.07-.43.07a1.27,1.27,0,0,1-.92-.42,1.47,1.47,0,0,1-.35-1.13,1.84,1.84,0,0,1,.35-1.14,1.31,1.31,0,0,1,1-.42A5.91,5.91,0,0,0,135.93,15.07Zm.14,1.13a1,1,0,0,0-.14-.49.74.74,0,0,0-.64-.35.79.79,0,0,0-.56.21.86.86,0,0,0-.21.63Z"/><path d="M137.2,15h.5v.5c.07-.07.14-.22.28-.36a.78.78,0,0,1,.5-.21h.21v.5h-.14a.82.82,0,0,0-.57.21.79.79,0,0,0-.21.56v1.7h-.49V15Z"/><path d="M139,15h.5v.43a1.68,1.68,0,0,1,.42-.36,1.4,1.4,0,0,1,.5-.14.85.85,0,0,1,.85.43,1.51,1.51,0,0,1,.14.7V17.9H141V16.06c0-.14,0-.35-.07-.42s-.21-.28-.49-.28h-.28a1.42,1.42,0,0,0-.36.21.53.53,0,0,0-.14.28,2.48,2.48,0,0,0-.07.42v1.49H139Z"/><path d="M143.71,16.13c.15,0,.22-.07.22-.14v-.21a.53.53,0,0,0-.14-.35,1.09,1.09,0,0,0-.5-.15.73.73,0,0,0-.57.22c-.07.07-.07.21-.14.35h-.42a.92.92,0,0,1,.35-.78,1.45,1.45,0,0,1,.78-.21,1.53,1.53,0,0,1,.85.21.7.7,0,0,1,.28.64v1.84a.24.24,0,0,0,.14.07h.15V18c-.08,0-.15,0-.15.07h-.14a.38.38,0,0,1-.35-.21c-.07-.07-.07-.14-.07-.28-.07.14-.21.21-.43.35a2,2,0,0,1-.63.14.87.87,0,0,1-.64-.21.89.89,0,0,1-.28-.64.68.68,0,0,1,.28-.63,1.41,1.41,0,0,1,.64-.29Zm-1.06,1.35a.56.56,0,0,0,.36.14,1.3,1.3,0,0,0,.49-.14.68.68,0,0,0,.43-.64v-.42a.27.27,0,0,1-.22.07c-.07,0-.21.07-.28.07l-.28.07a1.08,1.08,0,0,0-.43.14.42.42,0,0,0-.21.42A.52.52,0,0,0,142.65,17.48Z"/><path d="M147.11,15.14a1,1,0,0,1,.35.85H147a.42.42,0,0,0-.21-.42.56.56,0,0,0-.5-.21.61.61,0,0,0-.63.42,1.86,1.86,0,0,0-.15.71,1,1,0,0,0,.22.7.56.56,0,0,0,.56.29.66.66,0,0,0,.5-.21.67.67,0,0,0,.21-.5h.49a1.63,1.63,0,0,1-.42.85,1.13,1.13,0,0,1-.85.28,1.15,1.15,0,0,1-.92-.42,1.77,1.77,0,0,1-.35-1.06,2.07,2.07,0,0,1,.35-1.21,1.15,1.15,0,0,1,.92-.42A3,3,0,0,1,147.11,15.14Z"/><path d="M148,13.94h.5v.57H148ZM148,15h.5v2.9H148Z"/><path d="M151.29,15.28a1.49,1.49,0,0,1,.35,1.14,1.81,1.81,0,0,1-.35,1.13,1.27,1.27,0,0,1-1.07.42,1.07,1.07,0,0,1-.92-.42,1.75,1.75,0,0,1-.35-1.06,1.79,1.79,0,0,1,.35-1.13,1.19,1.19,0,0,1,1-.43A1.43,1.43,0,0,1,151.29,15.28Zm-.29,2a1.55,1.55,0,0,0,.22-.85,1.4,1.4,0,0,0-.15-.64.7.7,0,0,0-.7-.42.74.74,0,0,0-.64.35,1.51,1.51,0,0,0-.21.85,1.47,1.47,0,0,0,.21.78.69.69,0,0,0,.64.28A.74.74,0,0,0,151,17.27Z"/><path d="M152.28,15h.49v.43a1.55,1.55,0,0,1,.43-.36,1.3,1.3,0,0,1,.49-.14.84.84,0,0,1,.85.43,1.51,1.51,0,0,1,.14.7V17.9h-.49V16.06c0-.14,0-.35-.07-.42s-.22-.28-.5-.28h-.28a1.63,1.63,0,0,0-.36.21.53.53,0,0,0-.14.28,2.48,2.48,0,0,0-.07.42v1.49h-.49Z"/><path d="M157,16.13c.14,0,.21-.07.21-.14v-.21a.53.53,0,0,0-.14-.35,1.05,1.05,0,0,0-.5-.15.69.69,0,0,0-.56.22c-.07.07-.07.21-.15.35h-.42a.92.92,0,0,1,.35-.78,1.47,1.47,0,0,1,.78-.21,1.51,1.51,0,0,1,.85.21.7.7,0,0,1,.28.64v1.84a.29.29,0,0,0,.15.07h.14V18c-.07,0-.14,0-.14.07h-.15a.38.38,0,0,1-.35-.21c-.07-.07-.07-.14-.07-.28-.07.14-.21.21-.42.35a2.17,2.17,0,0,1-.64.14.88.88,0,0,1-.64-.21.89.89,0,0,1-.28-.64.68.68,0,0,1,.28-.63,1.47,1.47,0,0,1,.64-.29Zm-1.06,1.35a.53.53,0,0,0,.35.14,1.3,1.3,0,0,0,.49-.14.68.68,0,0,0,.43-.64v-.42a.26.26,0,0,1-.21.07c-.07,0-.22.07-.29.07l-.28.07a1,1,0,0,0-.42.14.41.41,0,0,0-.22.42A.48.48,0,0,0,155.89,17.48Z"/><path d="M158.5,13.94h.5v4h-.5Z"/><path d="M159.78,17.34h.56v.56h-.56Z"/><path d="M162.89,13.94h2.9v.5h-2.33v1.2h2.19v.49h-2.19v1.35h2.4V18H163v-4Zm2.05-1.06-.7.78h-.36l.5-.78Z"/><path d="M168,15h.49v.43a.67.67,0,0,1,.35-.29.79.79,0,0,1,.57-.14,1.15,1.15,0,0,1,.85.36,1.73,1.73,0,0,1,.35,1.06,1.58,1.58,0,0,1-.49,1.34,1.27,1.27,0,0,1-.71.28,1.41,1.41,0,0,1-.57-.14c-.07-.07-.21-.14-.28-.28v1.49h-.49V15Zm1.84,2.34a1.55,1.55,0,0,0,.21-.85,1.39,1.39,0,0,0-.07-.57.76.76,0,0,0-1.42,0,2.22,2.22,0,0,0-.07.71,1.36,1.36,0,0,0,.07.56.71.71,0,0,0,.71.43A.91.91,0,0,0,169.83,17.34Z"/><path d="M172.87,15.07a.7.7,0,0,1,.42.36,3.41,3.41,0,0,1,.21.49c0,.14.08.35.08.64h-2.13a1.09,1.09,0,0,0,.21.71.66.66,0,0,0,.57.28.78.78,0,0,0,.64-.28,1.9,1.9,0,0,0,.21-.36h.5c0,.14-.08.21-.15.36s-.14.21-.21.35a1.41,1.41,0,0,1-.56.28c-.15,0-.29.07-.43.07a1.25,1.25,0,0,1-.92-.42,1.47,1.47,0,0,1-.35-1.13,1.84,1.84,0,0,1,.35-1.14,1.29,1.29,0,0,1,1-.42A5.05,5.05,0,0,1,172.87,15.07Zm.21,1.13a1,1,0,0,0-.14-.49.75.75,0,0,0-.64-.35.79.79,0,0,0-.56.21.82.82,0,0,0-.22.63Z"/><path d="M174.21,15h.5v.5c.07-.07.14-.22.28-.36a.76.76,0,0,1,.5-.21h.21v.5h-.14a.72.72,0,0,0-.78.77v1.7h-.5V15Z"/><path d="M176.05,15h.5v.43l.28-.29a.77.77,0,0,1,.57-.14,1.32,1.32,0,0,1,.56.14.9.9,0,0,1,.21.29c.15-.15.22-.29.36-.36a1,1,0,0,1,.49-.14.74.74,0,0,1,.78.43,1.4,1.4,0,0,1,.14.63V17.9h-.49v-2a.59.59,0,0,0-.14-.42.56.56,0,0,0-.36-.14.64.64,0,0,0-.49.21.86.86,0,0,0-.21.63v1.7h-.5V16c0-.21,0-.35-.07-.42a.42.42,0,0,0-.42-.21.64.64,0,0,0-.5.21,1.14,1.14,0,0,0-.21.78V17.9h-.5Z"/><path d="M180.65,13.94h.5v.57h-.5Zm0,1.06h.5v2.9h-.5Z"/><path d="M182,14.22h.49V15h.5v.43h-.5v1.91a.26.26,0,0,0,.07.21h.36v.35h-.36a1,1,0,0,1-.49-.14,1,1,0,0,1-.14-.42V15.43h-.36V15H182Z"/><path d="M183.41,13.94h.5v.57h-.5Zm0,1.06h.5v2.9h-.5Z"/><path d="M186.24,15.14c.07.07.21.14.28.29V13.94h.5v4h-.5v-.35a.68.68,0,0,1-.42.35,1.33,1.33,0,0,1-.57.14,1.13,1.13,0,0,1-.85-.42,1.75,1.75,0,0,1-.35-1.06,2.12,2.12,0,0,1,.35-1.13,1.11,1.11,0,0,1,.92-.5C185.89,15,186.1,15,186.24,15.14Zm-1.06,2.13a.69.69,0,0,0,.64.28.64.64,0,0,0,.56-.28,1.55,1.55,0,0,0,.22-.85,1.14,1.14,0,0,0-.22-.78.86.86,0,0,0-.56-.28.64.64,0,0,0-.57.28,1.51,1.51,0,0,0-.21.85A1,1,0,0,0,185.18,17.27Z"/><path d="M189.28,16.13c.15,0,.22-.07.22-.14v-.21a.53.53,0,0,0-.14-.35,1.09,1.09,0,0,0-.5-.15.73.73,0,0,0-.57.22c-.07.07-.07.21-.14.35h-.42a.92.92,0,0,1,.35-.78,1.45,1.45,0,0,1,.78-.21,1.53,1.53,0,0,1,.85.21.7.7,0,0,1,.28.64v1.84a.24.24,0,0,0,.14.07h.14V18c-.07,0-.14,0-.14.07H190a.38.38,0,0,1-.35-.21c-.07-.07-.07-.14-.07-.28-.07.14-.21.21-.43.35a2,2,0,0,1-.63.14.87.87,0,0,1-.64-.21.89.89,0,0,1-.28-.64.68.68,0,0,1,.28-.63,1.41,1.41,0,0,1,.64-.29Zm-1.06,1.35a.56.56,0,0,0,.36.14,1.3,1.3,0,0,0,.49-.14.68.68,0,0,0,.43-.64v-.42a.27.27,0,0,1-.22.07c-.07,0-.21.07-.28.07l-.28.07a1.08,1.08,0,0,0-.43.14.42.42,0,0,0-.21.42A.52.52,0,0,0,188.22,17.48Z"/><path d="M193.88,16.13c.15,0,.22-.07.22-.14v-.21a.5.5,0,0,0-.15-.35,1,1,0,0,0-.49-.15.72.72,0,0,0-.57.22c-.07.07-.07.21-.14.35h-.42a.92.92,0,0,1,.35-.78,1.45,1.45,0,0,1,.78-.21,1.53,1.53,0,0,1,.85.21.7.7,0,0,1,.28.64v1.84a.24.24,0,0,0,.14.07h.14V18c-.07,0-.14,0-.14.07h-.14a.38.38,0,0,1-.35-.21c-.07-.07-.07-.14-.07-.28-.07.14-.22.21-.43.35a2,2,0,0,1-.63.14.87.87,0,0,1-.64-.21.89.89,0,0,1-.28-.64.68.68,0,0,1,.28-.63,1.41,1.41,0,0,1,.64-.29Zm-1,1.35a.56.56,0,0,0,.36.14,1.3,1.3,0,0,0,.49-.14.68.68,0,0,0,.43-.64v-.42a.27.27,0,0,1-.22.07c-.07,0-.21.07-.28.07l-.28.07a1.08,1.08,0,0,0-.43.14.42.42,0,0,0-.21.42A.29.29,0,0,0,192.89,17.48Z"/><path d="M197,15h.49v.5a3.77,3.77,0,0,1,.29-.36.76.76,0,0,1,.49-.21h.21v.5h-.14a.79.79,0,0,0-.56.21.76.76,0,0,0-.22.56v1.7h-.49V15Z"/><path d="M200.61,15.07a.7.7,0,0,1,.42.36,3.41,3.41,0,0,1,.21.49c0,.14.07.35.07.64h-2.12a1.09,1.09,0,0,0,.21.71.65.65,0,0,0,.57.28.79.79,0,0,0,.64-.28,1.9,1.9,0,0,0,.21-.36h.49c0,.14-.07.21-.14.36s-.14.21-.21.35a1.39,1.39,0,0,1-.57.28c-.14,0-.28.07-.42.07a1.25,1.25,0,0,1-.92-.42,1.47,1.47,0,0,1-.35-1.13,1.84,1.84,0,0,1,.35-1.14,1.29,1.29,0,0,1,1-.42C200.25,14.93,200.39,15,200.61,15.07Zm.14,1.13a1,1,0,0,0-.14-.49.77.77,0,0,0-.64-.35.82.82,0,0,0-.57.21.86.86,0,0,0-.21.63Z"/><path d="M201.88,15h.5v.43a.67.67,0,0,1,.35-.29.75.75,0,0,1,.56-.14,1.14,1.14,0,0,1,.85.36,1.67,1.67,0,0,1,.36,1.06,1.55,1.55,0,0,1-.5,1.34,1.25,1.25,0,0,1-.71.28,1.32,1.32,0,0,1-.56-.14c-.07-.07-.21-.14-.28-.28v1.49H202V15Zm1.84,2.34a1.55,1.55,0,0,0,.21-.85,1.39,1.39,0,0,0-.07-.57.75.75,0,0,0-1.41,0,2.22,2.22,0,0,0-.07.71,1.36,1.36,0,0,0,.07.56.7.7,0,0,0,.7.43C203.37,17.62,203.51,17.48,203.72,17.34Z"/><path d="M205,15h.5v.5c.07-.07.14-.22.28-.36a.78.78,0,0,1,.5-.21h.21v.5h-.14a.82.82,0,0,0-.57.21.79.79,0,0,0-.21.56v1.7h-.5V15Z"/><path d="M209,15.28a1.49,1.49,0,0,1,.35,1.14,1.81,1.81,0,0,1-.35,1.13,1.27,1.27,0,0,1-1.07.42,1.07,1.07,0,0,1-.92-.42,1.75,1.75,0,0,1-.35-1.06,1.79,1.79,0,0,1,.35-1.13,1.19,1.19,0,0,1,1-.43A1.57,1.57,0,0,1,209,15.28Zm-.36,2a1.55,1.55,0,0,0,.21-.85,1.41,1.41,0,0,0-.14-.64.7.7,0,0,0-.7-.42.74.74,0,0,0-.64.35,1.51,1.51,0,0,0-.21.85,1.47,1.47,0,0,0,.21.78.69.69,0,0,0,.64.28C208.32,17.62,208.53,17.48,208.6,17.27Z"/><path d="M211.5,15.14c.07.07.22.14.29.29V13.94h.49v4h-.42v-.35a.7.7,0,0,1-.43.35,1.32,1.32,0,0,1-.56.14,1.1,1.1,0,0,1-.85-.42,1.69,1.69,0,0,1-.36-1.06,2,2,0,0,1,.36-1.13,1.08,1.08,0,0,1,.92-.5C211.15,15,211.36,15,211.5,15.14Zm-1.06,2.13a.7.7,0,0,0,.64.28.64.64,0,0,0,.56-.28,1.47,1.47,0,0,0,.22-.85,1.09,1.09,0,0,0-.22-.78.86.86,0,0,0-.56-.28.65.65,0,0,0-.57.28,1.51,1.51,0,0,0-.21.85A1,1,0,0,0,210.44,17.27Z"/><path d="M213.48,15v1.91a.51.51,0,0,0,.08.36.5.5,0,0,0,.49.28.71.71,0,0,0,.71-.43,1.55,1.55,0,0,0,.07-.63V15.07h.49V18h-.49v-.42a1,1,0,0,1-.21.28A1.18,1.18,0,0,1,214,18a.86.86,0,0,1-.85-.42,1.33,1.33,0,0,1-.14-.57v-2h.49Z"/><path d="M218,15.14a1,1,0,0,1,.36.85h-.5a.42.42,0,0,0-.21-.42.55.55,0,0,0-.5-.21.61.61,0,0,0-.63.42,2.08,2.08,0,0,0-.14.71,1,1,0,0,0,.21.7.56.56,0,0,0,.56.29.64.64,0,0,0,.5-.21.67.67,0,0,0,.21-.5h.5a1.64,1.64,0,0,1-.43.85,1.06,1.06,0,0,1-.78.28l-.21.29h.21a.37.37,0,0,1,.29.14.36.36,0,0,1,.14.28.53.53,0,0,1-.14.35,1.05,1.05,0,0,1-.5.15.38.38,0,0,1-.28-.08c-.07,0-.14-.07-.21-.07l.07-.21a.24.24,0,0,1,.14.07H217c.07-.07.14-.14.14-.21s0-.14-.07-.14a.26.26,0,0,0-.21-.07h-.28l-.07-.14.28-.43a.92.92,0,0,1-.71-.28,1.61,1.61,0,0,1-.42-1.13,2.07,2.07,0,0,1,.35-1.21,1.15,1.15,0,0,1,.92-.42A3.51,3.51,0,0,1,218,15.14Z"/><path d="M220.42,16.13c.14,0,.21-.07.21-.14v-.21a.53.53,0,0,0-.14-.35,1,1,0,0,0-.5-.15.69.69,0,0,0-.56.22c-.07.07-.07.21-.14.35h-.43a.9.9,0,0,1,.36-.78,1.41,1.41,0,0,1,.77-.21,1.51,1.51,0,0,1,.85.21.69.69,0,0,1,.29.64v1.84a.24.24,0,0,0,.14.07h.14V18c-.07,0-.14,0-.14.07h-.14a.4.4,0,0,1-.36-.21c-.07-.07-.07-.14-.07-.28-.07.14-.21.21-.42.35a2.1,2.1,0,0,1-.64.14.84.84,0,0,1-.92-.85.68.68,0,0,1,.28-.63,1.52,1.52,0,0,1,.64-.29Zm-.21-2c.07,0,.07.07.14.07h.14a.26.26,0,0,0,.21-.07.24.24,0,0,0,.07-.14h.29a4.1,4.1,0,0,1-.22.5c-.14.07-.21.14-.35.14h-.14c-.07,0-.14,0-.14-.07l-.14-.07c-.08,0-.15-.07-.22-.07h-.14c-.07,0-.14,0-.14.07s-.07.07-.07.21h-.28a.59.59,0,0,1,.14-.36.58.58,0,0,1,.42-.28H220C220,14,220.07,14.08,220.21,14.15Zm-.85,3.33a.53.53,0,0,0,.35.14,1.34,1.34,0,0,0,.5-.14.69.69,0,0,0,.42-.64v-.42a.26.26,0,0,1-.21.07c-.07,0-.21.07-.28.07l-.29.07a1,1,0,0,0-.42.14.42.42,0,0,0-.21.42A.52.52,0,0,0,219.36,17.48Z"/><path d="M224,15.28a1.49,1.49,0,0,1,.35,1.14,1.81,1.81,0,0,1-.35,1.13A1.25,1.25,0,0,1,223,18a1,1,0,0,1-.92-.42,1.69,1.69,0,0,1-.36-1.06,1.74,1.74,0,0,1,.36-1.13,1.16,1.16,0,0,1,1-.43A1.57,1.57,0,0,1,224,15.28Zm-.29,2a1.47,1.47,0,0,0,.22-.85,1.41,1.41,0,0,0-.14-.64.73.73,0,0,0-.71-.42.74.74,0,0,0-.64.35,1.51,1.51,0,0,0-.21.85,1.47,1.47,0,0,0,.21.78.69.69,0,0,0,.64.28A.74.74,0,0,0,223.74,17.27Z"/><path d="M226.5,15h.5v.43a.67.67,0,0,1,.35-.29.79.79,0,0,1,.57-.14,1.15,1.15,0,0,1,.85.36,1.73,1.73,0,0,1,.35,1.06,1.58,1.58,0,0,1-.49,1.34,1.3,1.3,0,0,1-.71.28,1.41,1.41,0,0,1-.57-.14c-.07-.07-.21-.14-.28-.28v1.49h-.49V15Zm1.84,2.34a1.47,1.47,0,0,0,.22-.85,1.39,1.39,0,0,0-.07-.57.69.69,0,0,0-.71-.49.68.68,0,0,0-.71.49,2.22,2.22,0,0,0-.07.71,1.36,1.36,0,0,0,.07.56.7.7,0,0,0,.71.43A.86.86,0,0,0,228.34,17.34Z"/><path d="M231.17,16.13c.15,0,.22-.07.22-.14v-.21a.53.53,0,0,0-.14-.35,1.09,1.09,0,0,0-.5-.15.73.73,0,0,0-.57.22c-.07.07-.07.21-.14.35h-.42a.92.92,0,0,1,.35-.78,1.45,1.45,0,0,1,.78-.21,1.53,1.53,0,0,1,.85.21.7.7,0,0,1,.28.64v1.84a.24.24,0,0,0,.14.07h.15V18c-.08,0-.15,0-.15.07h-.14a.38.38,0,0,1-.35-.21c-.07-.07-.07-.14-.07-.28-.07.14-.21.21-.43.35a2,2,0,0,1-.63.14.87.87,0,0,1-.64-.21.89.89,0,0,1-.28-.64.68.68,0,0,1,.28-.63,1.41,1.41,0,0,1,.64-.29Zm-1,1.35a.56.56,0,0,0,.36.14,1.3,1.3,0,0,0,.49-.14.68.68,0,0,0,.43-.64v-.42a.26.26,0,0,1-.21.07c-.08,0-.22.07-.29.07l-.28.07a1.08,1.08,0,0,0-.43.14.42.42,0,0,0-.21.42A.29.29,0,0,0,230.18,17.48Z"/><path d="M232.73,15h.5v.5c.07-.07.14-.22.28-.36a.76.76,0,0,1,.49-.21h.22v.5h-.14a.72.72,0,0,0-.78.77v1.7h-.5V15Z"/><path d="M236.48,15.14a1,1,0,0,1,.36.85h-.5a.42.42,0,0,0-.21-.42.56.56,0,0,0-.5-.21.61.61,0,0,0-.63.42,1.86,1.86,0,0,0-.15.71,1,1,0,0,0,.22.7.56.56,0,0,0,.56.29.66.66,0,0,0,.5-.21.67.67,0,0,0,.21-.5h.5a1.72,1.72,0,0,1-.43.85,1.13,1.13,0,0,1-.85.28,1.15,1.15,0,0,1-.92-.42,1.77,1.77,0,0,1-.35-1.06,2.07,2.07,0,0,1,.35-1.21,1.15,1.15,0,0,1,.92-.42A4,4,0,0,1,236.48,15.14Z"/><path d="M237.33,13.94h.5v.57h-.5Zm0,1.06h.5v2.9h-.5Z"/><path d="M240.09,16.13c.14,0,.21-.07.21-.14v-.21a.53.53,0,0,0-.14-.35,1,1,0,0,0-.49-.15.7.7,0,0,0-.57.22c-.07.07-.07.21-.14.35h-.43a.93.93,0,0,1,.36-.78,1.42,1.42,0,0,1,.78-.21,1.49,1.49,0,0,1,.84.21.69.69,0,0,1,.29.64v1.84a.24.24,0,0,0,.14.07h.14V18c-.07,0-.14,0-.14.07h-.14a.4.4,0,0,1-.36-.21c-.07-.07-.07-.14-.07-.28-.07.14-.21.21-.42.35a2.1,2.1,0,0,1-.64.14.85.85,0,0,1-.92-.85.67.67,0,0,1,.29-.63,1.42,1.42,0,0,1,.63-.29Zm-1,1.35a.53.53,0,0,0,.35.14,1.29,1.29,0,0,0,.5-.14.69.69,0,0,0,.42-.64v-.42a.26.26,0,0,1-.21.07c-.07,0-.21.07-.28.07l-.28.07a1,1,0,0,0-.43.14.42.42,0,0,0-.21.42A.29.29,0,0,0,239.1,17.48Z"/><path d="M241.65,13.94h.49v4h-.49Z"/><path d="M82.29,21.94a1.42,1.42,0,0,1,.36,1.13,1.75,1.75,0,0,1-.36,1.13,1.24,1.24,0,0,1-1.06.42,1.07,1.07,0,0,1-.92-.42A1.75,1.75,0,0,1,80,23.14,1.79,1.79,0,0,1,80.31,22a1.19,1.19,0,0,1,1-.43A1.48,1.48,0,0,1,82.29,21.94Zm-.28,2a1.55,1.55,0,0,0,.21-.85,1.41,1.41,0,0,0-.14-.64.71.71,0,0,0-.71-.42.74.74,0,0,0-.63.35,1.53,1.53,0,0,0-.21.85,1.45,1.45,0,0,0,.21.78.68.68,0,0,0,.63.28A.74.74,0,0,0,82,23.92Z"/><path d="M83.78,21.65v1.91a.56.56,0,0,0,.07.36.51.51,0,0,0,.5.28.7.7,0,0,0,.7-.42,1.63,1.63,0,0,0,.07-.64V21.72h.5v2.9h-.5V24.2a1,1,0,0,1-.21.28,1.14,1.14,0,0,1-.63.22.86.86,0,0,1-.85-.43,1.33,1.33,0,0,1-.14-.57v-2h.49Z"/><path d="M88,20.87h.49v.78H89v.43h-.5V24a.26.26,0,0,0,.07.21H89v.35h-.36a1,1,0,0,1-.49-.14A1,1,0,0,1,88,24V22.08h-.43v-.43H88v-.78Z"/><path d="M91.56,21.94a1.42,1.42,0,0,1,.36,1.13,1.75,1.75,0,0,1-.36,1.13,1.24,1.24,0,0,1-1.06.42,1.07,1.07,0,0,1-.92-.42,1.75,1.75,0,0,1-.35-1.06A1.79,1.79,0,0,1,89.58,22a1.19,1.19,0,0,1,1-.43A1.48,1.48,0,0,1,91.56,21.94Zm-.35,2a1.55,1.55,0,0,0,.21-.85,1.41,1.41,0,0,0-.14-.64.71.71,0,0,0-.71-.42.74.74,0,0,0-.63.35,1.53,1.53,0,0,0-.22.85,1.45,1.45,0,0,0,.22.78.68.68,0,0,0,.63.28C90.93,24.27,91.14,24.13,91.21,23.92Z"/><path d="M92.63,20.87h.49v.78h.5v.43h-.5V24a.26.26,0,0,0,.07.21h.36v.35h-.36a1,1,0,0,1-.49-.14,1,1,0,0,1-.15-.42V22.08h-.42v-.43h.42v-.78Z"/><path d="M95.6,22.78c.14,0,.21-.07.21-.14v-.21a.53.53,0,0,0-.14-.35,1,1,0,0,0-.5-.14.69.69,0,0,0-.56.21c-.07.07-.07.21-.14.35H94a.92.92,0,0,1,.35-.78,1.47,1.47,0,0,1,.78-.21,1.51,1.51,0,0,1,.85.21.71.71,0,0,1,.29.64V24.2a.24.24,0,0,0,.14.07h.14v.35c-.07,0-.14,0-.14.08h-.14a.4.4,0,0,1-.36-.22c-.07-.07-.07-.14-.07-.28-.07.14-.21.21-.42.35a2.2,2.2,0,0,1-.64.15.86.86,0,0,1-.92-.85.69.69,0,0,1,.28-.64,1.36,1.36,0,0,1,.64-.28Zm-1,1.35a.53.53,0,0,0,.35.14,1.4,1.4,0,0,0,.5-.14.68.68,0,0,0,.42-.64v-.42a.26.26,0,0,1-.21.07c-.07,0-.21.07-.28.07l-.29.07a1,1,0,0,0-.42.14.43.43,0,0,0-.21.43A.28.28,0,0,0,94.61,24.13Z"/><path d="M97.15,20.59h.5v4h-.5Z"/><path d="M101.54,21.79a1.11,1.11,0,0,1,.28.29V20.59h.5v4h-.42v-.42a.73.73,0,0,1-.43.35,1.33,1.33,0,0,1-.57.14,1.09,1.09,0,0,1-.84-.42,1.69,1.69,0,0,1-.36-1.06,2,2,0,0,1,.36-1.13,1.08,1.08,0,0,1,.92-.5C101.19,21.65,101.4,21.65,101.54,21.79Zm-1.13,2.13a.69.69,0,0,0,.64.28.64.64,0,0,0,.56-.28,1.55,1.55,0,0,0,.21-.85,1.14,1.14,0,0,0-.21-.78.86.86,0,0,0-.56-.28.64.64,0,0,0-.57.28,1.51,1.51,0,0,0-.21.85A1.32,1.32,0,0,0,100.41,23.92Z"/><path d="M104.8,21.72a.73.73,0,0,1,.42.36,3.41,3.41,0,0,1,.21.49c0,.14.07.36.07.64h-2.12a1.07,1.07,0,0,0,.21.71.65.65,0,0,0,.57.28.79.79,0,0,0,.64-.28,1.63,1.63,0,0,0,.21-.36h.49a.77.77,0,0,1-.14.36c-.07.14-.14.21-.21.35a1.39,1.39,0,0,1-.57.28c-.14,0-.28.07-.42.07a1.25,1.25,0,0,1-.92-.42,1.47,1.47,0,0,1-.35-1.13,1.79,1.79,0,0,1,.35-1.13,1.27,1.27,0,0,1,1-.43C104.44,21.58,104.58,21.65,104.8,21.72Zm.14,1.14a1,1,0,0,0-.14-.5.77.77,0,0,0-.64-.35.82.82,0,0,0-.57.21.87.87,0,0,0-.21.64Z"/><path d="M106.35,23.63a.54.54,0,0,0,.14.36.9.9,0,0,0,.64.21,1.05,1.05,0,0,0,.5-.14.39.39,0,0,0,.21-.36.36.36,0,0,0-.14-.28c-.07-.07-.21-.07-.43-.14l-.42-.07a2.48,2.48,0,0,1-.57-.21.64.64,0,0,1-.35-.57.71.71,0,0,1,.28-.64,1.5,1.5,0,0,1,.78-.28,1.41,1.41,0,0,1,1,.35.8.8,0,0,1,.21.5h-.49a.36.36,0,0,0-.14-.28.73.73,0,0,0-.57-.22c-.21,0-.35,0-.42.08a.34.34,0,0,0-.15.28c0,.14.07.21.22.28s.21.07.35.14l.35.07a2.71,2.71,0,0,1,.71.22.64.64,0,0,1,.28.56.69.69,0,0,1-.28.64,1.2,1.2,0,0,1-.92.28c-.42,0-.78-.07-.92-.28a.92.92,0,0,1-.28-.71h.42Z"/><path d="M109,20.87h.5v.78H110v.43h-.49V24a.26.26,0,0,0,.07.21h.35v.35h-.35a1,1,0,0,1-.5-.14,1,1,0,0,1-.14-.42V22.08h-.42v-.43h.42v-.78Z"/><path d="M111.94,22.78c.14,0,.22-.07.22-.14v-.21a.54.54,0,0,0-.15-.35,1,1,0,0,0-.49-.14.71.71,0,0,0-.57.21c-.07.07-.07.21-.14.35h-.42a.92.92,0,0,1,.35-.78,1.45,1.45,0,0,1,.78-.21,1.53,1.53,0,0,1,.85.21.7.7,0,0,1,.28.64V24.2a.24.24,0,0,0,.14.07h.14v.35c-.07,0-.14,0-.14.08h-.14a.39.39,0,0,1-.35-.22c-.07-.07-.07-.14-.07-.28-.07.14-.22.21-.43.35a2.06,2.06,0,0,1-.64.15.86.86,0,0,1-.63-.22.89.89,0,0,1-.29-.63.7.7,0,0,1,.29-.64,1.32,1.32,0,0,1,.63-.28Zm-1,1.35a.54.54,0,0,0,.36.14,1.3,1.3,0,0,0,.49-.14.69.69,0,0,0,.43-.64v-.42a.28.28,0,0,1-.22.07c-.07,0-.21.07-.28.07l-.28.07a1,1,0,0,0-.43.14.43.43,0,0,0-.21.43A.28.28,0,0,0,111,24.13Z"/><path d="M117.11,21.94a1.46,1.46,0,0,1,.35,1.13,1.81,1.81,0,0,1-.35,1.13,1.25,1.25,0,0,1-1.06.42,1,1,0,0,1-.92-.42,1.76,1.76,0,0,1-.36-1.06,1.79,1.79,0,0,1,.36-1.13,1.16,1.16,0,0,1,1-.43A1.37,1.37,0,0,1,117.11,21.94Zm-.28,2a1.55,1.55,0,0,0,.21-.85,1.41,1.41,0,0,0-.14-.64.73.73,0,0,0-.71-.42.75.75,0,0,0-.64.35,1.53,1.53,0,0,0-.21.85,1.45,1.45,0,0,0,.21.78.7.7,0,0,0,.64.28A.77.77,0,0,0,116.83,23.92Z"/><path d="M118.1,20.59h.49V22a1.27,1.27,0,0,1,.36-.29,1,1,0,0,1,.49-.14,1.14,1.14,0,0,1,.85.36,1.61,1.61,0,0,1,.36,1.13,1.9,1.9,0,0,1-.36,1.13,1.13,1.13,0,0,1-.92.42,1.32,1.32,0,0,1-.56-.14c-.07-.07-.22-.14-.29-.28v.35h-.42v-4Zm1.84,3.33a1.55,1.55,0,0,0,.21-.85,1.42,1.42,0,0,0-.21-.78.64.64,0,0,0-.57-.28.79.79,0,0,0-.56.21,1.13,1.13,0,0,0-.29.78,1.55,1.55,0,0,0,.07.63.69.69,0,0,0,.71.5A.54.54,0,0,0,119.94,23.92Z"/><path d="M121.21,21.65h.5v.5c.07-.07.14-.21.28-.36a.76.76,0,0,1,.5-.21h.21v.5h-.14a.72.72,0,0,0-.78.78v1.69h-.5v-2.9Z"/><path d="M124.61,22.78c.14,0,.21-.07.21-.14v-.21a.53.53,0,0,0-.14-.35,1,1,0,0,0-.5-.14.69.69,0,0,0-.56.21c-.07.07-.07.21-.14.35h-.43a.9.9,0,0,1,.36-.78,1.41,1.41,0,0,1,.77-.21,1.51,1.51,0,0,1,.85.21.69.69,0,0,1,.29.64V24.2a.24.24,0,0,0,.14.07h.14v.35c-.07,0-.14,0-.14.08h-.14a.41.41,0,0,1-.36-.22c-.07-.07-.07-.14-.07-.28-.07.14-.21.21-.42.35a2.13,2.13,0,0,1-.64.15.9.9,0,0,1-.64-.22.89.89,0,0,1-.28-.63.69.69,0,0,1,.28-.64,1.41,1.41,0,0,1,.64-.28Zm-1.06,1.35a.53.53,0,0,0,.35.14,1.34,1.34,0,0,0,.5-.14.68.68,0,0,0,.42-.64v-.42a.26.26,0,0,1-.21.07c-.07,0-.21.07-.28.07l-.29.07a1,1,0,0,0-.42.14.43.43,0,0,0-.21.43A.53.53,0,0,0,123.55,24.13Z"/><path d="M126.24,25.12c.14,0,.21-.14.28-.28s.07-.14.07-.22h-.28v-.56h.56v.56a1.33,1.33,0,0,1-.14.57.47.47,0,0,1-.42.28v-.35Z"/><path d="M130.77,21.79a1.11,1.11,0,0,1,.28.29V20.59h.49v4h-.42v-.42a.67.67,0,0,1-.43.35,1.32,1.32,0,0,1-.56.14,1.1,1.1,0,0,1-.85-.42,1.75,1.75,0,0,1-.35-1.06,2.12,2.12,0,0,1,.35-1.13,1.08,1.08,0,0,1,.92-.5C130.48,21.65,130.62,21.65,130.77,21.79Zm-1.07,2.13a.71.71,0,0,0,.64.28.65.65,0,0,0,.57-.28,1.55,1.55,0,0,0,.21-.85,1.14,1.14,0,0,0-.21-.78.89.89,0,0,0-.57-.28.66.66,0,0,0-.57.28,1.51,1.51,0,0,0-.21.85A1,1,0,0,0,129.7,23.92Z"/><path d="M134.09,21.72a.79.79,0,0,1,.43.36,3.41,3.41,0,0,1,.21.49c0,.14.07.36.07.64h-2.12a1.07,1.07,0,0,0,.21.71.64.64,0,0,0,.56.28.77.77,0,0,0,.64-.28,1.63,1.63,0,0,0,.21-.36h.5a.77.77,0,0,1-.14.36c-.07.14-.14.21-.22.35a1.41,1.41,0,0,1-.56.28c-.14,0-.28.07-.43.07a1.27,1.27,0,0,1-.92-.42,1.47,1.47,0,0,1-.35-1.13,1.79,1.79,0,0,1,.35-1.13,1.29,1.29,0,0,1,1-.43A4.82,4.82,0,0,0,134.09,21.72Zm.14,1.14a1,1,0,0,0-.14-.5.74.74,0,0,0-.64-.35.79.79,0,0,0-.56.21.87.87,0,0,0-.21.64Z"/><path d="M135.65,23.63a.54.54,0,0,0,.14.36.87.87,0,0,0,.64.21,1,1,0,0,0,.49-.14.39.39,0,0,0,.21-.36.36.36,0,0,0-.14-.28c-.07-.07-.21-.07-.42-.14l-.43-.07a2.37,2.37,0,0,1-.56-.21.63.63,0,0,1-.36-.57.69.69,0,0,1,.29-.64,1.47,1.47,0,0,1,.77-.28,1.44,1.44,0,0,1,1,.35.8.8,0,0,1,.21.5H137a.36.36,0,0,0-.14-.28.7.7,0,0,0-.57-.22c-.21,0-.35,0-.42.08a.36.36,0,0,0-.14.28c0,.14.07.21.21.28s.21.07.35.14l.36.07a3,3,0,0,1,.71.22.64.64,0,0,1,.28.56.69.69,0,0,1-.28.64,1.23,1.23,0,0,1-.92.28c-.43,0-.78-.07-.92-.28a.89.89,0,0,1-.29-.71h.43Z"/><path d="M139.75,21.79a1.32,1.32,0,0,1,.29.29V20.59h.49v4h-.42v-.42a.73.73,0,0,1-.43.35,1.32,1.32,0,0,1-.56.14,1.1,1.1,0,0,1-.85-.42,1.69,1.69,0,0,1-.36-1.06,2,2,0,0,1,.36-1.13,1.08,1.08,0,0,1,.92-.5C139.4,21.65,139.61,21.65,139.75,21.79Zm-1.13,2.13a.69.69,0,0,0,.64.28.64.64,0,0,0,.56-.28,1.55,1.55,0,0,0,.22-.85,1.14,1.14,0,0,0-.22-.78.86.86,0,0,0-.56-.28.64.64,0,0,0-.57.28,1.51,1.51,0,0,0-.21.85A1.32,1.32,0,0,0,138.62,23.92Z"/><path d="M143,21.72a.73.73,0,0,1,.42.36,3.41,3.41,0,0,1,.21.49c0,.14.07.36.07.64h-2.12a1.07,1.07,0,0,0,.21.71.66.66,0,0,0,.57.28.79.79,0,0,0,.64-.28,1.63,1.63,0,0,0,.21-.36h.49a.77.77,0,0,1-.14.36c-.07.14-.14.21-.21.35a1.39,1.39,0,0,1-.57.28c-.14,0-.28.07-.42.07a1.25,1.25,0,0,1-.92-.42,1.47,1.47,0,0,1-.35-1.13,1.79,1.79,0,0,1,.35-1.13,1.27,1.27,0,0,1,1-.43C142.65,21.58,142.79,21.65,143,21.72Zm.21,1.14a1,1,0,0,0-.14-.5.75.75,0,0,0-.64-.35.84.84,0,0,0-.57.21.87.87,0,0,0-.21.64Z"/><path d="M147.46,21.79l.29.29v-.43h.49v4h-.49V24.2a.68.68,0,0,1-.36.28,1.32,1.32,0,0,1-.56.14,1.46,1.46,0,0,1-.85-.35,1.38,1.38,0,0,1-.35-1.13A1.79,1.79,0,0,1,146,22a1,1,0,0,1,.92-.43A.79.79,0,0,1,147.46,21.79Zm-1.2,2a.73.73,0,0,0,1.35-.08,1.74,1.74,0,0,0,.07-.63,1.41,1.41,0,0,0-.14-.64.73.73,0,0,0-.71-.42.65.65,0,0,0-.57.28,1.51,1.51,0,0,0-.21.85A3.67,3.67,0,0,0,146.26,23.78Z"/><path d="M149.45,21.65v1.91a.56.56,0,0,0,.07.36.5.5,0,0,0,.49.28.71.71,0,0,0,.71-.42,1.63,1.63,0,0,0,.07-.64V21.72h.5v2.9h-.5V24.2a1,1,0,0,1-.21.28,1.18,1.18,0,0,1-.64.22.87.87,0,0,1-.85-.43,1.33,1.33,0,0,1-.14-.57v-2h.5Z"/><path d="M153.76,21.72a.75.75,0,0,1,.43.36,3.41,3.41,0,0,1,.21.49c0,.14.07.36.07.64h-2.12a1.07,1.07,0,0,0,.21.71.64.64,0,0,0,.57.28.76.76,0,0,0,.63-.28,1.63,1.63,0,0,0,.21-.36h.5a.77.77,0,0,1-.14.36c-.07.14-.14.21-.21.35a1.52,1.52,0,0,1-.57.28c-.14,0-.28.07-.42.07a1.24,1.24,0,0,1-.92-.42,1.21,1.21,0,0,1-.36-1,1.74,1.74,0,0,1,.36-1.13,1.25,1.25,0,0,1,1-.43A.74.74,0,0,1,153.76,21.72Zm.21,1.14a1,1,0,0,0-.14-.5.74.74,0,0,0-.63-.35.8.8,0,0,0-.57.21.87.87,0,0,0-.21.64Z"/><path d="M158.57,21.79a1,1,0,0,1,.36.85h-.5a.42.42,0,0,0-.21-.42.54.54,0,0,0-.49-.21.62.62,0,0,0-.64.42,2.13,2.13,0,0,0-.14.71,1.09,1.09,0,0,0,.21.71.57.57,0,0,0,.57.28.64.64,0,0,0,.49-.21.66.66,0,0,0,.21-.5h.5a1.53,1.53,0,0,1-.43.85,1.13,1.13,0,0,1-.85.28,1.16,1.16,0,0,1-.92-.42,1.75,1.75,0,0,1-.35-1.06,2.07,2.07,0,0,1,.35-1.21,1.16,1.16,0,0,1,.92-.42A4,4,0,0,1,158.57,21.79Z"/><path d="M159.42,20.59h.5v.57h-.5Zm0,1.06h.5v2.9h-.5Z"/><path d="M160.7,20.87h.49v.78h.5v.43h-.5V24a.26.26,0,0,0,.07.21h.36v.35h-.36a1,1,0,0,1-.49-.14,1,1,0,0,1-.14-.42V22.08h-.29v-.43h.43v-.78Z"/><path d="M163.74,22.78c.14,0,.21-.07.21-.14v-.21a.53.53,0,0,0-.14-.35,1,1,0,0,0-.49-.14.7.7,0,0,0-.57.21c-.07.07-.07.21-.14.35h-.43a.9.9,0,0,1,.36-.78,1.42,1.42,0,0,1,.78-.21,1.49,1.49,0,0,1,.84.21.69.69,0,0,1,.29.64V24.2a.24.24,0,0,0,.14.07h.14v.35c-.07,0-.14,0-.14.08h-.14a.41.41,0,0,1-.36-.22c-.07-.07-.07-.14-.07-.28-.07.14-.21.21-.42.35a2.13,2.13,0,0,1-.64.15.9.9,0,0,1-.64-.22.89.89,0,0,1-.28-.63.69.69,0,0,1,.28-.64,1.41,1.41,0,0,1,.64-.28Zm-1.06,1.35a.53.53,0,0,0,.35.14,1.34,1.34,0,0,0,.5-.14.68.68,0,0,0,.42-.64v-.42a.26.26,0,0,1-.21.07c-.07,0-.21.07-.28.07l-.29.07a1,1,0,0,0-.42.14.43.43,0,0,0-.21.43A.53.53,0,0,0,162.68,24.13Z"/><path d="M166.85,21.79c.07.07.22.15.29.29V20.59h.49v4h-.42v-.42a.7.7,0,0,1-.43.35,1.32,1.32,0,0,1-.56.14,1.1,1.1,0,0,1-.85-.42,1.69,1.69,0,0,1-.36-1.06,2,2,0,0,1,.36-1.13,1.08,1.08,0,0,1,.92-.5C166.5,21.65,166.71,21.65,166.85,21.79Zm-1.06,2.13a.7.7,0,0,0,.64.28.64.64,0,0,0,.56-.28,1.47,1.47,0,0,0,.22-.85,1.09,1.09,0,0,0-.22-.78.86.86,0,0,0-.56-.28.65.65,0,0,0-.57.28,1.51,1.51,0,0,0-.21.85A1,1,0,0,0,165.79,23.92Z"/><path d="M169.9,22.78c.14,0,.21-.07.21-.14v-.21a.53.53,0,0,0-.14-.35,1.05,1.05,0,0,0-.5-.14.69.69,0,0,0-.56.21c-.08.07-.08.21-.15.35h-.42a.92.92,0,0,1,.35-.78,1.47,1.47,0,0,1,.78-.21,1.51,1.51,0,0,1,.85.21.7.7,0,0,1,.28.64V24.2a.25.25,0,0,0,.15.07h.14v.35c-.07,0-.14,0-.14.08h-.15a.39.39,0,0,1-.35-.22c-.07-.07-.07-.14-.07-.28-.07.14-.21.21-.43.35a2.07,2.07,0,0,1-.63.15.87.87,0,0,1-.64-.22.89.89,0,0,1-.28-.63.69.69,0,0,1,.28-.64,1.32,1.32,0,0,1,.64-.28Zm-1.07,1.35a.59.59,0,0,0,.36.14,1.3,1.3,0,0,0,.49-.14.67.67,0,0,0,.43-.64v-.42a.26.26,0,0,1-.21.07c-.07,0-.22.07-.29.07l-.28.07a1,1,0,0,0-.42.14.42.42,0,0,0-.22.43A.53.53,0,0,0,168.83,24.13Z"/><path d="M174.5,22.78c.14,0,.21-.07.21-.14v-.21a.53.53,0,0,0-.14-.35,1.09,1.09,0,0,0-.5-.14.73.73,0,0,0-.57.21c-.07.07-.07.21-.14.35h-.42a.92.92,0,0,1,.35-.78,1.45,1.45,0,0,1,.78-.21,1.53,1.53,0,0,1,.85.21.7.7,0,0,1,.28.64V24.2a.24.24,0,0,0,.14.07h.15v.35c-.07,0-.15,0-.15.08h-.14a.39.39,0,0,1-.35-.22c-.07-.07-.07-.14-.07-.28-.07.14-.21.21-.43.35a2.07,2.07,0,0,1-.63.15.87.87,0,0,1-.64-.22.89.89,0,0,1-.28-.63.69.69,0,0,1,.28-.64,1.32,1.32,0,0,1,.64-.28Zm-1,1.35a.59.59,0,0,0,.36.14,1.3,1.3,0,0,0,.49-.14.67.67,0,0,0,.43-.64v-.42a.26.26,0,0,1-.21.07c-.07,0-.22.07-.29.07l-.28.07a1,1,0,0,0-.42.14.42.42,0,0,0-.22.43A.28.28,0,0,0,173.5,24.13Z"/><path d="M177.82,20.8a.89.89,0,0,1,.64-.28h.21V21h-.21a.4.4,0,0,0-.29.14c-.07.07-.07.28-.07.56h.5V22h-.5v2.47h-.49V22h-.28v-.36h.42v-.42A.41.41,0,0,1,177.82,20.8Z"/><path d="M181.22,21.94a1.46,1.46,0,0,1,.35,1.13,1.81,1.81,0,0,1-.35,1.13,1.25,1.25,0,0,1-1.06.42,1,1,0,0,1-.92-.42,1.69,1.69,0,0,1-.36-1.06,1.74,1.74,0,0,1,.36-1.13,1.16,1.16,0,0,1,1-.43A1.52,1.52,0,0,1,181.22,21.94Zm-.29,2a1.47,1.47,0,0,0,.22-.85,1.41,1.41,0,0,0-.14-.64.73.73,0,0,0-.71-.42.74.74,0,0,0-.64.35,1.53,1.53,0,0,0-.21.85,1.45,1.45,0,0,0,.21.78.69.69,0,0,0,.64.28A.74.74,0,0,0,180.93,23.92Z"/><path d="M182.21,21.65h.49v.43a2.22,2.22,0,0,1,.43-.36,1.3,1.3,0,0,1,.49-.14.84.84,0,0,1,.85.43,1.51,1.51,0,0,1,.14.7v1.84h-.49V22.71c0-.14,0-.35-.07-.42s-.21-.28-.5-.28h-.28a1.53,1.53,0,0,0-.35.21.55.55,0,0,0-.15.28,2.46,2.46,0,0,0-.07.43v1.48h-.49Z"/><path d="M185.39,20.87h.5v.78h.49v.43h-.49V24a.26.26,0,0,0,.07.21h.35v.35H186a1.05,1.05,0,0,1-.5-.14,1,1,0,0,1-.14-.42V22.08h-.42v-.43h.42v-.78Z"/><path d="M188.65,21.72a.73.73,0,0,1,.42.36,3.41,3.41,0,0,1,.21.49c0,.14.08.36.08.64h-2.13a1.07,1.07,0,0,0,.21.71.66.66,0,0,0,.57.28.78.78,0,0,0,.64-.28,1.63,1.63,0,0,0,.21-.36h.5c0,.14-.08.22-.15.36s-.14.21-.21.35a1.41,1.41,0,0,1-.56.28c-.15,0-.29.07-.43.07a1.25,1.25,0,0,1-.92-.42,1.47,1.47,0,0,1-.35-1.13,1.79,1.79,0,0,1,.35-1.13,1.27,1.27,0,0,1,1-.43A5.05,5.05,0,0,0,188.65,21.72Zm.14,1.14a1,1,0,0,0-.14-.5A.75.75,0,0,0,188,22a.84.84,0,0,0-.57.21.87.87,0,0,0-.21.64Z"/><path d="M190.06,24h.57v.56h-.57Z"/><path class="cls-4" d="M110,52.06a2.82,2.82,0,0,1-3-2.67v-5h2.25V49.6a1.25,1.25,0,0,0,1.31,1.19,1.28,1.28,0,0,0,1.32-1.19V44.36H113v5A2.81,2.81,0,0,1,110,52.06m-6.36-3-1.39-.41a2.21,2.21,0,0,1,.74-4.29h2.75v1h-1.93a.7.7,0,0,0-.7.7.63.63,0,0,0,.45.61l1.35.46a2.24,2.24,0,0,1,1.4,2.29,2.44,2.44,0,0,1-2.42,2.46H101V50.7h2.5a.85.85,0,0,0,.78-.85.89.89,0,0,0-.62-.83m12.8,0-1.4-.41a2.2,2.2,0,0,1,.7-4.29h2.75v1h-1.93a.69.69,0,0,0-.69.7.63.63,0,0,0,.45.61l1.35.46a2.23,2.23,0,0,1,1.44,2.29,2.47,2.47,0,0,1-2.47,2.46h-2.91V50.7h2.5a.87.87,0,0,0,.21-1.68"/><path class="cls-4" d="M135.48,51.78h.88v5.65a46.44,46.44,0,0,1-.4-5.13l-.48-.52m-6.63-6h0l-.95-1a65.55,65.55,0,0,1-6.62-.64v7.27a98.85,98.85,0,0,0,13.75.68h.07Zm.05-2h7.28V36.66H128.9Zm-5.65.43c.48,0,4.74.41,5,.41L135,51.41h8.67V44.14Zm12.26,8.35a54.13,54.13,0,0,1-7.2,0A33.43,33.43,0,0,0,129,59h7.22c-.34-2.11-.61-5.53-.66-6.49"/><path class="cls-5" d="M36,50.25h1.88v-.41H36.59L37.8,48.2v-.41H36v.41h1.14L36,49.84v.41Zm-.88-2.46v1.34c0,.41,0,.79-.54.79s-.54-.38-.54-.79V47.79h-.52v1.54a1.06,1.06,0,0,0,2.12,0V47.79Zm-3.4,1.47h.56c.17,0,.2.19.22.33s0,.44.09.66h.58a1.5,1.5,0,0,1-.14-.58c0-.34,0-.59-.45-.64h0a.59.59,0,0,0,.51-.59c0-.51-.43-.64-.85-.65h-1v2.46h.52v-1Zm0-1.06h.44c.24,0,.37.1.37.32s-.13.33-.37.33h-.44V48.2Zm-.82.39c0-.62-.47-.84-1-.84-.71,0-1,.55-1,1.27s.32,1.28,1,1.28c.56,0,1-.23,1-.85h-.56a.44.44,0,0,1-.47.47c-.37,0-.47-.55-.47-.9s.1-.89.47-.89a.43.43,0,0,1,.47.46Zm-3.5-.46c.52,0,.62.47.62.89s-.1.9-.62.9-.61-.48-.61-.9.09-.89.61-.89Zm0,2.17A1.28,1.28,0,1,0,26.18,49a1.13,1.13,0,0,0,1.17,1.28Zm-1.52-2.51H25.3v2.46h.53V47.79ZM24,50.25v-1h1v-.4H24v-.6H25v-.41H23.44v2.46Z"/><path class="cls-5" d="M33.91,59.73a.24.24,0,0,1,.23-.24.22.22,0,0,1,.24.21v.16a1.7,1.7,0,0,0-.67.09.58.58,0,0,0-.36.54.5.5,0,0,0,.55.52.57.57,0,0,0,.53-.28h0a2,2,0,0,0,0,.23h.46a.92.92,0,0,1,0-.19v-.93c0-.52-.39-.64-.73-.64a1,1,0,0,0-.5.11.47.47,0,0,0-.24.42Zm.47.42c0,.2,0,.52-.29.52a.24.24,0,0,1-.25-.25c0-.27.36-.27.54-.27ZM33,58.5h-.55V59H33V58.5Zm-.55,0h0Zm.53.75h-.51V61H33V59.25Zm-.51,0h0Zm-.43-.75h-.51V61h.51V58.5Zm-.51,0h0ZM30.59,61h.51V59.25h-.51V61Zm.51,0h0Zm-.17-2.46-.29.49h.28l.46-.49Zm-.72,1.21c0-.38-.32-.51-.69-.51s-.73.15-.73.51.31.47.63.55c.1,0,.35.08.35.22s-.11.19-.25.19-.26-.07-.27-.21h-.48c0,.39.36.55.75.55s.77-.19.77-.56c0-.64-1-.49-1-.76,0-.11.07-.15.2-.15s.23.05.23.17Zm-2.72,0a.24.24,0,0,1,.23-.24.22.22,0,0,1,.24.21v.16a1.7,1.7,0,0,0-.67.09.58.58,0,0,0-.36.54.5.5,0,0,0,.55.52.56.56,0,0,0,.53-.28h0A2,2,0,0,0,28,61h.46c0-.06,0-.1,0-.19v-.93c0-.52-.38-.64-.72-.64a1,1,0,0,0-.5.11.45.45,0,0,0-.23.42Zm.47.42c0,.2,0,.52-.3.52a.24.24,0,0,1-.25-.25c0-.27.37-.27.55-.27Zm-2.31-.9c0,.13,0,.27,0,.34V61h.5v-.85a.73.73,0,0,1,.07-.3.38.38,0,0,1,.25-.13h.22v-.45a.54.54,0,0,0-.58.33h0v-.31ZM24.36,61c.38,0,1-.15,1-.64a.63.63,0,0,0-.54-.64h0a.58.58,0,0,0,.43-.54c0-.48-.45-.66-.89-.64h-.92V61ZM24,59.49v-.58h.41c.22,0,.34.09.34.29s-.12.29-.34.29Zm0,1.06V59.9h.41c.25,0,.41,0,.41.32s-.16.33-.41.33Z"/><path class="cls-5" d="M54.21,38a.46.46,0,0,1,.43-.51c.32,0,.45.23.44.51Zm1.21.23v-.16a.72.72,0,0,0-.75-.81c-.55,0-.8.42-.8.92s.22.9.77.9a.68.68,0,0,0,.76-.59h-.34a.37.37,0,0,1-.42.35c-.33,0-.45-.31-.43-.61Zm-2.32-.69h0a.55.55,0,0,0-.53-.28c-.53,0-.77.44-.77.91s.21.91.72.91a.6.6,0,0,0,.58-.33h0V39h.34c0-.11,0-.21,0-.31V36.55H53.1v1Zm-1,.63c0-.33.09-.69.48-.69s.49.37.49.69-.09.68-.49.68-.48-.36-.48-.68Zm-1.16,0a1.33,1.33,0,0,1-.06.41.41.41,0,0,1-.38.24c-.31,0-.38-.22-.38-.51v-1h-.33v1.15a.57.57,0,0,0,.57.62.64.64,0,0,0,.58-.31h0V39h.32V37.3H51v.88Zm-.27-1.63-.27.49h.22l.41-.49ZM48.64,38c-.41,0-.83.15-.83.62a.53.53,0,0,0,.6.5.56.56,0,0,0,.53-.31h0c0,.08,0,.15,0,.23s.06,0,.09,0h.22c0-.15,0-.29,0-.37v-.82c0-.47-.35-.58-.7-.58s-.64.13-.65.51h.34a.3.3,0,0,1,.32-.28c.35,0,.36.18.36.47Zm.29.23c0,.32-.06.65-.45.65a.3.3,0,0,1-.33-.32c0-.25.26-.32.46-.33Zm-3.39.12c0,.55.36.77.88.77s1-.2,1-.76-.62-.63-1.07-.77c-.22-.07-.42-.09-.42-.37s.33-.38.58-.38.47.1.49.37h.36c0-.47-.42-.66-.84-.66s-1,.2-1,.73.68.65,1.09.74c.2,0,.4.14.4.37s-.34.43-.62.43-.54-.13-.54-.47Zm-2-.35c-.4,0-.83.15-.83.62a.53.53,0,0,0,.6.5.56.56,0,0,0,.53-.31h0a1.79,1.79,0,0,0,0,.23s.06,0,.09,0h.22c0-.15,0-.29,0-.37v-.82c0-.47-.34-.58-.7-.58s-.63.13-.65.51h.34a.3.3,0,0,1,.33-.28c.34,0,.36.18.36.47Zm.3.23c0,.32-.06.65-.45.65a.3.3,0,0,1-.34-.32c0-.25.27-.32.46-.33Zm-1.9-.65h0a.56.56,0,0,0-.53-.28c-.54,0-.77.44-.77.91s.2.91.71.91a.61.61,0,0,0,.59-.33h0V39h.33c0-.11,0-.21,0-.31V36.55h-.32v1Zm-1,.63c0-.33.09-.69.48-.69s.49.37.49.69-.09.68-.49.68-.48-.36-.48-.68Zm-3,0c0-.37.13-.68.52-.68s.51.31.51.68-.13.67-.51.67-.52-.31-.52-.67Zm.52-.91a.91.91,0,1,0,.85.91.82.82,0,0,0-.85-.91Zm-1.72-.35h.39v-.35h-.39v.35Zm0,2.12h.33V37.3h-.33V39Zm.33,0h0Zm-1.33-.85c0-.37.07-.59.48-.6a.32.32,0,0,1,.14,0v-.31h-.11a.47.47,0,0,0-.5.35h0V37.3h-.32V39h.32v-.85Zm-2-.18a.46.46,0,0,1,.43-.51c.31,0,.44.23.43.51Zm1.21.23v-.16a.72.72,0,0,0-.76-.81c-.54,0-.79.42-.79.92s.22.9.76.9a.69.69,0,0,0,.77-.59h-.35a.35.35,0,0,1-.41.35c-.33,0-.46-.31-.43-.61Zm-.63-1.67L34,37h.22l.41-.49Zm-2.2.74v.25h.29v1.09c0,.23,0,.23.07.31a.31.31,0,0,0,.2.12l.22,0,.22,0V38.8l-.17,0c-.12,0-.21-.06-.21-.18V37.53h.39v-.25h-.39v-.46l-.33.1v.36Zm-1.56.48c0,.66,1,.38,1,.76,0,.22-.19.3-.39.3a.31.31,0,0,1-.34-.32H30.5c0,.39.3.56.66.56s.76-.14.76-.55-.33-.42-.62-.52c-.13,0-.42,0-.42-.24a.28.28,0,0,1,.31-.28c.19,0,.36.08.35.29h.34c0-.39-.34-.52-.67-.52s-.67.16-.67.52Zm-.85-.87h.39v-.35h-.39v.35Zm0,2.12h.33V37.3h-.33V39Zm.33,0h0ZM28,37.3h-.32V39H28v-.94c0-.33.09-.41.14-.45a.45.45,0,0,1,.32-.13c.27,0,.39.15.39.43V39h.32V37.83a.59.59,0,0,0-.65-.58.6.6,0,0,0-.52.3h0V37.3Zm-1.29-.4H27v-.35h-.38v.35Zm0,2.12H27V37.3h-.32V39ZM27,39h0Zm-1.29,0h.34V36.55h-.57l-.7,2h0l-.71-2h-.61V39h.35V36.8h0L24.6,39h.32l.79-2.22h0V39Z"/><path class="cls-5" d="M66.18,53.53l-.89.89v.41h1.6v-.41H66l.89-.89v-.41H65.33v.41Zm-1.9,1.3h.66a3.47,3.47,0,0,1,0-.44V53.12h-.65v1s0,.36-.28.36-.24-.17-.25-.35v-1h-.65v1.14a.61.61,0,0,0,.64.63.67.67,0,0,0,.54-.24v.18Zm-2.07-1.71h-.66a3.49,3.49,0,0,1,0,.44v1.27h.64v-.68c0-.33.11-.53.45-.54h.13v-.55a.5.5,0,0,0-.57.37h0v-.32Zm-1,0c0-.62-.59-.82-1.18-.82-.77,0-1.18.46-1.18,1.28s.41,1.29,1.18,1.29c.59,0,1.19-.22,1.18-.85h-.72c0,.24-.18.37-.46.37s-.47-.43-.47-.79.08-.83.47-.83.45.13.46.35Zm-4.79-.07a.91.91,0,1,0,1,.91.88.88,0,0,0-1-.91Zm-.33.91c0-.25.06-.54.33-.54s.34.29.34.54-.07.52-.34.52-.33-.28-.33-.52Zm-2-.54c.29,0,.32.31.32.54s-.05.52-.32.52-.32-.3-.32-.52,0-.54.32-.54Zm.33,1.39h.64V52.37h-.65v1h0a.64.64,0,0,0-.55-.25c-.51,0-.74.46-.74.91s.23.91.72.91a.61.61,0,0,0,.57-.31h0v.25Zm-2.34,0h.65V52.37h-.65v2.46Zm.65,0h0Zm-1.07,0a2.53,2.53,0,0,1,0-.35V53.6c0-.38-.41-.53-.76-.53a1.47,1.47,0,0,0-.59.1.47.47,0,0,0-.3.46h.61c0-.1.05-.26.21-.26s.22.21.22.36h-.2c-.57,0-.94.16-1,.58s.2.58.61.58a.58.58,0,0,0,.54-.29h0a1.29,1.29,0,0,0,0,.23Zm-1.17-.55c0-.12.07-.17.16-.23a1,1,0,0,1,.36,0c0,.23,0,.49-.3.49a.21.21,0,0,1-.22-.22Zm-2.69.55.33-1.19h0l.31,1.19h.72l.53-1.71h-.57l-.3,1.21h0l-.29-1.21h-.72l-.3,1.22h0l-.28-1.22h-.65l.52,1.71Zm-1.42-1.18c0-.48-.41-.58-.82-.58s-.79.12-.79.54c0,.62,1,.44,1,.74,0,.11-.1.15-.22.15a.2.2,0,0,1-.15-.07.17.17,0,0,1-.05-.15H44.8c0,.52.4.61.82.61s.82-.12.82-.58a.45.45,0,0,0-.34-.47c-.41-.13-.67-.12-.67-.24a.14.14,0,0,1,.15-.16.2.2,0,0,1,.18.07.2.2,0,0,1,0,.14Zm-3.17,1.24A1.29,1.29,0,1,0,42,53.6a1.17,1.17,0,0,0,1.28,1.29Zm.56-1.28c0,.37-.1.8-.56.8s-.56-.43-.56-.8.1-.82.56-.82.56.44.56.82Zm-4.25-.54a.91.91,0,1,0,1,.91.88.88,0,0,0-1-.91Zm-.34.91c0-.25.06-.54.34-.54s.32.29.32.54-.05.52-.32.52-.34-.28-.34-.52Zm-1,.85c0-.2,0-.28,0-.35V53.6c0-.38-.41-.53-.76-.53a1.5,1.5,0,0,0-.59.1.48.48,0,0,0-.3.46h.62a.22.22,0,0,1,.2-.26c.26,0,.23.21.23.36h-.21c-.56,0-.94.16-1,.58a.54.54,0,0,0,.61.58.61.61,0,0,0,.55-.29h0a.66.66,0,0,0,0,.23Zm-1.17-.55c0-.12.07-.17.17-.23a1,1,0,0,1,.36,0c0,.23,0,.49-.31.49a.22.22,0,0,1-.22-.22Zm-.16-1.41c0-.08.06-.14.14-.14a.92.92,0,0,1,.3.07,1.3,1.3,0,0,0,.33.07.45.45,0,0,0,.32-.16.76.76,0,0,0,.15-.33h-.28s0,.13-.11.13a1.6,1.6,0,0,1-.28-.07,1.21,1.21,0,0,0-.36-.07.45.45,0,0,0-.33.15.62.62,0,0,0-.15.35Zm-.71.85c0-.49-.43-.66-.87-.65a.86.86,0,0,0-.94.91.77.77,0,0,0,.69.88l-.19.27.09.07a.53.53,0,0,1,.17,0c.08,0,.19.06.19.13s-.13.1-.24.1a1.28,1.28,0,0,1-.35-.07l-.06.19a1.67,1.67,0,0,0,.38.06,1.19,1.19,0,0,0,.46-.06c.11-.06.18-.12.18-.23s-.18-.28-.37-.28h-.11l.09-.11h0a1.1,1.1,0,0,0,.61-.19.62.62,0,0,0,.26-.54h-.64c0,.16,0,.33-.26.34s-.24-.35-.24-.52,0-.54.24-.54a.26.26,0,0,1,.21.08.37.37,0,0,1,.05.2Zm-2.13,1.11c0-.2,0-.28,0-.35V53.6c0-.38-.41-.53-.76-.53a1.5,1.5,0,0,0-.59.1.48.48,0,0,0-.3.46H33c0-.1,0-.26.21-.26s.22.21.22.36h-.2c-.56,0-.94.16-.95.58a.54.54,0,0,0,.61.58.61.61,0,0,0,.55-.29h0a.66.66,0,0,0,0,.23Zm-1.17-.55c0-.12.07-.17.17-.23a.94.94,0,0,1,.35,0c0,.23,0,.49-.3.49a.22.22,0,0,1-.22-.22ZM31,53.44c.28,0,.31.31.31.54s-.05.52-.31.52-.32-.3-.32-.52,0-.54.32-.54Zm.33,1.39H32V52.37h-.65v1h0a.66.66,0,0,0-.56-.25c-.51,0-.73.46-.73.91s.22.91.71.91a.6.6,0,0,0,.57-.31h0l0,.25Zm-2.87-1.71h-.65c0,.18,0,.28,0,.44v1.27h.64v-1s0-.37.28-.37.25.18.25.35v1h.65V53.68a.6.6,0,0,0-.64-.61.67.67,0,0,0-.54.24v-.19Zm-1.72,1.71h.66a3.61,3.61,0,0,1,0-.44V53.12h-.64v1s0,.36-.28.36-.24-.17-.25-.35v-1h-.65v1.14a.6.6,0,0,0,.64.63.67.67,0,0,0,.54-.24v.18Zm-2.58-.94h1v-.47h-1v-.57h1.07v-.48H23.49v2.46h.68v-.94Z"/><path class="cls-5" d="M18.52,53.19h0l.4.69v.49H1.55v-.49l.39-.69h0V43.66h.58V39.83h.33v-.58h0v-.53a.94.94,0,0,1-.27-.64,1,1,0,0,1,1-1,1,1,0,0,1,1,1,.8.8,0,0,1-.25.62h0v.55h0v.59h.34v3.83H6.81V40.3l-.11-.24h0l0-.05.44.06h6.34l.28,0,.11,0,0,.06h0l-.09.23v3.36h2.14V39.83h.35V38.71a.89.89,0,0,1-.27-.64,1,1,0,0,1,1.95,0,.81.81,0,0,1-.26.62v1.14H18v3.83h.53v9.51h0v0Zm.05-10.14v-3.8h-.35V39a2.09,2.09,0,0,0,.26-.9,1.58,1.58,0,0,0-1.31-1.54V36.4a.36.36,0,0,0,.11-.25.36.36,0,0,0-.15-.29L17,34.8a.09.09,0,0,0,0,0,.12.12,0,1,0-.24,0v0h0l-.09,1.08a.37.37,0,0,0-.16.3.36.36,0,0,0,.11.25l0,.15a1.58,1.58,0,0,0-1.26,1.54,2.09,2.09,0,0,0,.26.9v.27h-.34v3.81h-1V40.39l.32-.29v-.45l-.32-.17v0l-.17-.31h-.45l-.24.26h0l0,0,0,0h0v0H11.63l-.29-.32h-.45l-.29.32H9.87l-.3-.32H9.12l-.29.32H7.18l0,0-.3-.32H6.41l-.09.17-.09.16-.12.06-.2.11v.45l.32.29v2.68H5.17V39.24H4.84V39a2.09,2.09,0,0,0,.26-.9,1.59,1.59,0,0,0-1.27-1.54V36.4a.38.38,0,0,0,.09-.25.36.36,0,0,0-.14-.29l-.09-1.09h0v0a.13.13,0,0,0-.12-.12.12.12,0,0,0-.12.12.07.07,0,0,0,0,0l-.09,1.05a.38.38,0,0,0-.15.3.35.35,0,0,0,.1.25v.15A1.57,1.57,0,0,0,2,38.09a2.08,2.08,0,0,0,.25.9v.25H1.94v3.83H1v.59H1l.36.32v3.21H1v.55l.38.34v2.21H1v.55l.38.34v2L1,53.53v.85H1V55H19.49v-.58h0v-.85l-.39-.33v0h0v-2l.38-.33v-.55H19.1V48.05l.38-.33v-.55H19.1V44l.36-.32h0v-.58Z"/><path d="M173.16,37.05a2.34,2.34,0,0,1,.39,0h.63a2.2,2.2,0,0,1,.36,0l1.06,3.41c0,.08.06.2.11.35s.08.32.13.5.08.33.12.48,0,.25.06.32h.06c0-.07,0-.17.07-.32s.07-.31.12-.48.09-.34.13-.5.08-.27.1-.35l1.06-3.41a2.46,2.46,0,0,1,.37,0h.63a2.58,2.58,0,0,1,.39,0l.56,7.22-.26,0h-.52a.85.85,0,0,1-.23,0l-.26-4c0-.18,0-.4,0-.65l0-.77c0-.26,0-.49,0-.7h-.06l-1.5,5a2,2,0,0,1-.27,0h-.54a2.06,2.06,0,0,1-.26,0l-1.51-5h0c0,.21,0,.44,0,.7s0,.51,0,.77,0,.47,0,.65l-.26,4a1,1,0,0,1-.24,0h-.52l-.25,0Z"/><path d="M181.34,37l.25,0h.54l.27,0v7.24l-.27,0h-.54l-.25,0Z"/><path d="M184.39,37.05l.32,0h.62l.33,0-.28,1.24h-.09c0,.24,0,.51,0,.8l0,.89c0,.3,0,.58,0,.84v3.46l-.25,0h-.47l-.26,0ZM186,39.76c-.12-.27-.24-.52-.36-.76s-.22-.48-.33-.71l-.49-.61.83-.64L188,41.56l.38.81c.11.26.23.5.33.72l.52.55-.87.64Zm3.61-2.7v7.21l-.31,0-.33,0h-.32l-.32,0,.29-1.18h.09c0-.28,0-.58,0-.89s0-.62,0-.91,0-.57,0-.82V37.66a.82.82,0,0,1,.12-.5.52.52,0,0,1,.45-.16h.34Z"/><path d="M191.62,37l.26,0h.53l.27,0v7.24l-.27,0h-.53l-.26,0Z"/><path d="M194,43.63a1.15,1.15,0,0,1,.16-.46.91.91,0,0,1,.3-.36,4.86,4.86,0,0,0,1,.51,3.12,3.12,0,0,0,1.11.21,1.66,1.66,0,0,0,1-.29.91.91,0,0,0,.38-.74,1,1,0,0,0-.27-.7,2,2,0,0,0-.73-.49l-1.29-.54a2.89,2.89,0,0,1-1.06-.73,1.59,1.59,0,0,1-.39-1.1,1.85,1.85,0,0,1,.3-1,2.11,2.11,0,0,1,.83-.73,2.62,2.62,0,0,1,1.25-.28,4.39,4.39,0,0,1,1.22.17,7.21,7.21,0,0,1,1,.37,1.07,1.07,0,0,1-.11.46,1.09,1.09,0,0,1-.27.38,6.14,6.14,0,0,0-.91-.35,3.13,3.13,0,0,0-.9-.15,1.42,1.42,0,0,0-1,.3.93.93,0,0,0-.36.74.76.76,0,0,0,.26.6,2.55,2.55,0,0,0,.65.39l1.27.53a3.74,3.74,0,0,1,.8.47,2.08,2.08,0,0,1,.57.65,1.7,1.7,0,0,1,.21.85,2.07,2.07,0,0,1-.28,1.08,2,2,0,0,1-.85.76,3.36,3.36,0,0,1-1.44.27,4.4,4.4,0,0,1-1.33-.21A4.77,4.77,0,0,1,194,43.63Z"/><path d="M199.49,37.94l0-.23a2.43,2.43,0,0,1,0-.44l0-.23h4.83a1.08,1.08,0,0,1,.05.21,1.48,1.48,0,0,1,0,.21.45.45,0,0,1-.14.37.8.8,0,0,1-.46.11h-4.29Zm1.89.77V37.49h1.05v.83c0,.12,0,.25,0,.39v5.57l-.27,0h-.53l-.26,0Z"/><path d="M205.47,37.11l.07-.07h1v1.23c0,.09,0,.21,0,.35V42.9a2.09,2.09,0,0,1,0,.26v1.13h-.43a.57.57,0,0,1-.44-.17.69.69,0,0,1-.16-.49Zm4.29-.07a1.85,1.85,0,0,1,0,.23v.2c0,.06,0,.13,0,.22a1.14,1.14,0,0,1-.06.25h-3.58V37Zm-.56,3.15a1.43,1.43,0,0,1,0,.22c0,.08,0,.16,0,.22s0,.13,0,.21a1.57,1.57,0,0,1,0,.23h-3.06v-.86h3.06Zm.77,3.2a1.23,1.23,0,0,1-.15.7.64.64,0,0,1-.55.2h-3.13v-.85l.49,0H210Zm-1.22-8.63a1,1,0,0,1,.2.21,1.87,1.87,0,0,1,.17.31,1.46,1.46,0,0,1,.1.34l-2.28.94a.5.5,0,0,1-.21-.24,1.11,1.11,0,0,1-.11-.3Z"/><path d="M216.18,39.16A2.1,2.1,0,0,1,216,40a1.9,1.9,0,0,1-.49.66,1.86,1.86,0,0,1-.7.39.94.94,0,0,1,.44.33,2.15,2.15,0,0,1,.3.56l.49,1.29a2.81,2.81,0,0,0,.22.48,1.28,1.28,0,0,0,.24.27.63.63,0,0,1-.3.25,1,1,0,0,1-.41.09.58.58,0,0,1-.45-.17,1.83,1.83,0,0,1-.26-.49l-.55-1.47a1.93,1.93,0,0,0-.36-.63.94.94,0,0,0-.73-.26h-1.35V40.5h.54l.6,0h.52a1.48,1.48,0,0,0,.82-.2,1,1,0,0,0,.39-.49,1.83,1.83,0,0,0,0-1.25,1,1,0,0,0-.39-.49,1.49,1.49,0,0,0-.82-.19h-1.22v6.44l-.27,0h-.53l-.26,0V37.1l.06-.06,1.16,0h1.1a2.94,2.94,0,0,1,1.27.25,1.85,1.85,0,0,1,.83.73A2.32,2.32,0,0,1,216.18,39.16Z"/><path d="M217.85,37l.26,0h.54l.27,0v7.24l-.27,0h-.54l-.26,0Z"/><path d="M220.47,40.66a5.42,5.42,0,0,1,.32-1.91,2.88,2.88,0,0,1,1-1.35,2.63,2.63,0,0,1,1.65-.5,2.84,2.84,0,0,1,1.31.29,2.59,2.59,0,0,1,.91.8,3.7,3.7,0,0,1,.54,1.19,5.83,5.83,0,0,1,.18,1.48,5.52,5.52,0,0,1-.32,1.92,2.9,2.9,0,0,1-1,1.34,2.57,2.57,0,0,1-1.65.5,2.84,2.84,0,0,1-1.31-.28,2.44,2.44,0,0,1-.91-.81,3.7,3.7,0,0,1-.54-1.19A5.83,5.83,0,0,1,220.47,40.66Zm1.11,0a6.82,6.82,0,0,0,.07,1,4.1,4.1,0,0,0,.28.94,1.74,1.74,0,0,0,.55.7,1.51,1.51,0,0,0,.93.27,1.48,1.48,0,0,0,.92-.27,1.68,1.68,0,0,0,.56-.7,3.64,3.64,0,0,0,.27-.94,7.18,7.18,0,0,0,0-2,3.53,3.53,0,0,0-.27-.94,1.68,1.68,0,0,0-.56-.7,1.54,1.54,0,0,0-.92-.26,1.57,1.57,0,0,0-.93.26,1.74,1.74,0,0,0-.55.7,4,4,0,0,0-.28.94A6.82,6.82,0,0,0,221.58,40.66Z"/><path d="M235.52,40.66a9,9,0,0,1-.08,1.19,3.35,3.35,0,0,1-.32,1.06,2.71,2.71,0,0,1-.71.89,2.14,2.14,0,0,1-.56.31,3.87,3.87,0,0,1-.67.17,4.69,4.69,0,0,1-.62,0h-.76l-.7,0-.83,0-.06-.06V37.1l.06-.06.82,0h1.47a5,5,0,0,1,.63,0,3.9,3.9,0,0,1,.67.18,1.83,1.83,0,0,1,.55.31,2.62,2.62,0,0,1,.7.88,3.74,3.74,0,0,1,.33,1.06A9,9,0,0,1,235.52,40.66Zm-1.1,0a8.22,8.22,0,0,0-.07-1,3.31,3.31,0,0,0-.26-.91,1.6,1.6,0,0,0-.55-.66,1.78,1.78,0,0,0-1-.25h-1.29v5.62h1.29a1.7,1.7,0,0,0,1-.25,1.57,1.57,0,0,0,.55-.67,3.31,3.31,0,0,0,.26-.91A8.22,8.22,0,0,0,234.42,40.66Z"/><path d="M238.56,37l.31,0h.61a1.68,1.68,0,0,1,.29,0l2.39,7.17a.78.78,0,0,1-.28.11,1.87,1.87,0,0,1-.34,0,.57.57,0,0,1-.39-.12,1,1,0,0,1-.24-.44L239.69,40q-.15-.45-.3-1c-.1-.34-.19-.65-.26-.92h0c0,.16-.08.33-.13.51s-.09.36-.14.53-.09.32-.13.44l-1.51,4.71-.22,0h-.24l-.27,0-.25-.06,0,0Zm-.18,5.47h-1.2l.33-.87h3.26l.28.87h-2.67Z"/><path d="M209.86,56.38a1.94,1.94,0,0,1,.22-.68,1.76,1.76,0,0,1,.42-.53,5.92,5.92,0,0,0,1,.48,3.22,3.22,0,0,0,1.13.21,1,1,0,0,0,.71-.23.71.71,0,0,0,.23-.51.9.9,0,0,0-.14-.43,1.12,1.12,0,0,0-.57-.41l-1.28-.54A3,3,0,0,1,210.5,53a1.7,1.7,0,0,1-.42-1.21,1.94,1.94,0,0,1,.34-1.14,2.33,2.33,0,0,1,.92-.77,3,3,0,0,1,1.29-.28,4.88,4.88,0,0,1,1.4.2,6.45,6.45,0,0,1,1.06.4,1.75,1.75,0,0,1-.17.67,1.69,1.69,0,0,1-.38.55,7.13,7.13,0,0,0-.94-.36,3.69,3.69,0,0,0-1-.16.91.91,0,0,0-.69.22.65.65,0,0,0-.21.46.56.56,0,0,0,.15.39,1.49,1.49,0,0,0,.5.32l1.3.54a3.11,3.11,0,0,1,.86.51,2.16,2.16,0,0,1,.55.71,1.9,1.9,0,0,1,.19.86,2.12,2.12,0,0,1-.31,1.14,2.1,2.1,0,0,1-.92.81,3.48,3.48,0,0,1-1.53.29,4.77,4.77,0,0,1-1.36-.2A5,5,0,0,1,209.86,56.38Z"/><path d="M218,49.77l.47-.05h.94a4,4,0,0,1,.46.06l2.3,7.12a1.19,1.19,0,0,1-.44.15,2.91,2.91,0,0,1-.49.05.9.9,0,0,1-.6-.18,1.37,1.37,0,0,1-.37-.69l-.81-2.83c-.09-.3-.18-.64-.29-1s-.2-.76-.29-1.1h-.06l-.14.63c-.06.24-.12.47-.19.7s-.12.44-.18.62L217.22,57a1.64,1.64,0,0,1-.32,0h-.37l-.41,0a1.58,1.58,0,0,1-.37-.08l-.06-.08Zm.1,5.69h-1.41l.49-1.27h3.41l.41,1.27h-2.9Z"/><path d="M228.56,54.35a3.26,3.26,0,0,1-.34,1.53,2.2,2.2,0,0,1-1,1,3.87,3.87,0,0,1-3.08,0,2.23,2.23,0,0,1-1-1,3.15,3.15,0,0,1-.34-1.53V49.77l.07-.07h.59a1,1,0,0,1,.72.24,1.1,1.1,0,0,1,.24.79v3.64a1.88,1.88,0,0,0,.29,1.13,1.08,1.08,0,0,0,.93.38,1.1,1.1,0,0,0,.94-.38,1.89,1.89,0,0,0,.28-1.13v-4.6a2.7,2.7,0,0,1,.41-.05h.78a2.81,2.81,0,0,1,.44.05Zm-1.82-7.24a1.1,1.1,0,0,1,.27.29,2.52,2.52,0,0,1,.24.43,1.42,1.42,0,0,1,.12.47l-2.52,1a.74.74,0,0,1-.29-.33,1.18,1.18,0,0,1-.16-.44Z"/><path d="M235.91,53.38a9.18,9.18,0,0,1-.08,1.2,3.52,3.52,0,0,1-.34,1.07,2.64,2.64,0,0,1-.76.89,2,2,0,0,1-.58.31,5.49,5.49,0,0,1-.7.17,5.42,5.42,0,0,1-.65,0h-1.73l-.89,0L230.1,57V49.82l.08-.07.88,0h1.74a5.42,5.42,0,0,1,.65,0,4.2,4.2,0,0,1,.7.17,1.88,1.88,0,0,1,.58.31,2.61,2.61,0,0,1,.75.89,3.52,3.52,0,0,1,.34,1.07A7.53,7.53,0,0,1,235.91,53.38Zm-1.66,0a7.86,7.86,0,0,0-.05-.83,3.65,3.65,0,0,0-.2-.79,1.39,1.39,0,0,0-.44-.57,1.18,1.18,0,0,0-.76-.22h-1.08v4.85h1.08a1.25,1.25,0,0,0,.76-.22A1.42,1.42,0,0,0,234,55a3.65,3.65,0,0,0,.2-.79A7.89,7.89,0,0,0,234.25,53.38Z"/><path d="M237.14,49.84l.07-.07h1.52V51.1c0,.15,0,.28,0,.39v3.83c0,.11,0,.24,0,.38V57h-.66a.9.9,0,0,1-.68-.26.93.93,0,0,1-.25-.69Zm4.6-.07a2.15,2.15,0,0,1,0,.34c0,.1,0,.2,0,.29a2.24,2.24,0,0,1,0,.34c0,.13-.06.26-.1.38h-3.49V49.77Zm-.62,2.94a1.57,1.57,0,0,1,.07.34,1.72,1.72,0,0,1,0,.64,1.86,1.86,0,0,1-.07.34h-2.94V52.73h2.94Zm.88,3a2,2,0,0,1-.21,1,1,1,0,0,1-.85.34h-2.76V55.73l.64,0,.69,0Z"/></g></g></svg>