<?xml version="1.0" encoding="utf-8"?>
<!-- Generator: Adobe Illustrator 24.3.0, SVG Export Plug-In . SVG Version: 6.00 Build 0)  -->
<svg version="1.1" id="Camada_1" xmlns="http://www.w3.org/2000/svg" xmlns:xlink="http://www.w3.org/1999/xlink" x="0px" y="0px"
	 viewBox="0 0 888 500" style="enable-background:new 0 0 888 500;" xml:space="preserve">
<style type="text/css">
	.st0{opacity:0.5;clip-path:url(#SVGID_2_);}
	.st1{fill:#FFFFFF;}
</style>
<g>
	<g>
		<defs>
			<rect id="SVGID_1_" x="-3.6" y="-2.7" width="901" height="511.9"/>
		</defs>
		<clipPath id="SVGID_2_">
			<use xlink:href="#SVGID_1_"  style="overflow:visible;"/>
		</clipPath>
		<g class="st0">
			<g transform="matrix( 1, 0, 0, 1, 0,0) ">
				<g transform="matrix( 0.959686279296875, 0, 0, 0.959686279296875, 320.05,401.75) ">
					<g transform="matrix( 0.543975830078125, 0, 0, 0.543975830078125, -430.85,-194.95) ">
						<g>
							<g id="S_mbolo_8_0_Layer0_0_MEMBER_1_FILL_788_">
								<path class="st1" d="M1562.8-169h-69c-0.8,0-1.5-0.6-1.6-1.3c-3.6-21.6-5.5-42.6-5.7-62.4c0-0.5,0.2-0.9,0.5-1.2
									s0.8-0.5,1.2-0.4c20.8,1.9,43.6,2,68,0.3c0.9-0.1,1.6,0.6,1.7,1.5c2.4,28.4,4.5,49.1,6.4,61.7c0.1,0.5-0.1,0.9-0.4,1.3
									C1563.8-169.2,1563.3-169,1562.8-169z M1495.3-172.2h65.7c-1.8-12.5-3.8-32.2-6-58.5c-23.2,1.5-45.1,1.4-65.1-0.3
									C1490.1-212.3,1492-192.5,1495.3-172.2z M1564.6-183.9c-0.7,0-1.4-0.5-1.6-1.2c-0.7-3.2-1.6-10.6-2.5-22.7
									c-1.1-12-1.6-20.7-1.4-25.6l-4.2-4.5c-0.4-0.5-0.6-1.2-0.3-1.7c0.3-0.6,0.8-1,1.5-1h8.6c0.9,0,1.6,0.7,1.6,1.6v53.6
									c0,0.8-0.6,1.5-1.4,1.6C1564.8-183.9,1564.7-183.9,1564.6-183.9z M1559.8-237.5l2.1,2.3c0.3,0.3,0.5,0.7,0.4,1.2
									c-0.2,3.6,0,9.6,0.7,17.8v-21.3H1559.8z M1529.7-234.4c-11.1,0-22.3-0.2-33.4-0.6c-19.5-1-44.9-3-75.5-6.1
									c-0.8-0.1-1.4-0.8-1.4-1.6V-312c0-0.5,0.2-0.9,0.6-1.2c0.4-0.3,0.8-0.4,1.3-0.4c4.4,0.7,10.2,1.5,17.2,2.3
									c-0.1-0.2-0.2-0.5-0.2-0.8c0-0.9,0.7-1.5,1.6-1.5h194.3c0.9,0,1.6,0.7,1.6,1.6v69.3c0,0.9-0.7,1.6-1.6,1.6h-82.5
									c-0.4,0-0.8-0.2-1.2-0.5l-63.5-64.9l-1.3-0.1l67.8,69.2c0.5,0.5,0.6,1.2,0.3,1.8c-0.3,0.6-0.8,1-1.5,1h-0.3
									C1544.7-234.5,1537.2-234.4,1529.7-234.4z M1422.6-244.2c29.9,3,54.8,5,73.9,5.9c17.3,0.7,34.9,0.8,52.2,0.4l-65.1-66.5
									c-6,0.2-16.1-0.5-31-2.2c-12.8-1.3-22.9-2.5-30-3.6V-244.2z M1552.4-244.3h80.2v-66.1h-153.3l8.6,0.7c0.4,0,0.7,0.2,1,0.5
									L1552.4-244.3z M1562.8-314.3h-69.3c-0.9,0-1.6-0.7-1.6-1.6v-67.2c0-0.9,0.7-1.6,1.6-1.6h69.3c0.9,0,1.6,0.7,1.6,1.6v67.2
									C1564.5-315.1,1563.7-314.3,1562.8-314.3z M1495.2-317.6h66.1v-63.9h-66.1V-317.6z"/>
							</g>
						</g>
					</g>
				</g>
			</g>
			<g transform="matrix( 1, 0, 0, 1, 0,0) ">
				<g transform="matrix( 0.959686279296875, 0, 0, 0.959686279296875, 320.05,401.75) ">
					<g transform="matrix( 0.543975830078125, 0, 0, 0.543975830078125, -430.85,-194.95) ">
						<g>
							<g id="S_mbolo_8_0_Layer0_0_MEMBER_1_FILL_787_">
								<path class="st1" d="M1238.1,18.6H1135c-1.2,0-2.2-0.9-2.4-2c-5.3-32.4-8.2-63.8-8.6-93.3c0-0.7,0.3-1.3,0.8-1.8
									s1.2-0.7,1.9-0.6c31.1,2.8,65.3,3,101.7,0.5c1.3-0.1,2.5,0.9,2.6,2.2c3.5,42.5,6.8,73.5,9.6,92.3c0.1,0.7-0.1,1.4-0.6,1.9
									C1239.4,18.3,1238.8,18.6,1238.1,18.6z M1137,13.7h98.3c-2.7-18.7-5.7-48.1-9-87.5c-34.8,2.3-67.5,2.1-97.4-0.4
									C1129.3-46.3,1132-16.7,1137,13.7z M1240.8-3.9c-1.1,0-2.1-0.8-2.3-1.9c-1.1-4.8-2.3-15.9-3.8-34c-1.7-18-2.4-30.9-2.2-38.3
									l-6.3-6.7c-0.7-0.7-0.8-1.7-0.4-2.6s1.3-1.4,2.2-1.4h12.8c1.3,0,2.4,1.1,2.4,2.4v80.2c0,1.2-0.9,2.3-2.1,2.4
									C1240.9-3.9,1240.8-3.9,1240.8-3.9z M1233.5-84l3.2,3.4c0.4,0.5,0.7,1.1,0.6,1.8c-0.3,5.4,0.1,14.3,1.1,26.6V-84H1233.5z
									 M1188.5-79.3c-16.7,0-33.4-0.3-49.9-1c-29.1-1.4-67.1-4.5-112.9-9.1c-1.2-0.1-2.2-1.2-2.2-2.4v-103.7
									c0-0.7,0.3-1.4,0.9-1.8c0.5-0.5,1.3-0.6,2-0.5c6.6,1.1,15.2,2.3,25.8,3.5c-0.2-0.4-0.3-0.8-0.3-1.2c0.1-1.3,1.1-2.3,2.4-2.3
									H1345c1.3,0,2.4,1.1,2.4,2.4v103.7c0,1.3-1.1,2.4-2.4,2.4h-123.4c-0.6,0-1.3-0.3-1.7-0.7l-95-97.2l-1.9-0.2l101.4,103.6
									c0.7,0.7,0.9,1.7,0.5,2.6s-1.3,1.5-2.2,1.5h-0.5C1210.9-79.5,1199.7-79.3,1188.5-79.3z M1028.3-94
									c44.8,4.5,81.9,7.5,110.5,8.9c25.9,1,52.2,1.2,78.2,0.6l-97.4-99.5c-8.9,0.2-24.1-0.8-46.3-3.2c-19.2-1.9-34.3-3.8-44.9-5.4
									L1028.3-94L1028.3-94z M1222.5-94.2h120V-193h-229.4l12.9,1.1c0.6,0,1.1,0.3,1.5,0.7L1222.5-94.2z M1238.1-198.9h-103.7
									c-1.3,0-2.4-1.1-2.4-2.4v-100.5c0-1.3,1.1-2.4,2.4-2.4h103.7c1.3,0,2.4,1.1,2.4,2.4v100.5
									C1240.5-200,1239.4-198.9,1238.1-198.9z M1136.8-203.7h98.8v-95.7h-98.8V-203.7z"/>
							</g>
						</g>
					</g>
				</g>
			</g>
			<g transform="matrix( 1, 0, 0, 1, 0,0) ">
				<g transform="matrix( 0.959686279296875, 0, 0, 0.959686279296875, 320.05,401.75) ">
					<g transform="matrix( 0.543975830078125, 0, 0, 0.543975830078125, -430.85,-194.95) ">
						<g>
							<g id="S_mbolo_8_0_Layer0_0_MEMBER_1_FILL_786_">
								<path class="st1" d="M1595.8-2h-33.6c-0.4,0-0.7-0.3-0.8-0.7c-1.7-10.5-2.7-20.8-2.8-30.4c0-0.2,0.1-0.4,0.3-0.6
									c0.2-0.2,0.4-0.2,0.6-0.2c10.1,0.9,21.3,1,33.1,0.2c0.4,0,0.8,0.3,0.8,0.7c1.2,13.8,2.2,23.9,3.1,30.1c0,0.2,0,0.5-0.2,0.6
									C1596.2-2.1,1596-2,1595.8-2z M1562.8-3.5h32c-0.9-6.1-1.9-15.7-2.9-28.5c-11.3,0.7-22,0.7-31.7-0.1
									C1560.3-23.1,1561.2-13.5,1562.8-3.5z M1596.6-9.3c-0.4,0-0.7-0.2-0.8-0.6c-0.4-1.6-0.8-5.2-1.2-11.1
									c-0.6-5.9-0.8-10.1-0.7-12.5l-2-2.2c-0.2-0.2-0.3-0.6-0.1-0.8c0.1-0.3,0.4-0.5,0.7-0.5h4.2c0.4,0,0.8,0.4,0.8,0.8v26.1
									C1597.4-9.7,1597.1-9.3,1596.6-9.3C1596.7-9.3,1596.7-9.3,1596.6-9.3z M1594.3-35.4l1,1.1c0.1,0.2,0.2,0.4,0.2,0.6
									c-0.1,1.7,0,4.7,0.3,8.7v-10.4H1594.3z M1579.6-33.9c-5.4,0-10.9-0.1-16.3-0.3c-9.5-0.5-21.9-1.5-36.8-3
									c-0.4,0-0.7-0.4-0.7-0.8v-33.8c0-0.2,0.1-0.5,0.3-0.6c0.2-0.1,0.4-0.2,0.6-0.2c2.1,0.4,5,0.7,8.4,1.1
									c-0.1-0.1-0.1-0.3-0.1-0.4c0-0.4,0.4-0.8,0.8-0.8h94.7c0.4,0,0.8,0.4,0.8,0.8v33.8c0,0.4-0.4,0.8-0.8,0.8h-40.2
									c-0.2,0-0.4-0.1-0.6-0.2L1558.9-69h-0.6l33,33.7c0.2,0.2,0.3,0.6,0.2,0.9s-0.4,0.5-0.7,0.5h-0.2
									C1586.9-33.9,1583.3-33.9,1579.6-33.9z M1527.5-38.6c14.6,1.5,26.7,2.4,36,2.9c8.4,0.3,17,0.4,25.5,0.2l-31.7-32.4
									c-2.9,0.1-7.8-0.3-15.1-1.1c-6.3-0.6-11.2-1.2-14.6-1.8v32.2H1527.5z M1590.7-38.7h39.1v-32.2h-74.7l4.2,0.3
									c0.2,0,0.4,0.1,0.5,0.2L1590.7-38.7z M1595.8-72.8H1562c-0.4,0-0.8-0.4-0.8-0.8v-32.7c0-0.4,0.4-0.8,0.8-0.8h33.8
									c0.4,0,0.8,0.4,0.8,0.8v32.7C1596.6-73.2,1596.2-72.8,1595.8-72.8z M1562.8-74.4h32.2v-31.2h-32.2V-74.4z"/>
							</g>
						</g>
					</g>
				</g>
			</g>
			<g transform="matrix( 1, 0, 0, 1, 0,0) ">
				<g transform="matrix( 0.959686279296875, 0, 0, 0.959686279296875, 320.05,401.75) ">
					<g transform="matrix( 0.543975830078125, 0, 0, 0.543975830078125, -430.85,-194.95) ">
						<g>
							<g id="S_mbolo_8_0_Layer0_0_MEMBER_1_FILL_785_">
								<path class="st1" d="M1477.1,86.3h-21.6c-0.2,0-0.5-0.2-0.5-0.4c-1.1-6.8-1.7-13.4-1.8-19.6c0-0.1,0.1-0.3,0.2-0.4
									s0.2-0.1,0.4-0.1c6.5,0.6,13.7,0.6,21.3,0.1c0.3,0,0.5,0.2,0.5,0.5c0.7,8.9,1.4,15.4,2,19.4c0,0.1,0,0.3-0.1,0.4
									S1477.2,86.3,1477.1,86.3z M1455.9,85.3h20.6c-0.6-3.9-1.2-10.1-1.9-18.3c-7.3,0.5-14.2,0.4-20.4-0.1
									C1454.3,72.7,1454.9,78.9,1455.9,85.3z M1477.7,81.6c-0.2,0-0.4-0.2-0.5-0.4c-0.2-1-0.5-3.3-0.8-7.1c-0.4-3.8-0.5-6.5-0.5-8
									l-1.3-1.4c-0.1-0.1-0.2-0.4-0.1-0.5c0.1-0.2,0.3-0.3,0.5-0.3h2.7c0.3,0,0.5,0.2,0.5,0.5v16.8
									C1478.2,81.4,1478,81.6,1477.7,81.6L1477.7,81.6z M1476.1,64.8l0.7,0.7c0.1,0.1,0.1,0.2,0.1,0.4c-0.1,1.1,0,3,0.2,5.6v-6.7
									H1476.1z M1466.7,65.8c-3.5,0-7-0.1-10.5-0.2c-6.1-0.3-14.1-0.9-23.7-1.9c-0.3,0-0.5-0.2-0.5-0.5V41.5
									c0-0.1,0.1-0.3,0.2-0.4c0.1-0.1,0.3-0.1,0.4-0.1c1.4,0.2,3.2,0.5,5.4,0.7c0-0.1-0.1-0.2-0.1-0.3c0-0.3,0.2-0.5,0.5-0.5h61
									c0.3,0,0.5,0.2,0.5,0.5v21.7c0,0.3-0.2,0.5-0.5,0.5h-25.9c-0.1,0-0.3-0.1-0.4-0.2L1453.2,43h-0.4l21.3,21.7
									c0.1,0.1,0.2,0.4,0.1,0.5c-0.1,0.2-0.3,0.3-0.5,0.3h-0.1C1471.4,65.8,1469,65.8,1466.7,65.8z M1433.1,62.7
									c9.4,0.9,17.2,1.6,23.2,1.9c5.4,0.2,10.9,0.3,16.4,0.1l-20.4-20.9c-1.9,0-5.1-0.2-9.7-0.7c-4-0.4-7.2-0.8-9.4-1.1
									L1433.1,62.7L1433.1,62.7z M1473.8,62.7h25.2V42h-48.1l2.7,0.2c0.1,0,0.2,0.1,0.3,0.2L1473.8,62.7z M1477.1,40.7h-21.7
									c-0.3,0-0.5-0.2-0.5-0.5v-21c0-0.3,0.2-0.5,0.5-0.5h21.7c0.3,0,0.5,0.2,0.5,0.5v21.1C1477.6,40.5,1477.4,40.7,1477.1,40.7z
									 M1455.9,39.7h20.7v-20h-20.7V39.7z"/>
							</g>
						</g>
					</g>
				</g>
			</g>
			<g transform="matrix( 1, 0, 0, 1, 0,0) ">
				<g transform="matrix( 0.959686279296875, 0, 0, 0.959686279296875, 320.05,401.75) ">
					<g transform="matrix( 0.543975830078125, 0, 0, 0.543975830078125, -430.85,-194.95) ">
						<g>
							<g id="S_mbolo_8_0_Layer0_0_MEMBER_1_FILL_784_">
								<path class="st1" d="M1277,296.6h-75.9c-0.9,0-1.6-0.6-1.7-1.5c-3.9-23.8-6.1-46.9-6.3-68.7c0-0.5,0.2-1,0.6-1.3
									s0.9-0.5,1.4-0.5c22.9,2.1,48,2.2,74.8,0.4c1-0.1,1.8,0.7,1.9,1.6c2.6,31.2,5,54.1,7.1,67.9c0.1,0.5-0.1,1-0.4,1.4
									C1278,296.4,1277.5,296.6,1277,296.6z M1202.6,293.1h72.3c-2-13.8-4.2-35.4-6.6-64.4c-25.6,1.7-49.7,1.6-71.7-0.3
									C1196.9,248.9,1199,270.6,1202.6,293.1z M1278.9,280.1c-0.8,0-1.5-0.6-1.7-1.4c-0.8-3.5-1.7-11.7-2.8-25
									c-1.3-13.3-1.8-22.7-1.6-28.2l-4.6-5c-0.5-0.5-0.6-1.3-0.3-1.9c0.3-0.6,0.9-1.1,1.6-1.1h9.4c1,0,1.8,0.8,1.8,1.8v59
									c0,0.9-0.7,1.7-1.6,1.8C1279.1,280.1,1279,280.1,1278.9,280.1z M1273.6,221.1l2.3,2.5c0.3,0.4,0.5,0.8,0.5,1.3
									c-0.2,4,0.1,10.5,0.8,19.6v-23.4C1277.2,221.1,1273.6,221.1,1273.6,221.1z M1240.5,224.6c-12.3,0-24.5-0.2-36.7-0.7
									c-21.4-1.1-49.4-3.3-83.1-6.7c-0.9-0.1-1.6-0.9-1.6-1.8v-76.3c0-0.5,0.2-1,0.6-1.4c0.4-0.3,0.9-0.5,1.4-0.4
									c4.8,0.8,11.2,1.7,19,2.6c-0.1-0.3-0.2-0.6-0.2-0.9c0-1,0.8-1.7,1.8-1.7h213.9c1,0,1.8,0.8,1.8,1.8v76.3
									c0,1-0.8,1.8-1.8,1.8h-90.8c-0.5,0-0.9-0.2-1.3-0.5l-69.9-71.5l-1.4-0.1l74.6,76.2c0.5,0.5,0.6,1.3,0.4,1.9
									c-0.3,0.7-0.9,1.1-1.6,1.1h-0.4C1257,224.5,1248.8,224.6,1240.5,224.6z M1122.6,213.8c32.9,3.3,60.3,5.5,81.3,6.5
									c19.1,0.7,38.4,0.9,57.5,0.5l-71.7-73.2c-6.6,0.2-17.7-0.6-34.1-2.4c-14.1-1.4-25.2-2.8-33-4L1122.6,213.8L1122.6,213.8z
									 M1265.5,213.6h88.3v-72.7H1185l9.5,0.8c0.4,0,0.8,0.2,1.1,0.5L1265.5,213.6z M1277,136.6h-76.3c-1,0-1.8-0.8-1.8-1.8V60.9
									c0-1,0.8-1.8,1.8-1.8h76.3c1,0,1.8,0.8,1.8,1.8v73.9C1278.7,135.8,1278,136.6,1277,136.6z M1202.5,133h72.7V62.7h-72.7V133z
									"/>
							</g>
						</g>
					</g>
				</g>
			</g>
			<g transform="matrix( 1, 0, 0, 1, 0,0) ">
				<g transform="matrix( 0.959686279296875, 0, 0, 0.959686279296875, 320.05,401.75) ">
					<g transform="matrix( 0.543975830078125, 0, 0, 0.543975830078125, -430.85,-194.95) ">
						<g>
							<g id="S_mbolo_8_0_Layer0_0_MEMBER_1_FILL_783_">
								<path class="st1" d="M1308.4,183.9h-33.2c-0.4,0-0.7-0.3-0.8-0.6c-1.7-10.4-2.7-20.5-2.8-30c0-0.2,0.1-0.4,0.2-0.6
									c0.2-0.2,0.4-0.2,0.6-0.2c10,0.9,21,1,32.7,0.2c0.4,0,0.8,0.3,0.8,0.7c1.1,13.7,2.2,23.7,3.1,29.7c0,0.2,0,0.5-0.2,0.6
									C1308.9,183.8,1308.6,183.9,1308.4,183.9z M1275.9,182.3h31.7c-0.9-6-1.8-15.5-2.9-28.2c-11.2,0.7-21.7,0.7-31.4-0.1
									C1273.4,163,1274.3,172.5,1275.9,182.3z M1309.3,176.7c-0.4,0-0.7-0.2-0.8-0.6c-0.4-1.5-0.8-5.1-1.2-11
									c-0.5-5.8-0.8-9.9-0.7-12.3l-2-2.2c-0.2-0.2-0.3-0.6-0.1-0.8c0.1-0.3,0.4-0.5,0.7-0.5h4.1c0.4,0,0.8,0.3,0.8,0.8v25.8
									C1310.1,176.3,1309.8,176.6,1309.3,176.7L1309.3,176.7z M1306.9,150.9l1,1.1c0.1,0.2,0.2,0.4,0.2,0.6
									c-0.1,1.7,0,4.6,0.3,8.6V151h-1.5V150.9z M1292.5,152.4c-5.4,0-10.7-0.1-16.1-0.3c-9.4-0.5-21.6-1.4-36.4-2.9
									c-0.4,0-0.7-0.4-0.7-0.8V115c0-0.2,0.1-0.4,0.3-0.6c0.2-0.1,0.4-0.2,0.6-0.2c2.1,0.4,4.9,0.7,8.3,1.1
									c-0.1-0.1-0.1-0.3-0.1-0.4c0-0.4,0.4-0.7,0.8-0.7h93.6c0.4,0,0.8,0.3,0.8,0.8v33.4c0,0.4-0.3,0.8-0.8,0.8h-39.7
									c-0.2,0-0.4-0.1-0.6-0.2l-30.6-31.3h-0.6L1304,151c0.2,0.2,0.3,0.6,0.2,0.8c-0.1,0.3-0.4,0.5-0.7,0.5h-0.2
									C1299.7,152.3,1296.1,152.4,1292.5,152.4z M1240.9,147.7c14.4,1.4,26.4,2.4,35.6,2.9c8.3,0.3,16.8,0.4,25.2,0.2l-31.4-32
									c-2.9,0.1-7.8-0.3-14.9-1c-6.2-0.6-11-1.2-14.5-1.8L1240.9,147.7L1240.9,147.7z M1303.4,147.6h38.6v-31.8h-73.9l4.2,0.3
									c0.2,0,0.4,0.1,0.5,0.2L1303.4,147.6z M1308.4,113.9H1275c-0.4,0-0.8-0.3-0.8-0.8V80.7c0-0.4,0.3-0.8,0.8-0.8h33.4
									c0.4,0,0.8,0.3,0.8,0.8V113C1309.2,113.5,1308.9,113.9,1308.4,113.9z M1275.8,112.3h31.8V81.5h-31.8V112.3z"/>
							</g>
						</g>
					</g>
				</g>
			</g>
			<g transform="matrix( 1, 0, 0, 1, 0,0) ">
				<g transform="matrix( 0.959686279296875, 0, 0, 0.959686279296875, 320.05,401.75) ">
					<g transform="matrix( 0.543975830078125, 0, 0, 0.543975830078125, -430.85,-194.95) ">
						<g>
							<g id="S_mbolo_8_0_Layer0_0_MEMBER_1_FILL_782_">
								<path class="st1" d="M1754,387.8c-52.8,3.6-102.5,3.4-147.6-0.7c-1-0.1-2,0.2-2.7,0.9c-0.7,0.7-1.1,1.6-1.1,2.6
									c0.5,42,4.5,86.6,12,132.5h156.8c-4-27.4-8.6-71.8-13.7-132.1C1757.5,389.1,1755.9,387.7,1754,387.8z M1621.4,522
									c-7.2-44.2-11.1-87.1-11.8-127.6c43.4,3.7,91,3.9,141.4,0.6c4.8,57.1,9.2,99.8,13.1,127H1621.4z"/>
								<path class="st1" d="M1459.9,372.3c66.5,6.7,121.6,11.2,163.9,13.2c24,0.9,48.3,1.4,72.5,1.4c16.3,0,32.5-0.2,48.7-0.6h0.8
									c1.4,0,2.7-0.8,3.2-2.1c0.5-1.3,0.3-2.8-0.7-3.8L1601,230.1l2.7,0.2l137.9,141c0.7,0.7,1.6,1.1,2.5,1.1h179.2
									c1.9,0,3.5-1.6,3.5-3.5V218.4c0-1.9-1.6-3.5-3.5-3.5h-422c-1.9,0-3.4,1.5-3.5,3.4c0,0.6,0.1,1.3,0.4,1.8
									c-15.4-1.8-27.9-3.5-37.4-5.1c-1-0.2-2.1,0.1-2.8,0.8c-0.8,0.7-1.2,1.6-1.2,2.7V369C1456.7,370.6,1458.1,372.1,1459.9,372.3
									z M1919.8,221.9v143.5h-174.2l-137.8-140.9c-0.6-0.6-1.4-1-2.2-1l-18.8-1.5h333V221.9z M1463.7,222.5
									c15.4,2.4,37.3,5.1,65.2,7.9c32.2,3.5,54.2,5,67.2,4.7l141.4,144.4c-37.7,0.8-75.8,0.5-113.4-0.9
									c-41.5-2-95.4-6.4-160.4-12.9L1463.7,222.5L1463.7,222.5z"/>
								<path class="st1" d="M1617.7,213.3h150.5c1.9,0,3.5-1.6,3.5-3.5V64c0-1.9-1.6-3.5-3.5-3.5h-150.5c-1.9,0-3.5,1.6-3.5,3.5
									v145.8C1614.2,211.8,1615.8,213.3,1617.7,213.3z M1621.2,67.5h143.5v138.8h-143.5V67.5z"/>
								<path class="st1" d="M1763.1,444.4c2.1,26.3,3.9,42.4,5.5,49.4c0.4,1.6,1.8,2.7,3.4,2.7c0.1,0,0.3,0,0.4,0
									c1.8-0.2,3.1-1.7,3.1-3.5V376.6c0-1.9-1.6-3.5-3.5-3.5h-18.6c-1.4,0-2.7,0.8-3.2,2.1c-0.6,1.3-0.3,2.8,0.6,3.8l9.1,9.8
									C1759.6,399.5,1760.7,418.2,1763.1,444.4z M1768.6,380.1v46.2c-1.4-17.9-1.9-30.9-1.5-38.6c0-0.9-0.3-1.9-0.9-2.6l-4.6-5
									H1768.6z"/>
							</g>
						</g>
					</g>
				</g>
			</g>
			<g transform="matrix( 1, 0, 0, 1, 0,0) ">
				<g transform="matrix( 0.959686279296875, 0, 0, 0.959686279296875, 320.05,401.75) ">
					<g transform="matrix( 0.543975830078125, 0, 0, 0.543975830078125, -430.85,-194.95) ">
						<g>
							<g id="S_mbolo_8_0_Layer0_0_MEMBER_1_FILL_781_">
								<path class="st1" d="M2056-59.6c-62.8,4.3-121.9,4-175.5-0.9c-1.2-0.1-2.3,0.3-3.2,1.1c-0.9,0.8-1.3,1.9-1.3,3.1
									c0.6,49.9,5.4,102.9,14.3,157.5h186.4c-4.8-32.6-10.3-85.4-16.3-157C2060.2-58,2058.2-59.7,2056-59.6z M1898.4,100
									c-8.5-52.5-13.2-103.5-14.1-151.7c51.6,4.4,108.1,4.7,168.1,0.8c5.7,67.9,10.9,118.6,15.6,150.9H1898.4z"/>
								<path class="st1" d="M1706.3-78c79.1,8,144.6,13.3,194.9,15.7c28.6,1.1,57.4,1.6,86.2,1.6c19.4,0,38.7-0.2,57.9-0.7h0.9
									c1.7,0,3.2-1,3.8-2.5c0.6-1.5,0.3-3.3-0.9-4.5l-175-178.7l3.3,0.3l164,167.7c0.8,0.8,1.9,1.3,3,1.3h213
									c2.3,0,4.2-1.9,4.2-4.2v-178.9c0-2.3-1.9-4.2-4.2-4.2h-501.7c-2.2,0-4.1,1.8-4.2,4c0,0.8,0.1,1.5,0.5,2.1
									c-18.3-2.1-33.2-4.2-44.5-6.1c-1.2-0.2-2.4,0.1-3.4,0.9c-0.9,0.8-1.5,2-1.5,3.2v178.9C1702.6-80,1704.2-78.2,1706.3-78z
									 M2253.1-256.9v170.6H2046l-163.8-167.5c-0.7-0.7-1.6-1.2-2.6-1.2l-22.3-1.8h395.8V-256.9z M1710.9-256.2
									c18.3,2.9,44.4,6,77.5,9.4c38.3,4.2,64.5,6,79.9,5.6l168.1,171.7c-44.8,1-90.2,0.6-134.9-1.1
									c-49.3-2.4-113.4-7.6-190.7-15.3L1710.9-256.2L1710.9-256.2z"/>
								<path class="st1" d="M1894-267h178.9c2.3,0,4.2-1.9,4.2-4.2v-173.4c0-2.3-1.9-4.2-4.2-4.2H1894c-2.3,0-4.2,1.9-4.2,4.2
									v173.4C1889.8-268.9,1891.7-267,1894-267z M1898.1-440.4h170.6v165.1h-170.6V-440.4z"/>
								<path class="st1" d="M2066.9,7.7c2.5,31.3,4.7,50.5,6.6,58.7c0.4,1.9,2.1,3.2,4.1,3.2c0.2,0,0.3,0,0.5,0
									c2.1-0.2,3.7-2,3.7-4.1V-72.9c0-2.3-1.9-4.2-4.2-4.2h-22.1c-1.7,0-3.2,1-3.8,2.5c-0.7,1.5-0.4,3.3,0.8,4.5l10.8,11.6
									C2062.7-45.7,2063.9-23.4,2066.9,7.7z M2073.3-68.8v54.9c-1.7-21.3-2.3-36.7-1.8-45.9c0.1-1.1-0.3-2.2-1.1-3.1l-5.5-5.9
									H2073.3z"/>
							</g>
						</g>
					</g>
				</g>
			</g>
		</g>
	</g>
</g>
</svg>
